<?xml version="1.0" encoding="utf-8"?>
<!-- Generator: Adobe Illustrator 22.1.0, SVG Export Plug-In . SVG Version: 6.00 Build 0)  -->
<svg version="1.1" id="Layer_1" xmlns="http://www.w3.org/2000/svg" xmlns:xlink="http://www.w3.org/1999/xlink" x="0px" y="0px"
	 viewBox="0 0 1635 234" style="enable-background:new 0 0 1635 234;" xml:space="preserve">
<title>440</title>
<path d="M177.4,145h-15.7v20.2h-21.8V145H88v-15l45.4-61.2h23.4l-42.1,58h25.9v-18h21.1v18h15.7L177.4,145z"/>
<path d="M306.4,117c0-31.8,17.6-49.9,41.3-49.9s41.3,18,41.3,49.9s-17.5,49.9-41.3,49.9S306.4,148.8,306.4,117z M366.6,117
	c0-21.9-7.7-31-18.9-31S329,95.1,329,117s7.7,31,18.7,31S366.6,138.9,366.6,117L366.6,117z"/>
<path d="M200.6,117c0-31.8,17.6-49.9,41.3-49.9s41.3,18,41.3,49.9s-17.5,49.9-41.3,49.9S200.6,148.8,200.6,117z M260.8,117
	c0-21.9-7.7-31-18.9-31s-18.7,9.1-18.7,31s7.7,31,18.7,31S260.8,138.9,260.8,117L260.8,117z"/>
<path d="M411.2,152.8c0-8,5.9-13.2,13.4-13.2s13.4,5.2,13.4,13.2c0,7.4-6,13.4-13.4,13.4C417.3,166.2,411.3,160.2,411.2,152.8
	L411.2,152.8z"/>
<path d="M460,117c0-31.8,17.6-49.9,41.3-49.9s41.3,18,41.3,49.9s-17.5,49.9-41.3,49.9S460,148.8,460,117z M520.2,117
	c0-21.9-7.7-31-18.9-31s-18.7,9.1-18.7,31s7.7,31,18.7,31S520.2,138.9,520.2,117L520.2,117z"/>
<path d="M567.3,117c0-31.8,17.6-49.9,41.3-49.9s41.3,18,41.3,49.9s-17.5,49.9-41.3,49.9S567.3,148.8,567.3,117z M627.5,117
	c0-21.9-7.7-31-18.9-31s-18.7,9.1-18.7,31s7.7,31,18.7,31S627.5,138.9,627.5,117z"/>
<path d="M674.5,117c0-31.8,17.6-49.9,41.3-49.9s41.3,18,41.3,49.9s-17.5,49.9-41.3,49.9S674.5,148.8,674.5,117z M734.7,117
	c0-21.9-7.7-31-18.9-31s-18.7,9.1-18.7,31s7.7,31,18.7,31S734.7,138.9,734.7,117z"/>
<path d="M779.3,152.8c0-8,5.9-13.2,13.4-13.2s13.4,5.2,13.4,13.2c0,7.4-6,13.4-13.3,13.4C785.4,166.2,779.4,160.2,779.3,152.8
	C779.3,152.8,779.3,152.8,779.3,152.8z"/>
<path d="M828.1,117c0-31.8,17.6-49.9,41.3-49.9s41.3,18,41.3,49.9s-17.5,49.9-41.3,49.9S828.1,148.8,828.1,117z M888.3,117
	c0-21.9-7.7-31-18.9-31c-11,0-18.7,9.1-18.7,31s7.7,31,18.7,31C880.6,148,888.3,138.9,888.3,117z"/>
<path d="M935.4,117c0-31.8,17.6-49.9,41.3-49.9S1018,85.2,1018,117s-17.5,49.9-41.3,49.9S935.4,148.8,935.4,117z M995.6,117
	c0-21.9-7.7-31-18.9-31S958,95.1,958,117s7.7,31,18.7,31S995.6,138.9,995.6,117z"/>
<path d="M1042.7,117c0-31.8,17.6-49.9,41.3-49.9s41.3,18,41.3,49.9s-17.5,49.9-41.3,49.9S1042.7,148.8,1042.7,117z M1102.9,117
	c0-21.9-7.7-31-18.9-31s-18.7,9.1-18.7,31s7.7,31,18.7,31S1102.9,138.9,1102.9,117z"/>
<path d="M1301.4,68.8l-41.7,96.4h-22l-41.6-96.4h24.1l29.3,68.9l29.8-68.9H1301.4z"/>
<path d="M1411.6,68.8v96.4h-18.3l-48.1-58.5v58.5h-22V68.8h18.5l47.9,58.5V68.8H1411.6z"/>
<path d="M1547,117c0,29.2-21.6,48.2-53.2,48.2H1450v-41.6h-13v-14.9h13V68.8h43.8C1525.4,68.8,1547,87.8,1547,117z M1524.4,117
	c0-18.5-12.5-29.9-31.7-29.9h-20.4v21.6h24.1v14.9h-24.1v23.3h20.4C1511.9,146.9,1524.4,135.5,1524.4,117z"/>
</svg>
