<?xml version="1.0" encoding="utf-8"?>
<!-- Generator: Adobe Illustrator 22.1.0, SVG Export Plug-In . SVG Version: 6.00 Build 0)  -->
<svg version="1.1" id="Layer_1" xmlns="http://www.w3.org/2000/svg" xmlns:xlink="http://www.w3.org/1999/xlink" x="0px" y="0px"
	 viewBox="0 0 1675 234" style="enable-background:new 0 0 1675 234;" xml:space="preserve">
<style type="text/css">
	.st0{font-family:'AvenirNext-Bold';}
	.st1{font-size:126.8702px;}
</style>
<title>mục tiêu tháng 9</title>
<path d="M188.4,155.8l-0.1-51.3l-25.2,42.3h-8.9l-25-41.2v50.2h-18.6V70.3h16.4l32,53.2l31.5-53.2h16.3l0.2,85.5L188.4,155.8z"/>
<path d="M238.7,118.2V70.3h19.8v47.2c0,16.3,7.1,23,19.1,23s19.1-6.7,19.1-23V70.3h19.5v47.9c0,25.2-14.4,39.1-38.7,39.1
	S238.7,143.3,238.7,118.2z M269.1,173.3c-0.2-4.7,3.5-8.6,8.1-8.7c4.7-0.2,8.6,3.5,8.7,8.1c0,0.2,0,0.4,0,0.6c0,5-3.7,8.2-8.4,8.2
	S269.1,178.3,269.1,173.3z"/>
<path d="M342.6,113c0-25.8,19.8-44.2,46.4-44.2c14.8,0,27.1,5.4,35.2,15.2l-12.7,11.8c-5.7-6.6-13-10-21.5-10
	c-16,0-27.4,11.2-27.4,27.4s11.4,27.4,27.4,27.4c8.5,0,15.8-3.4,21.5-10.1l12.7,11.8c-8.1,9.9-20.4,15.3-35.3,15.3
	C362.4,157.3,342.6,138.8,342.6,113z"/>
<path d="M514.2,86.4h-27.4V70.3h74.5v16.1H534v69.4h-19.8V86.4z"/>
<path d="M584.2,70.3H604v85.5h-19.8V70.3z"/>
<path d="M702.8,139.9v15.9h-66.2V70.3h64.6v15.9h-45v18.6h39.7v15.4h-39.7v19.8H702.8z M658.3,63.3h-13.9l16.1-17.6h16.9l16.1,17.6
	h-13.9L668.9,54L658.3,63.3z"/>
<path d="M730,118.2V70.3h19.8v47.2c0,16.3,7.1,23,19.1,23s19.1-6.7,19.1-23V70.3h19.5v47.9c0,25.2-14.4,39.1-38.7,39.1
	S730,143.3,730,118.2z"/>
<path d="M903.8,86.4h-27.4V70.3h74.5v16.1h-27.4v69.4h-19.8V86.4z"/>
<path d="M1052.2,70.3v85.5h-19.8v-35.1h-38.9v35.1h-19.8V70.3h19.8V104h38.9V70.3H1052.2z"/>
<path d="M1141.1,137.5h-39.7l-7.6,18.3h-20.3l38.1-85.5h19.6l38.2,85.5h-20.8L1141.1,137.5z M1134.8,122.5l-13.6-32.7l-13.6,32.7
	H1134.8z M1125.2,63.3h-14.9l16.5-17.6h20.5L1125.2,63.3z"/>
<path d="M1269,70.3v85.5h-16.2l-42.7-51.9v51.9h-19.6V70.3h16.4l42.5,51.9V70.3H1269z"/>
<path d="M1359.3,111.7h18.1v34.7c-9.4,7.1-22.4,10.9-34.6,10.9c-26.9,0-46.7-18.4-46.7-44.2s19.8-44.2,47-44.2
	c15,0,27.5,5.1,35.8,14.8l-12.7,11.7c-5.6-6.3-13.7-9.8-22.1-9.7c-16.6,0-28,11.1-28,27.4c0,16,11.4,27.4,27.7,27.4
	c5.4,0.1,10.7-1.2,15.4-3.7L1359.3,111.7z"/>
<text transform="matrix(1 0 0 1 1431.944 157.26)" class="st0 st1">10</text>
</svg>
