<svg id="Layer_1" data-name="Layer 1" xmlns="http://www.w3.org/2000/svg" viewBox="0 0 2006 887.99"><defs><style>.cls-1{fill:#c90202;}.cls-2{fill:#fff;}</style></defs><title>Image convert 1 fix text</title><path d="M118.88,530.49l-11.76,12.27v22.16H87V477.29h20.16v40.93l38.81-40.93h22.53l-36.3,39.06,38.43,48.57H146.93Z"/><path d="M247.46,548.65v16.27H179.6V477.29h66.23v16.27H199.76v19h40.69v15.78H199.76v20.28Z"/><path d="M343.36,564.92l-.13-52.58-25.79,43.32H308.3l-25.66-42.19v51.45h-19V477.29h16.77l32.81,54.46,32.3-54.46h16.65l.25,87.63Z"/><path d="M499,477.29v87.63H482.32l-43.69-53.2v53.2h-20V477.29h16.77l43.57,53.2v-53.2Z"/><path d="M539.91,548.65h47.7v16.27H519.75V477.29H586v16.27H539.91v19H580.6v15.78H539.91Zm2.25-78.5H527.77l16.65-14.27h17l16.65,14.27H563.7L552.93,463Zm33.31-12L555.81,443h19.91l13.77,15.15Z"/><path d="M684.14,477.29v87.63H667.49l-43.7-53.2v53.2h-20V477.29h16.78l43.56,53.2v-53.2Z"/><path d="M78.81,622.61c0-12.13,9.32-20.82,21.86-20.82,7,0,12.77,2.53,16.57,7.13l-6,5.53a13,13,0,0,0-10.13-4.72c-7.54,0-12.88,5.29-12.88,12.88s5.34,12.89,12.88,12.89a12.86,12.86,0,0,0,10.13-4.77l6,5.52c-3.8,4.66-9.61,7.19-16.63,7.19C88.13,643.44,78.81,634.75,78.81,622.61Z"/><path d="M149.22,634.12h-18.7L127,642.75h-9.55l18-40.27h9.2l18,40.27h-9.78ZM146.29,627l-6.39-15.41L133.52,627Z"/><path d="M173.09,610.07H160.2v-7.59h35.1v7.59H182.41v32.68h-9.32Z"/><path d="M237.23,602.48v40.27h-9.32V626.24H209.62v16.51H200.3V602.48h9.32v15.88h18.29V602.48Z"/><path d="M266.1,628.48v14.27h-9.31V628.37L241.2,602.48h9.89l10.76,17.89,10.75-17.89h9.15Z"/><path d="M301.94,602.48h18.29c13.18,0,22.21,7.94,22.21,20.13s-9,20.14-22.21,20.14H301.94Zm17.83,32.62c8,0,13.23-4.78,13.23-12.49s-5.23-12.48-13.23-12.48h-8.51v25Z"/><path d="M346.92,622.61c0-12,9.32-20.82,22-20.82s22,8.8,22,20.82-9.37,20.83-22,20.83S346.92,634.58,346.92,622.61Zm34.63,0c0-7.65-5.41-12.88-12.6-12.88s-12.6,5.23-12.6,12.88,5.41,12.89,12.6,12.89S381.55,630.27,381.55,622.61Z"/><path d="M398,602.48h9.32v32.67h20.19v7.6H398Z"/><path d="M432.74,602.48h9.32v32.67h20.19v7.6H432.74Z"/><path d="M480.6,638.78l3.16-7a23.74,23.74,0,0,0,13.29,4.2c5.52,0,7.77-1.84,7.77-4.31,0-7.54-23.41-2.36-23.41-17.32,0-6.85,5.52-12.54,17-12.54a27,27,0,0,1,14,3.57l-2.87,7.07a22.74,22.74,0,0,0-11.16-3.16c-5.52,0-7.65,2.07-7.65,4.6,0,7.42,23.41,2.3,23.41,17.09,0,6.73-5.58,12.48-17.09,12.48C490.61,643.44,484.17,641.54,480.6,638.78Z"/><path d="M555.38,617.09c0,9-6.73,14.56-17.49,14.56h-8.11v11.1h-9.32V602.48h17.43C548.65,602.48,555.38,608.06,555.38,617.09Zm-9.43,0c0-4.43-2.88-7-8.58-7h-7.59v14h7.59C543.07,624.05,546,621.46,546,617.09Z"/><path d="M593.17,635.27v7.48H562V602.48h30.43V610H571.25v8.74H590V626h-18.7v9.32Z"/><path d="M631.77,635.27v7.48H600.59V602.48H631V610H609.85v8.74h18.7V626h-18.7v9.32Z"/><path d="M639.19,602.48h18.29c13.17,0,22.21,7.94,22.21,20.13s-9,20.14-22.21,20.14H639.19ZM657,635.1c8,0,13.23-4.78,13.23-12.49S665,610.13,657,610.13h-8.51v25Z"/><path d="M763.84,602.48l-13.17,40.27h-10l-8.86-27.27-9.15,27.27H712.7l-13.23-40.27h9.66l9.09,28.3,9.49-28.3h8.63L745.55,631l9.37-28.53Z"/><path d="M805.94,602.48v40.27h-9.31V626.24h-18.3v16.51H769V602.48h9.32v15.88h18.3V602.48Z"/><path d="M815.49,602.48h9.32v40.27h-9.32Z"/><path d="M842.7,610.07H829.81v-7.59H864.9v7.59H852v32.68H842.7Z"/><path d="M901.09,635.27v7.48H869.91V602.48h30.43V610H879.17v8.74h18.69V626H879.17v9.32Z"/><path d="M922.25,622.61c0-12.13,9.32-20.82,21.86-20.82,7,0,12.77,2.53,16.57,7.13l-6,5.53a13,13,0,0,0-10.13-4.72c-7.54,0-12.89,5.29-12.89,12.88S937,635.5,944.57,635.5a12.86,12.86,0,0,0,10.13-4.77l6,5.52c-3.8,4.66-9.61,7.19-16.63,7.19C931.57,643.44,922.25,634.75,922.25,622.61Z"/><path d="M963.55,622.61c0-12.13,9.32-20.82,21.86-20.82,7,0,12.77,2.53,16.57,7.13l-6,5.53a13,13,0,0,0-10.13-4.72c-7.54,0-12.89,5.29-12.89,12.88s5.35,12.89,12.89,12.89A12.86,12.86,0,0,0,996,630.73l6,5.52c-3.8,4.66-9.61,7.19-16.63,7.19C972.87,643.44,963.55,634.75,963.55,622.61Z"/><path d="M1022,622.61c0-12.13,9.32-20.82,21.86-20.82,7,0,12.77,2.53,16.57,7.13l-6,5.53a13,13,0,0,0-10.13-4.72c-7.53,0-12.88,5.29-12.88,12.88s5.35,12.89,12.88,12.89a12.86,12.86,0,0,0,10.13-4.77l6,5.52c-3.8,4.66-9.61,7.19-16.63,7.19C1031.31,643.44,1022,634.75,1022,622.61Z"/><path d="M1092.34,642.75l-7.76-11.22H1076v11.22h-9.32V602.48h17.43c10.75,0,17.48,5.58,17.48,14.61a13.1,13.1,0,0,1-8.28,12.72l9,12.94Zm-8.74-32.68H1076v14h7.59c5.69,0,8.57-2.65,8.57-7S1089.29,610.07,1083.6,610.07Z"/><path d="M1140.14,635.27v7.48H1109V602.48h30.43V610h-21.16v8.74h18.69V626h-18.69v9.32Z"/><path d="M1174.08,634.12h-18.7l-3.56,8.63h-9.55l18-40.27h9.2l18,40.27h-9.78Zm-2.93-7.08-6.39-15.41L1158.38,627Z"/><path d="M1228.27,642.75l-.06-24.16-11.85,19.9h-4.2l-11.79-19.38v23.64h-8.75V602.48h7.71l15.07,25,14.84-25h7.66l.11,40.27Z"/><path d="M1259.67,638.78l3.16-7a23.74,23.74,0,0,0,13.29,4.2c5.52,0,7.77-1.84,7.77-4.31,0-7.54-23.41-2.36-23.41-17.32,0-6.85,5.52-12.54,17-12.54,5.06,0,10.24,1.21,14,3.57l-2.87,7.07a22.71,22.71,0,0,0-11.16-3.16c-5.52,0-7.65,2.07-7.65,4.6,0,7.42,23.41,2.3,23.41,17.09,0,6.73-5.58,12.48-17.09,12.48C1269.68,643.44,1263.24,641.54,1259.67,638.78Z"/><path d="M1334.45,617.09c0,9-6.73,14.56-17.49,14.56h-8.11v11.1h-9.32V602.48H1317C1327.72,602.48,1334.45,608.06,1334.45,617.09Zm-9.43,0c0-4.43-2.88-7-8.57-7h-7.6v14h7.6C1322.14,624.05,1325,621.46,1325,617.09Z"/><path d="M1350.38,610V620.6H1369v7.48h-18.64v14.67h-9.32V602.48h30.43V610Z"/><path d="M1422,630.09c0,7.14-5.24,13.35-16.74,13.35-5.58,0-11.45-1.55-15.36-4.32l3.68-7.13a19.4,19.4,0,0,0,11.45,3.63c4.66,0,7.53-2,7.53-5.24s-2.07-5.23-9.37-5.23h-10.3l2.07-22.67h24.56V610h-16.79l-.64,7.65h3.28C1417.28,617.61,1422,623,1422,630.09Z"/><path d="M1425.79,622.61c0-13.28,7.37-20.82,17.26-20.82s17.26,7.54,17.26,20.82-7.31,20.83-17.26,20.83S1425.79,635.9,1425.79,622.61Zm25.14,0c0-9.14-3.22-12.94-7.88-12.94s-7.82,3.8-7.82,12.94,3.22,12.95,7.82,12.95S1450.93,631.76,1450.93,622.61Z"/><path d="M1518.58,617.09c0,9-6.73,14.56-17.49,14.56H1493v11.1h-9.32V602.48h17.43C1511.85,602.48,1518.58,608.06,1518.58,617.09Zm-9.44,0c0-4.43-2.87-7-8.57-7H1493v14h7.59C1506.27,624.05,1509.14,621.46,1509.14,617.09Z"/><path d="M1549.7,634.12H1531l-3.57,8.63h-9.55l17.95-40.27H1545l18,40.27h-9.78Zm-2.94-7.08-6.38-15.41L1534,627Z"/><path d="M1592.09,626.12h-10v9.78h-7.42v-9.78h-10v-7h10v-9.78h7.42v9.78h10Z"/><path d="M1626.89,626.12h-10v9.78h-7.42v-9.78h-10v-7h10v-9.78h7.42v9.78h10Z"/><path d="M1661.69,626.12h-10v9.78h-7.42v-9.78h-10v-7h10v-9.78h7.42v9.78h10Z"/><path d="M1696,627.27h7.48v6.27h-8.23l-1.15,9.21h-6.5l1.15-9.21h-8.45l-1.15,9.21h-6.45l1.15-9.21h-7.53v-6.27h8.28l1.21-9.32h-7.54v-6.27h8.29l1.15-9.2h6.44l-1.15,9.2h8.46l1.15-9.2h6.44l-1.15,9.2h7.48l0,6.27h-8.28Zm-6.5,0,1.21-9.32h-8.46l-1.21,9.32Z"/><path d="M1724.39,602.48v40.27h-9.32V610h-8v-7.48Z"/><g id="_Rectangle_" data-name="&lt;Rectangle&gt;"><rect class="cls-1" x="77" y="60.49" width="921" height="272"/></g><path class="cls-2" d="M212.1,244.19V165.71L192.18,181.1l-13.13-18,35.15-25.81h23.11V244.19Z"/><path class="cls-2" d="M357.6,172.65a43.61,43.61,0,0,1-3.32,17.28,99.85,99.85,0,0,1-8.6,15.77L319.9,244.19H289.28l26.58-36.83.31-.45a19.09,19.09,0,0,1-3.7.9,25,25,0,0,1-3.84.31,36.3,36.3,0,0,1-13.41-2.49,33.91,33.91,0,0,1-11.14-7.1,34.21,34.21,0,0,1-10.55-25.28,38.76,38.76,0,0,1,3.31-16.3,35.66,35.66,0,0,1,9-12.22,40,40,0,0,1,13.41-7.62,51.73,51.73,0,0,1,32.69,0,39.14,39.14,0,0,1,13.34,7.62,36.51,36.51,0,0,1,9,12.07A37,37,0,0,1,357.6,172.65Zm-25.21-.3a17.52,17.52,0,0,0-4.47-12q-4.47-5.06-12.21-5.06t-12.35,4.76q-4.64,4.75-4.63,12.45a16.67,16.67,0,0,0,4.55,12q4.55,4.75,12.13,4.75t12.28-4.68Q332.39,179.89,332.39,172.35Z"/><path class="cls-2" d="M455.1,172.65a43.61,43.61,0,0,1-3.32,17.28,99.85,99.85,0,0,1-8.6,15.77l-25.79,38.49H386.78l26.58-36.83.31-.45a19.09,19.09,0,0,1-3.7.9,25,25,0,0,1-3.84.31,36.3,36.3,0,0,1-13.41-2.49,34.06,34.06,0,0,1-11.15-7.1A34.26,34.26,0,0,1,371,173.25a38.76,38.76,0,0,1,3.31-16.3,35.66,35.66,0,0,1,9-12.22,40,40,0,0,1,13.41-7.62,51.73,51.73,0,0,1,32.69,0,39.23,39.23,0,0,1,13.34,7.62,36.51,36.51,0,0,1,9,12.07A37,37,0,0,1,455.1,172.65Zm-25.21-.3a17.52,17.52,0,0,0-4.47-12q-4.47-5.06-12.21-5.06t-12.35,4.76q-4.64,4.75-4.63,12.45a16.67,16.67,0,0,0,4.55,12q4.55,4.75,12.13,4.75t12.28-4.68Q429.89,179.89,429.89,172.35Z"/><path class="cls-2" d="M485.28,262.9H464.9L476.22,220h23.7Z"/><path class="cls-2" d="M597.72,190.46A99.92,99.92,0,0,1,595.46,212a55.19,55.19,0,0,1-7.25,18,37.52,37.52,0,0,1-12.9,12.37q-7.93,4.61-19.25,4.61t-19.31-4.61a37.91,37.91,0,0,1-13.06-12.37,54.2,54.2,0,0,1-7.32-18,99.92,99.92,0,0,1-2.26-21.58A98.87,98.87,0,0,1,516.37,169a52.52,52.52,0,0,1,7.32-17.81A37.75,37.75,0,0,1,536.75,139q8-4.53,19.31-4.53T575.31,139a37.35,37.35,0,0,1,12.9,12.15A53.47,53.47,0,0,1,595.46,169,98.87,98.87,0,0,1,597.72,190.46Zm-26,0q0-5-.6-11a55.24,55.24,0,0,0-2.27-11.24,24.48,24.48,0,0,0-4.75-8.76,10.24,10.24,0,0,0-8.08-3.54,10.45,10.45,0,0,0-8.15,3.54,24.57,24.57,0,0,0-4.9,8.76,51.45,51.45,0,0,0-2.34,11.24q-.6,6-.6,11,0,5.13.6,11.24A51.45,51.45,0,0,0,543,213a24.65,24.65,0,0,0,4.9,8.76,10.45,10.45,0,0,0,8.15,3.54,10.24,10.24,0,0,0,8.08-3.54,24.57,24.57,0,0,0,4.75-8.76,55.21,55.21,0,0,0,2.27-11.32Q571.76,195.6,571.76,190.46Z"/><path class="cls-2" d="M695.22,190.46A99.92,99.92,0,0,1,693,212a55,55,0,0,1-7.24,18,37.52,37.52,0,0,1-12.9,12.37q-7.93,4.61-19.25,4.61t-19.32-4.61a38,38,0,0,1-13-12.37,54.2,54.2,0,0,1-7.32-18,99.92,99.92,0,0,1-2.27-21.58A98.86,98.86,0,0,1,613.87,169a52.52,52.52,0,0,1,7.32-17.81,37.81,37.81,0,0,1,13-12.15q8-4.53,19.32-4.53T672.81,139a37.35,37.35,0,0,1,12.9,12.15A53.25,53.25,0,0,1,693,169,98.86,98.86,0,0,1,695.22,190.46Zm-26,0a109.5,109.5,0,0,0-.61-11,54.58,54.58,0,0,0-2.26-11.24,24.48,24.48,0,0,0-4.75-8.76,10.24,10.24,0,0,0-8.08-3.54,10.44,10.44,0,0,0-8.15,3.54,24.57,24.57,0,0,0-4.9,8.76,51.45,51.45,0,0,0-2.34,11.24,109.5,109.5,0,0,0-.61,11q0,5.13.61,11.24A51.45,51.45,0,0,0,640.51,213a24.65,24.65,0,0,0,4.9,8.76,10.44,10.44,0,0,0,8.15,3.54,10.24,10.24,0,0,0,8.08-3.54,24.57,24.57,0,0,0,4.75-8.76,54.56,54.56,0,0,0,2.26-11.32Q669.26,195.6,669.26,190.46Z"/><path class="cls-2" d="M792.72,190.46A99.92,99.92,0,0,1,790.45,212a55.18,55.18,0,0,1-7.24,18,37.46,37.46,0,0,1-12.91,12.37q-7.92,4.61-19.24,4.61t-19.32-4.61a38,38,0,0,1-13-12.37,54,54,0,0,1-7.32-18,99.92,99.92,0,0,1-2.27-21.58A98.86,98.86,0,0,1,711.37,169a52.32,52.32,0,0,1,7.32-17.81,37.81,37.81,0,0,1,13-12.15q8-4.53,19.32-4.53T770.3,139a37.29,37.29,0,0,1,12.91,12.15A53.46,53.46,0,0,1,790.45,169,98.86,98.86,0,0,1,792.72,190.46Zm-26,0c0-3.32-.21-7-.61-11a54.58,54.58,0,0,0-2.26-11.24,24.48,24.48,0,0,0-4.75-8.76,10.24,10.24,0,0,0-8.08-3.54,10.44,10.44,0,0,0-8.15,3.54,24.57,24.57,0,0,0-4.9,8.76,51.45,51.45,0,0,0-2.34,11.24,109.5,109.5,0,0,0-.61,11q0,5.13.61,11.24A51.45,51.45,0,0,0,738,213a24.65,24.65,0,0,0,4.9,8.76,10.44,10.44,0,0,0,8.15,3.54,10.24,10.24,0,0,0,8.08-3.54,24.57,24.57,0,0,0,4.75-8.76,54.56,54.56,0,0,0,2.26-11.32C766.55,197.63,766.76,193.88,766.76,190.46Z"/><path class="cls-2" d="M866.22,244.19v-9.81h-.3a23.57,23.57,0,0,1-10.34,8.83,33.72,33.72,0,0,1-14.26,3.09,33.36,33.36,0,0,1-15.1-3.32A34.49,34.49,0,0,1,815,234.15a38.74,38.74,0,0,1-7-12.75,47.4,47.4,0,0,1-2.41-15.09,45.47,45.47,0,0,1,2.49-15,39.09,39.09,0,0,1,7.09-12.6A33.07,33.07,0,0,1,841,166.91a28.71,28.71,0,0,1,14,3.17A31.17,31.17,0,0,1,864,177h.31V158.16H841.77V144.73h22.49V130.09H889v14.64H896v13.43H889v86Zm-.91-37.73a20.61,20.61,0,0,0-4.9-13.29,18.09,18.09,0,0,0-5.66-4.37,16.63,16.63,0,0,0-7.55-1.66,17,17,0,0,0-7.7,1.66,17.39,17.39,0,0,0-9,10.41,22.92,22.92,0,0,0-1.13,7.1,23.53,23.53,0,0,0,1.13,7.16,18.48,18.48,0,0,0,3.4,6.27,16.66,16.66,0,0,0,13.28,6,16.76,16.76,0,0,0,7.55-1.66,18.12,18.12,0,0,0,5.66-4.38,20.05,20.05,0,0,0,3.62-6.19A20.41,20.41,0,0,0,865.31,206.46Z"/></svg>