<svg id="Layer_1" data-name="Layer 1" xmlns="http://www.w3.org/2000/svg" viewBox="0 0 996 419"><defs><style>.cls-1{fill:#c90202;}.cls-2{fill:#fff;}</style></defs><title>Image convert 4 (chăm sóc da mặt và tẩy trang) text fix</title><path d="M55.14,205.53a6.87,6.87,0,0,0-2.54-2,7.55,7.55,0,0,0-3.31-.79,7.9,7.9,0,0,0-2,.25,6,6,0,0,0-1.8.76,4.39,4.39,0,0,0-1.33,1.35,3.8,3.8,0,0,0-.51,2,3.56,3.56,0,0,0,.45,1.84,4.14,4.14,0,0,0,1.23,1.31,8.59,8.59,0,0,0,1.92.94c.75.27,1.57.54,2.47.81s2.08.71,3.17,1.13a12.3,12.3,0,0,1,3,1.66,8.38,8.38,0,0,1,2.25,2.61,8,8,0,0,1,.88,3.92,10,10,0,0,1-1,4.47A9.22,9.22,0,0,1,55.59,229a10.75,10.75,0,0,1-3.69,1.89,15.49,15.49,0,0,1-4.45.63,16.86,16.86,0,0,1-6.08-1.15,11.78,11.78,0,0,1-4.86-3.4l4.05-3.78a8.12,8.12,0,0,0,3.13,2.57,8.79,8.79,0,0,0,3.85.94,8.4,8.4,0,0,0,2-.25,5.35,5.35,0,0,0,1.87-.83,4.83,4.83,0,0,0,1.35-1.46A4.29,4.29,0,0,0,53.3,222a3.59,3.59,0,0,0-.59-2.1,5.34,5.34,0,0,0-1.57-1.44,11.58,11.58,0,0,0-2.34-1.05L46,216.46a28.09,28.09,0,0,1-2.88-1.08,9.63,9.63,0,0,1-2.59-1.66,8.08,8.08,0,0,1-1.86-2.55,8.65,8.65,0,0,1-.72-3.75,8.2,8.2,0,0,1,1-4.19,8.88,8.88,0,0,1,2.65-2.9,11.63,11.63,0,0,1,3.74-1.71,16.05,16.05,0,0,1,4.25-.56,15.18,15.18,0,0,1,4.93.85,12.08,12.08,0,0,1,4.34,2.57Z"/><path d="M90.11,219a13.05,13.05,0,0,1-1,5.19,11.61,11.61,0,0,1-2.7,3.94,12,12,0,0,1-4,2.5,15.13,15.13,0,0,1-10.17,0,12.29,12.29,0,0,1-4.08-2.5,11.34,11.34,0,0,1-2.7-3.94,13.41,13.41,0,0,1-1-5.19V198.87h5.67V218.8a10.91,10.91,0,0,0,.36,2.77A6.74,6.74,0,0,0,71.68,224a6.15,6.15,0,0,0,2.2,1.76,9,9,0,0,0,6.8,0,6.15,6.15,0,0,0,2.2-1.76,6.76,6.76,0,0,0,1.2-2.45,10.91,10.91,0,0,0,.36-2.77V198.87h3.19a3.53,3.53,0,0,0,2.81-.93,3.81,3.81,0,0,0,.79-2.58,5.84,5.84,0,0,0-.2-1.47,4.55,4.55,0,0,0-.56-1.28l4.63-1.17a7.16,7.16,0,0,1,.63,1.82,11.11,11.11,0,0,1,.18,2.1,6.48,6.48,0,0,1-1.55,4.72,6,6,0,0,1-4.25,1.67ZM69,196.17a14,14,0,0,1,.52-2.12,6.11,6.11,0,0,1,.92-1.82A4.61,4.61,0,0,1,71.9,191a4.31,4.31,0,0,1,2.14-.5,7.63,7.63,0,0,1,1.82.23,10.15,10.15,0,0,1,1.74.58c.6.24,1.14.44,1.64.61a4.28,4.28,0,0,0,1.28.25,1.67,1.67,0,0,0,1.37-.57,3.49,3.49,0,0,0,.7-1.32h3a13.83,13.83,0,0,1-.52,2.11,6.11,6.11,0,0,1-.92,1.82,4.64,4.64,0,0,1-1.46,1.29,4.31,4.31,0,0,1-2.14.49,6.85,6.85,0,0,1-1.89-.27,15.87,15.87,0,0,1-1.8-.63,14.18,14.18,0,0,0-1.53-.58,4.33,4.33,0,0,0-1.26-.23,1.65,1.65,0,0,0-1.37.59,3.78,3.78,0,0,0-.7,1.35Z"/><path d="M107.3,198.87h4.9l13.73,31.86h-6.48l-3-7.29H102.66l-2.88,7.29H93.44Zm7.2,19.71-4.91-13-5,13Z"/><path d="M139.52,198.87h11.07a19.61,19.61,0,0,1,4.36.47,11.18,11.18,0,0,1,3.76,1.55,8.15,8.15,0,0,1,2.63,2.84,8.56,8.56,0,0,1,1,4.27,8.13,8.13,0,0,1-2,5.65A9.87,9.87,0,0,1,155,216.6l8.51,14.13h-6.84l-7.38-13.5h-4.14v13.5h-5.67Zm10.3,13.72a16.56,16.56,0,0,0,2.43-.18,7,7,0,0,0,2.18-.67,4.28,4.28,0,0,0,1.6-1.42,4.11,4.11,0,0,0,.63-2.36,3.63,3.63,0,0,0-.58-2.14,4.33,4.33,0,0,0-1.49-1.33,6.18,6.18,0,0,0-2.05-.67,14.23,14.23,0,0,0-2.22-.18h-5.13v9Z"/><path d="M193.2,219a13.05,13.05,0,0,1-1,5.19,11.61,11.61,0,0,1-2.7,3.94,12,12,0,0,1-4,2.5,15.13,15.13,0,0,1-10.17,0,12.15,12.15,0,0,1-4.07-2.5,11.08,11.08,0,0,1-2.7-3.94,13.23,13.23,0,0,1-1-5.19V198.87h5.67V218.8a10.91,10.91,0,0,0,.36,2.77,6.9,6.9,0,0,0,1.19,2.45,6.19,6.19,0,0,0,2.21,1.76,8.94,8.94,0,0,0,6.79,0A6.19,6.19,0,0,0,186,224a6.9,6.9,0,0,0,1.19-2.45,10.91,10.91,0,0,0,.36-2.77V198.87h3.2a3.54,3.54,0,0,0,2.81-.93,3.86,3.86,0,0,0,.79-2.58,5.44,5.44,0,0,0-.21-1.47,4.28,4.28,0,0,0-.56-1.28l4.64-1.17a7.16,7.16,0,0,1,.63,1.82,11.11,11.11,0,0,1,.18,2.1,6.44,6.44,0,0,1-1.56,4.72,6,6,0,0,1-4.25,1.67Zm-14.53-22.19a3.62,3.62,0,0,1,.45-1.91,4.54,4.54,0,0,1,1.75-1.46,2,2,0,0,0,1.26-1.67c0-.93-.52-1.39-1.57-1.39a1.86,1.86,0,0,0-1.38.47,2.91,2.91,0,0,0-.65,1.6L175,192a4.77,4.77,0,0,1,1.84-3.24,6.36,6.36,0,0,1,3.83-1.08,5.69,5.69,0,0,1,3.78,1.14,3.52,3.52,0,0,1,1.35,2.77,3.65,3.65,0,0,1-.57,2.07,4.2,4.2,0,0,1-1.82,1.44,2.76,2.76,0,0,0-1.06.77,1.59,1.59,0,0,0-.29.94Z"/><path d="M210.39,198.87h4.91L229,230.73h-6.48l-3-7.29H205.76l-2.88,7.29h-6.35Zm7.2,19.71-4.9-13-5,13Z"/><path d="M242.61,198.87h8.87l8.28,22.63h.13l8.19-22.63H277v31.86h-5.62V205.12h-.09l-9.68,25.61h-4l-9.54-25.61H248v25.61h-5.4Z"/><path d="M294,198.87h4.91l13.72,31.86h-6.48l-3-7.29H289.37l-2.88,7.29h-6.35Zm-2.16-9a3,3,0,0,0,1.62,2.34,6.88,6.88,0,0,0,3,.63,7.17,7.17,0,0,0,3.06-.54,3.46,3.46,0,0,0,1.62-2.43h3a6.78,6.78,0,0,1-2.41,4.9,8.45,8.45,0,0,1-5.29,1.58,8.58,8.58,0,0,1-5.31-1.56,6.29,6.29,0,0,1-2.29-4.92Zm9.36,28.71-4.9-13-5,13Zm-8.14,18.76a3.11,3.11,0,0,1,1-2.27,3.33,3.33,0,0,1,2.46-1A3.56,3.56,0,0,1,299,235a3.15,3.15,0,0,1,0,4.64,3.56,3.56,0,0,1-2.49.92,3.33,3.33,0,0,1-2.46-1A3.11,3.11,0,0,1,293.06,237.34Z"/><path d="M322.22,203.82h-9.77v-4.95h25.2v4.95h-9.76v26.91h-5.67Z"/><path d="M356.87,203.82H347.1v-4.95h25.2v4.95h-9.76v26.91h-5.67Z"/><path d="M386,198.87h4.91l13.72,31.86h-6.48l-3-7.29H381.35l-2.88,7.29h-6.35Zm7.2,19.71-4.9-13-5,13ZM385,237.34a3.11,3.11,0,0,1,1-2.27,3.33,3.33,0,0,1,2.46-1A3.56,3.56,0,0,1,391,235a3.15,3.15,0,0,1,0,4.64,3.56,3.56,0,0,1-2.49.92,3.33,3.33,0,0,1-2.46-1A3.11,3.11,0,0,1,385,237.34Z"/><path d="M406.23,214.71a17.91,17.91,0,0,1,1.28-6.91,15.12,15.12,0,0,1,3.56-5.24,15.65,15.65,0,0,1,5.4-3.33,19.3,19.3,0,0,1,6.82-1.17,19.6,19.6,0,0,1,6.88,1.17,16,16,0,0,1,5.45,3.33,14.88,14.88,0,0,1,3.57,5.24,17.73,17.73,0,0,1,1.29,6.91,17.44,17.44,0,0,1-1.29,6.81,15.53,15.53,0,0,1-3.57,5.31,16.28,16.28,0,0,1-5.45,3.47,18.75,18.75,0,0,1-6.88,1.24,18.46,18.46,0,0,1-6.82-1.24,16,16,0,0,1-5.4-3.47,15.8,15.8,0,0,1-3.56-5.31A17.62,17.62,0,0,1,406.23,214.71Zm6.17,0a13.63,13.63,0,0,0,.78,4.7,11.15,11.15,0,0,0,2.25,3.71,10.28,10.28,0,0,0,3.47,2.45,10.82,10.82,0,0,0,4.43.88,11,11,0,0,0,4.46-.88,10.12,10.12,0,0,0,3.48-2.45,10.83,10.83,0,0,0,2.25-3.71,13.4,13.4,0,0,0,.79-4.7,12.94,12.94,0,0,0-.79-4.59,11.09,11.09,0,0,0-2.22-3.69,10.34,10.34,0,0,0-3.47-2.48,11,11,0,0,0-4.5-.9,10.83,10.83,0,0,0-4.48.9,10.42,10.42,0,0,0-3.44,2.48,11.28,11.28,0,0,0-2.23,3.69A13.17,13.17,0,0,0,412.4,214.71Z"/><path d="M457.22,198.87h12.42a15.18,15.18,0,0,1,3.55.42,9.18,9.18,0,0,1,3.13,1.4,7.18,7.18,0,0,1,3.08,6.19,6.52,6.52,0,0,1-1.53,4.45,8.49,8.49,0,0,1-4,2.52v.09a8.35,8.35,0,0,1,4.95,2.34,7,7,0,0,1,1.93,5.18,8.55,8.55,0,0,1-1,4.38A8.23,8.23,0,0,1,477,228.7a11.51,11.51,0,0,1-3.87,1.55,20.52,20.52,0,0,1-4.43.48H457.22Zm5.67,13h5a7.06,7.06,0,0,0,4.32-1.13,3.76,3.76,0,0,0,1.48-3.19,3.26,3.26,0,0,0-1.53-3.06,9.73,9.73,0,0,0-4.77-.9h-4.54Zm0,14.13H468a20,20,0,0,0,2.34-.16,7.88,7.88,0,0,0,2.32-.65,4.53,4.53,0,0,0,1.75-1.44,4.12,4.12,0,0,0,.7-2.52,3.71,3.71,0,0,0-1.71-3.51,10.58,10.58,0,0,0-5.17-1h-5.31Z"/><path d="M484.8,214.71a17.91,17.91,0,0,1,1.28-6.91,15.12,15.12,0,0,1,3.56-5.24,15.65,15.65,0,0,1,5.4-3.33,19.3,19.3,0,0,1,6.82-1.17,19.6,19.6,0,0,1,6.88,1.17,16,16,0,0,1,5.45,3.33,14.88,14.88,0,0,1,3.57,5.24,17.73,17.73,0,0,1,1.29,6.91,17.44,17.44,0,0,1-1.29,6.81,15.53,15.53,0,0,1-3.57,5.31,16.28,16.28,0,0,1-5.45,3.47,18.75,18.75,0,0,1-6.88,1.24A18.46,18.46,0,0,1,495,230.3a16,16,0,0,1-5.4-3.47,15.8,15.8,0,0,1-3.56-5.31A17.62,17.62,0,0,1,484.8,214.71Zm6.17,0a13.63,13.63,0,0,0,.78,4.7,11.15,11.15,0,0,0,2.25,3.71,10.28,10.28,0,0,0,3.47,2.45,10.82,10.82,0,0,0,4.43.88,11,11,0,0,0,4.46-.88,10.12,10.12,0,0,0,3.48-2.45,10.83,10.83,0,0,0,2.25-3.71,13.4,13.4,0,0,0,.79-4.7,12.94,12.94,0,0,0-.79-4.59,11.09,11.09,0,0,0-2.22-3.69A10.44,10.44,0,0,0,506.4,204a11,11,0,0,0-4.5-.9,10.83,10.83,0,0,0-4.48.9,10.42,10.42,0,0,0-3.44,2.48,11.28,11.28,0,0,0-2.23,3.69A13.17,13.17,0,0,0,491,214.71Zm7.74,22.63a3.11,3.11,0,0,1,1-2.27,3.33,3.33,0,0,1,2.46-1,3.56,3.56,0,0,1,2.49.92,3.15,3.15,0,0,1,0,4.64,3.56,3.56,0,0,1-2.49.92,3.33,3.33,0,0,1-2.46-1A3.11,3.11,0,0,1,498.71,237.34Z"/><path d="M531,203.82h-9.76v-4.95h25.2v4.95h-9.77v26.91H531Z"/><path d="M560.27,198.87h7.51l14.81,23.85h.09V198.87h5.67v31.86h-7.2L566,206.11h-.09v24.62h-5.67Z"/><path d="M623.27,229.06a24.48,24.48,0,0,1-5.34,1.82,30.27,30.27,0,0,1-6.68.66,19.49,19.49,0,0,1-7.06-1.24,16.17,16.17,0,0,1-5.49-3.47,15.56,15.56,0,0,1-3.58-5.31,18.75,18.75,0,0,1,0-13.72,15.34,15.34,0,0,1,3.65-5.24,16.15,16.15,0,0,1,5.47-3.33,19.49,19.49,0,0,1,6.84-1.17,21,21,0,0,1,7,1.1,14.16,14.16,0,0,1,5.11,2.9l-3.91,4.23a9.7,9.7,0,0,0-3.4-2.29,11.85,11.85,0,0,0-4.75-.95,11.26,11.26,0,0,0-4.57.9,10.28,10.28,0,0,0-3.48,2.48,11.11,11.11,0,0,0-2.23,3.69,12.94,12.94,0,0,0-.79,4.59,13.4,13.4,0,0,0,.79,4.7,10.83,10.83,0,0,0,2.25,3.71,10,10,0,0,0,3.55,2.45,12.12,12.12,0,0,0,4.75.88,16.45,16.45,0,0,0,6.35-1.12v-8.1h-6.71v-4.68h12.2Z"/><path d="M640.14,198.87H645l13.73,31.86h-6.48l-3-7.29H635.51l-2.89,7.29h-6.34Zm-2.2-9a3,3,0,0,0,1.62,2.34,6.8,6.8,0,0,0,3,.63,7.17,7.17,0,0,0,3.06-.54,3.46,3.46,0,0,0,1.62-2.43h3a6.75,6.75,0,0,1-2.41,4.9,8.41,8.41,0,0,1-5.29,1.58,8.55,8.55,0,0,1-5.3-1.56,6.27,6.27,0,0,1-2.3-4.92Zm9.4,28.71-4.9-13-5,13Z"/><path d="M661.92,198.87h7.51l14.81,23.85h.09V198.87H690v31.86h-7.2l-15.12-24.62h-.09v24.62h-5.67Z"/><path d="M708.27,198.87h7.51l14.81,23.85h.09V198.87h5.67v31.86h-7.2L714,206.11h-.09v24.62h-5.67Z"/><path d="M771.27,229.06a24.58,24.58,0,0,1-5.33,1.82,30.43,30.43,0,0,1-6.69.66,19.49,19.49,0,0,1-7.06-1.24,16.17,16.17,0,0,1-5.49-3.47,15.7,15.7,0,0,1-3.58-5.31,17.62,17.62,0,0,1-1.28-6.81,17.21,17.21,0,0,1,1.33-6.91,15.31,15.31,0,0,1,3.64-5.24,16.24,16.24,0,0,1,5.47-3.33,19.49,19.49,0,0,1,6.84-1.17,21.11,21.11,0,0,1,7,1.1,14.33,14.33,0,0,1,5.11,2.9l-3.92,4.23a9.6,9.6,0,0,0-3.4-2.29,11.77,11.77,0,0,0-4.74-.95,11.19,11.19,0,0,0-4.57.9,10.22,10.22,0,0,0-3.49,2.48,11.28,11.28,0,0,0-2.23,3.69,13.17,13.17,0,0,0-.79,4.59,13.63,13.63,0,0,0,.79,4.7,11.15,11.15,0,0,0,2.25,3.71,10.07,10.07,0,0,0,3.56,2.45,12,12,0,0,0,4.75.88,16.43,16.43,0,0,0,6.34-1.12v-8.1h-6.71v-4.68h12.2Z"/><path d="M803.53,219a13.05,13.05,0,0,1-1,5.19,11.61,11.61,0,0,1-2.7,3.94,12,12,0,0,1-4.05,2.5,15.13,15.13,0,0,1-10.17,0,12.25,12.25,0,0,1-4.07-2.5,11.34,11.34,0,0,1-2.7-3.94,13.41,13.41,0,0,1-1-5.19V198.87h5.67V218.8a10.91,10.91,0,0,0,.36,2.77,6.76,6.76,0,0,0,1.2,2.45,6.15,6.15,0,0,0,2.2,1.76,9,9,0,0,0,6.8,0,6.15,6.15,0,0,0,2.2-1.76,6.74,6.74,0,0,0,1.19-2.45,10.91,10.91,0,0,0,.36-2.77V198.87h3.2a3.53,3.53,0,0,0,2.81-.93,3.81,3.81,0,0,0,.79-2.58,5.84,5.84,0,0,0-.2-1.47,4.56,4.56,0,0,0-.57-1.28l4.64-1.17a7.16,7.16,0,0,1,.63,1.82,11.11,11.11,0,0,1,.18,2.1,6.48,6.48,0,0,1-1.55,4.72,6,6,0,0,1-4.26,1.67Zm-9.67-22.68h-4.23l-6.35-6.48h6.12Z"/><path d="M820.72,198.87h4.91l13.72,31.86h-6.48l-3-7.29H816.09l-2.88,7.29h-6.35Zm7.2,19.71-4.9-13-5,13Z"/><path d="M852.94,198.87h8.87l8.28,22.63h.13l8.19-22.63h8.91v31.86H881.7V205.12h-.09l-9.68,25.61h-4l-9.54-25.61h-.09v25.61h-5.4Z"/><path d="M919.72,219a13.05,13.05,0,0,1-1,5.19,11.61,11.61,0,0,1-2.7,3.94,12,12,0,0,1-4,2.5,15.13,15.13,0,0,1-10.17,0,12.25,12.25,0,0,1-4.07-2.5,11.34,11.34,0,0,1-2.7-3.94,13.41,13.41,0,0,1-1-5.19V198.87h5.67V218.8a10.91,10.91,0,0,0,.36,2.77,6.76,6.76,0,0,0,1.2,2.45,6.15,6.15,0,0,0,2.2,1.76,9,9,0,0,0,6.8,0,6.15,6.15,0,0,0,2.2-1.76,6.74,6.74,0,0,0,1.19-2.45,10.91,10.91,0,0,0,.36-2.77V198.87h5.67Zm-16.24,18.31a3.08,3.08,0,0,1,1-2.27,3.29,3.29,0,0,1,2.45-1,3.61,3.61,0,0,1,2.5.92,3.17,3.17,0,0,1,0,4.64,3.61,3.61,0,0,1-2.5.92,3.29,3.29,0,0,1-2.45-1A3.08,3.08,0,0,1,903.48,237.34Z"/><path d="M926.47,198.87H934l14.8,23.85h.09V198.87h5.67v31.86h-7.2l-15.12-24.62h-.09v24.62h-5.67Z"/><path d="M38.5,272.73H35.74L46.45,248H48.9l10.64,24.78h-2.8L54,266.22H41.2Zm3.64-8.82H53.06L47.6,250.75Z"/><path d="M80.75,269.05h.07V248h2.52v24.78H80.19L65.77,251.41H65.7v21.32H63.18V248h3.15Z"/><path d="M97.86,272.73H95.34V250.19H87.05V248h19.11v2.24h-8.3Z"/><path d="M112.39,272.73h-2.52V248h2.52Z"/><path d="M125.2,265.24h-7.84v-2h7.84Z"/><path d="M130,272.73h-2.76L137.94,248h2.45L151,272.73h-2.79l-2.73-6.51H132.69Zm3.64-8.82h10.92l-5.46-13.16Z"/><path d="M174.9,268.7a10.17,10.17,0,0,1-1.53,1.79,9.94,9.94,0,0,1-2.06,1.48,11.44,11.44,0,0,1-2.59,1,12.13,12.13,0,0,1-3.1.38,13.54,13.54,0,0,1-5.18-1,12.17,12.17,0,0,1-6.77-6.83,13.8,13.8,0,0,1-1-5.21,13.48,13.48,0,0,1,1-5.22,12.29,12.29,0,0,1,6.8-6.82,13.17,13.17,0,0,1,5.13-1,12.64,12.64,0,0,1,2.68.28,13,13,0,0,1,2.47.8,10.37,10.37,0,0,1,2.1,1.24,7.11,7.11,0,0,1,1.57,1.63l-2.1,1.54a6.43,6.43,0,0,0-1-1.19,6.82,6.82,0,0,0-1.52-1.05,9.45,9.45,0,0,0-1.91-.73,8.33,8.33,0,0,0-2.22-.28,10.33,10.33,0,0,0-4.33.87,9.58,9.58,0,0,0-3.23,2.35,10.17,10.17,0,0,0-2,3.44,12,12,0,0,0-.7,4.12,11.76,11.76,0,0,0,.71,4.11,10.45,10.45,0,0,0,2,3.44,9.72,9.72,0,0,0,3.24,2.35,10.06,10.06,0,0,0,4.29.88,9.79,9.79,0,0,0,4.06-.88,7.76,7.76,0,0,0,3.22-2.8Z"/><path d="M196.81,269.05h.07V248h2.52v24.78h-3.15l-14.43-21.32h-.07v21.32h-2.52V248h3.15Z"/><path d="M208.49,270.49h13.27v2.24H206V248h15.37v2.24H208.49v8.5h12v2.24h-12Z"/><path d="M256.3,268.7a10.1,10.1,0,0,1-1.52,1.79,9.94,9.94,0,0,1-2.06,1.48,11.44,11.44,0,0,1-2.59,1,12.13,12.13,0,0,1-3.1.38,13.54,13.54,0,0,1-5.18-1,12.09,12.09,0,0,1-6.77-6.83,14.43,14.43,0,0,1,0-10.43,12.35,12.35,0,0,1,6.81-6.82,13.17,13.17,0,0,1,5.13-1,12.64,12.64,0,0,1,2.68.28,12.88,12.88,0,0,1,2.46.8,10.37,10.37,0,0,1,2.1,1.24,7.16,7.16,0,0,1,1.58,1.63l-2.1,1.54a6.43,6.43,0,0,0-1-1.19,6.89,6.89,0,0,0-1.53-1.05,9.14,9.14,0,0,0-1.9-.73,8.36,8.36,0,0,0-2.23-.28,10.29,10.29,0,0,0-4.32.87,9.72,9.72,0,0,0-3.24,2.35,10.51,10.51,0,0,0-2,3.44,12.25,12.25,0,0,0-.7,4.12,11.77,11.77,0,0,0,.72,4.11,10.45,10.45,0,0,0,2,3.44,9.62,9.62,0,0,0,3.24,2.35,10,10,0,0,0,4.28.88,9.72,9.72,0,0,0,4.06-.88,7.64,7.64,0,0,0,3.22-2.8Z"/><path d="M269.78,273.36a9.53,9.53,0,0,1-4.59-1,8.14,8.14,0,0,1-2.83-2.43,8.82,8.82,0,0,1-1.45-3.2,14.48,14.48,0,0,1-.41-3.27V248H263v15.26a12.35,12.35,0,0,0,.35,2.92,7.62,7.62,0,0,0,1.14,2.52,5.92,5.92,0,0,0,2.08,1.78,6.75,6.75,0,0,0,3.19.69,6.68,6.68,0,0,0,3.18-.69,5.87,5.87,0,0,0,2.09-1.78,7.4,7.4,0,0,0,1.13-2.52,11.85,11.85,0,0,0,.35-2.92V248h2.52v15.54a14.44,14.44,0,0,1-.4,3.27,9,9,0,0,1-1.45,3.2,8.12,8.12,0,0,1-2.85,2.43A9.58,9.58,0,0,1,269.78,273.36Z"/><path d="M297.5,251.94a6.14,6.14,0,0,0-2.07-1.81,6.81,6.81,0,0,0-4.9-.4,5.29,5.29,0,0,0-1.71.86,4.36,4.36,0,0,0-1.24,1.45,4.22,4.22,0,0,0-.48,2.07,3.77,3.77,0,0,0,.46,2,4.27,4.27,0,0,0,1.2,1.31,6.91,6.91,0,0,0,1.71.89c.64.23,1.31.47,2,.7.86.28,1.73.58,2.6.91a9.4,9.4,0,0,1,2.36,1.28,5.85,5.85,0,0,1,2.37,5.06,6.84,6.84,0,0,1-.71,3.2,6.56,6.56,0,0,1-1.84,2.22,7.65,7.65,0,0,1-2.58,1.3,10.47,10.47,0,0,1-2.92.42,11.35,11.35,0,0,1-2.24-.23,10.27,10.27,0,0,1-2.14-.68,9.23,9.23,0,0,1-1.89-1.16,8.71,8.71,0,0,1-1.54-1.61l2.17-1.61a6.58,6.58,0,0,0,2.26,2.22,6.36,6.36,0,0,0,3.41.9,6.62,6.62,0,0,0,1.93-.3,5.51,5.51,0,0,0,1.77-.91,5.1,5.1,0,0,0,1.29-1.51,4.64,4.64,0,0,0,0-4.23,4.63,4.63,0,0,0-1.35-1.44,8.61,8.61,0,0,0-1.92-1c-.72-.26-1.48-.51-2.28-.77s-1.62-.55-2.41-.87a8.33,8.33,0,0,1-2.14-1.28,6.07,6.07,0,0,1-1.52-1.94,6.38,6.38,0,0,1-.58-2.84,6.23,6.23,0,0,1,.72-3.08,6.52,6.52,0,0,1,1.87-2.13,7.88,7.88,0,0,1,2.56-1.23,10.2,10.2,0,0,1,2.76-.38,9.5,9.5,0,0,1,4.31.89,7.23,7.23,0,0,1,2.69,2.12Z"/><path d="M305.23,248h2.52v10.74h13.51V248h2.52v24.78h-2.52V261H307.75v11.73h-2.52Z"/><path d="M332.88,272.73h-2.52V248h2.52Z"/><path d="M364,260.34a13.43,13.43,0,0,1-1,5.21,12.22,12.22,0,0,1-2.71,4.11,12.51,12.51,0,0,1-4.09,2.72,13.92,13.92,0,0,1-10.26,0,12.4,12.4,0,0,1-6.81-6.83,14.37,14.37,0,0,1,0-10.43,12.35,12.35,0,0,1,6.81-6.82,13.92,13.92,0,0,1,10.26,0,12.29,12.29,0,0,1,6.8,6.82A13.48,13.48,0,0,1,364,260.34Zm-2.66,0a12.09,12.09,0,0,0-.7-4.12,10.17,10.17,0,0,0-2-3.44,9.61,9.61,0,0,0-3.23-2.36,11,11,0,0,0-8.58,0,9.75,9.75,0,0,0-3.24,2.36,10.51,10.51,0,0,0-2,3.44,12.5,12.5,0,0,0,0,8.25,10.31,10.31,0,0,0,2,3.42,9.84,9.84,0,0,0,3.24,2.34,10.9,10.9,0,0,0,8.58,0,9.7,9.7,0,0,0,3.23-2.34,10,10,0,0,0,2-3.42A12.11,12.11,0,0,0,361.3,260.35Z"/><path d="M386.78,269.05h.07V248h2.52v24.78h-3.15L371.8,251.41h-.07v21.32h-2.52V248h3.15Z"/><path d="M407.22,272.73H404.7V248h14.95v2.24H407.22v8.57h11.55V261H407.22Z"/><path d="M422.31,272.73h-2.77L430.25,248h2.45l10.64,24.78h-2.8l-2.73-6.51H425Zm3.64-8.82h10.92l-5.46-13.16Z"/><path d="M467.21,268.7a10.1,10.1,0,0,1-1.52,1.79,9.94,9.94,0,0,1-2.06,1.48,11.63,11.63,0,0,1-2.59,1,12.13,12.13,0,0,1-3.1.38,13.5,13.5,0,0,1-5.18-1,12.09,12.09,0,0,1-6.77-6.83,14.43,14.43,0,0,1,0-10.43,12.35,12.35,0,0,1,6.81-6.82,13.13,13.13,0,0,1,5.13-1,12.64,12.64,0,0,1,2.68.28,12.88,12.88,0,0,1,2.46.8,10.37,10.37,0,0,1,2.1,1.24,7.16,7.16,0,0,1,1.58,1.63l-2.1,1.54a6.43,6.43,0,0,0-1-1.19,6.89,6.89,0,0,0-1.53-1.05,9.36,9.36,0,0,0-1.9-.73,8.36,8.36,0,0,0-2.23-.28,10.29,10.29,0,0,0-4.32.87,9.72,9.72,0,0,0-3.24,2.35,10.51,10.51,0,0,0-2,3.44,12.25,12.25,0,0,0-.7,4.12,11.77,11.77,0,0,0,.72,4.11,10.45,10.45,0,0,0,2.05,3.44,9.53,9.53,0,0,0,3.24,2.35,10,10,0,0,0,4.28.88,9.72,9.72,0,0,0,4.06-.88,7.64,7.64,0,0,0,3.22-2.8Z"/><path d="M474.07,272.73h-2.52V248h2.52Z"/><path d="M480.48,272.73h-2.77L488.42,248h2.45l10.64,24.78h-2.8L496,266.22H483.17Zm3.64-8.82H495l-5.46-13.16Z"/><path d="M507.67,270.49h11.55v2.24H505.15V248h2.52Z"/><path d="M533.43,272.73h-2.52V248h15v2.24H533.43v8.57H545V261H533.43Z"/><path d="M575.08,260.34a13.43,13.43,0,0,1-1,5.21,12.37,12.37,0,0,1-2.71,4.11,12.56,12.56,0,0,1-4.1,2.72,13.89,13.89,0,0,1-10.25,0,12.32,12.32,0,0,1-6.81-6.83,14.37,14.37,0,0,1,0-10.43,12.52,12.52,0,0,1,2.71-4.11,12.38,12.38,0,0,1,4.1-2.71,13.89,13.89,0,0,1,10.25,0,12.26,12.26,0,0,1,6.81,6.82A13.48,13.48,0,0,1,575.08,260.34Zm-2.66,0a12.09,12.09,0,0,0-.7-4.12,10.17,10.17,0,0,0-2-3.44,9.61,9.61,0,0,0-3.23-2.36,11,11,0,0,0-8.58,0,9.75,9.75,0,0,0-3.24,2.36,10.51,10.51,0,0,0-2,3.44,12.5,12.5,0,0,0,0,8.25,10.31,10.31,0,0,0,2,3.42,9.84,9.84,0,0,0,3.24,2.34,10.9,10.9,0,0,0,8.58,0,9.7,9.7,0,0,0,3.23-2.34,10,10,0,0,0,2-3.42A12.11,12.11,0,0,0,572.42,260.35Z"/><path d="M579.53,272.73h-2.77L587.47,248h2.45l10.64,24.78h-2.8L595,266.22H582.22Zm3.64-8.82h10.92l-5.46-13.16Z"/><path d="M616.45,268.46h0L624.78,248h3.85v24.78h-2.52V251.2H626l-9,21.53h-1.33l-9-21.53h-.07v21.53H604.2V248h3.85Z"/><path d="M664.82,268.7a10.54,10.54,0,0,1-1.52,1.79,10,10,0,0,1-2.07,1.48,11.26,11.26,0,0,1-2.59,1,12,12,0,0,1-3.09.38,13.5,13.5,0,0,1-5.18-1,12.15,12.15,0,0,1-6.78-6.83,14.5,14.5,0,0,1,0-10.43,12.26,12.26,0,0,1,6.81-6.82,13.1,13.1,0,0,1,5.13-1,12.47,12.47,0,0,1,2.67.28,12.75,12.75,0,0,1,2.47.8,10.37,10.37,0,0,1,2.1,1.24,7.16,7.16,0,0,1,1.58,1.63l-2.1,1.54a6.15,6.15,0,0,0-1-1.19,6.82,6.82,0,0,0-1.52-1.05,9.23,9.23,0,0,0-1.91-.73,8.23,8.23,0,0,0-2.22-.28,10.29,10.29,0,0,0-4.32.87,9.72,9.72,0,0,0-3.24,2.35,10.34,10.34,0,0,0-2,3.44,12,12,0,0,0-.7,4.12,11.77,11.77,0,0,0,.72,4.11,10.45,10.45,0,0,0,2,3.44,9.58,9.58,0,0,0,3.23,2.35,10.1,10.1,0,0,0,4.29.88,9.76,9.76,0,0,0,4.06-.88,7.7,7.7,0,0,0,3.22-2.8Z"/><path d="M671.68,270.49h11.55v2.24H669.16V248h2.52Z"/><path d="M689.53,270.49H702.8v2.24H687V248h15.37v2.24H689.53v8.5h12v2.24h-12Z"/><path d="M707.56,272.73h-2.77L715.5,248H718l10.64,24.78h-2.8l-2.73-6.51H710.25Zm3.64-8.82h10.92l-5.46-13.16Z"/><path d="M749.8,269.05h.07V248h2.52v24.78h-3.15l-14.42-21.32h-.07v21.32h-2.52V248h3.15Z"/><path d="M771,251.94a6.14,6.14,0,0,0-2.07-1.81,6.81,6.81,0,0,0-4.9-.4,5.29,5.29,0,0,0-1.71.86,4.38,4.38,0,0,0-1.25,1.45,4.33,4.33,0,0,0-.47,2.07,3.87,3.87,0,0,0,.45,2,4.44,4.44,0,0,0,1.21,1.31,6.91,6.91,0,0,0,1.71.89c.64.23,1.31.47,2,.7.86.28,1.72.58,2.6.91a9.34,9.34,0,0,1,2.35,1.28,6.11,6.11,0,0,1,1.71,2,6.37,6.37,0,0,1,.67,3.07,6.84,6.84,0,0,1-.71,3.2,6.68,6.68,0,0,1-1.84,2.22,7.65,7.65,0,0,1-2.58,1.3,10.47,10.47,0,0,1-2.92.42,11.28,11.28,0,0,1-2.24-.23,10.27,10.27,0,0,1-2.14-.68,8.72,8.72,0,0,1-1.89-1.16,8.4,8.4,0,0,1-1.54-1.61l2.17-1.61a6.58,6.58,0,0,0,2.26,2.22,6.33,6.33,0,0,0,3.41.9,6.62,6.62,0,0,0,1.93-.3A5.36,5.36,0,0,0,769,270a5,5,0,0,0,1.3-1.51,4.64,4.64,0,0,0,0-4.23,4.63,4.63,0,0,0-1.35-1.44,8.61,8.61,0,0,0-1.92-1c-.73-.26-1.49-.51-2.28-.77s-1.62-.55-2.41-.87a8.33,8.33,0,0,1-2.14-1.28,5.94,5.94,0,0,1-1.52-1.94,7.09,7.09,0,0,1,.14-5.92,6.52,6.52,0,0,1,1.87-2.13,7.88,7.88,0,0,1,2.56-1.23,10.2,10.2,0,0,1,2.76-.38,9.5,9.5,0,0,1,4.31.89,7.31,7.31,0,0,1,2.69,2.12Z"/><path d="M781.23,270.49H794.5v2.24H778.71V248h15.37v2.24H781.23v8.5h12v2.24h-12Z"/><path d="M802,272.73h-2.52V248h7.28a15.05,15.05,0,0,1,3.38.35,7.61,7.61,0,0,1,2.69,1.13,5.4,5.4,0,0,1,1.77,2,6.85,6.85,0,0,1,.63,3.08,6.11,6.11,0,0,1-.49,2.49,6.26,6.26,0,0,1-1.33,1.94,6.38,6.38,0,0,1-2,1.31,8.48,8.48,0,0,1-2.52.63l7.24,11.8H813l-6.86-11.59H802ZM802,259h4.38a8.47,8.47,0,0,0,4.69-1.1,3.74,3.74,0,0,0,1.64-3.31,4.3,4.3,0,0,0-.45-2.06,3.85,3.85,0,0,0-1.26-1.37,5.7,5.7,0,0,0-2-.77,12.66,12.66,0,0,0-2.56-.24H802Z"/><path d="M45.15,337.06l-4.9,4-2.45-2.9L45.54,332h3.81v24.78h-4.2Z"/><path d="M59.15,352.88l9.56-9.38a11.08,11.08,0,0,0,1.83-2.26,4.94,4.94,0,0,0,.69-2.61,3.56,3.56,0,0,0-1.14-2.78,4,4,0,0,0-2.82-1A3.68,3.68,0,0,0,64.4,336a5.54,5.54,0,0,0-1.33,3L59,338.42a7.49,7.49,0,0,1,.87-2.83,7.83,7.83,0,0,1,1.79-2.24,8.06,8.06,0,0,1,2.53-1.49,9.06,9.06,0,0,1,3.17-.54,10.66,10.66,0,0,1,3.1.45,7.92,7.92,0,0,1,2.64,1.38,6.65,6.65,0,0,1,2.52,5.41,7.54,7.54,0,0,1-.31,2.22,9,9,0,0,1-.86,2,12.1,12.1,0,0,1-1.26,1.73,19.44,19.44,0,0,1-1.56,1.59l-7.14,6.83H75.64v3.85H59.15Z"/><path d="M97.51,344.34a23.1,23.1,0,0,1-.58,5.42,12.67,12.67,0,0,1-1.68,4.1,7.75,7.75,0,0,1-2.73,2.59,7.54,7.54,0,0,1-3.72.91,7.71,7.71,0,0,1-3.75-.91,7.84,7.84,0,0,1-2.76-2.59,12.47,12.47,0,0,1-1.7-4.1,25.66,25.66,0,0,1,0-10.85,12.41,12.41,0,0,1,1.7-4.09,7.75,7.75,0,0,1,2.76-2.59,7.6,7.6,0,0,1,3.75-.91,7.43,7.43,0,0,1,3.72.91,7.67,7.67,0,0,1,2.73,2.59,12.61,12.61,0,0,1,1.68,4.09A23.13,23.13,0,0,1,97.51,344.34Zm-4.3,0c0-.87-.06-1.85-.16-2.94a15.4,15.4,0,0,0-.63-3.12,7.07,7.07,0,0,0-1.35-2.47,2.88,2.88,0,0,0-2.27-1,2.92,2.92,0,0,0-2.31,1,6.76,6.76,0,0,0-1.35,2.47,15.41,15.41,0,0,0-.65,3.12,26.92,26.92,0,0,0-.17,2.94,27.2,27.2,0,0,0,.17,2.94,14.88,14.88,0,0,0,.65,3.08,6.83,6.83,0,0,0,1.35,2.43,2.93,2.93,0,0,0,2.31,1,2.89,2.89,0,0,0,2.27-1,7.15,7.15,0,0,0,1.35-2.43,14.88,14.88,0,0,0,.63-3.08C93.15,346.18,93.21,345.2,93.21,344.34Z"/><path d="M102.17,332h6.89l6.44,17.6h.1L122,332h6.92v24.78h-4.37V336.81h-.07l-7.52,19.92h-3.09l-7.41-19.92h-.08v19.92h-4.19Z"/><path d="M134.36,332h4.41v20.86h10.54v3.92H134.36Z"/><g id="_Rectangle_" data-name="&lt;Rectangle&gt;"><rect class="cls-1" x="35" y="27.79" width="383" height="113.11"/></g><path class="cls-2" d="M91.18,104.18V71.54l-8.28,6.4-5.46-7.47L92.06,59.74h9.6v44.44Z"/><path class="cls-2" d="M118.23,104.18V95.4l17.33-15.66a16.45,16.45,0,0,0,2.63-3.2,6.75,6.75,0,0,0,1-3.63,5.11,5.11,0,0,0-1.51-3.85,6,6,0,0,0-8.32.38,8.39,8.39,0,0,0-2,4.86l-10.11-1.38a16,16,0,0,1,1.85-6,15.76,15.76,0,0,1,3.74-4.51,16,16,0,0,1,5.18-2.84,19.05,19.05,0,0,1,6.18-1,21.93,21.93,0,0,1,6,.81,15.64,15.64,0,0,1,5.15,2.51A12.67,12.67,0,0,1,149,66.14a12.83,12.83,0,0,1,1.35,6,13.62,13.62,0,0,1-.63,4.29A14.43,14.43,0,0,1,148,80a20.76,20.76,0,0,1-2.51,3c-.94.94-1.91,1.87-2.92,2.79L132.23,95h18.14v9.17Z"/><path class="cls-2" d="M191,89.49a16.09,16.09,0,0,1-1.44,7.06,14.23,14.23,0,0,1-3.86,4.93,17,17,0,0,1-5.5,2.92,21.13,21.13,0,0,1-6.33,1,20.48,20.48,0,0,1-5.75-.79,18.45,18.45,0,0,1-5-2.22,15.2,15.2,0,0,1-3.82-3.55A14.06,14.06,0,0,1,157,94.07l9.6-2.95A7.48,7.48,0,0,0,169.23,95a7.55,7.55,0,0,0,9.23-.13,5.91,5.91,0,0,0,2-4.83,6.11,6.11,0,0,0-.81-3.26,6.45,6.45,0,0,0-2.11-2.11,8.74,8.74,0,0,0-2.91-1.09,17.26,17.26,0,0,0-3.27-.32,31.47,31.47,0,0,0-5.43.54,30.59,30.59,0,0,0-5.43,1.41l1.07-25.42h27.24v9H170.89l-.37,7a12.75,12.75,0,0,1,2.22-.35c.82-.06,1.56-.09,2.23-.09a21.76,21.76,0,0,1,6.28.88,14.3,14.3,0,0,1,5.11,2.66,12.69,12.69,0,0,1,3.42,4.43A14.13,14.13,0,0,1,191,89.49Z"/><path class="cls-2" d="M204.78,112h-8.47L201,94.13h9.85Z"/><path class="cls-2" d="M251.54,81.83a41.49,41.49,0,0,1-.94,9,23.09,23.09,0,0,1-3,7.5,15,15,0,0,1-13.37,7.06,15.21,15.21,0,0,1-13.46-7.06,22.49,22.49,0,0,1-3-7.5,42.12,42.12,0,0,1-.94-9,41.54,41.54,0,0,1,.94-8.94,21.67,21.67,0,0,1,3-7.41,15.65,15.65,0,0,1,5.43-5.05,16,16,0,0,1,8-1.88,15.81,15.81,0,0,1,8,1.88,15.47,15.47,0,0,1,5.37,5.05,22.23,22.23,0,0,1,3,7.41A40.92,40.92,0,0,1,251.54,81.83Zm-10.79,0c0-1.38-.09-2.91-.25-4.58a23.23,23.23,0,0,0-.95-4.68,10.34,10.34,0,0,0-2-3.64,4.26,4.26,0,0,0-3.36-1.47,4.35,4.35,0,0,0-3.39,1.47,10.3,10.3,0,0,0-2,3.64,21.33,21.33,0,0,0-1,4.68,45.48,45.48,0,0,0-.25,4.58c0,1.42.08,3,.25,4.68a21.15,21.15,0,0,0,1,4.7,10.25,10.25,0,0,0,2,3.65,4.35,4.35,0,0,0,3.39,1.47,4.26,4.26,0,0,0,3.36-1.47,10.3,10.3,0,0,0,2-3.65,23,23,0,0,0,.95-4.7C240.66,84.81,240.75,83.25,240.75,81.83Z"/><path class="cls-2" d="M292.09,81.83a42.12,42.12,0,0,1-.94,9,23.1,23.1,0,0,1-3,7.5,15,15,0,0,1-13.37,7.06,15.21,15.21,0,0,1-13.46-7.06,22.69,22.69,0,0,1-3-7.5,41.49,41.49,0,0,1-.94-9,40.92,40.92,0,0,1,.94-8.94,21.85,21.85,0,0,1,3-7.41,15.65,15.65,0,0,1,5.43-5.05,18,18,0,0,1,16,0,15.52,15.52,0,0,1,5.36,5.05,22.24,22.24,0,0,1,3,7.41A41.54,41.54,0,0,1,292.09,81.83Zm-10.8,0a45.48,45.48,0,0,0-.25-4.58,23.23,23.23,0,0,0-.94-4.68,10.2,10.2,0,0,0-2-3.64,4.25,4.25,0,0,0-3.36-1.47,4.31,4.31,0,0,0-3.38,1.47,10.3,10.3,0,0,0-2,3.64,21.33,21.33,0,0,0-1,4.68c-.16,1.67-.25,3.2-.25,4.58s.09,3,.25,4.68a21.14,21.14,0,0,0,1,4.7,10.25,10.25,0,0,0,2,3.65,4.31,4.31,0,0,0,3.38,1.47,4.25,4.25,0,0,0,3.36-1.47,10.16,10.16,0,0,0,2-3.65,23,23,0,0,0,.94-4.7C281.21,84.81,281.29,83.25,281.29,81.83Z"/><path class="cls-2" d="M332.63,81.83a41.49,41.49,0,0,1-.94,9,23.09,23.09,0,0,1-3,7.5,15,15,0,0,1-13.37,7.06,15.21,15.21,0,0,1-13.46-7.06,22.49,22.49,0,0,1-3.05-7.5,42.12,42.12,0,0,1-.94-9,41.54,41.54,0,0,1,.94-8.94,21.67,21.67,0,0,1,3.05-7.41,15.65,15.65,0,0,1,5.43-5.05,16,16,0,0,1,8-1.88,15.81,15.81,0,0,1,8,1.88,15.47,15.47,0,0,1,5.37,5.05,22.23,22.23,0,0,1,3,7.41A40.92,40.92,0,0,1,332.63,81.83Zm-10.79,0c0-1.38-.09-2.91-.25-4.58a23.23,23.23,0,0,0-.95-4.68,10.34,10.34,0,0,0-2-3.64,4.26,4.26,0,0,0-3.36-1.47,4.35,4.35,0,0,0-3.39,1.47,10.3,10.3,0,0,0-2,3.64,21.33,21.33,0,0,0-1,4.68,45.48,45.48,0,0,0-.25,4.58c0,1.42.08,3,.25,4.68a21.15,21.15,0,0,0,1,4.7,10.25,10.25,0,0,0,2,3.65,4.35,4.35,0,0,0,3.39,1.47,4.26,4.26,0,0,0,3.36-1.47,10.3,10.3,0,0,0,2-3.65,23,23,0,0,0,.95-4.7C321.75,84.81,321.84,83.25,321.84,81.83Z"/><path class="cls-2" d="M363.2,104.18V100.1h-.13a9.77,9.77,0,0,1-4.3,3.67,14.11,14.11,0,0,1-5.93,1.28,13.83,13.83,0,0,1-6.27-1.38,14.33,14.33,0,0,1-4.68-3.67A16.08,16.08,0,0,1,339,94.7a19.71,19.71,0,0,1-1-6.28,18.86,18.86,0,0,1,1-6.24A16.3,16.3,0,0,1,342,76.94,13.78,13.78,0,0,1,352.72,72a11.88,11.88,0,0,1,5.83,1.32,13,13,0,0,1,3.71,2.89h.12V68.4H353V62.81h9.35V56.73h10.3v6.08h2.88V68.4h-2.88v35.78Zm-.38-15.7a8.63,8.63,0,0,0-.53-3A8.38,8.38,0,0,0,360.78,83a7.54,7.54,0,0,0-2.35-1.82,6.94,6.94,0,0,0-3.14-.69,7.08,7.08,0,0,0-3.2.69,7.28,7.28,0,0,0-2.32,1.79,7.44,7.44,0,0,0-1.42,2.54,9.58,9.58,0,0,0-.47,3,9.82,9.82,0,0,0,.47,3A7.77,7.77,0,0,0,349.77,94a6.93,6.93,0,0,0,5.52,2.51,6.94,6.94,0,0,0,3.14-.69A7.54,7.54,0,0,0,360.78,94a8.43,8.43,0,0,0,1.51-2.58A8.54,8.54,0,0,0,362.82,88.48Z"/></svg>