<?xml version="1.0" encoding="utf-8"?>
<!-- Generator: Adobe Illustrator 22.1.0, SVG Export Plug-In . SVG Version: 6.00 Build 0)  -->
<svg version="1.1" id="Layer_1" xmlns="http://www.w3.org/2000/svg" xmlns:xlink="http://www.w3.org/1999/xlink" x="0px" y="0px"
	 viewBox="0 0 987 396.9" style="enable-background:new 0 0 987 396.9;" xml:space="preserve">
<style type="text/css">
	.st0{fill:#C90202;}
	.st1{fill:#FFFFFF;}
</style>
<title>Image convert 3</title>
<path d="M43.9,209c0-11.5,8.8-19.8,20.6-19.8c6.3,0,11.7,2.2,15.2,6.4l-4.6,4.3c-2.6-2.9-6.4-4.6-10.3-4.5c-8,0-13.8,5.6-13.8,13.5
	s5.8,13.5,13.8,13.5c3.9,0.1,7.7-1.6,10.3-4.6l4.6,4.4c-3.6,4.2-9,6.4-15.3,6.4C52.7,228.8,43.9,220.5,43.9,209z"/>
<path d="M83,209c0-11.4,8.8-19.8,20.7-19.8s20.7,8.4,20.7,19.8s-8.8,19.8-20.7,19.8S83,220.4,83,209z M117.3,209
	c0-7.5-6.1-13.5-13.5-13.5c-7.5,0-13.5,6.1-13.5,13.5c0,7.5,6.1,13.5,13.5,13.5C111.2,222.6,117.3,216.5,117.3,209z M100.5,236.2
	c0-1.8,1.5-3.3,3.3-3.3s3.3,1.5,3.3,3.3c0,0,0,0,0,0c0,1.8-1.5,3.3-3.3,3.3C101.9,239.5,100.5,238,100.5,236.2z"/>
<path d="M182.5,189.8l-16.8,38.5h-7l-16.9-38.5h7.8l12.8,29.7l12.9-29.7H182.5z"/>
<path d="M215.4,222.3v6h-28.9v-38.5h28.1v6h-21v10h18.6v5.9h-18.6v10.6H215.4z M194.4,186.3h-3.7c0.1-4.5,2.4-7.4,5.9-7.4
	s5.5,3.6,7.5,3.6c1.5,0,2.6-1.2,2.7-3.1h3.7c-0.1,4.3-2.4,7.2-5.9,7.2s-5.5-3.6-7.5-3.6C195.6,183,194.6,184.2,194.4,186.3
	L194.4,186.3z"/>
<path d="M235.8,209c0-11.5,8.8-19.8,20.6-19.8c6.3,0,11.6,2.2,15.2,6.4l-4.6,4.3c-2.6-2.9-6.4-4.6-10.3-4.5c-8,0-13.8,5.6-13.8,13.5
	s5.8,13.5,13.8,13.5c3.9,0.1,7.7-1.6,10.3-4.6l4.6,4.4c-3.6,4.2-9,6.4-15.3,6.4C244.6,228.8,235.8,220.5,235.8,209z"/>
<path d="M312.8,189.8v38.5h-7.1v-16.5h-19.9v16.5h-7.1v-38.5h7.1v15.9h19.9v-15.9H312.8z"/>
<path d="M348.1,219.4h-19.2l-3.8,8.9h-7.4l17.3-38.5h7l17.4,38.5h-7.5L348.1,219.4z M333.7,186.6H328l7.4-7.5h6.3l7.4,7.5h-5.7
	l-4.8-4.1L333.7,186.6z M345.7,213.8l-7.2-16.9l-7.2,16.8L345.7,213.8z"/>
<path d="M398.5,189.8v38.5h-5.9l-21.2-26.1v26.1h-7.1v-38.5h5.9l21.2,26.1v-26.1H398.5z"/>
<path d="M459.4,228.3l0-25.5l-12.7,21.1h-3.2l-12.6-20.8v25.2H424v-38.5h5.9l15.3,25.5l15-25.5h5.9l0.1,38.5L459.4,228.3z"/>
<path d="M501.5,219.4h-19.2l-3.8,8.9h-7.4l17.3-38.5h7l17.4,38.5h-7.5L501.5,219.4z M490.6,186.6l-9.6-7.5h8.1l7.4,7.5H490.6z
	 M499.1,213.8l-7.3-16.9l-7.2,16.8L499.1,213.8z"/>
<path d="M532,214.7v13.6h-7.2v-13.5l-15.1-25h7.6l11.3,18.8l11.4-18.8h7L532,214.7z"/>
<path d="M564.2,209c0-11.5,8.8-19.8,20.6-19.8c6.3,0,11.7,2.2,15.2,6.4l-4.6,4.3c-2.6-2.9-6.4-4.6-10.3-4.5c-8,0-13.8,5.6-13.8,13.5
	s5.8,13.5,13.8,13.5c3.9,0.1,7.7-1.6,10.3-4.6l4.6,4.4c-3.6,4.2-9,6.4-15.3,6.4C573,228.8,564.2,220.5,564.2,209z"/>
<path d="M631.1,219.4h-19.2l-3.8,8.9h-7.4l17.3-38.5h7l17.4,38.5h-7.5L631.1,219.4z M628.7,213.8l-7.3-16.9l-7.2,16.8L628.7,213.8z"
	/>
<path d="M653.2,195.8h-12.8v-6h32.7v6h-12.8v32.4h-7.1V195.8z"/>
<path d="M712.7,189.8v38.5h-7.2v-16.5h-19.9v16.5h-7.2v-38.5h7.2v15.9h19.9v-15.9H712.7z"/>
<path d="M739.7,214.7v13.6h-7.2v-13.5l-15.1-25h7.6l11.3,18.8l11.4-18.8h7L739.7,214.7z"/>
<path d="M774.6,189.8h16.8c12.5,0,21,7.7,21,19.2s-8.5,19.2-21,19.2h-16.8V189.8z M791.1,222.2c8.6,0,14.1-5.2,14.1-13.2
	c0-8-5.5-13.2-14.1-13.2h-9.3v26.4H791.1z"/>
<path d="M817.3,209c0-11.4,8.8-19.8,20.7-19.8s20.7,8.4,20.7,19.8s-8.8,19.8-20.7,19.8S817.3,220.4,817.3,209z M851.5,209
	c0-7.5-6.1-13.5-13.5-13.5s-13.5,6.1-13.5,13.5c0,0,0,0,0,0c0,7.5,6.1,13.5,13.5,13.5C845.5,222.6,851.5,216.5,851.5,209z"/>
<path d="M866.3,189.8h7.2v32.4h20.1v6h-27.3V189.8z"/>
<path d="M899.3,189.8h7.2v32.4h20.1v6h-27.3V189.8z"/>
<path d="M71.8,294.3L63.9,283c-0.5,0-1,0.1-1.5,0.1h-8.7v11.2h-7.2v-38.5h15.8c10.1,0,16.4,5.2,16.4,13.7c0.2,5.4-3.1,10.3-8.2,12.2
	l8.8,12.6H71.8z M62.1,261.8h-8.4v15.3h8.4c6.3,0,9.5-2.9,9.5-7.7S68.4,261.8,62.1,261.8z"/>
<path d="M115.7,288.3v6H86.8v-38.5h28.1v6H94v10h18.6v5.9H94v10.6H115.7z"/>
<path d="M148.6,285.4h-19.2l-3.8,8.9h-7.4l17.3-38.5h7l17.5,38.5h-7.5L148.6,285.4z M146.3,279.8l-7.3-16.9l-7.2,16.8L146.3,279.8z"
	/>
<path d="M164.9,255.8h7.1v32.4h20.1v6h-27.3V255.8z"/>
<path d="M247.2,283.8c0,6.6-5.2,10.4-15.1,10.4H213v-38.5h18c9.2,0,14.2,3.9,14.2,10c0.1,3.5-1.8,6.8-4.9,8.5
	C244.5,275.4,247.4,279.4,247.2,283.8z M220.1,261.4V272h10.1c5,0,7.8-1.8,7.8-5.3c0-3.5-2.8-5.3-7.8-5.3H220.1z M240,283.1
	c0-3.9-2.9-5.6-8.3-5.6h-11.6v11.1h11.6C237.1,288.7,240,287,240,283.1z"/>
<path d="M280,294.3l-7.9-11.3c-0.5,0-1,0.1-1.5,0.1H262v11.2h-7.1v-38.5h15.8c10.1,0,16.4,5.2,16.4,13.7c0.2,5.4-3.1,10.3-8.2,12.2
	l8.9,12.6H280z M270.3,261.8H262v15.3h8.4c6.3,0,9.5-2.9,9.5-7.7S276.6,261.8,270.3,261.8L270.3,261.8z"/>
<path d="M292.3,275c0-11.4,8.8-19.8,20.7-19.8s20.7,8.4,20.7,19.8s-8.8,19.8-20.8,19.8S292.3,286.4,292.3,275z M326.6,275
	c0-7.5-6-13.5-13.5-13.5c-7.5,0-13.5,6-13.5,13.5c0,7.5,6,13.5,13.5,13.5c7.2,0.2,13.3-5.4,13.6-12.7
	C326.6,275.6,326.6,275.3,326.6,275z"/>
<path d="M396.4,255.8l-12.8,38.5h-7.6l-9.5-28.5l-9.7,28.5h-7.6l-12.8-38.5h7.4l9.6,29.3l10-29.3h6.5l9.7,29.4l9.9-29.4H396.4z"/>
<path d="M449.8,285.5H443v8.7h-6.9v-8.7H415v-4.9l19-24.8h7.6l-17.9,23.7h12.6v-7.8h6.6v7.8h6.8L449.8,285.5z"/>
<path d="M455.6,255.8h16.8c12.5,0,21,7.7,21,19.2c0,11.6-8.5,19.2-21,19.2h-16.8V255.8z M472.1,288.2c8.6,0,14.1-5.2,14.1-13.2
	s-5.5-13.2-14.1-13.2h-9.4v26.4H472.1z"/>
<path d="M524,261.8h-12.8v-6h32.7v6h-12.8v32.4H524V261.8z"/>
<path d="M549.3,255.8h7.2v38.5h-7.2V255.8z"/>
<path d="M601.1,255.8v38.5h-5.9L574,268.2v26.1h-7.1v-38.5h5.9l21.2,26.1v-26.1H601.1z"/>
<path d="M619.2,261.8h-12.8v-6h32.7v6h-12.8v32.4h-7.2L619.2,261.8z"/>
<path d="M70,345.9h7.4v5h-8l-1.2,9.3h-5l1.2-9.3h-9.3l-1.1,9.4h-5l1.1-9.4h-7.4v-5h8l1.3-9.8h-7.4v-5h8l1.2-9.4h5l-1.2,9.4h9.2
	l1.2-9.4h5l-1.2,9.4h7.4v5h-8L70,345.9z M65,345.9l1.2-9.8H57l-1.2,9.8H65z"/>
<path d="M83,341c0-12.6,6.9-19.8,16.1-19.8s16.1,7.1,16.1,19.8c0,12.7-7,19.8-16.2,19.8S83,353.7,83,341z M108,341
	c0-9.3-3.6-13.6-8.9-13.6s-8.8,4.3-8.8,13.6c0,9.3,3.6,13.6,8.8,13.6S107.9,350.3,108,341L108,341z"/>
<path d="M154.3,351.5h-6.8v8.7h-6.9v-8.7h-21.1v-4.9l19-24.8h7.6l-17.9,23.7h12.6v-7.8h6.7v7.8h6.8L154.3,351.5z"/>
<path d="M201.6,340.6h6.8v15.3c-4.3,3.3-9.6,5-15.1,4.9c-11.9,0-20.7-8.3-20.7-19.8s8.8-19.8,20.8-19.8c6.4,0,11.8,2.1,15.4,6.3
	l-4.5,4.4c-2.8-2.9-6.6-4.5-10.6-4.4c-8.2,0-14,5.5-14,13.5c0,7.8,5.8,13.5,13.9,13.5c2.8,0.1,5.5-0.6,7.9-2L201.6,340.6z"/>
<path d="M242.9,360.3L235,349c-0.5,0-1,0.1-1.5,0.1h-8.7v11.2h-7.1v-38.5h15.8c10.1,0,16.4,5.2,16.4,13.7c0.2,5.4-3.1,10.3-8.2,12.2
	l8.9,12.6H242.9z M233.2,327.8h-8.4v15.3h8.4c6.3,0,9.5-2.9,9.5-7.7S239.5,327.8,233.2,327.8L233.2,327.8z"/>
<path d="M286.8,354.3v6h-28.9v-38.5H286v6h-20.9v10h18.6v5.9h-18.6v10.6H286.8z"/>
<path d="M310.9,346.7v13.6h-7.1v-13.5l-15.1-25h7.6l11.3,18.8l11.4-18.8h7L310.9,346.7z"/>
<path d="M380.1,349.8c0,6.6-5.2,10.4-15.1,10.4h-19.1v-38.5h18c9.2,0,14.2,3.9,14.2,10c0.1,3.5-1.8,6.8-5,8.5
	C377.4,341.4,380.3,345.4,380.1,349.8z M353,327.4V338h10.1c5,0,7.8-1.8,7.8-5.3c0-3.5-2.8-5.3-7.8-5.3H353z M372.9,349.1
	c0-3.9-2.9-5.6-8.3-5.6H353v11.1h11.5C370,354.7,372.9,353,372.9,349.1L372.9,349.1z"/>
<path d="M412.9,360.3L405,349c-0.5,0-1,0.1-1.5,0.1h-8.7v11.2h-7.1v-38.5h15.8c10.1,0,16.4,5.2,16.4,13.7c0.2,5.4-3.1,10.4-8.2,12.2
	l8.9,12.6H412.9z M403.2,327.8h-8.4v15.3h8.4c6.3,0,9.5-2.9,9.5-7.7S409.5,327.8,403.2,327.8z"/>
<path d="M425.2,341c0-11.4,8.8-19.8,20.7-19.8s20.7,8.4,20.7,19.8s-8.8,19.8-20.7,19.8S425.2,352.4,425.2,341z M459.4,341
	c0-7.5-6.1-13.5-13.5-13.5s-13.5,6.1-13.5,13.5s6.1,13.5,13.5,13.5l0,0c7.2,0.2,13.3-5.5,13.5-12.7
	C459.4,341.6,459.4,341.3,459.4,341z"/>
<path d="M529.3,321.8l-12.8,38.5h-7.6l-9.5-28.5l-9.7,28.5h-7.6l-12.8-38.5h7.4l9.6,29.3l10-29.3h6.6l9.7,29.4l9.8-29.4H529.3z"/>
<path d="M569.3,321.8v38.5h-5.9l-21.2-26.1v26.1h-7.1v-38.5h5.9l21.2,26.1v-26.1H569.3z"/>
<path d="M620,354.2v6h-28.4v-4.7l15.3-14.5c3.7-3.6,4.4-5.8,4.4-8c0-3.5-2.4-5.6-7.2-5.6c-3.5-0.2-6.8,1.3-9,4l-5-3.9
	c3-4,8.3-6.4,14.6-6.4c8.4,0,13.8,4.2,13.8,11c0,3.7-1,7.1-6.4,12.2l-10.3,9.8L620,354.2z"/>
<path d="M653.2,340.6h6.8v15.3c-4.3,3.3-9.6,5-15.1,4.9c-11.9,0-20.7-8.3-20.7-19.8s8.8-19.8,20.8-19.8c6.4,0,11.8,2.1,15.5,6.3
	l-4.5,4.4c-2.8-2.9-6.6-4.5-10.6-4.4c-8.2,0-14,5.5-14,13.5c0,7.8,5.8,13.5,13.9,13.5c2.8,0.1,5.5-0.6,7.9-2L653.2,340.6z"/>
<g id="_Rectangle_">
	<rect x="46.6" y="29.7" class="st0" width="383" height="113.1"/>
</g>
<g>
	<path class="st1" d="M88.2,108.3V72.1L79,79.2l-6-8.3L89.2,59h10.6v49.2H88.2z"/>
	<path class="st1" d="M154.3,94.2c0,2.6-0.5,4.9-1.5,6.8c-1,1.9-2.4,3.5-4.1,4.8c-1.7,1.3-3.7,2.2-5.9,2.9c-2.2,0.6-4.6,0.9-7,0.9
		c-2.5,0-4.8-0.3-7-0.9c-2.2-0.6-4.2-1.6-5.9-2.8c-1.7-1.3-3-2.8-4.1-4.8c-1-1.9-1.5-4.2-1.5-6.8c0-1.5,0.2-2.9,0.7-4.1
		c0.5-1.3,1.1-2.4,1.9-3.4c0.8-1,1.7-1.9,2.8-2.6c1.1-0.7,2.2-1.3,3.4-1.6v-0.1c-2.1-0.8-3.9-2.1-5.4-3.9c-1.4-1.8-2.2-4-2.2-6.8
		c0-2.3,0.5-4.3,1.4-6c0.9-1.8,2.2-3.2,3.8-4.4c1.6-1.2,3.4-2.1,5.5-2.7c2.1-0.6,4.3-0.9,6.5-0.9c2.3,0,4.4,0.3,6.5,0.9
		c2.1,0.6,3.9,1.4,5.5,2.6c1.6,1.2,2.8,2.6,3.8,4.3c0.9,1.7,1.4,3.7,1.4,6c0,2.7-0.7,5-2.1,6.9c-1.4,1.9-3.2,3.2-5.4,3.9v0.2
		c1.2,0.4,2.4,0.9,3.4,1.6c1.1,0.7,2,1.6,2.8,2.6c0.8,1,1.4,2.1,1.9,3.4C154.1,91.4,154.3,92.8,154.3,94.2z M142.7,93.8
		c0-1.9-0.6-3.5-1.9-4.8c-1.3-1.3-2.9-1.9-4.9-1.9c-2,0-3.7,0.6-5,1.9c-1.3,1.3-1.9,2.9-1.9,4.8c0,2,0.6,3.6,1.9,4.8
		c1.3,1.2,2.9,1.8,5,1.8c2,0,3.7-0.6,4.9-1.8C142.1,97.4,142.7,95.8,142.7,93.8z M141.8,72.4c0-1.6-0.6-3-1.7-4
		c-1.2-1.1-2.5-1.6-4.2-1.6c-1.8,0-3.2,0.5-4.2,1.6c-1.1,1.1-1.6,2.4-1.6,4c0,1.6,0.5,2.9,1.6,4.1c1,1.2,2.5,1.7,4.3,1.7
		c1.7,0,3.1-0.6,4.2-1.7C141.2,75.3,141.8,74,141.8,72.4z"/>
	<path class="st1" d="M200.1,75.3c0,2.9-0.5,5.6-1.5,8c-1,2.4-2.3,4.8-4,7.3l-11.9,17.7h-14.1l12.2-17l0.1-0.2
		c-0.5,0.2-1.1,0.3-1.7,0.4c-0.6,0.1-1.2,0.1-1.8,0.1c-2.2,0-4.2-0.4-6.2-1.1s-3.7-1.9-5.1-3.3c-1.5-1.4-2.7-3.1-3.5-5.1
		c-0.9-2-1.3-4.2-1.3-6.6c0-2.8,0.5-5.3,1.5-7.5c1-2.2,2.4-4.1,4.2-5.6c1.8-1.5,3.8-2.7,6.2-3.5c2.4-0.8,4.9-1.2,7.5-1.2
		c2.7,0,5.2,0.4,7.6,1.2c2.4,0.8,4.4,2,6.1,3.5c1.7,1.5,3.1,3.4,4.1,5.6C199.6,70.2,200.1,72.6,200.1,75.3z M188.5,75.2
		c0-2.1-0.7-4-2.1-5.5c-1.4-1.6-3.2-2.3-5.6-2.3s-4.3,0.7-5.7,2.2c-1.4,1.5-2.1,3.4-2.1,5.7c0,2.2,0.7,4.1,2.1,5.5s3.3,2.2,5.6,2.2
		c2.3,0,4.2-0.7,5.7-2.2C187.8,79.4,188.5,77.5,188.5,75.2z"/>
	<path class="st1" d="M214,116.9h-9.4l5.2-19.7h10.9L214,116.9z"/>
	<path class="st1" d="M265.8,83.5c0,3.5-0.3,6.8-1,9.9c-0.7,3.2-1.8,5.9-3.3,8.3c-1.5,2.4-3.5,4.3-5.9,5.7c-2.4,1.4-5.4,2.1-8.9,2.1
		s-6.4-0.7-8.9-2.1c-2.5-1.4-4.5-3.3-6-5.7c-1.6-2.4-2.7-5.2-3.4-8.3c-0.7-3.2-1-6.5-1-9.9s0.3-6.8,1-9.9s1.8-5.9,3.4-8.2
		c1.6-2.3,3.6-4.2,6-5.6c2.5-1.4,5.4-2.1,8.9-2.1s6.4,0.7,8.9,2.1c2.4,1.4,4.4,3.3,5.9,5.6c1.5,2.3,2.6,5.1,3.3,8.2
		C265.5,76.7,265.8,80,265.8,83.5z M253.8,83.5c0-1.5-0.1-3.2-0.3-5.1c-0.2-1.9-0.5-3.6-1-5.2c-0.5-1.6-1.2-2.9-2.2-4
		c-1-1.1-2.2-1.6-3.7-1.6s-2.8,0.5-3.8,1.6c-1,1.1-1.7,2.4-2.3,4c-0.5,1.6-0.9,3.3-1.1,5.2c-0.2,1.9-0.3,3.5-0.3,5.1
		c0,1.6,0.1,3.3,0.3,5.2c0.2,1.9,0.5,3.6,1.1,5.2c0.5,1.6,1.3,2.9,2.3,4c1,1.1,2.2,1.6,3.8,1.6s2.8-0.5,3.7-1.6
		c0.9-1.1,1.7-2.4,2.2-4c0.5-1.6,0.9-3.3,1-5.2C253.8,86.8,253.8,85.1,253.8,83.5z"/>
	<path class="st1" d="M310.7,83.5c0,3.5-0.3,6.8-1,9.9c-0.7,3.2-1.8,5.9-3.3,8.3c-1.5,2.4-3.5,4.3-5.9,5.7c-2.4,1.4-5.4,2.1-8.9,2.1
		s-6.4-0.7-8.9-2.1c-2.5-1.4-4.5-3.3-6-5.7c-1.6-2.4-2.7-5.2-3.4-8.3c-0.7-3.2-1-6.5-1-9.9s0.3-6.8,1-9.9s1.8-5.9,3.4-8.2
		c1.6-2.3,3.6-4.2,6-5.6c2.5-1.4,5.4-2.1,8.9-2.1s6.4,0.7,8.9,2.1c2.4,1.4,4.4,3.3,5.9,5.6c1.5,2.3,2.6,5.1,3.3,8.2
		C310.4,76.7,310.7,80,310.7,83.5z M298.8,83.5c0-1.5-0.1-3.2-0.3-5.1c-0.2-1.9-0.5-3.6-1-5.2c-0.5-1.6-1.2-2.9-2.2-4
		c-1-1.1-2.2-1.6-3.7-1.6s-2.8,0.5-3.8,1.6c-1,1.1-1.7,2.4-2.3,4c-0.5,1.6-0.9,3.3-1.1,5.2c-0.2,1.9-0.3,3.5-0.3,5.1
		c0,1.6,0.1,3.3,0.3,5.2c0.2,1.9,0.5,3.6,1.1,5.2c0.5,1.6,1.3,2.9,2.3,4c1,1.1,2.2,1.6,3.8,1.6s2.8-0.5,3.7-1.6
		c0.9-1.1,1.7-2.4,2.2-4c0.5-1.6,0.9-3.3,1-5.2C298.7,86.8,298.8,85.1,298.8,83.5z"/>
	<path class="st1" d="M355.6,83.5c0,3.5-0.3,6.8-1,9.9c-0.7,3.2-1.8,5.9-3.3,8.3c-1.5,2.4-3.5,4.3-5.9,5.7c-2.4,1.4-5.4,2.1-8.9,2.1
		s-6.4-0.7-8.9-2.1c-2.5-1.4-4.5-3.3-6-5.7c-1.6-2.4-2.7-5.2-3.4-8.3c-0.7-3.2-1-6.5-1-9.9s0.3-6.8,1-9.9s1.8-5.9,3.4-8.2
		c1.6-2.3,3.6-4.2,6-5.6c2.5-1.4,5.4-2.1,8.9-2.1s6.4,0.7,8.9,2.1c2.4,1.4,4.4,3.3,5.9,5.6c1.5,2.3,2.6,5.1,3.3,8.2
		C355.3,76.7,355.6,80,355.6,83.5z M343.7,83.5c0-1.5-0.1-3.2-0.3-5.1c-0.2-1.9-0.5-3.6-1-5.2c-0.5-1.6-1.2-2.9-2.2-4
		c-1-1.1-2.2-1.6-3.7-1.6s-2.8,0.5-3.8,1.6c-1,1.1-1.7,2.4-2.3,4c-0.5,1.6-0.9,3.3-1.1,5.2c-0.2,1.9-0.3,3.5-0.3,5.1
		c0,1.6,0.1,3.3,0.3,5.2c0.2,1.9,0.5,3.6,1.1,5.2c0.5,1.6,1.3,2.9,2.3,4c1,1.1,2.2,1.6,3.8,1.6s2.8-0.5,3.7-1.6
		c0.9-1.1,1.7-2.4,2.2-4c0.5-1.6,0.9-3.3,1-5.2C343.6,86.8,343.7,85.1,343.7,83.5z"/>
	<path class="st1" d="M389.5,108.3v-4.5h-0.1c-1.1,1.8-2.7,3.1-4.8,4.1c-2.1,0.9-4.3,1.4-6.6,1.4c-2.6,0-4.9-0.5-7-1.5
		c-2-1-3.8-2.4-5.2-4.1c-1.4-1.7-2.5-3.6-3.2-5.9c-0.7-2.2-1.1-4.5-1.1-7c0-2.4,0.4-4.7,1.1-6.9c0.8-2.2,1.9-4.1,3.3-5.8
		c1.4-1.7,3.1-3,5.1-4c2-1,4.3-1.5,6.8-1.5c2.5,0,4.7,0.5,6.5,1.5c1.8,1,3.1,2,4.1,3.2h0.1v-8.7h-10.4v-6.2h10.4v-6.7H400v6.7h3.2
		v6.2H400v39.6H389.5z M389.1,90.9c0-1.1-0.2-2.2-0.6-3.3c-0.4-1.1-1-2-1.7-2.9c-0.7-0.8-1.6-1.5-2.6-2c-1-0.5-2.2-0.8-3.5-0.8
		c-1.3,0-2.5,0.3-3.5,0.8c-1,0.5-1.9,1.2-2.6,2c-0.7,0.8-1.2,1.8-1.6,2.8c-0.3,1.1-0.5,2.2-0.5,3.3s0.2,2.2,0.5,3.3
		c0.3,1.1,0.9,2.1,1.6,2.9c0.7,0.8,1.6,1.5,2.6,2c1,0.5,2.2,0.8,3.5,0.8c1.3,0,2.5-0.3,3.5-0.8c1-0.5,1.9-1.2,2.6-2
		c0.7-0.8,1.3-1.8,1.7-2.9C388.9,93.1,389.1,92,389.1,90.9z"/>
</g>
</svg>
