<?xml version="1.0" encoding="utf-8"?>
<!-- Generator: Adobe Illustrator 22.1.0, SVG Export Plug-In . SVG Version: 6.00 Build 0)  -->
<svg version="1.1" id="Layer_1" xmlns="http://www.w3.org/2000/svg" xmlns:xlink="http://www.w3.org/1999/xlink" x="0px" y="0px"
	 viewBox="0 0 987 639" style="enable-background:new 0 0 987 639;" xml:space="preserve">
<style type="text/css">
	.st0{fill:#C90202;}
	.st1{fill:#FFFFFF;}
</style>
<title>Image convert makeup convert</title>
<path d="M102.6,227.4c0,11.5-8.7,18.7-22.5,18.7H69.6v14.3h-12v-51.8h22.4C93.9,208.6,102.6,215.8,102.6,227.4z M90.4,227.4
	c0-5.7-3.7-9-11-9h-9.8v18h9.8C86.7,236.3,90.4,233,90.4,227.4z"/>
<path d="M158.6,208.6v51.8h-12v-21.2h-23.5v21.2h-12v-51.8h12V229h23.5v-20.4H158.6z"/>
<path d="M205,249.3h-24l-4.6,11.1h-12.4l23.1-51.8H199l23.2,51.8h-12.6L205,249.3z M186.7,204.4h-8.5l9.8-8.4h10.1l9.8,8.4h-8.5
	l-6.4-4.2L186.7,204.4z M201.2,240.2l-8.2-19.8l-8.2,19.8H201.2z M210.3,197.2h-8.4l8.2-9h11.8L210.3,197.2z"/>
<path d="M275.1,208.6v51.8h-9.9l-25.8-31.4v31.4h-11.8v-51.8h9.9l25.8,31.4v-31.4H275.1z"/>
<path d="M355.4,260.4l-0.1-31.1l-15.2,25.6h-5.4L319.5,230v30.4h-11.2v-51.8h9.9l19.4,32.2l19.1-32.2h9.8l0.1,51.8H355.4z"/>
<path d="M413.1,249.3H389l-4.6,11.1h-12.3l23.1-51.8h11.8l23.2,51.8h-12.6L413.1,249.3z M409.3,240.2l-8.2-19.8l-8.2,19.8H409.3z
	 M403.4,204.4h-9l10-10.7h12.4L403.4,204.4z"/>
<path d="M504.1,208.6v51.8h-12v-21.2h-23.5v21.2h-12v-51.8h12V229h23.5v-20.4H504.1z"/>
<path d="M569.8,234.5c0,15.5-12.1,26.8-28.3,26.8s-28.3-11.4-28.3-26.8s12-26.8,28.3-26.8S569.8,219,569.8,234.5z M557.7,234.5
	c0-9.8-7-16.6-16.2-16.6s-16.2,6.7-16.2,16.6s7,16.6,16.2,16.6S557.7,244.3,557.7,234.5z M535.1,204.4h-8.5l9.8-8.4h10.1l9.8,8.4
	h-8.5l-6.4-4.2L535.1,204.4z M554.8,197.2l-11.6-9h11.8l8.1,9H554.8z"/>
<path d="M626.3,208.6v51.8h-9.8l-25.8-31.4v31.4h-11.8v-51.8h9.9l25.8,31.4v-31.4H626.3z"/>
<path d="M673.6,233.7h11v21c-5.7,4.3-13.5,6.6-20.9,6.6c-16.3,0-28.3-11.2-28.3-26.8c0-15.6,12-26.8,28.5-26.8
	c9.1,0,16.7,3.1,21.7,8.9l-7.7,7.1c-3.4-3.8-8.3-5.9-13.4-5.8c-10.1,0-17,6.7-17,16.6c0,9.7,6.9,16.6,16.8,16.6
	c3.2,0.1,6.5-0.7,9.3-2.2L673.6,233.7z"/>
<path d="M76,306.4v-14.3l-7,11.8h-2.5l-7-11.5v14h-5.1v-23.8h4.6l8.9,14.8l8.8-14.8h4.5l0.1,23.8L76,306.4z"/>
<path d="M102.5,301.3h-11l-2.1,5.1h-5.7l10.6-23.8h5.4l10.6,23.8h-5.8L102.5,301.3z M100.7,297.1L97,288l-3.8,9.1L100.7,297.1z"/>
<path d="M112.8,282.6h5.5v19.3h11.9v4.5h-17.4V282.6z"/>
<path d="M133.4,282.6h5.5v23.8h-5.5V282.6z"/>
<path d="M166.4,299.9c0,4.1-3.3,6.5-9.5,6.5h-12.3v-23.8h11.6c5.9,0,9,2.5,9,6.2c0,2.2-1.2,4.2-3.2,5.2
	C164.6,294.7,166.4,297.1,166.4,299.9z M150,286.7v5.6h5.5c2.7,0,4.1-1,4.1-2.8s-1.5-2.8-4.1-2.8H150z M160.8,299.3c0-2-1.5-3-4.4-3
	H150v5.9h6.4C159.3,302.2,160.8,301.3,160.8,299.3z"/>
<path d="M170.3,295.9v-13.3h5.5v13.1c0,4.5,2,6.4,5.3,6.4s5.3-1.9,5.3-6.4v-13.1h5.4v13.3c0,7-4,10.9-10.8,10.9
	S170.3,302.9,170.3,295.9z"/>
<path d="M205.1,304l1.9-4.1c2.3,1.6,5,2.5,7.9,2.5c3.3,0,4.6-1.1,4.6-2.6c0-4.4-13.8-1.4-13.8-10.2c0-4,3.3-7.4,10-7.4
	c2.9-0.1,5.7,0.7,8.3,2.1l-1.7,4.2c-2-1.2-4.3-1.8-6.6-1.9c-3.3,0-4.5,1.2-4.5,2.7c0,4.4,13.8,1.4,13.8,10.1c0,4-3.3,7.4-10.1,7.4
	C211,306.8,207.2,305.7,205.1,304z"/>
<path d="M228.4,295.9v-13.3h5.5v13.1c0,4.5,2,6.4,5.3,6.4s5.3-1.9,5.3-6.4v-13.1h5.5v13.3c0,7-4,10.9-10.8,10.9
	S228.4,302.9,228.4,295.9z"/>
<path d="M277.2,282.6v23.8h-4.5l-11.9-14.4v14.4h-5.4v-23.8h4.6l11.8,14.4v-14.4H277.2z"/>
<path d="M281,304l1.9-4.1c2.3,1.6,5,2.5,7.9,2.5c3.3,0,4.6-1.1,4.6-2.6c0-4.4-13.8-1.4-13.8-10.2c0-4,3.3-7.4,10-7.4
	c2.9-0.1,5.7,0.7,8.3,2.1l-1.7,4.2c-2-1.2-4.3-1.8-6.6-1.9c-3.3,0-4.5,1.2-4.5,2.7c0,4.4,13.8,1.4,13.8,10.1c0,4-3.3,7.4-10.1,7.4
	C287,306.8,283.1,305.7,281,304z"/>
<path d="M323,302v4.4h-18.4v-23.8h18v4.4h-12.5v5.2h11v4.3h-11v5.5H323z"/>
<path d="M332.3,287.1h-7.6v-4.5h20.7v4.5h-7.6v19.3h-5.5V287.1z"/>
<path d="M379.9,299.9c0,4.1-3.3,6.5-9.5,6.5H358v-23.8h11.6c6,0,9,2.5,9,6.2c0,2.2-1.2,4.3-3.2,5.2
	C378.1,294.7,380,297.1,379.9,299.9z M363.5,286.7v5.6h5.5c2.7,0,4.1-1,4.1-2.8s-1.5-2.8-4.1-2.8H363.5z M374.3,299.3
	c0-2-1.5-3-4.4-3h-6.4v5.9h6.4C372.8,302.2,374.3,301.3,374.3,299.3L374.3,299.3z"/>
<path d="M384,282.6h5.5v19.3h11.9v4.5H384V282.6z"/>
<path d="M404.1,295.9v-13.3h5.5v13.1c0,4.5,2,6.4,5.3,6.4s5.3-1.9,5.3-6.4v-13.1h5.4v13.3c0,7-4,10.9-10.8,10.9
	S404.1,302.9,404.1,295.9z"/>
<path d="M429.2,304l1.9-4.1c2.3,1.6,5,2.5,7.9,2.5c3.3,0,4.6-1.1,4.6-2.6c0-4.4-13.8-1.4-13.8-10.2c0-4,3.3-7.4,10-7.4
	c2.9-0.1,5.7,0.7,8.3,2.1l-1.7,4.2c-2-1.2-4.3-1.8-6.6-1.9c-3.3,0-4.5,1.2-4.5,2.7c0,4.4,13.8,1.4,13.8,10.1c0,4-3.3,7.4-10.1,7.4
	C435.1,306.8,431.3,305.7,429.2,304z"/>
<path d="M474.6,282.6v23.8h-5.5v-9.8h-10.8v9.8h-5.5v-23.8h5.5v9.4h10.8v-9.4L474.6,282.6z"/>
<path d="M498.7,302v4.4h-18.4v-23.8h18v4.4h-12.5v5.2h11v4.3h-11v5.5H498.7z"/>
<path d="M518.2,306.4l-4.6-6.6h-5.1v6.6H503v-23.8h10.3c6.4,0,10.3,3.3,10.3,8.6c0.1,3.3-1.8,6.3-4.9,7.5l5.3,7.7H518.2z M513,287.1
	h-4.5v8.3h4.5c3.4,0,5.1-1.6,5.1-4.1C518.1,288.6,516.4,287.1,513,287.1z"/>
<path d="M53.3,393.9h8.4v2h-8.4V393.9z"/>
<path d="M93.2,388.8c0,4.8-3.4,7.6-9.2,7.6h-6v7.1h-2.3v-22.4H84C89.7,381.1,93.2,384,93.2,388.8z M90.8,388.8
	c0-3.6-2.4-5.6-6.8-5.6h-6v11.2h6C88.5,394.4,90.8,392.3,90.8,388.8z"/>
<path d="M113.6,393.8v9.8h-2.3V394c0-3.5-1.9-5.4-5.1-5.4c-3.6,0-5.9,2.2-5.9,6.1v8.8h-2.3v-23.8h2.3v9.9c1.4-2.1,3.8-3.2,6.3-3.1
	C110.8,386.6,113.6,388.9,113.6,393.8z"/>
<path d="M132.5,393.1v10.4h-2.2v-2.6c-1,1.7-3,2.8-5.8,2.8c-3.8,0-6.1-2-6.1-4.9c0-2.6,1.7-4.8,6.5-4.8h5.4v-1
	c0-2.9-1.6-4.5-4.8-4.5c-2,0-4,0.7-5.6,2l-1-1.7c1.9-1.5,4.4-2.3,6.8-2.3C130.1,386.6,132.5,388.8,132.5,393.1z M122.7,384.1h-2.2
	l4.2-3h2.2l4.2,3h-2.2l-3.1-1.9L122.7,384.1z M130.2,398.5v-2.8H125c-3.3,0-4.3,1.3-4.3,3c0,2,1.6,3.2,4.2,3.2
	C127.3,402,129.4,400.6,130.2,398.5L130.2,398.5z M130.7,381.4h-2l3.9-3.5h2.8L130.7,381.4z"/>
<path d="M154.2,393.8v9.8h-2.3V394c0-3.5-1.9-5.4-5-5.4c-3.6,0-5.9,2.2-5.9,6.1v8.8h-2.3v-16.8h2.2v3.1c1.4-2.2,3.8-3.4,6.4-3.2
	C151.4,386.6,154.2,388.9,154.2,393.8z"/>
<path d="M196.5,393.8v9.8h-2.3V394c0-3.5-1.8-5.4-4.8-5.4c-3.4,0-5.6,2.2-5.6,6.1v8.8h-2.3V394c0-3.5-1.8-5.4-4.9-5.4
	c-3.4,0-5.6,2.2-5.6,6.1v8.8h-2.3v-16.8h2.2v3.1c1.3-2.1,3.7-3.3,6.2-3.2c2.8,0,5,1.2,6,3.5c1.4-2.3,3.9-3.7,6.6-3.5
	C193.8,386.6,196.5,388.9,196.5,393.8z"/>
<path d="M215.4,393.1v10.4h-2.2v-2.6c-1,1.7-3,2.8-5.8,2.8c-3.8,0-6.1-2-6.1-4.9c0-2.6,1.7-4.8,6.5-4.8h5.4v-1
	c0-2.9-1.6-4.5-4.8-4.5c-2,0-4,0.7-5.6,2l-1-1.7c1.9-1.5,4.4-2.3,6.8-2.3C212.9,386.6,215.4,388.8,215.4,393.1z M213.1,398.5v-2.8
	h-5.3c-3.3,0-4.3,1.3-4.3,3c0,2,1.6,3.2,4.2,3.2C210.1,402,212.3,400.6,213.1,398.5L213.1,398.5z M208.8,384.1h-2.2l4.4-4h3
	L208.8,384.1z"/>
<path d="M245.4,393.8v9.8h-2.3V394c0-3.5-1.9-5.4-5-5.4c-3.6,0-5.9,2.2-5.9,6.1v8.8H230v-23.8h2.3v9.9c1.4-2.1,3.8-3.2,6.3-3.1
	C242.6,386.6,245.4,388.9,245.4,393.8z"/>
<path d="M267.1,395.1c0,4.7-3.8,8.6-8.5,8.6c-4.7,0-8.6-3.8-8.6-8.5c0-4.7,3.8-8.6,8.5-8.6c0,0,0,0,0,0c4.6-0.1,8.4,3.4,8.5,8
	C267.1,394.8,267.1,394.9,267.1,395.1z M264.8,395.1c0-3.9-2.7-6.6-6.2-6.6s-6.3,2.6-6.3,6.6s2.7,6.6,6.3,6.6S264.8,399,264.8,395.1
	z M255.4,384.1h-2.2l4.2-3h2.2l4.2,3h-2.2l-3.1-1.9L255.4,384.1z M263.4,381.4l-4.6-3.5h2.8l3.8,3.5H263.4z"/>
<path d="M287.2,393.8v9.8H285V394c0-3.5-1.9-5.4-5.1-5.4c-3.6,0-5.9,2.2-5.9,6.1v8.8h-2.3v-16.8h2.2v3.1c1.4-2.2,3.8-3.4,6.4-3.2
	C284.4,386.6,287.2,388.9,287.2,393.8z"/>
<path d="M309.1,386.7v14.8c0,5.8-2.9,8.4-8.4,8.4c-3.1,0-6.1-0.9-7.8-2.6l1.1-1.7c1.9,1.5,4.2,2.4,6.6,2.3c4.3,0,6.2-1.9,6.2-6.1
	v-2.1c-1.5,2.1-4,3.4-6.6,3.3c-4.8,0-8.5-3.4-8.5-8.2c0-4.8,3.6-8.1,8.5-8.1c2.7-0.1,5.2,1.2,6.6,3.4v-3.2H309.1z M306.9,394.7
	c0-3.7-2.7-6.2-6.4-6.2c-3.4,0.1-6,3-5.9,6.4c0.1,3.4,3,6,6.4,5.9C304.2,400.7,306.9,398,306.9,394.7z"/>
<path d="M323.8,379.8h2.3v23.7h-2.3V379.8z"/>
<path d="M330.7,395.1c0-4.7,3.9-8.6,8.6-8.5c4.7,0,8.6,3.9,8.5,8.6c0,4.7-3.8,8.5-8.5,8.5c-4.6,0.2-8.4-3.4-8.6-8
	C330.7,395.5,330.7,395.3,330.7,395.1z M345.5,395.1c0-3.9-2.7-6.6-6.2-6.6s-6.3,2.6-6.3,6.6s2.7,6.6,6.3,6.6S345.5,399,345.5,395.1
	z"/>
<path d="M365.1,393.1v10.4h-2.2v-2.6c-1,1.7-3,2.8-5.8,2.8c-3.8,0-6.1-2-6.1-4.9c0-2.6,1.7-4.8,6.5-4.8h5.3v-1
	c0-2.9-1.6-4.5-4.8-4.5c-2,0-4,0.7-5.6,2l-1-1.7c2-1.5,4.4-2.3,6.9-2.3C362.6,386.6,365.1,388.8,365.1,393.1z M362.8,398.5v-2.8
	h-5.3c-3.3,0-4.3,1.3-4.3,3c0,2,1.6,3.2,4.3,3.2C359.8,402,362,400.6,362.8,398.5z"/>
<path d="M386.8,393.8v9.8h-2.3V394c0-3.5-1.9-5.4-5-5.4c-3.6,0-5.9,2.2-5.9,6.1v8.8h-2.3v-16.8h2.2v3.1c1.4-2.2,3.8-3.4,6.4-3.2
	C383.9,386.6,386.8,388.9,386.8,393.8z"/>
<path d="M408.6,386.7v14.8c0,5.8-2.9,8.4-8.4,8.4c-3.1,0-6.1-0.9-7.8-2.6l1.2-1.7c1.9,1.5,4.2,2.4,6.6,2.3c4.3,0,6.2-1.9,6.2-6.1
	v-2.1c-1.5,2.1-4,3.4-6.6,3.3c-4.8,0-8.5-3.4-8.5-8.2c0-4.8,3.6-8.1,8.5-8.1c2.7-0.1,5.2,1.2,6.6,3.4v-3.2H408.6z M406.4,394.7
	c0-3.7-2.7-6.2-6.4-6.2c-3.4,0.1-6,3-5.9,6.4c0.1,3.4,3,6,6.4,5.9C403.8,400.7,406.4,398,406.4,394.7z"/>
<path d="M451.1,393.8v9.8h-2.3V394c0-3.5-1.8-5.4-4.8-5.4c-3.5,0-5.6,2.2-5.6,6.1v8.8h-2.3V394c0-3.5-1.8-5.4-4.9-5.4
	c-3.4,0-5.6,2.2-5.6,6.1v8.8h-2.3v-16.8h2.2v3.1c1.3-2.1,3.7-3.3,6.2-3.2c2.8,0,5,1.2,6,3.5c1.4-2.3,3.9-3.7,6.6-3.5
	C448.4,386.6,451.1,388.9,451.1,393.8z"/>
<path d="M470,393.1v10.4h-2.2v-2.6c-1,1.7-3,2.8-5.8,2.8c-3.8,0-6.1-2-6.1-4.9c0-2.6,1.7-4.8,6.5-4.8h5.4v-1c0-2.9-1.6-4.5-4.8-4.5
	c-2,0-4,0.7-5.6,2l-1-1.7c2-1.5,4.4-2.3,6.9-2.3C467.5,386.6,470,388.8,470,393.1z M463.1,384.1l-5.2-4h3l4.4,4H463.1z M467.7,398.5
	v-2.8h-5.3c-3.3,0-4.3,1.3-4.3,3c0,2,1.6,3.2,4.2,3.2C464.7,402,466.9,400.6,467.7,398.5L467.7,398.5z"/>
<path d="M491.3,386.7v16.8h-2.2v-3.1c-1.3,2.1-3.6,3.3-6,3.2c-4.3,0-7.1-2.4-7.1-7.2v-9.8h2.3v9.5c0,3.6,1.9,5.4,5,5.4
	c3.5,0,5.7-2.3,5.7-6.1v-8.8H491.3z"/>
<path d="M515,402.5c-1,0.8-2.3,1.2-3.5,1.2c-3.2,0-4.9-1.8-4.9-4.9v-10.2h-3v-1.9h3V383h2.3v3.7h5.1v1.9h-5.1v10c0,2,1,3.1,2.9,3.1
	c0.9,0,1.8-0.3,2.5-0.9L515,402.5z"/>
<path d="M534.2,388.3v15.2h-2.2v-3.1c-1.3,2.1-3.6,3.3-6,3.2c-4.3,0-7.1-2.4-7.1-7.2v-9.8h2.3v9.5c0,3.6,1.8,5.4,5,5.4
	c3.5,0,5.7-2.3,5.7-6.1v-8.8h1.2c1.1,0.1,2.1-0.8,2.1-1.9c0-0.1,0-0.2,0-0.3c0-0.7-0.2-1.4-0.6-2l1.5-0.6c0.5,0.8,0.8,1.7,0.8,2.7
	C537.1,386.4,535.9,388,534.2,388.3z M526.4,384.1l-5.2-4h3l4.4,4H526.4z"/>
<path d="M564.7,393.8v9.8h-2.3V394c0-3.5-1.8-5.4-5-5.4c-3.6,0-5.9,2.2-5.9,6.1v8.8h-2.3v-16.8h2.2v3.1c1.4-2.2,3.8-3.4,6.4-3.2
	C561.9,386.6,564.7,388.9,564.7,393.8z"/>
<path d="M586.3,393.8v9.8h-2.3V394c0-3.5-1.8-5.4-5-5.4c-3.6,0-5.9,2.2-5.9,6.1v8.8h-2.3v-23.8h2.3v9.9c1.4-2.1,3.8-3.2,6.3-3.1
	C583.5,386.6,586.3,388.9,586.3,393.8z"/>
<path d="M605.2,393.1v10.4H603v-2.6c-1,1.7-3,2.8-5.8,2.8c-3.8,0-6.1-2-6.1-4.9c0-2.6,1.7-4.8,6.5-4.8h5.3v-1c0-2.9-1.6-4.5-4.8-4.5
	c-2,0-4,0.7-5.6,2l-1-1.7c2-1.5,4.4-2.3,6.8-2.3C602.8,386.6,605.2,388.8,605.2,393.1z M602.9,398.5v-2.8h-5.3c-3.3,0-4.3,1.3-4.3,3
	c0,2,1.6,3.2,4.2,3.2C599.9,402,602.1,400.6,602.9,398.5L602.9,398.5z M599.9,408.2c0,0.8-0.6,1.4-1.4,1.4c-0.8,0-1.4-0.6-1.4-1.4
	c0-0.8,0.6-1.4,1.4-1.4c0,0,0,0,0,0C599.3,406.9,599.9,407.5,599.9,408.2C599.9,408.2,599.9,408.2,599.9,408.2L599.9,408.2z"/>
<path d="M620.3,402.5c-1,0.8-2.3,1.2-3.5,1.2c-3.2,0-4.9-1.8-4.9-4.9v-10.2h-3v-1.9h3V383h2.3v3.7h5.1v1.9h-5.1v10
	c0,2,1,3.1,2.9,3.1c0.9,0,1.8-0.3,2.5-0.9L620.3,402.5z"/>
<path d="M651.3,384.1h-3.2v19.4H646v-3.3c-1.4,2.3-3.9,3.6-6.5,3.5c-4.7,0-8.6-3.8-8.6-8.6c0-4.7,3.8-8.5,8.6-8.6
	c2.6-0.1,5,1.2,6.4,3.3v-5.8h-7v-1.7h7v-2.6h2.3v2.6h3.2L651.3,384.1z M645.9,395.1c0-3.9-2.7-6.6-6.2-6.6s-6.3,2.6-6.3,6.6
	s2.7,6.6,6.3,6.6S645.9,399,645.9,395.1z"/>
<path d="M669.2,395.1c0,0.2,0,0.5,0,0.7H655c0.3,3.5,2.9,5.9,6.6,5.9c2,0.1,3.8-0.7,5.2-2.2l1.3,1.5c-1.6,1.8-4,2.8-6.5,2.8
	c-5.2,0-8.8-3.6-8.8-8.6s3.5-8.5,8.2-8.5S669.2,390.1,669.2,395.1z M655,394.1h12c-0.3-3.3-3.3-5.7-6.6-5.4
	C657.6,389,655.3,391.3,655,394.1L655,394.1z M657.9,384.1h-2.2l4.2-3h2.2l4.2,3h-2.2l-3.1-1.9L657.9,384.1z M665.9,381.4h-2
	l3.9-3.5h2.8L665.9,381.4z"/>
<path d="M689.3,393.8v9.8H687V394c0-3.5-1.9-5.4-5.1-5.4c-3.6,0-5.9,2.2-5.9,6.1v8.8h-2.3v-16.8h2.2v3.1c1.4-2.2,3.8-3.4,6.4-3.2
	C686.5,386.6,689.3,388.9,689.3,393.8z"/>
<path d="M722.4,384.1h-3.2v19.4H717v-3.3c-1.4,2.3-3.9,3.6-6.5,3.5c-4.7,0-8.6-3.8-8.6-8.6c0-4.7,3.8-8.5,8.6-8.6
	c2.6-0.1,5,1.2,6.4,3.3v-5.8h-7v-1.7h7v-2.6h2.3v2.6h3.2L722.4,384.1z M717,395.1c0-3.9-2.7-6.6-6.2-6.6s-6.3,2.6-6.3,6.6
	s2.7,6.6,6.3,6.6S717,399,717,395.1L717,395.1z"/>
<path d="M738.2,393.1v10.4h-2.2v-2.6c-1,1.7-3,2.8-5.8,2.8c-3.8,0-6.1-2-6.1-4.9c0-2.6,1.7-4.8,6.5-4.8h5.4v-1
	c0-2.9-1.6-4.5-4.8-4.5c-2,0-4,0.7-5.6,2l-1-1.7c1.9-1.5,4.4-2.3,6.8-2.3C735.8,386.6,738.2,388.8,738.2,393.1z M728.3,384.1h-2.1
	l4.1-4h2.3l4.1,4h-2.1l-3.2-2.7L728.3,384.1z M736,398.5v-2.8h-5.3c-3.3,0-4.3,1.3-4.3,3c0,2,1.6,3.2,4.2,3.2
	C733,402,735.1,400.6,736,398.5z M733,408.2c0.1,0.8-0.5,1.4-1.3,1.5s-1.4-0.5-1.5-1.3c0-0.1,0-0.2,0-0.2c0.1-0.8,0.7-1.3,1.5-1.3
	C732.4,407,732.9,407.6,733,408.2z"/>
<path d="M772.2,393.8v9.8h-2.3V394c0-3.5-1.8-5.4-4.8-5.4c-3.5,0-5.6,2.2-5.6,6.1v8.8h-2.3V394c0-3.5-1.8-5.4-4.9-5.4
	c-3.4,0-5.6,2.2-5.6,6.1v8.8h-2.3v-16.8h2.2v3.1c1.3-2.1,3.7-3.3,6.2-3.2c2.8,0,5,1.2,6,3.5c1.4-2.3,4-3.7,6.7-3.5
	C769.5,386.6,772.2,388.9,772.2,393.8z"/>
<path d="M795.6,402.5c-1,0.8-2.3,1.2-3.5,1.2c-3.2,0-4.9-1.8-4.9-4.9v-10.2h-3v-1.9h3V383h2.3v3.7h5.1v1.9h-5.1v10
	c0,2,1,3.1,2.9,3.1c0.9,0,1.8-0.3,2.5-0.9L795.6,402.5z"/>
<path d="M812.5,393.1v10.4h-2.2v-2.6c-1,1.7-3,2.8-5.8,2.8c-3.8,0-6.2-2-6.2-4.9c0-2.6,1.7-4.8,6.5-4.8h5.3v-1
	c0-2.9-1.6-4.5-4.8-4.5c-2,0-4,0.7-5.6,2l-1-1.7c2-1.5,4.4-2.3,6.8-2.3C810,386.6,812.5,388.8,812.5,393.1z M810.2,398.5v-2.8h-5.3
	c-3.3,0-4.3,1.3-4.3,3c0,2,1.6,3.2,4.3,3.2C807.2,402,809.3,400.6,810.2,398.5z M807.2,408.2c0,0.8-0.6,1.4-1.4,1.4
	c-0.8,0-1.4-0.6-1.4-1.4c0-0.8,0.6-1.4,1.4-1.4c0,0,0,0,0,0C806.5,406.9,807.1,407.5,807.2,408.2
	C807.1,408.2,807.1,408.2,807.2,408.2L807.2,408.2z"/>
<path d="M817,395.1c0-4.7,3.9-8.6,8.6-8.5c4.7,0,8.6,3.9,8.5,8.6c0,4.7-3.8,8.5-8.5,8.5c-4.6,0.2-8.4-3.4-8.6-8
	C817,395.5,817,395.3,817,395.1z M831.8,395.1c0-3.9-2.7-6.6-6.2-6.6s-6.3,2.6-6.3,6.6s2.7,6.6,6.3,6.6S831.8,399,831.8,395.1
	L831.8,395.1z"/>
<path d="M862.6,393.8v9.8h-2.3V394c0-3.5-1.9-5.4-5.1-5.4c-3.6,0-5.9,2.2-5.9,6.1v8.8h-2.3v-23.8h2.3v9.9c1.4-2.1,3.8-3.2,6.3-3.1
	C859.8,386.6,862.6,388.9,862.6,393.8z"/>
<path d="M868.3,381.4c0-0.9,0.8-1.6,1.7-1.6c0,0,0,0,0,0c0.9,0,1.6,0.7,1.7,1.6c0,0,0,0,0,0c0,0.9-0.7,1.7-1.7,1.7
	C869,383,868.3,382.3,868.3,381.4L868.3,381.4L868.3,381.4z M868.8,386.7h2.3v16.8h-2.3V386.7z"/>
<path d="M892.1,395.8H878c0.3,3.5,3,5.9,6.6,5.9c2,0.1,3.8-0.7,5.2-2.2l1.3,1.5c-1.6,1.8-4,2.8-6.5,2.8c-5.2,0-8.8-3.6-8.8-8.6
	s3.5-8.5,8.2-8.5s8.2,3.5,8.2,8.5C892.1,395.3,892.1,395.6,892.1,395.8z M878,394.1h11.9c-0.3-3.3-3.3-5.7-6.6-5.4
	C880.5,389,878.3,391.3,878,394.1z M880.8,384.1h-2.1l4.1-4h2.3l4.1,4h-2.1l-3.2-2.7L880.8,384.1z M885.3,408.2
	c0,0.8-0.6,1.4-1.4,1.4c-0.8,0-1.4-0.6-1.4-1.4c0-0.8,0.6-1.4,1.4-1.4c0,0,0,0,0,0C884.7,406.9,885.3,407.5,885.3,408.2
	C885.3,408.2,885.3,408.2,885.3,408.2L885.3,408.2z"/>
<path d="M911.9,386.7v16.8h-2.2v-3.1c-1.3,2.1-3.6,3.3-6,3.2c-4.3,0-7.1-2.4-7.1-7.2v-9.8h2.3v9.5c0,3.6,1.9,5.4,5.1,5.4
	c3.5,0,5.7-2.3,5.7-6.1v-8.8H911.9z"/>
<path d="M69.7,434.3v15.2h-2.2v-3.1c-1.3,2.1-3.6,3.3-6,3.2c-4.3,0-7.1-2.4-7.1-7.2v-9.8h2.3v9.5c0,3.6,1.9,5.4,5.1,5.4
	c3.5,0,5.7-2.3,5.7-6.1v-8.8h1.2c1.1,0.1,2-0.8,2.1-1.9c0-0.1,0-0.2,0-0.3c0-0.7-0.2-1.4-0.6-2l1.5-0.6c0.6,0.8,0.8,1.7,0.8,2.7
	C72.6,432.4,71.5,434,69.7,434.3z M62.2,430.1H60l4.4-4h3L62.2,430.1z"/>
<path d="M91.3,439.8v9.8H89V440c0-3.5-1.8-5.4-5-5.4c-3.6,0-5.9,2.2-5.9,6.1v8.8h-2.3v-16.8H78v3.1c1.4-2.2,3.8-3.4,6.4-3.2
	C88.5,432.6,91.3,434.9,91.3,439.8z"/>
<path d="M113.1,432.7v14.8c0,5.8-2.8,8.4-8.4,8.4c-3.1,0-6.1-0.9-7.8-2.6l1.1-1.7c1.9,1.5,4.2,2.4,6.6,2.3c4.2,0,6.2-2,6.2-6.1v-2.1
	c-1.5,2.1-4,3.4-6.6,3.3c-4.8,0-8.4-3.4-8.4-8.2s3.7-8.1,8.4-8.1c2.7-0.1,5.2,1.2,6.7,3.4v-3.2H113.1z M110.9,440.7
	c0-3.6-2.7-6.1-6.4-6.1s-6.4,2.5-6.4,6.1c0.1,3.5,3.1,6.3,6.6,6.1C108.1,446.7,110.8,444,110.9,440.7z"/>
<path d="M129.8,432c0,0.9-0.8,1.7-1.7,1.7c-0.9,0-1.7-0.8-1.7-1.7c0-0.6,0.2-1.3,0.4-1.8l1.4-4.4h1.5l-1.1,4.6
	C129.3,430.6,129.8,431.3,129.8,432z M135.2,432c0,0.9-0.8,1.7-1.7,1.7c-0.9,0-1.7-0.8-1.7-1.7c0-0.6,0.2-1.3,0.4-1.8l1.4-4.4h1.5
	l-1.1,4.6C134.8,430.6,135.2,431.3,135.2,432z"/>
<path d="M155.6,439.8v9.8h-2.3V440c0-3.5-1.9-5.4-5.1-5.4c-3.6,0-5.9,2.2-5.9,6.1v8.8h-2.3v-23.7h2.3v9.9c1.4-2.1,3.8-3.2,6.3-3.1
	C152.8,432.6,155.6,434.9,155.6,439.8z"/>
<path d="M160.1,441.1c0-4.7,3.8-8.6,8.6-8.5s8.6,3.8,8.5,8.6c0,4.7-3.8,8.5-8.6,8.5c-4.6,0.2-8.4-3.4-8.6-8
	C160.1,441.5,160.1,441.3,160.1,441.1z M174.9,441.1c0-3.9-2.7-6.6-6.2-6.6s-6.3,2.6-6.3,6.6s2.7,6.5,6.3,6.5S175,445,174.9,441.1
	L174.9,441.1z"/>
<path d="M194.5,439.1v10.4h-2.2v-2.6c-1,1.7-3,2.8-5.8,2.8c-3.8,0-6.1-2-6.1-4.9c0-2.6,1.7-4.8,6.5-4.8h5.3v-1
	c0-2.9-1.6-4.4-4.8-4.4c-2,0-4,0.7-5.6,2l-1-1.7c2-1.5,4.4-2.3,6.9-2.3C192,432.6,194.5,434.8,194.5,439.1z M187.6,430.1l-5.2-4h3
	l4.4,4H187.6z M192.2,444.5v-2.8H187c-3.3,0-4.3,1.3-4.3,3c0,2,1.6,3.2,4.3,3.2C189.3,448,191.4,446.6,192.2,444.5L192.2,444.5z"/>
<path d="M216.2,439.8v9.8h-2.3V440c0-3.5-1.9-5.4-5-5.4c-3.6,0-5.9,2.2-5.9,6.1v8.8h-2.3v-16.8h2.2v3.1c1.4-2.2,3.8-3.4,6.4-3.2
	C213.4,432.6,216.2,434.9,216.2,439.8z"/>
<path d="M238,432.7v14.8c0,5.8-2.9,8.4-8.4,8.4c-3.1,0-6.1-0.9-7.8-2.6l1.1-1.7c1.9,1.5,4.2,2.4,6.6,2.3c4.3,0,6.2-2,6.2-6.1v-2.1
	c-1.5,2.1-4,3.4-6.6,3.3c-4.8,0-8.4-3.4-8.4-8.2s3.6-8.1,8.4-8.1c2.7-0.1,5.2,1.2,6.6,3.4v-3.2H238z M235.8,440.7
	c0-3.6-2.7-6.1-6.4-6.1s-6.4,2.5-6.4,6.1c0.1,3.5,3.1,6.3,6.6,6.1C233,446.7,235.6,444,235.8,440.7L235.8,440.7z"/>
<path d="M268.2,439.8v9.8H266V440c0-3.5-1.9-5.4-5.1-5.4c-3.6,0-5.9,2.2-5.9,6.1v8.8h-2.3v-23.7h2.2v9.9c1.4-2.1,3.8-3.2,6.3-3.1
	C265.4,432.6,268.2,434.9,268.2,439.8z"/>
<path d="M289.9,441.1c0,4.7-3.8,8.6-8.6,8.6c-4.7,0-8.6-3.8-8.6-8.5c0-4.7,3.8-8.6,8.6-8.6c0,0,0,0,0,0c4.6-0.2,8.4,3.4,8.5,8
	C289.9,440.7,289.9,440.9,289.9,441.1z M287.6,441.1c0-3.9-2.7-6.6-6.2-6.6s-6.3,2.6-6.3,6.6s2.7,6.5,6.3,6.5S287.6,445,287.6,441.1
	L287.6,441.1z M278.2,430.1H276l4.1-4h2.3l4.1,4h-2.1l-3.2-2.7L278.2,430.1z"/>
<path d="M310,439.8v9.8h-2.3V440c0-3.5-1.9-5.4-5.1-5.4c-3.6,0-5.9,2.2-5.9,6.1v8.8h-2.3v-16.8h2.2v3.1c1.4-2.2,3.8-3.4,6.4-3.2
	C307.2,432.6,310,434.9,310,439.8z"/>
<path d="M317.9,427.4c0,0.6-0.2,1.2-0.4,1.8l-1.4,4.4h-1.5l1.1-4.6c-0.7-0.2-1.2-0.9-1.2-1.6c-0.1-0.9,0.6-1.8,1.6-1.8
	s1.8,0.6,1.8,1.6C317.9,427.2,317.9,427.3,317.9,427.4L317.9,427.4z M323.3,427.4c0,0.6-0.2,1.2-0.4,1.8l-1.4,4.4H320l1.1-4.6
	c-0.7-0.2-1.2-0.9-1.2-1.6c-0.1-0.9,0.6-1.8,1.6-1.8s1.8,0.6,1.8,1.6C323.3,427.2,323.3,427.3,323.3,427.4L323.3,427.4z"/>
<path d="M351.7,434.3v15.2h-2.2v-3.1c-1.3,2.1-3.6,3.3-6,3.2c-4.3,0-7.1-2.4-7.1-7.2v-9.8h2.3v9.5c0,3.6,1.9,5.4,5.1,5.4
	c3.5,0,5.7-2.3,5.7-6.1v-8.8h1.2c1.1,0.1,2-0.8,2.1-1.9c0-0.1,0-0.2,0-0.3c0-0.7-0.2-1.4-0.6-2l1.5-0.6c0.6,0.8,0.8,1.7,0.8,2.7
	C354.6,432.4,353.4,434,351.7,434.3z M341.9,426.1l-0.5-1.1c0.8-0.6,1.7-0.8,2.6-0.8c1.5-0.1,2.8,0.9,3,2.4c0,0.1,0,0.2,0,0.3
	c0,1.5-0.8,2.6-2.6,3.4l-0.8-1c1.3-0.6,1.9-1.3,1.9-2.3c0-0.9-0.8-1.6-1.7-1.6c0,0-0.1,0-0.1,0C343.1,425.5,342.4,425.7,341.9,426.1
	z"/>
<path d="M373.3,439.8v9.8H371V440c0-3.5-1.9-5.4-5-5.4c-3.6,0-5.9,2.2-5.9,6.1v8.8h-2.3v-16.8h2.2v3.1c1.4-2.2,3.8-3.4,6.4-3.2
	C370.5,432.6,373.3,434.9,373.3,439.8z"/>
<path d="M395.1,432.7v14.8c0,5.8-2.9,8.4-8.4,8.4c-3.1,0-6.1-0.9-7.8-2.6l1.1-1.7c1.9,1.5,4.2,2.4,6.6,2.3c4.2,0,6.2-2,6.2-6.1v-2.1
	c-1.5,2.1-4,3.4-6.6,3.3c-4.8,0-8.5-3.4-8.5-8.2s3.6-8.1,8.5-8.1c2.7-0.1,5.2,1.2,6.6,3.4v-3.2H395.1z M392.9,440.7
	c0-3.6-2.7-6.1-6.4-6.1s-6.4,2.5-6.4,6.1c0.1,3.5,3.1,6.3,6.6,6.1C390.1,446.7,392.8,444,392.9,440.7z"/>
<path d="M418.7,448.5c-1,0.8-2.3,1.2-3.5,1.2c-3.2,0-4.9-1.8-4.9-4.9v-10.2h-3v-1.9h3V429h2.3v3.7h5.1v1.9h-5.1v10
	c0,2,1,3.1,2.9,3.1c0.9,0,1.8-0.3,2.5-0.9L418.7,448.5z"/>
<path d="M431.3,432.6v2.2c-0.2,0-0.4,0-0.5,0c-3.5,0-5.7,2.2-5.7,6.2v8.6h-2.3v-16.9h2.2v3.3C426.1,433.8,428.2,432.6,431.3,432.6z"
	/>
<path d="M449.9,441.8h-14.1c0.3,3.5,3,5.9,6.6,5.9c2,0.1,3.8-0.7,5.1-2.2l1.3,1.5c-1.6,1.8-4,2.8-6.5,2.8c-5.2,0-8.8-3.6-8.8-8.6
	s3.5-8.5,8.2-8.5s8.2,3.5,8.2,8.5C450,441.3,449.9,441.6,449.9,441.8z M435.8,440.1h11.9c-0.3-3.3-3.3-5.7-6.6-5.4
	C438.4,435,436.1,437.3,435.8,440.1z M438.6,430.1h-2.1l4.1-4h2.4l4.1,4H445l-3.2-2.7L438.6,430.1z"/>
<path d="M470.1,439.8v9.8h-2.3V440c0-3.5-1.9-5.4-5.1-5.4c-3.6,0-5.9,2.2-5.9,6.1v8.8h-2.3v-16.8h2.2v3.1c1.4-2.2,3.8-3.4,6.4-3.2
	C467.3,432.6,470.1,434.9,470.1,439.8z"/>
<path d="M512.4,439.8v9.8h-2.3V440c0-3.5-1.8-5.4-4.8-5.4c-3.5,0-5.6,2.2-5.6,6.1v8.8h-2.3V440c0-3.5-1.8-5.4-4.9-5.4
	c-3.4,0-5.6,2.2-5.6,6.1v8.8h-2.3v-16.8h2.2v3.1c1.3-2.1,3.7-3.3,6.2-3.2c2.8,0,5,1.2,6,3.5c1.4-2.3,3.9-3.7,6.6-3.5
	C509.7,432.6,512.4,434.9,512.4,439.8z"/>
<path d="M531.3,439.1v10.4h-2.2v-2.6c-1,1.7-3,2.8-5.8,2.8c-3.8,0-6.1-2-6.1-4.9c0-2.6,1.7-4.8,6.5-4.8h5.3v-1
	c0-2.9-1.6-4.4-4.8-4.4c-2,0-4,0.7-5.6,2l-1-1.7c2-1.5,4.4-2.3,6.8-2.3C528.8,432.6,531.3,434.8,531.3,439.1z M529,444.5v-2.8h-5.3
	c-3.3,0-4.3,1.3-4.3,3c0,2,1.6,3.2,4.2,3.2C526,448,528.1,446.6,529,444.5z M524.7,430.1h-2.2l4.4-4h3L524.7,430.1z"/>
<path d="M554.7,448.5c-1,0.8-2.3,1.2-3.5,1.2c-3.2,0-4.9-1.8-4.9-4.9v-10.2h-3v-1.9h3V429h2.3v3.7h5.1v1.9h-5.1v10
	c0,2,1,3.1,2.9,3.1c0.9,0,1.8-0.3,2.5-0.9L554.7,448.5z"/>
<path d="M574,434.3v15.2h-2.2v-3.1c-1.3,2.1-3.6,3.3-6,3.2c-4.3,0-7.1-2.4-7.1-7.2v-9.8h2.3v9.5c0,3.6,1.9,5.4,5.1,5.4
	c3.5,0,5.7-2.3,5.7-6.1v-8.8h1.2c1.1,0.1,2-0.8,2.1-1.9c0-0.1,0-0.2,0-0.3c0-0.7-0.2-1.4-0.6-2l1.5-0.6c0.6,0.8,0.8,1.7,0.8,2.7
	C577,432.4,575.7,434,574,434.3z M567.7,454.2c0,0.8-0.6,1.4-1.4,1.4c-0.8,0-1.4-0.6-1.4-1.4c0-0.8,0.6-1.4,1.4-1.4c0,0,0,0,0,0
	C567.1,452.8,567.7,453.4,567.7,454.2C567.7,454.2,567.7,454.2,567.7,454.2L567.7,454.2z"/>
<path d="M604.5,439.8v9.8h-2.3V440c0-3.5-1.9-5.4-5.1-5.4c-3.6,0-5.9,2.2-5.9,6.1v8.8H589v-16.8h2.2v3.1c1.4-2.2,3.8-3.4,6.4-3.2
	C601.6,432.6,604.5,434.9,604.5,439.8z"/>
<path d="M626.1,439.8v9.8h-2.3V440c0-3.5-1.9-5.4-5.1-5.4c-3.6,0-5.9,2.2-5.9,6.1v8.8h-2.3v-23.7h2.3v9.9c1.4-2.1,3.8-3.2,6.3-3.1
	C623.3,432.6,626.1,434.9,626.1,439.8z"/>
<path d="M631.8,427.4c0-0.9,0.8-1.6,1.7-1.6c0,0,0,0,0,0c0.9,0,1.6,0.7,1.7,1.6c0,0,0,0,0,0c0,0.9-0.7,1.7-1.7,1.7
	C632.5,429,631.8,428.3,631.8,427.4L631.8,427.4L631.8,427.4z M632.3,432.7h2.3v16.8h-2.3V432.7z"/>
<path d="M655.5,441.8h-14.1c0.3,3.5,3,5.9,6.6,5.9c2,0.1,3.8-0.7,5.2-2.2l1.3,1.5c-1.6,1.8-4,2.8-6.5,2.8c-5.2,0-8.8-3.6-8.8-8.6
	s3.5-8.5,8.2-8.5s8.2,3.5,8.2,8.5C655.6,441.3,655.5,441.6,655.5,441.8z M641.5,440.1h11.9c-0.3-3.3-3.3-5.7-6.6-5.4
	C644,435,641.8,437.3,641.5,440.1z M644.3,430.1h-2.1l4.1-4h2.3l4.1,4h-2.1l-3.2-2.7L644.3,430.1z"/>
<path d="M675.7,439.8v9.8h-2.3V440c0-3.5-1.9-5.4-5.1-5.4c-3.6,0-5.9,2.2-5.9,6.1v8.8h-2.3v-16.8h2.2v3.1c1.4-2.2,3.8-3.4,6.4-3.2
	C672.9,432.6,675.7,434.9,675.7,439.8z"/>
<path d="M680.4,447.9c0-0.9,0.7-1.7,1.6-1.7c0,0,0,0,0,0c0.9,0,1.7,0.8,1.7,1.7c0,0,0,0,0,0c0,1-0.8,1.7-1.7,1.8
	C681.2,449.7,680.4,448.9,680.4,447.9C680.4,447.9,680.4,447.9,680.4,447.9z"/>
<path d="M53.3,485.9h8.4v2h-8.4V485.9z"/>
<path d="M80,475.2h-7.9v-2h18.1v2h-7.9v20.4H80V475.2z"/>
<path d="M96.6,472.1h3l-5.2,4h-2.2L96.6,472.1z M93.1,478.7h2.3v16.8h-2.3V478.7z"/>
<path d="M100,487.1c-0.1-4.6,3.4-8.4,8-8.6c0.2,0,0.4,0,0.7,0c2.6-0.2,5.2,1.1,6.6,3.3l-1.7,1.1c-1.1-1.6-3-2.5-4.9-2.5
	c-3.6,0.1-6.4,3.2-6.3,6.8c0.1,3.4,2.9,6.2,6.3,6.3c1.9,0.1,3.8-0.9,4.9-2.5l1.7,1.1c-1.4,2.2-4,3.5-6.6,3.3
	c-4.6,0.2-8.5-3.4-8.7-7.9C100,487.5,100,487.3,100,487.1z"/>
<path d="M135,485.8v9.8h-2.3V486c0-3.5-1.9-5.4-5.1-5.4c-3.6,0-5.9,2.2-5.9,6.1v8.8h-2.3v-23.7h2.3v9.9c1.4-2.1,3.8-3.2,6.3-3.1
	C132.1,478.6,135,480.9,135,485.8z"/>
<path d="M165,485.8v9.8h-2.3V486c0-3.5-1.9-5.4-5.1-5.4c-3.6,0-5.9,2.2-5.9,6.1v8.8h-2.3v-23.7h2.3v9.9c1.4-2.1,3.8-3.2,6.3-3.1
	C162.2,478.6,165,480.9,165,485.8z"/>
<path d="M186.7,487.1c0,4.7-3.8,8.6-8.6,8.6s-8.6-3.8-8.6-8.5c0-4.7,3.8-8.6,8.6-8.6c0,0,0,0,0,0c1.7,0,2.4,0.2,4,0.2
	c1.8,0,2.6-1,2.6-2.2c0-0.7-0.2-1.4-0.6-2l1.5-0.6c0.5,0.8,0.8,1.7,0.9,2.7c0,1.8-1.3,3.4-3.1,3.6
	C185.5,481.9,186.7,484.4,186.7,487.1z M184.4,487.1c0-3.9-2.7-6.6-6.2-6.6s-6.3,2.6-6.3,6.6s2.7,6.5,6.3,6.5S184.4,491,184.4,487.1
	z M179.5,500.2c0,0.8-0.6,1.4-1.4,1.4c-0.8,0-1.4-0.6-1.4-1.4c0-0.8,0.6-1.4,1.4-1.4c0,0,0,0,0,0
	C178.9,498.8,179.5,499.4,179.5,500.2C179.5,500.2,179.5,500.2,179.5,500.2L179.5,500.2z"/>
<path d="M208.4,487.1c0.2,4.5-3.2,8.3-7.7,8.6c-0.2,0-0.4,0-0.7,0c-2.6,0.1-5-1.2-6.4-3.3v9.4h-2.3v-23h2.2v3.3
	c1.4-2.2,3.9-3.6,6.5-3.5c4.5-0.1,8.3,3.4,8.4,7.9C208.4,486.7,208.4,486.9,208.4,487.1z M206.1,487.1c0.1-3.5-2.6-6.4-6-6.5
	c-3.5-0.1-6.4,2.6-6.5,6c0,0.2,0,0.3,0,0.5c0,3.9,2.7,6.5,6.3,6.5c3.4,0.1,6.2-2.7,6.3-6.1C206.1,487.4,206.1,487.3,206.1,487.1z"/>
<path d="M238.4,487.1c0.2,4.5-3.2,8.3-7.7,8.6c-0.2,0-0.4,0-0.7,0c-2.6,0.1-5-1.2-6.4-3.3v9.4h-2.3v-23h2.2v3.3
	c1.4-2.2,3.9-3.6,6.5-3.5c4.5-0.1,8.3,3.4,8.4,7.9C238.5,486.7,238.5,486.9,238.4,487.1z M236.2,487.1c0.1-3.5-2.6-6.4-6-6.5
	c-3.5-0.1-6.4,2.6-6.5,6c0,0.2,0,0.3,0,0.5c0,3.9,2.7,6.5,6.3,6.5c3.4,0.1,6.2-2.7,6.3-6.1C236.2,487.4,236.2,487.3,236.2,487.1z"/>
<path d="M258.6,485.8v9.8h-2.3V486c0-3.5-1.9-5.4-5.1-5.4c-3.6,0-5.9,2.2-5.9,6.1v8.8h-2.3v-23.7h2.3v9.9c1.4-2.1,3.8-3.2,6.3-3.1
	C255.8,478.6,258.6,480.9,258.6,485.8z"/>
<path d="M277.5,485.1v10.4h-2.2v-2.6c-1,1.7-3,2.8-5.8,2.8c-3.8,0-6.1-2-6.1-4.9c0-2.6,1.7-4.8,6.5-4.8h5.3v-1
	c0-2.9-1.6-4.4-4.8-4.4c-2,0-4,0.7-5.6,2l-1-1.7c2-1.5,4.4-2.3,6.9-2.3C275,478.6,277.5,480.8,277.5,485.1z M267.6,476.1h-2.2l4.2-3
	h2.2l4.2,3h-2.2l-3.1-1.9L267.6,476.1z M275.2,490.5v-2.8h-5.3c-3.3,0-4.3,1.3-4.3,3c0,2,1.6,3.2,4.3,3.2
	C272.2,494,274.3,492.6,275.2,490.5L275.2,490.5z M275.5,473.4l-4.6-3.5h2.8l3.8,3.5H275.5z"/>
<path d="M299.1,485.8v9.8h-2.3V486c0-3.5-1.9-5.4-5.1-5.4c-3.6,0-5.9,2.2-5.9,6.1v8.8h-2.3v-16.8h2.2v3.1c1.4-2.2,3.8-3.4,6.4-3.2
	C296.3,478.6,299.1,480.9,299.1,485.8z"/>
<path d="M330.7,487.1c0.2,4.5-3.3,8.3-7.8,8.6c-0.2,0-0.4,0-0.6,0c-2.6,0.1-5.1-1.2-6.5-3.5v3.3h-2.2v-23.7h2.3v10.1
	c1.4-2.2,3.8-3.4,6.4-3.3c4.5-0.1,8.2,3.4,8.4,7.9C330.7,486.7,330.7,486.9,330.7,487.1z M328.5,487.1c0.2-3.4-2.4-6.3-5.8-6.5
	c-0.2,0-0.3,0-0.5,0c-3.6,0-6.3,2.6-6.3,6.6s2.7,6.5,6.3,6.5c3.4,0.1,6.2-2.7,6.3-6.1C328.5,487.4,328.5,487.3,328.5,487.1z"/>
<path d="M348,485.1v10.4h-2.2v-2.6c-1,1.7-3,2.8-5.8,2.8c-3.8,0-6.1-2-6.1-4.9c0-2.6,1.7-4.8,6.5-4.8h5.3v-1c0-2.9-1.6-4.4-4.8-4.4
	c-2,0-4,0.7-5.6,2l-1-1.7c2-1.5,4.4-2.3,6.9-2.3C345.5,478.6,348,480.8,348,485.1z M345.7,490.5v-2.8h-5.3c-3.3,0-4.3,1.3-4.3,3
	c0,2,1.6,3.2,4.3,3.2C342.7,494,344.9,492.6,345.7,490.5L345.7,490.5z M336.4,473.1h1.6c0.2,1.1,1.5,1.8,3.3,1.8s3.1-0.7,3.3-1.8
	h1.6c-0.2,2-2.2,3.2-4.9,3.2S336.6,475.1,336.4,473.1L336.4,473.1z M341.3,472.5h-2l3.9-3.5h2.8L341.3,472.5z"/>
<path d="M363,494.5c-1,0.8-2.3,1.2-3.5,1.2c-3.2,0-4.9-1.8-4.9-4.9v-10.2h-3v-1.9h3V475h2.3v3.7h5.1v1.9h-5.1v10c0,2,1,3.1,2.9,3.1
	c0.9,0,1.8-0.3,2.5-0.9L363,494.5z"/>
<path d="M373.2,493.6l1-1.8c1.8,1.2,3.9,1.9,6,1.9c3.2,0,4.5-1.1,4.5-2.8c0-4.4-10.9-0.9-10.9-7.6c0-2.8,2.4-4.8,6.6-4.8
	c2.1,0,4.1,0.5,6,1.6l-1,1.8c-1.5-1-3.2-1.5-5-1.4c-3,0-4.4,1.2-4.4,2.8c0,4.5,10.9,1.1,10.9,7.6c0,2.9-2.6,4.8-6.9,4.8
	C377.6,495.7,375.2,495,373.2,493.6z"/>
<path d="M403.9,485.1v10.4h-2.2v-2.6c-1,1.7-3,2.8-5.8,2.8c-3.8,0-6.1-2-6.1-4.9c0-2.6,1.7-4.8,6.5-4.8h5.3v-1
	c0-2.9-1.6-4.4-4.8-4.4c-2,0-4,0.7-5.6,2l-1-1.7c2-1.5,4.4-2.3,6.9-2.3C401.4,478.6,403.9,480.8,403.9,485.1z M401.6,490.5v-2.8
	h-5.3c-3.3,0-4.3,1.3-4.3,3c0,2,1.6,3.2,4.2,3.2C398.6,494,400.8,492.6,401.6,490.5z M397.3,476.1H395l4.4-4h3L397.3,476.1z"/>
<path d="M425.5,485.8v9.8h-2.3V486c0-3.5-1.9-5.4-5.1-5.4c-3.6,0-5.9,2.2-5.9,6.1v8.8h-2.3v-16.8h2.2v3.1c1.4-2.2,3.8-3.4,6.4-3.2
	C422.7,478.6,425.5,480.9,425.5,485.8z"/>
<path d="M447.4,478.7v14.8c0,5.8-2.8,8.4-8.4,8.4c-3.1,0-6.1-0.9-7.8-2.6l1.1-1.7c1.9,1.5,4.2,2.4,6.6,2.3c4.3,0,6.2-2,6.2-6.1v-2.1
	c-1.5,2.1-4,3.4-6.6,3.3c-4.8,0-8.5-3.4-8.5-8.2s3.6-8.1,8.5-8.1c2.7-0.1,5.2,1.2,6.7,3.4v-3.2H447.4z M445.2,486.7
	c0-3.6-2.7-6.1-6.4-6.1s-6.4,2.5-6.4,6.1c0.1,3.5,3.1,6.3,6.6,6.1C442.4,492.7,445,490,445.2,486.7z"/>
<path d="M462.3,486.8c0-5.9,1.3-11.2,3.7-15h2.2c-4.9,9.4-4.9,20.6,0,30H466C463.4,497.2,462.1,492,462.3,486.8z"/>
<path d="M488.1,485.8v9.8h-2.3V486c0-3.5-1.9-5.4-5.1-5.4c-3.6,0-5.9,2.2-5.9,6.1v8.8h-2.3v-23.7h2.3v9.9c1.4-2.1,3.8-3.2,6.3-3.1
	C485.3,478.6,488.1,480.9,488.1,485.8z"/>
<path d="M493.8,473.4c0-0.9,0.8-1.6,1.7-1.6c0,0,0,0,0,0c0.9,0,1.6,0.7,1.7,1.6c0,0,0,0,0,0c0,0.9-0.7,1.7-1.7,1.7
	S493.8,474.3,493.8,473.4L493.8,473.4z M494.3,478.7h2.3v16.8h-2.3V478.7z"/>
<path d="M518.5,478.7v14.8c0,5.8-2.8,8.4-8.4,8.4c-3.1,0-6.1-0.9-7.8-2.6l1.2-1.7c1.9,1.5,4.2,2.4,6.6,2.3c4.3,0,6.2-2,6.2-6.1v-2.1
	c-1.5,2.1-4,3.4-6.6,3.3c-4.8,0-8.5-3.4-8.5-8.2s3.6-8.1,8.5-8.1c2.7-0.1,5.2,1.2,6.7,3.4v-3.2H518.5z M516.3,486.7
	c0-3.6-2.7-6.1-6.4-6.1s-6.4,2.5-6.4,6.1c0.1,3.5,3.1,6.3,6.6,6.1C513.5,492.7,516.2,490,516.3,486.7z"/>
<path d="M540.3,485.8v9.8h-2.3V486c0-3.5-1.8-5.4-5-5.4c-3.6,0-5.9,2.2-5.9,6.1v8.8h-2.3v-23.7h2.3v9.9c1.4-2.1,3.8-3.2,6.3-3.1
	C537.5,478.6,540.3,480.9,540.3,485.8z"/>
<path d="M546.5,471.8h2.3v23.7h-2.3V471.8z"/>
<path d="M554.6,473.4c0-0.9,0.8-1.6,1.7-1.6c0,0,0,0,0,0c0.9,0,1.6,0.7,1.7,1.6c0,0,0,0,0,0c0,0.9-0.7,1.7-1.7,1.7
	C555.4,475,554.6,474.3,554.6,473.4L554.6,473.4z M555.1,478.7h2.3v16.8h-2.3V478.7z"/>
<path d="M579.3,478.7v14.8c0,5.8-2.8,8.4-8.4,8.4c-3.1,0-6.1-0.9-7.8-2.6l1.2-1.7c1.9,1.5,4.2,2.4,6.6,2.3c4.3,0,6.2-2,6.2-6.1v-2.1
	c-1.5,2.1-4,3.4-6.6,3.3c-4.8,0-8.5-3.4-8.5-8.2s3.7-8.1,8.5-8.1c2.7-0.1,5.2,1.2,6.7,3.4v-3.2H579.3z M577.1,486.7
	c0-3.6-2.7-6.1-6.4-6.1s-6.4,2.5-6.4,6.1c0.1,3.5,3.1,6.3,6.6,6.1C574.3,492.7,577,490,577.1,486.7z"/>
<path d="M601.2,485.8v9.8h-2.3V486c0-3.5-1.8-5.4-5-5.4c-3.6,0-5.9,2.2-5.9,6.1v8.8h-2.3v-23.7h2.3v9.9c1.4-2.1,3.8-3.2,6.3-3.1
	C598.4,478.6,601.2,480.9,601.2,485.8z"/>
<path d="M616.2,494.5c-1,0.8-2.3,1.2-3.6,1.2c-3.2,0-4.9-1.8-4.9-4.9v-10.2h-3v-1.9h3V475h2.2v3.7h5.1v1.9H610v10c0,2,1,3.1,2.9,3.1
	c0.9,0,1.8-0.3,2.5-0.9L616.2,494.5z"/>
<path d="M618.5,501.7c4.9-9.4,4.9-20.6,0-30h2.2c2.4,3.8,3.8,9.1,3.8,15c0.2,5.2-1.1,10.4-3.8,15L618.5,501.7z"/>
<path d="M648.1,494.5c-1,0.8-2.3,1.2-3.5,1.2c-3.2,0-4.9-1.8-4.9-4.9v-10.2h-3v-1.9h3V475h2.3v3.7h5.1v1.9h-5.1v10
	c0,2,1,3.1,2.9,3.1c0.9,0,1.8-0.3,2.5-0.9L648.1,494.5z"/>
<path d="M665,485.1v10.4h-2.2v-2.6c-1,1.7-3,2.8-5.8,2.8c-3.8,0-6.1-2-6.1-4.9c0-2.6,1.7-4.8,6.5-4.8h5.3v-1c0-2.9-1.6-4.4-4.8-4.4
	c-2,0-4,0.7-5.6,2l-1-1.7c1.9-1.5,4.4-2.3,6.8-2.3C662.5,478.6,665,480.8,665,485.1z M662.7,490.5v-2.8h-5.3c-3.3,0-4.3,1.3-4.3,3
	c0,2,1.6,3.2,4.2,3.2C659.7,494,661.8,492.6,662.7,490.5L662.7,490.5z M659.7,500.2c0.1,0.8-0.5,1.4-1.3,1.5s-1.4-0.5-1.5-1.3
	c0-0.1,0-0.2,0-0.2c0.1-0.8,0.7-1.3,1.5-1.3C659.1,499,659.7,499.6,659.7,500.2z"/>
<path d="M669.5,487.1c0-4.7,3.8-8.6,8.6-8.5c4.7,0,8.6,3.8,8.5,8.6c0,4.7-3.8,8.5-8.5,8.5c-4.6,0.2-8.4-3.4-8.6-8
	C669.5,487.5,669.5,487.3,669.5,487.1z M684.3,487.1c0-3.9-2.7-6.6-6.2-6.6s-6.3,2.6-6.3,6.6s2.7,6.5,6.3,6.5S684.3,491,684.3,487.1
	z"/>
<path d="M718.2,476.1H715v19.4h-2.2v-3.3c-1.4,2.3-3.9,3.6-6.5,3.5c-4.7,0-8.6-3.8-8.6-8.6c0-4.7,3.8-8.5,8.6-8.6
	c2.6-0.1,5,1.2,6.4,3.3v-5.8h-7v-1.7h7v-2.6h2.3v2.6h3.2L718.2,476.1z M712.8,487.1c0-3.9-2.7-6.6-6.2-6.6s-6.3,2.6-6.3,6.6
	s2.7,6.5,6.3,6.5S712.8,491,712.8,487.1L712.8,487.1z"/>
<path d="M736.8,487.1c0,4.7-3.8,8.6-8.5,8.6s-8.6-3.8-8.6-8.5c0-4.7,3.8-8.6,8.5-8.6c0,0,0,0,0,0c4.6-0.2,8.4,3.4,8.5,8
	C736.8,486.8,736.8,486.9,736.8,487.1z M734.5,487.1c0-3.9-2.7-6.6-6.2-6.6s-6.3,2.6-6.3,6.6s2.7,6.5,6.3,6.5S734.5,491,734.5,487.1
	z M725,476.1h-2.1l4.1-4h2.3l4.1,4h-2.1l-3.2-2.7L725,476.1z M729.6,500.2c0.1,0.8-0.5,1.4-1.3,1.5s-1.4-0.5-1.5-1.3
	c0-0.1,0-0.2,0-0.2c0.1-0.8,0.7-1.3,1.5-1.3C729,499,729.5,499.6,729.6,500.2z"/>
<path d="M747.5,493.6l1-1.8c1.8,1.2,3.9,1.9,6,1.9c3.2,0,4.5-1.1,4.5-2.8c0-4.4-10.9-0.9-10.9-7.6c0-2.8,2.4-4.8,6.7-4.8
	c2.1,0,4.1,0.5,6,1.6l-1,1.8c-1.5-1-3.2-1.5-5-1.4c-3,0-4.4,1.2-4.4,2.8c0,4.5,10.9,1.1,10.9,7.6c0,2.9-2.6,4.8-7,4.8
	C751.8,495.7,749.4,495,747.5,493.6z"/>
<path d="M778.1,485.1v10.4H776v-2.6c-1,1.7-3,2.8-5.8,2.8c-3.8,0-6.2-2-6.2-4.9c0-2.6,1.7-4.8,6.5-4.8h5.3v-1c0-2.9-1.6-4.4-4.8-4.4
	c-2,0-4,0.7-5.6,2l-1-1.7c2-1.5,4.4-2.3,6.8-2.3C775.7,478.6,778.1,480.8,778.1,485.1z M775.9,490.5v-2.8h-5.3c-3.3,0-4.3,1.3-4.3,3
	c0,2,1.6,3.2,4.3,3.2C772.9,494,775,492.6,775.9,490.5z M771.5,476.1h-2.2l4.4-4h3L771.5,476.1z"/>
<path d="M799.8,485.8v9.8h-2.3V486c0-3.5-1.8-5.4-5-5.4c-3.6,0-5.9,2.2-5.9,6.1v8.8h-2.3v-16.8h2.2v3.1c1.4-2.2,3.8-3.4,6.4-3.2
	C797,478.6,799.8,480.9,799.8,485.8z"/>
<path d="M821.6,478.7v14.8c0,5.8-2.8,8.4-8.4,8.4c-3.1,0-6.1-0.9-7.8-2.6l1.2-1.7c1.9,1.5,4.2,2.4,6.6,2.3c4.3,0,6.2-2,6.2-6.1v-2.1
	c-1.5,2.1-4,3.4-6.6,3.3c-4.8,0-8.5-3.4-8.5-8.2s3.7-8.1,8.5-8.1c2.7-0.1,5.2,1.2,6.7,3.4v-3.2H821.6z M819.4,486.7
	c0-3.6-2.7-6.1-6.4-6.1c-3.4,0.1-6,3-5.9,6.4c0.1,3.4,3,6,6.4,5.9C816.8,492.7,819.4,490,819.4,486.7z"/>
<path d="M850.5,478.7l-7.5,16.8h-2.3l-7.5-16.8h2.4l6.3,14.3l6.4-14.3L850.5,478.7z"/>
<path d="M865.9,485.1v10.4h-2.2v-2.6c-1,1.7-3,2.8-5.8,2.8c-3.8,0-6.1-2-6.1-4.9c0-2.6,1.7-4.8,6.5-4.8h5.3v-1
	c0-2.9-1.6-4.4-4.8-4.4c-2,0-4,0.7-5.6,2l-1-1.7c2-1.5,4.4-2.3,6.8-2.3C863.5,478.6,865.9,480.8,865.9,485.1z M859,476.1l-5.2-4h3
	l4.4,4H859z M863.7,490.5v-2.8h-5.3c-3.3,0-4.3,1.3-4.3,3c0,2,1.6,3.2,4.2,3.2C860.6,494,862.8,492.6,863.7,490.5L863.7,490.5z"/>
<path d="M52.9,533.1c-0.1-4.6,3.4-8.4,8-8.6c0.2,0,0.4,0,0.7,0c2.6-0.2,5.1,1.1,6.6,3.3l-1.7,1.1c-1.1-1.6-2.9-2.5-4.9-2.5
	c-3.6,0.1-6.4,3.2-6.3,6.8c0.1,3.4,2.9,6.2,6.3,6.3c1.9,0.1,3.8-0.9,4.9-2.5l1.7,1.2c-1.5,2.2-4,3.5-6.6,3.3
	c-4.6,0.2-8.5-3.3-8.7-7.9C52.9,533.5,52.9,533.3,52.9,533.1z"/>
<path d="M85.3,531.1v10.4h-2.2v-2.6c-1,1.7-3,2.8-5.8,2.8c-3.8,0-6.1-2-6.1-4.9c0-2.6,1.7-4.8,6.5-4.8H83v-1c0-2.9-1.6-4.4-4.8-4.4
	c-2,0-4,0.7-5.6,2l-1-1.7c1.9-1.5,4.4-2.3,6.8-2.3C82.8,524.6,85.3,526.8,85.3,531.1z M83,536.5v-2.8h-5.3c-3.3,0-4.3,1.3-4.3,3
	c0,2,1.6,3.2,4.2,3.2C80,540,82.1,538.6,83,536.5z M73.7,518.1h1.6c0.1,1.7,1.5,2.7,3.3,2.7s3.2-1,3.3-2.7h1.6
	c-0.1,2.6-2.2,4.1-4.9,4.1S73.8,520.7,73.7,518.1L73.7,518.1z"/>
<path d="M107,531.8v9.8h-2.3V532c0-3.5-1.9-5.4-5.1-5.4c-3.6,0-5.9,2.2-5.9,6.1v8.8h-2.3v-16.8h2.2v3.1c1.4-2.2,3.8-3.4,6.4-3.2
	C104.1,524.6,107,526.9,107,531.8z"/>
<path d="M128.8,524.7v14.8c0,5.8-2.8,8.4-8.4,8.4c-3.1,0-6.1-0.9-7.8-2.6l1.2-1.7c1.9,1.5,4.2,2.4,6.6,2.3c4.2,0,6.2-2,6.2-6.1v-2.1
	c-1.5,2.1-4,3.4-6.6,3.3c-4.8,0-8.4-3.4-8.4-8.2s3.6-8.1,8.4-8.1c2.7-0.1,5.2,1.2,6.7,3.4v-3.2H128.8z M126.6,532.7
	c0-3.6-2.7-6.1-6.4-6.1s-6.4,2.5-6.4,6.1c0.1,3.5,3.1,6.3,6.6,6.1C123.8,538.7,126.4,536,126.6,532.7z"/>
<path d="M160.6,533.1c0.2,4.5-3.3,8.3-7.8,8.6c-0.2,0-0.4,0-0.6,0c-2.6,0.1-5.1-1.2-6.5-3.5v3.3h-2.2v-23.7h2.3v10.1
	c1.4-2.2,3.8-3.4,6.4-3.3c4.5-0.1,8.2,3.4,8.4,7.9C160.6,532.7,160.6,532.9,160.6,533.1z M158.3,533.1c0.2-3.4-2.4-6.3-5.8-6.5
	c-0.2,0-0.3,0-0.5,0c-3.6,0-6.3,2.6-6.3,6.6s2.7,6.5,6.3,6.5c3.4,0.1,6.2-2.7,6.3-6.1C158.3,533.4,158.3,533.3,158.3,533.1z"/>
<path d="M163.5,533.1c0-4.7,3.8-8.6,8.6-8.5s8.6,3.8,8.5,8.6c0,4.7-3.8,8.5-8.5,8.5c-4.6,0.2-8.4-3.4-8.6-8
	C163.5,533.5,163.5,533.3,163.5,533.1z M178.3,533.1c0-3.9-2.6-6.6-6.2-6.6s-6.3,2.6-6.3,6.6s2.7,6.5,6.3,6.5S178.3,537,178.3,533.1
	z M174.3,518.1h3l-5.2,4H170L174.3,518.1z"/>
<path d="M200.8,531.8v9.8h-2.3V532c0-3.5-1.9-5.4-5.1-5.4c-3.6,0-5.9,2.2-5.9,6.1v8.8h-2.3v-16.8h2.2v3.1c1.4-2.2,3.8-3.4,6.4-3.2
	C198,524.6,200.8,526.9,200.8,531.8z"/>
<path d="M222.6,524.7v14.8c0,5.8-2.9,8.4-8.4,8.4c-3.1,0-6.1-0.9-7.8-2.6l1.2-1.7c1.9,1.5,4.2,2.4,6.6,2.3c4.2,0,6.2-2,6.2-6.1v-2.1
	c-1.5,2.1-4,3.4-6.6,3.3c-4.8,0-8.4-3.4-8.4-8.2s3.6-8.1,8.4-8.1c2.7-0.1,5.2,1.2,6.6,3.4v-3.2H222.6z M220.4,532.7
	c0-3.6-2.7-6.1-6.4-6.1s-6.4,2.5-6.4,6.1c0.1,3.5,3.1,6.3,6.6,6.1C217.6,538.7,220.3,536,220.4,532.7L220.4,532.7z"/>
<path d="M227.5,539.9c0-0.9,0.7-1.7,1.6-1.7c0,0,0,0,0,0c0.9,0,1.7,0.8,1.7,1.7c0,0,0,0,0,0c0,1-0.8,1.7-1.7,1.8
	C228.2,541.7,227.5,540.9,227.5,539.9C227.5,539.9,227.5,539.9,227.5,539.9z"/>
<path d="M242.9,531.9h8.4v2h-8.4V531.9z"/>
<path d="M283.9,519.1v22.4h-2.3v-10.3h-14v10.3h-2.4v-22.4h2.4v10h14v-10H283.9z"/>
<path d="M303.5,531.1v10.4h-2.2v-2.6c-1,1.7-3,2.8-5.8,2.8c-3.8,0-6.1-2-6.1-4.9c0-2.6,1.7-4.8,6.5-4.8h5.3v-1
	c0-2.9-1.6-4.4-4.8-4.4c-2,0-4,0.7-5.6,2l-1-1.7c2-1.5,4.4-2.3,6.9-2.3C301,524.6,303.5,526.8,303.5,531.1z M301.2,536.5v-2.8h-5.3
	c-3.3,0-4.3,1.3-4.3,3c0,2,1.6,3.2,4.3,3.2C298.2,540,300.3,538.6,301.2,536.5z M298.2,546.2c0,0.8-0.6,1.4-1.4,1.4
	c-0.8,0-1.4-0.6-1.4-1.4c0-0.8,0.6-1.4,1.4-1.4c0,0,0,0,0,0C297.6,544.9,298.2,545.5,298.2,546.2
	C298.2,546.2,298.2,546.2,298.2,546.2L298.2,546.2z"/>
<path d="M318.5,540.5c-1,0.8-2.3,1.2-3.5,1.2c-3.2,0-4.9-1.8-4.9-4.9v-10.2h-3v-1.9h3V521h2.3v3.7h5.1v1.9h-5.1v10.1
	c0,2,1,3.1,2.9,3.1c0.9,0,1.8-0.3,2.5-0.9L318.5,540.5z"/>
<path d="M348.1,533.1c0.2,4.5-3.2,8.3-7.7,8.6c-0.2,0-0.4,0-0.7,0c-2.6,0.1-5-1.2-6.4-3.3v9.4H331v-23h2.2v3.3
	c1.4-2.2,3.9-3.6,6.5-3.5c4.5-0.1,8.3,3.4,8.4,7.9C348.1,532.7,348.1,532.9,348.1,533.1z M345.8,533.1c0.1-3.5-2.6-6.4-6-6.5
	c-3.5-0.1-6.4,2.6-6.5,6c0,0.2,0,0.3,0,0.5c0,3.9,2.7,6.5,6.3,6.5c3.4,0.1,6.2-2.7,6.3-6.1C345.8,533.4,345.8,533.3,345.8,533.1
	L345.8,533.1z"/>
<path d="M368.2,531.8v9.8h-2.3V532c0-3.5-1.9-5.4-5-5.4c-3.6,0-5.9,2.2-5.9,6.1v8.8h-2.3v-23.7h2.3v9.8c1.4-2.1,3.8-3.2,6.3-3.1
	C365.4,524.6,368.2,526.9,368.2,531.8z"/>
<path d="M387.1,531.1v10.4h-2.2v-2.6c-1,1.7-3,2.8-5.8,2.8c-3.8,0-6.1-2-6.1-4.9c0-2.6,1.7-4.8,6.5-4.8h5.3v-1
	c0-2.9-1.6-4.4-4.8-4.4c-2,0-4,0.7-5.6,2l-1-1.7c2-1.5,4.4-2.3,6.9-2.3C384.6,524.6,387.1,526.8,387.1,531.1z M377.2,522.1H375
	l4.2-3h2.2l4.2,3h-2.2l-3.1-1.9L377.2,522.1z M384.8,536.5v-2.8h-5.3c-3.3,0-4.3,1.3-4.3,3c0,2,1.6,3.2,4.3,3.2
	C381.8,540,383.9,538.6,384.8,536.5L384.8,536.5z M385.2,519.4h-2l3.9-3.5h2.8L385.2,519.4z"/>
<path d="M408.7,531.8v9.8h-2.3V532c0-3.5-1.9-5.4-5.1-5.4c-3.6,0-5.9,2.2-5.9,6.1v8.8h-2.3v-16.8h2.2v3.1c1.4-2.2,3.8-3.4,6.4-3.2
	C405.9,524.6,408.7,526.9,408.7,531.8z"/>
<path d="M451.1,531.8v9.8h-2.3V532c0-3.5-1.8-5.4-4.8-5.4c-3.5,0-5.6,2.2-5.6,6.1v8.8h-2.3V532c0-3.5-1.8-5.4-4.9-5.4
	c-3.4,0-5.6,2.2-5.6,6.1v8.8h-2.3v-16.8h2.2v3.1c1.3-2.1,3.7-3.3,6.2-3.2c2.8,0,5,1.2,6,3.5c1.4-2.3,4-3.7,6.7-3.5
	C448.4,524.6,451.1,526.9,451.1,531.8z"/>
<path d="M456.7,519.4c0-0.9,0.8-1.6,1.7-1.6c0.9,0,1.6,0.7,1.7,1.6c0,0,0,0,0,0c-0.1,0.9-0.9,1.6-1.8,1.5
	C457.5,520.8,456.8,520.2,456.7,519.4L456.7,519.4z M457,546.2c0-0.8,0.6-1.4,1.4-1.4c0.8,0,1.4,0.6,1.4,1.4c0,0.8-0.6,1.4-1.4,1.4
	c0,0,0,0,0,0c-0.7,0-1.4-0.5-1.4-1.3C457,546.3,457,546.3,457,546.2L457,546.2z M457.2,524.7h2.3v16.8h-2.3V524.7z"/>
<path d="M481.4,531.8v9.8h-2.3V532c0-3.5-1.9-5.4-5-5.4c-3.6,0-5.9,2.2-5.9,6.1v8.8h-2.3v-16.8h2.1v3.1c1.4-2.2,3.8-3.4,6.4-3.2
	C478.5,524.6,481.4,526.9,481.4,531.8z"/>
<path d="M504.8,540.5c-1,0.8-2.3,1.2-3.5,1.2c-3.2,0-4.9-1.8-4.9-4.9v-10.2h-3v-1.9h3V521h2.3v3.7h5.1v1.9h-5.1v10.1
	c0,2,1,3.1,2.9,3.1c0.9,0,1.8-0.3,2.5-0.9L504.8,540.5z"/>
<path d="M508.4,519.4c0-0.9,0.8-1.6,1.7-1.6c0,0,0,0,0,0c0.9,0,1.6,0.7,1.7,1.6c0,0,0,0,0,0c0,0.9-0.7,1.7-1.7,1.7
	S508.4,520.3,508.4,519.4L508.4,519.4z M508.9,524.7h2.3v16.8h-2.3L508.9,524.7z"/>
<path d="M532.2,533.8h-14.1c0.3,3.5,3,5.9,6.6,5.9c2,0.1,3.8-0.7,5.2-2.2l1.3,1.5c-1.6,1.8-4,2.8-6.5,2.8c-5.2,0-8.8-3.6-8.8-8.6
	s3.5-8.5,8.2-8.5s8.2,3.5,8.2,8.5C532.2,533.3,532.2,533.6,532.2,533.8z M518.1,532.1H530c-0.3-3.3-3.3-5.7-6.6-5.4
	C520.6,527,518.3,529.3,518.1,532.1L518.1,532.1z M520.9,522.1h-2.1l4.1-4h2.3l4.1,4h-2.1l-3.2-2.7L520.9,522.1z M525.4,546.2
	c0,0.8-0.6,1.4-1.4,1.4c-0.8,0-1.4-0.6-1.4-1.4c0-0.8,0.6-1.4,1.4-1.4c0,0,0,0,0,0C524.8,544.9,525.4,545.4,525.4,546.2
	C525.4,546.2,525.4,546.2,525.4,546.2L525.4,546.2z"/>
<path d="M553.9,533.1c0.2,4.5-3.2,8.3-7.7,8.6c-0.2,0-0.4,0-0.7,0c-2.6,0.1-5-1.2-6.4-3.3v9.4h-2.3v-23h2.2v3.3
	c1.4-2.2,3.9-3.6,6.5-3.5c4.5-0.1,8.3,3.4,8.4,7.9C553.9,532.7,553.9,532.9,553.9,533.1z M551.6,533.1c-0.1-3.5-3.1-6.2-6.5-6
	s-6.2,3.1-6,6.5c0.1,3.4,2.9,6,6.3,6c3.4,0,6.2-2.7,6.3-6.1C551.6,533.4,551.6,533.3,551.6,533.1z"/>
<path d="M594.7,531.8v9.8h-2.3V532c0-3.5-1.8-5.4-4.8-5.4c-3.5,0-5.6,2.2-5.6,6.1v8.8h-2.3V532c0-3.5-1.8-5.4-4.9-5.4
	c-3.4,0-5.6,2.2-5.6,6.1v8.8h-2.3v-16.8h2.2v3.1c1.3-2.1,3.7-3.3,6.2-3.2c2.8,0,5,1.2,6,3.5c1.4-2.3,3.9-3.7,6.7-3.5
	C592,524.6,594.7,526.9,594.7,531.8z"/>
<path d="M613.6,531.1v10.4h-2.2v-2.6c-1,1.7-3,2.8-5.8,2.8c-3.8,0-6.1-2-6.1-4.9c0-2.6,1.7-4.8,6.5-4.8h5.3v-1
	c0-2.9-1.6-4.4-4.8-4.4c-2,0-4,0.7-5.6,2l-1-1.7c1.9-1.5,4.4-2.3,6.8-2.3C611.1,524.6,613.6,526.8,613.6,531.1z M606.7,522.1l-5.2-4
	h3l4.4,4H606.7z M611.3,536.5v-2.8H606c-3.3,0-4.3,1.3-4.3,3c0,2,1.6,3.2,4.2,3.2C608.3,540,610.4,538.7,611.3,536.5L611.3,536.5z"
	/>
<path d="M634.9,524.7v16.8h-2.2v-3.1c-1.3,2.1-3.6,3.3-6,3.2c-4.3,0-7.1-2.4-7.1-7.2v-9.8h2.3v9.5c0,3.6,1.8,5.4,5,5.4
	c3.5,0,5.7-2.3,5.7-6.1v-8.8H634.9z"/>
<path d="M665,517.8v23.7h-2.2v-3.3c-1.4,2.3-3.9,3.6-6.5,3.5c-4.7,0-8.6-3.8-8.6-8.6c0-4.7,3.8-8.5,8.6-8.6c2.6-0.1,5,1.2,6.4,3.3
	v-10.1H665z M662.8,533.1c0-3.9-2.7-6.6-6.2-6.6s-6.3,2.6-6.3,6.6s2.7,6.5,6.3,6.5S662.8,537,662.8,533.1L662.8,533.1z"/>
<path d="M684.1,531.1v10.4h-2.2v-2.6c-1,1.7-3,2.8-5.8,2.8c-3.8,0-6.2-2-6.2-4.9c0-2.6,1.7-4.8,6.5-4.8h5.3v-1
	c0-2.9-1.6-4.4-4.8-4.4c-2,0-4,0.7-5.6,2l-1-1.7c2-1.5,4.4-2.3,6.8-2.3C681.6,524.6,684.1,526.8,684.1,531.1z M681.8,536.5v-2.8
	h-5.3c-3.3,0-4.3,1.3-4.3,3c0,2,1.6,3.2,4.3,3.2C678.8,540,680.9,538.6,681.8,536.5z"/>
<path d="M688.8,539.9c0-0.9,0.7-1.7,1.7-1.7c0,0,0,0,0,0c0.9,0,1.7,0.8,1.7,1.7c0,0,0,0,0,0c0,1-0.8,1.7-1.7,1.8
	C689.5,541.7,688.8,540.9,688.8,539.9C688.8,539.9,688.8,539.9,688.8,539.9z"/>
<path d="M53.3,577.9h8.4v2h-8.4V577.9z"/>
<path d="M92.7,581.6h-4.5v5.9h-2.3v-5.9H73.3V580l11.9-14.8h2.6l-11.5,14.4H86v-5.2h2.2v5.2h4.5L92.7,581.6z"/>
<path d="M113.6,586.5c-1,0.8-2.3,1.2-3.6,1.2c-3.2,0-4.9-1.8-4.9-4.9v-10.2h-3v-1.9h3V567h2.3v3.7h5.1v1.9h-5.1v10.1
	c0,2,1,3.1,2.9,3.1c0.9,0,1.8-0.3,2.5-0.9L113.6,586.5z"/>
<path d="M115.4,579.1c0-4.7,3.8-8.6,8.6-8.5c4.7,0,8.6,3.8,8.5,8.6c0,4.7-3.8,8.5-8.5,8.5c-4.6,0.2-8.4-3.4-8.6-8
	C115.4,579.5,115.4,579.3,115.4,579.1z M130.2,579.1c0-3.9-2.7-6.6-6.2-6.6s-6.3,2.6-6.3,6.6c-0.2,3.4,2.4,6.3,5.8,6.5
	c0.2,0,0.3,0,0.5,0C127.6,585.7,130.2,583,130.2,579.1z"/>
<path d="M152.6,577.8v9.8h-2.3V578c0-3.5-1.9-5.4-5.1-5.4c-3.6,0-5.9,2.2-5.9,6.1v8.8h-2.3v-16.8h2.2v3.1c1.4-2.2,3.8-3.4,6.4-3.2
	C149.8,570.6,152.6,572.9,152.6,577.8z"/>
<path d="M173.5,579.8h-14.1c0.3,3.5,2.9,5.9,6.6,5.9c2,0.1,3.8-0.7,5.1-2.2l1.3,1.5c-1.6,1.8-4,2.8-6.5,2.8c-5.2,0-8.8-3.6-8.8-8.6
	s3.5-8.5,8.2-8.5s8.1,3.5,8.1,8.5C173.6,579.3,173.5,579.6,173.5,579.8z M159.5,578.1h11.9c-0.3-3.3-3.3-5.7-6.6-5.4
	C162,573,159.7,575.3,159.5,578.1z"/>
<path d="M214.4,577.8v9.8h-2.3V578c0-3.5-1.8-5.4-4.8-5.4c-3.5,0-5.6,2.2-5.6,6.1v8.8h-2.3V578c0-3.5-1.8-5.4-4.9-5.4
	c-3.4,0-5.6,2.2-5.6,6.1v8.8h-2.3v-16.8h2.2v3.1c1.3-2.1,3.7-3.3,6.2-3.2c2.8,0,5,1.2,6,3.5c1.4-2.3,4-3.7,6.7-3.5
	C211.7,570.6,214.4,572.9,214.4,577.8z"/>
<path d="M233.2,577.1v10.4h-2.2v-2.6c-1,1.7-3,2.8-5.8,2.8c-3.8,0-6.1-2-6.1-4.9c0-2.6,1.7-4.8,6.5-4.8h5.4v-1
	c0-2.9-1.6-4.4-4.8-4.4c-2,0-4,0.7-5.6,2l-1-1.7c2-1.5,4.4-2.3,6.9-2.3C230.8,570.6,233.2,572.8,233.2,577.1z M226.3,568.1l-5.2-4h3
	l4.4,4H226.3z M231,582.5v-2.8h-5.3c-3.3,0-4.3,1.3-4.3,3c0,2,1.6,3.2,4.3,3.2C228,586,230.2,584.7,231,582.5z"/>
<path d="M254.6,570.7v16.8h-2.2v-3.1c-1.3,2.1-3.6,3.3-6,3.2c-4.3,0-7.1-2.4-7.1-7.2v-9.8h2.3v9.5c0,3.6,1.9,5.4,5.1,5.4
	c3.5,0,5.7-2.3,5.7-6.1v-8.8H254.6z"/>
<path d="M278.2,586.5c-1,0.8-2.3,1.2-3.5,1.2c-3.2,0-4.9-1.8-4.9-4.9v-10.2h-3v-1.9h3V567h2.3v3.7h5.1v1.9H272v10.1
	c0,2,1,3.1,2.9,3.1c0.9,0,1.8-0.3,2.5-0.9L278.2,586.5z"/>
<path d="M297.8,577.8v9.8h-2.3V578c0-3.5-1.9-5.4-5.1-5.4c-3.6,0-5.9,2.2-5.9,6.1v8.8h-2.3v-23.7h2.3v9.8c1.4-2.1,3.8-3.2,6.3-3.1
	C295,570.6,297.8,572.9,297.8,577.8z"/>
<path d="M319.5,579.1c0,4.7-3.8,8.6-8.6,8.6c-4.7,0-8.6-3.8-8.6-8.5c0-4.7,3.8-8.6,8.6-8.6c0,0,0,0,0,0c1.7,0,2.4,0.2,4,0.2
	c1.8,0,2.6-1,2.6-2.2c0-0.7-0.2-1.4-0.6-2l1.5-0.6c0.5,0.8,0.8,1.7,0.9,2.7c0,1.8-1.3,3.4-3.1,3.6
	C318.3,573.9,319.6,576.4,319.5,579.1z M317.2,579.1c0-3.9-2.7-6.6-6.2-6.6s-6.3,2.6-6.3,6.6s2.7,6.5,6.3,6.5S317.2,583,317.2,579.1
	z M310.8,568.1l-5.2-4h3l4.4,4H310.8z"/>
<path d="M323.6,565.4c0-0.9,0.8-1.6,1.7-1.6c0.9,0,1.6,0.7,1.7,1.6c0,0,0,0,0,0c0,0.9-0.7,1.6-1.6,1.7c0,0,0,0-0.1,0
	C324.4,567,323.6,566.3,323.6,565.4C323.6,565.4,323.6,565.4,323.6,565.4z M324.1,570.7h2.3v16.8h-2.3V570.7z"/>
<path d="M350,586.5c-1,0.8-2.3,1.2-3.5,1.2c-3.2,0-4.9-1.8-4.9-4.9v-10.2h-3v-1.9h3V567h2.3v3.7h5.1v1.9h-5.1v10.1
	c0,2,1,3.1,2.9,3.1c0.9,0,1.8-0.3,2.5-0.9L350,586.5z"/>
<path d="M369.6,577.8v9.8h-2.3V578c0-3.5-1.9-5.4-5-5.4c-3.6,0-5.9,2.2-5.9,6.1v8.8h-2.3v-23.7h2.3v9.8c1.4-2.1,3.8-3.2,6.3-3.1
	C366.8,570.6,369.6,572.9,369.6,577.8z"/>
<path d="M391,572.3v15.2h-2.2v-3.1c-1.3,2.1-3.6,3.3-6,3.2c-4.3,0-7.1-2.4-7.1-7.2v-9.8h2.3v9.5c0,3.6,1.9,5.4,5.1,5.4
	c3.5,0,5.7-2.3,5.7-6.1v-8.8h1.2c1.1,0.1,2-0.8,2.1-1.9c0-0.1,0-0.2,0-0.3c0-0.7-0.2-1.5-0.6-2l1.5-0.6c0.5,0.8,0.8,1.7,0.8,2.7
	C393.9,570.4,392.7,572,391,572.3z"/>
<path d="M412.3,579.1c0,4.7-3.8,8.6-8.6,8.6c-4.7,0-8.6-3.8-8.6-8.5c0-4.7,3.8-8.6,8.6-8.6c0,0,0,0,0,0c1.7,0,2.4,0.2,4,0.2
	c1.8,0,2.6-1,2.6-2.2c0-0.7-0.2-1.4-0.6-2l1.5-0.6c0.5,0.8,0.8,1.7,0.9,2.7c0,1.8-1.3,3.4-3.1,3.6
	C411.1,573.9,412.4,576.4,412.3,579.1z M410,579.1c0-3.9-2.7-6.6-6.2-6.6s-6.3,2.6-6.3,6.6s2.7,6.5,6.3,6.5S410,583,410,579.1
	L410,579.1z M405.1,592.2c0,0.8-0.6,1.4-1.4,1.4c-0.8,0-1.4-0.6-1.4-1.4c0-0.8,0.6-1.4,1.4-1.4c0,0,0,0,0,0
	C404.5,590.8,405.1,591.4,405.1,592.2C405.1,592.2,405.1,592.2,405.1,592.2L405.1,592.2z"/>
<path d="M432.4,577.8v9.8h-2.3V578c0-3.5-1.9-5.4-5.1-5.4c-3.6,0-5.9,2.2-5.9,6.1v8.8h-2.3v-16.8h2.2v3.1c1.4-2.2,3.8-3.4,6.4-3.2
	C429.6,570.6,432.4,572.9,432.4,577.8z"/>
<path d="M454.2,570.7v14.8c0,5.8-2.8,8.4-8.4,8.4c-3.1,0-6.1-0.9-7.8-2.6l1.1-1.7c1.9,1.5,4.2,2.4,6.6,2.3c4.3,0,6.2-2,6.2-6.1v-2.1
	c-1.5,2.1-4,3.4-6.6,3.3c-4.8,0-8.5-3.4-8.5-8.2s3.6-8.1,8.5-8.1c2.7-0.1,5.2,1.2,6.7,3.4v-3.2H454.2z M452,578.7
	c0-3.6-2.7-6.1-6.4-6.1s-6.4,2.5-6.4,6.1c0,3.5,2.9,6.4,6.4,6.4S452,582.2,452,578.7z"/>
<path d="M486,579.1c0.2,4.5-3.2,8.3-7.7,8.6c-0.2,0-0.4,0-0.7,0c-2.6,0.1-5-1.2-6.4-3.3v9.4H469v-23h2.2v3.3
	c1.4-2.2,3.9-3.6,6.5-3.5c4.5-0.1,8.2,3.4,8.4,7.9C486.1,578.7,486.1,578.9,486,579.1z M483.8,579.1c0.2-3.4-2.4-6.3-5.8-6.5
	c-0.2,0-0.3,0-0.5,0c-3.6,0-6.3,2.6-6.3,6.6s2.7,6.5,6.3,6.5c3.4,0.1,6.2-2.7,6.3-6.1C483.8,579.4,483.8,579.3,483.8,579.1z"/>
<path d="M506.2,577.8v9.8h-2.3V578c0-3.5-1.9-5.4-5.1-5.4c-3.6,0-5.9,2.2-5.9,6.1v8.8h-2.3v-23.7h2.3v9.8c1.4-2.1,3.8-3.2,6.3-3.1
	C503.4,570.6,506.2,572.9,506.2,577.8z"/>
<path d="M527.5,570.7v16.8h-2.2v-3.1c-1.3,2.1-3.6,3.3-6,3.2c-4.3,0-7.1-2.4-7.1-7.2v-9.8h2.3v9.5c0,3.6,1.8,5.4,5,5.4
	c3.5,0,5.7-2.3,5.7-6.1v-8.8H527.5z M519.7,568.1l-5.2-4h3l4.4,4H519.7z"/>
<path d="M557.8,577.8v9.8h-2.3V578c0-3.5-1.9-5.4-5.1-5.4c-3.6,0-5.9,2.2-5.9,6.1v8.8h-2.3v-23.7h2.3v9.8c1.4-2.1,3.8-3.2,6.3-3.1
	C555,570.6,557.8,572.9,557.8,577.8z"/>
<path d="M579.4,579.1c0,4.7-3.8,8.6-8.5,8.6c-4.7,0-8.6-3.8-8.6-8.5c0-4.7,3.8-8.6,8.5-8.6c0,0,0,0,0,0c1.7,0,2.4,0.2,4,0.2
	c1.8,0,2.6-1,2.6-2.2c0-0.7-0.2-1.4-0.6-2l1.5-0.6c0.5,0.8,0.8,1.7,0.9,2.7c0,1.8-1.3,3.4-3.1,3.6
	C578.3,573.9,579.5,576.4,579.4,579.1z M577.1,579.1c0-3.9-2.7-6.6-6.2-6.6s-6.3,2.6-6.3,6.6s2.7,6.5,6.3,6.5S577.1,583,577.1,579.1
	z M572.3,592.2c0.1,0.8-0.5,1.4-1.3,1.5s-1.4-0.5-1.5-1.3c0-0.1,0-0.2,0-0.2c0.1-0.8,0.7-1.3,1.5-1.3
	C571.7,591,572.2,591.6,572.3,592.2z"/>
<path d="M601.1,579.1c0.2,4.5-3.2,8.3-7.7,8.6c-0.2,0-0.4,0-0.7,0c-2.6,0.1-5-1.2-6.4-3.3v9.4h-2.3v-23h2.2v3.3
	c1.4-2.2,3.9-3.6,6.5-3.5c4.5-0.1,8.2,3.4,8.4,7.9C601.1,578.7,601.1,578.9,601.1,579.1z M598.8,579.1c0.2-3.4-2.4-6.3-5.8-6.5
	c-0.2,0-0.3,0-0.5,0c-3.6,0-6.3,2.6-6.3,6.6s2.7,6.5,6.3,6.5c3.4,0.1,6.2-2.7,6.3-6.1C598.9,579.4,598.9,579.3,598.8,579.1z"/>
<path d="M641.9,577.8v9.8h-2.3V578c0-3.5-1.8-5.4-4.8-5.4c-3.5,0-5.6,2.2-5.6,6.1v8.8h-2.3V578c0-3.5-1.8-5.4-4.9-5.4
	c-3.4,0-5.6,2.2-5.6,6.1v8.8h-2.3v-16.8h2.2v3.1c1.3-2.1,3.7-3.3,6.2-3.2c2.8,0,5,1.2,6,3.5c1.4-2.3,4-3.7,6.7-3.5
	C639.2,570.6,641.9,572.9,641.9,577.8z"/>
<path d="M646.5,579.1c0-4.7,3.8-8.6,8.6-8.5s8.6,3.8,8.5,8.6c0,4.7-3.8,8.5-8.5,8.5c-4.6,0.2-8.4-3.4-8.6-8
	C646.5,579.5,646.5,579.3,646.5,579.1z M661.3,579.1c0-3.9-2.7-6.6-6.2-6.6s-6.3,2.6-6.3,6.6s2.7,6.5,6.3,6.5S661.3,583,661.3,579.1
	L661.3,579.1z M653.6,592.2c0-0.8,0.6-1.4,1.4-1.4s1.4,0.6,1.4,1.4s-0.6,1.4-1.4,1.4C654.3,593.6,653.7,593.1,653.6,592.2
	C653.6,592.3,653.6,592.3,653.6,592.2L653.6,592.2z"/>
<path d="M667.7,565.4c0-0.9,0.8-1.6,1.7-1.6c0.9,0,1.6,0.7,1.7,1.6c0,0,0,0,0,0c0,0.9-0.7,1.6-1.6,1.7c0,0,0,0-0.1,0
	C668.5,567,667.7,566.3,667.7,565.4C667.7,565.4,667.7,565.4,667.7,565.4z M668.2,570.7h2.3v16.8h-2.3V570.7z"/>
<path d="M682.9,585.6l1-1.8c1.8,1.2,3.9,1.9,6,1.9c3.2,0,4.5-1.1,4.5-2.8c0-4.4-10.9-0.9-10.9-7.6c0-2.8,2.4-4.8,6.7-4.8
	c2.1,0,4.2,0.5,6,1.6l-1,1.8c-1.5-1-3.2-1.5-5-1.4c-3,0-4.4,1.2-4.4,2.8c0,4.5,10.9,1.1,10.9,7.6c0,2.9-2.6,4.8-6.9,4.8
	C687.3,587.8,684.9,587,682.9,585.6z"/>
<path d="M713.6,577.1v10.4h-2.2v-2.6c-1,1.7-3,2.8-5.8,2.8c-3.8,0-6.1-2-6.1-4.9c0-2.6,1.7-4.8,6.5-4.8h5.3v-1
	c0-2.9-1.6-4.4-4.8-4.4c-2,0-4,0.7-5.6,2l-1-1.7c2-1.5,4.4-2.3,6.8-2.3C711.1,570.6,713.6,572.8,713.6,577.1z M711.3,582.5v-2.8H706
	c-3.3,0-4.3,1.3-4.3,3c0,2,1.6,3.2,4.2,3.2C708.3,586,710.4,584.7,711.3,582.5z M702,565.1h1.6c0.2,1.2,1.5,1.8,3.3,1.8
	s3.1-0.7,3.3-1.8h1.6c-0.3,2-2.2,3.2-4.9,3.2S702.2,567.1,702,565.1z M706.9,564.5h-2l3.9-3.5h2.8L706.9,564.5z"/>
<path d="M718.1,579.1c-0.1-4.6,3.4-8.4,8-8.6c0.2,0,0.4,0,0.7,0c2.6-0.2,5.2,1.1,6.6,3.3l-1.7,1.1c-1.1-1.6-2.9-2.5-4.9-2.5
	c-3.6,0.1-6.4,3.2-6.3,6.8c0.1,3.4,2.9,6.2,6.3,6.3c1.9,0.1,3.8-0.9,4.9-2.5l1.7,1.2c-1.5,2.2-4,3.5-6.6,3.3
	c-4.6,0.2-8.5-3.4-8.7-7.9C718.1,579.5,718.1,579.3,718.1,579.1z"/>
<path d="M761.6,563.8v23.7h-2.2v-3.3c-1.4,2.2-3.9,3.6-6.5,3.5c-4.7,0-8.6-3.8-8.6-8.6c0-4.7,3.8-8.5,8.6-8.6c2.6-0.1,5,1.2,6.4,3.3
	v-10.1H761.6z M759.3,579.1c0-3.9-2.7-6.6-6.2-6.6s-6.3,2.6-6.3,6.6s2.7,6.5,6.3,6.5S759.3,583,759.3,579.1z"/>
<path d="M780.6,577.1v10.4h-2.2v-2.6c-1,1.7-3,2.8-5.8,2.8c-3.8,0-6.1-2-6.1-4.9c0-2.6,1.7-4.8,6.5-4.8h5.3v-1
	c0-2.9-1.6-4.4-4.8-4.4c-2,0-4,0.7-5.6,2l-1-1.7c2-1.5,4.4-2.3,6.8-2.3C778.1,570.6,780.6,572.8,780.6,577.1z M778.3,582.5v-2.8
	h-5.3c-3.3,0-4.3,1.3-4.3,3c0,2,1.6,3.2,4.2,3.2C775.3,586,777.5,584.6,778.3,582.5L778.3,582.5z"/>
<path d="M785.3,585.9c0-0.9,0.7-1.7,1.7-1.7c0,0,0,0,0,0c0.9,0,1.7,0.8,1.7,1.7c0,0,0,0,0,0c0,1-0.8,1.7-1.7,1.8
	C786.1,587.7,785.3,586.9,785.3,585.9C785.3,585.9,785.3,585.9,785.3,585.9z"/>
<g id="XMLID_26_">
	<rect x="56.4" y="33.9" class="st0" width="428.3" height="126.5"/>
</g>
<g>
	<path class="st1" d="M119.2,119.3V82.8l-9.3,7.2l-6.1-8.4l16.3-12h10.7v49.7H119.2z"/>
	<path class="st1" d="M185.9,105.1c0,2.6-0.5,4.9-1.5,6.8c-1,1.9-2.4,3.6-4.1,4.8c-1.7,1.3-3.7,2.2-6,2.9c-2.3,0.6-4.6,0.9-7,0.9
		c-2.5,0-4.8-0.3-7.1-0.9c-2.2-0.6-4.2-1.6-5.9-2.8c-1.7-1.3-3.1-2.9-4.1-4.8c-1-1.9-1.5-4.2-1.5-6.8c0-1.5,0.2-2.9,0.7-4.2
		c0.5-1.3,1.1-2.4,1.9-3.4c0.8-1,1.8-1.9,2.8-2.6c1.1-0.7,2.2-1.3,3.4-1.6v-0.1c-2.2-0.8-4-2.1-5.4-3.9c-1.5-1.8-2.2-4.1-2.2-6.8
		c0-2.3,0.5-4.3,1.4-6.1c0.9-1.8,2.2-3.3,3.8-4.5c1.6-1.2,3.4-2.1,5.5-2.7c2.1-0.6,4.3-0.9,6.6-0.9c2.3,0,4.5,0.3,6.6,0.9
		c2.1,0.6,3.9,1.5,5.5,2.6c1.6,1.2,2.9,2.6,3.8,4.4c1,1.8,1.4,3.8,1.4,6.1c0,2.8-0.7,5.1-2.1,6.9c-1.4,1.9-3.2,3.2-5.5,3.9v0.2
		c1.3,0.4,2.4,0.9,3.5,1.6c1.1,0.7,2,1.6,2.8,2.6c0.8,1,1.4,2.2,1.9,3.4C185.7,102.3,185.9,103.7,185.9,105.1z M174.2,104.7
		c0-1.9-0.6-3.5-1.9-4.8c-1.3-1.3-2.9-1.9-4.9-1.9c-2.1,0-3.7,0.6-5,1.9c-1.3,1.3-1.9,2.9-1.9,4.8c0,2,0.6,3.6,1.9,4.8
		c1.3,1.2,3,1.8,5,1.8c2.1,0,3.7-0.6,5-1.8C173.6,108.3,174.2,106.7,174.2,104.7z M173.3,83.1c0-1.6-0.6-3-1.8-4.1
		c-1.2-1.1-2.6-1.6-4.2-1.6c-1.8,0-3.2,0.5-4.3,1.6c-1.1,1.1-1.6,2.4-1.6,4.1c0,1.6,0.5,3,1.6,4.1c1.1,1.2,2.5,1.8,4.3,1.8
		c1.7,0,3.2-0.6,4.3-1.8C172.8,86.1,173.3,84.7,173.3,83.1z"/>
	<path class="st1" d="M232.2,86.1c0,2.9-0.5,5.6-1.5,8c-1,2.4-2.4,4.9-4,7.3l-12,17.9h-14.2l12.4-17.1l0.1-0.2
		c-0.5,0.2-1.1,0.3-1.7,0.4c-0.6,0.1-1.2,0.1-1.8,0.1c-2.2,0-4.3-0.4-6.2-1.2c-2-0.8-3.7-1.9-5.2-3.3c-1.5-1.4-2.7-3.1-3.6-5.1
		c-0.9-2-1.3-4.2-1.3-6.6c0-2.8,0.5-5.3,1.5-7.6c1-2.2,2.4-4.1,4.2-5.7c1.8-1.5,3.9-2.7,6.2-3.5c2.4-0.8,4.9-1.2,7.6-1.2
		c2.7,0,5.3,0.4,7.6,1.2c2.4,0.8,4.4,2,6.2,3.5c1.8,1.5,3.1,3.4,4.2,5.6C231.7,80.9,232.2,83.3,232.2,86.1z M220.5,85.9
		c0-2.2-0.7-4-2.1-5.6c-1.4-1.6-3.3-2.4-5.7-2.4s-4.3,0.7-5.7,2.2c-1.4,1.5-2.2,3.4-2.2,5.8c0,2.2,0.7,4.1,2.1,5.6
		c1.4,1.5,3.3,2.2,5.6,2.2c2.3,0,4.3-0.7,5.7-2.2C219.7,90.2,220.5,88.3,220.5,85.9z"/>
	<path class="st1" d="M246.2,128h-9.5l5.3-19.9h11L246.2,128z"/>
	<path class="st1" d="M298.5,94.3c0,3.5-0.4,6.9-1.1,10c-0.7,3.2-1.8,6-3.4,8.4c-1.5,2.4-3.5,4.3-6,5.8c-2.5,1.4-5.4,2.1-8.9,2.1
		c-3.5,0-6.5-0.7-9-2.1c-2.5-1.4-4.5-3.3-6.1-5.8c-1.6-2.4-2.7-5.2-3.4-8.4c-0.7-3.2-1.1-6.5-1.1-10c0-3.5,0.4-6.8,1.1-10
		c0.7-3.2,1.8-5.9,3.4-8.3c1.6-2.4,3.6-4.2,6.1-5.6c2.5-1.4,5.5-2.1,9-2.1c3.5,0,6.5,0.7,8.9,2.1c2.5,1.4,4.5,3.3,6,5.6
		c1.5,2.4,2.7,5.1,3.4,8.3C298.2,87.5,298.5,90.8,298.5,94.3z M286.4,94.3c0-1.5-0.1-3.3-0.3-5.1c-0.2-1.9-0.5-3.6-1.1-5.2
		c-0.5-1.6-1.3-3-2.2-4.1c-1-1.1-2.2-1.6-3.8-1.6c-1.5,0-2.8,0.6-3.8,1.6c-1,1.1-1.7,2.5-2.3,4.1c-0.5,1.6-0.9,3.4-1.1,5.2
		c-0.2,1.9-0.3,3.6-0.3,5.1c0,1.6,0.1,3.3,0.3,5.2c0.2,1.9,0.5,3.6,1.1,5.3c0.5,1.6,1.3,3,2.3,4.1c1,1.1,2.2,1.6,3.8,1.6
		c1.5,0,2.8-0.5,3.8-1.6c1-1.1,1.7-2.5,2.2-4.1c0.5-1.6,0.9-3.4,1.1-5.3C286.3,97.7,286.4,95.9,286.4,94.3z"/>
	<path class="st1" d="M343.8,94.3c0,3.5-0.4,6.9-1.1,10c-0.7,3.2-1.8,6-3.4,8.4c-1.5,2.4-3.5,4.3-6,5.8c-2.5,1.4-5.4,2.1-8.9,2.1
		c-3.5,0-6.5-0.7-9-2.1c-2.5-1.4-4.5-3.3-6.1-5.8c-1.6-2.4-2.7-5.2-3.4-8.4c-0.7-3.2-1.1-6.5-1.1-10c0-3.5,0.4-6.8,1.1-10
		c0.7-3.2,1.8-5.9,3.4-8.3c1.6-2.4,3.6-4.2,6.1-5.6c2.5-1.4,5.5-2.1,9-2.1c3.5,0,6.5,0.7,8.9,2.1c2.5,1.4,4.5,3.3,6,5.6
		c1.5,2.4,2.7,5.1,3.4,8.3C343.5,87.5,343.8,90.8,343.8,94.3z M331.8,94.3c0-1.5-0.1-3.3-0.3-5.1c-0.2-1.9-0.5-3.6-1.1-5.2
		c-0.5-1.6-1.3-3-2.2-4.1c-1-1.1-2.2-1.6-3.8-1.6c-1.5,0-2.8,0.6-3.8,1.6c-1,1.1-1.7,2.5-2.3,4.1c-0.5,1.6-0.9,3.4-1.1,5.2
		c-0.2,1.9-0.3,3.6-0.3,5.1c0,1.6,0.1,3.3,0.3,5.2c0.2,1.9,0.5,3.6,1.1,5.3c0.5,1.6,1.3,3,2.3,4.1c1,1.1,2.2,1.6,3.8,1.6
		c1.5,0,2.8-0.5,3.8-1.6c1-1.1,1.7-2.5,2.2-4.1c0.5-1.6,0.9-3.4,1.1-5.3C331.7,97.7,331.8,95.9,331.8,94.3z"/>
	<path class="st1" d="M389.2,94.3c0,3.5-0.4,6.9-1.1,10c-0.7,3.2-1.8,6-3.4,8.4c-1.5,2.4-3.5,4.3-6,5.8c-2.5,1.4-5.4,2.1-8.9,2.1
		c-3.5,0-6.5-0.7-9-2.1c-2.5-1.4-4.5-3.3-6.1-5.8c-1.6-2.4-2.7-5.2-3.4-8.4c-0.7-3.2-1.1-6.5-1.1-10c0-3.5,0.4-6.8,1.1-10
		c0.7-3.2,1.8-5.9,3.4-8.3c1.6-2.4,3.6-4.2,6.1-5.6c2.5-1.4,5.5-2.1,9-2.1c3.5,0,6.5,0.7,8.9,2.1c2.5,1.4,4.5,3.3,6,5.6
		c1.5,2.4,2.7,5.1,3.4,8.3C388.8,87.5,389.2,90.8,389.2,94.3z M377.1,94.3c0-1.5-0.1-3.3-0.3-5.1c-0.2-1.9-0.5-3.6-1.1-5.2
		c-0.5-1.6-1.3-3-2.2-4.1c-1-1.1-2.2-1.6-3.8-1.6c-1.5,0-2.8,0.6-3.8,1.6c-1,1.1-1.7,2.5-2.3,4.1c-0.5,1.6-0.9,3.4-1.1,5.2
		c-0.2,1.9-0.3,3.6-0.3,5.1c0,1.6,0.1,3.3,0.3,5.2c0.2,1.9,0.5,3.6,1.1,5.3c0.5,1.6,1.3,3,2.3,4.1c1,1.1,2.2,1.6,3.8,1.6
		c1.5,0,2.8-0.5,3.8-1.6c1-1.1,1.7-2.5,2.2-4.1c0.5-1.6,0.9-3.4,1.1-5.3C377,97.7,377.1,95.9,377.1,94.3z"/>
	<path class="st1" d="M423.4,119.3v-4.6h-0.1c-1.1,1.8-2.7,3.1-4.8,4.1c-2.1,1-4.3,1.4-6.6,1.4c-2.6,0-5-0.5-7-1.5
		c-2.1-1-3.8-2.4-5.2-4.1c-1.4-1.7-2.5-3.7-3.3-5.9c-0.7-2.2-1.1-4.6-1.1-7c0-2.4,0.4-4.8,1.2-7c0.8-2.2,1.9-4.2,3.3-5.9
		c1.4-1.7,3.2-3,5.2-4c2-1,4.3-1.5,6.8-1.5c2.6,0,4.7,0.5,6.5,1.5c1.8,1,3.2,2.1,4.1,3.2h0.1v-8.8H412v-6.2h10.5v-6.8H434v6.8h3.2
		v6.2H434v40H423.4z M422.9,101.8c0-1.1-0.2-2.2-0.6-3.3c-0.4-1.1-1-2-1.7-2.9c-0.7-0.8-1.6-1.5-2.6-2c-1-0.5-2.2-0.8-3.5-0.8
		c-1.4,0-2.6,0.3-3.6,0.8c-1,0.5-1.9,1.2-2.6,2c-0.7,0.8-1.2,1.8-1.6,2.8c-0.4,1.1-0.5,2.2-0.5,3.3c0,1.1,0.2,2.2,0.5,3.3
		c0.4,1.1,0.9,2.1,1.6,2.9c0.7,0.8,1.6,1.5,2.6,2c1,0.5,2.2,0.8,3.6,0.8c1.3,0,2.5-0.3,3.5-0.8c1-0.5,1.9-1.2,2.6-2
		c0.7-0.8,1.3-1.8,1.7-2.9C422.7,104,422.9,102.9,422.9,101.8z"/>
</g>
</svg>
