<svg id="Layer_1" data-name="Layer 1" xmlns="http://www.w3.org/2000/svg" viewBox="0 0 2006 887.99"><defs><style>.cls-1{fill:#c90202;}.cls-2{fill:#fff;}</style></defs><title>Image convert 1 fix text</title><path d="M163,509.84c0,19.53-14.64,31.67-38.06,31.67H107.24v24.17H87V478h37.93C148.31,478,163,490.18,163,509.84Zm-20.53,0c0-9.64-6.26-15.28-18.65-15.28H107.24V525h16.53C136.16,525,142.42,519.35,142.42,509.84Z"/><path d="M257.73,478v87.64H237.45V529.74H197.63v35.94H177.35V478h20.28v34.55h39.82V478Z"/><path d="M336.22,546.9H295.54l-7.77,18.78H267L306.05,478h20l39.19,87.64H344Zm-30.92-76H290.9l16.65-14.27h17l16.65,14.27h-14.4l-10.76-7.14Zm24.54,60.6-13.9-33.56L302,531.5Zm15.4-72.62H331.09L345,443.73h19.9Z"/><path d="M454.78,478v87.64H438.13l-43.69-53.21v53.21h-20V478h16.77l43.57,53.21V478Z"/><path d="M587,509.84c0,19.53-14.65,31.67-38.06,31.67H531.28v24.17H511V478h37.94C572.34,478,587,490.18,587,509.84Zm-20.53,0c0-9.64-6.26-15.28-18.66-15.28H531.28V525H547.8C560.2,525,566.46,519.35,566.46,509.84Z"/><path d="M681.76,478v87.64H661.48V529.74H621.67v35.94H601.38V478h20.29v34.55h39.81V478Z"/><path d="M701.79,527.11V478h20.28v48.32c0,16.65,7.27,23.54,19.53,23.54s19.54-6.89,19.54-23.54V478h20v49.07c0,25.79-14.78,40.07-39.69,40.07S701.79,552.9,701.79,527.11Zm37.44-61.47c4.88-2.25,6.38-4.76,6.38-7.64,0-3.13-2.38-5.25-5.88-5.25a13.19,13.19,0,0,0-7.39,2.38l-4-7.89A21.8,21.8,0,0,1,741.86,443c8.88,0,15,5.38,15,13.4,0,7.13-3.88,12.27-11.52,15.77Z"/><path d="M868.55,531.25l-11.77,12.27v22.16H836.62V478h20.16V519L895.59,478h22.54L881.82,517.1l38.44,48.58H896.6Z"/><path d="M929.27,478h20.28v87.64H929.27Z"/><path d="M990.49,549.4h47.7v16.28H970.33V478h66.23v16.27H990.49v19h40.69v15.78H990.49Zm2.25-78.5h-14.4L995,456.63h17l16.65,14.27h-14.39l-10.77-7.14Zm33.3-12-19.65-15.15h19.9l13.78,15.15Z"/><path d="M1134.09,565.68l-.13-52.59-25.79,43.32H1099l-25.66-42.19v51.46h-19V478h16.77l32.81,54.46,32.3-54.46h16.65l.25,87.64Z"/><path d="M1209.33,478h39.81c28.67,0,48.32,17.27,48.32,43.82s-19.65,43.82-48.32,43.82h-39.81Zm38.81,71c17.4,0,28.79-10.39,28.79-27.16s-11.39-27.17-28.79-27.17h-18.53V549Z"/><path d="M1369.2,546.9h-40.69l-7.76,18.78H1300L1339,478h20l39.19,87.64H1377Zm-30.92-76h-14.4l16.65-14.27h17l16.65,14.27h-14.4L1349,463.76Zm24.54,60.6-13.9-33.56L1335,531.5Zm8.76-72.62-19.66-15.15h19.91l13.77,15.15Z"/><path d="M1404.75,527.11V478H1425v48.32c0,16.65,7.26,23.54,19.53,23.54s19.53-6.89,19.53-23.54V478h20v49.07c0,25.79-14.77,40.07-39.69,40.07S1404.75,552.9,1404.75,527.11Z"/><path d="M78.81,623.37c0-12.14,9.32-20.83,21.86-20.83,7,0,12.77,2.53,16.57,7.13l-6,5.53a13,13,0,0,0-10.13-4.72c-7.54,0-12.88,5.29-12.88,12.89s5.34,12.88,12.88,12.88a12.86,12.86,0,0,0,10.13-4.77l6,5.52c-3.8,4.66-9.61,7.19-16.63,7.19C88.13,644.19,78.81,635.5,78.81,623.37Z"/><path d="M149.22,634.87h-18.7L127,643.5h-9.55l18-40.27h9.2l18,40.27h-9.78Zm-2.93-7.07-6.39-15.42-6.38,15.42Z"/><path d="M173.09,610.82H160.21v-7.59h35.08v7.59H182.41V643.5h-9.32Z"/><path d="M237.23,603.23V643.5h-9.32V627H209.62V643.5H200.3V603.23h9.32v15.88h18.29V603.23Z"/><path d="M266.1,629.23V643.5h-9.31V629.12L241.2,603.23h9.89l10.76,17.89,10.75-17.89h9.15Z"/><path d="M301.94,603.23h18.29c13.18,0,22.21,7.94,22.21,20.14s-9,20.13-22.21,20.13H301.94Zm17.83,32.62c8,0,13.23-4.78,13.23-12.48s-5.23-12.49-13.23-12.49h-8.51v25Z"/><path d="M346.92,623.37c0-12,9.32-20.83,22-20.83s22,8.8,22,20.83-9.37,20.82-22,20.82S346.92,635.33,346.92,623.37Zm34.63,0c0-7.66-5.41-12.89-12.6-12.89s-12.6,5.23-12.6,12.89,5.41,12.88,12.6,12.88S381.55,631,381.55,623.37Z"/><path d="M398,603.23h9.32v32.68h20.19v7.59H398Z"/><path d="M432.74,603.23h9.32v32.68h20.19v7.59H432.74Z"/><path d="M481.23,623.37c0-12,9.32-20.83,22-20.83s22,8.8,22,20.83-9.38,20.82-22,20.82S481.23,635.33,481.23,623.37Zm34.63,0c0-7.66-5.4-12.89-12.59-12.89s-12.6,5.23-12.6,12.89,5.4,12.88,12.6,12.88S515.86,631,515.86,623.37Z"/><path d="M532.31,603.23h9.32V643.5h-9.32Z"/><path d="M551.18,603.23h9.32v32.68h20.19v7.59H551.18Z"/><path d="M599.67,623.37c0-12.14,9.32-20.83,21.86-20.83,7,0,12.77,2.53,16.57,7.13l-6,5.53A12.93,12.93,0,0,0,622,610.48c-7.54,0-12.89,5.29-12.89,12.89s5.35,12.88,12.89,12.88a12.82,12.82,0,0,0,10.12-4.77l6,5.52c-3.8,4.66-9.61,7.19-16.63,7.19C609,644.19,599.67,635.5,599.67,623.37Z"/><path d="M641,623.37c0-12,9.32-20.83,22-20.83s22,8.8,22,20.83-9.37,20.82-22,20.82S641,635.33,641,623.37Zm34.63,0c0-7.66-5.41-12.89-12.6-12.89s-12.6,5.23-12.6,12.89,5.41,12.88,12.6,12.88S675.6,631,675.6,623.37Z"/><path d="M729,603.23V643.5h-7.65l-20.08-24.45V643.5h-9.2V603.23h7.71l20,24.45V603.23Z"/><path d="M746.87,610.82H734v-7.59h35.09v7.59H756.19V643.5h-9.32Z"/><path d="M799.73,643.5,792,632.28h-8.57V643.5h-9.32V603.23h17.44c10.75,0,17.48,5.58,17.48,14.61a13.11,13.11,0,0,1-8.28,12.72l9,12.94ZM791,610.82h-7.6v14H791c5.69,0,8.57-2.64,8.57-7S796.68,610.82,791,610.82Z"/><path d="M813.82,623.37c0-12,9.32-20.83,22-20.83s22,8.8,22,20.83-9.38,20.82-22,20.82S813.82,635.33,813.82,623.37Zm34.63,0c0-7.66-5.41-12.89-12.6-12.89s-12.59,5.23-12.59,12.89,5.4,12.88,12.59,12.88S848.45,631,848.45,623.37Z"/><path d="M864.9,603.23h9.32v32.68h20.19v7.59H864.9Z"/><path d="M925.24,610.71v10.64h18.64v7.48H925.24V643.5h-9.32V603.23h30.43v7.48Z"/><path d="M952.68,603.23H962V643.5h-9.32Z"/><path d="M971.54,603.23h9.33v32.68h20.19v7.59H971.54Z"/><path d="M1042.93,643.5l0-24.16L1031,639.24h-4.19L1015,619.86V643.5h-8.74V603.23H1014l15.07,25,14.84-25h7.65l.12,40.27Z"/><path d="M1112.42,617.84c0,9-6.73,14.56-17.49,14.56h-8.11v11.1h-9.32V603.23h17.43C1105.69,603.23,1112.42,608.81,1112.42,617.84Zm-9.44,0c0-4.43-2.87-7-8.57-7h-7.59v14h7.59C1100.11,624.8,1103,622.22,1103,617.84Z"/><path d="M1143.54,634.87h-18.7l-3.57,8.63h-9.55l18-40.27h9.21l18,40.27h-9.78Zm-2.94-7.07-6.38-15.42-6.39,15.42Z"/><path d="M1158,623.37c0-12.14,9.32-20.83,21.86-20.83,7,0,12.77,2.53,16.57,7.13l-6,5.53a13,13,0,0,0-10.13-4.72c-7.53,0-12.88,5.29-12.88,12.89s5.35,12.88,12.88,12.88a12.86,12.86,0,0,0,10.13-4.77l6,5.52c-3.8,4.66-9.61,7.19-16.62,7.19C1167.29,644.19,1158,635.5,1158,623.37Z"/><path d="M1210.61,610.82h-12.89v-7.59h35.09v7.59h-12.88V643.5h-9.32Z"/><path d="M1262.43,610.82h-12.88v-7.59h35.09v7.59h-12.89V643.5h-9.32Z"/><path d="M1315.3,643.5l-7.77-11.22H1299V643.5h-9.32V603.23h17.43c10.76,0,17.49,5.58,17.49,14.61a13.11,13.11,0,0,1-8.28,12.72l9,12.94Zm-8.75-32.68H1299v14h7.59c5.7,0,8.57-2.64,8.57-7S1312.25,610.82,1306.55,610.82Z"/><path d="M1358.44,634.87h-18.7l-3.56,8.63h-9.55l17.94-40.27h9.21l18,40.27H1362Zm-2.94-7.07-6.38-15.42-6.39,15.42Z"/><path d="M1412.91,603.23V643.5h-7.65l-20.08-24.45V643.5H1376V603.23h7.71l20,24.45V603.23Z"/><path d="M1419.29,639.53l3.17-7a23.61,23.61,0,0,0,13.29,4.2c5.52,0,7.76-1.84,7.76-4.31,0-7.54-23.41-2.36-23.41-17.32,0-6.84,5.52-12.54,17-12.54,5.06,0,10.24,1.21,14,3.57l-2.88,7.07A22.82,22.82,0,0,0,1437,610c-5.52,0-7.65,2.07-7.65,4.6,0,7.42,23.41,2.3,23.41,17.09,0,6.73-5.58,12.48-17.08,12.48C1429.3,644.19,1422.86,642.29,1419.29,639.53Z"/><path d="M1459.16,603.23h9.32v32.68h20.19v7.59h-29.51Z"/><path d="M1493,625.78V603.23h9.32v22.21c0,7.65,3.33,10.81,9,10.81s9-3.16,9-10.81V603.23h9.21v22.55c0,11.85-6.79,18.41-18.24,18.41S1493,637.63,1493,625.78Z"/><path d="M1536.18,623.37c0-12.14,9.32-20.83,21.86-20.83,7,0,12.77,2.53,16.57,7.13l-6,5.53a12.93,12.93,0,0,0-10.12-4.72c-7.54,0-12.89,5.29-12.89,12.89s5.35,12.88,12.89,12.88a12.82,12.82,0,0,0,10.12-4.77l6,5.52c-3.8,4.66-9.61,7.19-16.63,7.19C1545.5,644.19,1536.18,635.5,1536.18,623.37Z"/><path d="M1612.05,636v7.48h-31.18V603.23h30.43v7.48h-21.17v8.74h18.7v7.25h-18.7V636Z"/><path d="M1656.4,603.23V643.5h-7.65l-20.08-24.45V643.5h-9.2V603.23h7.71l20,24.45V603.23Z"/><path d="M1674.29,610.82H1661.4v-7.59h35.09v7.59h-12.88V643.5h-9.32Z"/><path d="M1730.78,603.23V643.5h-9.32V610.71h-8.06v-7.48Z"/><path d="M1767.88,635.91v7.59h-30.43v-6L1753,622.79c3.56-3.39,4.2-5.46,4.2-7.42,0-3.16-2.19-5-6.45-5a9.86,9.86,0,0,0-8.34,4l-6.78-4.37c3.1-4.55,8.74-7.48,16-7.48,9,0,15,4.6,15,11.91,0,3.91-1.09,7.48-6.73,12.71l-9.26,8.75Z"/><path d="M1801.47,622.73H1810v16.34a27.74,27.74,0,0,1-16.27,5.12c-12.66,0-22-8.69-22-20.82s9.32-20.83,22.15-20.83c7.07,0,12.94,2.42,16.85,7l-6,5.52a13.64,13.64,0,0,0-10.41-4.54c-7.83,0-13.18,5.23-13.18,12.89s5.35,12.88,13.06,12.88a14.86,14.86,0,0,0,7.25-1.72Z"/><g id="_Rectangle_" data-name="&lt;Rectangle&gt;"><rect class="cls-1" x="77" y="60.49" width="921" height="272"/></g><path class="cls-2" d="M212.1,244.19V165.71L192.18,181.1l-13.13-18,35.15-25.81h23.11V244.19Z"/><path class="cls-2" d="M357.6,172.65a43.61,43.61,0,0,1-3.32,17.28,99.85,99.85,0,0,1-8.6,15.77L319.9,244.19H289.28l26.58-36.83.31-.45a19.09,19.09,0,0,1-3.7.9,25,25,0,0,1-3.84.31,36.3,36.3,0,0,1-13.41-2.49,33.91,33.91,0,0,1-11.14-7.1,34.21,34.21,0,0,1-10.55-25.28,38.76,38.76,0,0,1,3.31-16.3,35.66,35.66,0,0,1,9-12.22,40,40,0,0,1,13.41-7.62,51.73,51.73,0,0,1,32.69,0,39.23,39.23,0,0,1,13.34,7.62,36.51,36.51,0,0,1,9,12.07A37,37,0,0,1,357.6,172.65Zm-25.21-.3a17.52,17.52,0,0,0-4.47-12q-4.47-5.06-12.21-5.06t-12.35,4.76q-4.64,4.75-4.63,12.45a16.67,16.67,0,0,0,4.55,12q4.55,4.75,12.13,4.75t12.28-4.68Q332.39,179.89,332.39,172.35Z"/><path class="cls-2" d="M455.1,172.65a43.61,43.61,0,0,1-3.32,17.28,99.85,99.85,0,0,1-8.6,15.77l-25.79,38.49H386.78l26.58-36.83.31-.45a19.09,19.09,0,0,1-3.7.9,25,25,0,0,1-3.84.31,36.3,36.3,0,0,1-13.41-2.49,34.06,34.06,0,0,1-11.15-7.1A34.26,34.26,0,0,1,371,173.25a38.76,38.76,0,0,1,3.31-16.3,35.66,35.66,0,0,1,9-12.22,40,40,0,0,1,13.41-7.62,51.73,51.73,0,0,1,32.69,0,39.23,39.23,0,0,1,13.34,7.62,36.51,36.51,0,0,1,9,12.07A37,37,0,0,1,455.1,172.65Zm-25.21-.3a17.52,17.52,0,0,0-4.47-12q-4.47-5.06-12.21-5.06t-12.35,4.76q-4.64,4.75-4.63,12.45a16.67,16.67,0,0,0,4.55,12q4.55,4.75,12.13,4.75t12.28-4.68Q429.89,179.89,429.89,172.35Z"/><path class="cls-2" d="M485.28,262.9H464.9L476.22,220h23.7Z"/><path class="cls-2" d="M597.72,190.46A99.92,99.92,0,0,1,595.46,212a55.19,55.19,0,0,1-7.25,18,37.52,37.52,0,0,1-12.9,12.37q-7.93,4.61-19.25,4.61t-19.31-4.61a37.91,37.91,0,0,1-13.06-12.37,54.2,54.2,0,0,1-7.32-18,99.92,99.92,0,0,1-2.26-21.58A98.87,98.87,0,0,1,516.37,169a52.52,52.52,0,0,1,7.32-17.81A37.75,37.75,0,0,1,536.75,139q8-4.53,19.31-4.53T575.31,139a37.35,37.35,0,0,1,12.9,12.15A53.47,53.47,0,0,1,595.46,169,98.87,98.87,0,0,1,597.72,190.46Zm-26,0q0-5-.6-11a55.24,55.24,0,0,0-2.27-11.24,24.48,24.48,0,0,0-4.75-8.76,10.24,10.24,0,0,0-8.08-3.54,10.45,10.45,0,0,0-8.15,3.54,24.57,24.57,0,0,0-4.9,8.76,51.45,51.45,0,0,0-2.34,11.24q-.6,6-.6,11,0,5.13.6,11.24A51.45,51.45,0,0,0,543,213a24.65,24.65,0,0,0,4.9,8.76,10.45,10.45,0,0,0,8.15,3.54,10.24,10.24,0,0,0,8.08-3.54,24.57,24.57,0,0,0,4.75-8.76,55.21,55.21,0,0,0,2.27-11.32Q571.76,195.6,571.76,190.46Z"/><path class="cls-2" d="M695.22,190.46A99.92,99.92,0,0,1,693,212a55.18,55.18,0,0,1-7.24,18,37.52,37.52,0,0,1-12.9,12.37q-7.93,4.61-19.25,4.61t-19.32-4.61a38,38,0,0,1-13-12.37,54.2,54.2,0,0,1-7.32-18,99.92,99.92,0,0,1-2.27-21.58A98.86,98.86,0,0,1,613.87,169a52.52,52.52,0,0,1,7.32-17.81,37.81,37.81,0,0,1,13-12.15q8-4.53,19.32-4.53T672.81,139a37.35,37.35,0,0,1,12.9,12.15A53.46,53.46,0,0,1,693,169,98.86,98.86,0,0,1,695.22,190.46Zm-26,0a109.5,109.5,0,0,0-.61-11,54.58,54.58,0,0,0-2.26-11.24,24.48,24.48,0,0,0-4.75-8.76,10.24,10.24,0,0,0-8.08-3.54,10.44,10.44,0,0,0-8.15,3.54,24.57,24.57,0,0,0-4.9,8.76,51.45,51.45,0,0,0-2.34,11.24,109.5,109.5,0,0,0-.61,11q0,5.13.61,11.24A51.45,51.45,0,0,0,640.51,213a24.65,24.65,0,0,0,4.9,8.76,10.44,10.44,0,0,0,8.15,3.54,10.24,10.24,0,0,0,8.08-3.54,24.57,24.57,0,0,0,4.75-8.76,54.56,54.56,0,0,0,2.26-11.32Q669.26,195.6,669.26,190.46Z"/><path class="cls-2" d="M792.72,190.46A99.92,99.92,0,0,1,790.45,212a55.18,55.18,0,0,1-7.24,18,37.46,37.46,0,0,1-12.91,12.37q-7.92,4.61-19.24,4.61t-19.32-4.61a38,38,0,0,1-13-12.37,54,54,0,0,1-7.32-18,99.92,99.92,0,0,1-2.27-21.58A98.86,98.86,0,0,1,711.37,169a52.32,52.32,0,0,1,7.32-17.81,37.81,37.81,0,0,1,13-12.15q8-4.53,19.32-4.53T770.3,139a37.29,37.29,0,0,1,12.91,12.15A53.46,53.46,0,0,1,790.45,169,98.86,98.86,0,0,1,792.72,190.46Zm-26,0c0-3.32-.21-7-.61-11a54.58,54.58,0,0,0-2.26-11.24,24.48,24.48,0,0,0-4.75-8.76,10.24,10.24,0,0,0-8.08-3.54,10.44,10.44,0,0,0-8.15,3.54,24.57,24.57,0,0,0-4.9,8.76,51.45,51.45,0,0,0-2.34,11.24,109.5,109.5,0,0,0-.61,11q0,5.13.61,11.24A51.45,51.45,0,0,0,738,213a24.65,24.65,0,0,0,4.9,8.76,10.44,10.44,0,0,0,8.15,3.54,10.24,10.24,0,0,0,8.08-3.54,24.57,24.57,0,0,0,4.75-8.76,54.56,54.56,0,0,0,2.26-11.32C766.55,197.63,766.76,193.88,766.76,190.46Z"/><path class="cls-2" d="M866.22,244.19v-9.81h-.3a23.57,23.57,0,0,1-10.34,8.83,33.72,33.72,0,0,1-14.26,3.09,33.36,33.36,0,0,1-15.1-3.32A34.49,34.49,0,0,1,815,234.15a38.74,38.74,0,0,1-7-12.75,47.4,47.4,0,0,1-2.41-15.09,45.47,45.47,0,0,1,2.49-15,39.09,39.09,0,0,1,7.09-12.6A33.07,33.07,0,0,1,841,166.91a28.71,28.71,0,0,1,14,3.17A31.17,31.17,0,0,1,864,177h.31V158.16H841.77V144.73h22.49V130.09H889v14.64H896v13.43H889v86Zm-.91-37.73a20.61,20.61,0,0,0-4.9-13.29,18.09,18.09,0,0,0-5.66-4.37,16.63,16.63,0,0,0-7.55-1.66,17,17,0,0,0-7.7,1.66,17.39,17.39,0,0,0-9,10.41,22.92,22.92,0,0,0-1.13,7.1,23.53,23.53,0,0,0,1.13,7.16,18.48,18.48,0,0,0,3.4,6.27,16.66,16.66,0,0,0,13.28,6,16.76,16.76,0,0,0,7.55-1.66,18.12,18.12,0,0,0,5.66-4.38,20.05,20.05,0,0,0,3.62-6.19A20.41,20.41,0,0,0,865.31,206.46Z"/></svg>