<svg id="Layer_1" data-name="Layer 1" xmlns="http://www.w3.org/2000/svg" viewBox="0 0 996 419"><defs><style>.cls-1{fill:#c90202;}.cls-2{fill:#fff;}</style></defs><title>Image convert 4 (chăm sóc da mặt và tẩy trang) text fix</title><path d="M65.53,194.53a6.83,6.83,0,0,0-2.55-2,7.47,7.47,0,0,0-3.3-.79,7.9,7.9,0,0,0-2,.25,6,6,0,0,0-1.8.76,4.29,4.29,0,0,0-1.33,1.35,3.71,3.71,0,0,0-.52,2A3.56,3.56,0,0,0,54.5,198a4.06,4.06,0,0,0,1.24,1.31,8.29,8.29,0,0,0,1.91.94c.75.27,1.58.54,2.48.81s2.07.71,3.17,1.13a12.24,12.24,0,0,1,3,1.66,8.13,8.13,0,0,1,2.25,2.61,7.92,7.92,0,0,1,.88,3.92,10,10,0,0,1-.94,4.47A9.22,9.22,0,0,1,66,218a10.75,10.75,0,0,1-3.69,1.89,15.56,15.56,0,0,1-4.46.63,16.81,16.81,0,0,1-6.07-1.15A11.78,11.78,0,0,1,46.9,216L51,212.21a8.12,8.12,0,0,0,3.13,2.57,8.75,8.75,0,0,0,3.84.94,8.48,8.48,0,0,0,2-.25,5.23,5.23,0,0,0,1.86-.83,4.74,4.74,0,0,0,1.36-1.46,4.29,4.29,0,0,0,.51-2.18,3.59,3.59,0,0,0-.58-2.1,5.38,5.38,0,0,0-1.58-1.44,11.58,11.58,0,0,0-2.34-1.05l-2.83-.95a28.09,28.09,0,0,1-2.88-1.08,9.63,9.63,0,0,1-2.59-1.66A8.11,8.11,0,0,1,49,200.17a8.65,8.65,0,0,1-.72-3.75,8.31,8.31,0,0,1,1-4.19,8.91,8.91,0,0,1,2.66-2.9,11.53,11.53,0,0,1,3.74-1.71,16.05,16.05,0,0,1,4.25-.56,15.18,15.18,0,0,1,4.93.85,12.08,12.08,0,0,1,4.34,2.57Z"/><path d="M100.49,208a13.05,13.05,0,0,1-1,5.19,11.61,11.61,0,0,1-2.7,3.94,12,12,0,0,1-4,2.5,15.13,15.13,0,0,1-10.17,0,12.15,12.15,0,0,1-4.07-2.5,11.08,11.08,0,0,1-2.7-3.94,13.23,13.23,0,0,1-1-5.19V187.87h5.67V207.8a10.91,10.91,0,0,0,.36,2.77A6.9,6.9,0,0,0,82.06,213a6.19,6.19,0,0,0,2.21,1.76,8.94,8.94,0,0,0,6.79,0A6.19,6.19,0,0,0,93.27,213a6.9,6.9,0,0,0,1.19-2.45,10.91,10.91,0,0,0,.36-2.77V187.87H98a3.54,3.54,0,0,0,2.81-.93,3.86,3.86,0,0,0,.79-2.58,5.44,5.44,0,0,0-.21-1.47,4.28,4.28,0,0,0-.56-1.28l4.64-1.17a7.16,7.16,0,0,1,.63,1.82,11.11,11.11,0,0,1,.18,2.1,6.44,6.44,0,0,1-1.56,4.72,6,6,0,0,1-4.25,1.67Zm-21.1-22.86a15.22,15.22,0,0,1,.51-2.12,6.37,6.37,0,0,1,.93-1.82A4.51,4.51,0,0,1,82.29,180a4.29,4.29,0,0,1,2.14-.5,7.69,7.69,0,0,1,1.82.23,10.33,10.33,0,0,1,1.73.58c.6.24,1.15.44,1.64.61a4.4,4.4,0,0,0,1.29.25,1.68,1.68,0,0,0,1.37-.57,3.63,3.63,0,0,0,.7-1.32h3a15.12,15.12,0,0,1-.52,2.11,6.35,6.35,0,0,1-.92,1.82A4.57,4.57,0,0,1,93,184.45a4.25,4.25,0,0,1-2.13.49,6.85,6.85,0,0,1-1.89-.27,15.87,15.87,0,0,1-1.8-.63,14.18,14.18,0,0,0-1.53-.58,4.33,4.33,0,0,0-1.26-.23,1.69,1.69,0,0,0-1.38.59,3.92,3.92,0,0,0-.69,1.35Z"/><path d="M117.68,187.87h4.91l13.72,31.86h-6.48l-3-7.29H113.05l-2.88,7.29h-6.35Zm7.2,19.71-4.9-13-5,13Z"/><path d="M149.9,187.87H161a19.7,19.7,0,0,1,4.37.47,11,11,0,0,1,3.75,1.55,8.09,8.09,0,0,1,2.64,2.84,8.56,8.56,0,0,1,1,4.27,8.18,8.18,0,0,1-2,5.65,9.87,9.87,0,0,1-5.33,2.95l8.5,14.13h-6.84l-7.38-13.5h-4.14v13.5H149.9Zm10.31,13.72a16.56,16.56,0,0,0,2.43-.18,7,7,0,0,0,2.18-.67,4.36,4.36,0,0,0,1.6-1.42,4.11,4.11,0,0,0,.63-2.36,3.63,3.63,0,0,0-.59-2.14,4.3,4.3,0,0,0-1.48-1.33,6.26,6.26,0,0,0-2-.67,14.35,14.35,0,0,0-2.23-.18h-5.13v9Z"/><path d="M203.59,208a13.05,13.05,0,0,1-1,5.19,11.61,11.61,0,0,1-2.7,3.94,12,12,0,0,1-4.05,2.5,15.13,15.13,0,0,1-10.17,0,12.29,12.29,0,0,1-4.08-2.5,11.34,11.34,0,0,1-2.7-3.94,13.41,13.41,0,0,1-1-5.19V187.87h5.67V207.8a10.91,10.91,0,0,0,.36,2.77,6.74,6.74,0,0,0,1.19,2.45,6.15,6.15,0,0,0,2.2,1.76,9,9,0,0,0,6.8,0,6.15,6.15,0,0,0,2.2-1.76,6.76,6.76,0,0,0,1.2-2.45,10.91,10.91,0,0,0,.36-2.77V187.87h3.19a3.53,3.53,0,0,0,2.81-.93,3.81,3.81,0,0,0,.79-2.58,5.84,5.84,0,0,0-.2-1.47,4.28,4.28,0,0,0-.56-1.28l4.63-1.17a7.16,7.16,0,0,1,.63,1.82,11.11,11.11,0,0,1,.18,2.1,6.44,6.44,0,0,1-1.55,4.72,6,6,0,0,1-4.25,1.67Zm-14.54-22.19a3.62,3.62,0,0,1,.45-1.91,4.58,4.58,0,0,1,1.76-1.46,2,2,0,0,0,1.26-1.67c0-.93-.53-1.39-1.58-1.39a1.82,1.82,0,0,0-1.37.47,2.84,2.84,0,0,0-.65,1.6l-3.56-.45a4.78,4.78,0,0,1,1.85-3.24,6.33,6.33,0,0,1,3.82-1.08,5.69,5.69,0,0,1,3.78,1.14,3.52,3.52,0,0,1,1.35,2.77,3.72,3.72,0,0,1-.56,2.07,4.26,4.26,0,0,1-1.82,1.44,2.68,2.68,0,0,0-1.06.77,1.52,1.52,0,0,0-.29.94Z"/><path d="M220.78,187.87h4.9l13.73,31.86h-6.48l-3-7.29H216.14l-2.88,7.29h-6.34Zm7.2,19.71-4.91-13-5,13Z"/><path d="M253,187.87h8.86l8.28,22.63h.14l8.19-22.63h8.91v31.86h-5.63V194.12h-.09L272,219.73h-4l-9.54-25.61h-.09v25.61H253Z"/><path d="M304.39,187.87h4.9L323,219.73h-6.48l-3-7.29H299.75l-2.88,7.29h-6.34Zm-2.16-9a3,3,0,0,0,1.62,2.34,6.83,6.83,0,0,0,3,.63,7.17,7.17,0,0,0,3.06-.54,3.46,3.46,0,0,0,1.62-2.43h3a6.75,6.75,0,0,1-2.41,4.9,8.4,8.4,0,0,1-5.28,1.58,8.58,8.58,0,0,1-5.31-1.56,6.3,6.3,0,0,1-2.3-4.92Zm9.36,28.71-4.91-13-5,13Zm-8.15,18.76a3.08,3.08,0,0,1,1-2.27,3.29,3.29,0,0,1,2.45-1,3.59,3.59,0,0,1,2.5.92,3.17,3.17,0,0,1,0,4.64,3.59,3.59,0,0,1-2.5.92,3.29,3.29,0,0,1-2.45-1A3.08,3.08,0,0,1,303.44,226.34Z"/><path d="M332.6,192.82h-9.76v-4.95H348v4.95h-9.77v26.91H332.6Z"/><path d="M367.25,192.82h-9.76v-4.95h25.2v4.95h-9.77v26.91h-5.67Z"/><path d="M396.37,187.87h4.9L415,219.73h-6.48l-3-7.29H391.73l-2.88,7.29h-6.34Zm7.2,19.71-4.91-13-5,13Zm-8.15,18.76a3.08,3.08,0,0,1,1-2.27,3.31,3.31,0,0,1,2.45-1,3.59,3.59,0,0,1,2.5.92,3.17,3.17,0,0,1,0,4.64,3.59,3.59,0,0,1-2.5.92,3.31,3.31,0,0,1-2.45-1A3.08,3.08,0,0,1,395.42,226.34Z"/><path d="M416.62,203.71a17.73,17.73,0,0,1,1.28-6.91,15,15,0,0,1,3.56-5.24,15.7,15.7,0,0,1,5.39-3.33,19.34,19.34,0,0,1,6.82-1.17,19.66,19.66,0,0,1,6.89,1.17,15.92,15.92,0,0,1,5.44,3.33,15,15,0,0,1,3.58,5.24,17.73,17.73,0,0,1,1.28,6.91,17.43,17.43,0,0,1-1.28,6.81,15.7,15.7,0,0,1-3.58,5.31,16.24,16.24,0,0,1-5.44,3.47,18.8,18.8,0,0,1-6.89,1.24,18.5,18.5,0,0,1-6.82-1.24,16,16,0,0,1-5.39-3.47,15.65,15.65,0,0,1-3.56-5.31A17.43,17.43,0,0,1,416.62,203.71Zm6.16,0a13.4,13.4,0,0,0,.79,4.7,10.83,10.83,0,0,0,2.25,3.71,10.18,10.18,0,0,0,3.47,2.45,10.82,10.82,0,0,0,4.43.88,11,11,0,0,0,4.45-.88,10.26,10.26,0,0,0,3.49-2.45,11.15,11.15,0,0,0,2.25-3.71,13.63,13.63,0,0,0,.79-4.7,13.17,13.17,0,0,0-.79-4.59,11.28,11.28,0,0,0-2.23-3.69,10.3,10.3,0,0,0-3.46-2.48,11,11,0,0,0-4.5-.9,10.8,10.8,0,0,0-4.48.9,10.32,10.32,0,0,0-3.44,2.48,11.11,11.11,0,0,0-2.23,3.69A12.94,12.94,0,0,0,422.78,203.71Z"/><path d="M467.6,187.87H480a15.26,15.26,0,0,1,3.56.42,9,9,0,0,1,3.12,1.4,7.37,7.37,0,0,1,2.23,2.5,7.46,7.46,0,0,1,.86,3.69,6.52,6.52,0,0,1-1.53,4.45,8.52,8.52,0,0,1-4,2.52v.09a8.35,8.35,0,0,1,4.95,2.34,7,7,0,0,1,1.94,5.18,8.55,8.55,0,0,1-1,4.38,8.29,8.29,0,0,1-2.72,2.86,11.68,11.68,0,0,1-3.87,1.55,20.59,20.59,0,0,1-4.43.48H467.6Zm5.67,13h5a7.06,7.06,0,0,0,4.32-1.13,3.77,3.77,0,0,0,1.49-3.19,3.26,3.26,0,0,0-1.53-3.06,9.73,9.73,0,0,0-4.77-.9h-4.55Zm0,14.13h5.09a20,20,0,0,0,2.34-.16,7.73,7.73,0,0,0,2.31-.65,4.56,4.56,0,0,0,1.76-1.44,4.18,4.18,0,0,0,.7-2.52,3.71,3.71,0,0,0-1.71-3.51,10.62,10.62,0,0,0-5.18-1h-5.31Z"/><path d="M495.19,203.71a17.73,17.73,0,0,1,1.28-6.91,15.1,15.1,0,0,1,3.55-5.24,15.84,15.84,0,0,1,5.4-3.33,19.34,19.34,0,0,1,6.82-1.17,19.66,19.66,0,0,1,6.89,1.17,15.92,15.92,0,0,1,5.44,3.33,15,15,0,0,1,3.58,5.24,17.91,17.91,0,0,1,1.28,6.91,17.62,17.62,0,0,1-1.28,6.81,15.7,15.7,0,0,1-3.58,5.31,16.24,16.24,0,0,1-5.44,3.47,18.8,18.8,0,0,1-6.89,1.24,18.5,18.5,0,0,1-6.82-1.24,16.16,16.16,0,0,1-5.4-3.47,15.77,15.77,0,0,1-3.55-5.31A17.43,17.43,0,0,1,495.19,203.71Zm6.16,0a13.4,13.4,0,0,0,.79,4.7,10.83,10.83,0,0,0,2.25,3.71,10.24,10.24,0,0,0,3.46,2.45,11.67,11.67,0,0,0,8.89,0,10.26,10.26,0,0,0,3.49-2.45,11.15,11.15,0,0,0,2.25-3.71,13.63,13.63,0,0,0,.79-4.7,13.17,13.17,0,0,0-.79-4.59,11.28,11.28,0,0,0-2.23-3.69,10.3,10.3,0,0,0-3.46-2.48,11,11,0,0,0-4.5-.9,10.8,10.8,0,0,0-4.48.9,10.32,10.32,0,0,0-3.44,2.48,11.11,11.11,0,0,0-2.23,3.69A12.94,12.94,0,0,0,501.35,203.71Zm7.74,22.63a3.08,3.08,0,0,1,1-2.27,3.29,3.29,0,0,1,2.45-1,3.61,3.61,0,0,1,2.5.92,3.17,3.17,0,0,1,0,4.64,3.61,3.61,0,0,1-2.5.92,3.29,3.29,0,0,1-2.45-1A3.08,3.08,0,0,1,509.09,226.34Z"/><path d="M541.36,192.82h-9.77v-4.95h25.2v4.95H547v26.91h-5.67Z"/><path d="M576,192.82h-9.77v-4.95h25.2v4.95h-9.76v26.91H576Z"/><path d="M595.13,187.87H606.2a19.7,19.7,0,0,1,4.37.47,11,11,0,0,1,3.75,1.55,8.09,8.09,0,0,1,2.64,2.84,8.56,8.56,0,0,1,1,4.27,8.18,8.18,0,0,1-2,5.65,9.9,9.9,0,0,1-5.33,2.95l8.5,14.13h-6.84l-7.38-13.5H600.8v13.5h-5.67Zm10.31,13.72a16.56,16.56,0,0,0,2.43-.18,7,7,0,0,0,2.18-.67,4.36,4.36,0,0,0,1.6-1.42,4.11,4.11,0,0,0,.63-2.36,3.63,3.63,0,0,0-.59-2.14,4.3,4.3,0,0,0-1.48-1.33,6.26,6.26,0,0,0-2.05-.67,14.45,14.45,0,0,0-2.23-.18H600.8v9Z"/><path d="M633.43,187.87h4.9l13.73,31.86h-6.48l-3-7.29H628.79l-2.88,7.29h-6.34Zm-2.16-8.28a3,3,0,0,0,1.62,2.34,6.83,6.83,0,0,0,3,.63A7.17,7.17,0,0,0,639,182a3.46,3.46,0,0,0,1.62-2.43h3a6.75,6.75,0,0,1-2.41,4.9,8.4,8.4,0,0,1-5.28,1.58,8.58,8.58,0,0,1-5.31-1.56,6.3,6.3,0,0,1-2.3-4.92Zm9.36,28-4.91-13-5,13ZM636,174.5h5.76L637,180.13h-3.87Z"/><path d="M655.21,187.87h7.51l14.81,23.85h.09V187.87h5.67v31.86h-7.2L661,195.11h-.09v24.62h-5.67Z"/><path d="M718.21,218.06a24.48,24.48,0,0,1-5.34,1.82,30.27,30.27,0,0,1-6.68.66,19.49,19.49,0,0,1-7.06-1.24,16.17,16.17,0,0,1-5.49-3.47,15.56,15.56,0,0,1-3.58-5.31,18.75,18.75,0,0,1,0-13.72,15.34,15.34,0,0,1,3.65-5.24,16.15,16.15,0,0,1,5.47-3.33,19.49,19.49,0,0,1,6.84-1.17,21,21,0,0,1,7,1.1,14.16,14.16,0,0,1,5.11,2.9l-3.91,4.23a9.7,9.7,0,0,0-3.4-2.29,11.85,11.85,0,0,0-4.75-.95,11.26,11.26,0,0,0-4.57.9,10.28,10.28,0,0,0-3.48,2.48,11.11,11.11,0,0,0-2.23,3.69,12.94,12.94,0,0,0-.79,4.59,13.4,13.4,0,0,0,.79,4.7,10.83,10.83,0,0,0,2.25,3.71,10,10,0,0,0,3.55,2.45,12.12,12.12,0,0,0,4.75.88,16.45,16.45,0,0,0,6.35-1.12v-8.1H706v-4.68h12.2Z"/><path d="M736.34,187.87h11.3a25,25,0,0,1,6.25.81,16.27,16.27,0,0,1,5.67,2.67,14,14,0,0,1,4.1,4.91,16.25,16.25,0,0,1,1.57,7.54,15.36,15.36,0,0,1-1.57,7.2,14.75,14.75,0,0,1-4.1,4.95,17,17,0,0,1-5.67,2.85,22,22,0,0,1-6.25.93h-11.3Zm10.4,26.91a19.53,19.53,0,0,0,4.41-.52,11.53,11.53,0,0,0,4-1.76,9.33,9.33,0,0,0,2.9-3.35,11.31,11.31,0,0,0,1.13-5.35,12.06,12.06,0,0,0-1.13-5.58,9.1,9.1,0,0,0-2.9-3.38,10.82,10.82,0,0,0-4-1.66,22,22,0,0,0-4.41-.45H742v22.05Z"/><path d="M779.63,187.87h4.91l13.72,31.86h-6.48l-3-7.29H775l-2.88,7.29h-6.35Zm7.2,19.71-4.9-13-5,13Z"/><path d="M55.05,258.26h.07L61.31,237h3l6.2,21.31h.07l6-21.31H79.3L72,261.73H69.05l-6.23-21.28h-.07l-6.23,21.28H53.58L46.26,237h2.66Z"/><path d="M83.08,237H85.6v10.74H99.11V237h2.52v24.78H99.11V250H85.6v11.73H83.08Z"/><path d="M110.73,261.73h-2.52V237h2.52Z"/><path d="M125.26,261.73h-2.52V239.19h-8.3V237h19.11v2.24h-8.29Z"/><path d="M139.78,259.49h13.27v2.24H137.26V237h15.37v2.24H139.78v8.5h12v2.24h-12Z"/><path d="M187.59,257.7a10.54,10.54,0,0,1-1.52,1.79A10,10,0,0,1,184,261a11.26,11.26,0,0,1-2.59,1,12,12,0,0,1-3.09.38,13.5,13.5,0,0,1-5.18-1,12.15,12.15,0,0,1-6.78-6.83,14.5,14.5,0,0,1,0-10.43,12.26,12.26,0,0,1,6.81-6.82,13.1,13.1,0,0,1,5.13-1,12.47,12.47,0,0,1,2.67.28,12.75,12.75,0,0,1,2.47.8,10.37,10.37,0,0,1,2.1,1.24,7.16,7.16,0,0,1,1.58,1.63l-2.1,1.54a6.51,6.51,0,0,0-1-1.19,6.82,6.82,0,0,0-1.52-1.05,9.23,9.23,0,0,0-1.91-.73,8.33,8.33,0,0,0-2.22-.28,10.29,10.29,0,0,0-4.32.87,9.72,9.72,0,0,0-3.24,2.35,10.34,10.34,0,0,0-2,3.44,12,12,0,0,0-.7,4.12,11.77,11.77,0,0,0,.72,4.11,10.45,10.45,0,0,0,2.05,3.44,9.58,9.58,0,0,0,3.23,2.35,10.06,10.06,0,0,0,4.29.88,9.76,9.76,0,0,0,4.06-.88,7.7,7.7,0,0,0,3.22-2.8Z"/><path d="M201.07,262.36a9.53,9.53,0,0,1-4.59-1,8.14,8.14,0,0,1-2.83-2.43,9,9,0,0,1-1.46-3.2,14.44,14.44,0,0,1-.4-3.27V237h2.52v15.26a12.35,12.35,0,0,0,.35,2.92,7.23,7.23,0,0,0,1.14,2.52,5.84,5.84,0,0,0,2.08,1.78,7.7,7.7,0,0,0,6.37,0,5.84,5.84,0,0,0,2.08-1.78,7.23,7.23,0,0,0,1.14-2.52,12.35,12.35,0,0,0,.35-2.92V237h2.52v15.54a14.44,14.44,0,0,1-.4,3.27,9,9,0,0,1-1.45,3.2,8.16,8.16,0,0,1-2.86,2.43A9.51,9.51,0,0,1,201.07,262.36Z"/><path d="M228.79,240.94a6.14,6.14,0,0,0-2.07-1.81,6.81,6.81,0,0,0-4.9-.4,5.45,5.45,0,0,0-1.72.86,4.47,4.47,0,0,0-1.24,1.45,4.33,4.33,0,0,0-.47,2.07,3.87,3.87,0,0,0,.45,2,4.44,4.44,0,0,0,1.21,1.31,6.91,6.91,0,0,0,1.71.89c.64.23,1.31.47,2,.7.86.28,1.72.58,2.6.91a9.34,9.34,0,0,1,2.35,1.28,6.11,6.11,0,0,1,1.71,2,6.37,6.37,0,0,1,.66,3.07,6.84,6.84,0,0,1-.7,3.2,6.68,6.68,0,0,1-1.84,2.22,7.65,7.65,0,0,1-2.58,1.3,10.53,10.53,0,0,1-2.93.42,11.43,11.43,0,0,1-2.24-.23,10.37,10.37,0,0,1-2.13-.68,8.72,8.72,0,0,1-1.89-1.16,8.4,8.4,0,0,1-1.54-1.61l2.17-1.61a6.58,6.58,0,0,0,2.26,2.22,6.33,6.33,0,0,0,3.41.9,6.51,6.51,0,0,0,1.92-.3,5.31,5.31,0,0,0,1.77-.91,5,5,0,0,0,1.3-1.51,4.64,4.64,0,0,0,0-4.23,4.63,4.63,0,0,0-1.35-1.44,8.48,8.48,0,0,0-1.93-1c-.72-.26-1.48-.51-2.27-.77s-1.62-.55-2.42-.87a8.44,8.44,0,0,1-2.13-1.28,5.94,5.94,0,0,1-1.52-1.94,7.09,7.09,0,0,1,.14-5.92,6.52,6.52,0,0,1,1.87-2.13A7.93,7.93,0,0,1,221,236.7a10.32,10.32,0,0,1,2.77-.38,9.42,9.42,0,0,1,4.3.89,7.35,7.35,0,0,1,2.7,2.12Z"/><path d="M236.52,237H239v10.74h13.51V237h2.52v24.78h-2.52V250H239v11.73h-2.52Z"/><path d="M264.17,261.73h-2.52V237h2.52Z"/><path d="M295.25,249.34a13.62,13.62,0,0,1-1,5.21,12.37,12.37,0,0,1-2.71,4.11,12.56,12.56,0,0,1-4.1,2.72,13.89,13.89,0,0,1-10.25,0,12.56,12.56,0,0,1-4.1-2.72,12.37,12.37,0,0,1-2.71-4.11,14.37,14.37,0,0,1,0-10.43,12.26,12.26,0,0,1,6.81-6.82,13.89,13.89,0,0,1,10.25,0,12.26,12.26,0,0,1,6.81,6.82A13.67,13.67,0,0,1,295.25,249.34Zm-2.66,0a12.09,12.09,0,0,0-.7-4.12,10.34,10.34,0,0,0-2-3.44,9.75,9.75,0,0,0-3.24-2.36,11,11,0,0,0-8.57,0,9.65,9.65,0,0,0-3.24,2.36,10.34,10.34,0,0,0-2,3.44,12.5,12.5,0,0,0,0,8.25,10.15,10.15,0,0,0,2,3.42,9.74,9.74,0,0,0,3.24,2.34,10.87,10.87,0,0,0,8.57,0,9.84,9.84,0,0,0,3.24-2.34,10.15,10.15,0,0,0,2-3.42A12.11,12.11,0,0,0,292.59,249.35Z"/><path d="M318.07,258.05h.07V237h2.52v24.78h-3.15l-14.42-21.32H303v21.32H300.5V237h3.15Z"/><path d="M338.51,261.73H336V237h14.94v2.24H338.51v8.57h11.55V250H338.51Z"/><path d="M353.59,261.73h-2.76L361.54,237H364l10.64,24.78h-2.8l-2.73-6.51H356.29Zm3.64-8.82h10.92l-5.46-13.16Z"/><path d="M398.5,257.7a10.54,10.54,0,0,1-1.52,1.79,10.29,10.29,0,0,1-2.07,1.48,11.26,11.26,0,0,1-2.59,1,12.08,12.08,0,0,1-3.1.38,13.57,13.57,0,0,1-5.18-1,12.17,12.17,0,0,1-6.77-6.83,14.5,14.5,0,0,1,0-10.43,12.26,12.26,0,0,1,6.81-6.82,13.08,13.08,0,0,1,5.12-1,12.57,12.57,0,0,1,2.68.28,12.75,12.75,0,0,1,2.47.8,10.37,10.37,0,0,1,2.1,1.24,7.11,7.11,0,0,1,1.57,1.63l-2.1,1.54a6.07,6.07,0,0,0-1-1.19,6.82,6.82,0,0,0-1.52-1.05,9.23,9.23,0,0,0-1.91-.73,8.33,8.33,0,0,0-2.22-.28,10.29,10.29,0,0,0-4.32.87,9.72,9.72,0,0,0-3.24,2.35,10.34,10.34,0,0,0-2,3.44,12,12,0,0,0-.7,4.12,11.77,11.77,0,0,0,.72,4.11,10.6,10.6,0,0,0,2,3.44,9.72,9.72,0,0,0,3.24,2.35,10.06,10.06,0,0,0,4.29.88,9.76,9.76,0,0,0,4.06-.88,7.7,7.7,0,0,0,3.22-2.8Z"/><path d="M405.36,261.73h-2.52V237h2.52Z"/><path d="M411.76,261.73H409L419.71,237h2.45l10.64,24.78H430l-2.73-6.51H414.46Zm3.64-8.82h10.92l-5.46-13.16Z"/><path d="M439,259.49h11.55v2.24H436.44V237H439Z"/><path d="M464.72,261.73H462.2V237h14.94v2.24H464.72v8.57h11.55V250H464.72Z"/><path d="M506.37,249.34a13.62,13.62,0,0,1-1,5.21,12.37,12.37,0,0,1-2.71,4.11,12.56,12.56,0,0,1-4.1,2.72,13.89,13.89,0,0,1-10.25,0,12.56,12.56,0,0,1-4.1-2.72,12.37,12.37,0,0,1-2.71-4.11,14.37,14.37,0,0,1,0-10.43,12.26,12.26,0,0,1,6.81-6.82,13.89,13.89,0,0,1,10.25,0,12.26,12.26,0,0,1,6.81,6.82A13.67,13.67,0,0,1,506.37,249.34Zm-2.66,0a12.09,12.09,0,0,0-.7-4.12,10.34,10.34,0,0,0-2-3.44,9.75,9.75,0,0,0-3.24-2.36,11,11,0,0,0-8.57,0,9.65,9.65,0,0,0-3.24,2.36,10.34,10.34,0,0,0-2,3.44,12.5,12.5,0,0,0,0,8.25,10.15,10.15,0,0,0,2,3.42,9.74,9.74,0,0,0,3.24,2.34,10.87,10.87,0,0,0,8.57,0A9.84,9.84,0,0,0,501,256.9a10.15,10.15,0,0,0,2-3.42A12.11,12.11,0,0,0,503.71,249.35Z"/><path d="M510.81,261.73h-2.76L518.76,237h2.45l10.64,24.78h-2.8l-2.73-6.51H513.51Zm3.64-8.82h10.92l-5.46-13.16Z"/><path d="M547.74,257.46h0l8.3-20.51h3.85v24.78H557.4V240.2h-.07l-9,21.53H547l-9-21.53H538v21.53h-2.52V237h3.85Z"/><path d="M596.11,257.7a10.54,10.54,0,0,1-1.52,1.79,10.29,10.29,0,0,1-2.07,1.48,11.26,11.26,0,0,1-2.59,1,12.08,12.08,0,0,1-3.1.38,13.57,13.57,0,0,1-5.18-1,12.17,12.17,0,0,1-6.77-6.83,14.5,14.5,0,0,1,0-10.43,12.26,12.26,0,0,1,6.81-6.82,13.08,13.08,0,0,1,5.12-1,12.57,12.57,0,0,1,2.68.28,12.75,12.75,0,0,1,2.47.8,10.37,10.37,0,0,1,2.1,1.24,7.11,7.11,0,0,1,1.57,1.63l-2.1,1.54a6.07,6.07,0,0,0-1-1.19,6.82,6.82,0,0,0-1.52-1.05,9.23,9.23,0,0,0-1.91-.73,8.33,8.33,0,0,0-2.22-.28,10.29,10.29,0,0,0-4.32.87,9.53,9.53,0,0,0-3.24,2.35,10.34,10.34,0,0,0-2,3.44,12,12,0,0,0-.7,4.12,11.77,11.77,0,0,0,.72,4.11,10.43,10.43,0,0,0,2,3.44,9.72,9.72,0,0,0,3.24,2.35,10.06,10.06,0,0,0,4.29.88,9.76,9.76,0,0,0,4.06-.88,7.7,7.7,0,0,0,3.22-2.8Z"/><path d="M603,259.49h11.55v2.24H600.45V237H603Z"/><path d="M620.82,259.49h13.26v2.24H618.3V237h15.36v2.24H620.82v8.5h12v2.24h-12Z"/><path d="M638.84,261.73h-2.76L646.79,237h2.45l10.64,24.78h-2.8l-2.73-6.51H641.54Zm3.64-8.82H653.4l-5.46-13.16Z"/><path d="M681.09,258.05h.07V237h2.52v24.78h-3.15l-14.42-21.32H666v21.32h-2.52V237h3.15Z"/><path d="M702.26,240.94a6,6,0,0,0-2.06-1.81,6.81,6.81,0,0,0-4.9-.4,5.45,5.45,0,0,0-1.72.86,4.36,4.36,0,0,0-1.24,1.45,4.22,4.22,0,0,0-.47,2.07,3.87,3.87,0,0,0,.45,2,4.27,4.27,0,0,0,1.2,1.31,7.17,7.17,0,0,0,1.72.89c.64.23,1.3.47,2,.7.86.28,1.73.58,2.6.91a9.23,9.23,0,0,1,2.36,1.28,6.11,6.11,0,0,1,1.71,2,6.37,6.37,0,0,1,.66,3.07,6.59,6.59,0,0,1-2.54,5.42,7.79,7.79,0,0,1-2.59,1.3,10.41,10.41,0,0,1-2.92.42,11.43,11.43,0,0,1-2.24-.23,10.18,10.18,0,0,1-2.13-.68,8.72,8.72,0,0,1-1.89-1.16,8.1,8.1,0,0,1-1.54-1.61l2.17-1.61a6.5,6.5,0,0,0,2.26,2.22,6.31,6.31,0,0,0,3.41.9,6.51,6.51,0,0,0,1.92-.3,5.41,5.41,0,0,0,1.77-.91,5,5,0,0,0,1.29-1.51,4.64,4.64,0,0,0,0-4.23,4.49,4.49,0,0,0-1.34-1.44,8.48,8.48,0,0,0-1.93-1c-.72-.26-1.48-.51-2.27-.77s-1.62-.55-2.42-.87a8.44,8.44,0,0,1-2.13-1.28,6.1,6.1,0,0,1-1.53-1.94,7.19,7.19,0,0,1,.14-5.92,6.55,6.55,0,0,1,1.88-2.13,7.93,7.93,0,0,1,2.55-1.23,10.32,10.32,0,0,1,2.77-.38,9.45,9.45,0,0,1,4.3.89,7.35,7.35,0,0,1,2.7,2.12Z"/><path d="M712.52,259.49h13.26v2.24H710V237h15.36v2.24H712.52v8.5h12v2.24h-12Z"/><path d="M733.24,261.73h-2.52V237H738a14.9,14.9,0,0,1,3.37.35,7.66,7.66,0,0,1,2.7,1.13,5.4,5.4,0,0,1,1.77,2,6.85,6.85,0,0,1,.63,3.08,6.05,6.05,0,0,1-1.82,4.43,6.42,6.42,0,0,1-2,1.31,8.48,8.48,0,0,1-2.52.63l7.25,11.8H744.3l-6.86-11.59h-4.2Zm0-13.76h4.37a8.45,8.45,0,0,0,4.69-1.1,3.72,3.72,0,0,0,1.65-3.31,4.3,4.3,0,0,0-.46-2.06,3.68,3.68,0,0,0-1.26-1.37,5.7,5.7,0,0,0-2-.77,12.56,12.56,0,0,0-2.55-.24h-4.48Z"/><path d="M55.54,326.06l-4.9,4-2.45-2.9L55.92,321h3.82v24.78h-4.2Z"/><path d="M69.54,341.88l9.55-9.38a11.49,11.49,0,0,0,1.84-2.26,5,5,0,0,0,.68-2.61,3.56,3.56,0,0,0-1.14-2.78,4,4,0,0,0-2.81-1,3.68,3.68,0,0,0-2.87,1.2,5.47,5.47,0,0,0-1.33,3l-4.1-.63a7.68,7.68,0,0,1,.88-2.83A7.8,7.8,0,0,1,72,322.35a8.22,8.22,0,0,1,2.54-1.49,9,9,0,0,1,3.17-.54,10.6,10.6,0,0,1,3.09.45,7.88,7.88,0,0,1,2.65,1.38A6.73,6.73,0,0,1,86,327.56a7.54,7.54,0,0,1-.32,2.22,8.51,8.51,0,0,1-.86,2,12.1,12.1,0,0,1-1.26,1.73A17.81,17.81,0,0,1,82,335.05l-7.14,6.83H86v3.85H69.54Z"/><path d="M107.9,333.34a23.64,23.64,0,0,1-.58,5.42,13.13,13.13,0,0,1-1.68,4.1,7.93,7.93,0,0,1-2.73,2.59,8.12,8.12,0,0,1-7.47,0,8,8,0,0,1-2.77-2.59,12.69,12.69,0,0,1-1.7-4.1,26.1,26.1,0,0,1,0-10.85,12.63,12.63,0,0,1,1.7-4.09,7.86,7.86,0,0,1,2.77-2.59,8.12,8.12,0,0,1,7.47,0,7.83,7.83,0,0,1,2.73,2.59,13.07,13.07,0,0,1,1.68,4.09A23.67,23.67,0,0,1,107.9,333.34Zm-4.31,0a29.44,29.44,0,0,0-.16-2.94,14.15,14.15,0,0,0-.63-3.12,6.9,6.9,0,0,0-1.34-2.47,3.16,3.16,0,0,0-4.59,0,7.07,7.07,0,0,0-1.35,2.47,15.4,15.4,0,0,0-.64,3.12,27.13,27.13,0,0,0-.18,2.94,27.43,27.43,0,0,0,.18,2.94,14.88,14.88,0,0,0,.64,3.08,7.15,7.15,0,0,0,1.35,2.43,3.13,3.13,0,0,0,4.59,0,7,7,0,0,0,1.34-2.43,13.68,13.68,0,0,0,.63-3.08C103.54,335.18,103.59,334.2,103.59,333.34Z"/><path d="M112.55,321h6.9l6.44,17.6h.1l6.37-17.6h6.93v24.78h-4.37V325.81h-.07l-7.53,19.92h-3.08l-7.42-19.92h-.07v19.92h-4.2Z"/><path d="M144.75,321h4.41v20.86H159.7v3.92H144.75Z"/><g id="_Rectangle_" data-name="&lt;Rectangle&gt;"><rect class="cls-1" x="46" y="27.79" width="383" height="113.11"/></g><path class="cls-2" d="M102.18,104.18V71.54l-8.28,6.4-5.46-7.47,14.62-10.73h9.6v44.44Z"/><path class="cls-2" d="M129.23,104.18V95.4l17.33-15.66a16.45,16.45,0,0,0,2.63-3.2,6.75,6.75,0,0,0,1-3.63,5.11,5.11,0,0,0-1.51-3.85,6,6,0,0,0-8.32.38,8.39,8.39,0,0,0-2,4.86l-10.11-1.38a16,16,0,0,1,1.85-6,15.76,15.76,0,0,1,3.74-4.51,16,16,0,0,1,5.18-2.84,19.05,19.05,0,0,1,6.18-1,21.93,21.93,0,0,1,6,.81,15.64,15.64,0,0,1,5.15,2.51A12.67,12.67,0,0,1,160,66.14a12.83,12.83,0,0,1,1.35,6,13.62,13.62,0,0,1-.63,4.29A14.43,14.43,0,0,1,159,80a20.76,20.76,0,0,1-2.51,3c-.94.94-1.91,1.87-2.92,2.79L143.23,95h18.14v9.17Z"/><path class="cls-2" d="M202,89.49a16.09,16.09,0,0,1-1.44,7.06,14.23,14.23,0,0,1-3.86,4.93,17,17,0,0,1-5.5,2.92,21.13,21.13,0,0,1-6.33,1,20.48,20.48,0,0,1-5.75-.79,18.45,18.45,0,0,1-5-2.22,15.2,15.2,0,0,1-3.82-3.55A14.06,14.06,0,0,1,168,94.07l9.6-2.95A7.48,7.48,0,0,0,180.23,95a7.55,7.55,0,0,0,9.23-.13,5.91,5.91,0,0,0,2-4.83,6.11,6.11,0,0,0-.81-3.26,6.45,6.45,0,0,0-2.11-2.11,8.74,8.74,0,0,0-2.91-1.09,17.26,17.26,0,0,0-3.27-.32,31.47,31.47,0,0,0-5.43.54,30.59,30.59,0,0,0-5.43,1.41l1.07-25.42h27.24v9H181.89l-.37,7a12.75,12.75,0,0,1,2.22-.35c.82-.06,1.56-.09,2.23-.09a21.76,21.76,0,0,1,6.28.88,14.3,14.3,0,0,1,5.11,2.66,12.69,12.69,0,0,1,3.42,4.43A14.13,14.13,0,0,1,202,89.49Z"/><path class="cls-2" d="M215.78,112h-8.47L212,94.13h9.85Z"/><path class="cls-2" d="M262.54,81.83a41.49,41.49,0,0,1-.94,9,23.09,23.09,0,0,1-3,7.5,15,15,0,0,1-13.37,7.06,15.21,15.21,0,0,1-13.46-7.06,22.49,22.49,0,0,1-3-7.5,42.12,42.12,0,0,1-.94-9,41.54,41.54,0,0,1,.94-8.94,21.67,21.67,0,0,1,3-7.41,15.65,15.65,0,0,1,5.43-5.05,16,16,0,0,1,8-1.88,15.81,15.81,0,0,1,8,1.88,15.47,15.47,0,0,1,5.37,5.05,22.23,22.23,0,0,1,3,7.41A40.92,40.92,0,0,1,262.54,81.83Zm-10.79,0c0-1.38-.09-2.91-.25-4.58a23.23,23.23,0,0,0-.95-4.68,10.34,10.34,0,0,0-2-3.64,4.26,4.26,0,0,0-3.36-1.47,4.35,4.35,0,0,0-3.39,1.47,10.3,10.3,0,0,0-2,3.64,21.33,21.33,0,0,0-1,4.68,45.48,45.48,0,0,0-.25,4.58c0,1.42.08,3,.25,4.68a21.15,21.15,0,0,0,1,4.7,10.25,10.25,0,0,0,2,3.65,4.35,4.35,0,0,0,3.39,1.47,4.26,4.26,0,0,0,3.36-1.47,10.3,10.3,0,0,0,2-3.65,23,23,0,0,0,.95-4.7C251.66,84.81,251.75,83.25,251.75,81.83Z"/><path class="cls-2" d="M303.09,81.83a42.12,42.12,0,0,1-.94,9,23.1,23.1,0,0,1-3,7.5,15,15,0,0,1-13.37,7.06,15.21,15.21,0,0,1-13.46-7.06,22.69,22.69,0,0,1-3-7.5,41.49,41.49,0,0,1-.94-9,40.92,40.92,0,0,1,.94-8.94,21.85,21.85,0,0,1,3-7.41,15.65,15.65,0,0,1,5.43-5.05,18,18,0,0,1,16,0,15.52,15.52,0,0,1,5.36,5.05,22.24,22.24,0,0,1,3,7.41A41.54,41.54,0,0,1,303.09,81.83Zm-10.8,0a45.48,45.48,0,0,0-.25-4.58,23.23,23.23,0,0,0-.94-4.68,10.2,10.2,0,0,0-2-3.64,4.25,4.25,0,0,0-3.36-1.47,4.31,4.31,0,0,0-3.38,1.47,10.3,10.3,0,0,0-2,3.64,21.33,21.33,0,0,0-1,4.68c-.16,1.67-.25,3.2-.25,4.58s.09,3,.25,4.68a21.14,21.14,0,0,0,1,4.7,10.25,10.25,0,0,0,2,3.65,4.31,4.31,0,0,0,3.38,1.47,4.25,4.25,0,0,0,3.36-1.47,10.16,10.16,0,0,0,2-3.65,23,23,0,0,0,.94-4.7C292.21,84.81,292.29,83.25,292.29,81.83Z"/><path class="cls-2" d="M343.63,81.83a41.49,41.49,0,0,1-.94,9,23.09,23.09,0,0,1-3,7.5,15,15,0,0,1-13.37,7.06,15.21,15.21,0,0,1-13.46-7.06,22.49,22.49,0,0,1-3.05-7.5,42.12,42.12,0,0,1-.94-9,41.54,41.54,0,0,1,.94-8.94,21.67,21.67,0,0,1,3.05-7.41,15.65,15.65,0,0,1,5.43-5.05,16,16,0,0,1,8-1.88,15.81,15.81,0,0,1,8,1.88,15.47,15.47,0,0,1,5.37,5.05,22.23,22.23,0,0,1,3,7.41A40.92,40.92,0,0,1,343.63,81.83Zm-10.79,0c0-1.38-.09-2.91-.25-4.58a23.23,23.23,0,0,0-.95-4.68,10.34,10.34,0,0,0-2-3.64,4.26,4.26,0,0,0-3.36-1.47,4.35,4.35,0,0,0-3.39,1.47,10.3,10.3,0,0,0-2,3.64,21.33,21.33,0,0,0-1,4.68,45.48,45.48,0,0,0-.25,4.58c0,1.42.08,3,.25,4.68a21.15,21.15,0,0,0,1,4.7,10.25,10.25,0,0,0,2,3.65,4.35,4.35,0,0,0,3.39,1.47,4.26,4.26,0,0,0,3.36-1.47,10.3,10.3,0,0,0,2-3.65,23,23,0,0,0,.95-4.7C332.75,84.81,332.84,83.25,332.84,81.83Z"/><path class="cls-2" d="M374.2,104.18V100.1h-.13a9.77,9.77,0,0,1-4.3,3.67,14.11,14.11,0,0,1-5.93,1.28,13.83,13.83,0,0,1-6.27-1.38,14.33,14.33,0,0,1-4.68-3.67A16.08,16.08,0,0,1,350,94.7a19.71,19.71,0,0,1-1-6.28,18.86,18.86,0,0,1,1-6.24A16.3,16.3,0,0,1,353,76.94,13.78,13.78,0,0,1,363.72,72a11.88,11.88,0,0,1,5.83,1.32,13,13,0,0,1,3.71,2.89h.12V68.4H364V62.81h9.35V56.73h10.3v6.08h2.88V68.4h-2.88v35.78Zm-.38-15.7a8.63,8.63,0,0,0-.53-3A8.38,8.38,0,0,0,371.78,83a7.54,7.54,0,0,0-2.35-1.82,6.94,6.94,0,0,0-3.14-.69,7.08,7.08,0,0,0-3.2.69,7.28,7.28,0,0,0-2.32,1.79,7.44,7.44,0,0,0-1.42,2.54,9.58,9.58,0,0,0-.47,3,9.82,9.82,0,0,0,.47,3A7.77,7.77,0,0,0,360.77,94a6.93,6.93,0,0,0,5.52,2.51,6.94,6.94,0,0,0,3.14-.69A7.54,7.54,0,0,0,371.78,94a8.43,8.43,0,0,0,1.51-2.58A8.54,8.54,0,0,0,373.82,88.48Z"/></svg>