<?xml version="1.0" encoding="utf-8"?>
<!-- Generator: Adobe Illustrator 22.1.0, SVG Export Plug-In . SVG Version: 6.00 Build 0)  -->
<svg version="1.1" id="Layer_1" xmlns="http://www.w3.org/2000/svg" xmlns:xlink="http://www.w3.org/1999/xlink" x="0px" y="0px"
	 viewBox="0 0 2006 720.3" style="enable-background:new 0 0 2006 720.3;" xml:space="preserve">
<style type="text/css">
	.st0{fill:#C90202;}
	.st1{fill:#FFFFFF;}
</style>
<title>Image convert 1 mua 6 tặng 1</title>
<path d="M175.3,534.9c0,15.2-12,23.9-35.1,23.9H95v-87.6h42.8c21.9,0,33.2,9.1,33.2,22.8c0.2,8.1-4.4,15.6-11.6,19.3
	C169.1,516.4,175.3,523.9,175.3,534.9z M115.1,486.4v20.7h20.1c9.9,0,15.3-3.5,15.3-10.4s-5.4-10.3-15.3-10.3L115.1,486.4
	L115.1,486.4z M154.9,532.8c0-7.4-5.6-10.9-16.1-10.9h-23.7v21.7h23.7C149.3,543.5,154.9,540.3,154.9,532.8z"/>
<path d="M190,520.2v-49.1h20.3v48.3c0,16.7,7.3,23.5,19.5,23.5s19.5-6.9,19.5-23.5v-48.3h20v49.1c0,25.8-14.8,40.1-39.7,40.1
	S190,546,190,520.2z M235.3,446h21l-22.7,18h-15.2L235.3,446z"/>
<path d="M306,487.7h-28v-16.5h76.4v16.5h-28.1v71.1H306V487.7z"/>
<path d="M432.6,524.4l-11.8,12.3v22.2h-20.1v-87.6h20.1v40.9l38.8-40.9h22.5l-36.3,39.1l38.4,48.6h-23.7L432.6,524.4z"/>
<path d="M561.2,542.5v16.3h-67.9v-87.6h66.2v16.3h-46.1v19h40.7v15.8h-40.7v20.3L561.2,542.5z M517.2,448.3l-4-7.9
	c3.9-2.9,8.7-4.4,13.5-4.3c8.9,0,15,5.4,15,13.4c0,7.1-3.9,12.3-11.5,15.8l-6.1-6.5c4.9-2.2,6.4-4.8,6.4-7.6c0-3.1-2.4-5.3-5.9-5.3
	C521.9,445.9,519.4,446.8,517.2,448.3L517.2,448.3z"/>
<path d="M692.5,558.8l-0.1-52.6l-25.8,43.3h-9.1l-25.7-42.2v51.5h-19v-87.6h16.8l32.8,54.5l32.3-54.5h16.7l0.2,87.6L692.5,558.8
	L692.5,558.8z"/>
<path d="M790,540h-40.7l-7.8,18.8h-20.8l39.1-87.6h20l39.2,87.6h-21.2L790,540z M746.8,449.7h11.8c0.5,3.5,5,5.9,11.3,5.9
	s10.8-2.4,11.3-5.9H793c-0.9,9.4-10.1,15.3-23,15.3S747.7,459.2,746.8,449.7L746.8,449.7z M783.6,524.6l-13.9-33.5l-13.9,33.5H783.6
	z M773.3,446h-14.2l13.9-15.1h19.9L773.3,446z"/>
<path d="M842,487.7h-28v-16.5h76.4v16.5h-28v71.1H842V487.7z"/>
<path d="M936.6,471.2h20.3v71.1h44v16.5h-64.3V471.2z"/>
<path d="M1070.7,540H1030l-7.8,18.8h-20.8l39.1-87.6h20l39.2,87.6h-21.3L1070.7,540z M1039.7,464h-14.3l16.5-18h17.3l16.5,18h-14.3
	l-10.9-9.5L1039.7,464z M1064.4,524.6l-13.9-33.5l-13.9,33.5H1064.4z"/>
<path d="M1106.3,520.2v-49.1h20.3v48.3c0,16.7,7.3,23.5,19.5,23.5s19.5-6.9,19.5-23.5v-48.3h20v49.1c0,25.8-14.8,40.1-39.7,40.1
	S1106.3,546,1106.3,520.2z"/>
<path d="M1259.3,487.7h-28v-16.5h76.4v16.5h-28v71.1h-20.3L1259.3,487.7z"/>
<path d="M1374.3,558.8l-16.9-24.4h-18.7v24.4h-20.3v-87.6h37.9c23.4,0,38.1,12.1,38.1,31.8c0,13.1-6.6,22.8-18,27.7l19.7,28.2
	L1374.3,558.8L1374.3,558.8z M1355.3,487.7h-16.5v30.5h16.5c12.4,0,18.7-5.8,18.7-15.3C1374,493.5,1367.7,487.7,1355.3,487.7
	L1355.3,487.7z"/>
<path d="M1500.9,515c0,26.2-20.4,45.3-48,45.3S1405,541,1405,515c0-26,20.3-45.3,48-45.3S1500.9,488.8,1500.9,515z M1480.4,515
	c0-16.6-11.8-28-27.4-28s-27.4,11.4-27.4,28c0,16.7,11.8,28,27.4,28S1480.4,531.6,1480.4,515z M1442,464h-14.3l16.5-18h17.3l16.5,18
	h-14.3l-10.9-9.5L1442,464z"/>
<path d="M1516.2,471.2h20.3v87.6h-20.3V471.2z"/>
<path d="M129.1,624.7c0,7.6-5.7,11.9-16.9,11.9h-21v-44.1H111c10.1,0,15.8,4.3,15.8,11.4c0.2,4.2-2.2,8-5.9,9.8
	C125.8,615.2,129.1,618.9,129.1,624.7z M97.5,597.6v14.1h12.9c6.4,0,10.1-2.4,10.1-7.1s-3.7-7.1-10.1-7.1L97.5,597.6L97.5,597.6z
	 M122.8,624.2c0-5.1-3.8-7.4-10.8-7.4H97.5v14.7H112C119,631.5,122.8,629.3,122.8,624.2L122.8,624.2z"/>
<path d="M170.9,631.2v5.5h-32v-44.1H170v5.5h-24.8v13.5h22.1v5.3h-22.1v14.2L170.9,631.2z"/>
<path d="M209.2,625.6h-23.4l-4.9,11h-6.5l20-44.1h6.2l20,44.1H214L209.2,625.6z M207,620.6l-9.5-21.6l-9.5,21.6H207z"/>
<path d="M225.9,617.6v-25.1h6.3v24.8c0,9.8,4.5,14.2,12.4,14.2s12.5-4.4,12.5-14.2v-24.8h6.1v25.1c0,12.8-7,19.5-18.6,19.5
	S225.9,630.4,225.9,617.6z"/>
<path d="M284,598h-15.1v-5.5h36.5v5.5h-15.1v38.6H284V598z"/>
<path d="M328.6,621.4v15.2h-6.2v-15.4l-17.5-28.7h6.7l14.1,23.2l14.2-23.2h6.2L328.6,621.4z"/>
<path d="M378.2,598h-15.1v-5.5h36.5v5.5h-15.1v38.6h-6.2L378.2,598z"/>
<path d="M402.2,614.6c0-12.9,10-22.5,23.5-22.5s23.4,9.6,23.4,22.5s-10,22.6-23.4,22.6S402.2,627.5,402.2,614.6z M442.8,614.6
	c0-9.8-7.3-17-17.1-17s-17.2,7.2-17.2,17s7.3,17,17.2,17S442.8,624.3,442.8,614.6L442.8,614.6z"/>
<path d="M506.2,614.3h6v17.2c-4.4,3.7-10.5,5.6-16.7,5.6c-13.5,0-23.5-9.5-23.5-22.6s10-22.6,23.7-22.6c7,0,12.9,2.3,17,6.8
	l-3.9,3.9c-3.4-3.4-8-5.2-12.8-5.1c-10.2,0-17.6,7.1-17.6,17s7.4,17,17.5,17c3.7,0.1,7.2-0.9,10.3-2.8V614.3z"/>
<path d="M520.7,614.6c0-12.9,10-22.5,23.5-22.5s23.4,9.6,23.4,22.5s-10,22.6-23.4,22.6S520.7,627.5,520.7,614.6z M561.3,614.6
	c0-9.8-7.3-17-17.1-17s-17.2,7.2-17.2,17s7.3,17,17.2,17S561.3,624.3,561.3,614.6L561.3,614.6z"/>
<path d="M587,630.8l3.7-4.3c2.4,3.4,5.5,5.2,9.2,5.2c5,0,7.6-3,7.6-9V598h-16v-5.5h22.2v29.9c0,9.8-4.8,14.7-13.8,14.7
	C594.8,637.3,590,634.9,587,630.8z"/>
<path d="M658.5,631.2v5.5h-32v-44.1h31.1v5.5h-24.8v13.5h22.1v5.3h-22.1v14.2L658.5,631.2z"/>
<path d="M677.5,598h-15.1v-5.5h36.5v5.5h-15.1v38.6h-6.2V598H677.5z"/>
<path d="M722.6,592.5h6.3v38.6h23.9v5.5h-30.2V592.5z"/>
<path d="M788.3,625.6h-23.4l-4.8,11h-6.5l20-44.1h6.2l20,44.1h-6.6L788.3,625.6z M786.1,620.6l-9.5-21.6l-9.5,21.6H786.1z"/>
<path d="M836.3,614.3h6v17.2c-4.4,3.7-10.5,5.6-16.7,5.6c-13.5,0-23.5-9.5-23.5-22.6s10-22.5,23.6-22.5c7,0,12.9,2.3,17,6.8
	l-3.9,3.9c-3.4-3.4-8-5.2-12.9-5.1c-10.2,0-17.6,7.1-17.6,17s7.4,17,17.5,17c3.6,0.1,7.2-0.9,10.3-2.8L836.3,614.3z"/>
<path d="M903.3,631.2v5.5h-32v-44.1h31.1v5.5h-24.8v13.5h22.1v5.3h-22.1v14.2L903.3,631.2z"/>
<path d="M941.6,625.6h-23.4l-4.9,11h-6.5l20-44.1h6.2l20,44.1h-6.6L941.6,625.6z M939.4,620.6l-9.5-21.6l-9.5,21.6H939.4z"/>
<path d="M955.6,631.6l2.3-4.9c3.3,3,8.9,5.1,14.5,5.1c7.6,0,10.9-3,10.9-6.8c0-10.8-26.7-4-26.7-20.3c0-6.8,5.3-12.6,16.9-12.6
	c5.2,0,10.5,1.4,14.2,3.9l-2.1,5c-3.6-2.3-7.8-3.6-12.1-3.6c-7.5,0-10.7,3.2-10.7,7c0,10.8,26.7,4,26.7,20.2
	c0,6.7-5.4,12.5-17.1,12.5C965.7,637.1,959.1,634.9,955.6,631.6z"/>
<path d="M1014.7,621.4v15.2h-6.2v-15.4L991,592.5h6.7l14.1,23.2l14.2-23.2h6.2L1014.7,621.4z"/>
<path d="M1087.5,631.2v5.5h-32v-44.1h31.1v5.5h-24.8v13.5h22.1v5.3h-22.1v14.2L1087.5,631.2z"/>
<path d="M1114.1,621.4v15.2h-6.2v-15.4l-17.5-28.7h6.7l14.1,23.2l14.2-23.2h6.2L1114.1,621.4z"/>
<path d="M1169.2,631.2v5.5h-32v-44.1h31.1v5.5h-24.8v13.5h22.1v5.3h-22.1v14.2L1169.2,631.2z"/>
<path d="M1196.4,592.5h6.3v38.6h23.9v5.5h-30.2L1196.4,592.5L1196.4,592.5z"/>
<path d="M1233.8,592.5h6.3v44.1h-6.3V592.5z"/>
<path d="M1291.3,592.5v44.1h-5.2l-26.5-32.9v32.9h-6.3v-44.1h5.2l26.5,32.9v-32.9H1291.3z"/>
<path d="M1336.5,631.2v5.5h-32v-44.1h31.1v5.5h-24.8v13.5h22.1v5.3h-22.1v14.2L1336.5,631.2z"/>
<path d="M1376.2,636.6l-9.5-13.5c-0.9,0.1-1.8,0.1-2.8,0.1H1353v13.4h-6.3v-44.1h17.2c11.5,0,18.4,5.8,18.4,15.4
	c0,6.8-3.5,11.7-9.7,13.9l10.5,14.8L1376.2,636.6L1376.2,636.6z M1376,607.9c0-6.3-4.2-9.9-12.3-9.9H1353v19.8h10.7
	C1371.8,617.9,1376,614.2,1376,607.9z"/>
<g id="_Rectangle_">
	<rect x="77" y="78.7" class="st0" width="921" height="272"/>
</g>
<path class="st1" d="M264.4,262.4H235l43.3-85.1h-50.6v-21.7h77.6v20.2L264.4,262.4z"/>
<path class="st1" d="M406.4,190.9c0.1,5.9-1.1,11.8-3.3,17.3c-2.4,5.5-5.3,10.8-8.6,15.8l-25.8,38.5h-30.6l26.6-36.8l0.3-0.4
	c-1.2,0.4-2.4,0.7-3.7,0.9c-1.3,0.2-2.6,0.3-3.8,0.3c-4.6,0-9.1-0.8-13.4-2.5c-4.1-1.6-7.9-4-11.1-7.1c-6.9-6.6-10.7-15.8-10.5-25.3
	c-0.1-5.6,1-11.2,3.3-16.3c2.1-4.7,5.2-8.8,9-12.2c3.9-3.4,8.5-6,13.4-7.6c5.2-1.8,10.7-2.7,16.3-2.6c5.6,0,11.1,0.9,16.4,2.6
	c4.9,1.6,9.5,4.2,13.4,7.6c3.8,3.4,6.9,7.5,9,12.1C405.4,180,406.5,185.4,406.4,190.9z M381.2,190.6c0.1-4.4-1.5-8.7-4.5-12
	c-3-3.4-7-5.1-12.2-5.1s-9.3,1.6-12.4,4.8s-4.6,7.3-4.6,12.5c-0.2,4.4,1.5,8.8,4.5,12s7.1,4.8,12.1,4.8c5.1,0,9.2-1.6,12.3-4.7
	C379.7,199.7,381.2,195.6,381.2,190.6L381.2,190.6z"/>
<path class="st1" d="M436.6,281.2h-20.4l11.3-42.9h23.7L436.6,281.2z"/>
<path class="st1" d="M549,208.7c0,7.3-0.7,14.5-2.3,21.6c-1.3,6.4-3.8,12.5-7.2,18c-3.2,5.1-7.7,9.4-12.9,12.4
	c-5.3,3.1-11.7,4.6-19.2,4.6s-14-1.5-19.3-4.6c-5.3-3-9.7-7.2-13-12.4c-3.5-5.5-6-11.6-7.3-18c-1.5-7.1-2.3-14.3-2.3-21.6
	c0-7.2,0.7-14.4,2.3-21.5c1.3-6.3,3.8-12.4,7.3-17.8c3.3-5,7.8-9.2,13-12.1c5.3-3,11.8-4.5,19.3-4.5s14,1.5,19.2,4.5
	s9.6,7.1,12.9,12.1c3.5,5.5,5.9,11.5,7.2,17.8C548.3,194.3,549,201.5,549,208.7z M523,208.7c0-3.3-0.2-7-0.6-11
	c-0.4-3.8-1.1-7.6-2.3-11.2c-1-3.2-2.6-6.2-4.8-8.8c-2-2.3-5-3.6-8.1-3.6c-3.1-0.1-6.1,1.2-8.1,3.6c-2.2,2.6-3.9,5.5-4.9,8.8
	c-1.2,3.6-1.9,7.4-2.3,11.2c-0.4,4-0.6,7.7-0.6,11s0.2,7.2,0.6,11.2c0.4,3.8,1.1,7.6,2.3,11.3c1,3.2,2.7,6.2,4.9,8.8
	c2,2.3,5,3.6,8.1,3.6c3.1,0.1,6.1-1.2,8.1-3.6c2.2-2.6,3.8-5.5,4.8-8.8c1.1-3.7,1.9-7.4,2.2-11.2C522.9,215.9,523.1,212.1,523,208.7
	L523,208.7z"/>
<path class="st1" d="M646.5,208.7c0,7.3-0.7,14.5-2.3,21.6c-1.3,6.4-3.8,12.5-7.2,18c-3.2,5.1-7.7,9.4-12.9,12.4
	c-5.3,3.1-11.7,4.6-19.2,4.6s-14-1.5-19.3-4.6c-5.3-3-9.8-7.3-13.1-12.4c-3.5-5.5-6-11.6-7.3-18c-1.5-7.1-2.3-14.3-2.3-21.6
	c0-7.2,0.7-14.4,2.3-21.5c1.3-6.3,3.8-12.4,7.3-17.8c3.3-5,7.8-9.2,13.1-12.1c5.3-3,11.8-4.5,19.3-4.5s14,1.5,19.2,4.5
	s9.6,7.1,12.9,12.1c3.5,5.5,5.9,11.5,7.2,17.8C645.8,194.3,646.6,201.5,646.5,208.7z M620.5,208.7c0-3.3-0.2-7-0.6-11
	c-0.4-3.8-1.1-7.6-2.3-11.2c-1-3.2-2.6-6.2-4.8-8.8c-2-2.3-5-3.6-8.1-3.6c-3.1-0.1-6.1,1.2-8.2,3.6c-2.2,2.5-3.9,5.5-4.9,8.8
	c-1.2,3.7-2,7.4-2.3,11.2c-0.4,4-0.6,7.7-0.6,11s0.2,7.2,0.6,11.2c0.4,3.8,1.1,7.6,2.3,11.3c1,3.2,2.7,6.2,4.9,8.8
	c2,2.3,5,3.6,8.2,3.6c3.1,0.1,6.1-1.2,8.2-3.6c2.2-2.6,3.8-5.5,4.8-8.8c1.1-3.7,1.9-7.4,2.2-11.2
	C620.4,215.9,620.6,212.1,620.5,208.7L620.5,208.7z"/>
<path class="st1" d="M744,208.7c0,7.3-0.7,14.5-2.3,21.6c-1.3,6.4-3.8,12.5-7.2,18c-3.2,5.1-7.7,9.4-12.9,12.4
	c-5.3,3.1-11.7,4.6-19.2,4.6s-14-1.5-19.3-4.6c-5.3-3-9.7-7.2-13-12.4c-3.5-5.5-6-11.6-7.3-18c-1.5-7.1-2.3-14.3-2.3-21.6
	c0-7.2,0.7-14.4,2.3-21.5c1.3-6.3,3.8-12.4,7.3-17.8c3.3-5,7.8-9.2,13.1-12.1c5.3-3,11.8-4.5,19.3-4.5s14,1.5,19.2,4.5
	s9.6,7.1,12.9,12.1c3.5,5.4,5.9,11.5,7.2,17.8C743.3,194.3,744,201.5,744,208.7z M718,208.7c0-3.3-0.2-7-0.6-11
	c-0.4-3.8-1.1-7.6-2.3-11.2c-1-3.2-2.6-6.2-4.8-8.8c-2-2.3-5-3.6-8.1-3.6c-3.1-0.1-6.1,1.2-8.2,3.6c-2.2,2.5-3.9,5.5-4.9,8.8
	c-1.2,3.6-1.9,7.4-2.2,11.2c-0.4,4-0.6,7.7-0.6,11s0.2,7.2,0.6,11.2c0.4,3.8,1.1,7.6,2.3,11.3c1,3.2,2.7,6.2,4.9,8.8
	c2,2.3,5,3.6,8.2,3.6c3.1,0.1,6.1-1.2,8.1-3.6c2.2-2.6,3.8-5.5,4.8-8.8c1.1-3.7,1.9-7.4,2.3-11.2C717.9,215.9,718.1,212.1,718,208.7
	L718,208.7z"/>
<path class="st1" d="M817.5,262.4v-9.8h-0.3c-2.5,3.9-6.1,7-10.3,8.8c-4.5,2.1-9.3,3.1-14.3,3.1c-5.2,0.1-10.4-1-15.1-3.3
	c-4.3-2.1-8.2-5.1-11.2-8.8c-3.1-3.8-5.5-8.1-7-12.8c-1.6-4.9-2.4-10-2.4-15.1s0.8-10.2,2.5-15c1.6-4.6,4-8.9,7.1-12.6
	c6.4-7.6,15.9-11.9,25.9-11.8c4.9-0.1,9.7,0.9,14,3.2c3.4,1.8,6.4,4.1,8.9,6.9h0.3v-18.9h-22.5V163h22.5v-14.7h24.8V163h7v13.4h-7
	v86H817.5z M816.6,224.7c0-2.4-0.4-4.8-1.3-7.1c-0.8-2.3-2.1-4.4-3.6-6.2c-1.6-1.8-3.5-3.3-5.7-4.4c-2.3-1.1-4.9-1.7-7.5-1.7
	c-2.7-0.1-5.3,0.5-7.7,1.7c-2.1,1-4,2.5-5.6,4.3c-1.5,1.8-2.7,3.9-3.4,6.1c-0.7,2.3-1.1,4.7-1.1,7.1c0,2.4,0.4,4.9,1.1,7.2
	c0.7,2.3,1.9,4.4,3.4,6.3c3.3,3.9,8.2,6.1,13.3,6c2.6,0,5.2-0.5,7.5-1.7c2.2-1.1,4.1-2.5,5.7-4.4c1.6-1.8,2.8-3.9,3.6-6.2
	C816.2,229.5,816.6,227.1,816.6,224.7L816.6,224.7z"/>
</svg>
