<?xml version="1.0" encoding="utf-8"?>
<!-- Generator: Adobe Illustrator 22.1.0, SVG Export Plug-In . SVG Version: 6.00 Build 0)  -->
<svg version="1.1" id="Layer_1" xmlns="http://www.w3.org/2000/svg" xmlns:xlink="http://www.w3.org/1999/xlink" x="0px" y="0px"
	 viewBox="0 0 987 486.9" style="enable-background:new 0 0 987 486.9;" xml:space="preserve">
<style type="text/css">
	.st0{fill:#C90202;}
	.st1{fill:#FFFFFF;}
</style>
<title>Image convert 3</title>
<path d="M123.2,244.3v-25.5l-12.7,21.1h-3.2l-12.7-20.8v25.2h-6.8v-38.5h5.9l15.3,25.5l15-25.5h5.9l0.1,38.5L123.2,244.3z"/>
<path d="M169.2,244.3l-3.9-8.9h-19.2l-3.8,8.9H135l17.3-38.5h7l17.4,38.5L169.2,244.3z M146.3,195.1h4.5c0.1,2.5,2.2,4.1,5,4.1
	s4.9-1.6,5-4.1h4.5c-0.2,4.9-4.2,7.9-9.5,7.9S146.5,200,146.3,195.1z M163,229.8l-7.2-16.9l-7.2,16.8L163,229.8z M159.1,252.2
	c0,1.8-1.5,3.3-3.3,3.3s-3.3-1.5-3.3-3.3s1.5-3.3,3.3-3.3S159.1,250.4,159.1,252.2z"/>
<path d="M187.5,211.8h-12.8v-6h32.7v6h-12.8v32.4h-7.1V211.8z"/>
<path d="M262.2,205.8v38.5h-5.9l-21.2-26.1v26.1H228v-38.5h5.9l21.2,26.1v-26.1H262.2z"/>
<path d="M301.3,244.3l-3.9-8.9h-19.2l-3.8,8.9h-7.4l17.3-38.5h7l17.4,38.5L301.3,244.3z M295.1,229.8l-7.3-16.9l-7.2,16.8
	L295.1,229.8z M291.2,252.2c0,1.8-1.5,3.3-3.3,3.3c-1.8,0-3.3-1.5-3.3-3.3s1.5-3.3,3.3-3.3C289.7,248.9,291.2,250.4,291.2,252.2z"/>
<path d="M328.6,227.5v-21.7h7.1v21.4c0,7.9,3.6,11.3,9.8,11.3s9.7-3.4,9.7-11.3v-21.4h7v21.7c0,11.2-6.3,17.3-16.8,17.3
	S328.6,238.7,328.6,227.5z M344.6,200.7c2.1-1,3-2.1,3-3.5c0-1.4-1.2-2.5-2.6-2.4c-0.1,0-0.1,0-0.2,0c-1.2,0-2.3,0.3-3.3,1l-1.5-3
	c1.6-1.2,3.5-1.8,5.5-1.7c3.5,0,6,2.2,6,5.5c0,3-1.5,5.2-4.7,6.7L344.6,200.7z"/>
<path d="M395.3,211.8h-12.8v-6h32.7v6h-12.8v32.4h-7.1L395.3,211.8z"/>
<path d="M445.8,244.3l-7.9-11.3c-0.5,0-1,0.1-1.5,0.1h-8.7v11.2h-7.1v-38.5h15.8c10.1,0,16.4,5.2,16.4,13.7
	c0.2,5.4-3.1,10.3-8.2,12.1l8.9,12.7L445.8,244.3z M436.1,211.8h-8.4v15.3h8.4c6.3,0,9.5-2.9,9.5-7.7S442.4,211.8,436.1,211.8
	L436.1,211.8z"/>
<path d="M485.7,235.4h-19.2l-3.8,8.9h-7.4l17.3-38.5h7l17.4,38.5h-7.5L485.7,235.4z M466.7,196.8h4.4c0.2,1.6,2.3,2.7,5.1,2.7
	s4.9-1.1,5.1-2.7h4.4c-0.4,3.9-4.2,6.3-9.5,6.3S467,200.7,466.7,196.8z M483.4,229.8l-7.3-16.9l-7.2,16.8L483.4,229.8z M477.2,195.3
	h-5.3l6.3-6.4h7.4L477.2,195.3z"/>
<path d="M536.2,205.8v38.5h-5.9l-21.2-26.1v26.1H502v-38.5h5.9l21.2,26.1v-26.1H536.2z"/>
<path d="M572.8,224.6h6.8v15.3c-4.3,3.3-9.6,5-15.1,4.9c-11.9,0-20.7-8.3-20.7-19.8c0-11.5,8.8-19.8,20.8-19.8
	c6.4,0,11.8,2.2,15.5,6.3l-4.5,4.4c-2.8-2.9-6.6-4.5-10.6-4.4c-8.2,0-14,5.6-14,13.5c0,7.8,5.8,13.5,13.9,13.5
	c2.8,0.1,5.5-0.6,7.9-2L572.8,224.6z"/>
<path d="M604.2,205.8H621c12.5,0,21,7.7,21,19.2s-8.5,19.2-21,19.2h-16.8V205.8z M620.7,238.2c8.6,0,14.1-5.2,14.1-13.2
	c0-8-5.5-13.2-14.1-13.2h-9.3v26.4H620.7z"/>
<path d="M674,235.4h-19.2l-3.8,8.9h-7.4l17.3-38.5h7l17.4,38.5h-7.5L674,235.4z M671.6,229.8l-7.2-16.9l-7.2,16.8L671.6,229.8z"/>
<path d="M702.7,225c0-11.5,8.8-19.8,20.6-19.8c6.3,0,11.7,2.3,15.2,6.4l-4.6,4.3c-2.6-2.9-6.4-4.6-10.3-4.5c-8,0-13.8,5.6-13.8,13.5
	s5.8,13.5,13.8,13.5c3.9,0.1,7.7-1.6,10.3-4.6l4.6,4.4c-3.6,4.2-9,6.4-15.3,6.4C711.5,244.8,702.7,236.5,702.7,225z"/>
<path d="M769.5,235.4h-19.2l-3.8,8.9h-7.4l17.3-38.5h7l17.4,38.5h-7.5L769.5,235.4z M767.2,229.8l-7.2-16.9l-7.2,16.8L767.2,229.8z"
	/>
<path d="M791.7,211.8h-12.8v-6h32.7v6h-12.8v32.4h-7.2L791.7,211.8z"/>
<path d="M851.2,205.8v38.5H844v-16.5h-19.9v16.5H817v-38.5h7.2v15.9H844v-15.9H851.2z"/>
<path d="M878.1,230.7v13.6H871v-13.5l-15.1-25h7.6l11.3,18.8l11.4-18.8h7L878.1,230.7z"/>
<path d="M87.9,271.8h16.8c12.5,0,21,7.7,21,19.2c0,11.6-8.5,19.2-21,19.2H87.9V271.8z M104.4,304.2c8.6,0,14.1-5.2,14.1-13.2
	s-5.6-13.2-14.1-13.2H95v26.4H104.4z"/>
<path d="M130.6,291c0-11.4,8.8-19.8,20.7-19.8S172,279.6,172,291s-8.8,19.8-20.7,19.8S130.6,302.4,130.6,291z M164.8,291
	c0-7.5-6.1-13.5-13.5-13.5s-13.5,6.1-13.5,13.5s6.1,13.5,13.5,13.5l0,0c7.2,0.2,13.3-5.5,13.5-12.7
	C164.8,291.6,164.8,291.3,164.8,291L164.8,291z"/>
<path d="M179.6,271.8h7.1v32.5h20.1v6h-27.3V271.8z"/>
<path d="M212.6,271.8h7.1v32.5h20.1v6h-27.3V271.8z"/>
<path d="M285.9,310.3L278,299c-0.5,0-1,0.1-1.5,0.1h-8.7v11.2h-7.1v-38.5h15.8c10.1,0,16.4,5.2,16.4,13.7c0.2,5.4-3.1,10.3-8.2,12.1
	l8.9,12.6H285.9z M276.2,277.8h-8.4v15.3h8.4c6.3,0,9.5-2.9,9.5-7.7C285.7,280.6,282.5,277.8,276.2,277.8z"/>
<path d="M329.8,304.3v6h-28.9v-38.5H329v6h-21v10h18.6v5.9H308v10.6H329.8z"/>
<path d="M362.7,301.4h-19.2l-3.8,8.9h-7.4l17.3-38.5h7l17.4,38.5h-7.5L362.7,301.4z M360.4,295.8l-7.3-16.9l-7.2,16.8L360.4,295.8z"
	/>
<path d="M378.9,271.8h16.8c12.5,0,21,7.7,21,19.2c0,11.6-8.5,19.2-21,19.2h-16.8V271.8z M395.4,304.2c8.6,0,14.1-5.2,14.1-13.2
	s-5.5-13.2-14.1-13.2h-9.4v26.4H395.4z"/>
<path d="M439.3,296.7v13.6h-7.1v-13.5l-15.1-25h7.6l11.3,18.7l11.4-18.8h7L439.3,296.7z"/>
<path d="M499.4,304.2v6H471v-4.8l15.3-14.5c3.7-3.6,4.4-5.8,4.4-8c0-3.5-2.4-5.6-7.1-5.6c-3.7,0-6.9,1.3-9,4l-5-3.8
	c3-4,8.3-6.4,14.6-6.4c8.4,0,13.8,4.2,13.8,11.1c0,3.7-1,7.1-6.4,12.1l-10.3,9.8L499.4,304.2z"/>
<path d="M577.7,271.8l-12.8,38.5h-7.6l-9.5-28.5l-9.7,28.5h-7.7l-12.8-38.5h7.4l9.6,29.3l10-29.3h6.6l9.7,29.4l9.8-29.4H577.7z"/>
<path d="M617.7,271.8v38.5h-7.2v-16.5h-19.9v16.5h-7.1v-38.5h7.1v15.9h19.9v-15.9H617.7z"/>
<path d="M628.1,271.8h7.1v38.5h-7.1V271.8z"/>
<path d="M653.4,277.8h-12.8v-6.1h32.7v6.1h-12.8v32.4h-7.2V277.8z"/>
<path d="M707.6,304.3v6h-28.9v-38.5h28.1v6h-21v10h18.6v5.9h-18.5v10.6H707.6z"/>
<path d="M766.1,310.3l-0.1-25.5l-12.7,21.1h-3.2l-12.7-20.8v25.2h-6.8v-38.5h5.9l15.3,25.5l15-25.5h5.9v38.5L766.1,310.3z"/>
<path d="M783.3,271.8h7.2v38.5h-7.2V271.8z"/>
<path d="M800.8,271.8h7.2v32.5h20.1v6h-27.3V271.8z"/>
<path d="M847,294.2l-6.1,6.3v9.9h-7.2v-38.5h7.2v19.7l19-19.7h8L851.7,289l17.3,21.3h-8.4L847,294.2z"/>
<path d="M887.7,296.7v13.6h-7.2v-13.5l-15.1-25h7.7l11.3,18.8l11.4-18.8h7L887.7,296.7z"/>
<path d="M144.1,337.8l-12.8,38.5h-7.6l-9.5-28.5l-9.7,28.5H97l-12.8-38.5h7.4l9.6,29.3l10-29.3h6.6l9.7,29.4l9.8-29.4H144.1z"/>
<path d="M184.2,337.8v38.5H177v-16.5h-19.9v16.5H150v-38.5h7.1v15.9H177v-15.9H184.2z"/>
<path d="M194.5,337.8h7.1v38.5h-7.1V337.8z"/>
<path d="M219.9,343.8h-12.8v-6h32.7v6H227v32.5h-7.1L219.9,343.8z"/>
<path d="M274,370.3v6h-28.9v-38.5h28.1v6h-20.9v10h18.6v5.9h-18.6v10.6H274z"/>
<path d="M294.5,357c0-11.5,8.8-19.8,20.6-19.8c6.3,0,11.7,2.3,15.2,6.4l-4.6,4.3c-2.6-2.9-6.4-4.6-10.3-4.5c-8,0-13.8,5.6-13.8,13.5
	c0,7.9,5.8,13.5,13.8,13.5c3.9,0.1,7.7-1.6,10.3-4.6l4.6,4.4c-3.6,4.2-9,6.4-15.3,6.4C303.3,376.8,294.5,368.5,294.5,357z"/>
<path d="M362.4,376.3l-7.9-11.3c-0.5,0-1,0.1-1.5,0.1h-8.7v11.2h-7.1v-38.5H353c10.1,0,16.4,5.2,16.4,13.7
	c0.2,5.4-3.1,10.3-8.2,12.1l8.9,12.6H362.4z M352.7,343.8h-8.4v15.3h8.4c6.3,0,9.5-2.9,9.5-7.7C362.2,346.6,359,343.8,352.7,343.8
	L352.7,343.8z"/>
<path d="M406.3,370.3v6h-28.9v-38.5h28.1v6h-21v10h18.6v5.9h-18.6v10.6H406.3z"/>
<path d="M439.2,367.4H420l-3.8,8.9h-7.4l17.3-38.5h7l17.4,38.5H443L439.2,367.4z M436.9,361.8l-7.3-16.9l-7.2,16.8L436.9,361.8z"/>
<path d="M490.8,376.3l0-25.5l-12.6,21.1h-3.2l-12.6-20.8v25.2h-6.8v-38.5h5.9l15.3,25.5l15-25.5h5.9l0.1,38.5L490.8,376.3z"/>
<path d="M555.4,351.5c0,8.5-6.3,13.7-16.4,13.7h-8.7v11.1h-7.2v-38.5H539C549.1,337.8,555.4,342.9,555.4,351.5z M548.2,351.5
	c0-4.8-3.2-7.6-9.5-7.6h-8.3v15.3h8.3C544.9,359.1,548.2,356.3,548.2,351.5z"/>
<path d="M585.6,367.4h-19.2l-3.8,8.9h-7.4l17.3-38.5h7l17.4,38.5h-7.5L585.6,367.4z M583.2,361.8l-7.3-16.9l-7.2,16.8L583.2,361.8z"
	/>
<path d="M598.5,357c0-11.5,8.8-19.8,20.6-19.8c6.3,0,11.7,2.3,15.2,6.4l-4.6,4.3c-2.6-2.9-6.4-4.6-10.3-4.5c-8,0-13.8,5.6-13.8,13.5
	c0,7.9,5.8,13.5,13.8,13.5c3.9,0.1,7.7-1.6,10.3-4.6l4.6,4.4c-3.6,4.2-9,6.4-15.3,6.4C607.3,376.8,598.5,368.5,598.5,357z"/>
<path d="M654.5,360.2l-6.1,6.3v9.9h-7.2v-38.5h7.2v19.7l19-19.7h8L659.2,355l17.2,21.3H668L654.5,360.2z"/>
<path d="M707.1,337.8v38.5h-7.2v-32.5h-8.1v-6H707.1z"/>
<path d="M714.7,357c0-12.6,6.9-19.8,16.1-19.8s16.1,7.1,16.1,19.8c0,12.7-6.9,19.8-16.1,19.8S714.7,369.7,714.7,357z M739.7,357
	c0-9.3-3.6-13.6-8.9-13.6s-8.9,4.3-8.9,13.6s3.6,13.6,8.9,13.6S739.7,366.3,739.7,357L739.7,357z"/>
<path d="M751.7,357c0-12.6,6.9-19.8,16.1-19.8s16.1,7.1,16.1,19.8c0,12.7-6.9,19.8-16.1,19.8S751.7,369.7,751.7,357z M776.7,357
	c0-9.3-3.6-13.6-8.9-13.6s-8.8,4.3-8.8,13.6s3.6,13.6,8.8,13.6S776.7,366.3,776.7,357L776.7,357z"/>
<path d="M826.8,376.3l-0.1-25.5l-12.6,21.1H811l-12.6-20.8v25.2h-6.8v-38.5h5.9l15.3,25.5l15-25.5h5.9l0,38.5L826.8,376.3z"/>
<path d="M844,337.8h7.2v32.5h20.1v6H844V337.8z"/>
<path d="M87.3,427.2c0-10.1,2.4-19.2,6.7-25.7h6.6c-8.7,16.1-8.7,35.4,0,51.5H94C89.8,446.3,87.3,437.3,87.3,427.2z"/>
<path d="M142.2,403.8l-16.8,38.5h-7l-16.8-38.5h7.8l12.8,29.7l12.9-29.7H142.2z"/>
<path d="M175.1,436.3v6h-28.9v-38.5h28.1v6h-21v10H172v5.9h-18.6v10.6H175.1z"/>
<path d="M208.3,442.3l-7.9-11.3c-0.5,0-1,0.1-1.5,0.1h-8.7v11.2h-7.1v-38.5h15.8c10.1,0,16.4,5.2,16.4,13.7
	c0.2,5.4-3.1,10.3-8.2,12.1l8.9,12.6H208.3z M198.6,409.8h-8.4v15.3h8.4c6.3,0,9.5-2.9,9.5-7.7S204.9,409.8,198.6,409.8L198.6,409.8
	z"/>
<path d="M220.3,438.1c-0.2-2.5,1.7-4.6,4.2-4.8c2.5-0.2,4.6,1.7,4.8,4.2c0,0.2,0,0.4,0,0.6c0.2,2.5-1.7,4.6-4.2,4.8
	c-2.5,0.2-4.6-1.7-4.8-4.2C220.3,438.5,220.3,438.3,220.3,438.1z"/>
<path d="M262.4,436.2v6H234v-4.8l15.3-14.5c3.7-3.6,4.4-5.8,4.4-8c0-3.5-2.4-5.5-7.1-5.5c-3.7,0-6.9,1.3-9,4l-5-3.9
	c3-4,8.3-6.4,14.6-6.4c8.4,0,13.7,4.2,13.7,11.1c0,3.7-1,7.1-6.4,12.1l-10.3,9.8L262.4,436.2z"/>
<path d="M265.3,452.9c8.7-16.1,8.7-35.4,0-51.5h6.5c4.4,6.5,6.7,15.6,6.7,25.7s-2.4,19.1-6.7,25.7H265.3z"/>
<g id="_Rectangle_">
	<rect x="85.1" y="35.7" class="st0" width="383" height="113.1"/>
</g>
<g>
	<path class="st1" d="M112.2,114.2v-9.7l19.2-17.3c1.2-1.2,2.2-2.3,2.9-3.5c0.7-1.2,1.1-2.5,1.1-4c0-1.8-0.6-3.2-1.7-4.3
		c-1.1-1.1-2.6-1.6-4.4-1.6c-1.9,0-3.5,0.7-4.8,2.1c-1.2,1.4-2,3.2-2.2,5.4l-11.2-1.5c0.3-2.5,1-4.7,2.1-6.7c1.1-2,2.5-3.6,4.1-5
		c1.7-1.4,3.6-2.4,5.7-3.2c2.2-0.7,4.4-1.1,6.8-1.1c2.3,0,4.5,0.3,6.6,0.9c2.1,0.6,4,1.5,5.7,2.8c1.7,1.3,3,2.8,4,4.7
		c1,1.9,1.5,4.1,1.5,6.7c0,1.8-0.2,3.3-0.7,4.8c-0.5,1.4-1.1,2.7-1.9,3.9c-0.8,1.2-1.7,2.3-2.8,3.4s-2.1,2.1-3.2,3.1l-11.4,10.1
		h20.1v10.1H112.2z"/>
	<path class="st1" d="M172.1,114.2V78.1l-9.2,7.1l-6-8.3L173,65h10.6v49.2H172.1z"/>
	<path class="st1" d="M239.1,81.2c0,2.9-0.5,5.6-1.5,8c-1,2.4-2.3,4.8-4,7.3l-11.9,17.7h-14.1l12.2-17L220,97
		c-0.5,0.2-1.1,0.3-1.7,0.4c-0.6,0.1-1.2,0.1-1.8,0.1c-2.2,0-4.2-0.4-6.2-1.1s-3.7-1.9-5.1-3.3c-1.5-1.4-2.7-3.1-3.5-5.1
		c-0.9-2-1.3-4.2-1.3-6.6c0-2.8,0.5-5.3,1.5-7.5c1-2.2,2.4-4.1,4.2-5.6c1.8-1.5,3.8-2.7,6.2-3.5c2.4-0.8,4.9-1.2,7.5-1.2
		c2.7,0,5.2,0.4,7.6,1.2c2.4,0.8,4.4,2,6.1,3.5c1.7,1.5,3.1,3.4,4.1,5.6C238.6,76.1,239.1,78.6,239.1,81.2z M227.5,81.1
		c0-2.1-0.7-4-2.1-5.5c-1.4-1.6-3.2-2.3-5.6-2.3s-4.3,0.7-5.7,2.2c-1.4,1.5-2.1,3.4-2.1,5.7c0,2.2,0.7,4.1,2.1,5.5s3.3,2.2,5.6,2.2
		c2.3,0,4.2-0.7,5.7-2.2C226.7,85.3,227.5,83.4,227.5,81.1z"/>
	<path class="st1" d="M253,122.8h-9.4l5.2-19.7h10.9L253,122.8z"/>
	<path class="st1" d="M304.8,89.5c0,3.5-0.3,6.8-1,9.9c-0.7,3.2-1.8,5.9-3.3,8.3c-1.5,2.4-3.5,4.3-5.9,5.7c-2.4,1.4-5.4,2.1-8.9,2.1
		s-6.4-0.7-8.9-2.1c-2.5-1.4-4.5-3.3-6-5.7c-1.6-2.4-2.7-5.2-3.4-8.3c-0.7-3.2-1-6.5-1-9.9s0.3-6.8,1-9.9s1.8-5.9,3.4-8.2
		c1.6-2.3,3.6-4.2,6-5.6c2.5-1.4,5.4-2.1,8.9-2.1s6.4,0.7,8.9,2.1c2.4,1.4,4.4,3.3,5.9,5.6c1.5,2.3,2.6,5.1,3.3,8.2
		C304.4,82.7,304.8,86,304.8,89.5z M292.8,89.5c0-1.5-0.1-3.2-0.3-5.1c-0.2-1.9-0.5-3.6-1-5.2c-0.5-1.6-1.2-2.9-2.2-4
		c-1-1.1-2.2-1.6-3.7-1.6s-2.8,0.5-3.8,1.6c-1,1.1-1.7,2.4-2.3,4c-0.5,1.6-0.9,3.3-1.1,5.2c-0.2,1.9-0.3,3.5-0.3,5.1
		c0,1.6,0.1,3.3,0.3,5.2c0.2,1.9,0.5,3.6,1.1,5.2c0.5,1.6,1.3,2.9,2.3,4c1,1.1,2.2,1.6,3.8,1.6s2.8-0.5,3.7-1.6
		c0.9-1.1,1.7-2.4,2.2-4c0.5-1.6,0.9-3.3,1-5.2C292.7,92.8,292.8,91,292.8,89.5z"/>
	<path class="st1" d="M349.7,89.5c0,3.5-0.3,6.8-1,9.9c-0.7,3.2-1.8,5.9-3.3,8.3c-1.5,2.4-3.5,4.3-5.9,5.7c-2.4,1.4-5.4,2.1-8.9,2.1
		s-6.4-0.7-8.9-2.1c-2.5-1.4-4.5-3.3-6-5.7c-1.6-2.4-2.7-5.2-3.4-8.3c-0.7-3.2-1-6.5-1-9.9s0.3-6.8,1-9.9s1.8-5.9,3.4-8.2
		c1.6-2.3,3.6-4.2,6-5.6c2.5-1.4,5.4-2.1,8.9-2.1s6.4,0.7,8.9,2.1c2.4,1.4,4.4,3.3,5.9,5.6c1.5,2.3,2.6,5.1,3.3,8.2
		C349.3,82.7,349.7,86,349.7,89.5z M337.7,89.5c0-1.5-0.1-3.2-0.3-5.1c-0.2-1.9-0.5-3.6-1-5.2c-0.5-1.6-1.2-2.9-2.2-4
		c-1-1.1-2.2-1.6-3.7-1.6s-2.8,0.5-3.8,1.6c-1,1.1-1.7,2.4-2.3,4c-0.5,1.6-0.9,3.3-1.1,5.2c-0.2,1.9-0.3,3.5-0.3,5.1
		c0,1.6,0.1,3.3,0.3,5.2c0.2,1.9,0.5,3.6,1.1,5.2c0.5,1.6,1.3,2.9,2.3,4c1,1.1,2.2,1.6,3.8,1.6s2.8-0.5,3.7-1.6
		c0.9-1.1,1.7-2.4,2.2-4c0.5-1.6,0.9-3.3,1-5.2C337.6,92.8,337.7,91,337.7,89.5z"/>
	<path class="st1" d="M394.6,89.5c0,3.5-0.3,6.8-1,9.9c-0.7,3.2-1.8,5.9-3.3,8.3c-1.5,2.4-3.5,4.3-5.9,5.7c-2.4,1.4-5.4,2.1-8.9,2.1
		s-6.4-0.7-8.9-2.1c-2.5-1.4-4.5-3.3-6-5.7c-1.6-2.4-2.7-5.2-3.4-8.3c-0.7-3.2-1-6.5-1-9.9s0.3-6.8,1-9.9s1.8-5.9,3.4-8.2
		c1.6-2.3,3.6-4.2,6-5.6c2.5-1.4,5.4-2.1,8.9-2.1s6.4,0.7,8.9,2.1c2.4,1.4,4.4,3.3,5.9,5.6c1.5,2.3,2.6,5.1,3.3,8.2
		C394.2,82.7,394.6,86,394.6,89.5z M382.6,89.5c0-1.5-0.1-3.2-0.3-5.1c-0.2-1.9-0.5-3.6-1-5.2c-0.5-1.6-1.2-2.9-2.2-4
		c-1-1.1-2.2-1.6-3.7-1.6s-2.8,0.5-3.8,1.6c-1,1.1-1.7,2.4-2.3,4c-0.5,1.6-0.9,3.3-1.1,5.2c-0.2,1.9-0.3,3.5-0.3,5.1
		c0,1.6,0.1,3.3,0.3,5.2c0.2,1.9,0.5,3.6,1.1,5.2c0.5,1.6,1.3,2.9,2.3,4c1,1.1,2.2,1.6,3.8,1.6s2.8-0.5,3.7-1.6
		c0.9-1.1,1.7-2.4,2.2-4c0.5-1.6,0.9-3.3,1-5.2C382.5,92.8,382.6,91,382.6,89.5z"/>
	<path class="st1" d="M428.4,114.2v-4.5h-0.1c-1.1,1.8-2.7,3.1-4.8,4.1c-2.1,0.9-4.3,1.4-6.6,1.4c-2.6,0-4.9-0.5-7-1.5
		c-2-1-3.8-2.4-5.2-4.1c-1.4-1.7-2.5-3.6-3.2-5.9c-0.7-2.2-1.1-4.5-1.1-7c0-2.4,0.4-4.7,1.1-6.9c0.8-2.2,1.9-4.1,3.3-5.8
		c1.4-1.7,3.1-3,5.1-4c2-1,4.3-1.5,6.8-1.5c2.5,0,4.7,0.5,6.5,1.5c1.8,1,3.1,2,4.1,3.2h0.1v-8.7h-10.4v-6.2h10.4v-6.7h11.4v6.7h3.2
		v6.2h-3.2v39.6H428.4z M428,96.8c0-1.1-0.2-2.2-0.6-3.3c-0.4-1.1-1-2-1.7-2.9c-0.7-0.8-1.6-1.5-2.6-2c-1-0.5-2.2-0.8-3.5-0.8
		c-1.3,0-2.5,0.3-3.5,0.8c-1,0.5-1.9,1.2-2.6,2c-0.7,0.8-1.2,1.8-1.6,2.8c-0.3,1.1-0.5,2.2-0.5,3.3s0.2,2.2,0.5,3.3
		c0.3,1.1,0.9,2.1,1.6,2.9c0.7,0.8,1.6,1.5,2.6,2c1,0.5,2.2,0.8,3.5,0.8c1.3,0,2.5-0.3,3.5-0.8c1-0.5,1.9-1.2,2.6-2
		c0.7-0.8,1.3-1.8,1.7-2.9C427.8,99,428,97.9,428,96.8z"/>
</g>
</svg>
