<svg id="Layer_1" data-name="Layer 1" xmlns="http://www.w3.org/2000/svg" viewBox="0 0 996 358.02"><defs><style>.cls-1{fill:#c90202;}.cls-2{fill:#fff;}</style></defs><title>Image convert 4 (chăm sóc da mặt và tẩy trang) text fix</title><path d="M49.28,188.27H55V202h.14l13.32-13.77h7.65L61.16,203l15.89,17.14h-8l-14-16H55v16H49.28Z"/><path d="M80.29,188.27h21.1v4.95H86v8.1h14.62v4.77H86v9H102.2v5H80.29Z"/><path d="M107.74,188.27h8.86l8.28,22.64H125l8.19-22.64h8.91v31.86h-5.63v-25.6h-.09l-9.67,25.6h-4l-9.54-25.6h-.09v25.6h-5.4Z"/><path d="M160.39,188.27h11.29a25.08,25.08,0,0,1,6.26.81,16.29,16.29,0,0,1,5.67,2.68,14,14,0,0,1,4.09,4.91,16.23,16.23,0,0,1,1.58,7.53,15.34,15.34,0,0,1-1.58,7.2,14.53,14.53,0,0,1-4.09,4.95,16.84,16.84,0,0,1-5.67,2.86,22,22,0,0,1-6.26.92H160.39Zm10.39,26.91a19.51,19.51,0,0,0,4.41-.51,11.45,11.45,0,0,0,4-1.76,9.26,9.26,0,0,0,2.91-3.35,11.36,11.36,0,0,0,1.12-5.36,12.09,12.09,0,0,0-1.12-5.58,9,9,0,0,0-2.91-3.37,10.94,10.94,0,0,0-4-1.67,22.76,22.76,0,0,0-4.41-.45h-4.72v22.05Z"/><path d="M220.15,208.43a13.07,13.07,0,0,1-1,5.2,11.61,11.61,0,0,1-2.7,3.94,12,12,0,0,1-4.05,2.5,15.3,15.3,0,0,1-10.17,0,12.29,12.29,0,0,1-4.08-2.5,11.34,11.34,0,0,1-2.7-3.94,13.42,13.42,0,0,1-1-5.2V188.27h5.67v19.94a10.91,10.91,0,0,0,.36,2.77,6.74,6.74,0,0,0,1.19,2.45,6.13,6.13,0,0,0,2.2,1.75,8.84,8.84,0,0,0,6.8,0,6.13,6.13,0,0,0,2.2-1.75,6.76,6.76,0,0,0,1.2-2.45,10.91,10.91,0,0,0,.36-2.77V188.27h3.19a3.53,3.53,0,0,0,2.81-.92,3.82,3.82,0,0,0,.79-2.59,5.82,5.82,0,0,0-.2-1.46,4.55,4.55,0,0,0-.56-1.28l4.63-1.17a7.16,7.16,0,0,1,.63,1.82,11.07,11.07,0,0,1,.18,2.09,6.49,6.49,0,0,1-1.55,4.73,6,6,0,0,1-4.25,1.66Z"/><path d="M261.91,186.38a6.47,6.47,0,0,1-1.56,4.68,6,6,0,0,1-4.38,1.71,15.89,15.89,0,0,1,3,5,19,19,0,0,1-.2,13.16,15.7,15.7,0,0,1-3.58,5.31,16.24,16.24,0,0,1-5.44,3.47,18.8,18.8,0,0,1-6.89,1.23,18.5,18.5,0,0,1-6.82-1.23,16.16,16.16,0,0,1-5.4-3.47,15.77,15.77,0,0,1-3.55-5.31,17.45,17.45,0,0,1-1.28-6.82,17.71,17.71,0,0,1,1.28-6.9,15.14,15.14,0,0,1,3.55-5.25,16,16,0,0,1,5.4-3.33,19.57,19.57,0,0,1,6.82-1.17,19.91,19.91,0,0,1,4,.36,25.57,25.57,0,0,1,2.86.81l2.16.81a5.07,5.07,0,0,0,1.89.36,3.37,3.37,0,0,0,2.67-.87,3.82,3.82,0,0,0,.75-2.55,5.42,5.42,0,0,0-.21-1.46,4.28,4.28,0,0,0-.56-1.28l4.64-1.17a7.16,7.16,0,0,1,.63,1.82A11.07,11.07,0,0,1,261.91,186.38ZM232,204.11a13.46,13.46,0,0,0,.79,4.71,10.83,10.83,0,0,0,2.25,3.71,10.24,10.24,0,0,0,3.46,2.45,11.67,11.67,0,0,0,8.89,0,10.26,10.26,0,0,0,3.49-2.45,11.15,11.15,0,0,0,2.25-3.71,13.69,13.69,0,0,0,.79-4.71,13.25,13.25,0,0,0-.79-4.59,11.49,11.49,0,0,0-2.23-3.69,10.41,10.41,0,0,0-3.46-2.47,11,11,0,0,0-4.5-.9,10.8,10.8,0,0,0-4.48.9,10.43,10.43,0,0,0-3.44,2.47,11.32,11.32,0,0,0-2.23,3.69A13,13,0,0,0,232,204.11Zm2.88-18.54a13.83,13.83,0,0,1,.52-2.11,6.11,6.11,0,0,1,.92-1.82,4.77,4.77,0,0,1,1.46-1.29,4.42,4.42,0,0,1,2.14-.49,8.16,8.16,0,0,1,1.82.22,11.11,11.11,0,0,1,1.74.59c.6.24,1.14.44,1.64.61a4.23,4.23,0,0,0,1.28.24,1.66,1.66,0,0,0,1.37-.56,3.46,3.46,0,0,0,.7-1.33h3a14,14,0,0,1-.52,2.12,6.11,6.11,0,0,1-.92,1.82,4.49,4.49,0,0,1-1.46,1.28,4.21,4.21,0,0,1-2.14.5,6.85,6.85,0,0,1-1.89-.27,15.87,15.87,0,0,1-1.8-.63c-.54-.24-1.05-.43-1.53-.59a4.64,4.64,0,0,0-1.26-.22,1.68,1.68,0,0,0-1.37.58,4,4,0,0,0-.7,1.35Z"/><path d="M265.55,188.27h7.52l14.8,23.85H288V188.27h5.67v31.86h-7.2l-15.12-24.61h-.09v24.61h-5.67Z"/><path d="M328.55,218.47a24.58,24.58,0,0,1-5.33,1.82,30.37,30.37,0,0,1-6.68.65,19.54,19.54,0,0,1-7.07-1.23,16.17,16.17,0,0,1-5.49-3.47,15.7,15.7,0,0,1-3.58-5.31,17.63,17.63,0,0,1-1.28-6.82,17.19,17.19,0,0,1,1.33-6.9,15.35,15.35,0,0,1,3.64-5.25,16.4,16.4,0,0,1,5.47-3.33,19.73,19.73,0,0,1,6.84-1.17,21.1,21.1,0,0,1,7,1.11,14.25,14.25,0,0,1,5.11,2.9l-3.92,4.23a9.62,9.62,0,0,0-3.4-2.3,11.76,11.76,0,0,0-4.74-.94,11.23,11.23,0,0,0-4.57.9,10.33,10.33,0,0,0-3.49,2.47,11.49,11.49,0,0,0-2.23,3.69,13.25,13.25,0,0,0-.78,4.59,13.69,13.69,0,0,0,.78,4.71,11.15,11.15,0,0,0,2.25,3.71A10.07,10.07,0,0,0,312,215a12.08,12.08,0,0,0,4.75.88,16.21,16.21,0,0,0,6.34-1.13v-8.1h-6.7V202h12.19Z"/><path d="M352,193.22h-9.76v-4.95h25.2v4.95h-9.77v26.91H352Z"/><path d="M371.17,188.27h11.07a19.62,19.62,0,0,1,4.36.48,11.18,11.18,0,0,1,3.76,1.55,8.12,8.12,0,0,1,2.63,2.83,8.6,8.6,0,0,1,1,4.28,8.13,8.13,0,0,1-2,5.65,9.79,9.79,0,0,1-5.33,2.94l8.51,14.13h-6.84L381,206.63h-4.14v13.5h-5.67ZM381.47,202a16.56,16.56,0,0,0,2.43-.18,6.71,6.71,0,0,0,2.18-.68,4.17,4.17,0,0,0,1.6-1.41,4.12,4.12,0,0,0,.63-2.37,3.62,3.62,0,0,0-.58-2.13,4.33,4.33,0,0,0-1.49-1.33,6.43,6.43,0,0,0-2.05-.68A15.56,15.56,0,0,0,382,193h-5.13v9Z"/><path d="M409.46,188.27h4.91l13.72,31.86h-6.48l-3-7.29H404.83L402,220.13H395.6ZM407.3,180a3,3,0,0,0,1.62,2.34,6.74,6.74,0,0,0,3,.63,7.17,7.17,0,0,0,3.06-.54,3.46,3.46,0,0,0,1.62-2.43h3a6.79,6.79,0,0,1-2.41,4.91,8.44,8.44,0,0,1-5.29,1.57,8.58,8.58,0,0,1-5.31-1.55,6.31,6.31,0,0,1-2.29-4.93Zm9.36,28-4.9-13-5,13Zm-4.59-33.07h5.76L413,180.53h-3.87Z"/><path d="M431.24,188.27h7.52l14.8,23.85h.09V188.27h5.67v31.86h-7.2L437,195.52h-.09v24.61h-5.67Z"/><path d="M494.24,218.47a24.58,24.58,0,0,1-5.33,1.82,30.37,30.37,0,0,1-6.68.65,19.54,19.54,0,0,1-7.07-1.23,16.17,16.17,0,0,1-5.49-3.47,15.7,15.7,0,0,1-3.58-5.31,17.63,17.63,0,0,1-1.28-6.82,17.19,17.19,0,0,1,1.33-6.9,15.35,15.35,0,0,1,3.64-5.25,16.4,16.4,0,0,1,5.47-3.33,19.73,19.73,0,0,1,6.84-1.17,21.1,21.1,0,0,1,7,1.11,14.25,14.25,0,0,1,5.11,2.9l-3.92,4.23a9.62,9.62,0,0,0-3.4-2.3,11.76,11.76,0,0,0-4.74-.94,11.23,11.23,0,0,0-4.57.9,10.33,10.33,0,0,0-3.49,2.47,11.49,11.49,0,0,0-2.23,3.69,13.25,13.25,0,0,0-.78,4.59,13.69,13.69,0,0,0,.78,4.71,11.15,11.15,0,0,0,2.25,3.71,10.07,10.07,0,0,0,3.56,2.45,12.08,12.08,0,0,0,4.75.88,16.21,16.21,0,0,0,6.34-1.13v-8.1h-6.7V202h12.19Z"/><path d="M512.38,188.27H524.8a15.26,15.26,0,0,1,3.55.43,9.18,9.18,0,0,1,3.13,1.4,7.15,7.15,0,0,1,3.08,6.18,6.55,6.55,0,0,1-1.53,4.46,8.54,8.54,0,0,1-4,2.52v.09a8.38,8.38,0,0,1,5,2.34,7,7,0,0,1,1.93,5.17,8.67,8.67,0,0,1-1,4.39,8.32,8.32,0,0,1-2.73,2.86,11.51,11.51,0,0,1-3.87,1.55,20.51,20.51,0,0,1-4.43.47H512.38Zm5.67,13h5a7.07,7.07,0,0,0,4.32-1.12,3.76,3.76,0,0,0,1.48-3.2,3.27,3.27,0,0,0-1.53-3.06,9.84,9.84,0,0,0-4.77-.9h-4.54Zm0,14.13h5.08a19.88,19.88,0,0,0,2.34-.15,7.6,7.6,0,0,0,2.32-.66,4.44,4.44,0,0,0,1.75-1.44,4.1,4.1,0,0,0,.7-2.52,3.73,3.73,0,0,0-1.71-3.51,10.7,10.7,0,0,0-5.17-1h-5.31Z"/><path d="M551.48,188.27h4.9l13.73,31.86h-6.48l-3-7.29H546.84L544,220.13h-6.34Zm5.53-2.52-3.1-4.05-3.11,4.05h-5l5.18-6.48H557l5.13,6.48ZM558.68,208l-4.91-13-5,13Zm-8.15,18.77a3.12,3.12,0,0,1,1-2.27,3.31,3.31,0,0,1,2.45-1,3.59,3.59,0,0,1,2.5.92,3.17,3.17,0,0,1,0,4.64,3.59,3.59,0,0,1-2.5.92,3.31,3.31,0,0,1-2.45-1A3.12,3.12,0,0,1,550.53,226.75Z"/><path d="M579.69,193.22h-9.76v-4.95h25.2v4.95h-9.77v26.91h-5.67Z"/><path d="M614.34,193.22h-9.76v-4.95h25.2v4.95H620v26.91h-5.68Z"/><path d="M630.59,204.11a17.9,17.9,0,0,1,1.28-6.9,15.16,15.16,0,0,1,3.56-5.25,15.8,15.8,0,0,1,5.4-3.33,19.47,19.47,0,0,1,6.81-1.17,19.89,19.89,0,0,1,6.89,1.17A16.07,16.07,0,0,1,660,192a14.94,14.94,0,0,1,3.58,5.25,17.71,17.71,0,0,1,1.28,6.9,17.45,17.45,0,0,1-1.28,6.82,15.56,15.56,0,0,1-3.58,5.31,16.24,16.24,0,0,1-5.44,3.47,18.8,18.8,0,0,1-6.89,1.23,18.41,18.41,0,0,1-6.81-1.23,16,16,0,0,1-5.4-3.47,15.8,15.8,0,0,1-3.56-5.31A17.63,17.63,0,0,1,630.59,204.11Zm6.16,0a13.69,13.69,0,0,0,.79,4.71,11.15,11.15,0,0,0,2.25,3.71,10.28,10.28,0,0,0,3.47,2.45,10.82,10.82,0,0,0,4.43.88,11,11,0,0,0,4.45-.88,10.16,10.16,0,0,0,3.49-2.45,10.83,10.83,0,0,0,2.25-3.71,13.46,13.46,0,0,0,.79-4.71,13,13,0,0,0-.79-4.59,11.32,11.32,0,0,0-2.23-3.69,10.41,10.41,0,0,0-3.46-2.47,11,11,0,0,0-4.5-.9,10.83,10.83,0,0,0-4.48.9,10.54,10.54,0,0,0-3.44,2.47,11.49,11.49,0,0,0-2.23,3.69A13.25,13.25,0,0,0,636.75,204.11Z"/><path d="M670.32,188.27h7.52l14.8,23.85h.09V188.27h5.67v31.86h-7.2l-15.12-24.61H676v24.61h-5.67Z"/><path d="M705.42,188.27h21.11v4.95H711.09v8.1h14.63v4.77H711.09v9h16.25v5H705.42Z"/><path d="M749.48,193.22h-9.77v-4.95h25.2v4.95h-9.76v26.91h-5.67Z"/><path d="M794,208.43a13.07,13.07,0,0,1-1,5.2,11.61,11.61,0,0,1-2.7,3.94,12,12,0,0,1-4,2.5,15.3,15.3,0,0,1-10.17,0,12.25,12.25,0,0,1-4.07-2.5,11.34,11.34,0,0,1-2.7-3.94,13.42,13.42,0,0,1-1-5.2V188.27H774v19.94a10.91,10.91,0,0,0,.36,2.77,6.76,6.76,0,0,0,1.2,2.45,6.13,6.13,0,0,0,2.2,1.75,8.84,8.84,0,0,0,6.8,0,6.13,6.13,0,0,0,2.2-1.75A6.74,6.74,0,0,0,788,211a10.91,10.91,0,0,0,.36-2.77V188.27h3.2a3.53,3.53,0,0,0,2.81-.92,3.82,3.82,0,0,0,.79-2.59,5.82,5.82,0,0,0-.2-1.46,4.56,4.56,0,0,0-.57-1.28l4.64-1.17a7.16,7.16,0,0,1,.63,1.82,11.07,11.07,0,0,1,.18,2.09,6.49,6.49,0,0,1-1.55,4.73,6,6,0,0,1-4.26,1.66Zm-11.52-29.16h6.12l-6.34,6.48H778Z"/><path d="M824.18,195.74a7.29,7.29,0,0,0-3.29-2.49,10.78,10.78,0,0,0-4-.79,11,11,0,0,0-4.5.9,10.6,10.6,0,0,0-3.48,2.47,11,11,0,0,0-2.25,3.69,13,13,0,0,0-.79,4.59,14.16,14.16,0,0,0,.76,4.77,10.78,10.78,0,0,0,2.19,3.72,9.65,9.65,0,0,0,3.39,2.4,11,11,0,0,0,4.46.86,9.89,9.89,0,0,0,4.54-1,9,9,0,0,0,3.2-2.68l4.54,3.19a14.39,14.39,0,0,1-5.17,4.12,16.38,16.38,0,0,1-7.16,1.46,18.6,18.6,0,0,1-6.86-1.23,15.88,15.88,0,0,1-5.38-3.47,15.68,15.68,0,0,1-3.51-5.31,17.82,17.82,0,0,1-1.26-6.82,17.36,17.36,0,0,1,1.33-6.9,15.38,15.38,0,0,1,3.65-5.25,16.26,16.26,0,0,1,5.46-3.33,19.73,19.73,0,0,1,6.84-1.17,18.08,18.08,0,0,1,3.2.3,15.55,15.55,0,0,1,3.19.9,15.74,15.74,0,0,1,2.88,1.5,9.68,9.68,0,0,1,2.3,2.16Z"/><path d="M849.11,193.22h-9.77v-4.95h25.2v4.95h-9.76v26.91h-5.67Z"/><path d="M868.23,188.27h5.67v12.87h14.9V188.27h5.67v31.86H888.8V206H873.9v14.13h-5.67Z"/><path d="M907.11,185.75h-4.23l-6.34-6.48h6.12Zm-5.62,2.52h5.67v31.86h-5.67Z"/><path d="M51.58,262.13H49.06V237.35h7.28a15.59,15.59,0,0,1,3.38.35,7.86,7.86,0,0,1,2.7,1.14,5.46,5.46,0,0,1,1.76,2,6.85,6.85,0,0,1,.63,3.08A6.1,6.1,0,0,1,63,248.4a6.38,6.38,0,0,1-2,1.31,8.48,8.48,0,0,1-2.52.63l7.24,11.79H62.64l-6.86-11.58h-4.2Zm0-13.75H56a8.45,8.45,0,0,0,4.69-1.1A3.74,3.74,0,0,0,62.29,244a4.34,4.34,0,0,0-.45-2.07,3.82,3.82,0,0,0-1.26-1.36,5.7,5.7,0,0,0-2-.77,12.56,12.56,0,0,0-2.56-.25H51.58Z"/><path d="M72.55,259.89H85.81v2.24H70V237.35H85.39v2.24H72.55v8.51h12v2.24h-12Z"/><path d="M90.57,262.13H87.81l10.71-24.78H101l10.64,24.78h-2.8l-2.73-6.51H93.27Zm3.64-8.82h10.92l-5.46-13.16Z"/><path d="M115.25,237.35h8.22a14.8,14.8,0,0,1,4.64.77,12.92,12.92,0,0,1,4.2,2.33,11.84,11.84,0,0,1,3,3.89,13.32,13.32,0,0,1,0,10.83,11.86,11.86,0,0,1-3,3.87,12.72,12.72,0,0,1-4.2,2.32,14.51,14.51,0,0,1-4.64.77h-8.22Zm2.52,22.54h5a12.55,12.55,0,0,0,4.88-.87,10.2,10.2,0,0,0,3.45-2.29,9.53,9.53,0,0,0,2.05-3.24,10.65,10.65,0,0,0,0-7.49,9.53,9.53,0,0,0-2.05-3.24,10.2,10.2,0,0,0-3.45-2.29,12.54,12.54,0,0,0-4.88-.88h-5Z"/><path d="M149,262.13h-2.52V251.46l-9.28-14.11h3.15l7.46,12,7.52-12h2.94L149,251.46Z"/><path d="M183.78,262.13H168v-2.62l10.15-10.26c.37-.37.74-.77,1.1-1.2a10.37,10.37,0,0,0,1-1.35,7.14,7.14,0,0,0,.67-1.49,5.54,5.54,0,0,0,.24-1.63,5,5,0,0,0-.38-2,4.43,4.43,0,0,0-1.07-1.48,4.87,4.87,0,0,0-1.58-.95,5.34,5.34,0,0,0-1.87-.33,4.8,4.8,0,0,0-3.36,1.24,5.7,5.7,0,0,0-1.75,3.17l-2.48-.49a7.26,7.26,0,0,1,.92-2.42,7.52,7.52,0,0,1,3.94-3.18,8.06,8.06,0,0,1,2.73-.46,9.19,9.19,0,0,1,2.85.44,6.86,6.86,0,0,1,2.36,1.3,6.38,6.38,0,0,1,1.61,2.13,6.89,6.89,0,0,1,.6,3,7,7,0,0,1-.33,2.2,9.09,9.09,0,0,1-.88,1.93,11,11,0,0,1-1.27,1.73c-.49.55-1,1.09-1.54,1.63l-8.93,8.85h13.13Z"/><path d="M204.08,258.67h.07l6.19-21.32h3l6.2,21.32h.07l6-21.32h2.66L221,262.13h-2.94l-6.23-21.28h-.07l-6.23,21.28h-2.94l-7.32-24.78H198Z"/><path d="M232.11,237.35h2.52V248.1h13.51V237.35h2.52v24.78h-2.52V250.41H234.63v11.72h-2.52Z"/><path d="M259.76,262.13h-2.52V237.35h2.52Z"/><path d="M274.29,262.13h-2.52V239.59h-8.3v-2.24h19.11v2.24h-8.29Z"/><path d="M288.81,259.89h13.27v2.24H286.29V237.35h15.37v2.24H288.81v8.51h12v2.24h-12Z"/><path d="M321.33,258.67h.07l6.19-21.32h3l6.2,21.32h.07l6.05-21.32h2.66l-7.31,24.78h-2.94l-6.23-21.28H329l-6.23,21.28h-2.94l-7.32-24.78h2.66Z"/><path d="M349.36,237.35h2.52V248.1h13.51V237.35h2.52v24.78h-2.52V250.41H351.88v11.72h-2.52Z"/><path d="M377,262.13h-2.52V237.35H377Z"/><path d="M391.53,262.13H389V239.59h-8.29v-2.24h19.11v2.24h-8.3Z"/><path d="M406.06,259.89h13.26v2.24H403.54V237.35H418.9v2.24H406.06v8.51h12v2.24h-12Z"/><path d="M433,237.35h7.38a13.85,13.85,0,0,1,2.84.3,7.69,7.69,0,0,1,2.57,1,5.59,5.59,0,0,1,1.86,1.94,6.1,6.1,0,0,1,.71,3.08,5.23,5.23,0,0,1-1.19,3.41A5.62,5.62,0,0,1,444,249v.07a6.53,6.53,0,0,1,4,1.87,5.84,5.84,0,0,1,1.59,4.32,6.15,6.15,0,0,1-.64,2.82,6.07,6.07,0,0,1-1.84,2.17,8.49,8.49,0,0,1-2.9,1.38,13.81,13.81,0,0,1-3.84.49H433Zm2.52,10.85h5.07a8.31,8.31,0,0,0,1.84-.21,5,5,0,0,0,1.7-.71,3.84,3.84,0,0,0,1.24-1.35,4.12,4.12,0,0,0,.47-2.07,3.93,3.93,0,0,0-.47-2,3.85,3.85,0,0,0-1.28-1.35,5.35,5.35,0,0,0-1.89-.75,11.31,11.31,0,0,0-2.31-.23h-4.37Zm0,11.76h4.69a12.29,12.29,0,0,0,2.61-.26,6.55,6.55,0,0,0,2.17-.84,4.42,4.42,0,0,0,1.48-1.5,4.8,4.8,0,0,0-1.1-5.88,7.88,7.88,0,0,0-4.71-1.21h-5.14Z"/><path d="M479.77,249.74a13.67,13.67,0,0,1-1,5.22,12.52,12.52,0,0,1-2.71,4.11,12.38,12.38,0,0,1-4.1,2.71,13.89,13.89,0,0,1-10.25,0,12.26,12.26,0,0,1-6.81-6.82,14.37,14.37,0,0,1,0-10.43,12.37,12.37,0,0,1,2.71-4.11,12.56,12.56,0,0,1,4.1-2.72,13.89,13.89,0,0,1,10.25,0,12.32,12.32,0,0,1,6.81,6.83A13.62,13.62,0,0,1,479.77,249.74Zm-2.66,0a12.29,12.29,0,0,0-.7-4.12,10.24,10.24,0,0,0-2-3.44,9.75,9.75,0,0,0-3.24-2.36,10.87,10.87,0,0,0-8.57,0,9.55,9.55,0,0,0-3.24,2.36,10.08,10.08,0,0,0-2,3.44,12.5,12.5,0,0,0,0,8.25,10,10,0,0,0,2,3.42,9.64,9.64,0,0,0,3.24,2.34,11,11,0,0,0,8.57,0,9.84,9.84,0,0,0,3.24-2.34,10.15,10.15,0,0,0,2-3.42A12.35,12.35,0,0,0,477.11,249.76Z"/><path d="M509.52,249.74a13.67,13.67,0,0,1-1,5.22,12.52,12.52,0,0,1-2.71,4.11,12.38,12.38,0,0,1-4.1,2.71,13.89,13.89,0,0,1-10.25,0,12.26,12.26,0,0,1-6.81-6.82,14.37,14.37,0,0,1,0-10.43,12.37,12.37,0,0,1,2.71-4.11,12.56,12.56,0,0,1,4.1-2.72,13.89,13.89,0,0,1,10.25,0,12.32,12.32,0,0,1,6.81,6.83A13.62,13.62,0,0,1,509.52,249.74Zm-2.66,0a12.29,12.29,0,0,0-.7-4.12,10.41,10.41,0,0,0-2-3.44,9.75,9.75,0,0,0-3.24-2.36,10.87,10.87,0,0,0-8.57,0,9.55,9.55,0,0,0-3.24,2.36,10.08,10.08,0,0,0-2,3.44,12.5,12.5,0,0,0,0,8.25,10,10,0,0,0,2,3.42,9.64,9.64,0,0,0,3.24,2.34,11,11,0,0,0,8.57,0,9.84,9.84,0,0,0,3.24-2.34,10.31,10.31,0,0,0,2-3.42A12.35,12.35,0,0,0,506.86,249.76Z"/><path d="M526.77,241.34a6.09,6.09,0,0,0-2.06-1.8,6.81,6.81,0,0,0-4.9-.4,5.45,5.45,0,0,0-1.72.86,4.47,4.47,0,0,0-1.24,1.45,4.32,4.32,0,0,0-.47,2.06,3.82,3.82,0,0,0,.45,2,4.11,4.11,0,0,0,1.21,1.32,6.91,6.91,0,0,0,1.71.89c.64.23,1.3.47,2,.7.86.28,1.73.58,2.6.91a9.23,9.23,0,0,1,2.36,1.28,6.11,6.11,0,0,1,1.71,2,6.36,6.36,0,0,1,.66,3.06,6.52,6.52,0,0,1-2.54,5.43,7.82,7.82,0,0,1-2.58,1.29,10.53,10.53,0,0,1-2.93.42,11.41,11.41,0,0,1-2.24-.22,9.65,9.65,0,0,1-2.13-.69,8.31,8.31,0,0,1-1.89-1.15,8.1,8.1,0,0,1-1.54-1.61l2.17-1.61a6.5,6.5,0,0,0,2.26,2.22,6.3,6.3,0,0,0,3.41.89,6.49,6.49,0,0,0,1.92-.29,5.41,5.41,0,0,0,1.77-.91,5,5,0,0,0,1.3-1.51,4.72,4.72,0,0,0,0-4.23,4.63,4.63,0,0,0-1.35-1.44,8.48,8.48,0,0,0-1.93-1c-.72-.26-1.48-.51-2.27-.77s-1.62-.55-2.42-.88a8.13,8.13,0,0,1-2.13-1.27,6,6,0,0,1-1.52-2,7.06,7.06,0,0,1,.14-5.91,6.44,6.44,0,0,1,1.87-2.14,7.91,7.91,0,0,1,2.55-1.22,10.34,10.34,0,0,1,2.77-.39,9.45,9.45,0,0,1,4.3.9,7.44,7.44,0,0,1,2.7,2.11Z"/><path d="M541.82,262.13H539.3V239.59H531v-2.24h19.11v2.24h-8.3Z"/><path d="M556.35,262.13h-2.52V237.35h2.52Z"/><path d="M580.5,258.46h.07V237.35h2.52v24.78h-3.15l-14.42-21.31h-.07v21.31h-2.52V237.35h3.15Z"/><path d="M608.46,241.83a9,9,0,0,0-3.08-2.11,10.47,10.47,0,0,0-4.09-.76,10.22,10.22,0,0,0-4.29.88,9.75,9.75,0,0,0-3.24,2.36,10.63,10.63,0,0,0-2,3.44,12.34,12.34,0,0,0,0,8.25,10.53,10.53,0,0,0,2,3.42,9.84,9.84,0,0,0,3.24,2.34,10.21,10.21,0,0,0,4.29.87,15.47,15.47,0,0,0,3.85-.45,9.61,9.61,0,0,0,2.83-1.16v-7.52H602.2v-2.24h8.29v11.19a16.06,16.06,0,0,1-4.37,1.83,19.62,19.62,0,0,1-4.87.59,13.35,13.35,0,0,1-5.18-1A12.12,12.12,0,0,1,589.3,255a13.85,13.85,0,0,1-1-5.22,13.43,13.43,0,0,1,1-5.21,12.22,12.22,0,0,1,2.71-4.11,12.51,12.51,0,0,1,4.09-2.72,13.35,13.35,0,0,1,5.13-1,13.87,13.87,0,0,1,5.18.89,11.32,11.32,0,0,1,3.78,2.47Z"/><path d="M646.54,258.11A10.54,10.54,0,0,1,645,259.9a10,10,0,0,1-2.07,1.48,11.26,11.26,0,0,1-2.59,1,12,12,0,0,1-3.09.37,13.31,13.31,0,0,1-5.18-1,12.08,12.08,0,0,1-4.1-2.71,12.45,12.45,0,0,1-2.68-4.11,13.85,13.85,0,0,1-1-5.22,13.62,13.62,0,0,1,1-5.21,12.37,12.37,0,0,1,2.71-4.11,12.56,12.56,0,0,1,4.1-2.72,13.28,13.28,0,0,1,5.13-1,12.48,12.48,0,0,1,2.67.29,12.75,12.75,0,0,1,2.47.8,10.37,10.37,0,0,1,2.1,1.24,7.16,7.16,0,0,1,1.58,1.63l-2.1,1.54a6.15,6.15,0,0,0-1-1.19,6.82,6.82,0,0,0-1.52-1.05,9.85,9.85,0,0,0-1.91-.74,8.71,8.71,0,0,0-2.22-.28,10.29,10.29,0,0,0-4.32.88,9.72,9.72,0,0,0-3.24,2.35,10.34,10.34,0,0,0-2,3.44,12,12,0,0,0-.7,4.11,11.79,11.79,0,0,0,.72,4.12,10.56,10.56,0,0,0,2,3.44,9.58,9.58,0,0,0,3.23,2.35,10.25,10.25,0,0,0,4.29.87,9.75,9.75,0,0,0,4.06-.87,7.7,7.7,0,0,0,3.22-2.8Z"/><path d="M653.4,262.13h-2.52V237.35h7.28a15.66,15.66,0,0,1,3.38.35,7.73,7.73,0,0,1,2.69,1.14,5.4,5.4,0,0,1,1.77,2,6.85,6.85,0,0,1,.63,3.08,6,6,0,0,1-.49,2.48,6.19,6.19,0,0,1-1.33,2,6.38,6.38,0,0,1-2,1.31,8.48,8.48,0,0,1-2.52.63l7.24,11.79h-3.08l-6.86-11.58h-4.2Zm0-13.75h4.38a8.45,8.45,0,0,0,4.69-1.1,3.74,3.74,0,0,0,1.64-3.31,4.34,4.34,0,0,0-.45-2.07,3.82,3.82,0,0,0-1.26-1.36,5.7,5.7,0,0,0-2-.77,12.63,12.63,0,0,0-2.56-.25H653.4Z"/><path d="M674.37,259.89h13.26v2.24H671.85V237.35h15.36v2.24H674.37v8.51h12v2.24h-12Z"/><path d="M692.39,262.13h-2.76l10.71-24.78h2.45l10.64,24.78h-2.8l-2.73-6.51H695.09Zm3.64-8.82H707l-5.46-13.16Z"/><path d="M729.32,257.86h0l8.3-20.51h3.85v24.78H739V240.61h-.07l-9,21.52h-1.33l-9-21.52h-.07v21.52h-2.52V237.35h3.85Z"/><g id="_Rectangle_" data-name="&lt;Rectangle&gt;"><rect class="cls-1" x="55" y="31.84" width="383" height="113.11"/></g><path class="cls-2" d="M131,95.32a12.87,12.87,0,0,1-1.48,6.3,13.16,13.16,0,0,1-3.86,4.38,16.89,16.89,0,0,1-5.37,2.57,21.78,21.78,0,0,1-6,.85,24.88,24.88,0,0,1-5.87-.69,18.6,18.6,0,0,1-5.21-2.1A15.13,15.13,0,0,1,99.07,103a15.33,15.33,0,0,1-2.64-5.37l9.79-2.57a7.92,7.92,0,0,0,2.58,3.86,7.34,7.34,0,0,0,5,1.66,8.76,8.76,0,0,0,2.29-.31,6.38,6.38,0,0,0,2.07-1,5.23,5.23,0,0,0,1.5-1.72,5.31,5.31,0,0,0,.6-2.64,4.83,4.83,0,0,0-.78-2.82,5.57,5.57,0,0,0-2.08-1.79,10.15,10.15,0,0,0-2.91-.94,19,19,0,0,0-3.27-.28h-2.82V81.43h3.07a19.14,19.14,0,0,0,2.89-.22,7.71,7.71,0,0,0,2.48-.82,4.88,4.88,0,0,0,1.76-1.61,4.81,4.81,0,0,0,.66-2.66,4.28,4.28,0,0,0-1.7-3.66,6.36,6.36,0,0,0-3.89-1.26,6,6,0,0,0-3.92,1.35,6.25,6.25,0,0,0-2.17,3.61L97.75,73.9A14.34,14.34,0,0,1,100.2,69a15.22,15.22,0,0,1,3.86-3.52,17.82,17.82,0,0,1,4.86-2.13,20.43,20.43,0,0,1,5.4-.72,22,22,0,0,1,5.74.75,15.47,15.47,0,0,1,5,2.33,12.26,12.26,0,0,1,3.55,3.93A11,11,0,0,1,130,75.17a9.53,9.53,0,0,1-2.1,6.26,10.32,10.32,0,0,1-5.37,3.42V85a11.19,11.19,0,0,1,3.45,1.41,11,11,0,0,1,2.7,2.32,10.44,10.44,0,0,1,1.76,3A9.88,9.88,0,0,1,131,95.32Z"/><path class="cls-2" d="M154.18,108.23H141.94l18-35.4h-21v-9h32.26V72.2Z"/><path class="cls-2" d="M213.24,78.48a18.1,18.1,0,0,1-1.38,7.18,41.41,41.41,0,0,1-3.58,6.56l-10.72,16H184.83l11-15.32.13-.18a8.09,8.09,0,0,1-1.54.37,10,10,0,0,1-1.6.13,15.06,15.06,0,0,1-5.57-1,14.07,14.07,0,0,1-4.64-3,14.27,14.27,0,0,1-4.38-10.51A16.26,16.26,0,0,1,179.65,72a14.87,14.87,0,0,1,3.76-5.08A16.65,16.65,0,0,1,189,63.7a21.54,21.54,0,0,1,13.59,0,16.32,16.32,0,0,1,5.55,3.17,15.09,15.09,0,0,1,3.73,5A15.36,15.36,0,0,1,213.24,78.48Zm-10.49-.13a7.31,7.31,0,0,0-1.86-5,6.43,6.43,0,0,0-5.07-2.1,6.84,6.84,0,0,0-5.14,2,7.12,7.12,0,0,0-1.92,5.18,7,7,0,0,0,1.89,5,6.67,6.67,0,0,0,5,2,7,7,0,0,0,5.11-1.94A6.87,6.87,0,0,0,202.75,78.35Z"/><path class="cls-2" d="M225.79,116h-8.47L222,98.19h9.86Z"/><path class="cls-2" d="M272.55,85.88a41.48,41.48,0,0,1-.95,9,22.69,22.69,0,0,1-3,7.5,14.92,14.92,0,0,1-13.37,7.06,15.93,15.93,0,0,1-8-1.91,15.75,15.75,0,0,1-5.43-5.15,22.31,22.31,0,0,1-3-7.5,41.49,41.49,0,0,1-.94-9,41,41,0,0,1,.94-8.94,21.82,21.82,0,0,1,3-7.41,15.74,15.74,0,0,1,5.43-5,18,18,0,0,1,16,0,15.62,15.62,0,0,1,5.36,5,22.19,22.19,0,0,1,3,7.41A41,41,0,0,1,272.55,85.88Zm-10.8,0a45.63,45.63,0,0,0-.25-4.58,23,23,0,0,0-.94-4.67,10,10,0,0,0-2-3.64,4.24,4.24,0,0,0-3.36-1.48A4.33,4.33,0,0,0,251.83,73a10.27,10.27,0,0,0-2,3.64,21.7,21.7,0,0,0-1,4.67,45.63,45.63,0,0,0-.25,4.58c0,1.43.08,3,.25,4.68a22,22,0,0,0,1,4.71,10.45,10.45,0,0,0,2,3.64,4.35,4.35,0,0,0,3.39,1.47,4.26,4.26,0,0,0,3.36-1.47,10.2,10.2,0,0,0,2-3.64,23.25,23.25,0,0,0,.94-4.71C261.67,88.87,261.75,87.31,261.75,85.88Z"/><path class="cls-2" d="M313.09,85.88a41.49,41.49,0,0,1-.94,9,22.91,22.91,0,0,1-3,7.5,15.57,15.57,0,0,1-5.37,5.15,16,16,0,0,1-21.46-5.15,22.32,22.32,0,0,1-3.05-7.5,41.49,41.49,0,0,1-.94-9,41,41,0,0,1,.94-8.94,21.83,21.83,0,0,1,3.05-7.41,15.74,15.74,0,0,1,5.43-5,18,18,0,0,1,16,0,15.56,15.56,0,0,1,5.37,5,22.4,22.4,0,0,1,3,7.41A41,41,0,0,1,313.09,85.88Zm-10.79,0c0-1.38-.09-2.9-.25-4.58a23,23,0,0,0-.95-4.67,10.17,10.17,0,0,0-2-3.64,4.24,4.24,0,0,0-3.36-1.48A4.33,4.33,0,0,0,292.38,73a10.12,10.12,0,0,0-2,3.64,21.11,21.11,0,0,0-1,4.67,45.63,45.63,0,0,0-.25,4.58c0,1.43.08,3,.25,4.68a21.36,21.36,0,0,0,1,4.71,10.3,10.3,0,0,0,2,3.64,4.35,4.35,0,0,0,3.39,1.47,4.26,4.26,0,0,0,3.36-1.47,10.34,10.34,0,0,0,2-3.64,23.24,23.24,0,0,0,.95-4.71C302.21,88.87,302.3,87.31,302.3,85.88Z"/><path class="cls-2" d="M353.64,85.88a42.12,42.12,0,0,1-.94,9,22.92,22.92,0,0,1-3,7.5,14.92,14.92,0,0,1-13.37,7.06,15.93,15.93,0,0,1-8-1.91,15.75,15.75,0,0,1-5.43-5.15,22.31,22.31,0,0,1-3-7.5,41.49,41.49,0,0,1-.94-9,41,41,0,0,1,.94-8.94,21.82,21.82,0,0,1,3-7.41,15.74,15.74,0,0,1,5.43-5,18,18,0,0,1,16,0,15.62,15.62,0,0,1,5.36,5,22.42,22.42,0,0,1,3,7.41A41.61,41.61,0,0,1,353.64,85.88Zm-10.8,0a45.63,45.63,0,0,0-.25-4.58,23,23,0,0,0-.94-4.67,10,10,0,0,0-2-3.64,4.24,4.24,0,0,0-3.36-1.48A4.33,4.33,0,0,0,332.92,73a10.43,10.43,0,0,0-2,3.64,21.7,21.7,0,0,0-1,4.67,45.63,45.63,0,0,0-.25,4.58c0,1.43.08,3,.25,4.68a22,22,0,0,0,1,4.71,10.61,10.61,0,0,0,2,3.64,4.35,4.35,0,0,0,3.39,1.47,4.26,4.26,0,0,0,3.36-1.47,10.2,10.2,0,0,0,2-3.64,23.25,23.25,0,0,0,.94-4.71C342.76,88.87,342.84,87.31,342.84,85.88Z"/><path class="cls-2" d="M384.2,108.23v-4.08h-.12a9.83,9.83,0,0,1-4.3,3.67,14,14,0,0,1-5.93,1.29,13.84,13.84,0,0,1-6.28-1.38,14.46,14.46,0,0,1-4.68-3.68,16,16,0,0,1-2.91-5.3,19.72,19.72,0,0,1-1-6.28,18.92,18.92,0,0,1,1-6.24A16.11,16.11,0,0,1,363,81a13.74,13.74,0,0,1,10.76-4.9,11.92,11.92,0,0,1,5.84,1.32,12.91,12.91,0,0,1,3.7,2.89h.13V72.45H374V66.87h9.36V60.78h10.29v6.09h2.89v5.58h-2.89v35.78Zm-.37-15.69a8.32,8.32,0,0,0-.54-3,8.52,8.52,0,0,0-1.5-2.58,7.58,7.58,0,0,0-2.36-1.82,6.94,6.94,0,0,0-3.14-.69,7.08,7.08,0,0,0-3.2.69,7.22,7.22,0,0,0-3.73,4.33,9.33,9.33,0,0,0-.47,3,9.63,9.63,0,0,0,.47,3,7.53,7.53,0,0,0,1.41,2.6,7.19,7.19,0,0,0,2.32,1.82,7.08,7.08,0,0,0,3.2.69,6.94,6.94,0,0,0,3.14-.69,7.58,7.58,0,0,0,2.36-1.82,8.65,8.65,0,0,0,2-5.52Z"/></svg>