<?xml version="1.0" encoding="utf-8"?>
<!-- Generator: Adobe Illustrator 22.1.0, SVG Export Plug-In . SVG Version: 6.00 Build 0)  -->
<svg version="1.1" id="Layer_1" xmlns="http://www.w3.org/2000/svg" xmlns:xlink="http://www.w3.org/1999/xlink" x="0px" y="0px"
	 viewBox="0 0 987 410.4" style="enable-background:new 0 0 987 410.4;" xml:space="preserve">
<style type="text/css">
	.st0{fill:#C90202;}
	.st1{fill:#FFFFFF;}
</style>
<title>Image convert 3</title>
<path d="M82.7,227.6l-6.1,6.3v9.8h-7.1v-38.5h7.2v19.7l19-19.7h8l-16.1,17.2l17.2,21.3h-8.4L82.7,227.6z"/>
<path d="M138.4,237.7v6h-28.9v-38.5h28.1v6h-21v10h18.6v5.9h-18.5v10.6H138.4z"/>
<path d="M181.8,243.7l-0.1-25.5l-12.6,21.1h-3.2l-12.6-20.8v25.2h-6.8v-38.5h5.9l15.3,25.5l15-25.5h5.9l0.1,38.5H181.8z"/>
<path d="M248.3,205.2v38.5h-5.9l-21.2-26.1v26.1h-7.1v-38.5h5.9l21.2,26.1v-26.1H248.3z"/>
<path d="M287.5,237.7v6h-28.9v-38.5h28.1v6h-21v10h18.6v5.9h-18.6v10.6H287.5z M268,202h-5.7l7.4-5.9h6.2l7.4,5.9h-5.7l-4.8-3
	L268,202z M282,197l-8.4-6.4h7.4l6.3,6.4H282z"/>
<path d="M329.7,205.2v38.5h-5.9l-21.2-26.1v26.1h-7.1v-38.5h5.9l21.2,26.1v-26.1H329.7z"/>
<path d="M352.5,224.4c0-11.5,8.8-19.8,20.6-19.8c6.3,0,11.7,2.2,15.2,6.4l-4.6,4.4c-2.6-2.9-6.4-4.6-10.3-4.5
	c-8,0-13.8,5.6-13.8,13.5c0,7.9,5.8,13.5,13.8,13.5c3.9,0.1,7.7-1.6,10.3-4.5l4.6,4.4c-3.6,4.2-9,6.4-15.3,6.4
	C361.3,244.2,352.5,235.9,352.5,224.4z"/>
<path d="M419.4,234.8h-19.2l-3.8,8.9H389l17.3-38.5h7l17.4,38.5h-7.5L419.4,234.8z M417,229.2l-7.3-16.8l-7.2,16.8H417z"/>
<path d="M441.5,211.2h-12.8v-6.1h32.7v6.1h-12.8v32.4h-7.1V211.2z"/>
<path d="M501,205.2v38.5h-7.1v-16.5H474v16.5h-7.2v-38.5h7.2v15.9h19.9v-15.9H501z"/>
<path d="M528,230.1v13.6h-7.2v-13.5l-15.1-25h7.6l11.2,18.7l11.4-18.8h7L528,230.1z"/>
<path d="M562.9,205.2h16.8c12.5,0,21,7.7,21,19.2c0,11.5-8.5,19.2-21,19.2h-16.8V205.2z M579.4,237.6c8.6,0,14.1-5.2,14.1-13.2
	s-5.5-13.2-14.1-13.2H570v26.4H579.4z"/>
<path d="M605.6,224.4c0-11.4,8.8-19.8,20.7-19.8S647,213,647,224.4c0,11.4-8.8,19.8-20.7,19.8S605.6,235.8,605.6,224.4z
	 M639.8,224.4c-0.2-7.5-6.4-13.4-13.9-13.2c-7.2,0.2-13,6-13.2,13.2c-0.2,7.5,5.7,13.7,13.2,13.9s13.7-5.7,13.9-13.2
	C639.8,224.9,639.8,224.6,639.8,224.4z"/>
<path d="M654.6,205.2h7.2v32.4h20.1v6h-27.3V205.2z"/>
<path d="M687.6,205.2h7.2v32.4h20.1v6h-27.3V205.2z"/>
<path d="M732.5,239.6l2.5-5.6c3.7,2.7,8.1,4.2,12.7,4.2c6,0,8.5-2.1,8.5-5c0-8.3-22.9-2.9-22.9-17.2c0-6.2,5-11.5,15.5-11.5
	c4.5-0.1,8.9,1.1,12.8,3.4l-2.2,5.6c-3.2-1.9-6.9-2.9-10.6-3c-5.9,0-8.3,2.3-8.3,5.2c0,8.2,22.8,2.9,22.8,17c0,6.2-5,11.4-15.6,11.4
	C741.6,244.2,735.6,242.4,732.5,239.6z"/>
<path d="M802.5,218.9c0,8.5-6.3,13.7-16.4,13.7h-8.7v11.1h-7.2v-38.5h15.8C796.2,205.2,802.5,210.4,802.5,218.9z M795.3,218.9
	c0-4.8-3.2-7.6-9.5-7.6h-8.3v15.3h8.3C792.1,226.5,795.3,223.7,795.3,218.9z"/>
<path d="M838.5,237.7v6h-28.9v-38.5h28.1v6h-20.9v10h18.6v5.9h-18.6v10.6H838.5z"/>
<path d="M875.4,237.7v6h-28.9v-38.5h28.1v6h-21v10h18.6v5.9h-18.5v10.6H875.4z"/>
<path d="M883.4,205.2h16.8c12.5,0,21,7.7,21,19.2c0,11.5-8.5,19.2-21,19.2h-16.8V205.2z M899.9,237.6c8.6,0,14.1-5.2,14.1-13.2
	s-5.6-13.2-14.1-13.2h-9.3v26.4H899.9z"/>
<path d="M125.7,271.2L113,309.7h-7.6l-9.5-28.5l-9.7,28.5h-7.6l-12.8-38.5h7.4l9.6,29.2l10-29.2h6.6l9.7,29.4l9.8-29.4L125.7,271.2z
	"/>
<path d="M165.8,271.2v38.5h-7.1v-16.5h-19.9v16.5h-7.1v-38.5h7.1v15.9h19.9v-15.9H165.8z"/>
<path d="M176.1,271.2h7.1v38.5h-7.1V271.2z"/>
<path d="M201.5,277.2h-12.8v-6h32.7v6h-12.8v32.4h-7.1L201.5,277.2z"/>
<path d="M255.6,303.7v6h-28.9v-38.5h28.1v6h-21v10h18.6v5.9h-18.6v10.6L255.6,303.7z"/>
<path d="M276.1,290.4c0-11.5,8.8-19.8,20.6-19.8c6.3,0,11.7,2.2,15.2,6.4l-4.6,4.4c-2.6-2.9-6.4-4.6-10.3-4.5
	c-8,0-13.7,5.6-13.7,13.5S289,304,297,304c3.9,0.1,7.7-1.6,10.3-4.6l4.6,4.4c-3.6,4.2-9,6.4-15.3,6.4
	C284.9,310.2,276.1,301.9,276.1,290.4z"/>
<path d="M315.2,290.4c0-11.5,8.8-19.8,20.6-19.8c6.3,0,11.7,2.2,15.2,6.4l-4.6,4.4c-2.6-2.9-6.4-4.6-10.3-4.5
	c-8,0-13.8,5.6-13.8,13.5c0,7.9,5.8,13.5,13.8,13.5c3.9,0.1,7.7-1.6,10.3-4.5l4.6,4.4c-3.6,4.2-9,6.4-15.3,6.4
	C324,310.2,315.2,301.9,315.2,290.4z"/>
<path d="M370.4,290.4c0-11.5,8.8-19.8,20.6-19.8c6.3,0,11.7,2.2,15.2,6.4l-4.6,4.4c-2.6-2.9-6.4-4.6-10.3-4.5
	c-8,0-13.8,5.6-13.8,13.5c0,7.9,5.8,13.5,13.8,13.5c3.9,0.1,7.7-1.6,10.3-4.5l4.6,4.4c-3.6,4.2-9,6.4-15.3,6.4
	C379.2,310.2,370.4,301.9,370.4,290.4z"/>
<path d="M438.3,309.7l-7.9-11.3c-0.5,0-1,0.1-1.5,0h-8.7v11.2h-7.1v-38.5H429c10.1,0,16.4,5.2,16.4,13.7c0,5.8-3,10.1-8.2,12.1
	l8.8,12.7H438.3z M428.6,277.2h-8.4v15.3h8.4c6.3,0,9.5-2.9,9.5-7.7S434.9,277.2,428.6,277.2L428.6,277.2z"/>
<path d="M482.2,303.7v6h-28.9v-38.5h28.1v6h-21v10h18.6v5.9h-18.6v10.6L482.2,303.7z"/>
<path d="M515.1,300.8h-19.2l-3.8,8.9h-7.4l17.3-38.5h7l17.4,38.5H519L515.1,300.8z M512.8,295.2l-7.3-16.8l-7.2,16.8H512.8z"/>
<path d="M566.7,309.7l-0.1-25.5L554,305.3h-3.2l-12.6-20.8v25.2h-6.8v-38.5h5.9l15.3,25.5l15-25.5h5.9v38.5H566.7z"/>
<path d="M595.8,305.6l2.5-5.5c3.7,2.7,8.1,4.2,12.7,4.2c6,0,8.5-2.1,8.5-5c0-8.3-22.9-2.9-22.9-17.2c0-6.2,5-11.5,15.5-11.5
	c4.5-0.1,9,1.1,12.8,3.4l-2.2,5.6c-3.2-1.9-6.9-2.9-10.6-3c-5.9,0-8.3,2.3-8.3,5.2c0,8.2,22.8,2.9,22.8,17c0,6.2-5,11.4-15.6,11.4
	C605,310.2,599,308.4,595.8,305.6z"/>
<path d="M665.9,284.9c0,8.5-6.3,13.7-16.4,13.7h-8.7v11.1h-7.1v-38.5h15.8C659.6,271.2,665.9,276.4,665.9,284.9z M658.7,284.9
	c0-4.8-3.2-7.6-9.5-7.6h-8.4v15.3h8.4C655.4,292.5,658.7,289.7,658.7,284.9z"/>
<path d="M680.2,277.2v11.7h18.6v6h-18.6v14.7H673v-38.4h28.1v6L680.2,277.2z"/>
<path d="M748.5,297.9c0,6.8-4.9,12.4-15.2,12.4c-5.5,0-11-1.6-14.5-4.4l3-5.6c3.2,2.5,7.2,3.8,11.3,3.8c5.1,0,8.1-2.3,8.1-5.9
	s-2.4-6-10.3-6h-9.3l2-21h22.6v6h-16.6l-0.8,8.9h3.7C743.9,286.1,748.5,291,748.5,297.9z"/>
<path d="M752.6,290.4c0-12.6,6.9-19.8,16.1-19.8s16.1,7.2,16.1,19.8c0,12.6-6.9,19.8-16.1,19.8S752.6,303.1,752.6,290.4z
	 M777.6,290.4c0-9.3-3.6-13.6-8.9-13.6s-8.9,4.3-8.9,13.6s3.6,13.6,8.9,13.6S777.6,299.7,777.6,290.4L777.6,290.4z"/>
<path d="M101.7,350.9c0,8.5-6.3,13.7-16.4,13.7h-8.7v11.1h-7.1v-38.5h15.8C95.4,337.2,101.7,342.4,101.7,350.9z M94.5,350.9
	c0-4.8-3.2-7.6-9.5-7.6h-8.4v15.3H85C91.3,358.5,94.5,355.7,94.5,350.9z"/>
<path d="M131.9,366.8h-19.2l-3.8,8.9h-7.4l17.3-38.5h7l17.4,38.5h-7.5L131.9,366.8z M129.5,361.2l-7.3-16.8l-7.2,16.8L129.5,361.2z"
	/>
<path d="M170.8,359.2h-9.7v9.6h-5.9v-9.6h-9.7v-5.5h9.7v-9.6h5.9v9.6h9.7V359.2z"/>
<path d="M203.5,359.2h-9.7v9.6h-5.9v-9.6h-9.7v-5.5h9.7v-9.6h5.9v9.6h9.7V359.2z"/>
<path d="M236.2,359.2h-9.7v9.6h-5.9v-9.6h-9.7v-5.5h9.7v-9.6h5.9v9.6h9.7V359.2z"/>
<path d="M268.4,361.3h7.4v5h-8l-1.1,9.4h-5l1.2-9.4h-9.3l-1.2,9.4h-5l1.1-9.4H241v-5h8l1.3-9.8h-7.4v-5h8l1.1-9.4h5l-1.2,9.4h9.2
	l1.1-9.4h5l-1.2,9.4h7.4l0.1,5h-8L268.4,361.3z M263.4,361.3l1.2-9.8h-9.2l-1.3,9.8H263.4z"/>
<path d="M294.6,337.2v38.5h-7.1v-32.5h-8.1v-6L294.6,337.2z"/>
<path d="M320.2,337.2h7.1v32.4h20.1v6.1h-27.3V337.2z"/>
<path d="M353.1,337.2h7.1v38.5h-7.1V337.2z"/>
<path d="M397,356h6.8v15.4c-4.3,3.3-9.6,5-15.1,4.9c-11.9,0-20.7-8.3-20.7-19.8s8.8-19.8,20.8-19.8c6.4,0,11.8,2.1,15.5,6.3
	l-4.5,4.4c-2.8-2.9-6.6-4.5-10.6-4.4c-8.2,0-14,5.6-14,13.5c0,7.8,5.8,13.5,13.9,13.5c2.8,0.1,5.5-0.6,7.9-2L397,356z"/>
<path d="M447.3,337.2v38.5h-7.1v-16.5h-19.9v16.5h-7.1v-38.5h7.1v15.9h19.9v-15.9H447.3z"/>
<path d="M465.5,343.2h-12.8v-6.1h32.7v6.1h-12.8v32.4h-7.1V343.2z"/>
<path d="M540.2,365.2c0,6.6-5.2,10.5-15.1,10.5H506v-38.5h18c9.2,0,14.2,3.9,14.2,10c0.1,3.5-1.8,6.8-5,8.5
	C537.5,356.8,540.4,360.8,540.2,365.2z M513.2,342.8v10.6h10.1c5,0,7.8-1.8,7.8-5.3c0-3.5-2.8-5.3-7.8-5.3L513.2,342.8z M533,364.5
	c0-3.9-2.9-5.6-8.3-5.6h-11.6v11.1h11.5C530,370.1,533,368.4,533,364.5z"/>
<path d="M576.7,369.7v6h-28.9v-38.5h28.1v6H555v10h18.6v5.9H555v10.6H576.7z"/>
<path d="M584.7,337.2h7.2v38.5h-7.2V337.2z"/>
<path d="M628.5,356h6.8v15.4c-4.3,3.3-9.6,5-15.1,4.9c-11.9,0-20.7-8.3-20.7-19.8s8.8-19.8,20.8-19.8c6.4,0,11.8,2.1,15.5,6.3
	l-4.5,4.4c-2.8-2.9-6.6-4.5-10.6-4.4c-8.2,0-14,5.6-14,13.5c0,7.8,5.8,13.5,13.9,13.5c2.8,0.1,5.5-0.6,7.9-2L628.5,356z"/>
<path d="M673.5,369.7v6h-28.9v-38.5h28.1v6h-21v10h18.6v5.9h-18.6v10.6H673.5z"/>
<path d="M721.9,363.9c0,6.8-4.9,12.4-15.2,12.4c-5.4,0-10.9-1.6-14.5-4.4l3-5.6c3.2,2.5,7.2,3.8,11.3,3.8c5.1,0,8.1-2.3,8.1-5.9
	s-2.4-6-10.3-6h-9.3l2-21h22.6v6h-16.6l-0.8,8.9h3.7C717.4,352.1,721.9,357,721.9,363.9z"/>
<path d="M726.1,356.4c0-12.6,6.9-19.8,16-19.8s16.1,7.1,16.1,19.8s-6.9,19.8-16.1,19.8S726.1,369.1,726.1,356.4z M751.1,356.4
	c0-9.3-3.6-13.6-8.9-13.6s-8.8,4.3-8.8,13.6s3.6,13.6,8.8,13.6S751,365.7,751.1,356.4L751.1,356.4z"/>
<path d="M801.2,375.7l-0.1-25.5l-12.6,21.1h-3.2l-12.6-20.8v25.2h-6.8v-38.5h5.9l15.3,25.5l15-25.5h5.9l0,38.5H801.2z"/>
<path d="M818.3,337.2h7.2v32.4h20.1v6.1h-27.3V337.2z"/>
<g id="_Rectangle_">
	<rect x="81" y="39.2" class="st0" width="383" height="113.1"/>
</g>
<g>
	<path class="st1" d="M122.6,117.7V81.5l-9.2,7.1l-6-8.3l16.2-11.9h10.6v49.2H122.6z"/>
	<path class="st1" d="M189.6,84.7c0,2.9-0.5,5.6-1.5,8c-1,2.4-2.3,4.8-4,7.3l-11.9,17.7h-14.1l12.2-17l0.1-0.2
		c-0.5,0.2-1.1,0.3-1.7,0.4c-0.6,0.1-1.2,0.1-1.8,0.1c-2.2,0-4.2-0.4-6.2-1.1s-3.7-1.9-5.1-3.3c-1.5-1.4-2.7-3.1-3.5-5.1
		c-0.9-2-1.3-4.2-1.3-6.6c0-2.8,0.5-5.3,1.5-7.5c1-2.2,2.4-4.1,4.2-5.6c1.8-1.5,3.8-2.7,6.2-3.5c2.4-0.8,4.9-1.2,7.5-1.2
		c2.7,0,5.2,0.4,7.6,1.2c2.4,0.8,4.4,2,6.1,3.5c1.7,1.5,3.1,3.4,4.1,5.6C189.1,79.6,189.6,82.1,189.6,84.7z M178,84.6
		c0-2.1-0.7-4-2.1-5.5c-1.4-1.6-3.2-2.3-5.6-2.3s-4.3,0.7-5.7,2.2c-1.4,1.5-2.1,3.4-2.1,5.7c0,2.2,0.7,4.1,2.1,5.5s3.3,2.2,5.6,2.2
		c2.3,0,4.2-0.7,5.7-2.2C177.3,88.8,178,86.9,178,84.6z"/>
	<path class="st1" d="M234.6,84.7c0,2.9-0.5,5.6-1.5,8c-1,2.4-2.3,4.8-4,7.3l-11.9,17.7h-14.1l12.2-17l0.1-0.2
		c-0.5,0.2-1.1,0.3-1.7,0.4c-0.6,0.1-1.2,0.1-1.8,0.1c-2.2,0-4.2-0.4-6.2-1.1s-3.7-1.9-5.1-3.3c-1.5-1.4-2.7-3.1-3.5-5.1
		c-0.9-2-1.3-4.2-1.3-6.6c0-2.8,0.5-5.3,1.5-7.5c1-2.2,2.4-4.1,4.2-5.6c1.8-1.5,3.8-2.7,6.2-3.5c2.4-0.8,4.9-1.2,7.5-1.2
		c2.7,0,5.2,0.4,7.6,1.2c2.4,0.8,4.4,2,6.1,3.5c1.7,1.5,3.1,3.4,4.1,5.6C234,79.6,234.6,82.1,234.6,84.7z M222.9,84.6
		c0-2.1-0.7-4-2.1-5.5c-1.4-1.6-3.2-2.3-5.6-2.3s-4.3,0.7-5.7,2.2c-1.4,1.5-2.1,3.4-2.1,5.7c0,2.2,0.7,4.1,2.1,5.5s3.3,2.2,5.6,2.2
		c2.3,0,4.2-0.7,5.7-2.2C222.2,88.8,222.9,86.9,222.9,84.6z"/>
	<path class="st1" d="M248.5,126.3h-9.4l5.2-19.7h10.9L248.5,126.3z"/>
	<path class="st1" d="M300.3,92.9c0,3.5-0.3,6.8-1,9.9c-0.7,3.2-1.8,5.9-3.3,8.3c-1.5,2.4-3.5,4.3-5.9,5.7c-2.4,1.4-5.4,2.1-8.9,2.1
		s-6.4-0.7-8.9-2.1c-2.5-1.4-4.5-3.3-6-5.7c-1.6-2.4-2.7-5.2-3.4-8.3c-0.7-3.2-1-6.5-1-9.9s0.3-6.8,1-9.9s1.8-5.9,3.4-8.2
		c1.6-2.3,3.6-4.2,6-5.6c2.5-1.4,5.4-2.1,8.9-2.1s6.4,0.7,8.9,2.1c2.4,1.4,4.4,3.3,5.9,5.6c1.5,2.3,2.6,5.1,3.3,8.2
		C299.9,86.2,300.3,89.5,300.3,92.9z M288.3,92.9c0-1.5-0.1-3.2-0.3-5.1c-0.2-1.9-0.5-3.6-1-5.2c-0.5-1.6-1.2-2.9-2.2-4
		c-1-1.1-2.2-1.6-3.7-1.6s-2.8,0.5-3.8,1.6c-1,1.1-1.7,2.4-2.3,4c-0.5,1.6-0.9,3.3-1.1,5.2c-0.2,1.9-0.3,3.5-0.3,5.1
		c0,1.6,0.1,3.3,0.3,5.2c0.2,1.9,0.5,3.6,1.1,5.2c0.5,1.6,1.3,2.9,2.3,4c1,1.1,2.2,1.6,3.8,1.6s2.8-0.5,3.7-1.6
		c0.9-1.1,1.7-2.4,2.2-4c0.5-1.6,0.9-3.3,1-5.2C288.2,96.2,288.3,94.5,288.3,92.9z"/>
	<path class="st1" d="M345.2,92.9c0,3.5-0.3,6.8-1,9.9c-0.7,3.2-1.8,5.9-3.3,8.3c-1.5,2.4-3.5,4.3-5.9,5.7c-2.4,1.4-5.4,2.1-8.9,2.1
		s-6.4-0.7-8.9-2.1c-2.5-1.4-4.5-3.3-6-5.7c-1.6-2.4-2.7-5.2-3.4-8.3c-0.7-3.2-1-6.5-1-9.9s0.3-6.8,1-9.9s1.8-5.9,3.4-8.2
		c1.6-2.3,3.6-4.2,6-5.6c2.5-1.4,5.4-2.1,8.9-2.1s6.4,0.7,8.9,2.1c2.4,1.4,4.4,3.3,5.9,5.6c1.5,2.3,2.6,5.1,3.3,8.2
		C344.8,86.2,345.2,89.5,345.2,92.9z M333.2,92.9c0-1.5-0.1-3.2-0.3-5.1c-0.2-1.9-0.5-3.6-1-5.2c-0.5-1.6-1.2-2.9-2.2-4
		c-1-1.1-2.2-1.6-3.7-1.6s-2.8,0.5-3.8,1.6c-1,1.1-1.7,2.4-2.3,4c-0.5,1.6-0.9,3.3-1.1,5.2c-0.2,1.9-0.3,3.5-0.3,5.1
		c0,1.6,0.1,3.3,0.3,5.2c0.2,1.9,0.5,3.6,1.1,5.2c0.5,1.6,1.3,2.9,2.3,4c1,1.1,2.2,1.6,3.8,1.6s2.8-0.5,3.7-1.6
		c0.9-1.1,1.7-2.4,2.2-4c0.5-1.6,0.9-3.3,1-5.2C333.1,96.2,333.2,94.5,333.2,92.9z"/>
	<path class="st1" d="M390.1,92.9c0,3.5-0.3,6.8-1,9.9c-0.7,3.2-1.8,5.9-3.3,8.3c-1.5,2.4-3.5,4.3-5.9,5.7c-2.4,1.4-5.4,2.1-8.9,2.1
		s-6.4-0.7-8.9-2.1c-2.5-1.4-4.5-3.3-6-5.7c-1.6-2.4-2.7-5.2-3.4-8.3c-0.7-3.2-1-6.5-1-9.9s0.3-6.8,1-9.9s1.8-5.9,3.4-8.2
		c1.6-2.3,3.6-4.2,6-5.6c2.5-1.4,5.4-2.1,8.9-2.1s6.4,0.7,8.9,2.1c2.4,1.4,4.4,3.3,5.9,5.6c1.5,2.3,2.6,5.1,3.3,8.2
		C389.7,86.2,390.1,89.5,390.1,92.9z M378.1,92.9c0-1.5-0.1-3.2-0.3-5.1c-0.2-1.9-0.5-3.6-1-5.2c-0.5-1.6-1.2-2.9-2.2-4
		c-1-1.1-2.2-1.6-3.7-1.6s-2.8,0.5-3.8,1.6c-1,1.1-1.7,2.4-2.3,4c-0.5,1.6-0.9,3.3-1.1,5.2c-0.2,1.9-0.3,3.5-0.3,5.1
		c0,1.6,0.1,3.3,0.3,5.2c0.2,1.9,0.5,3.6,1.1,5.2c0.5,1.6,1.3,2.9,2.3,4c1,1.1,2.2,1.6,3.8,1.6s2.8-0.5,3.7-1.6
		c0.9-1.1,1.7-2.4,2.2-4c0.5-1.6,0.9-3.3,1-5.2C378,96.2,378.1,94.5,378.1,92.9z"/>
	<path class="st1" d="M423.9,117.7v-4.5h-0.1c-1.1,1.8-2.7,3.1-4.8,4.1c-2.1,0.9-4.3,1.4-6.6,1.4c-2.6,0-4.9-0.5-7-1.5
		c-2-1-3.8-2.4-5.2-4.1c-1.4-1.7-2.5-3.6-3.2-5.9c-0.7-2.2-1.1-4.5-1.1-7c0-2.4,0.4-4.7,1.1-6.9c0.8-2.2,1.9-4.1,3.3-5.8
		c1.4-1.7,3.1-3,5.1-4c2-1,4.3-1.5,6.8-1.5c2.5,0,4.7,0.5,6.5,1.5c1.8,1,3.1,2,4.1,3.2h0.1v-8.7h-10.4v-6.2H423v-6.7h11.4v6.7h3.2
		v6.2h-3.2v39.6H423.9z M423.5,100.3c0-1.1-0.2-2.2-0.6-3.3c-0.4-1.1-1-2-1.7-2.9c-0.7-0.8-1.6-1.5-2.6-2c-1-0.5-2.2-0.8-3.5-0.8
		c-1.3,0-2.5,0.3-3.5,0.8c-1,0.5-1.9,1.2-2.6,2c-0.7,0.8-1.2,1.8-1.6,2.8c-0.3,1.1-0.5,2.2-0.5,3.3s0.2,2.2,0.5,3.3
		c0.3,1.1,0.9,2.1,1.6,2.9c0.7,0.8,1.6,1.5,2.6,2c1,0.5,2.2,0.8,3.5,0.8c1.3,0,2.5-0.3,3.5-0.8c1-0.5,1.9-1.2,2.6-2
		c0.7-0.8,1.3-1.8,1.7-2.9C423.3,102.5,423.5,101.4,423.5,100.3z"/>
</g>
</svg>
