<?xml version="1.0" encoding="utf-8"?>
<!-- Generator: Adobe Illustrator 22.1.0, SVG Export Plug-In . SVG Version: 6.00 Build 0)  -->
<svg version="1.1" id="Layer_1" xmlns="http://www.w3.org/2000/svg" xmlns:xlink="http://www.w3.org/1999/xlink" x="0px" y="0px"
	 viewBox="0 0 1188 532" style="enable-background:new 0 0 1188 532;" xml:space="preserve">
<style type="text/css">
	.st0{fill:#C90202;}
	.st1{fill:#FFFFFF;}
</style>
<title>Image convert makeup convert</title>
<path d="M70.6,233.3l4.1-9c5,3.5,11,5.4,17.1,5.4c7.1,0,10-2.4,10-5.6c0-9.7-30.1-3-30.1-22.3c0-8.8,7.1-16.1,21.8-16.1
	c6.5,0,13.2,1.6,18,4.6l-3.7,9.1c-4.4-2.6-9.3-4-14.4-4.1c-7.1,0-9.8,2.7-9.8,5.9c0,9.6,30.1,3,30.1,22c0,8.7-7.2,16.1-22,16.1
	C83.4,239.3,75.2,236.8,70.6,233.3z"/>
<path d="M118.6,212.5c0-15.4,12-26.8,28.3-26.8s28.3,11.3,28.3,26.8s-12.1,26.8-28.4,26.8S118.6,227.9,118.6,212.5z M163.1,212.5
	c0-9.8-7-16.6-16.2-16.6s-16.2,6.7-16.2,16.6s7,16.6,16.2,16.6S163.1,222.3,163.1,212.5z"/>
<path d="M231.8,186.6v51.8H222l-25.9-31.4v31.4h-11.8v-51.8h9.9L220,218v-31.4H231.8z"/>
<path d="M275.8,196.3h-16.6v-9.8h45.1v9.8h-16.6v42h-12L275.8,196.3z"/>
<path d="M310.8,186.6h12v51.8h-12V186.6z"/>
<path d="M382.6,186.6v51.8h-9.9l-25.8-31.4v31.4H335v-51.8h10l25.7,31.4v-31.4H382.6z"/>
<path d="M405.6,196.3H389v-9.8h45.1v9.8h-16.6v42h-12L405.6,196.3z"/>
<path d="M457.4,233.3l4.1-9c5,3.5,11,5.4,17.1,5.4c7.1,0,10-2.4,10-5.6c0-9.7-30.1-3-30.1-22.3c0-8.8,7.1-16.1,21.8-16.1
	c6.5,0,13.2,1.6,18,4.6l-3.7,9.1c-4.4-2.6-9.3-4-14.4-4.1c-7.1,0-9.8,2.7-9.8,5.9c0,9.6,30.1,3,30.1,22c0,8.7-7.2,16.1-22,16.1
	C470.3,239.3,462,236.8,457.4,233.3z"/>
<path d="M508.7,186.6h12v51.8h-12L508.7,186.6z"/>
<path d="M573.1,228.8v9.6H533v-51.8h39.2v9.6h-27.2v11.2H569v9.3h-24.1v12L573.1,228.8z M546.2,182.4h-8.4l9.8-10.7h10.2l9.8,10.7
	H559l-6.4-5.6L546.2,182.4z"/>
<path d="M582.2,215.6v-29h12v28.6c0,9.8,4.3,13.9,11.5,13.9s11.5-4.1,11.5-13.9v-28.6h11.8v29c0,15.2-8.7,23.7-23.5,23.7
	S582.2,230.8,582.2,215.6z"/>
<path d="M661.9,186.6h12v42h26v9.8h-38V186.6z"/>
<path d="M696.9,171.7h12.4l10,10.7h-9L696.9,171.7z M706.6,186.6h12v51.8h-12V186.6z"/>
<path d="M786.8,211.7h11v21c-5.7,4.3-13.5,6.6-20.9,6.6c-16.3,0-28.3-11.2-28.3-26.8c0-15.6,12-26.8,28.5-26.8
	c9.1,0,16.7,3.1,21.7,8.9l-7.8,7.1c-3.4-3.8-8.3-5.9-13.4-5.8c-10.1,0-16.9,6.7-16.9,16.6c0,9.7,6.9,16.6,16.8,16.6
	c3.2,0.1,6.5-0.7,9.3-2.2L786.8,211.7z"/>
<path d="M808.9,186.6h12v51.8h-12V186.6z"/>
<path d="M867.2,227.3h-24.1l-4.6,11.1h-12.3l23.1-51.8h11.8l23.2,51.8h-12.6L867.2,227.3z M853,182.4l-13.4-10.7H852l10,10.7H853z
	 M863.4,218.2l-8.2-19.8l-8.2,19.8H863.4z"/>
<path d="M888.3,215.6v-29h12v28.6c0,9.8,4.3,13.9,11.5,13.9s11.5-4.1,11.5-13.9v-28.6h11.8v29c0,15.2-8.7,23.7-23.5,23.7
	S888.3,230.8,888.3,215.6z"/>
<path d="M1002.1,227.3H978l-4.6,11.1h-12.3l23.1-51.8h11.8l23.2,51.8h-12.6L1002.1,227.3z M983.8,182.4h-8.5l9.8-8.4h10.1l9.8,8.4
	h-8.5l-6.4-4.2L983.8,182.4z M998.3,218.2l-8.2-19.8l-8.2,19.8H998.3z M997.5,169.6l-1.9-3.6c1.9-1.1,4-1.7,6.1-1.6
	c4.2,0,6.8,2.3,6.8,5.8c0,3-2.3,5.3-5.2,6.4l-2.8-2.7c2-1,2.7-2.1,2.7-3.1c0-1.3-1-2.2-2.5-2.2C999.6,168.7,998.5,169,997.5,169.6z"
	/>
<path d="M1071.8,238.4l-0.1-31.1l-15.2,25.6h-5.4l-15.2-24.9v30.4h-11.2v-51.8h9.9l19.4,32.2l19-32.2h9.8l0.2,51.8H1071.8z"/>
<path d="M69.4,282l1.9-4.1c2.3,1.6,5,2.5,7.8,2.5c3.3,0,4.6-1.1,4.6-2.6c0-4.4-13.8-1.4-13.8-10.2c0-4,3.3-7.4,10-7.4
	c2.9-0.1,5.7,0.7,8.3,2.1l-1.7,4.2c-2-1.2-4.3-1.8-6.6-1.9c-3.3,0-4.5,1.2-4.5,2.7c0,4.4,13.8,1.4,13.8,10.1c0,4-3.3,7.4-10.1,7.4
	C75.4,284.8,71.6,283.7,69.4,282z"/>
<path d="M91.5,272.5c0-7.1,5.5-12.3,13-12.3s13,5.2,13,12.3s-5.5,12.3-13,12.3S91.5,279.5,91.5,272.5z M112,272.5
	c-0.1-4.1-3.5-7.4-7.6-7.3c-4.1,0.1-7.4,3.5-7.3,7.6c0.1,4.1,3.4,7.3,7.5,7.3c4,0.1,7.3-3,7.5-7C112,272.9,112,272.7,112,272.5
	L112,272.5z"/>
<path d="M120.2,272.5c0-7.2,5.5-12.3,12.9-12.3c3.7-0.2,7.3,1.4,9.8,4.2l-3.5,3.3c-1.5-1.8-3.7-2.8-6-2.8c-4.2,0.2-7.5,3.7-7.3,7.9
	c0.1,4,3.3,7.2,7.3,7.3c2.3,0,4.5-1,6-2.8l3.5,3.3c-2.4,2.9-6.1,4.4-9.8,4.2C125.7,284.8,120.2,279.6,120.2,272.5z"/>
<path d="M146.6,260.6h5.5v23.8h-5.5V260.6z"/>
<path d="M173.4,279.3h-11l-2.1,5.1h-5.6l10.6-23.8h5.4l10.6,23.8h-5.8L173.4,279.3z M171.7,275.1L168,266l-3.8,9.1L171.7,275.1z"/>
<path d="M183.8,260.6h5.5v19.3h11.9v4.5h-17.4V260.6z"/>
<path d="M235.8,260.6v23.8h-5.5v-9.8h-10.8v9.8H214v-23.8h5.5v9.4h10.8v-9.4L235.8,260.6z"/>
<path d="M259.9,280v4.4h-18.4v-23.8h18v4.4h-12.5v5.2H258v4.3h-11.1v5.5H259.9z"/>
<path d="M279.9,279.3h-11l-2.1,5.1h-5.6l10.6-23.8h5.4l10.6,23.8h-5.8L279.9,279.3z M278.2,275.1l-3.8-9.1l-3.8,9.1L278.2,275.1z"/>
<path d="M305.5,284.4l-4.6-6.6h-5.1v6.6h-5.5v-23.8h10.3c6.4,0,10.3,3.3,10.3,8.6c0.1,3.3-1.8,6.3-4.9,7.5l5.3,7.7H305.5z
	 M300.3,265.1h-4.5v8.3h4.5c3.4,0,5.1-1.6,5.1-4.1C305.4,266.6,303.7,265.1,300.3,265.1z"/>
<path d="M319.9,265.1h-7.6v-4.5H333v4.5h-7.6v19.3h-5.5L319.9,265.1z"/>
<path d="M368.5,260.6l-10.3,23.8h-5.4l-10.3-23.8h6l7.2,17l7.3-17H368.5z"/>
<path d="M370.5,260.6h5.5v23.8h-5.5L370.5,260.6z"/>
<path d="M404.3,260.6L394,284.4h-5.4l-10.3-23.8h6l7.2,17l7.3-17H404.3z"/>
<path d="M406.3,260.6h5.5v23.8h-5.5V260.6z"/>
<path d="M417.5,260.6h10.8c7.8,0,13.1,4.7,13.1,11.9s-5.3,11.9-13.1,11.9h-10.8V260.6z M428,279.9c4.7,0,7.8-2.8,7.8-7.4
	s-3.1-7.4-7.8-7.4h-5v14.8H428z"/>
<path d="M460.1,265.1h-7.6v-4.5h20.7v4.5h-7.6v19.3h-5.5V265.1z"/>
<path d="M476.2,260.6h5.5v23.8h-5.5V260.6z"/>
<path d="M509.2,260.6v23.8h-4.5l-11.9-14.4v14.4h-5.4v-23.8h4.5l11.8,14.4v-14.4H509.2z"/>
<path d="M519.7,265.1h-7.6v-4.5h20.7v4.5h-7.6v19.3h-5.5V265.1z"/>
<path d="M70.3,371.9h8.4v2h-8.4V371.9z"/>
<path d="M90.7,370.3c0-6.6,5-11.4,11.8-11.4c3.1-0.1,6,1.1,8.2,3.3l-1.5,1.5c-1.7-1.8-4.1-2.7-6.6-2.7c-5.1,0-9.3,4.2-9.3,9.3
	s4.2,9.3,9.3,9.3c2.5,0.1,4.9-0.9,6.6-2.7l1.5,1.5c-2.2,2.2-5.1,3.4-8.2,3.3C95.7,381.7,90.7,376.9,90.7,370.3z"/>
<path d="M130.7,371.8v9.8h-2.3V372c0-3.5-1.9-5.4-5.1-5.4c-3.6,0-5.9,2.2-5.9,6.1v8.8h-2.3v-23.8h2.3v9.9c1.4-2.1,3.8-3.2,6.3-3.1
	C127.9,364.6,130.7,366.9,130.7,371.8z"/>
<path d="M149.6,371.1v10.4h-2.2v-2.6c-1,1.7-3,2.8-5.8,2.8c-3.8,0-6.1-2-6.1-4.9c0-2.6,1.7-4.8,6.5-4.8h5.3v-1
	c0-2.9-1.6-4.5-4.8-4.5c-2,0-4,0.7-5.6,2l-1-1.7c2-1.5,4.4-2.3,6.9-2.3C147.1,364.6,149.6,366.8,149.6,371.1z M139.7,362.1h-2.2
	l4.2-3h2.2l4.2,3h-2.2l-3.1-1.9L139.7,362.1z M147.3,376.5v-2.8H142c-3.3,0-4.3,1.3-4.3,3c0,2,1.6,3.2,4.3,3.2
	C144.3,380,146.4,378.6,147.3,376.5L147.3,376.5z M147.7,359.4h-2l3.9-3.5h2.8L147.7,359.4z"/>
<path d="M164.6,380.5c-1,0.8-2.3,1.2-3.6,1.2c-3.2,0-4.9-1.8-4.9-4.9v-10.2h-3v-1.9h3V361h2.3v3.7h5.1v1.9h-5.1v10
	c0,2,1,3.1,2.9,3.1c0.9,0,1.8-0.3,2.5-0.9L164.6,380.5z"/>
<path d="M174.8,379.6l1-1.8c1.8,1.2,3.9,1.9,6,1.9c3.2,0,4.5-1.1,4.5-2.8c0-4.4-10.9-0.9-10.9-7.6c0-2.8,2.4-4.8,6.6-4.8
	c2.1,0,4.1,0.5,5.9,1.6l-1,1.9c-1.5-1-3.2-1.5-5-1.4c-3,0-4.4,1.2-4.4,2.8c0,4.5,10.9,1.1,10.9,7.6c0,2.9-2.6,4.8-6.9,4.8
	C179.1,381.8,176.8,381,174.8,379.6z"/>
<path d="M191.1,373.1c0-4.7,3.9-8.6,8.6-8.5c4.7,0,8.6,3.9,8.5,8.6c0,4.7-3.8,8.5-8.5,8.5c-4.6,0.2-8.4-3.4-8.6-8
	C191.1,373.5,191.1,373.3,191.1,373.1z M205.9,373.1c0-3.9-2.7-6.6-6.2-6.6s-6.3,2.6-6.3,6.6s2.7,6.6,6.3,6.6S205.9,377,205.9,373.1
	z"/>
<path d="M228.3,371.8v9.8H226V372c0-3.5-1.9-5.4-5.1-5.4c-3.6,0-5.9,2.2-5.9,6.1v8.8h-2.3v-16.8h2.2v3.1c1.4-2.2,3.8-3.4,6.4-3.2
	C225.5,364.6,228.3,366.9,228.3,371.8z"/>
<path d="M251.7,380.5c-1,0.8-2.3,1.2-3.6,1.2c-3.2,0-4.9-1.8-4.9-4.9v-10.2h-3v-1.9h3V361h2.3v3.7h5.1v1.9h-5.1v10
	c0,2,1,3.1,2.9,3.1c0.9,0,1.8-0.3,2.5-0.9L251.7,380.5z"/>
<path d="M255.3,359.4c0-0.9,0.8-1.6,1.7-1.6c0.9,0,1.6,0.7,1.7,1.6c0,0,0,0,0,0c0,0.9-0.7,1.6-1.6,1.7c0,0,0,0-0.1,0
	C256.1,361,255.4,360.3,255.3,359.4z M255.8,364.7h2.3v16.8h-2.3L255.8,364.7z"/>
<path d="M280,371.8v9.8h-2.3V372c0-3.5-1.9-5.4-5.1-5.4c-3.6,0-5.9,2.2-5.9,6.1v8.8h-2.3v-16.8h2.2v3.1c1.4-2.2,3.8-3.4,6.4-3.2
	C277.1,364.6,280,366.9,280,371.8z"/>
<path d="M295,380.5c-1,0.8-2.3,1.2-3.5,1.2c-3.2,0-4.9-1.8-4.9-4.9v-10.2h-3v-1.9h3V361h2.3v3.7h5.1v1.9h-5.1v10c0,2,1,3.1,2.9,3.1
	c0.9,0,1.8-0.3,2.5-0.9L295,380.5z"/>
<path d="M307.5,357.8h2.3v23.7h-2.3V357.8z"/>
<path d="M311.9,358.1h3l4.4,4h-2.2L311.9,358.1z M316.1,364.7h2.3v16.8h-2.3V364.7z"/>
<path d="M326.7,379.9c0,0.6-0.2,1.3-0.5,1.9l-1.3,4.4h-1.5l1.1-4.6c-0.7-0.2-1.2-0.9-1.1-1.6c-0.1-0.9,0.6-1.8,1.6-1.8
	s1.8,0.6,1.8,1.6C326.7,379.8,326.7,379.8,326.7,379.9L326.7,379.9z"/>
<path d="M367.7,371.8v9.8h-2.3V372c0-3.5-1.8-5.4-4.8-5.4c-3.5,0-5.6,2.2-5.6,6.1v8.8h-2.3V372c0-3.5-1.8-5.4-4.9-5.4
	c-3.4,0-5.6,2.2-5.6,6.1v8.8h-2.3v-16.8h2.2v3.1c1.3-2.1,3.7-3.3,6.2-3.2c2.8,0,5,1.2,6,3.5c1.4-2.3,4-3.7,6.7-3.5
	C365,364.6,367.7,366.9,367.7,371.8z"/>
<path d="M388.6,373.8h-14.1c0.2,3.5,2.9,5.9,6.6,5.9c2,0.1,3.8-0.7,5.1-2.2l1.3,1.5c-1.6,1.8-4,2.8-6.5,2.8c-5.2,0-8.8-3.6-8.8-8.6
	s3.5-8.5,8.2-8.5s8.2,3.5,8.2,8.5C388.6,373.3,388.6,373.6,388.6,373.8z M374.5,372.1h11.9c-0.4-3.3-3.3-5.7-6.6-5.3
	C377,367.1,374.8,369.3,374.5,372.1z M377.3,362.1h-2.2l4.2-3h2.2l4.2,3h-2.2l-3.1-1.9L377.3,362.1z M385.3,359.4l-4.6-3.5h2.8
	l3.8,3.5H385.3z"/>
<path d="M421,371.8v9.8h-2.3V372c0-3.5-1.8-5.4-4.8-5.4c-3.5,0-5.6,2.2-5.6,6.1v8.8H406V372c0-3.5-1.8-5.4-4.9-5.4
	c-3.4,0-5.6,2.2-5.6,6.1v8.8h-2.3v-16.8h2.2v3.1c1.3-2.1,3.7-3.3,6.2-3.2c2.8,0,5,1.2,6,3.5c1.4-2.3,4-3.7,6.7-3.5
	C418.3,364.6,421,366.9,421,371.8z"/>
<path d="M463.3,371.8v9.8h-2.3V372c0-3.5-1.8-5.4-4.8-5.4c-3.5,0-5.6,2.2-5.6,6.1v8.8h-2.3V372c0-3.5-1.8-5.4-4.9-5.4
	c-3.4,0-5.6,2.2-5.6,6.1v8.8h-2.3v-16.8h2.2v3.1c1.3-2.1,3.7-3.3,6.2-3.2c2.8,0,5,1.2,6,3.5c1.4-2.3,3.9-3.7,6.6-3.5
	C460.6,364.6,463.3,366.9,463.3,371.8z"/>
<path d="M485,373.1c0,4.7-3.8,8.6-8.5,8.6c-4.7,0-8.6-3.8-8.6-8.5c0-4.7,3.8-8.6,8.5-8.6c0,0,0,0,0,0c4.6-0.2,8.4,3.4,8.5,8
	C485,372.7,485,372.9,485,373.1z M482.7,373.1c0-3.9-2.7-6.6-6.2-6.6s-6.3,2.6-6.3,6.6s2.7,6.6,6.3,6.6S482.7,377,482.7,373.1z
	 M473.3,362.1h-2.1l4.1-4h2.3l4.1,4h-2.1l-3.2-2.7L473.3,362.1z"/>
<path d="M489.1,359.4c0-0.9,0.8-1.6,1.7-1.6c0.9,0,1.6,0.7,1.7,1.5c0,0,0,0,0,0c-0.1,0.9-0.9,1.6-1.8,1.5
	C489.8,360.8,489.2,360.2,489.1,359.4L489.1,359.4z M489.6,364.7h2.3v16.8h-2.3V364.7z"/>
<path d="M520.8,364.7l-7.5,16.8H511l-7.5-16.8h2.4l6.3,14.3l6.4-14.3H520.8z"/>
<path d="M536.2,371.1v10.4H534v-2.6c-1,1.7-3,2.8-5.8,2.8c-3.8,0-6.1-2-6.1-4.9c0-2.6,1.7-4.8,6.5-4.8h5.3v-1c0-2.9-1.6-4.5-4.8-4.5
	c-2,0-4,0.7-5.6,2l-1-1.7c1.9-1.5,4.4-2.3,6.8-2.3C533.7,364.6,536.2,366.8,536.2,371.1z M529.3,362.1l-5.2-4h3l4.4,4H529.3z
	 M533.9,376.5v-2.8h-5.3c-3.3,0-4.3,1.3-4.3,3c0,2,1.6,3.2,4.2,3.2C530.9,380,533,378.6,533.9,376.5L533.9,376.5z"/>
<path d="M550.7,357.8h2.3v23.7h-2.3V357.8z"/>
<path d="M572,371.1v10.4h-2.2v-2.6c-1,1.7-3,2.8-5.8,2.8c-3.8,0-6.1-2-6.1-4.9c0-2.6,1.7-4.8,6.5-4.8h5.3v-1c0-2.9-1.6-4.5-4.8-4.5
	c-2,0-4,0.7-5.6,2l-1-1.7c2-1.5,4.4-2.3,6.8-2.3C569.6,364.6,572,366.8,572,371.1z M562.1,362.1H560l4.1-4h2.3l4.1,4h-2.1l-3.2-2.7
	L562.1,362.1z M569.7,376.5v-2.8h-5.3c-3.3,0-4.3,1.3-4.3,3c0,2,1.6,3.2,4.3,3.2C566.7,380,568.9,378.7,569.7,376.5L569.7,376.5z"/>
<path d="M593.4,364.7v16.8h-2.2v-3.1c-1.3,2.1-3.6,3.3-6,3.2c-4.3,0-7.1-2.4-7.1-7.2v-9.8h2.3v9.5c0,3.6,1.9,5.4,5.1,5.4
	c3.5,0,5.7-2.3,5.7-6.1v-8.8H593.4z"/>
<path d="M617,380.5c-1,0.8-2.3,1.2-3.5,1.2c-3.2,0-4.9-1.8-4.9-4.9v-10.2h-3v-1.9h3V361h2.3v3.7h5.1v1.9h-5.1v10c0,2,1,3.1,2.9,3.1
	c0.9,0,1.8-0.3,2.5-0.9L617,380.5z"/>
<path d="M629.6,364.6v2.2c-0.2,0-0.4,0-0.5,0c-3.5,0-5.7,2.2-5.7,6.2v8.6h-2.3v-16.9h2.2v3.3C624.4,365.8,626.5,364.6,629.6,364.6z"
	/>
<path d="M649,373.1c0,4.7-3.8,8.6-8.5,8.6c-4.7,0-8.6-3.8-8.6-8.5c0-4.7,3.8-8.6,8.5-8.6c0,0,0,0,0,0c4.6-0.1,8.4,3.4,8.5,8
	C649,372.8,649,372.9,649,373.1z M646.7,373.1c0-3.9-2.7-6.6-6.2-6.6s-6.3,2.6-6.3,6.6s2.7,6.6,6.3,6.6S646.7,377,646.7,373.1
	L646.7,373.1z M637.3,362.1h-2.1l4.1-4h2.3l4.1,4h-2.1l-3.2-2.7L637.3,362.1z"/>
<path d="M653.1,359.4c0-0.9,0.8-1.6,1.7-1.6c0,0,0,0,0,0c0.9,0,1.6,0.7,1.7,1.5c0,0,0,0,0,0c-0.1,0.9-0.9,1.6-1.8,1.5
	C653.8,360.8,653.2,360.2,653.1,359.4L653.1,359.4z M653.6,364.7h2.3v16.8h-2.3V364.7z"/>
<path d="M660.8,379.9c0-0.9,0.7-1.7,1.6-1.7c0,0,0,0,0,0c0.9,0,1.7,0.8,1.7,1.7c0,0,0,0,0,0c0,1-0.8,1.7-1.7,1.8
	C661.5,381.7,660.7,380.9,660.8,379.9C660.7,379.9,660.7,379.9,660.8,379.9z"/>
<path d="M70.3,417.9h8.4v2h-8.4V417.9z"/>
<path d="M90.7,416.3c0-6.6,5-11.4,11.8-11.4c3.1-0.1,6,1.1,8.2,3.3l-1.5,1.5c-1.7-1.8-4.1-2.7-6.6-2.7c-5.1,0-9.3,4.2-9.3,9.3
	c0,5.1,4.2,9.3,9.3,9.3c0,0,0,0,0,0c2.5,0.1,4.9-0.9,6.6-2.7l1.5,1.5c-2.2,2.2-5.1,3.4-8.2,3.3C95.7,427.7,90.7,422.9,90.7,416.3z"
	/>
<path d="M130.7,417.8v9.8h-2.3V418c0-3.5-1.9-5.4-5.1-5.4c-3.6,0-5.9,2.2-5.9,6.1v8.8h-2.3v-23.7h2.3v9.9c1.4-2.1,3.8-3.2,6.3-3.1
	C127.9,410.6,130.7,412.9,130.7,417.8z"/>
<path d="M136.3,405.4c0-0.9,0.8-1.6,1.7-1.6c0,0,0,0,0,0c0.9,0,1.6,0.7,1.7,1.6c0,0,0,0,0,0c0,0.9-0.7,1.7-1.7,1.7
	S136.3,406.3,136.3,405.4L136.3,405.4z M136.8,410.7h2.3v16.8h-2.3V410.7z"/>
<path d="M160.1,419.1c0,0.2,0,0.4,0,0.7H146c0.3,3.5,2.9,5.9,6.6,5.9c2,0.1,3.8-0.7,5.1-2.2l1.3,1.5c-1.6,1.8-4,2.8-6.5,2.8
	c-5.2,0-8.8-3.6-8.8-8.6s3.5-8.5,8.2-8.5S160.1,414.1,160.1,419.1z M146,418.1h12c-0.3-3.3-3.3-5.7-6.6-5.4
	C148.6,413,146.3,415.3,146,418.1L146,418.1z M148.9,408.1h-2.2l4.2-3h2.2l4.2,3h-2.2l-3.1-1.9L148.9,408.1z M156.9,405.4h-2
	l3.9-3.5h2.8L156.9,405.4z"/>
<path d="M173.6,426.5c-1,0.8-2.3,1.2-3.6,1.2c-3.2,0-4.9-1.8-4.9-4.9v-10.2h-3v-1.9h3V407h2.3v3.7h5.1v1.9h-5.1v10
	c0,2,1,3.1,2.9,3.1c0.9,0,1.8-0.3,2.5-0.9L173.6,426.5z"/>
<path d="M196.9,427.5l-5.3-7l-5.4,7h-2.6l6.6-8.6l-6.3-8.2h2.6l5.1,6.6l5.1-6.6h2.5l-6.3,8.2l6.7,8.6H196.9z"/>
<path d="M218.1,410.7v16.8h-2.2v-3.1c-1.3,2.1-3.6,3.3-6,3.2c-4.3,0-7.1-2.4-7.1-7.2v-9.8h2.2v9.5c0,3.6,1.9,5.4,5.1,5.4
	c3.5,0,5.7-2.3,5.7-6.1v-8.8H218.1z"/>
<path d="M237.2,417.1v10.4H235v-2.6c-1,1.7-3,2.8-5.8,2.8c-3.8,0-6.1-2-6.1-4.9c0-2.6,1.7-4.8,6.5-4.8h5.3v-1c0-2.9-1.6-4.4-4.8-4.4
	c-2,0-4,0.7-5.6,2l-1-1.7c2-1.5,4.4-2.3,6.9-2.3C234.7,410.6,237.2,412.8,237.2,417.1z M227.3,408.1h-2.2l4.1-3h2.2l4.2,3h-2.2
	l-3.1-1.9L227.3,408.1z M234.9,422.5v-2.8h-5.3c-3.3,0-4.3,1.3-4.3,3c0,2,1.6,3.2,4.3,3.2C231.9,426,234,424.6,234.9,422.5
	L234.9,422.5z M235.3,405.4h-2l3.9-3.5h2.8L235.3,405.4z"/>
<path d="M252.2,426.5c-1,0.8-2.3,1.2-3.6,1.2c-3.2,0-4.9-1.8-4.9-4.9v-10.2h-3v-1.9h3V407h2.3v3.7h5.1v1.9H246v10c0,2,1,3.1,2.9,3.1
	c0.9,0,1.8-0.3,2.5-0.9L252.2,426.5z"/>
<path d="M280.2,417.8v9.8h-2.3V418c0-3.5-1.9-5.4-5-5.4c-3.6,0-5.9,2.2-5.9,6.1v8.8h-2.3v-16.8h2.2v3.1c1.4-2.2,3.8-3.4,6.4-3.2
	C277.4,410.6,280.2,412.9,280.2,417.8z"/>
<path d="M301.9,417.8v9.8h-2.3V418c0-3.5-1.9-5.4-5.1-5.4c-3.6,0-5.9,2.2-5.9,6.1v8.8h-2.3v-23.7h2.3v9.9c1.4-2.1,3.8-3.2,6.3-3.1
	C299,410.6,301.9,412.9,301.9,417.8z"/>
<path d="M320.8,417.1v10.4h-2.2v-2.6c-1,1.7-3,2.8-5.8,2.8c-3.8,0-6.1-2-6.1-4.9c0-2.6,1.7-4.8,6.5-4.8h5.4v-1
	c0-2.9-1.6-4.4-4.8-4.4c-2,0-4,0.7-5.6,2l-1-1.7c1.9-1.5,4.4-2.3,6.8-2.3C318.3,410.6,320.8,412.8,320.8,417.1z M318.5,422.5v-2.8
	h-5.3c-3.3,0-4.3,1.3-4.3,3c0,2,1.6,3.2,4.2,3.2C315.5,426,317.6,424.6,318.5,422.5z"/>
<path d="M353.8,408.1h-3.2v19.4h-2.2v-3.3c-1.4,2.3-3.9,3.6-6.5,3.5c-4.7,0-8.6-3.8-8.6-8.6c0-4.7,3.8-8.5,8.6-8.6
	c2.6-0.1,5,1.2,6.4,3.3v-5.8h-7v-1.7h7v-2.6h2.3v2.6h3.2V408.1z M348.4,419.1c0-3.9-2.7-6.6-6.2-6.6s-6.3,2.6-6.3,6.6
	s2.7,6.5,6.3,6.5S348.4,423,348.4,419.1L348.4,419.1z"/>
<path d="M369.7,417.1v10.4h-2.2v-2.6c-1,1.7-3,2.8-5.8,2.8c-3.8,0-6.1-2-6.1-4.9c0-2.6,1.7-4.8,6.5-4.8h5.4v-1
	c0-2.9-1.6-4.4-4.8-4.4c-2,0-4,0.7-5.6,2l-1-1.7c2-1.5,4.4-2.3,6.9-2.3C367.2,410.6,369.7,412.8,369.7,417.1z M367.4,422.5v-2.8
	h-5.3c-3.3,0-4.3,1.3-4.3,3c0,2,1.6,3.2,4.2,3.2C364.4,426,366.6,424.6,367.4,422.5z"/>
<path d="M403.7,417.8v9.8h-2.3V418c0-3.5-1.8-5.4-4.8-5.4c-3.5,0-5.6,2.2-5.6,6.1v8.8h-2.3V418c0-3.5-1.8-5.4-4.9-5.4
	c-3.4,0-5.6,2.2-5.6,6.1v8.8h-2.3v-16.8h2.2v3.1c1.3-2.1,3.7-3.3,6.2-3.2c2.8,0,5,1.2,6,3.5c1.4-2.3,4-3.7,6.7-3.5
	C401,410.6,403.7,412.9,403.7,417.8z"/>
<path d="M432.4,410.7l-7.5,16.8h-2.3l-7.5-16.8h2.4l6.3,14.3l6.4-14.3L432.4,410.7z"/>
<path d="M447.8,417.1v10.4h-2.2v-2.6c-1,1.7-3,2.8-5.8,2.8c-3.8,0-6.1-2-6.1-4.9c0-2.6,1.7-4.8,6.5-4.8h5.3v-1
	c0-2.9-1.6-4.4-4.8-4.4c-2,0-4,0.7-5.6,2l-1-1.7c2-1.5,4.4-2.3,6.9-2.3C445.3,410.6,447.8,412.8,447.8,417.1z M440.8,408.1l-5.2-4h3
	l4.4,4H440.8z M445.5,422.5v-2.8h-5.3c-3.3,0-4.3,1.3-4.3,3c0,2,1.6,3.2,4.3,3.2C442.5,426,444.6,424.6,445.5,422.5L445.5,422.5z"/>
<path d="M477.8,417.8v9.8h-2.3V418c0-3.5-1.9-5.4-5-5.4c-3.6,0-5.9,2.2-5.9,6.1v8.8h-2.3v-23.7h2.3v9.9c1.4-2.1,3.8-3.2,6.3-3.1
	C475,410.6,477.8,412.9,477.8,417.8z"/>
<path d="M497.8,410.7l-8.4,18.9c-1.4,3.3-3.2,4.4-5.6,4.4c-1.5,0-3-0.5-4.1-1.5l1.1-1.7c0.8,0.8,1.9,1.3,3.1,1.3
	c1.5,0,2.5-0.7,3.5-2.8l0.7-1.6l-7.5-16.8h2.4l6.3,14.3l6.3-14.3H497.8z"/>
<path d="M513.2,417.1v10.4H511v-2.6c-1,1.7-3,2.8-5.8,2.8c-3.8,0-6.1-2-6.1-4.9c0-2.6,1.7-4.8,6.5-4.8h5.3v-1c0-2.9-1.6-4.4-4.8-4.4
	c-2,0-4,0.7-5.6,2l-1-1.7c2-1.5,4.4-2.3,6.9-2.3C510.7,410.6,513.2,412.8,513.2,417.1z M510.9,422.5v-2.8h-5.3c-3.3,0-4.3,1.3-4.3,3
	c0,2,1.6,3.2,4.3,3.2C507.9,426,510.1,424.6,510.9,422.5z"/>
<path d="M519.4,403.8h2.3v23.7h-2.3V403.8z"/>
<path d="M543.2,410.7v16.8H541v-3.1c-1.3,2.1-3.6,3.3-6,3.2c-4.3,0-7.1-2.4-7.1-7.2v-9.8h2.3v9.5c0,3.6,1.9,5.4,5.1,5.4
	c3.5,0,5.7-2.3,5.7-6.1v-8.8H543.2z"/>
<path d="M558,410.6v2.2c-0.2,0-0.4,0-0.5,0c-3.5,0-5.7,2.2-5.7,6.2v8.6h-2.3v-16.9h2.2v3.3C552.8,411.8,554.9,410.6,558,410.6z"/>
<path d="M560.2,419.1c0-4.7,3.8-8.6,8.6-8.5s8.6,3.8,8.5,8.6c0,4.7-3.8,8.5-8.5,8.5c-4.6,0.2-8.4-3.4-8.6-8
	C560.2,419.5,560.2,419.3,560.2,419.1z M575,419.1c0-3.9-2.7-6.6-6.2-6.6s-6.3,2.6-6.3,6.6s2.7,6.5,6.3,6.5S575,423,575,419.1z"/>
<path d="M597.5,417.8v9.8h-2.3V418c0-3.5-1.9-5.4-5.1-5.4c-3.6,0-5.9,2.2-5.9,6.1v8.8H582v-16.8h2.2v3.1c1.4-2.2,3.8-3.4,6.4-3.2
	C594.7,410.6,597.5,412.9,597.5,417.8z"/>
<path d="M603.2,405.4c0-0.9,0.8-1.6,1.7-1.6c0,0,0,0,0,0c0.9,0,1.6,0.7,1.7,1.6c0,0,0,0,0,0c0,0.9-0.7,1.7-1.7,1.7
	C603.9,407,603.1,406.3,603.2,405.4L603.2,405.4z M603.7,410.7h2.3v16.8h-2.3V410.7z"/>
<path d="M610.6,419.1c-0.1-4.6,3.4-8.4,8-8.6c0.2,0,0.4,0,0.7,0c2.6-0.2,5.2,1.1,6.6,3.3l-1.7,1.1c-1.1-1.6-2.9-2.5-4.9-2.5
	c-3.6,0.1-6.4,3.2-6.3,6.8c0.1,3.4,2.9,6.2,6.3,6.3c1.9,0.1,3.8-0.9,4.9-2.5l1.7,1.1c-1.4,2.2-4,3.5-6.6,3.3
	c-4.6,0.2-8.5-3.4-8.7-7.9C610.6,419.5,610.6,419.3,610.6,419.1z"/>
<path d="M651.4,417.1v10.4h-2.2v-2.6c-1,1.7-3,2.8-5.8,2.8c-3.8,0-6.1-2-6.1-4.9c0-2.6,1.7-4.8,6.5-4.8h5.3v-1
	c0-2.9-1.6-4.4-4.8-4.4c-2,0-4,0.7-5.6,2l-1-1.7c1.9-1.5,4.4-2.3,6.8-2.3C648.9,410.6,651.4,412.8,651.4,417.1z M649.1,422.5v-2.8
	h-5.3c-3.3,0-4.3,1.3-4.3,3c0,2,1.6,3.2,4.2,3.2C646.1,426,648.2,424.6,649.1,422.5z"/>
<path d="M655.9,419.1c-0.1-4.6,3.4-8.4,8-8.6c0.2,0,0.4,0,0.7,0c2.6-0.2,5.1,1.1,6.6,3.3l-1.7,1.1c-1.1-1.6-2.9-2.5-4.9-2.5
	c-3.6,0.1-6.4,3.2-6.3,6.8c0.1,3.4,2.9,6.2,6.3,6.3c1.9,0.1,3.8-0.9,4.9-2.5l1.7,1.1c-1.5,2.2-4,3.5-6.6,3.3
	c-4.6,0.2-8.5-3.3-8.7-7.9C655.9,419.5,655.9,419.3,655.9,419.1z"/>
<path d="M675.1,405.4c0-0.9,0.8-1.6,1.7-1.6c0.9,0,1.6,0.7,1.7,1.6c0,0,0,0,0,0c0,0.9-0.7,1.6-1.6,1.7c0,0,0,0-0.1,0
	C675.9,407,675.1,406.3,675.1,405.4C675.1,405.4,675.1,405.4,675.1,405.4z M675.6,410.7h2.3v16.8h-2.3V410.7z"/>
<path d="M699.6,403.8v23.7h-2.2v-3.3c-1.4,2.3-3.9,3.6-6.5,3.5c-4.7,0-8.6-3.8-8.6-8.6c0-4.7,3.8-8.5,8.6-8.6c2.6-0.1,5,1.2,6.4,3.3
	v-10.1H699.6z M697.4,419.1c0-3.9-2.7-6.6-6.2-6.6s-6.3,2.6-6.3,6.6s2.7,6.5,6.3,6.5S697.3,423,697.4,419.1L697.4,419.1z"/>
<path d="M723.2,426.5c-1,0.8-2.3,1.2-3.6,1.2c-3.2,0-4.9-1.8-4.9-4.9v-10.2h-3v-1.9h3V407h2.3v3.7h5.1v1.9H717v10c0,2,1,3.1,2.9,3.1
	c0.9,0,1.8-0.3,2.5-0.9L723.2,426.5z"/>
<path d="M740,417.1v10.4h-2.2v-2.6c-1,1.7-3,2.8-5.8,2.8c-3.8,0-6.1-2-6.1-4.9c0-2.6,1.7-4.8,6.5-4.8h5.3v-1c0-2.9-1.6-4.4-4.8-4.4
	c-2,0-4,0.7-5.6,2l-1-1.7c2-1.5,4.4-2.3,6.8-2.3C737.5,410.6,740,412.8,740,417.1z M737.7,422.5v-2.8h-5.3c-3.3,0-4.3,1.3-4.3,3
	c0,2,1.6,3.2,4.2,3.2C734.7,426,736.9,424.7,737.7,422.5L737.7,422.5z M728.4,404.1h1.6c0.1,1.7,1.5,2.7,3.3,2.7s3.2-1,3.3-2.7h1.6
	c-0.1,2.6-2.2,4.1-4.9,4.1S728.5,406.7,728.4,404.1L728.4,404.1z"/>
<path d="M761.7,417.8v9.8h-2.3V418c0-3.5-1.9-5.4-5.1-5.4c-3.6,0-5.9,2.2-5.9,6.1v8.8h-2.3v-16.8h2.2v3.1c1.4-2.2,3.8-3.4,6.4-3.2
	C758.9,410.6,761.7,412.9,761.7,417.8z"/>
<path d="M783.5,410.7v14.8c0,5.8-2.8,8.4-8.4,8.4c-3.1,0-6.1-0.9-7.8-2.6l1.2-1.7c1.9,1.5,4.2,2.4,6.6,2.3c4.2,0,6.2-2,6.2-6.1v-2.1
	c-1.5,2.1-4,3.4-6.6,3.3c-4.8,0-8.4-3.4-8.4-8.2s3.6-8.1,8.4-8.1c2.7-0.1,5.2,1.2,6.7,3.4v-3.2H783.5z M781.3,418.7
	c0-3.6-2.7-6.1-6.4-6.1s-6.4,2.5-6.4,6.1c0.1,3.5,3.1,6.3,6.6,6.1C778.5,424.7,781.2,422,781.3,418.7z"/>
<path d="M796.5,419.1c-0.1-4.6,3.4-8.4,8-8.6c0.2,0,0.4,0,0.7,0c2.6-0.2,5.2,1.1,6.6,3.3l-1.7,1.1c-1.1-1.6-2.9-2.5-4.9-2.5
	c-3.6,0.1-6.4,3.2-6.3,6.8c0.1,3.4,2.9,6.2,6.3,6.3c1.9,0.1,3.8-0.9,4.9-2.5l1.7,1.1c-1.4,2.2-4,3.5-6.6,3.3
	c-4.6,0.2-8.5-3.4-8.7-7.9C796.5,419.5,796.5,419.3,796.5,419.1z"/>
<path d="M831.4,412.3v15.2h-2.2v-3.1c-1.3,2.1-3.6,3.3-6,3.2c-4.3,0-7.1-2.4-7.1-7.2v-9.8h2.3v9.5c0,3.6,1.8,5.4,5,5.4
	c3.5,0,5.7-2.3,5.7-6.1v-8.8h1.2c1.1,0.1,2-0.8,2.1-1.9c0-0.1,0-0.2,0-0.3c0-0.7-0.2-1.5-0.6-2l1.5-0.6c0.5,0.8,0.8,1.7,0.8,2.7
	C834.3,410.4,833.1,412,831.4,412.3z"/>
<path d="M852.8,419.1c0,4.7-3.8,8.6-8.5,8.6c-4.7,0-8.6-3.8-8.6-8.5c0-4.7,3.8-8.6,8.5-8.6c0,0,0,0,0,0c1.7,0,2.4,0.2,4,0.2
	c1.8,0,2.6-1,2.6-2.2c0-0.7-0.2-1.4-0.6-2l1.5-0.6c0.5,0.8,0.8,1.7,0.9,2.7c0,1.8-1.3,3.4-3.1,3.6
	C851.6,413.9,852.8,416.4,852.8,419.1z M850.5,419.1c0-3.9-2.7-6.6-6.2-6.6s-6.3,2.6-6.3,6.6s2.7,6.5,6.3,6.5S850.5,423,850.5,419.1
	L850.5,419.1z M844.1,408.1l-5.2-4h3l4.4,4H844.1z"/>
<path d="M872.9,417.8v9.8h-2.3V418c0-3.5-1.9-5.4-5.1-5.4c-3.6,0-5.9,2.2-5.9,6.1v8.8h-2.3v-16.8h2.2v3.1c1.4-2.2,3.8-3.4,6.4-3.2
	C870.1,410.6,872.9,412.9,872.9,417.8z"/>
<path d="M894.7,410.7v14.8c0,5.8-2.8,8.4-8.4,8.4c-3.1,0-6.1-0.9-7.8-2.6l1.2-1.7c1.9,1.5,4.2,2.4,6.6,2.3c4.2,0,6.2-2,6.2-6.1v-2.1
	c-1.5,2.1-4,3.4-6.6,3.3c-4.8,0-8.4-3.4-8.4-8.2s3.6-8.1,8.4-8.1c2.7-0.1,5.2,1.2,6.7,3.4v-3.2H894.7z M892.5,418.7
	c0-3.6-2.7-6.1-6.4-6.1s-6.4,2.5-6.4,6.1c0.1,3.5,3.1,6.3,6.6,6.1C889.7,424.7,892.4,422,892.5,418.7z"/>
<path d="M928,408.1h-3.2v19.4h-2.2v-3.3c-1.4,2.3-3.9,3.6-6.5,3.5c-4.7,0-8.6-3.8-8.6-8.6c0-4.7,3.8-8.5,8.6-8.6
	c2.6-0.1,5,1.2,6.4,3.3v-5.8h-7v-1.7h7v-2.6h2.3v2.6h3.2V408.1z M922.6,419.1c0-3.9-2.7-6.6-6.2-6.6s-6.3,2.6-6.3,6.6
	s2.7,6.5,6.3,6.5S922.6,423,922.6,419.1L922.6,419.1z"/>
<path d="M946.6,419.1c0,4.7-3.8,8.6-8.5,8.6s-8.6-3.8-8.6-8.5c0-4.7,3.8-8.6,8.5-8.6c0,0,0,0,0,0c4.6-0.2,8.4,3.4,8.5,8
	C946.6,418.8,946.6,418.9,946.6,419.1z M944.3,419.1c0-3.9-2.7-6.6-6.2-6.6s-6.3,2.6-6.3,6.6s2.7,6.5,6.3,6.5S944.3,423,944.3,419.1
	z M934.8,408.1h-2.1l4.1-4h2.3l4.1,4h-2.1l-3.2-2.7L934.8,408.1z M939.4,432.2c0.1,0.8-0.5,1.4-1.3,1.5s-1.4-0.5-1.5-1.3
	c0-0.1,0-0.2,0-0.2c0.1-0.8,0.7-1.3,1.5-1.3C938.8,431,939.3,431.6,939.4,432.2z"/>
<path d="M84.3,463.1v10.4h-2.2v-2.6c-1,1.7-3,2.8-5.8,2.8c-3.8,0-6.2-2-6.2-4.9c0-2.6,1.7-4.8,6.5-4.8H82v-1c0-2.9-1.6-4.4-4.8-4.4
	c-2,0-4,0.7-5.6,2l-1-1.7c2-1.5,4.4-2.3,6.8-2.3C81.8,456.6,84.3,458.8,84.3,463.1z M74.4,454.1h-2.2l4.2-3h2.2l4.2,3h-2.2l-3.1-1.9
	L74.4,454.1z M82,468.5v-2.8h-5.3c-3.3,0-4.3,1.3-4.3,3c0,2,1.6,3.2,4.3,3.2C79,472,81.1,470.6,82,468.5z M79.8,448.9l-0.5-0.9
	c0.6-0.4,1.3-0.6,2-0.6c1.1-0.1,2.2,0.7,2.3,1.8c0,0.1,0,0.2,0,0.3c0,1.2-0.7,2.2-1.8,2.6l-0.7-0.8c0.9-0.4,1.3-1,1.3-1.6
	s-0.6-1-1.3-1C80.7,448.5,80.2,448.7,79.8,448.9z"/>
<path d="M118.2,463.8v9.8H116V464c0-3.5-1.8-5.4-4.8-5.4c-3.5,0-5.6,2.2-5.6,6.1v8.8h-2.3V464c0-3.5-1.8-5.4-4.9-5.4
	c-3.4,0-5.6,2.2-5.6,6.1v8.8h-2.3v-16.8h2.2v3.1c1.3-2.1,3.7-3.3,6.2-3.2c2.8,0,5,1.2,6,3.5c1.4-2.3,4-3.7,6.7-3.5
	C115.5,456.6,118.2,458.9,118.2,463.8z"/>
<path d="M146.9,456.7l-7.5,16.8h-2.3l-7.4-16.8h2.3l6.3,14.3l6.4-14.3H146.9z"/>
<path d="M162.3,463.1v10.4h-2.2v-2.6c-1,1.7-3,2.8-5.8,2.8c-3.8,0-6.1-2-6.1-4.9c0-2.6,1.7-4.8,6.5-4.8h5.4v-1
	c0-2.9-1.6-4.4-4.8-4.4c-2,0-4,0.7-5.6,2l-1-1.7c1.9-1.5,4.4-2.3,6.8-2.3C159.9,456.6,162.3,458.8,162.3,463.1z M155.4,454.1l-5.2-4
	h3l4.4,4H155.4z M160.1,468.5v-2.8h-5.3c-3.3,0-4.3,1.3-4.3,3c0,2,1.6,3.2,4.2,3.2C157,472,159.2,470.6,160.1,468.5L160.1,468.5z"/>
<path d="M192.4,463.8v9.8h-2.3V464c0-3.5-1.9-5.4-5.1-5.4c-3.6,0-5.9,2.2-5.9,6.1v8.8h-2.3v-16.8h2.2v3.1c1.4-2.2,3.8-3.4,6.4-3.2
	C189.6,456.6,192.4,458.9,192.4,463.8z"/>
<path d="M213.7,456.7v16.8h-2.2v-3.1c-1.3,2.1-3.6,3.3-6,3.2c-4.3,0-7.1-2.4-7.1-7.2v-9.8h2.3v9.5c0,3.6,1.9,5.4,5.1,5.4
	c3.5,0,5.7-2.3,5.7-6.1v-8.8H213.7z"/>
<path d="M235.5,465.1c0,4.7-3.8,8.6-8.6,8.6s-8.6-3.8-8.6-8.5c0-4.7,3.8-8.6,8.6-8.6c0,0,0,0,0,0c4.6-0.2,8.4,3.4,8.5,8
	C235.5,464.7,235.5,464.9,235.5,465.1z M233.2,465.1c0-3.9-2.7-6.6-6.2-6.6s-6.3,2.6-6.3,6.6s2.7,6.5,6.3,6.5S233.2,469,233.2,465.1
	z M223.8,454.1h-2.1l4.1-4h2.3l4.1,4h-2.1l-3.2-2.7L223.8,454.1z"/>
<path d="M239.6,451.4c0-0.9,0.8-1.6,1.7-1.6c0.9,0,1.6,0.7,1.7,1.6c0,0,0,0,0,0c0,0.9-0.7,1.6-1.6,1.6c0,0,0,0,0,0
	C240.4,453,239.7,452.3,239.6,451.4z M240.1,456.7h2.3v16.8h-2.3V456.7z"/>
<path d="M272.5,449.8v23.7h-2.2v-3.3c-1.4,2.3-3.9,3.6-6.5,3.5c-4.7,0-8.6-3.8-8.6-8.6c0-4.7,3.8-8.5,8.6-8.6c2.6-0.1,5,1.2,6.4,3.3
	v-10.1H272.5z M270.2,465.1c0-3.9-2.7-6.6-6.2-6.6s-6.3,2.6-6.3,6.6c-0.2,3.4,2.4,6.3,5.8,6.5c0.2,0,0.3,0,0.5,0
	C267.6,471.7,270.2,469,270.2,465.1z"/>
<path d="M294,458.3v15.2h-2.2v-3.1c-1.3,2.1-3.6,3.3-6,3.2c-4.3,0-7.1-2.4-7.1-7.2v-9.8h2.3v9.5c0,3.6,1.9,5.4,5.1,5.4
	c3.5,0,5.7-2.3,5.7-6.1v-8.8h1.2c1.1,0.1,2-0.8,2.1-1.9c0-0.1,0-0.2,0-0.3c0-0.7-0.2-1.5-0.6-2l1.5-0.6c0.5,0.8,0.8,1.7,0.8,2.7
	C296.9,456.4,295.7,458,294,458.3z"/>
<path d="M315.3,465.1c0,4.7-3.8,8.6-8.6,8.6c-4.7,0-8.6-3.8-8.6-8.5c0-4.7,3.8-8.6,8.6-8.6c0,0,0,0,0,0c1.7,0,2.4,0.2,4,0.2
	c1.8,0,2.6-1,2.6-2.2c0-0.7-0.2-1.4-0.6-2l1.5-0.6c0.5,0.8,0.8,1.7,0.9,2.7c0,1.8-1.3,3.3-3.1,3.6
	C314.2,459.8,315.4,462.4,315.3,465.1z M313,465.1c0-3.9-2.7-6.6-6.2-6.6s-6.3,2.6-6.3,6.6s2.7,6.5,6.3,6.5S313,469,313,465.1
	L313,465.1z M303.3,453.8H302c0.1-2.1,1.1-3.5,2.8-3.5c1.9,0,2.8,2.2,4,2.2c0.9,0,1.5-0.8,1.6-2h1.3c-0.1,2.1-1.1,3.5-2.7,3.5
	c-1.9,0-2.8-2.2-4-2.2C304,451.7,303.4,452.5,303.3,453.8z"/>
<path d="M335.6,463.8v9.8h-2.3V464c0-3.5-1.9-5.4-5.1-5.4c-3.6,0-5.9,2.2-5.9,6.1v8.8h-2.3v-16.8h2.2v3.1c1.4-2.2,3.8-3.4,6.4-3.2
	C332.8,456.6,335.6,458.9,335.6,463.8z"/>
<path d="M357.4,456.7v14.8c0,5.8-2.9,8.4-8.4,8.4c-3.1,0-6.1-0.9-7.8-2.6l1.1-1.7c1.9,1.5,4.2,2.4,6.6,2.3c4.3,0,6.2-2,6.2-6.1v-2.1
	c-1.5,2.1-4,3.4-6.6,3.3c-4.8,0-8.5-3.4-8.5-8.2s3.6-8.1,8.5-8.1c2.7-0.1,5.2,1.2,6.7,3.4v-3.2H357.4z M355.2,464.7
	c0-3.6-2.7-6.1-6.4-6.1c-3.4,0.1-6,3-5.9,6.4c0.1,3.4,3,6,6.4,5.9C352.6,470.7,355.2,468,355.2,464.7z"/>
<path d="M390.7,454.1h-3.2v19.4h-2.2v-3.3c-1.4,2.3-3.9,3.6-6.5,3.5c-4.7,0-8.6-3.8-8.6-8.6c0-4.7,3.8-8.5,8.6-8.6
	c2.6-0.1,5,1.2,6.4,3.3v-5.8h-7v-1.7h7v-2.6h2.3v2.6h3.2L390.7,454.1z M385.3,465.1c0-3.9-2.7-6.6-6.2-6.6s-6.3,2.6-6.3,6.6
	s2.7,6.5,6.3,6.5S385.3,469,385.3,465.1L385.3,465.1z"/>
<path d="M409.3,465.1c0,4.7-3.8,8.6-8.6,8.6c-4.7,0-8.6-3.8-8.6-8.5c0-4.7,3.8-8.6,8.6-8.6c0,0,0,0,0,0c4.6-0.2,8.4,3.4,8.5,8
	C409.3,464.7,409.3,464.9,409.3,465.1z M407,465.1c0-3.9-2.7-6.6-6.2-6.6s-6.3,2.6-6.3,6.6s2.7,6.5,6.3,6.5S407,469,407,465.1
	L407,465.1z M397.6,454.1h-2.1l4.1-4h2.3l4.1,4h-2.1l-3.2-2.7L397.6,454.1z"/>
<path d="M413.4,451.4c0-0.9,0.8-1.6,1.7-1.6c0.9,0,1.6,0.7,1.7,1.6c0,0,0,0,0,0c0,0.9-0.7,1.6-1.6,1.7c0,0,0,0-0.1,0
	C414.2,453,413.4,452.3,413.4,451.4C413.4,451.4,413.4,451.4,413.4,451.4z M413.9,456.7h2.3v16.8h-2.3V456.7z"/>
<path d="M458.7,463.8v9.8h-2.3V464c0-3.5-1.8-5.4-4.8-5.4c-3.5,0-5.6,2.2-5.6,6.1v8.8h-2.3V464c0-3.5-1.8-5.4-4.9-5.4
	c-3.4,0-5.6,2.2-5.6,6.1v8.8h-2.3v-16.8h2.2v3.1c1.3-2.1,3.7-3.3,6.2-3.2c2.8,0,5,1.2,6,3.5c1.4-2.3,4-3.7,6.7-3.5
	C456,456.6,458.7,458.9,458.7,463.8z"/>
<path d="M480.4,465.1c0,4.7-3.8,8.6-8.6,8.6c-4.7,0-8.6-3.8-8.6-8.5c0-4.7,3.8-8.6,8.6-8.6c0,0,0,0,0,0c4.6-0.2,8.4,3.4,8.5,8
	C480.4,464.7,480.4,464.9,480.4,465.1z M478.1,465.1c0-3.9-2.7-6.6-6.2-6.6s-6.3,2.6-6.3,6.6s2.7,6.5,6.3,6.5S478.1,469,478.1,465.1
	z M468.6,454.1h-2.1l4.1-4h2.3l4.1,4H475l-3.2-2.7L468.6,454.1z"/>
<path d="M484.5,451.4c0-0.9,0.8-1.6,1.7-1.6c0.9,0,1.6,0.7,1.7,1.6c0,0,0,0,0,0c0,0.9-0.7,1.6-1.6,1.7c0,0,0,0-0.1,0
	C485.2,453,484.5,452.3,484.5,451.4C484.5,451.4,484.5,451.4,484.5,451.4z M485,456.7h2.3v16.8H485V456.7z"/>
<path d="M500.3,465.1c-0.1-4.6,3.4-8.4,8-8.6c0.2,0,0.4,0,0.7,0c2.6-0.2,5.2,1.1,6.6,3.3l-1.7,1.1c-1.1-1.6-2.9-2.5-4.9-2.5
	c-3.6,0.1-6.4,3.2-6.3,6.8c0.1,3.4,2.9,6.2,6.3,6.3c1.9,0.1,3.8-0.9,4.9-2.5l1.7,1.1c-1.4,2.2-4,3.5-6.6,3.3
	c-4.6,0.2-8.5-3.4-8.7-7.9C500.3,465.5,500.3,465.3,500.3,465.1z"/>
<path d="M532.7,463.1v10.4h-2.2v-2.6c-1,1.7-3,2.8-5.8,2.8c-3.8,0-6.2-2-6.2-4.9c0-2.6,1.7-4.8,6.5-4.8h5.3v-1
	c0-2.9-1.6-4.4-4.8-4.4c-2,0-4,0.7-5.6,2l-1-1.7c2-1.5,4.4-2.3,6.8-2.3C530.2,456.6,532.7,458.8,532.7,463.1z M530.4,468.5v-2.8
	h-5.3c-3.3,0-4.3,1.3-4.3,3c0,2,1.6,3.2,4.3,3.2C527.4,472,529.6,470.6,530.4,468.5L530.4,468.5z M521.1,450.1h1.6
	c0.1,1.7,1.5,2.7,3.3,2.7s3.2-1,3.3-2.7h1.6c-0.1,2.6-2.2,4.1-4.9,4.1S521.2,452.7,521.1,450.1L521.1,450.1z"/>
<path d="M554.4,463.8v9.8h-2.3V464c0-3.5-1.9-5.4-5.1-5.4c-3.6,0-5.9,2.2-5.9,6.1v8.8h-2.3v-16.8h2.2v3.1c1.4-2.2,3.8-3.4,6.4-3.2
	C551.6,456.6,554.4,458.9,554.4,463.8z"/>
<path d="M576.2,456.7v14.8c0,5.8-2.8,8.4-8.4,8.4c-3.1,0-6.1-0.9-7.8-2.6l1.2-1.7c1.9,1.5,4.2,2.4,6.6,2.3c4.3,0,6.2-2,6.2-6.1v-2.1
	c-1.5,2.1-4,3.4-6.6,3.3c-4.8,0-8.5-3.4-8.5-8.2s3.7-8.1,8.5-8.1c2.7-0.1,5.2,1.2,6.7,3.4v-3.2H576.2z M574,464.7
	c0-3.6-2.7-6.1-6.4-6.1s-6.4,2.5-6.4,6.1c0.1,3.5,3.1,6.3,6.6,6.1C571.2,470.7,573.9,468,574,464.7z"/>
<path d="M618.7,463.8v9.8h-2.3V464c0-3.5-1.8-5.4-4.8-5.4c-3.5,0-5.6,2.2-5.6,6.1v8.8h-2.3V464c0-3.5-1.8-5.4-4.9-5.4
	c-3.4,0-5.6,2.2-5.6,6.1v8.8H591v-16.8h2.2v3.1c1.3-2.1,3.7-3.3,6.2-3.2c2.8,0,5,1.2,6,3.5c1.4-2.3,4-3.7,6.7-3.5
	C616,456.6,618.7,458.9,618.7,463.8z"/>
<path d="M623.3,465.1c0-4.7,3.8-8.6,8.6-8.5s8.6,3.8,8.5,8.6c0,4.7-3.8,8.5-8.5,8.5c-4.6,0.2-8.4-3.4-8.6-8
	C623.3,465.5,623.3,465.3,623.3,465.1z M638.1,465.1c0-3.9-2.7-6.6-6.2-6.6s-6.3,2.6-6.3,6.6s2.7,6.5,6.3,6.5S638.1,469,638.1,465.1
	z M630.4,478.2c0-0.8,0.6-1.4,1.4-1.4s1.4,0.6,1.4,1.4s-0.6,1.4-1.4,1.4C631.1,479.6,630.5,479.1,630.4,478.2
	C630.4,478.3,630.4,478.3,630.4,478.2L630.4,478.2z"/>
<path d="M660.5,463.8v9.8h-2.3V464c0-3.5-1.9-5.4-5.1-5.4c-3.6,0-5.9,2.2-5.9,6.1v8.8H645v-16.8h2.2v3.1c1.4-2.2,3.8-3.4,6.4-3.2
	C657.7,456.6,660.5,458.9,660.5,463.8z"/>
<path d="M682.3,456.7v14.8c0,5.8-2.8,8.4-8.4,8.4c-3.1,0-6.1-0.9-7.8-2.6l1.2-1.7c1.9,1.5,4.2,2.4,6.6,2.3c4.2,0,6.2-2,6.2-6.1v-2.1
	c-1.5,2.1-4,3.4-6.6,3.3c-4.8,0-8.4-3.4-8.4-8.2s3.6-8.1,8.4-8.1c2.7-0.1,5.2,1.2,6.7,3.4v-3.2H682.3z M680.1,464.7
	c0-3.6-2.7-6.1-6.4-6.1s-6.4,2.5-6.4,6.1c0.1,3.5,3.1,6.3,6.6,6.1C677.3,470.7,680,468,680.1,464.7z"/>
<path d="M687.2,471.9c0-0.9,0.7-1.7,1.7-1.7c0,0,0,0,0,0c0.9,0,1.7,0.8,1.7,1.7c0,0,0,0,0,0c0,1-0.8,1.7-1.7,1.8
	C688,473.7,687.2,472.9,687.2,471.9C687.2,471.9,687.2,471.9,687.2,471.9z"/>
<g id="XMLID_26_">
	<rect x="69.2" y="26.1" class="st0" width="366" height="108.1"/>
</g>
<g>
	<path class="st1" d="M122.9,99.1V67.9L115,74l-5.2-7.1l14-10.3h9.2v42.5H122.9z"/>
	<path class="st1" d="M179.6,85.1c0,2.6-0.5,4.8-1.4,6.7c-0.9,1.9-2.1,3.5-3.7,4.7c-1.5,1.2-3.3,2.2-5.2,2.8c-2,0.6-4,0.9-6.1,0.9
		c-1.9,0-3.7-0.3-5.5-0.7c-1.7-0.5-3.3-1.2-4.7-2.1c-1.4-0.9-2.6-2-3.7-3.4c-1-1.3-1.8-2.8-2.2-4.5l9.2-2.8c0.4,1.5,1.3,2.7,2.5,3.7
		c1.2,1,2.7,1.4,4.3,1.4c1.7,0,3.2-0.5,4.5-1.6c1.3-1,1.9-2.6,1.9-4.6c0-1.2-0.3-2.3-0.8-3.1c-0.5-0.8-1.2-1.5-2-2
		c-0.8-0.5-1.8-0.8-2.8-1c-1-0.2-2.1-0.3-3.1-0.3c-1.5,0-3.2,0.2-5.2,0.5c-1.9,0.3-3.7,0.8-5.2,1.3l1-24.3h26v8.6h-17.1L160,72
		c0.6-0.2,1.3-0.3,2.1-0.3c0.8-0.1,1.5-0.1,2.1-0.1c2.1,0,4.1,0.3,6,0.8c1.9,0.6,3.5,1.4,4.9,2.5c1.4,1.1,2.5,2.5,3.3,4.2
		C179.2,80.9,179.6,82.8,179.6,85.1z"/>
	<path class="st1" d="M219.5,70.7c0,2.5-0.4,4.8-1.3,6.9c-0.9,2.1-2,4.1-3.4,6.3l-10.2,15.3h-12.2l10.6-14.6l0.1-0.2
		c-0.4,0.2-0.9,0.3-1.5,0.4c-0.5,0.1-1,0.1-1.5,0.1c-1.9,0-3.7-0.3-5.3-1c-1.7-0.7-3.2-1.6-4.4-2.8c-1.3-1.2-2.3-2.7-3.1-4.4
		c-0.8-1.7-1.1-3.6-1.1-5.7c0-2.4,0.4-4.6,1.3-6.5c0.9-1.9,2.1-3.5,3.6-4.9c1.5-1.3,3.3-2.3,5.3-3c2-0.7,4.2-1,6.5-1
		c2.3,0,4.5,0.4,6.5,1c2,0.7,3.8,1.7,5.3,3c1.5,1.3,2.7,2.9,3.6,4.8C219,66.2,219.5,68.3,219.5,70.7z M209.4,70.5
		c0-1.8-0.6-3.4-1.8-4.8c-1.2-1.3-2.8-2-4.9-2c-2,0-3.7,0.6-4.9,1.9c-1.2,1.3-1.8,2.9-1.8,4.9c0,1.9,0.6,3.5,1.8,4.8
		c1.2,1.3,2.8,1.9,4.8,1.9c2,0,3.6-0.6,4.9-1.9C208.8,74.2,209.4,72.5,209.4,70.5z"/>
	<path class="st1" d="M231.5,106.5h-8.1l4.5-17h9.4L231.5,106.5z"/>
	<path class="st1" d="M276.1,77.7c0,3-0.3,5.9-0.9,8.6c-0.6,2.7-1.6,5.1-2.9,7.2c-1.3,2.1-3,3.7-5.1,4.9c-2.1,1.2-4.6,1.8-7.6,1.8
		c-3,0-5.6-0.6-7.7-1.8c-2.1-1.2-3.8-2.9-5.2-4.9c-1.3-2.1-2.3-4.4-2.9-7.2c-0.6-2.7-0.9-5.6-0.9-8.6c0-3,0.3-5.8,0.9-8.5
		c0.6-2.7,1.6-5.1,2.9-7.1c1.3-2,3.1-3.6,5.2-4.8c2.1-1.2,4.7-1.8,7.7-1.8c3,0,5.5,0.6,7.6,1.8c2.1,1.2,3.8,2.8,5.1,4.8
		c1.3,2,2.3,4.4,2.9,7.1C275.8,71.9,276.1,74.7,276.1,77.7z M265.8,77.7c0-1.3-0.1-2.8-0.2-4.4c-0.2-1.6-0.5-3.1-0.9-4.5
		c-0.4-1.4-1.1-2.5-1.9-3.5c-0.8-0.9-1.9-1.4-3.2-1.4c-1.3,0-2.4,0.5-3.2,1.4c-0.8,0.9-1.5,2.1-1.9,3.5c-0.5,1.4-0.8,2.9-0.9,4.5
		c-0.2,1.6-0.2,3.1-0.2,4.4c0,1.4,0.1,2.8,0.2,4.5c0.2,1.6,0.5,3.1,0.9,4.5c0.5,1.4,1.1,2.5,1.9,3.5c0.8,0.9,1.9,1.4,3.2,1.4
		c1.3,0,2.4-0.5,3.2-1.4c0.8-0.9,1.4-2.1,1.9-3.5c0.4-1.4,0.7-2.9,0.9-4.5C265.7,80.6,265.8,79.1,265.8,77.7z"/>
	<path class="st1" d="M314.9,77.7c0,3-0.3,5.9-0.9,8.6c-0.6,2.7-1.6,5.1-2.9,7.2c-1.3,2.1-3,3.7-5.1,4.9c-2.1,1.2-4.6,1.8-7.6,1.8
		c-3,0-5.6-0.6-7.7-1.8c-2.1-1.2-3.8-2.9-5.2-4.9c-1.3-2.1-2.3-4.4-2.9-7.2c-0.6-2.7-0.9-5.6-0.9-8.6c0-3,0.3-5.8,0.9-8.5
		c0.6-2.7,1.6-5.1,2.9-7.1c1.3-2,3.1-3.6,5.2-4.8c2.1-1.2,4.7-1.8,7.7-1.8c3,0,5.5,0.6,7.6,1.8c2.1,1.2,3.8,2.8,5.1,4.8
		c1.3,2,2.3,4.4,2.9,7.1C314.6,71.9,314.9,74.7,314.9,77.7z M304.6,77.7c0-1.3-0.1-2.8-0.2-4.4c-0.2-1.6-0.5-3.1-0.9-4.5
		c-0.4-1.4-1.1-2.5-1.9-3.5c-0.8-0.9-1.9-1.4-3.2-1.4s-2.4,0.5-3.2,1.4c-0.8,0.9-1.5,2.1-1.9,3.5c-0.5,1.4-0.8,2.9-0.9,4.5
		c-0.2,1.6-0.2,3.1-0.2,4.4c0,1.4,0.1,2.8,0.2,4.5c0.2,1.6,0.5,3.1,0.9,4.5c0.5,1.4,1.1,2.5,1.9,3.5c0.8,0.9,1.9,1.4,3.2,1.4
		s2.4-0.5,3.2-1.4c0.8-0.9,1.4-2.1,1.9-3.5c0.4-1.4,0.7-2.9,0.9-4.5C304.5,80.6,304.6,79.1,304.6,77.7z"/>
	<path class="st1" d="M353.6,77.7c0,3-0.3,5.9-0.9,8.6c-0.6,2.7-1.6,5.1-2.9,7.2c-1.3,2.1-3,3.7-5.1,4.9c-2.1,1.2-4.6,1.8-7.6,1.8
		c-3,0-5.6-0.6-7.7-1.8c-2.1-1.2-3.8-2.9-5.2-4.9c-1.3-2.1-2.3-4.4-2.9-7.2c-0.6-2.7-0.9-5.6-0.9-8.6c0-3,0.3-5.8,0.9-8.5
		c0.6-2.7,1.6-5.1,2.9-7.1c1.3-2,3.1-3.6,5.2-4.8c2.1-1.2,4.7-1.8,7.7-1.8c3,0,5.5,0.6,7.6,1.8c2.1,1.2,3.8,2.8,5.1,4.8
		c1.3,2,2.3,4.4,2.9,7.1C353.3,71.9,353.6,74.7,353.6,77.7z M343.3,77.7c0-1.3-0.1-2.8-0.2-4.4c-0.2-1.6-0.5-3.1-0.9-4.5
		c-0.4-1.4-1.1-2.5-1.9-3.5c-0.8-0.9-1.9-1.4-3.2-1.4s-2.4,0.5-3.2,1.4c-0.8,0.9-1.5,2.1-1.9,3.5c-0.5,1.4-0.8,2.9-0.9,4.5
		c-0.2,1.6-0.2,3.1-0.2,4.4c0,1.4,0.1,2.8,0.2,4.5c0.2,1.6,0.5,3.1,0.9,4.5c0.5,1.4,1.1,2.5,1.9,3.5c0.8,0.9,1.9,1.4,3.2,1.4
		s2.4-0.5,3.2-1.4c0.8-0.9,1.4-2.1,1.9-3.5c0.4-1.4,0.7-2.9,0.9-4.5C343.2,80.6,343.3,79.1,343.3,77.7z"/>
	<path class="st1" d="M382.9,99.1v-3.9h-0.1c-1,1.5-2.3,2.7-4.1,3.5c-1.8,0.8-3.7,1.2-5.7,1.2c-2.2,0-4.2-0.4-6-1.3
		c-1.8-0.9-3.2-2-4.5-3.5c-1.2-1.5-2.2-3.1-2.8-5.1c-0.6-1.9-1-3.9-1-6c0-2.1,0.3-4.1,1-6c0.7-1.9,1.6-3.6,2.8-5
		c1.2-1.4,2.7-2.6,4.4-3.4c1.7-0.8,3.7-1.3,5.8-1.3c2.2,0,4.1,0.4,5.6,1.3c1.5,0.8,2.7,1.8,3.5,2.8h0.1v-7.5h-8.9v-5.3h8.9v-5.8h9.8
		v5.8h2.8v5.3h-2.8v34.2H382.9z M382.5,84.1c0-1-0.2-1.9-0.5-2.8c-0.3-0.9-0.8-1.7-1.4-2.5c-0.6-0.7-1.4-1.3-2.2-1.7
		c-0.9-0.4-1.9-0.7-3-0.7c-1.2,0-2.2,0.2-3.1,0.7c-0.9,0.4-1.6,1-2.2,1.7c-0.6,0.7-1,1.5-1.3,2.4c-0.3,0.9-0.4,1.9-0.4,2.8
		c0,1,0.2,1.9,0.4,2.8c0.3,0.9,0.7,1.8,1.3,2.5c0.6,0.7,1.3,1.3,2.2,1.7c0.9,0.4,1.9,0.7,3.1,0.7c1.1,0,2.1-0.2,3-0.7
		c0.9-0.4,1.6-1,2.2-1.7c0.6-0.7,1.1-1.5,1.4-2.5C382.3,86,382.5,85.1,382.5,84.1z"/>
</g>
</svg>
