<svg id="Layer_1" data-name="Layer 1" xmlns="http://www.w3.org/2000/svg" viewBox="0 0 2006 984.99"><defs><style>.cls-1{fill:#c90202;}.cls-2{fill:#fff;}</style></defs><title>Image convert 1 fix text</title><path d="M80.07,608.93,87,593.65a51.5,51.5,0,0,0,28.92,9.14c12,0,16.9-4,16.9-9.39,0-16.4-50.95-5.13-50.95-37.68,0-14.9,12-27.29,36.93-27.29,11,0,22.28,2.63,30.42,7.76l-6.26,15.4a49.41,49.41,0,0,0-24.29-6.89c-12,0-16.65,4.51-16.65,10,0,16.15,51,5,51,37.18,0,14.65-12.15,27.17-37.19,27.17C101.86,619.07,87.84,614.94,80.07,608.93Z"/><path d="M161.32,573.75c0-26,20.29-45.32,48-45.32s48,19.15,48,45.32-20.41,45.32-48,45.32S161.32,599.79,161.32,573.75Zm75.37,0c0-16.65-11.77-28-27.42-28s-27.41,11.4-27.41,28,11.76,28,27.41,28S236.69,590.4,236.69,573.75Z"/><path d="M352.87,529.93v87.64H336.22l-43.69-53.21v53.21h-20V529.93h16.77l43.57,53.21V529.93Z"/><path d="M441,583.14l-11.77,12.27v22.16H409.08V529.93h20.16v40.94l38.81-40.94h22.54L454.28,569l38.44,48.58H469.05Z"/><path d="M569.58,601.29v16.28H501.73V529.93H568V546.2H521.88v19h40.69V581H521.88v20.28Z"/><path d="M665.48,617.57,665.36,565,639.57,608.3h-9.14l-25.67-42.19v51.46h-19V529.93h16.78l32.8,54.46,32.3-54.46h16.65l.25,87.64Z"/><path d="M820.47,617.57,820.35,565,794.56,608.3h-9.14l-25.67-42.19v51.46h-19V529.93H757.5l32.8,54.46,32.3-54.46h16.65l.25,87.64Z"/><path d="M918,598.79H877.31l-7.76,18.78H848.76l39.06-87.64h20L947,617.57H925.76Zm-6.39-15.4-13.9-33.56-13.89,33.56Zm-9.89-60.6H886.45l16.9-18h21Z"/><path d="M1072,529.93v87.64H1051.7V581.64h-39.81v35.93H991.61V529.93h20.28v34.55h39.81V529.93Z"/><path d="M1183.16,573.75c0,26.16-20.41,45.32-48,45.32s-48-19.28-48-45.32,20.28-45.32,48-45.32S1183.16,547.58,1183.16,573.75Zm-20.53,0c0-16.65-11.77-28-27.42-28s-27.42,11.4-27.42,28,11.77,28,27.42,28S1162.63,590.4,1162.63,573.75Zm-38.19-51H1110l16.66-14.27h17l16.65,14.27H1146l-10.77-7.13Zm33.3-12-19.65-15.15H1158l13.78,15.15Z"/><path d="M1278.81,529.93v87.64h-16.65l-43.7-53.21v53.21h-20V529.93h16.78l43.57,53.21V529.93Z"/><path d="M1358.81,572.37h18.53v35.56c-9.64,7.26-22.91,11.14-35.43,11.14-27.55,0-47.83-18.91-47.83-45.32s20.28-45.32,48.2-45.32c15.4,0,28.17,5.25,36.68,15.15l-13,12a29.65,29.65,0,0,0-22.66-9.89c-17,0-28.67,11.4-28.67,28,0,16.4,11.65,28,28.42,28a32.27,32.27,0,0,0,15.78-3.75Z"/><path d="M1511.29,617.57l-.12-52.59-25.79,43.32h-9.14l-25.67-42.19v51.46h-19V529.93h16.78l32.8,54.46,32.3-54.46h16.65l.25,87.64Z"/><path d="M1551.1,529.93h20.29v87.64H1551.1Z"/><path d="M1672.54,529.93v87.64h-16.65l-43.69-53.21v53.21h-20V529.93h16.77l43.57,53.21V529.93Z"/><path d="M1693.32,529.93h20.29v87.64h-20.29Z"/><path d="M78.81,675.26c0-12.14,9.32-20.83,21.86-20.83,7,0,12.77,2.53,16.57,7.14l-6,5.52a13,13,0,0,0-10.13-4.72c-7.54,0-12.88,5.29-12.88,12.89s5.34,12.88,12.88,12.88a12.86,12.86,0,0,0,10.13-4.77l6,5.52c-3.8,4.66-9.61,7.19-16.63,7.19C88.13,696.08,78.81,687.4,78.81,675.26Z"/><path d="M149.22,686.76h-18.7L127,695.39h-9.55l18-40.27h9.2l18,40.27h-9.78Zm-2.93-7.07-6.39-15.42-6.38,15.42Z"/><path d="M173.09,662.72H160.2v-7.6h35.1v7.6H182.41v32.67h-9.32Z"/><path d="M237.23,655.12v40.27h-9.32V678.88H209.62v16.51H200.3V655.12h9.32V671h18.29V655.12Z"/><path d="M266.1,681.12v14.27h-9.31V681L241.2,655.12h9.89L261.85,673l10.75-17.89h9.15Z"/><path d="M301.94,655.12h18.29c13.18,0,22.21,7.94,22.21,20.14s-9,20.13-22.21,20.13H301.94Zm17.83,32.62c8,0,13.23-4.77,13.23-12.48s-5.23-12.49-13.23-12.49h-8.51v25Z"/><path d="M346.92,675.26c0-12,9.32-20.83,22-20.83s22,8.8,22,20.83-9.37,20.82-22,20.82S346.92,687.22,346.92,675.26Zm34.63,0c0-7.65-5.41-12.89-12.6-12.89s-12.6,5.24-12.6,12.89,5.41,12.88,12.6,12.88S381.55,682.91,381.55,675.26Z"/><path d="M398,655.12h9.32V687.8h20.19v7.59H398Z"/><path d="M432.74,655.12h9.32V687.8h20.19v7.59H432.74Z"/><path d="M520.7,684.4c0,7-5.53,11-16.11,11H483.76V655.12h19.68c10.06,0,15.24,4.2,15.24,10.47a9.67,9.67,0,0,1-5.35,8.86A10,10,0,0,1,520.7,684.4ZM493,662.14v9.49h9.26c4.54,0,7-1.61,7-4.77s-2.48-4.72-7-4.72Zm18.29,21.29c0-3.4-2.59-5-7.42-5H493v10H503.9C508.73,688.37,511.32,686.88,511.32,683.43Z"/><path d="M559,687.91v7.48H527.77V655.12H558.2v7.48H537v8.75h18.7v7.24H537v9.32Z"/><path d="M592.88,686.76H574.19l-3.57,8.63h-9.55L579,655.12h9.2l18,40.27h-9.78ZM590,679.69l-6.39-15.42-6.38,15.42Z"/><path d="M609.22,677.67V655.12h9.32v22.21c0,7.65,3.33,10.81,9,10.81s9-3.16,9-10.81V655.12h9.2v22.55c0,11.85-6.79,18.41-18.24,18.41S609.22,689.52,609.22,677.67Z"/><path d="M662.54,662.72H649.66v-7.6h35.09v7.6H671.86v32.67h-9.32Z"/><path d="M708.33,681.12v14.27H699V681l-15.59-25.89h9.9L704.07,673l10.76-17.89H724Z"/><path d="M752.51,662.72H739.62v-7.6h35.09v7.6H761.83v32.67h-9.32Z"/><path d="M776.61,675.26c0-12,9.32-20.83,22-20.83s22,8.8,22,20.83-9.37,20.82-22,20.82S776.61,687.22,776.61,675.26Zm34.63,0c0-7.65-5.41-12.89-12.6-12.89S786,667.61,786,675.26s5.41,12.88,12.6,12.88S811.24,682.91,811.24,675.26Z"/><path d="M871.18,674.62h8.51V691a27.77,27.77,0,0,1-16.28,5.12c-12.66,0-22-8.68-22-20.82s9.31-20.83,22.14-20.83c7.08,0,12.95,2.42,16.86,7l-6,5.53A13.64,13.64,0,0,0,864,662.37c-7.82,0-13.17,5.24-13.17,12.89s5.35,12.88,13.06,12.88a14.86,14.86,0,0,0,7.25-1.72Z"/><path d="M885.78,675.26c0-12,9.32-20.83,22-20.83s22,8.8,22,20.83-9.38,20.82-22,20.82S885.78,687.22,885.78,675.26Zm34.64,0c0-7.65-5.41-12.89-12.6-12.89s-12.6,5.24-12.6,12.89,5.41,12.88,12.6,12.88S920.42,682.91,920.42,675.26Z"/><path d="M953.14,655.12h9.32V687.8h20.19v7.59H953.14Z"/><path d="M987.89,655.12h9.31v40.27h-9.31Z"/><path d="M1041.67,669.74c0,9-6.73,14.55-17.49,14.55h-8.11v11.1h-9.32V655.12h17.43C1034.94,655.12,1041.67,660.7,1041.67,669.74Zm-9.43,0c0-4.43-2.88-7-8.58-7h-7.59v14h7.59C1029.36,676.7,1032.24,674.11,1032.24,669.74Z"/><path d="M1096.08,696.08l-4.83-4.49a21.52,21.52,0,0,1-13.46,4.49c-8.86,0-15.36-4.6-15.36-11,0-5.07,2.71-8.57,8.86-12-2.93-3-4.14-5.63-4.14-8.51,0-5.87,4.95-9.89,12.54-9.89,7,0,11.56,3.56,11.56,9.26,0,4.14-2.41,7.19-7.88,10.18l7.36,6.85a25.73,25.73,0,0,0,2-6.28l7.19,2.25a26.62,26.62,0,0,1-3.68,9.14l4.71,4.38ZM1086,686.7l-9.72-9.08c-3.68,2.12-5,4-5,6.44,0,2.93,2.77,5,7.19,5A12.83,12.83,0,0,0,1086,686.7Zm-10.64-22.31c0,1.55.63,2.7,3.1,5.11,4-2.12,5.24-3.62,5.24-5.46s-1.38-3.34-4-3.34C1076.93,660.7,1075.32,662.26,1075.32,664.39Z"/><path d="M1120.76,675.26c0-12.14,9.32-20.83,21.86-20.83,7,0,12.77,2.53,16.57,7.14l-6,5.52a12.93,12.93,0,0,0-10.12-4.72c-7.54,0-12.89,5.29-12.89,12.89s5.35,12.88,12.89,12.88a12.82,12.82,0,0,0,10.12-4.77l6,5.52c-3.8,4.66-9.61,7.19-16.63,7.19C1130.08,696.08,1120.76,687.4,1120.76,675.26Z"/><path d="M1202.38,655.12v40.27h-9.31V678.88h-18.3v16.51h-9.32V655.12h9.32V671h18.3V655.12Z"/><path d="M1243.11,687.91v7.48h-31.18V655.12h30.43v7.48h-21.17v8.75h18.7v7.24h-18.7v9.32Z"/><path d="M1281.71,687.91v7.48h-31.18V655.12H1281v7.48h-21.17v8.75h18.7v7.24h-18.7v9.32Z"/><path d="M1303.79,679.57l-5.4,5.64v10.18h-9.27V655.12h9.27v18.81l17.83-18.81h10.35l-16.68,18,17.66,22.32h-10.87Z"/><path d="M1345.44,675.26c0-12.14,9.32-20.83,21.86-20.83,7,0,12.77,2.53,16.56,7.14l-6,5.52a12.94,12.94,0,0,0-10.12-4.72c-7.54,0-12.89,5.29-12.89,12.89s5.35,12.88,12.89,12.88a12.84,12.84,0,0,0,10.12-4.77l6,5.52c-3.79,4.66-9.6,7.19-16.62,7.19C1354.76,696.08,1345.44,687.4,1345.44,675.26Z"/><path d="M1415.79,695.39,1408,684.17h-8.57v11.22h-9.32V655.12h17.43c10.76,0,17.49,5.58,17.49,14.62a13.1,13.1,0,0,1-8.28,12.71l9,12.94ZM1407,662.72h-7.59v14H1407c5.7,0,8.58-2.64,8.58-7S1412.74,662.72,1407,662.72Z"/><path d="M1463.59,687.91v7.48h-31.18V655.12h30.43v7.48h-21.17v8.75h18.7v7.24h-18.7v9.32Z"/><path d="M1497.53,686.76h-18.7l-3.57,8.63h-9.55l18-40.27h9.21l18,40.27h-9.78Zm-2.94-7.07-6.38-15.42-6.39,15.42Z"/><path d="M1551.71,695.39l0-24.16-11.85,19.9h-4.2l-11.8-19.38v23.64h-8.74V655.12h7.71l15.07,25,14.84-25h7.65l.12,40.27Z"/><path d="M1589.33,681.12v14.27H1580V681l-15.59-25.89h9.9L1585.07,673l10.76-17.89H1605Z"/><path d="M1661.81,695.39l-.06-24.16-11.85,19.9h-4.2l-11.79-19.38v23.64h-8.75V655.12h7.71l15.07,25,14.85-25h7.65l.11,40.27Z"/><path d="M1706.62,686.76h-18.7l-3.57,8.63h-9.54l17.94-40.27H1702l18,40.27h-9.78Zm-2.94-7.07-6.38-15.42-6.39,15.42Z"/><path d="M1730.49,662.72H1717.6v-7.6h35.09v7.6h-12.88v32.67h-9.32Z"/><path d="M1766.61,662.72h-12.88v-7.6h35.09v7.6h-12.89v32.67h-9.32Z"/><path d="M1825,687.91v7.48h-31.18V655.12h30.43v7.48h-21.17v8.75h18.7v7.24h-18.7v9.32Z"/><path d="M78.81,830.91c0-13.29,7.36-20.83,17.26-20.83s17.26,7.54,17.26,20.83S106,851.73,96.07,851.73,78.81,844.19,78.81,830.91Zm25.14,0c0-9.15-3.22-12.95-7.88-12.95s-7.82,3.8-7.82,12.95,3.22,12.94,7.82,12.94S104,840.05,104,830.91Z"/><path d="M116.83,845.86a5.58,5.58,0,0,1,11.16,0,5.58,5.58,0,1,1-11.16,0Z"/><path d="M164.69,838.33c0,8.22-6.73,13.4-15.24,13.4-11.1,0-18-7-18-20,0-13.92,8.4-21.69,20.54-21.69a21.78,21.78,0,0,1,11.22,2.76l-3.45,6.85a13.27,13.27,0,0,0-7.54-2c-6.73,0-11,4-11.33,11.68,2.36-2.36,5.75-3.56,10-3.56C158.6,825.79,164.69,830.73,164.69,838.33Zm-9,.46c0-3.68-2.7-6-6.84-6s-7,2.53-7,6,2.58,6,7.07,6C152.9,844.77,155.66,842.47,155.66,838.79Z"/><path d="M197.83,830.27h8.51v16.34a27.77,27.77,0,0,1-16.28,5.12c-12.66,0-22-8.69-22-20.82s9.31-20.83,22.14-20.83c7.08,0,13,2.42,16.86,7l-6,5.52A13.66,13.66,0,0,0,190.69,818c-7.82,0-13.17,5.23-13.17,12.89s5.35,12.88,13.06,12.88a14.86,14.86,0,0,0,7.25-1.72Z"/><path d="M107.4,913.39h7.48v6.27h-8.23l-1.15,9.2H99l1.15-9.2H91.7l-1.15,9.2H84.1l1.15-9.2H77.72v-6.27H86l1.21-9.32H79.67V897.8H88l1.15-9.2h6.44l-1.15,9.2h8.46l1.15-9.2h6.44l-1.15,9.2h7.48l.06,6.27h-8.29Zm-6.5,0,1.21-9.32H93.65l-1.21,9.32Z"/><path d="M120.23,908.73c0-13.29,7.36-20.82,17.25-20.82s17.26,7.53,17.26,20.82-7.3,20.82-17.26,20.82S120.23,922,120.23,908.73Zm25.13,0c0-9.15-3.22-12.94-7.88-12.94s-7.82,3.79-7.82,12.94,3.22,12.94,7.82,12.94S145.36,917.88,145.36,908.73Z"/><path d="M189,921.27v7.59H158.59v-6l15.53-14.66c3.57-3.4,4.2-5.47,4.2-7.43,0-3.16-2.18-5-6.44-5a9.84,9.84,0,0,0-8.34,4l-6.79-4.38c3.11-4.54,8.75-7.47,16-7.47,9,0,15,4.6,15,11.9,0,3.92-1.09,7.48-6.73,12.72l-9.26,8.74Z"/><path d="M208.52,924.89l3.17-7a23.68,23.68,0,0,0,13.28,4.2c5.53,0,7.77-1.84,7.77-4.32,0-7.53-23.41-2.36-23.41-17.31,0-6.85,5.52-12.54,17-12.54,5.06,0,10.24,1.2,14,3.56l-2.88,7.08a22.73,22.73,0,0,0-11.16-3.17c-5.52,0-7.65,2.07-7.65,4.61,0,7.42,23.41,2.3,23.41,17.08,0,6.73-5.58,12.48-17.08,12.48C218.53,929.55,212.09,927.66,208.52,924.89Z"/><path d="M285.31,888.6v40.26H276V912.35H257.7v16.51h-9.32V888.6h9.32v15.87H276V888.6Z"/><path d="M294.86,888.6h9.32v40.26h-9.32Z"/><path d="M350.66,917.88c0,7-5.52,11-16.11,11H313.73V888.6H333.4c10.07,0,15.25,4.2,15.25,10.47a9.67,9.67,0,0,1-5.35,8.85A10,10,0,0,1,350.66,917.88ZM323,895.61v9.5h9.26c4.55,0,7-1.62,7-4.78s-2.47-4.72-7-4.72Zm18.29,21.29c0-3.4-2.59-5-7.42-5H323v10h10.87C338.69,921.85,341.28,920.35,341.28,916.9Z"/><path d="M357.39,911.15V888.6h9.32v22.2c0,7.65,3.33,10.82,9,10.82s9-3.17,9-10.82V888.6h9.21v22.55c0,11.85-6.79,18.4-18.24,18.4S357.39,923,357.39,911.15Z"/><path d="M421.81,914.6v14.26h-9.32V914.48L396.91,888.6h9.89l10.76,17.89,10.75-17.89h9.15Z"/><path d="M465.42,920.24h-18.7l-3.57,8.62H433.6l17.95-40.26h9.21l18,40.26H469Zm-2.94-7.08-6.38-15.42-6.39,15.42Z"/><g id="_Rectangle_" data-name="&lt;Rectangle&gt;"><rect class="cls-1" x="77" y="68.49" width="921" height="272"/></g><path class="cls-2" d="M310.28,216.27a38.91,38.91,0,0,1-3.31,16.3,35.66,35.66,0,0,1-9,12.22,39.87,39.87,0,0,1-13.41,7.62,51.52,51.52,0,0,1-32.62,0,39.89,39.89,0,0,1-13.33-7.62,35.92,35.92,0,0,1-9-12.07,37,37,0,0,1-3.32-15.85,43.61,43.61,0,0,1,3.32-17.28,99.85,99.85,0,0,1,8.6-15.77l25.79-38.49h30.61l-26.28,36.53-.46.75a16.46,16.46,0,0,1,3.62-.91,28,28,0,0,1,3.92-.3,36.46,36.46,0,0,1,13.33,2.49,33,33,0,0,1,11.15,7.1,35.22,35.22,0,0,1,7.61,11A34.64,34.64,0,0,1,310.28,216.27Zm-25.2.6a16.67,16.67,0,0,0-4.55-12q-4.56-4.76-12.13-4.75t-12.28,4.68q-4.71,4.68-4.7,12.22A17.07,17.07,0,0,0,256,229q4.54,5,12.28,5,7.58,0,12.2-4.68T285.08,216.87Z"/><path class="cls-2" d="M407.93,180.65a43.61,43.61,0,0,1-3.32,17.28A100.57,100.57,0,0,1,396,213.7l-25.79,38.49H339.62l26.58-36.83.3-.45a19.17,19.17,0,0,1-3.69.9,25.19,25.19,0,0,1-3.84.31,36.3,36.3,0,0,1-13.41-2.49,34,34,0,0,1-11.15-7.1,34.31,34.31,0,0,1-10.55-25.28,38.73,38.73,0,0,1,3.32-16.3,35.54,35.54,0,0,1,9-12.22,39.9,39.9,0,0,1,13.4-7.62,51.76,51.76,0,0,1,32.7,0,39.19,39.19,0,0,1,13.33,7.62,36.38,36.38,0,0,1,9,12.07A37,37,0,0,1,407.93,180.65Zm-25.21-.3a17.52,17.52,0,0,0-4.47-12q-4.47-5.06-12.2-5.06c-5.16,0-9.27,1.59-12.36,4.76s-4.62,7.32-4.62,12.45a16.67,16.67,0,0,0,4.54,12q4.56,4.75,12.14,4.75T378,192.57Q382.73,187.89,382.72,180.35Z"/><path class="cls-2" d="M438.12,270.9H417.74L429.06,228h23.7Z"/><path class="cls-2" d="M550.55,198.46A99.92,99.92,0,0,1,548.29,220a55.18,55.18,0,0,1-7.24,18,37.55,37.55,0,0,1-12.91,12.37q-7.92,4.61-19.24,4.61t-19.32-4.61a38,38,0,0,1-13.06-12.37,54.2,54.2,0,0,1-7.32-18,100.55,100.55,0,0,1-2.26-21.58A99.49,99.49,0,0,1,469.2,177a52.52,52.52,0,0,1,7.32-17.81A37.84,37.84,0,0,1,489.58,147q8-4.53,19.32-4.53T528.14,147a37.38,37.38,0,0,1,12.91,12.15A53.46,53.46,0,0,1,548.29,177,98.87,98.87,0,0,1,550.55,198.46Zm-26,0q0-5-.6-11a55.25,55.25,0,0,0-2.26-11.24,24.5,24.5,0,0,0-4.76-8.76,10.2,10.2,0,0,0-8.07-3.54,10.44,10.44,0,0,0-8.15,3.54,24.73,24.73,0,0,0-4.91,8.76,52,52,0,0,0-2.34,11.24q-.6,6-.6,11,0,5.13.6,11.24A52,52,0,0,0,495.84,221a24.82,24.82,0,0,0,4.91,8.76,10.44,10.44,0,0,0,8.15,3.54,10.2,10.2,0,0,0,8.07-3.54,24.58,24.58,0,0,0,4.76-8.76A55.22,55.22,0,0,0,524,209.7Q524.59,203.6,524.59,198.46Z"/><path class="cls-2" d="M648.05,198.46A99.92,99.92,0,0,1,645.79,220a55.18,55.18,0,0,1-7.24,18,37.63,37.63,0,0,1-12.91,12.37q-7.92,4.61-19.24,4.61t-19.32-4.61A37.91,37.91,0,0,1,574,238.08a54.2,54.2,0,0,1-7.32-18,99.92,99.92,0,0,1-2.26-21.58A98.87,98.87,0,0,1,566.7,177,52.52,52.52,0,0,1,574,159.14,37.75,37.75,0,0,1,587.08,147q8-4.53,19.32-4.53T625.64,147a37.47,37.47,0,0,1,12.91,12.15A53.46,53.46,0,0,1,645.79,177,98.87,98.87,0,0,1,648.05,198.46Zm-26,0q0-5-.6-11a55.25,55.25,0,0,0-2.26-11.24,24.5,24.5,0,0,0-4.76-8.76,10.2,10.2,0,0,0-8.07-3.54,10.44,10.44,0,0,0-8.15,3.54,24.58,24.58,0,0,0-4.91,8.76A51.45,51.45,0,0,0,591,187.44q-.6,6-.6,11,0,5.13.6,11.24A51.45,51.45,0,0,0,593.34,221a24.67,24.67,0,0,0,4.91,8.76,10.44,10.44,0,0,0,8.15,3.54,10.2,10.2,0,0,0,8.07-3.54,24.58,24.58,0,0,0,4.76-8.76,55.22,55.22,0,0,0,2.26-11.32Q622.09,203.6,622.09,198.46Z"/><path class="cls-2" d="M745.55,198.46A99.92,99.92,0,0,1,743.29,220a55.19,55.19,0,0,1-7.25,18,37.52,37.52,0,0,1-12.9,12.37q-7.92,4.61-19.24,4.61t-19.32-4.61a37.91,37.91,0,0,1-13.06-12.37,54.2,54.2,0,0,1-7.32-18,99.92,99.92,0,0,1-2.26-21.58A98.87,98.87,0,0,1,664.2,177a52.52,52.52,0,0,1,7.32-17.81A37.75,37.75,0,0,1,684.58,147q8-4.53,19.32-4.53T723.14,147A37.35,37.35,0,0,1,736,159.14,53.47,53.47,0,0,1,743.29,177,98.87,98.87,0,0,1,745.55,198.46Zm-26,0q0-5-.6-11a54.57,54.57,0,0,0-2.27-11.24,24.33,24.33,0,0,0-4.75-8.76,10.2,10.2,0,0,0-8.07-3.54,10.44,10.44,0,0,0-8.15,3.54,24.58,24.58,0,0,0-4.91,8.76,51.45,51.45,0,0,0-2.34,11.24q-.6,6-.6,11,0,5.13.6,11.24A51.45,51.45,0,0,0,690.84,221a24.67,24.67,0,0,0,4.91,8.76,10.44,10.44,0,0,0,8.15,3.54,10.2,10.2,0,0,0,8.07-3.54,24.41,24.41,0,0,0,4.75-8.76A54.55,54.55,0,0,0,719,209.7Q719.59,203.6,719.59,198.46Z"/><path class="cls-2" d="M819.05,252.19v-9.81h-.3a23.46,23.46,0,0,1-10.34,8.83,33.72,33.72,0,0,1-14.26,3.09A33.29,33.29,0,0,1,779.06,251a34.53,34.53,0,0,1-11.25-8.83,38.54,38.54,0,0,1-7-12.75,47.13,47.13,0,0,1-2.42-15.09,45.47,45.47,0,0,1,2.49-15,39.09,39.09,0,0,1,7.09-12.6,33.07,33.07,0,0,1,25.89-11.78,28.74,28.74,0,0,1,14,3.17,31.17,31.17,0,0,1,8.9,6.95h.3V166.16H794.6V152.73h22.49V138.09h24.75v14.64h6.95v13.43h-6.95v86Zm-.9-37.73a20.69,20.69,0,0,0-4.91-13.29,18,18,0,0,0-5.66-4.37,16.59,16.59,0,0,0-7.54-1.66,17,17,0,0,0-7.7,1.66,17.39,17.39,0,0,0-9,10.41,22.63,22.63,0,0,0-1.13,7.1,23.23,23.23,0,0,0,1.13,7.16,18.31,18.31,0,0,0,3.4,6.27,16.66,16.66,0,0,0,13.28,6,16.72,16.72,0,0,0,7.54-1.66,18,18,0,0,0,5.66-4.38,19.86,19.86,0,0,0,3.62-6.19A20.2,20.2,0,0,0,818.15,214.46Z"/></svg>