<?xml version="1.0" encoding="utf-8"?>
<!-- Generator: Adobe Illustrator 22.1.0, SVG Export Plug-In . SVG Version: 6.00 Build 0)  -->
<svg version="1.1" id="Layer_1" xmlns="http://www.w3.org/2000/svg" xmlns:xlink="http://www.w3.org/1999/xlink" x="0px" y="0px"
	 viewBox="0 0 987 436.4" style="enable-background:new 0 0 987 436.4;" xml:space="preserve">
<style type="text/css">
	.st0{fill:#C90202;}
	.st1{fill:#FFFFFF;}
</style>
<title>Image convert 3</title>
<path d="M52.7,225.5c0-11.5,8.8-19.8,20.6-19.8c6.3,0,11.7,2.2,15.2,6.4l-4.6,4.4c-2.6-2.9-6.4-4.6-10.3-4.5
	c-8,0-13.8,5.6-13.8,13.5s5.8,13.5,13.8,13.5c3.9,0.1,7.7-1.6,10.3-4.6l4.6,4.4c-3.6,4.2-9,6.4-15.3,6.4
	C61.5,245.3,52.7,237,52.7,225.5z"/>
<path d="M91.9,225.5c0-11.4,8.8-19.8,20.7-19.8s20.7,8.4,20.7,19.8s-8.8,19.8-20.7,19.8S91.9,236.9,91.9,225.5z M126.2,225.5
	c0-7.5-6-13.5-13.5-13.5c-7.5,0-13.5,6-13.5,13.5c0,7.5,6,13.5,13.5,13.5c0,0,0,0,0,0c7.2,0.2,13.3-5.5,13.5-12.7
	C126.2,226.1,126.2,225.8,126.2,225.5z M109.3,252.7c0-1.8,1.5-3.3,3.3-3.3s3.3,1.5,3.3,3.3c0,0,0,0,0,0c0,1.8-1.5,3.3-3.3,3.3
	C110.8,256,109.3,254.5,109.3,252.7z"/>
<path d="M191.3,206.3l-16.8,38.5h-7l-16.9-38.5h7.8l12.8,29.7l12.9-29.7H191.3z"/>
<path d="M224.3,238.8v6h-28.9v-38.5h28.1v6h-21v10h18.6v5.9h-18.5v10.6H224.3z M203.3,202.8h-3.7c0.1-4.5,2.4-7.4,5.9-7.4
	s5.5,3.6,7.5,3.6c1.5,0,2.6-1.2,2.7-3.1h3.7c-0.1,4.3-2.4,7.2-5.9,7.2s-5.5-3.6-7.5-3.6C204.5,199.5,203.4,200.7,203.3,202.8
	L203.3,202.8z"/>
<path d="M244.7,225.5c0-11.5,8.8-19.8,20.6-19.8c6.3,0,11.6,2.2,15.2,6.4l-4.6,4.4c-2.6-2.9-6.4-4.6-10.3-4.5
	c-8,0-13.8,5.6-13.8,13.5s5.8,13.5,13.8,13.5c3.9,0.1,7.7-1.6,10.3-4.6l4.6,4.4c-3.6,4.2-9,6.4-15.3,6.4
	C253.5,245.3,244.7,237,244.7,225.5z"/>
<path d="M321.6,206.3v38.5h-7.1v-16.5h-19.9v16.5h-7.1v-38.5h7.1v15.9h19.9v-15.9H321.6z"/>
<path d="M356.9,235.9h-19.2l-3.8,8.9h-7.4l17.3-38.5h7l17.4,38.5h-7.5L356.9,235.9z M342.5,203.1h-5.7l7.4-7.5h6.3l7.4,7.5h-5.7
	l-4.8-4.1L342.5,203.1z M354.5,230.3l-7.2-16.9l-7.2,16.8L354.5,230.3z"/>
<path d="M407.4,206.3v38.5h-5.9l-21.2-26.1v26.1h-7.1v-38.5h5.9l21.2,26.1v-26.1H407.4z"/>
<path d="M468.2,244.8l0-25.5l-12.7,21.1h-3.2l-12.6-20.8v25.2h-6.8v-38.5h5.9l15.3,25.5l15-25.5h5.9l0.1,38.5L468.2,244.8z"/>
<path d="M510.4,235.9h-19.2l-3.8,8.9H480l17.3-38.5h7l17.4,38.5h-7.5L510.4,235.9z M499.5,203.1l-9.6-7.5h8.1l7.4,7.5H499.5z
	 M508,230.3l-7.2-16.9l-7.2,16.8L508,230.3z"/>
<path d="M540.9,231.2v13.6h-7.2v-13.5l-15.1-25h7.6l11.3,18.8l11.4-18.8h7L540.9,231.2z"/>
<path d="M573.1,225.5c0-11.5,8.8-19.8,20.6-19.8c6.3,0,11.7,2.2,15.2,6.4l-4.6,4.4c-2.6-2.9-6.4-4.6-10.3-4.5
	c-8,0-13.8,5.6-13.8,13.5s5.8,13.5,13.8,13.5c3.9,0.1,7.7-1.6,10.3-4.6l4.6,4.4c-3.6,4.2-9,6.4-15.3,6.4
	C581.9,245.3,573.1,237,573.1,225.5z"/>
<path d="M640,235.9h-19.3l-3.8,8.9h-7.4l17.3-38.5h7l17.4,38.5h-7.5L640,235.9z M637.6,230.3l-7.3-16.9l-7.2,16.8L637.6,230.3z"/>
<path d="M662.1,212.3h-12.8v-6H682v6h-12.8v32.4h-7.2L662.1,212.3z"/>
<path d="M721.6,206.3v38.5h-7.2v-16.5h-19.9v16.5h-7.2v-38.5h7.2v15.9h19.9v-15.9H721.6z"/>
<path d="M748.5,231.2v13.6h-7.2v-13.5l-15.1-25h7.6l11.3,18.8l11.4-18.8h7L748.5,231.2z"/>
<path d="M783.5,206.3h16.8c12.5,0,21,7.7,21,19.2s-8.5,19.2-21,19.2h-16.8V206.3z M800,238.7c8.6,0,14.1-5.2,14.1-13.2
	c0-8-5.6-13.2-14.1-13.2h-9.3v26.4H800z"/>
<path d="M826.1,225.5c0-11.4,8.8-19.8,20.7-19.8s20.7,8.4,20.7,19.8s-8.8,19.8-20.7,19.8S826.1,236.9,826.1,225.5z M860.4,225.5
	c0-7.5-6-13.5-13.5-13.5s-13.5,6-13.5,13.5c0,7.5,6,13.5,13.5,13.5c0,0,0,0,0,0c7.2,0.2,13.3-5.5,13.5-12.7
	C860.4,226.1,860.4,225.8,860.4,225.5z"/>
<path d="M875.2,206.3h7.2v32.4h20.1v6h-27.3V206.3z"/>
<path d="M908.1,206.3h7.2v32.4h20.1v6h-27.3V206.3z"/>
<path d="M80.7,310.8l-7.9-11.3c-0.5,0-1,0.1-1.5,0.1h-8.7v11.2h-7.1v-38.5h15.8c10.1,0,16.4,5.2,16.4,13.7
	c0.2,5.4-3.1,10.3-8.2,12.2l8.8,12.6H80.7z M71,278.3h-8.4v15.3H71c6.3,0,9.5-2.9,9.5-7.7S77.3,278.3,71,278.3z"/>
<path d="M124.6,304.8v6H95.7v-38.5h28.1v6h-21v10h18.6v5.9h-18.5v10.6H124.6z"/>
<path d="M157.5,301.9h-19.2l-3.8,8.9h-7.4l17.3-38.5h7l17.4,38.5h-7.5L157.5,301.9z M155.1,296.3l-7.3-16.9l-7.2,16.8L155.1,296.3z"
	/>
<path d="M173.7,272.3h7.1v32.5H201v6h-27.3V272.3z"/>
<path d="M256.1,300.3c0,6.6-5.2,10.4-15.1,10.4h-19.1v-38.5h18c9.2,0,14.2,3.9,14.2,10c0.1,3.5-1.8,6.8-5,8.5
	C253.3,291.9,256.3,295.9,256.1,300.3z M229,277.9v10.6h10.1c5,0,7.8-1.8,7.8-5.3c0-3.5-2.8-5.3-7.8-5.3H229z M248.9,299.6
	c0-3.9-2.9-5.6-8.3-5.6H229v11.1h11.6C246,305.2,248.9,303.5,248.9,299.6L248.9,299.6z"/>
<path d="M288.9,310.8l-7.9-11.3c-0.5,0-1,0.1-1.5,0.1h-8.7v11.2h-7.1v-38.5h15.8c10.1,0,16.4,5.2,16.4,13.7
	c0.2,5.4-3.1,10.3-8.2,12.2l8.9,12.6H288.9z M279.2,278.3h-8.4v15.3h8.4c6.3,0,9.5-2.9,9.5-7.7S285.5,278.3,279.2,278.3z"/>
<path d="M301.2,291.5c0-11.4,8.8-19.8,20.7-19.8s20.7,8.4,20.7,19.8s-8.8,19.8-20.7,19.8S301.2,302.9,301.2,291.5z M335.4,291.5
	c0-7.5-6-13.5-13.5-13.5s-13.5,6-13.5,13.5s6,13.5,13.5,13.5c0,0,0,0,0,0c7.2,0.2,13.3-5.5,13.5-12.7
	C335.4,292.1,335.4,291.8,335.4,291.5L335.4,291.5z"/>
<path d="M405.3,272.3l-12.8,38.5h-7.6l-9.5-28.5l-9.7,28.5h-7.6l-12.8-38.5h7.4l9.6,29.3l10-29.3h6.6l9.7,29.4l9.9-29.4H405.3z"/>
<path d="M458.7,302h-6.8v8.7h-6.9V302h-21.1v-4.9l19-24.8h7.6L432.6,296h12.6v-7.8h6.7v7.8h6.8L458.7,302z"/>
<path d="M464.5,272.3h16.8c12.5,0,21,7.7,21,19.2c0,11.6-8.5,19.2-21,19.2h-16.8V272.3z M481,304.7c8.6,0,14.1-5.2,14.1-13.2
	s-5.5-13.2-14.1-13.2h-9.4v26.4H481z"/>
<path d="M532.9,278.3h-12.8v-6.1h32.7v6.1H540v32.4h-7.2L532.9,278.3z"/>
<path d="M558.2,272.3h7.2v38.5h-7.2V272.3z"/>
<path d="M609.9,272.3v38.5H604l-21.2-26.1v26.1h-7.1v-38.5h5.9l21.3,26.1v-26.1H609.9z"/>
<path d="M628.1,278.3h-12.8v-6.1H648v6.1h-12.8v32.4h-7.2L628.1,278.3z"/>
<path d="M78.9,362.4h7.4v5h-8l-1.2,9.3h-5l1.1-9.3H64l-1.2,9.3h-5l1.2-9.3h-7.4v-5h8l1.3-9.8h-7.4v-5h8l1.2-9.4h5l-1.2,9.4h9.2
	l1.2-9.4h5l-1.2,9.4h7.4l0.1,5h-8L78.9,362.4z M73.9,362.4l1.2-9.8h-9.2l-1.3,9.8H73.9z"/>
<path d="M91.8,357.5c0-12.6,6.9-19.8,16.1-19.8s16.1,7.1,16.1,19.8s-6.9,19.8-16.1,19.8S91.8,370.2,91.8,357.5z M116.8,357.5
	c0-9.3-3.6-13.6-8.9-13.6s-8.8,4.3-8.8,13.6c0,9.3,3.6,13.6,8.8,13.6S116.8,366.8,116.8,357.5L116.8,357.5z"/>
<path d="M141.9,338.3v38.5h-7.1v-32.5h-8.1v-6L141.9,338.3z"/>
<path d="M167.5,338.3h7.1v32.5h20.1v6h-27.3V338.3z"/>
<path d="M200.4,338.3h7.1v38.5h-7.1V338.3z"/>
<path d="M244.2,357.1h6.8v15.3c-4.3,3.3-9.6,5-15.1,4.9c-11.9,0-20.7-8.3-20.7-19.8s8.8-19.8,20.9-19.8c6.4,0,11.8,2.1,15.4,6.3
	l-4.5,4.4c-2.8-2.9-6.6-4.5-10.6-4.4c-8.2,0-14,5.5-14,13.5c0,7.8,5.8,13.5,13.9,13.5c2.8,0.1,5.5-0.6,7.9-2L244.2,357.1z"/>
<path d="M294.6,338.3v38.5h-7.1v-16.5h-19.9v16.5h-7.1v-38.5h7.1v15.9h19.9v-15.9H294.6z"/>
<path d="M312.8,344.3H300v-6.1h32.7v6.1h-12.7v32.4h-7.1L312.8,344.3z"/>
<path d="M387.5,366.3c0,6.6-5.2,10.4-15.1,10.4h-19.1v-38.5h18c9.2,0,14.2,3.9,14.2,10c0.1,3.5-1.8,6.8-5,8.5
	C384.7,357.9,387.7,361.9,387.5,366.3z M360.4,343.9v10.6h10.1c5,0,7.8-1.8,7.8-5.3c0-3.5-2.8-5.3-7.8-5.3H360.4z M380.2,365.6
	c0-3.9-2.9-5.6-8.3-5.6h-11.6v11.1H372C377.3,371.2,380.2,369.5,380.2,365.6z"/>
<path d="M420.3,376.8l-7.9-11.3c-0.5,0-1,0.1-1.5,0.1h-8.7v11.2h-7.1v-38.5h15.8c10.1,0,16.4,5.2,16.4,13.7
	c0.2,5.4-3.1,10.3-8.2,12.2l8.9,12.6H420.3z M410.6,344.3h-8.4v15.3h8.4c6.3,0,9.5-2.9,9.5-7.7S416.9,344.3,410.6,344.3L410.6,344.3
	z"/>
<path d="M432.6,357.5c0-11.4,8.8-19.8,20.7-19.8s20.7,8.4,20.7,19.8s-8.8,19.8-20.7,19.8S432.6,368.9,432.6,357.5z M466.8,357.5
	c0-7.5-6.1-13.5-13.5-13.5s-13.5,6.1-13.5,13.5s6.1,13.5,13.5,13.5l0,0c7.2,0.2,13.3-5.4,13.5-12.7
	C466.8,358.1,466.8,357.8,466.8,357.5z"/>
<path d="M536.7,338.3l-12.8,38.5h-7.6l-9.5-28.5l-9.7,28.5h-7.6l-12.8-38.5h7.4l9.6,29.3l10-29.3h6.6l9.7,29.4l9.8-29.4H536.7z"/>
<path d="M576.7,338.3v38.5h-5.9l-21.2-26.1v26.1h-7.1v-38.5h5.9l21.2,26.1v-26.1H576.7z"/>
<path d="M627.4,370.7v6H599V372l15.3-14.5c3.7-3.6,4.4-5.8,4.4-8c0-3.5-2.4-5.6-7.2-5.6c-3.7,0-6.9,1.3-9,4l-5-3.9
	c3-4,8.3-6.4,14.6-6.4c8.4,0,13.8,4.2,13.8,11c0,3.7-1,7.1-6.4,12.2l-10.3,9.8L627.4,370.7z"/>
<path d="M660.5,357.1h6.8v15.3c-4.3,3.3-9.6,5-15.1,4.9c-11.9,0-20.7-8.3-20.7-19.8s8.8-19.8,20.8-19.8c6.4,0,11.8,2.1,15.5,6.3
	l-4.5,4.4c-2.8-2.9-6.6-4.5-10.6-4.4c-8.2,0-14,5.5-14,13.5c0,7.8,5.8,13.5,13.9,13.5c2.8,0.1,5.5-0.6,7.9-2L660.5,357.1z"/>
<g id="_Rectangle_">
	<rect x="57.4" y="44.3" class="st0" width="383" height="113.1"/>
</g>
<g>
	<path class="st1" d="M99,122.8V86.6l-9.2,7.1l-6-8.3L100,73.6h10.6v49.2H99z"/>
	<path class="st1" d="M165.1,108.7c0,2.6-0.5,4.9-1.5,6.8c-1,1.9-2.4,3.5-4.1,4.8c-1.7,1.3-3.7,2.2-5.9,2.9c-2.2,0.6-4.6,0.9-7,0.9
		c-2.5,0-4.8-0.3-7-0.9s-4.2-1.6-5.9-2.8c-1.7-1.3-3-2.8-4.1-4.8c-1-1.9-1.5-4.2-1.5-6.8c0-1.5,0.2-2.9,0.7-4.1
		c0.5-1.3,1.1-2.4,1.9-3.4c0.8-1,1.7-1.9,2.8-2.6c1.1-0.7,2.2-1.3,3.4-1.6v-0.1c-2.1-0.8-3.9-2.1-5.4-3.9c-1.4-1.8-2.2-4-2.2-6.8
		c0-2.3,0.5-4.3,1.4-6c0.9-1.8,2.2-3.2,3.8-4.4c1.6-1.2,3.4-2.1,5.5-2.7c2.1-0.6,4.3-0.9,6.5-0.9c2.3,0,4.4,0.3,6.5,0.9
		c2.1,0.6,3.9,1.4,5.5,2.6c1.6,1.2,2.8,2.6,3.8,4.3c0.9,1.7,1.4,3.7,1.4,6c0,2.7-0.7,5-2.1,6.9c-1.4,1.9-3.2,3.2-5.4,3.9v0.2
		c1.2,0.4,2.4,0.9,3.4,1.6c1.1,0.7,2,1.6,2.8,2.6c0.8,1,1.4,2.1,1.9,3.4C164.9,105.9,165.1,107.3,165.1,108.7z M153.5,108.3
		c0-1.9-0.6-3.5-1.9-4.8c-1.3-1.3-2.9-1.9-4.9-1.9c-2,0-3.7,0.6-5,1.9c-1.3,1.3-1.9,2.9-1.9,4.8c0,2,0.6,3.6,1.9,4.8
		c1.3,1.2,2.9,1.8,5,1.8c2,0,3.7-0.6,4.9-1.8C152.9,111.9,153.5,110.3,153.5,108.3z M152.6,86.9c0-1.6-0.6-3-1.7-4
		c-1.2-1.1-2.5-1.6-4.2-1.6c-1.8,0-3.2,0.5-4.2,1.6c-1.1,1.1-1.6,2.4-1.6,4c0,1.6,0.5,2.9,1.6,4.1c1,1.2,2.5,1.7,4.3,1.7
		c1.7,0,3.1-0.6,4.2-1.7C152.1,89.8,152.6,88.5,152.6,86.9z"/>
	<path class="st1" d="M211,89.8c0,2.9-0.5,5.6-1.5,8c-1,2.4-2.3,4.8-4,7.3l-11.9,17.7h-14.1l12.2-17l0.1-0.2
		c-0.5,0.2-1.1,0.3-1.7,0.4c-0.6,0.1-1.2,0.1-1.8,0.1c-2.2,0-4.2-0.4-6.2-1.1s-3.7-1.9-5.1-3.3c-1.5-1.4-2.7-3.1-3.5-5.1
		c-0.9-2-1.3-4.2-1.3-6.6c0-2.8,0.5-5.3,1.5-7.5c1-2.2,2.4-4.1,4.2-5.6c1.8-1.5,3.8-2.7,6.2-3.5c2.4-0.8,4.9-1.2,7.5-1.2
		c2.7,0,5.2,0.4,7.6,1.2c2.4,0.8,4.4,2,6.1,3.5c1.7,1.5,3.1,3.4,4.1,5.6C210.5,84.7,211,87.1,211,89.8z M199.4,89.7
		c0-2.1-0.7-4-2.1-5.5c-1.4-1.6-3.2-2.3-5.6-2.3s-4.3,0.7-5.7,2.2c-1.4,1.5-2.1,3.4-2.1,5.7c0,2.2,0.7,4.1,2.1,5.5s3.3,2.2,5.6,2.2
		c2.3,0,4.2-0.7,5.7-2.2C198.6,93.9,199.4,92,199.4,89.7z"/>
	<path class="st1" d="M224.9,131.4h-9.4l5.2-19.7h10.9L224.9,131.4z"/>
	<path class="st1" d="M276.7,98c0,3.5-0.3,6.8-1,9.9c-0.7,3.2-1.8,5.9-3.3,8.3c-1.5,2.4-3.5,4.3-5.9,5.7c-2.4,1.4-5.4,2.1-8.9,2.1
		s-6.4-0.7-8.9-2.1c-2.5-1.4-4.5-3.3-6-5.7c-1.6-2.4-2.7-5.2-3.4-8.3c-0.7-3.2-1-6.5-1-9.9s0.3-6.8,1-9.9s1.8-5.9,3.4-8.2
		c1.6-2.3,3.6-4.2,6-5.6c2.5-1.4,5.4-2.1,8.9-2.1s6.4,0.7,8.9,2.1c2.4,1.4,4.4,3.3,5.9,5.6c1.5,2.3,2.6,5.1,3.3,8.2
		C276.3,91.3,276.7,94.6,276.7,98z M264.7,98c0-1.5-0.1-3.2-0.3-5.1c-0.2-1.9-0.5-3.6-1-5.2c-0.5-1.6-1.2-2.9-2.2-4
		c-1-1.1-2.2-1.6-3.7-1.6s-2.8,0.5-3.8,1.6c-1,1.1-1.7,2.4-2.3,4c-0.5,1.6-0.9,3.3-1.1,5.2c-0.2,1.9-0.3,3.5-0.3,5.1
		c0,1.6,0.1,3.3,0.3,5.2c0.2,1.9,0.5,3.6,1.1,5.2c0.5,1.6,1.3,2.9,2.3,4c1,1.1,2.2,1.6,3.8,1.6s2.8-0.5,3.7-1.6
		c0.9-1.1,1.7-2.4,2.2-4c0.5-1.6,0.9-3.3,1-5.2C264.6,101.3,264.7,99.6,264.7,98z"/>
	<path class="st1" d="M321.6,98c0,3.5-0.3,6.8-1,9.9c-0.7,3.2-1.8,5.9-3.3,8.3c-1.5,2.4-3.5,4.3-5.9,5.7c-2.4,1.4-5.4,2.1-8.9,2.1
		s-6.4-0.7-8.9-2.1c-2.5-1.4-4.5-3.3-6-5.7c-1.6-2.4-2.7-5.2-3.4-8.3c-0.7-3.2-1-6.5-1-9.9s0.3-6.8,1-9.9s1.8-5.9,3.4-8.2
		c1.6-2.3,3.6-4.2,6-5.6c2.5-1.4,5.4-2.1,8.9-2.1s6.4,0.7,8.9,2.1c2.4,1.4,4.4,3.3,5.9,5.6c1.5,2.3,2.6,5.1,3.3,8.2
		C321.2,91.3,321.6,94.6,321.6,98z M309.6,98c0-1.5-0.1-3.2-0.3-5.1c-0.2-1.9-0.5-3.6-1-5.2c-0.5-1.6-1.2-2.9-2.2-4
		c-1-1.1-2.2-1.6-3.7-1.6s-2.8,0.5-3.8,1.6c-1,1.1-1.7,2.4-2.3,4c-0.5,1.6-0.9,3.3-1.1,5.2c-0.2,1.9-0.3,3.5-0.3,5.1
		c0,1.6,0.1,3.3,0.3,5.2c0.2,1.9,0.5,3.6,1.1,5.2c0.5,1.6,1.3,2.9,2.3,4c1,1.1,2.2,1.6,3.8,1.6s2.8-0.5,3.7-1.6
		c0.9-1.1,1.7-2.4,2.2-4c0.5-1.6,0.9-3.3,1-5.2C309.5,101.3,309.6,99.6,309.6,98z"/>
	<path class="st1" d="M366.5,98c0,3.5-0.3,6.8-1,9.9c-0.7,3.2-1.8,5.9-3.3,8.3c-1.5,2.4-3.5,4.3-5.9,5.7c-2.4,1.4-5.4,2.1-8.9,2.1
		s-6.4-0.7-8.9-2.1c-2.5-1.4-4.5-3.3-6-5.7c-1.6-2.4-2.7-5.2-3.4-8.3c-0.7-3.2-1-6.5-1-9.9s0.3-6.8,1-9.9s1.8-5.9,3.4-8.2
		c1.6-2.3,3.6-4.2,6-5.6c2.5-1.4,5.4-2.1,8.9-2.1s6.4,0.7,8.9,2.1c2.4,1.4,4.4,3.3,5.9,5.6c1.5,2.3,2.6,5.1,3.3,8.2
		C366.1,91.3,366.5,94.6,366.5,98z M354.5,98c0-1.5-0.1-3.2-0.3-5.1c-0.2-1.9-0.5-3.6-1-5.2c-0.5-1.6-1.2-2.9-2.2-4
		c-1-1.1-2.2-1.6-3.7-1.6s-2.8,0.5-3.8,1.6c-1,1.1-1.7,2.4-2.3,4c-0.5,1.6-0.9,3.3-1.1,5.2c-0.2,1.9-0.3,3.5-0.3,5.1
		c0,1.6,0.1,3.3,0.3,5.2c0.2,1.9,0.5,3.6,1.1,5.2c0.5,1.6,1.3,2.9,2.3,4c1,1.1,2.2,1.6,3.8,1.6s2.8-0.5,3.7-1.6
		c0.9-1.1,1.7-2.4,2.2-4c0.5-1.6,0.9-3.3,1-5.2C354.4,101.3,354.5,99.6,354.5,98z"/>
	<path class="st1" d="M400.3,122.8v-4.5h-0.1c-1.1,1.8-2.7,3.1-4.8,4.1c-2.1,0.9-4.3,1.4-6.6,1.4c-2.6,0-4.9-0.5-7-1.5
		c-2-1-3.8-2.4-5.2-4.1c-1.4-1.7-2.5-3.6-3.2-5.9c-0.7-2.2-1.1-4.5-1.1-7c0-2.4,0.4-4.7,1.1-6.9c0.8-2.2,1.9-4.1,3.3-5.8
		c1.4-1.7,3.1-3,5.1-4c2-1,4.3-1.5,6.8-1.5c2.5,0,4.7,0.5,6.5,1.5c1.8,1,3.1,2,4.1,3.2h0.1v-8.7h-10.4V77h10.4v-6.7h11.4V77h3.2v6.2
		h-3.2v39.6H400.3z M399.9,105.4c0-1.1-0.2-2.2-0.6-3.3c-0.4-1.1-1-2-1.7-2.9c-0.7-0.8-1.6-1.5-2.6-2c-1-0.5-2.2-0.8-3.5-0.8
		c-1.3,0-2.5,0.3-3.5,0.8c-1,0.5-1.9,1.2-2.6,2c-0.7,0.8-1.2,1.8-1.6,2.8c-0.3,1.1-0.5,2.2-0.5,3.3s0.2,2.2,0.5,3.3
		c0.3,1.1,0.9,2.1,1.6,2.9c0.7,0.8,1.6,1.5,2.6,2c1,0.5,2.2,0.8,3.5,0.8c1.3,0,2.5-0.3,3.5-0.8c1-0.5,1.9-1.2,2.6-2
		c0.7-0.8,1.3-1.8,1.7-2.9C399.7,107.6,399.9,106.5,399.9,105.4z"/>
</g>
</svg>
