<svg id="Layer_1" data-name="Layer 1" xmlns="http://www.w3.org/2000/svg" viewBox="0 0 2006 984.99"><defs><style>.cls-1{fill:#c90202;}.cls-2{fill:#fff;}</style></defs><title>Image convert 1 fix text</title><path d="M149.71,551.59c0,16.54-12.4,26.82-32.23,26.82H102.54v20.46H85.37v-74.2h32.11C137.31,524.67,149.71,535,149.71,551.59Zm-17.39,0c0-8.16-5.3-12.93-15.79-12.93h-14v25.76h14C127,564.42,132.32,559.65,132.32,551.59Z"/><path d="M230,524.67v74.2H212.78V568.45H179.07v30.42H161.9v-74.2h17.17v29.26h33.71V524.67Z"/><path d="M296.41,583H262l-6.57,15.9h-17.6l33.08-74.2h17L321,598.87H303Zm-26.18-64.34H258l14.1-12.09h14.41l14.1,12.09H288.46l-9.11-6ZM291,569.93l-11.77-28.41-11.77,28.41Zm13-61.48h-12l11.76-12.83h16.86Z"/><path d="M396.79,524.67v74.2H382.7l-37-45v45h-17v-74.2h14.2l36.89,45.05V524.67Z"/><path d="M511.91,598.87l-.11-44.52L490,591h-7.74L460.5,555.3v43.57H444.39v-74.2h14.2l27.77,46.11,27.35-46.11h14.1l.21,74.2Z"/><path d="M594.48,583H560l-6.57,15.9h-17.6l33.07-74.2h17l33.18,74.2h-18Zm-5.41-13-11.76-28.41-11.77,28.41Zm-8.37-51.3H567.77l14.31-15.27h17.81Z"/><path d="M724.86,524.67v74.2H707.69V568.45H674v30.42H656.81v-74.2H674v29.26h33.71V524.67Z"/><path d="M819,561.77c0,22.15-17.28,38.37-40.6,38.37s-40.6-16.32-40.6-38.37S755,523.4,778.39,523.4,819,539.62,819,561.77Zm-17.39,0c0-14.1-10-23.74-23.21-23.74s-23.22,9.64-23.22,23.74,10,23.74,23.22,23.74S801.6,575.87,801.6,561.77Zm-32.33-43.14H757.08l14.1-12.09H785.6l14.09,12.09H787.5l-9.11-6Zm28.2-10.18-16.64-12.83h16.85l11.66,12.83Z"/><path d="M900,524.67v74.2h-14.1l-37-45v45h-17v-74.2h14.2L883,569.72V524.67Z"/><path d="M967.7,560.6h15.69v30.11c-8.16,6.15-19.4,9.43-30,9.43-23.32,0-40.49-16-40.49-38.37s17.17-38.37,40.81-38.37c13,0,23.85,4.45,31.06,12.82l-11,10.18A25.13,25.13,0,0,0,954.56,538c-14.42,0-24.27,9.64-24.27,23.74,0,13.89,9.85,23.74,24.06,23.74a27.15,27.15,0,0,0,13.35-3.18Z"/><path d="M78.81,656.56c0-12.14,9.32-20.82,21.86-20.82,7,0,12.77,2.53,16.57,7.13l-6,5.52a13,13,0,0,0-10.13-4.71c-7.54,0-12.88,5.29-12.88,12.88s5.34,12.89,12.88,12.89a12.83,12.83,0,0,0,10.13-4.78l6,5.53c-3.8,4.65-9.61,7.19-16.63,7.19C88.13,677.39,78.81,668.7,78.81,656.56Z"/><path d="M149.22,668.07h-18.7L127,676.7h-9.55l18-40.27h9.2l18,40.27h-9.78ZM146.29,661l-6.39-15.42L133.52,661Z"/><path d="M173.09,644H160.2v-7.59h35.1V644H182.41V676.7h-9.32Z"/><path d="M237.23,636.43V676.7h-9.32V660.19H209.62V676.7H200.3V636.43h9.32V652.3h18.29V636.43Z"/><path d="M266.1,662.43V676.7h-9.31V662.31L241.2,636.43h9.89l10.76,17.89,10.75-17.89h9.15Z"/><path d="M301.94,636.43h18.29c13.18,0,22.21,7.94,22.21,20.13s-9,20.14-22.21,20.14H301.94ZM319.77,669c8,0,13.23-4.77,13.23-12.48s-5.23-12.48-13.23-12.48h-8.51v25Z"/><path d="M346.92,656.56c0-12,9.32-20.82,22-20.82s22,8.8,22,20.82-9.37,20.83-22,20.83S346.92,668.53,346.92,656.56Zm34.63,0c0-7.65-5.41-12.88-12.6-12.88s-12.6,5.23-12.6,12.88,5.41,12.89,12.6,12.89S381.55,664.21,381.55,656.56Z"/><path d="M398,636.43h9.32V669.1h20.19v7.6H398Z"/><path d="M432.74,636.43h9.32V669.1h20.19v7.6H432.74Z"/><path d="M520.41,676.7l-.06-24.17L508.5,672.44h-4.2l-11.79-19.39V676.7h-8.75V636.43h7.71l15.07,25,14.85-25H529l.11,40.27Z"/><path d="M565.22,668.07h-18.7L543,676.7H533.4l18-40.27h9.21l18,40.27h-9.78ZM562.28,661l-6.38-15.42L549.51,661Z"/><path d="M582.76,636.43h9.32V669.1h20.19v7.6H582.76Z"/><path d="M617.5,636.43h9.32V676.7H617.5Z"/><path d="M673.3,665.71c0,7-5.52,11-16.11,11H636.37V636.43H656c10.07,0,15.25,4.2,15.25,10.47a9.71,9.71,0,0,1-5.35,8.86A9.94,9.94,0,0,1,673.3,665.71Zm-27.67-22.26v9.49h9.26c4.55,0,7-1.61,7-4.78s-2.47-4.71-7-4.71Zm18.29,21.28c0-3.39-2.59-5-7.42-5H645.63v9.95H656.5C661.33,669.68,663.92,668.18,663.92,664.73Z"/><path d="M680,659V636.43h9.32v22.2c0,7.65,3.33,10.82,9,10.82s9-3.17,9-10.82v-22.2h9.21V659c0,11.85-6.79,18.41-18.24,18.41S680,670.83,680,659Z"/><path d="M738.81,672.73l3.17-7a23.69,23.69,0,0,0,13.29,4.2c5.52,0,7.76-1.84,7.76-4.32,0-7.53-23.41-2.36-23.41-17.31,0-6.85,5.52-12.54,17-12.54a27.1,27.1,0,0,1,14,3.56l-2.88,7.08a22.71,22.71,0,0,0-11.16-3.16c-5.52,0-7.65,2.07-7.65,4.6,0,7.42,23.41,2.3,23.41,17.08,0,6.73-5.58,12.49-17.08,12.49C748.82,677.39,742.38,675.49,738.81,672.73Z"/><path d="M778.33,659V636.43h9.32v22.2c0,7.65,3.34,10.82,9,10.82s9-3.17,9-10.82v-22.2h9.2V659c0,11.85-6.79,18.41-18.23,18.41S778.33,670.83,778.33,659Z"/><path d="M860.94,636.43V676.7h-7.66l-20.07-24.45V676.7H824V636.43h7.71l20,24.45V636.43Z"/><path d="M867.32,672.73l3.16-7a23.74,23.74,0,0,0,13.29,4.2c5.52,0,7.77-1.84,7.77-4.32,0-7.53-23.42-2.36-23.42-17.31,0-6.85,5.53-12.54,17-12.54a27.1,27.1,0,0,1,14,3.56l-2.87,7.08A22.74,22.74,0,0,0,885,643.22c-5.53,0-7.66,2.07-7.66,4.6,0,7.42,23.42,2.3,23.42,17.08,0,6.73-5.58,12.49-17.09,12.49C877.33,677.39,870.88,675.49,867.32,672.73Z"/><path d="M938.36,669.22v7.48H907.18V636.43h30.43v7.48H916.44v8.74h18.7v7.25h-18.7v9.32Z"/><path d="M954.12,644H941.23v-7.59h35.09V644H963.44V676.7h-9.32Z"/><path d="M1034.53,665.71c0,7-5.52,11-16.1,11H997.6V636.43h19.68c10.06,0,15.24,4.2,15.24,10.47a9.69,9.69,0,0,1-5.35,8.86A9.93,9.93,0,0,1,1034.53,665.71Zm-27.67-22.26v9.49h9.27c4.54,0,7-1.61,7-4.78s-2.47-4.71-7-4.71Zm18.3,21.28c0-3.39-2.59-5-7.42-5h-10.88v9.95h10.88C1022.57,669.68,1025.16,668.18,1025.16,664.73Z"/><path d="M1041.61,636.43h9.32V669.1h20.19v7.6h-29.51Z"/><path d="M1075.49,659V636.43h9.32v22.2c0,7.65,3.33,10.82,9,10.82s9-3.17,9-10.82v-22.2h9.2V659c0,11.85-6.79,18.41-18.24,18.41S1075.49,670.83,1075.49,659Z"/><path d="M1118,672.73l3.16-7a23.71,23.71,0,0,0,13.29,4.2c5.52,0,7.77-1.84,7.77-4.32,0-7.53-23.42-2.36-23.42-17.31,0-6.85,5.52-12.54,17-12.54a27.1,27.1,0,0,1,14,3.56l-2.87,7.08a22.75,22.75,0,0,0-11.17-3.16c-5.52,0-7.65,2.07-7.65,4.6,0,7.42,23.42,2.3,23.42,17.08,0,6.73-5.58,12.49-17.09,12.49C1128,677.39,1121.56,675.49,1118,672.73Z"/><path d="M1194.79,636.43V676.7h-9.32V660.19h-18.29V676.7h-9.32V636.43h9.32V652.3h18.29V636.43Z"/><path d="M1235.52,669.22v7.48h-31.18V636.43h30.43v7.48H1213.6v8.74h18.69v7.25H1213.6v9.32Z"/><path d="M1268.59,676.7l-7.77-11.22h-8.57V676.7h-9.32V636.43h17.43c10.76,0,17.49,5.58,17.49,14.61a13.09,13.09,0,0,1-8.28,12.71l9,13ZM1259.85,644h-7.6v14h7.6c5.69,0,8.57-2.65,8.57-7S1265.54,644,1259.85,644Z"/><path d="M107.4,816.87h7.48v6.27h-8.23l-1.15,9.2H99l1.15-9.2H91.7l-1.15,9.2H84.1l1.15-9.2H77.72v-6.27H86l1.21-9.32H79.67v-6.27H88l1.15-9.2h6.44l-1.15,9.2h8.46l1.15-9.2h6.44l-1.15,9.2h7.48l.06,6.27h-8.29Zm-6.5,0,1.21-9.32H93.65l-1.21,9.32Z"/><path d="M120.23,812.21c0-13.29,7.36-20.82,17.25-20.82s17.26,7.53,17.26,20.82S147.44,833,137.48,833,120.23,825.5,120.23,812.21Zm25.13,0c0-9.15-3.22-12.94-7.88-12.94s-7.82,3.79-7.82,12.94,3.22,12.94,7.82,12.94S145.36,821.36,145.36,812.21Z"/><path d="M188.45,820c0,6.79-5.24,13-16.68,13-5.64,0-11.45-1.55-15.36-4.31l3.62-7.13a19.58,19.58,0,0,0,11.51,3.62c4.66,0,7.53-1.9,7.53-5.18,0-3-2.24-4.94-7.53-4.94h-4.26v-6.16l8.28-9.38H158.42v-7.47h28.19v6l-9.09,10.35C184.77,809.62,188.45,814.11,188.45,820Z"/><path d="M238.09,823.71h-18.7l-3.56,8.63h-9.55l17.95-40.26h9.2l18,40.26h-9.78Zm-2.93-7.07-6.39-15.42-6.38,15.42Z"/><path d="M254.42,814.63V792.08h9.32v22.2c0,7.65,3.34,10.82,9,10.82s9-3.17,9-10.82v-22.2h9.21v22.55c0,11.85-6.79,18.4-18.24,18.4S254.42,826.48,254.42,814.63Z"/><path d="M307.75,799.67H294.86v-7.59H330v7.59H317.07v32.67h-9.32Z"/><path d="M333.92,814.63V792.08h9.32v22.2c0,7.65,3.34,10.82,9,10.82s9-3.17,9-10.82v-22.2h9.2v22.55c0,11.85-6.79,18.4-18.23,18.4S333.92,826.48,333.92,814.63Z"/><path d="M416.24,832.34l-.06-24.16-11.85,19.91h-4.2L388.34,808.7v23.64h-8.75V792.08h7.71l15.07,25,14.84-25h7.66l.11,40.26Z"/><path d="M471.46,792.08v40.26h-7.65L443.73,807.9v24.44h-9.2V792.08h7.7l20,24.44V792.08Z"/><path d="M526.27,792.08v6l-14.95,34.22H501.19l14.44-32.67H502.29v6.56H494V792.08Z"/><path d="M559.18,811.58h8.51v16.33A27.77,27.77,0,0,1,551.41,833c-12.65,0-22-8.68-22-20.82s9.32-20.82,22.14-20.82c7.08,0,12.95,2.41,16.86,7l-6,5.52A13.64,13.64,0,0,0,552,799.32c-7.82,0-13.17,5.24-13.17,12.89s5.35,12.89,13.06,12.89a14.76,14.76,0,0,0,7.25-1.73Z"/><g id="_Rectangle_" data-name="&lt;Rectangle&gt;"><rect class="cls-1" x="80" y="68.49" width="921" height="272"/></g><path class="cls-2" d="M215.1,252.19V173.71L195.18,189.1l-13.13-18,35.15-25.81h23.11V252.19Z"/><path class="cls-2" d="M358.63,221.7a30.14,30.14,0,0,1-12.12,25.13A38,38,0,0,1,333.7,253a57.46,57.46,0,0,1-30.35,0,39,39,0,0,1-12.73-6.11,30.36,30.36,0,0,1-8.81-10.34,31,31,0,0,1-3.32-14.72,26,26,0,0,1,1.51-9,25.44,25.44,0,0,1,4.15-7.39,28,28,0,0,1,6.11-5.59,27.67,27.67,0,0,1,7.4-3.54V196A26.44,26.44,0,0,1,286,187.67q-4.68-5.82-4.68-14.72a27.7,27.7,0,0,1,3-13.13,28.25,28.25,0,0,1,8.15-9.58,36.29,36.29,0,0,1,11.92-5.81,50.83,50.83,0,0,1,14.19-2,51.86,51.86,0,0,1,14.11,1.89A36.55,36.55,0,0,1,344.6,150a28.6,28.6,0,0,1,8.22,9.43,26.74,26.74,0,0,1,3.1,13.06q0,8.91-4.53,14.94a23.73,23.73,0,0,1-11.77,8.45v.46a26.76,26.76,0,0,1,7.48,3.54,26.12,26.12,0,0,1,6,5.59,26.4,26.4,0,0,1,4.05,7.39A26,26,0,0,1,358.63,221.7Zm-25.2-.91a14,14,0,0,0-4.15-10.33,14.41,14.41,0,0,0-10.64-4.15,14.71,14.71,0,0,0-10.79,4.07,14,14,0,0,0-4.15,10.41q0,6.5,4.15,10.34A15.2,15.2,0,0,0,318.64,235c4.42,0,8-1.28,10.71-3.85S333.43,225.12,333.43,220.79Zm-2-46.48a11.36,11.36,0,0,0-3.78-8.75,12.87,12.87,0,0,0-9.05-3.48,12.43,12.43,0,0,0-9.21,3.48,11.87,11.87,0,0,0-3.47,8.75,12.83,12.83,0,0,0,3.4,8.9,11.83,11.83,0,0,0,9.28,3.78,12.22,12.22,0,0,0,9.21-3.78A12.43,12.43,0,0,0,331.47,174.31Z"/><path class="cls-2" d="M458.1,180.65a43.61,43.61,0,0,1-3.32,17.28,100.66,100.66,0,0,1-8.6,15.77l-25.79,38.49H389.78l26.58-36.83.31-.45a19.09,19.09,0,0,1-3.7.9,25,25,0,0,1-3.84.31,36.3,36.3,0,0,1-13.41-2.49,34.06,34.06,0,0,1-11.15-7.1A34.26,34.26,0,0,1,374,181.25a38.73,38.73,0,0,1,3.31-16.3,35.54,35.54,0,0,1,9-12.22,40,40,0,0,1,13.41-7.62,51.73,51.73,0,0,1,32.69,0,39.09,39.09,0,0,1,13.33,7.62,36.4,36.4,0,0,1,9,12.07A37,37,0,0,1,458.1,180.65Zm-25.21-.3a17.52,17.52,0,0,0-4.47-12q-4.47-5.06-12.21-5.06t-12.35,4.76q-4.64,4.75-4.63,12.45a16.67,16.67,0,0,0,4.55,12q4.55,4.75,12.13,4.75t12.28-4.68Q432.89,187.89,432.89,180.35Z"/><path class="cls-2" d="M488.28,270.9H467.9L479.22,228h23.7Z"/><path class="cls-2" d="M600.72,198.46A100.55,100.55,0,0,1,598.46,220a55.19,55.19,0,0,1-7.25,18,37.52,37.52,0,0,1-12.9,12.37q-7.93,4.61-19.25,4.61t-19.32-4.61a38,38,0,0,1-13-12.37,54.2,54.2,0,0,1-7.32-18,99.92,99.92,0,0,1-2.27-21.58A98.86,98.86,0,0,1,519.37,177a52.52,52.52,0,0,1,7.32-17.81,37.81,37.81,0,0,1,13-12.15q8-4.53,19.32-4.53T578.31,147a37.35,37.35,0,0,1,12.9,12.15A53.47,53.47,0,0,1,598.46,177,99.49,99.49,0,0,1,600.72,198.46Zm-26,0q0-5-.6-11a55.24,55.24,0,0,0-2.27-11.24,24.48,24.48,0,0,0-4.75-8.76,10.24,10.24,0,0,0-8.08-3.54,10.45,10.45,0,0,0-8.15,3.54,24.57,24.57,0,0,0-4.9,8.76,51.45,51.45,0,0,0-2.34,11.24c-.4,4-.61,7.7-.61,11s.21,7.17.61,11.24A51.45,51.45,0,0,0,546,221a24.65,24.65,0,0,0,4.9,8.76,10.45,10.45,0,0,0,8.15,3.54,10.24,10.24,0,0,0,8.08-3.54,24.57,24.57,0,0,0,4.75-8.76,55.21,55.21,0,0,0,2.27-11.32Q574.76,203.6,574.76,198.46Z"/><path class="cls-2" d="M698.22,198.46A99.92,99.92,0,0,1,696,220a55.18,55.18,0,0,1-7.24,18,37.52,37.52,0,0,1-12.9,12.37q-7.93,4.61-19.25,4.61t-19.32-4.61a38,38,0,0,1-13-12.37,54.2,54.2,0,0,1-7.32-18,99.92,99.92,0,0,1-2.27-21.58A98.86,98.86,0,0,1,616.87,177a52.52,52.52,0,0,1,7.32-17.81,37.81,37.81,0,0,1,13-12.15q8-4.53,19.32-4.53T675.81,147a37.35,37.35,0,0,1,12.9,12.15A53.46,53.46,0,0,1,696,177,98.86,98.86,0,0,1,698.22,198.46Zm-26,0a109.5,109.5,0,0,0-.61-11,54.58,54.58,0,0,0-2.26-11.24,24.48,24.48,0,0,0-4.75-8.76,10.24,10.24,0,0,0-8.08-3.54,10.44,10.44,0,0,0-8.15,3.54,24.57,24.57,0,0,0-4.9,8.76,51.45,51.45,0,0,0-2.34,11.24,109.5,109.5,0,0,0-.61,11q0,5.13.61,11.24A51.45,51.45,0,0,0,643.51,221a24.65,24.65,0,0,0,4.9,8.76,10.44,10.44,0,0,0,8.15,3.54,10.24,10.24,0,0,0,8.08-3.54,24.57,24.57,0,0,0,4.75-8.76,54.56,54.56,0,0,0,2.26-11.32Q672.26,203.6,672.26,198.46Z"/><path class="cls-2" d="M795.72,198.46A99.92,99.92,0,0,1,793.45,220a55.18,55.18,0,0,1-7.24,18,37.46,37.46,0,0,1-12.91,12.37q-7.92,4.61-19.24,4.61t-19.32-4.61a38,38,0,0,1-13-12.37,54,54,0,0,1-7.32-18,99.92,99.92,0,0,1-2.27-21.58A98.86,98.86,0,0,1,714.37,177a52.32,52.32,0,0,1,7.32-17.81,37.81,37.81,0,0,1,13-12.15q8-4.53,19.32-4.53T773.3,147a37.29,37.29,0,0,1,12.91,12.15A53.46,53.46,0,0,1,793.45,177,98.86,98.86,0,0,1,795.72,198.46Zm-26,0a109.5,109.5,0,0,0-.61-11,54.58,54.58,0,0,0-2.26-11.24,24.48,24.48,0,0,0-4.75-8.76,10.24,10.24,0,0,0-8.08-3.54,10.44,10.44,0,0,0-8.15,3.54,24.57,24.57,0,0,0-4.9,8.76,51.45,51.45,0,0,0-2.34,11.24,109.5,109.5,0,0,0-.61,11q0,5.13.61,11.24A51.45,51.45,0,0,0,741,221a24.65,24.65,0,0,0,4.9,8.76,10.44,10.44,0,0,0,8.15,3.54,10.24,10.24,0,0,0,8.08-3.54,24.57,24.57,0,0,0,4.75-8.76,54.56,54.56,0,0,0,2.26-11.32Q769.76,203.6,769.76,198.46Z"/><path class="cls-2" d="M869.22,252.19v-9.81h-.3a23.57,23.57,0,0,1-10.34,8.83,33.73,33.73,0,0,1-14.27,3.09A33.35,33.35,0,0,1,829.22,251,34.49,34.49,0,0,1,818,242.15a38.74,38.74,0,0,1-7-12.75,47.41,47.41,0,0,1-2.42-15.09,45.22,45.22,0,0,1,2.5-15,39.09,39.09,0,0,1,7.09-12.6A33.07,33.07,0,0,1,844,174.91a28.71,28.71,0,0,1,14,3.17A31.17,31.17,0,0,1,867,185h.31V166.16H844.77V152.73h22.49V138.09H892v14.64H899v13.43H892v86Zm-.91-37.73a20.61,20.61,0,0,0-4.9-13.29,18.09,18.09,0,0,0-5.66-4.37,16.63,16.63,0,0,0-7.55-1.66,17,17,0,0,0-7.7,1.66,17.39,17.39,0,0,0-9,10.41,22.92,22.92,0,0,0-1.13,7.1,23.53,23.53,0,0,0,1.13,7.16,18.48,18.48,0,0,0,3.4,6.27,16.66,16.66,0,0,0,13.28,6,16.76,16.76,0,0,0,7.55-1.66,18.12,18.12,0,0,0,5.66-4.38,20.05,20.05,0,0,0,3.62-6.19A20.41,20.41,0,0,0,868.31,214.46Z"/></svg>