<?xml version="1.0" encoding="utf-8"?>
<!-- Generator: Adobe Illustrator 22.1.0, SVG Export Plug-In . SVG Version: 6.00 Build 0)  -->
<svg version="1.1" id="Layer_1" xmlns="http://www.w3.org/2000/svg" xmlns:xlink="http://www.w3.org/1999/xlink" x="0px" y="0px"
	 viewBox="0 0 987 428.9" style="enable-background:new 0 0 987 428.9;" xml:space="preserve">
<style type="text/css">
	.st0{fill:#C90202;}
	.st1{fill:#FFFFFF;}
</style>
<title>Image convert 3</title>
<path d="M52.7,218c0-11.5,8.8-19.8,20.6-19.8c6.3,0,11.7,2.2,15.2,6.4L84,209c-2.6-2.9-6.4-4.6-10.3-4.5c-8,0-13.8,5.6-13.8,13.5
	s5.8,13.5,13.8,13.5c3.9,0.1,7.7-1.6,10.3-4.6l4.6,4.4c-3.6,4.2-9,6.4-15.3,6.4C61.5,237.8,52.7,229.5,52.7,218z"/>
<path d="M91.9,218c0-11.4,8.8-19.8,20.7-19.8s20.7,8.4,20.7,19.8s-8.8,19.8-20.7,19.8S91.9,229.4,91.9,218z M126.2,218
	c0-7.5-6-13.5-13.5-13.5c-7.5,0-13.5,6-13.5,13.5c0,7.5,6,13.5,13.5,13.5c0,0,0,0,0,0c7.2,0.2,13.3-5.5,13.5-12.7
	C126.2,218.6,126.2,218.3,126.2,218z M109.3,245.2c0-1.8,1.5-3.3,3.3-3.3c1.8,0,3.3,1.5,3.3,3.3c0,0,0,0,0,0c0,1.8-1.5,3.3-3.3,3.3
	C110.8,248.5,109.3,247,109.3,245.2z"/>
<path d="M191.3,198.8l-16.8,38.5h-7l-16.9-38.5h7.8l12.8,29.7l12.9-29.7H191.3z"/>
<path d="M224.3,231.3v6h-28.9v-38.5h28.1v6h-21v10h18.6v5.9h-18.5v10.6H224.3z M203.3,195.3h-3.7c0.1-4.5,2.4-7.4,5.9-7.4
	s5.5,3.6,7.5,3.6c1.5,0,2.6-1.2,2.7-3.1h3.7c-0.1,4.3-2.4,7.2-5.9,7.2S208,192,206,192C204.5,192,203.4,193.2,203.3,195.3
	L203.3,195.3z"/>
<path d="M244.7,218c0-11.5,8.8-19.8,20.6-19.8c6.3,0,11.6,2.2,15.2,6.4l-4.6,4.3c-2.6-2.9-6.4-4.6-10.3-4.5c-8,0-13.8,5.6-13.8,13.5
	s5.8,13.5,13.8,13.5c3.9,0.1,7.7-1.6,10.3-4.6l4.6,4.4c-3.6,4.2-9,6.4-15.3,6.4C253.5,237.8,244.7,229.5,244.7,218z"/>
<path d="M321.6,198.8v38.5h-7.1v-16.5h-19.9v16.5h-7.1v-38.5h7.1v15.9h19.9v-15.9H321.6z"/>
<path d="M356.9,228.4h-19.2l-3.8,8.9h-7.4l17.3-38.5h7l17.4,38.5h-7.5L356.9,228.4z M342.5,195.6h-5.7l7.4-7.5h6.3l7.4,7.5h-5.7
	l-4.8-4.1L342.5,195.6z M354.5,222.8l-7.2-16.9l-7.2,16.8L354.5,222.8z"/>
<path d="M407.4,198.8v38.5h-5.9l-21.2-26.1v26.1h-7.1v-38.5h5.9l21.2,26.1v-26.1H407.4z"/>
<path d="M468.2,237.3l0-25.5l-12.7,21.1h-3.2l-12.6-20.8v25.2h-6.8v-38.5h5.9l15.3,25.5l15-25.5h5.9l0.1,38.5H468.2z"/>
<path d="M510.4,228.4h-19.2l-3.8,8.9H480l17.3-38.5h7l17.4,38.5h-7.5L510.4,228.4z M499.5,195.6l-9.6-7.5h8.1l7.4,7.5H499.5z
	 M508,222.8l-7.2-16.9l-7.2,16.8L508,222.8z"/>
<path d="M540.9,223.7v13.6h-7.2v-13.5l-15.1-25h7.6l11.3,18.8l11.4-18.8h7L540.9,223.7z"/>
<path d="M573.1,218c0-11.5,8.8-19.8,20.6-19.8c6.3,0,11.7,2.2,15.2,6.4l-4.6,4.3c-2.6-2.9-6.4-4.6-10.3-4.5c-8,0-13.8,5.6-13.8,13.5
	s5.8,13.5,13.8,13.5c3.9,0.1,7.7-1.6,10.3-4.6l4.6,4.4c-3.6,4.2-9,6.4-15.3,6.4C581.9,237.8,573.1,229.5,573.1,218z"/>
<path d="M640,228.4h-19.3l-3.8,8.9h-7.4l17.3-38.5h7l17.4,38.5h-7.5L640,228.4z M637.6,222.8l-7.3-16.9l-7.2,16.8L637.6,222.8z"/>
<path d="M662.1,204.8h-12.8v-6H682v6h-12.8v32.4h-7.2L662.1,204.8z"/>
<path d="M721.6,198.8v38.5h-7.2v-16.5h-19.9v16.5h-7.2v-38.5h7.2v15.9h19.9v-15.9H721.6z"/>
<path d="M748.5,223.7v13.6h-7.2v-13.5l-15.1-25h7.6l11.3,18.8l11.4-18.8h7L748.5,223.7z"/>
<path d="M783.5,198.8h16.8c12.5,0,21,7.7,21,19.2s-8.5,19.2-21,19.2h-16.8V198.8z M800,231.2c8.6,0,14.1-5.2,14.1-13.2
	c0-8-5.6-13.2-14.1-13.2h-9.3v26.4L800,231.2z"/>
<path d="M826.1,218c0-11.4,8.8-19.8,20.7-19.8s20.7,8.4,20.7,19.8s-8.8,19.8-20.7,19.8S826.1,229.4,826.1,218z M860.4,218
	c0-7.5-6-13.5-13.5-13.5c-7.5,0-13.5,6-13.5,13.5c0,7.5,6,13.5,13.5,13.5c0,0,0,0,0,0c7.2,0.2,13.3-5.5,13.5-12.7
	C860.4,218.6,860.4,218.3,860.4,218z"/>
<path d="M875.2,198.8h7.2v32.4h20.1v6h-27.3V198.8z"/>
<path d="M908.1,198.8h7.2v32.4h20.1v6h-27.3V198.8z"/>
<path d="M80.7,303.3L72.8,292c-0.5,0-1,0.1-1.5,0.1h-8.7v11.2h-7.1v-38.5h15.8c10.1,0,16.4,5.2,16.4,13.7c0.2,5.4-3.1,10.3-8.2,12.2
	l8.8,12.6H80.7z M71,270.8h-8.4v15.3H71c6.3,0,9.5-2.9,9.5-7.7S77.3,270.8,71,270.8z"/>
<path d="M124.6,297.3v6H95.7v-38.5h28.1v6h-21v10h18.6v5.9h-18.5v10.6H124.6z"/>
<path d="M157.5,294.4h-19.2l-3.8,8.9h-7.4l17.3-38.5h7l17.4,38.5h-7.5L157.5,294.4z M155.1,288.8l-7.3-16.9l-7.2,16.8L155.1,288.8z"
	/>
<path d="M173.7,264.8h7.1v32.4H201v6h-27.3V264.8z"/>
<path d="M256.1,292.8c0,6.6-5.2,10.4-15.1,10.4h-19.1v-38.5h18c9.2,0,14.2,3.9,14.2,10c0.1,3.5-1.8,6.8-5,8.5
	C253.3,284.4,256.3,288.4,256.1,292.8z M229,270.4V281h10.1c5,0,7.8-1.8,7.8-5.3c0-3.5-2.8-5.3-7.8-5.3H229z M248.9,292.1
	c0-3.9-2.9-5.5-8.3-5.5H229v11.1h11.6C246,297.7,248.9,296,248.9,292.1L248.9,292.1z"/>
<path d="M288.9,303.3L281,292c-0.5,0-1,0.1-1.5,0.1h-8.7v11.2h-7.1v-38.5h15.8c10.1,0,16.4,5.2,16.4,13.7c0.2,5.4-3.1,10.3-8.2,12.2
	l8.9,12.6H288.9z M279.2,270.8h-8.4v15.3h8.4c6.3,0,9.5-2.9,9.5-7.7S285.5,270.8,279.2,270.8z"/>
<path d="M301.2,284c0-11.4,8.8-19.8,20.7-19.8s20.7,8.4,20.7,19.8s-8.8,19.8-20.7,19.8S301.2,295.4,301.2,284z M335.4,284
	c0-7.5-6-13.5-13.5-13.5s-13.5,6-13.5,13.5s6,13.5,13.5,13.5c0,0,0,0,0,0c7.2,0.2,13.3-5.5,13.5-12.7
	C335.4,284.6,335.4,284.3,335.4,284L335.4,284z"/>
<path d="M405.3,264.8l-12.8,38.5h-7.6l-9.5-28.5l-9.7,28.5h-7.6l-12.8-38.5h7.4l9.6,29.3l10-29.3h6.6l9.7,29.4l9.9-29.4H405.3z"/>
<path d="M458.7,294.5h-6.8v8.7h-6.9v-8.7h-21.1v-5l19-24.8h7.6l-17.9,23.7h12.6v-7.8h6.7v7.8h6.8L458.7,294.5z"/>
<path d="M464.5,264.8h16.8c12.5,0,21,7.7,21,19.2c0,11.5-8.5,19.2-21,19.2h-16.8V264.8z M481,297.2c8.6,0,14.1-5.2,14.1-13.2
	s-5.5-13.2-14.1-13.2h-9.4v26.4H481z"/>
<path d="M532.9,270.8h-12.8v-6h32.7v6H540v32.4h-7.2L532.9,270.8z"/>
<path d="M558.2,264.8h7.2v38.5h-7.2V264.8z"/>
<path d="M609.9,264.8v38.5H604l-21.2-26.1v26.1h-7.1v-38.5h5.9l21.3,26.1v-26.1H609.9z"/>
<path d="M628.1,270.8h-12.8v-6H648v6h-12.8v32.4h-7.2L628.1,270.8z"/>
<path d="M78.9,354.9h7.4v5h-8l-1.2,9.3h-5l1.1-9.3H64l-1.2,9.3h-5l1.2-9.3h-7.4v-5h8l1.3-9.8h-7.4v-5h8l1.2-9.4h5l-1.2,9.4h9.2
	l1.2-9.4h5l-1.2,9.4h7.4l0.1,5h-8L78.9,354.9z M73.9,354.9l1.2-9.8h-9.2l-1.3,9.8H73.9z"/>
<path d="M91.8,350c0-12.6,6.9-19.8,16.1-19.8S124,337.4,124,350s-6.9,19.8-16.1,19.8S91.8,362.7,91.8,350z M116.8,350
	c0-9.3-3.6-13.6-8.9-13.6s-8.8,4.3-8.8,13.6c0,9.3,3.6,13.6,8.8,13.6S116.8,359.3,116.8,350L116.8,350z"/>
<path d="M155.6,357.7c0,6.5-4.9,12.1-15.2,12.1c-5.4,0-10.9-1.6-14.5-4.4l3.1-5.6c3.2,2.5,7.2,3.8,11.3,3.8c5.1,0,8.1-2.2,8.1-5.8
	c0-3.6-2.5-5.7-8.4-5.7h-3.5v-4.9l8.8-10.4h-17.5v-6H154v4.8l-9.4,11.1C152,347.6,155.6,352,155.6,357.7z"/>
<path d="M178.2,330.8h16.8c12.5,0,21,7.7,21,19.2c0,11.5-8.5,19.2-21,19.2h-16.8V330.8z M194.7,363.2c8.6,0,14.1-5.2,14.1-13.2
	s-5.6-13.2-14.1-13.2h-9.4v26.4H194.7z"/>
<path d="M248.1,360.4h-19.2l-3.8,8.9h-7.4l17.3-38.5h7l17.4,38.5h-7.5L248.1,360.4z M245.7,354.8l-7.3-16.9l-7.2,16.8L245.7,354.8z"
	/>
<path d="M289.5,369.3l-7.9-11.3c-0.5,0-1,0.1-1.5,0.1h-8.7v11.2h-7.1v-38.5h15.8c10.1,0,16.4,5.2,16.4,13.7
	c0.2,5.4-3.1,10.3-8.2,12.2l8.9,12.6H289.5z M279.8,336.8h-8.4v15.3h8.4c6.3,0,9.5-2.9,9.5-7.7S286.1,336.8,279.8,336.8L279.8,336.8
	z"/>
<path d="M317.8,353.2l-6.1,6.3v9.8h-7.1v-38.5h7.1v19.7l19-19.7h8L322.6,348l17.2,21.3h-8.4L317.8,353.2z"/>
<path d="M394,358.8c0,6.6-5.2,10.4-15.1,10.4h-19.1v-38.5h18c9.2,0,14.2,3.9,14.2,10c0.1,3.5-1.8,6.8-5,8.5
	C391.3,350.4,394.2,354.4,394,358.8z M367,336.4V347h10.1c5,0,7.8-1.8,7.8-5.3c0-3.5-2.8-5.3-7.8-5.3H367z M386.9,358.1
	c0-3.9-2.9-5.5-8.3-5.5H367v11.1h11.5C383.9,363.7,386.8,362,386.9,358.1L386.9,358.1z"/>
<path d="M426.8,369.3L419,358c-0.5,0-1,0.1-1.5,0.1h-8.7v11.2h-7.1v-38.5h15.8c10.1,0,16.4,5.2,16.4,13.7c0.2,5.4-3.1,10.4-8.2,12.2
	l8.9,12.6H426.8z M417.2,336.8h-8.4v15.3h8.4c6.3,0,9.5-2.9,9.5-7.7S423.4,336.8,417.2,336.8z"/>
<path d="M439.1,350c0-11.4,8.8-19.8,20.7-19.8s20.7,8.4,20.7,19.8s-8.8,19.8-20.7,19.8S439.1,361.4,439.1,350z M473.4,350
	c0-7.5-6.1-13.5-13.5-13.5s-13.5,6.1-13.5,13.5s6.1,13.5,13.5,13.5l0,0c7.2,0.2,13.3-5.5,13.5-12.7
	C473.4,350.6,473.4,350.3,473.4,350z"/>
<path d="M543.2,330.8l-12.8,38.5h-7.6l-9.5-28.5l-9.7,28.5H496l-12.8-38.5h7.4l9.6,29.3l10-29.3h6.6l9.7,29.4l9.8-29.4H543.2z"/>
<path d="M583.3,330.8v38.5h-5.9l-21.2-26.1v26.1H549v-38.5h5.9l21.2,26.1v-26.1H583.3z"/>
<path d="M633.9,363.2v6h-28.4v-4.7l15.3-14.5c3.7-3.6,4.4-5.8,4.4-8c0-3.5-2.4-5.6-7.2-5.6c-3.5-0.2-6.8,1.3-9,4l-5-3.9
	c3-4,8.3-6.4,14.6-6.4c8.4,0,13.8,4.2,13.8,11c0,3.7-1,7.1-6.4,12.2l-10.3,9.8L633.9,363.2z"/>
<path d="M667.1,349.6h6.8v15.3c-4.3,3.3-9.6,5-15.1,4.9c-11.9,0-20.7-8.3-20.7-19.8s8.8-19.8,20.8-19.8c6.4,0,11.8,2.1,15.5,6.3
	l-4.5,4.4c-2.8-2.9-6.6-4.5-10.6-4.4c-8.2,0-14,5.6-14,13.5c0,7.8,5.8,13.5,13.9,13.5c2.8,0.1,5.5-0.6,7.9-2L667.1,349.6z"/>
<g id="_Rectangle_">
	<rect x="55.4" y="41.3" class="st0" width="383" height="113.1"/>
</g>
<g>
	<path class="st1" d="M97,119.8V83.6l-9.2,7.1l-6-8.3L98,70.6h10.6v49.2H97z"/>
	<path class="st1" d="M163.2,105.7c0,2.6-0.5,4.9-1.5,6.8c-1,1.9-2.4,3.5-4.1,4.8c-1.7,1.3-3.7,2.2-5.9,2.9c-2.2,0.6-4.6,0.9-7,0.9
		c-2.5,0-4.8-0.3-7-0.9s-4.2-1.6-5.9-2.8c-1.7-1.3-3-2.8-4.1-4.8c-1-1.9-1.5-4.2-1.5-6.8c0-1.5,0.2-2.9,0.7-4.1
		c0.5-1.3,1.1-2.4,1.9-3.4c0.8-1,1.7-1.9,2.8-2.6c1.1-0.7,2.2-1.3,3.4-1.6v-0.1c-2.1-0.8-3.9-2.1-5.4-3.9c-1.4-1.8-2.2-4-2.2-6.8
		c0-2.3,0.5-4.3,1.4-6c0.9-1.8,2.2-3.2,3.8-4.4c1.6-1.2,3.4-2.1,5.5-2.7c2.1-0.6,4.3-0.9,6.5-0.9c2.3,0,4.4,0.3,6.5,0.9
		c2.1,0.6,3.9,1.4,5.5,2.6c1.6,1.2,2.8,2.6,3.8,4.3c0.9,1.7,1.4,3.7,1.4,6c0,2.7-0.7,5-2.1,6.9c-1.4,1.9-3.2,3.2-5.4,3.9v0.2
		c1.2,0.4,2.4,0.9,3.4,1.6c1.1,0.7,2,1.6,2.8,2.6c0.8,1,1.4,2.1,1.9,3.4C162.9,102.9,163.2,104.3,163.2,105.7z M151.5,105.3
		c0-1.9-0.6-3.5-1.9-4.8c-1.3-1.3-2.9-1.9-4.9-1.9c-2,0-3.7,0.6-5,1.9c-1.3,1.3-1.9,2.9-1.9,4.8c0,2,0.6,3.6,1.9,4.8
		c1.3,1.2,2.9,1.8,5,1.8c2,0,3.7-0.6,4.9-1.8C150.9,108.9,151.5,107.3,151.5,105.3z M150.6,83.9c0-1.6-0.6-3-1.7-4
		c-1.2-1.1-2.5-1.6-4.2-1.6c-1.8,0-3.2,0.5-4.2,1.6c-1.1,1.1-1.6,2.4-1.6,4c0,1.6,0.5,2.9,1.6,4.1c1,1.2,2.5,1.7,4.3,1.7
		c1.7,0,3.1-0.6,4.2-1.7C150.1,86.8,150.6,85.5,150.6,83.9z"/>
	<path class="st1" d="M209,86.8c0,2.9-0.5,5.6-1.5,8c-1,2.4-2.3,4.8-4,7.3l-11.9,17.7h-14.1l12.2-17l0.1-0.2
		c-0.5,0.2-1.1,0.3-1.7,0.4c-0.6,0.1-1.2,0.1-1.8,0.1c-2.2,0-4.2-0.4-6.2-1.1s-3.7-1.9-5.1-3.3c-1.5-1.4-2.7-3.1-3.5-5.1
		c-0.9-2-1.3-4.2-1.3-6.6c0-2.8,0.5-5.3,1.5-7.5c1-2.2,2.4-4.1,4.2-5.6c1.8-1.5,3.8-2.7,6.2-3.5c2.4-0.8,4.9-1.2,7.5-1.2
		c2.7,0,5.2,0.4,7.6,1.2c2.4,0.8,4.4,2,6.1,3.5c1.7,1.5,3.1,3.4,4.1,5.6C208.5,81.7,209,84.1,209,86.8z M197.4,86.7
		c0-2.1-0.7-4-2.1-5.5c-1.4-1.6-3.2-2.3-5.6-2.3s-4.3,0.7-5.7,2.2c-1.4,1.5-2.1,3.4-2.1,5.7c0,2.2,0.7,4.1,2.1,5.5s3.3,2.2,5.6,2.2
		c2.3,0,4.2-0.7,5.7-2.2C196.6,90.9,197.4,89,197.4,86.7z"/>
	<path class="st1" d="M222.9,128.4h-9.4l5.2-19.7h10.9L222.9,128.4z"/>
	<path class="st1" d="M274.7,95c0,3.5-0.3,6.8-1,9.9c-0.7,3.2-1.8,5.9-3.3,8.3c-1.5,2.4-3.5,4.3-5.9,5.7c-2.4,1.4-5.4,2.1-8.9,2.1
		s-6.4-0.7-8.9-2.1c-2.5-1.4-4.5-3.3-6-5.7c-1.6-2.4-2.7-5.2-3.4-8.3c-0.7-3.2-1-6.5-1-9.9s0.3-6.8,1-9.9s1.8-5.9,3.4-8.2
		c1.6-2.3,3.6-4.2,6-5.6c2.5-1.4,5.4-2.1,8.9-2.1s6.4,0.7,8.9,2.1c2.4,1.4,4.4,3.3,5.9,5.6c1.5,2.3,2.6,5.1,3.3,8.2
		C274.3,88.2,274.7,91.6,274.7,95z M262.7,95c0-1.5-0.1-3.2-0.3-5.1c-0.2-1.9-0.5-3.6-1-5.2c-0.5-1.6-1.2-2.9-2.2-4
		c-1-1.1-2.2-1.6-3.7-1.6s-2.8,0.5-3.8,1.6c-1,1.1-1.7,2.4-2.3,4c-0.5,1.6-0.9,3.3-1.1,5.2c-0.2,1.9-0.3,3.5-0.3,5.1
		c0,1.6,0.1,3.3,0.3,5.2c0.2,1.9,0.5,3.6,1.1,5.2c0.5,1.6,1.3,2.9,2.3,4c1,1.1,2.2,1.6,3.8,1.6s2.8-0.5,3.7-1.6
		c0.9-1.1,1.7-2.4,2.2-4c0.5-1.6,0.9-3.3,1-5.2C262.6,98.3,262.7,96.6,262.7,95z"/>
	<path class="st1" d="M319.6,95c0,3.5-0.3,6.8-1,9.9c-0.7,3.2-1.8,5.9-3.3,8.3c-1.5,2.4-3.5,4.3-5.9,5.7c-2.4,1.4-5.4,2.1-8.9,2.1
		s-6.4-0.7-8.9-2.1c-2.5-1.4-4.5-3.3-6-5.7c-1.6-2.4-2.7-5.2-3.4-8.3c-0.7-3.2-1-6.5-1-9.9s0.3-6.8,1-9.9s1.8-5.9,3.4-8.2
		c1.6-2.3,3.6-4.2,6-5.6c2.5-1.4,5.4-2.1,8.9-2.1s6.4,0.7,8.9,2.1c2.4,1.4,4.4,3.3,5.9,5.6c1.5,2.3,2.6,5.1,3.3,8.2
		C319.2,88.2,319.6,91.6,319.6,95z M307.6,95c0-1.5-0.1-3.2-0.3-5.1c-0.2-1.9-0.5-3.6-1-5.2c-0.5-1.6-1.2-2.9-2.2-4
		c-1-1.1-2.2-1.6-3.7-1.6s-2.8,0.5-3.8,1.6c-1,1.1-1.7,2.4-2.3,4c-0.5,1.6-0.9,3.3-1.1,5.2c-0.2,1.9-0.3,3.5-0.3,5.1
		c0,1.6,0.1,3.3,0.3,5.2c0.2,1.9,0.5,3.6,1.1,5.2c0.5,1.6,1.3,2.9,2.3,4c1,1.1,2.2,1.6,3.8,1.6s2.8-0.5,3.7-1.6
		c0.9-1.1,1.7-2.4,2.2-4c0.5-1.6,0.9-3.3,1-5.2C307.5,98.3,307.6,96.6,307.6,95z"/>
	<path class="st1" d="M364.5,95c0,3.5-0.3,6.8-1,9.9c-0.7,3.2-1.8,5.9-3.3,8.3c-1.5,2.4-3.5,4.3-5.9,5.7c-2.4,1.4-5.4,2.1-8.9,2.1
		s-6.4-0.7-8.9-2.1c-2.5-1.4-4.5-3.3-6-5.7c-1.6-2.4-2.7-5.2-3.4-8.3c-0.7-3.2-1-6.5-1-9.9s0.3-6.8,1-9.9s1.8-5.9,3.4-8.2
		c1.6-2.3,3.6-4.2,6-5.6c2.5-1.4,5.4-2.1,8.9-2.1s6.4,0.7,8.9,2.1c2.4,1.4,4.4,3.3,5.9,5.6c1.5,2.3,2.6,5.1,3.3,8.2
		C364.1,88.2,364.5,91.6,364.5,95z M352.5,95c0-1.5-0.1-3.2-0.3-5.1c-0.2-1.9-0.5-3.6-1-5.2c-0.5-1.6-1.2-2.9-2.2-4
		c-1-1.1-2.2-1.6-3.7-1.6s-2.8,0.5-3.8,1.6c-1,1.1-1.7,2.4-2.3,4c-0.5,1.6-0.9,3.3-1.1,5.2c-0.2,1.9-0.3,3.5-0.3,5.1
		c0,1.6,0.1,3.3,0.3,5.2c0.2,1.9,0.5,3.6,1.1,5.2c0.5,1.6,1.3,2.9,2.3,4c1,1.1,2.2,1.6,3.8,1.6s2.8-0.5,3.7-1.6
		c0.9-1.1,1.7-2.4,2.2-4c0.5-1.6,0.9-3.3,1-5.2C352.4,98.3,352.5,96.6,352.5,95z"/>
	<path class="st1" d="M398.3,119.8v-4.5h-0.1c-1.1,1.8-2.7,3.1-4.8,4.1c-2.1,0.9-4.3,1.4-6.6,1.4c-2.6,0-4.9-0.5-7-1.5
		c-2-1-3.8-2.4-5.2-4.1c-1.4-1.7-2.5-3.6-3.2-5.9c-0.7-2.2-1.1-4.5-1.1-7c0-2.4,0.4-4.7,1.1-6.9c0.8-2.2,1.9-4.1,3.3-5.8
		c1.4-1.7,3.1-3,5.1-4c2-1,4.3-1.5,6.8-1.5c2.5,0,4.7,0.5,6.5,1.5c1.8,1,3.1,2,4.1,3.2h0.1v-8.7h-10.4V74h10.4v-6.7h11.4V74h3.2v6.2
		h-3.2v39.6H398.3z M397.9,102.4c0-1.1-0.2-2.2-0.6-3.3c-0.4-1.1-1-2-1.7-2.9c-0.7-0.8-1.6-1.5-2.6-2c-1-0.5-2.2-0.8-3.5-0.8
		c-1.3,0-2.5,0.3-3.5,0.8c-1,0.5-1.9,1.2-2.6,2c-0.7,0.8-1.2,1.8-1.6,2.8c-0.3,1.1-0.5,2.2-0.5,3.3s0.2,2.2,0.5,3.3
		c0.3,1.1,0.9,2.1,1.6,2.9c0.7,0.8,1.6,1.5,2.6,2c1,0.5,2.2,0.8,3.5,0.8c1.3,0,2.5-0.3,3.5-0.8c1-0.5,1.9-1.2,2.6-2
		c0.7-0.8,1.3-1.8,1.7-2.9C397.7,104.6,397.9,103.5,397.9,102.4z"/>
</g>
</svg>
