<svg id="Layer_1" data-name="Layer 1" xmlns="http://www.w3.org/2000/svg" viewBox="0 0 1176 457.99"><title>Image convert makeup convert</title><path d="M76.51,83l-7,7.25v13.1H57.64V51.57H69.56v24.2L92.5,51.57h13.32L84.36,74.66l22.72,28.71h-14Z"/><path d="M152.51,93.75v9.62H112.4V51.57h39.15v9.62H124.32V72.44h24.05v9.32H124.32v12Z"/><path d="M209.2,103.37l-.08-31.08L193.88,97.9h-5.41L173.3,73v30.41H162.05V51.57H172l19.39,32.19,19.09-32.19h9.85l.15,51.8Z"/><path d="M301.18,51.57v51.8h-9.85L265.51,71.92v31.45H253.67V51.57h9.91L289.34,83V51.57Z"/><path d="M325.37,93.75h28.2v9.62H313.46V51.57h39.15v9.62H325.37V72.44h24.05v9.32H325.37Zm1.33-46.4h-8.51L328,38.91H338.1l9.84,8.44h-8.51l-6.36-4.22Zm19.69-7.1-11.62-9h11.77l8.14,9Z"/><path d="M410.62,51.57v51.8h-9.84L375,71.92v31.45H363.11V51.57H373L398.78,83V51.57Z"/><path d="M454.57,61.34H438V51.57h45.14v9.77H466.56v42h-12Z"/><path d="M522.58,103.37l-10-14.43h-11v14.43h-12V51.57H512c13.84,0,22.5,7.18,22.5,18.8,0,7.77-3.93,13.46-10.66,16.35l11.62,16.65Zm-11.25-42h-9.77v18h9.77c7.33,0,11-3.4,11-9S518.66,61.34,511.33,61.34Z"/><path d="M578.08,92.27H554l-4.59,11.1H537.16l23.09-51.8h11.84l23.16,51.8H582.67Zm-3.77-9.1-8.22-19.84-8.21,19.84Z"/><path d="M648.16,51.57v51.8h-9.84L612.49,71.92v31.45H600.65V51.57h9.91L636.32,83V51.57Z"/><path d="M695.44,76.66h11v21c-5.7,4.3-13.55,6.59-20.95,6.59-16.28,0-28.27-11.18-28.27-26.79s12-26.79,28.5-26.79c9.1,0,16.65,3.11,21.68,9l-7.7,7.11a17.51,17.51,0,0,0-13.39-5.85c-10.07,0-16.95,6.74-16.95,16.58,0,9.69,6.88,16.58,16.8,16.58a19.08,19.08,0,0,0,9.32-2.22Z"/><path d="M791.5,77.47c0,15.69-11.62,25.9-28.57,25.9H739.4V81h-7V73h7V51.57h23.53C779.88,51.57,791.5,61.78,791.5,77.47Zm-12.14,0c0-9.92-6.74-16.06-17-16.06h-11V73h13v8h-13V93.53h11C772.62,93.53,779.36,87.39,779.36,77.47Z"/><path d="M800.52,51.57h12v51.8h-12Z"/><path d="M864.9,93.75v9.62H824.79V51.57h39.15v9.62H836.71V72.44h24v9.32h-24v12ZM838,47.35h-8.51l9.84-8.44h10.06l9.85,8.44h-8.51l-6.37-4.22Zm13.69-12.8L849.8,31A11.42,11.42,0,0,1,856,29.37c4.14,0,6.81,2.29,6.81,5.84,0,3-2.3,5.33-5.18,6.44l-2.82-2.74c2-1,2.74-2.14,2.74-3.1,0-1.34-1-2.15-2.52-2.15A6.45,6.45,0,0,0,851.73,34.55Z"/><path d="M921.58,103.37l-.07-31.08L906.27,97.9h-5.41L885.69,73v30.41H874.44V51.57h9.92l19.39,32.19,19.09-32.19h9.85l.14,51.8Z"/><path d="M54.39,166.27c0-15.61,12-26.79,28.12-26.79,8.95,0,16.43,3.26,21.31,9.18l-7.7,7.1a16.64,16.64,0,0,0-13-6.07c-9.69,0-16.58,6.81-16.58,16.58s6.89,16.58,16.58,16.58a16.47,16.47,0,0,0,13-6.15l7.7,7.11c-4.88,6-12.36,9.25-21.39,9.25C66.38,193.06,54.39,181.88,54.39,166.27Z"/><path d="M159.39,140.37v51.8h-12V170.93H123.87v21.24h-12v-51.8h12v20.42h23.54V140.37Z"/><path d="M225.11,166.27c0,15.47-12.07,26.79-28.35,26.79s-28.34-11.4-28.34-26.79,12-26.79,28.34-26.79S225.11,150.8,225.11,166.27Zm-12.14,0c0-9.84-7-16.58-16.21-16.58s-16.2,6.74-16.2,16.58,6.95,16.58,16.2,16.58S213,176.11,213,166.27ZM190.4,136.15h-8.51l9.84-8.44H201.8l9.84,8.44h-8.51l-6.37-4.22Zm23.61-7.1h-8.37l8.22-9h11.76Z"/><path d="M281.64,140.37v51.8H271.8L246,160.72v31.45H234.13v-51.8h9.92l25.75,31.45V140.37Z"/><path d="M328.93,165.46h10.95v21c-5.7,4.3-13.54,6.59-20.94,6.59-16.28,0-28.27-11.18-28.27-26.79s12-26.79,28.49-26.79c9.1,0,16.65,3.11,21.68,9l-7.69,7.11a17.55,17.55,0,0,0-13.4-5.85c-10.06,0-16.95,6.74-16.95,16.58,0,9.69,6.89,16.58,16.8,16.58a19.15,19.15,0,0,0,9.33-2.22Z"/><path d="M419.43,140.37v51.8h-9.84l-25.83-31.45v31.45H371.92v-51.8h9.91l25.76,31.45V140.37Z"/><path d="M465.83,181.07H441.77l-4.58,11.1H424.9L448,140.37h11.84L483,192.17H470.41Zm-25.54-53.36h7c.3,2.08,3,3.48,6.66,3.48s6.37-1.4,6.66-3.48h7c-.52,5.55-6,9-13.62,9S440.81,133.26,440.29,127.71ZM462.05,172l-8.21-19.84L445.62,172Zm-6.14-46.48h-8.36l8.21-8.95h11.77Z"/><path d="M535.9,140.37v51.8h-9.84l-25.83-31.45v31.45H488.39v-51.8h9.92l25.75,31.45V140.37Z"/><path d="M583.19,165.46h10.95v21c-5.7,4.3-13.54,6.59-20.94,6.59-16.28,0-28.27-11.18-28.27-26.79s12-26.79,28.49-26.79c9.1,0,16.65,3.11,21.68,9l-7.69,7.11a17.53,17.53,0,0,0-13.4-5.85c-10.06,0-16.94,6.74-16.94,16.58,0,9.69,6.88,16.58,16.8,16.58a19.11,19.11,0,0,0,9.32-2.22Z"/><path d="M52.83,227.27c0-7.17,5.5-12.3,12.91-12.3a12.3,12.3,0,0,1,9.8,4.21L72,222.45a7.64,7.64,0,0,0-6-2.79,7.62,7.62,0,1,0,0,15.23,7.58,7.58,0,0,0,6-2.82l3.54,3.26a12.25,12.25,0,0,1-9.83,4.25C58.33,239.58,52.83,234.45,52.83,227.27Z"/><path d="M77.24,227.27c0-7.17,5.51-12.3,12.92-12.3a12.29,12.29,0,0,1,9.79,4.21l-3.54,3.27a7.64,7.64,0,0,0-6-2.79,7.62,7.62,0,1,0,0,15.23,7.58,7.58,0,0,0,6-2.82l3.54,3.26a12.25,12.25,0,0,1-9.83,4.25C82.75,239.58,77.24,234.45,77.24,227.27Z"/><path d="M111.78,227.27c0-7.17,5.51-12.3,12.92-12.3a12.28,12.28,0,0,1,9.79,4.21L131,222.45a7.66,7.66,0,0,0-6-2.79,7.62,7.62,0,0,0,0,15.23,7.6,7.6,0,0,0,6-2.82l3.53,3.26a12.23,12.23,0,0,1-9.82,4.25C117.29,239.58,111.78,234.45,111.78,227.27Z"/><path d="M153.36,239.17l-4.59-6.63h-5.06v6.63H138.2v-23.8h10.3c6.36,0,10.33,3.3,10.33,8.64a7.73,7.73,0,0,1-4.89,7.51l5.34,7.65Zm-5.17-19.31h-4.48v8.3h4.48c3.37,0,5.07-1.57,5.07-4.15S151.56,219.86,148.19,219.86Z"/><path d="M181.61,234.75v4.42H163.19v-23.8h18v4.42H168.66V225h11.05v4.28H168.66v5.51Z"/><path d="M201.67,234.07h-11l-2.1,5.1h-5.65l10.61-23.8h5.44l10.64,23.8h-5.78Zm-1.73-4.18-3.77-9.11-3.78,9.11Z"/><path d="M233.7,239.17l0-14.28-7,11.77h-2.48l-7-11.46v14H212v-23.8h4.56l8.91,14.79,8.77-14.79h4.52l.07,23.8Z"/><path d="M252.27,236.83l1.87-4.15a14,14,0,0,0,7.85,2.48c3.26,0,4.59-1.09,4.59-2.55,0-4.45-13.84-1.39-13.84-10.23,0-4,3.27-7.41,10-7.41a16,16,0,0,1,8.26,2.1l-1.7,4.19a13.39,13.39,0,0,0-6.59-1.87c-3.27,0-4.52,1.22-4.52,2.72,0,4.38,13.83,1.36,13.83,10.09,0,4-3.3,7.38-10.09,7.38C258.18,239.58,254.37,238.46,252.27,236.83Z"/><path d="M296.46,224c0,5.3-4,8.6-10.33,8.6h-4.8v6.56h-5.5v-23.8h10.3C292.49,215.37,296.46,218.67,296.46,224Zm-5.57,0c0-2.62-1.7-4.15-5.07-4.15h-4.49v8.26h4.49C289.19,228.12,290.89,226.59,290.89,224Z"/><path d="M318.8,234.75v4.42H300.38v-23.8h18v4.42H305.85V225h11v4.28h-11v5.51Z"/><path d="M341.62,234.75v4.42H323.19v-23.8h18v4.42H328.66V225h11v4.28h-11v5.51Z"/><path d="M346,215.37h10.81c7.79,0,13.13,4.7,13.13,11.9s-5.34,11.9-13.13,11.9H346Zm10.54,19.28c4.73,0,7.82-2.82,7.82-7.38s-3.09-7.37-7.82-7.37h-5v14.75Z"/><path d="M419.68,215.37l-7.79,23.8H406l-5.24-16.11-5.41,16.11h-5.88l-7.82-23.8h5.72l5.37,16.73,5.61-16.73h5.1l5.44,16.87,5.54-16.87Z"/><path d="M444.57,215.37v23.8h-5.51v-9.76H428.25v9.76h-5.51v-23.8h5.51v9.39h10.81v-9.39Z"/><path d="M450.21,215.37h5.51v23.8h-5.51Z"/><path d="M466.29,219.86h-7.61v-4.49h20.74v4.49H471.8v19.31h-5.51Z"/><path d="M500.8,234.75v4.42H482.38v-23.8h18v4.42H487.85V225h11v4.28h-11v5.51Z"/><path d="M512.94,236.83l1.87-4.15a14,14,0,0,0,7.85,2.48c3.27,0,4.59-1.09,4.59-2.55,0-4.45-13.83-1.39-13.83-10.23,0-4,3.26-7.41,10-7.41a16,16,0,0,1,8.26,2.1l-1.7,4.19a13.43,13.43,0,0,0-6.6-1.87c-3.26,0-4.52,1.22-4.52,2.72,0,4.38,13.84,1.36,13.84,10.09,0,4-3.3,7.38-10.1,7.38C518.86,239.58,515.05,238.46,512.94,236.83Z"/><path d="M557.14,224c0,5.3-4,8.6-10.34,8.6H542v6.56H536.5v-23.8h10.3C553.16,215.37,557.14,218.67,557.14,224Zm-5.58,0c0-2.62-1.7-4.15-5.06-4.15H542v8.26h4.49C549.86,228.12,551.56,226.59,551.56,224Z"/><path d="M566.56,219.79v6.29h11v4.42h-11v8.67h-5.51v-23.8h18v4.42Z"/><path d="M598.79,231.69c0,4.22-3.09,7.89-9.89,7.89a16.46,16.46,0,0,1-9.08-2.55l2.17-4.22a11.49,11.49,0,0,0,6.77,2.15c2.75,0,4.45-1.16,4.45-3.1s-1.22-3.09-5.54-3.09h-6.08l1.22-13.4h14.52v4.42H587.4l-.37,4.53H589C596,224.32,598.79,227.48,598.79,231.69Z"/><path d="M601,227.27c0-7.85,4.36-12.3,10.2-12.3s10.2,4.45,10.2,12.3-4.32,12.31-10.2,12.31S601,235.13,601,227.27Zm14.86,0c0-5.4-1.9-7.65-4.66-7.65s-4.62,2.25-4.62,7.65,1.9,7.65,4.62,7.65S615.89,232.68,615.89,227.27Z"/><path d="M641.22,229.35H635.3v5.78h-4.38v-5.78H625V225.2h5.88v-5.78h4.38v5.78h5.92Z"/><path d="M676.38,224c0,5.3-4,8.6-10.34,8.6h-4.79v6.56h-5.51v-23.8H666C672.4,215.37,676.38,218.67,676.38,224Zm-5.58,0c0-2.62-1.7-4.15-5.07-4.15h-4.48v8.26h4.48C669.1,228.12,670.8,226.59,670.8,224Z"/><path d="M694.77,234.07h-11l-2.11,5.1H676l10.61-23.8H692l10.64,23.8h-5.78ZM693,229.89l-3.78-9.11-3.77,9.11Z"/><path d="M719.83,229.35h-5.92v5.78h-4.38v-5.78h-5.89V225.2h5.89v-5.78h4.38v5.78h5.92Z"/><path d="M740.4,229.35h-5.92v5.78H730.1v-5.78h-5.89V225.2h5.89v-5.78h4.38v5.78h5.92Z"/><path d="M761,229.35h-5.92v5.78h-4.38v-5.78h-5.89V225.2h5.89v-5.78h4.38v5.78H761Z"/><path d="M53.32,301.87h8.39v2H53.32Z"/><path d="M73.67,300.33c0-6.56,5-11.39,11.75-11.39a10.88,10.88,0,0,1,8.19,3.26l-1.51,1.51a8.85,8.85,0,0,0-6.62-2.66,9.28,9.28,0,1,0,0,18.56,8.77,8.77,0,0,0,6.62-2.69l1.51,1.51a10.93,10.93,0,0,1-8.23,3.29C78.67,311.72,73.67,306.89,73.67,300.33Z"/><path d="M113.67,301.77v9.76H111.4V302c0-3.55-1.86-5.37-5.06-5.37-3.61,0-5.88,2.24-5.88,6.08v8.83H98.19V287.79h2.27v9.85a7.11,7.11,0,0,1,6.3-3.07C110.86,294.57,113.67,296.94,113.67,301.77Z"/><path d="M132.55,301.1v10.43h-2.17v-2.62c-1,1.72-3,2.78-5.8,2.78-3.8,0-6.14-2-6.14-4.9,0-2.59,1.66-4.76,6.5-4.76h5.34v-1c0-2.88-1.63-4.45-4.77-4.45a8.58,8.58,0,0,0-5.6,2l-1-1.7a10.67,10.67,0,0,1,6.85-2.27C130.09,294.57,132.55,296.75,132.55,301.1Zm-9.85-9h-2.18l4.16-3h2.24l4.16,3H128.9l-3.1-1.89Zm7.58,14.36v-2.75H125c-3.26,0-4.32,1.28-4.32,3,0,1.95,1.57,3.17,4.26,3.17A5.39,5.39,0,0,0,130.28,306.47Zm.45-17.05h-2l3.87-3.49h2.76Z"/><path d="M147.59,310.5a5.35,5.35,0,0,1-3.55,1.19c-3.17,0-4.93-1.79-4.93-4.9V296.62h-3V294.7h3V291h2.27v3.68h5.12v1.92h-5.12v10.05c0,2,1,3.07,2.92,3.07a3.74,3.74,0,0,0,2.49-.87Z"/><path d="M166.34,303.08l-4,3.65v4.8H160.1V287.79h2.28v16.09l10-9.18h2.82l-7.2,6.88,7.87,9.95h-2.78Z"/><path d="M193.32,303.82H179.24c.26,3.52,2.94,5.85,6.62,5.85a6.65,6.65,0,0,0,5.16-2.2l1.28,1.47a8.3,8.3,0,0,1-6.5,2.75c-5.25,0-8.83-3.58-8.83-8.58s3.49-8.54,8.22-8.54,8.16,3.49,8.16,8.54C193.35,303.31,193.32,303.56,193.32,303.82Zm-14.08-1.7h11.94a6,6,0,0,0-11.94,0Z"/><path d="M225.77,301.77v9.76h-2.28V302c0-3.55-1.79-5.37-4.83-5.37-3.45,0-5.63,2.24-5.63,6.08v8.83h-2.27V302c0-3.55-1.79-5.37-4.86-5.37-3.43,0-5.64,2.24-5.64,6.08v8.83H198V294.7h2.18v3.07a6.79,6.79,0,0,1,6.17-3.2c2.79,0,5,1.18,6,3.55a7.32,7.32,0,0,1,6.65-3.55C223.08,294.57,225.77,296.94,225.77,301.77Z"/><path d="M268.1,301.77v9.76h-2.27V302c0-3.55-1.79-5.37-4.83-5.37-3.46,0-5.63,2.24-5.63,6.08v8.83h-2.28V302c0-3.55-1.79-5.37-4.86-5.37-3.42,0-5.63,2.24-5.63,6.08v8.83h-2.27V294.7h2.17v3.07a6.81,6.81,0,0,1,6.18-3.2c2.78,0,5,1.18,6,3.55a7.35,7.35,0,0,1,6.66-3.55C265.41,294.57,268.1,296.94,268.1,301.77Z"/><path d="M272.65,303.11a8.56,8.56,0,1,1,8.57,8.58A8.27,8.27,0,0,1,272.65,303.11Zm14.81,0c0-3.93-2.65-6.56-6.24-6.56s-6.27,2.63-6.27,6.56,2.69,6.56,6.27,6.56S287.46,307.05,287.46,303.11Zm-6.65-11.77c1.28-.58,1.88-1.31,1.88-2.27a1.62,1.62,0,0,0-1.76-1.57,3.38,3.38,0,0,0-1.92.61l-.54-1.12a4.47,4.47,0,0,1,2.66-.83,2.74,2.74,0,0,1,3,2.75c0,1.5-.84,2.62-2.56,3.42Z"/><path d="M309.89,301.77v9.76h-2.27V302c0-3.55-1.85-5.37-5.05-5.37-3.62,0-5.89,2.24-5.89,6.08v8.83h-2.27V294.7h2.17v3.1a7.07,7.07,0,0,1,6.4-3.23C307.08,294.57,309.89,296.94,309.89,301.77Z"/><path d="M331.72,294.7v14.78c0,5.79-2.85,8.42-8.42,8.42-3.07,0-6.08-.93-7.84-2.6l1.15-1.72a10,10,0,0,0,6.63,2.3c4.25,0,6.21-1.95,6.21-6.11v-2.14a7.59,7.59,0,0,1-6.56,3.26c-4.8,0-8.45-3.36-8.45-8.19s3.65-8.13,8.45-8.13a7.59,7.59,0,0,1,6.65,3.36V294.7Zm-2.21,8c0-3.65-2.69-6.15-6.4-6.15a6.16,6.16,0,1,0,6.4,6.15Z"/><path d="M362,301.77v9.76h-2.27V302c0-3.55-1.86-5.37-5.06-5.37-3.62,0-5.89,2.24-5.89,6.08v8.83h-2.27V294.7h2.18v3.1a7.05,7.05,0,0,1,6.4-3.23C359.14,294.57,362,296.94,362,301.77Z"/><path d="M383.62,301.77v9.76h-2.27V302c0-3.55-1.86-5.37-5.06-5.37-3.61,0-5.88,2.24-5.88,6.08v8.83h-2.28V287.79h2.28v9.85a7.1,7.1,0,0,1,6.3-3.07C380.8,294.57,383.62,296.94,383.62,301.77Z"/><path d="M404.52,303.82H390.44c.25,3.52,2.94,5.85,6.62,5.85a6.63,6.63,0,0,0,5.15-2.2l1.28,1.47a8.28,8.28,0,0,1-6.49,2.75c-5.25,0-8.83-3.58-8.83-8.58s3.48-8.54,8.22-8.54,8.16,3.49,8.16,8.54C404.55,303.31,404.52,303.56,404.52,303.82Zm-14.08-1.7h11.93a6,6,0,0,0-11.93,0Zm7.32,14.11a1.38,1.38,0,1,1-1.37-1.37A1.34,1.34,0,0,1,397.76,316.23Z"/><path d="M431.72,294.7l-7.49,16.83h-2.34l-7.45-16.83h2.36L423.11,309l6.37-14.33Z"/><path d="M449.86,303.11a8.56,8.56,0,1,1-8.54-8.54c1.72,0,2.43.19,4,.19,1.8,0,2.6-1.05,2.6-2.24a3.92,3.92,0,0,0-.64-2l1.47-.57a5,5,0,0,1,.86,2.69,3.56,3.56,0,0,1-3.07,3.61A8.3,8.3,0,0,1,449.86,303.11Zm-2.3,0c0-3.93-2.66-6.56-6.24-6.56s-6.28,2.63-6.28,6.56,2.69,6.56,6.28,6.56S447.56,307.05,447.56,303.11Zm-6.08-11h-2.24l4.38-4h3Z"/><path d="M454,289.39a1.63,1.63,0,0,1,1.66-1.6,1.61,1.61,0,0,1,1.67,1.56,1.67,1.67,0,0,1-3.33,0Zm.51,5.31h2.27v16.83H454.5Z"/><path d="M490,292.11h-3.17v19.42h-2.18V308.2a7.28,7.28,0,0,1-6.49,3.49,8.56,8.56,0,0,1,0-17.12,7.34,7.34,0,0,1,6.4,3.33v-5.79h-7v-1.67h7v-2.65h2.27v2.65H490Zm-5.41,11c0-3.93-2.69-6.56-6.24-6.56s-6.27,2.63-6.27,6.56,2.69,6.56,6.27,6.56S484.61,307.05,484.61,303.11Z"/><path d="M508.61,303.11a8.56,8.56,0,1,1-8.54-8.54A8.27,8.27,0,0,1,508.61,303.11Zm-2.3,0c0-3.93-2.66-6.56-6.24-6.56s-6.27,2.63-6.27,6.56,2.68,6.56,6.27,6.56S506.31,307.05,506.31,303.11Zm-9.44-11h-2.11l4.12-4h2.31l4.12,4H503.2L500,289.45Zm4.54,24.12a1.38,1.38,0,1,1-1.37-1.37A1.35,1.35,0,0,1,501.41,316.23Z"/><path d="M519.94,303.11a8.28,8.28,0,0,1,8.67-8.54,7.34,7.34,0,0,1,6.59,3.33l-1.69,1.15a5.74,5.74,0,0,0-4.9-2.5,6.56,6.56,0,0,0,0,13.12,5.7,5.7,0,0,0,4.9-2.46l1.69,1.15a7.4,7.4,0,0,1-6.59,3.33A8.31,8.31,0,0,1,519.94,303.11Z"/><path d="M554.88,301.77v9.76h-2.27V302c0-3.55-1.86-5.37-5.06-5.37-3.61,0-5.88,2.24-5.88,6.08v8.83H539.4V287.79h2.27v9.85a7.11,7.11,0,0,1,6.3-3.07C552.07,294.57,554.88,296.94,554.88,301.77Z"/><path d="M575.78,303.82H561.7c.26,3.52,2.94,5.85,6.62,5.85a6.63,6.63,0,0,0,5.15-2.2l1.28,1.47a8.28,8.28,0,0,1-6.49,2.75c-5.25,0-8.83-3.58-8.83-8.58s3.49-8.54,8.22-8.54,8.16,3.49,8.16,8.54C575.81,303.31,575.78,303.56,575.78,303.82Zm-14.08-1.7h11.93a6,6,0,0,0-11.93,0Z"/><path d="M605.89,303.11c0,5.12-3.58,8.58-8.38,8.58a7.33,7.33,0,0,1-6.4-3.33v9.38h-2.28v-23H591V298a7.34,7.34,0,0,1,6.5-3.46A8.14,8.14,0,0,1,605.89,303.11Zm-2.27,0a6.28,6.28,0,1,0-12.55,0c0,3.94,2.69,6.56,6.28,6.56A6.18,6.18,0,0,0,603.62,303.11Z"/><path d="M626,301.77v9.76h-2.27V302c0-3.55-1.86-5.37-5.06-5.37-3.62,0-5.89,2.24-5.89,6.08v8.83h-2.27V287.79h2.27v9.85a7.13,7.13,0,0,1,6.31-3.07C623.2,294.57,626,296.94,626,301.77Z"/><path d="M647.36,294.7v16.83h-2.18v-3.07a6.69,6.69,0,0,1-6,3.23c-4.29,0-7.11-2.4-7.11-7.23V294.7h2.28v9.53c0,3.59,1.85,5.41,5.05,5.41,3.52,0,5.73-2.27,5.73-6.11V294.7Zm-9.82-6.59L637,287a4.49,4.49,0,0,1,2.66-.83,2.74,2.74,0,0,1,3,2.75c0,1.5-.83,2.62-2.56,3.42l-.8-1c1.28-.58,1.89-1.31,1.89-2.27a1.62,1.62,0,0,0-1.76-1.57A3.38,3.38,0,0,0,637.54,288.11Z"/><path d="M671,310.5a5.38,5.38,0,0,1-3.56,1.19c-3.16,0-4.92-1.79-4.92-4.9V296.62h-3V294.7h3V291h2.27v3.68h5.12v1.92h-5.12v10.05c0,2,1,3.07,2.91,3.07a3.75,3.75,0,0,0,2.5-.87Z"/><path d="M689.92,303.11a8.56,8.56,0,1,1-8.54-8.54A8.28,8.28,0,0,1,689.92,303.11Zm-2.3,0c0-3.93-2.66-6.56-6.24-6.56s-6.28,2.63-6.28,6.56,2.69,6.56,6.28,6.56S687.62,307.05,687.62,303.11Zm-9.38-11h-2.18l4.16-3h2.24l4.16,3h-2.17l-3.11-1.89Zm8-2.69h-2l3.87-3.49h2.75Z"/><path d="M703.42,310.5a5.35,5.35,0,0,1-3.55,1.19c-3.17,0-4.93-1.79-4.93-4.9V296.62h-3V294.7h3V291h2.28v3.68h5.12v1.92h-5.12v10.05c0,2,1,3.07,2.91,3.07a3.72,3.72,0,0,0,2.49-.87Z"/><path d="M706.4,309.93a1.7,1.7,0,0,1,1.7-1.73,1.72,1.72,0,0,1,1.72,1.73,1.75,1.75,0,0,1-1.72,1.76A1.73,1.73,0,0,1,706.4,309.93Z"/><path d="M53.32,347.87h8.39v2H53.32Z"/><path d="M75.66,335.13H78v20.35H90.57v2H75.66Z"/><path d="M106.79,347.1v10.43h-2.17v-2.62c-1,1.72-3,2.78-5.8,2.78-3.8,0-6.14-2-6.14-4.9,0-2.59,1.67-4.76,6.5-4.76h5.34v-1c0-2.88-1.63-4.44-4.77-4.44a8.57,8.57,0,0,0-5.6,2l-1-1.7a10.69,10.69,0,0,1,6.85-2.27C104.33,340.57,106.79,342.75,106.79,347.1Zm-6.91-9-5.18-4h3l4.38,4Zm4.64,14.36v-2.75H99.24c-3.26,0-4.32,1.28-4.32,3,0,1.95,1.57,3.17,4.26,3.17A5.39,5.39,0,0,0,104.52,352.47Z"/><path d="M140.74,347.77v9.76h-2.27V348c0-3.55-1.79-5.37-4.83-5.37-3.46,0-5.63,2.24-5.63,6.08v8.83h-2.27V348c0-3.55-1.8-5.37-4.87-5.37-3.42,0-5.63,2.24-5.63,6.08v8.83H113V340.7h2.18v3.07a6.8,6.8,0,0,1,6.17-3.2c2.78,0,5,1.19,6,3.55a7.35,7.35,0,0,1,6.66-3.55C138.06,340.57,140.74,342.94,140.74,347.77Z"/><path d="M164.17,356.51a5.41,5.41,0,0,1-3.55,1.18c-3.17,0-4.93-1.79-4.93-4.9V342.62h-3V340.7h3V337H158v3.68h5.12v1.92H158v10.05c0,2,1,3.07,2.91,3.07a3.75,3.75,0,0,0,2.5-.87Z"/><path d="M176.78,340.57v2.21c-.2,0-.39,0-.55,0-3.52,0-5.66,2.24-5.66,6.2v8.58H168.3V340.7h2.17V344C171.53,341.76,173.67,340.57,176.78,340.57Z"/><path d="M193.54,347.1v10.43h-2.17v-2.62c-1,1.72-3,2.78-5.79,2.78-3.81,0-6.15-2-6.15-4.9,0-2.59,1.67-4.76,6.5-4.76h5.34v-1c0-2.88-1.63-4.44-4.77-4.44a8.57,8.57,0,0,0-5.6,2l-1-1.7a10.69,10.69,0,0,1,6.85-2.27C191.08,340.57,193.54,342.75,193.54,347.1Zm-2.27,5.37v-2.75H186c-3.26,0-4.32,1.28-4.32,3,0,1.95,1.57,3.17,4.26,3.17A5.38,5.38,0,0,0,191.27,352.47Zm-9.34-17.37h1.57c.19,1.15,1.5,1.82,3.29,1.82s3.11-.67,3.3-1.82h1.57c-.26,2-2.21,3.17-4.87,3.17S182.18,337.08,181.93,335.1Zm4.93-.61h-2l3.87-3.49h2.75Z"/><path d="M215.21,347.77v9.76h-2.27V348c0-3.55-1.86-5.37-5.06-5.37-3.62,0-5.89,2.24-5.89,6.08v8.83h-2.27V340.7h2.18v3.1a7.07,7.07,0,0,1,6.4-3.23C212.39,340.57,215.21,342.94,215.21,347.77Z"/><path d="M237,340.7v14.78c0,5.79-2.85,8.42-8.41,8.42-3.08,0-6.08-.93-7.84-2.59l1.15-1.73a10,10,0,0,0,6.62,2.3c4.26,0,6.21-1.95,6.21-6.11v-2.14a7.59,7.59,0,0,1-6.56,3.26c-4.8,0-8.45-3.36-8.45-8.19s3.65-8.13,8.45-8.13a7.58,7.58,0,0,1,6.65,3.36V340.7Zm-2.21,8c0-3.65-2.69-6.14-6.4-6.14a6.16,6.16,0,1,0,6.4,6.14Z"/><path d="M265.93,340.7l-7.49,16.83H256.1l-7.45-16.83H251l6.3,14.33,6.37-14.33Z"/><path d="M281.32,347.1v10.43h-2.18v-2.62c-1,1.72-3,2.78-5.79,2.78-3.81,0-6.14-2-6.14-4.9,0-2.59,1.66-4.76,6.49-4.76h5.35v-1c0-2.88-1.64-4.44-4.77-4.44a8.53,8.53,0,0,0-5.6,2l-1-1.7a10.66,10.66,0,0,1,6.84-2.27C278.85,340.57,281.32,342.75,281.32,347.1Zm-6.91-9-5.19-4h3l4.39,4Zm4.64,14.36v-2.75h-5.28c-3.27,0-4.32,1.28-4.32,3,0,1.95,1.56,3.17,4.25,3.17A5.4,5.4,0,0,0,279.05,352.47Z"/><path d="M311.37,347.77v9.76h-2.28V348c0-3.55-1.85-5.37-5-5.37-3.62,0-5.89,2.24-5.89,6.08v8.83h-2.27V340.7h2.17v3.1a7.1,7.1,0,0,1,6.4-3.23C308.55,340.57,311.37,342.94,311.37,347.77Z"/><path d="M330.25,347.1v10.43h-2.18v-2.62c-1,1.72-3,2.78-5.79,2.78-3.81,0-6.15-2-6.15-4.9,0-2.59,1.67-4.76,6.5-4.76H328v-1c0-2.88-1.63-4.44-4.76-4.44a8.53,8.53,0,0,0-5.6,2l-1-1.7a10.69,10.69,0,0,1,6.85-2.27C327.78,340.57,330.25,342.75,330.25,347.1Zm-9.92-9h-2.12l4.13-4h2.31l4.12,4h-2.11l-3.17-2.66ZM328,352.47v-2.75h-5.28c-3.26,0-4.32,1.28-4.32,3,0,1.95,1.57,3.17,4.26,3.17A5.38,5.38,0,0,0,328,352.47Z"/><path d="M351.91,347.77v9.76h-2.27V348c0-3.55-1.86-5.37-5.06-5.37-3.61,0-5.89,2.24-5.89,6.08v8.83h-2.27V340.7h2.18v3.1a7.08,7.08,0,0,1,6.4-3.23C349.09,340.57,351.91,342.94,351.91,347.77Z"/><path d="M373.73,340.7v14.78c0,5.79-2.85,8.42-8.41,8.42-3.07,0-6.08-.93-7.84-2.59l1.15-1.73a10,10,0,0,0,6.62,2.3c4.26,0,6.21-1.95,6.21-6.11v-2.14a7.59,7.59,0,0,1-6.56,3.26c-4.8,0-8.45-3.36-8.45-8.19s3.65-8.13,8.45-8.13a7.6,7.6,0,0,1,6.66,3.36V340.7Zm-2.21,8c0-3.65-2.68-6.14-6.4-6.14a6.16,6.16,0,1,0,6.4,6.14Z"/><path d="M397.35,356.51a5.41,5.41,0,0,1-3.55,1.18c-3.17,0-4.93-1.79-4.93-4.9V342.62h-3V340.7h3V337h2.27v3.68h5.12v1.92h-5.12v10.05c0,2,1,3.07,2.91,3.07a3.75,3.75,0,0,0,2.5-.87Z"/><path d="M399.17,349.12a8.56,8.56,0,1,1,8.58,8.57A8.28,8.28,0,0,1,399.17,349.12Zm14.82,0c0-3.94-2.66-6.56-6.24-6.56s-6.27,2.62-6.27,6.56,2.69,6.55,6.27,6.55S414,353.05,414,349.12Z"/><path d="M436.42,347.77v9.76h-2.27V348c0-3.55-1.86-5.37-5.06-5.37-3.61,0-5.88,2.24-5.88,6.08v8.83h-2.28V340.7h2.18v3.1a7.08,7.08,0,0,1,6.4-3.23C433.6,340.57,436.42,342.94,436.42,347.77Z"/><path d="M457.32,349.82H443.24c.25,3.52,2.94,5.85,6.62,5.85a6.63,6.63,0,0,0,5.15-2.2l1.28,1.47a8.28,8.28,0,0,1-6.49,2.75c-5.25,0-8.84-3.58-8.84-8.57s3.49-8.55,8.23-8.55,8.16,3.49,8.16,8.55C457.35,349.31,457.32,349.56,457.32,349.82Zm-14.08-1.7h11.93a6,6,0,0,0-11.93,0Z"/><path d="M479.24,356.51a5.42,5.42,0,0,1-3.56,1.18c-3.16,0-4.92-1.79-4.92-4.9V342.62h-3V340.7h3V337H473v3.68h5.12v1.92H473v10.05c0,2,1,3.07,2.91,3.07a3.75,3.75,0,0,0,2.5-.87Z"/><path d="M498.53,342.33v15.2h-2.18v-3.07a6.67,6.67,0,0,1-6,3.23c-4.29,0-7.11-2.4-7.11-7.23V340.7h2.28v9.53c0,3.59,1.85,5.41,5,5.41,3.52,0,5.73-2.27,5.73-6.11V340.7h1.18a2,2,0,0,0,2.11-2.14,3.5,3.5,0,0,0-.64-2.05l1.51-.58a4.67,4.67,0,0,1,.83,2.69A3.44,3.44,0,0,1,498.53,342.33Zm-6.27,19.9a1.38,1.38,0,1,1-1.38-1.37A1.35,1.35,0,0,1,492.26,362.23Z"/><path d="M529,347.77v9.76h-2.27V348c0-3.55-1.86-5.37-5.06-5.37-3.61,0-5.88,2.24-5.88,6.08v8.83h-2.28V340.7h2.18v3.1a7.1,7.1,0,0,1,6.4-3.23C526.15,340.57,529,342.94,529,347.77Z"/><path d="M550.62,347.77v9.76h-2.27V348c0-3.55-1.85-5.37-5.05-5.37-3.62,0-5.89,2.24-5.89,6.08v8.83h-2.27V333.79h2.27v9.85a7.12,7.12,0,0,1,6.3-3.07C547.81,340.57,550.62,342.94,550.62,347.77Z"/><path d="M556.29,335.39a1.64,1.64,0,0,1,1.66-1.6,1.62,1.62,0,0,1,1.67,1.57,1.67,1.67,0,0,1-3.33,0Zm.51,5.31h2.27v16.83H556.8Z"/><path d="M580.06,349.82H566c.25,3.52,2.94,5.85,6.62,5.85a6.63,6.63,0,0,0,5.15-2.2l1.28,1.47a8.28,8.28,0,0,1-6.49,2.75c-5.25,0-8.84-3.58-8.84-8.57s3.49-8.55,8.23-8.55,8.16,3.49,8.16,8.55C580.1,349.31,580.06,349.56,580.06,349.82ZM566,348.12h11.93a6,6,0,0,0-11.93,0Zm2.78-10h-2.11l4.13-4h2.3l4.13,4h-2.11l-3.17-2.66Z"/><path d="M600.22,347.77v9.76H598V348c0-3.55-1.85-5.37-5.05-5.37-3.62,0-5.89,2.24-5.89,6.08v8.83h-2.27V340.7h2.17v3.1a7.1,7.1,0,0,1,6.4-3.23C597.41,340.57,600.22,342.94,600.22,347.77Z"/><path d="M604.93,355.93a1.7,1.7,0,0,1,1.69-1.73,1.72,1.72,0,0,1,1.73,1.73,1.75,1.75,0,0,1-1.73,1.76A1.72,1.72,0,0,1,604.93,355.93Z"/><path d="M53.32,393.87h8.39v2H53.32Z"/><path d="M80,383.18H72.14v-2.05H90.25v2.05H82.38v20.35H80Z"/><path d="M96.55,380.14h3l-5.18,4H92.17ZM93.1,386.7h2.27v16.83H93.1Z"/><path d="M100,395.12a8.29,8.29,0,0,1,8.67-8.55,7.34,7.34,0,0,1,6.59,3.33l-1.69,1.15a5.75,5.75,0,0,0-4.9-2.49,6.56,6.56,0,0,0,0,13.11,5.7,5.7,0,0,0,4.9-2.46l1.69,1.15a7.4,7.4,0,0,1-6.59,3.33A8.31,8.31,0,0,1,100,395.12Z"/><path d="M135,393.77v9.76h-2.27V394c0-3.55-1.86-5.37-5.06-5.37-3.61,0-5.88,2.24-5.88,6.08v8.83h-2.28V379.79h2.28v9.85a7.1,7.1,0,0,1,6.3-3.07C132.14,386.57,135,388.94,135,393.77Z"/><path d="M165,393.77v9.76h-2.27V394c0-3.55-1.86-5.37-5.06-5.37-3.61,0-5.89,2.24-5.89,6.08v8.83h-2.27V379.79h2.27v9.85a7.13,7.13,0,0,1,6.31-3.07C162.18,386.57,165,388.94,165,393.77Z"/><path d="M186.66,395.12a8.56,8.56,0,1,1-8.54-8.55c1.73,0,2.43.19,4,.19,1.79,0,2.59-1.05,2.59-2.24a3.85,3.85,0,0,0-.64-2l1.47-.58a5.09,5.09,0,0,1,.87,2.69,3.56,3.56,0,0,1-3.08,3.61A8.31,8.31,0,0,1,186.66,395.12Zm-2.3,0c0-3.94-2.66-6.56-6.24-6.56s-6.27,2.62-6.27,6.56,2.69,6.55,6.27,6.55S184.36,399.05,184.36,395.12Zm-4.86,13.11a1.38,1.38,0,1,1-1.38-1.37A1.35,1.35,0,0,1,179.5,408.23Z"/><path d="M208.36,395.12a8.15,8.15,0,0,1-8.38,8.57,7.33,7.33,0,0,1-6.4-3.33v9.38H191.3v-23h2.18V390a7.34,7.34,0,0,1,6.5-3.46A8.15,8.15,0,0,1,208.36,395.12Zm-2.27,0a6.28,6.28,0,1,0-6.27,6.55A6.19,6.19,0,0,0,206.09,395.12Z"/><path d="M219.69,395.12a8.29,8.29,0,0,1,8.67-8.55A7.34,7.34,0,0,1,235,389.9l-1.7,1.15a5.72,5.72,0,0,0-4.89-2.49,6.56,6.56,0,0,0,0,13.11,5.67,5.67,0,0,0,4.89-2.46l1.7,1.15a7.4,7.4,0,0,1-6.59,3.33A8.31,8.31,0,0,1,219.69,395.12Z"/><path d="M254.63,393.77v9.76h-2.27V394c0-3.55-1.86-5.37-5.06-5.37-3.61,0-5.88,2.24-5.88,6.08v8.83h-2.28V379.79h2.28v9.85a7.1,7.1,0,0,1,6.3-3.07C251.81,386.57,254.63,388.94,254.63,393.77Z"/><path d="M261.58,383.34c1.27-.58,1.88-1.31,1.88-2.27a1.62,1.62,0,0,0-1.76-1.57,3.38,3.38,0,0,0-1.92.61l-.54-1.12a4.46,4.46,0,0,1,2.65-.83,2.73,2.73,0,0,1,3,2.75c0,1.5-.83,2.62-2.55,3.42Zm-.77,3.36h2.27v16.83h-2.27Z"/><path d="M275.46,401.61l1-1.79a10.18,10.18,0,0,0,6,1.89c3.2,0,4.51-1.09,4.51-2.76,0-4.38-10.91-.92-10.91-7.58,0-2.75,2.37-4.8,6.66-4.8a11.42,11.42,0,0,1,5.95,1.57l-1,1.82a8.69,8.69,0,0,0-5-1.44c-3,0-4.39,1.19-4.39,2.79,0,4.54,10.91,1.12,10.91,7.58,0,2.91-2.56,4.8-6.94,4.8A11.3,11.3,0,0,1,275.46,401.61Z"/><path d="M308.87,395.12a8.56,8.56,0,1,1-8.54-8.55A8.28,8.28,0,0,1,308.87,395.12Zm-2.3,0c0-3.94-2.66-6.56-6.24-6.56s-6.28,2.62-6.28,6.56a6.16,6.16,0,0,0,6.28,6.55C303.91,401.67,306.57,399.05,306.57,395.12Zm-9.38-11H295l4.16-3h2.24l4.16,3H303.4l-3.11-1.89Zm8-2.69h-2l3.87-3.49h2.75Z"/><path d="M320.2,395.12a8.29,8.29,0,0,1,8.67-8.55,7.34,7.34,0,0,1,6.59,3.33l-1.69,1.15a5.75,5.75,0,0,0-4.9-2.49,6.56,6.56,0,0,0,0,13.11,5.7,5.7,0,0,0,4.9-2.46l1.69,1.15a7.4,7.4,0,0,1-6.59,3.33A8.31,8.31,0,0,1,320.2,395.12Z"/><path d="M355.14,393.77v9.76h-2.27V394c0-3.55-1.86-5.37-5.06-5.37-3.61,0-5.88,2.24-5.88,6.08v8.83h-2.28V379.79h2.28v9.85a7.1,7.1,0,0,1,6.3-3.07C352.33,386.57,355.14,388.94,355.14,393.77Z"/><path d="M376.8,395.12a8.56,8.56,0,1,1-8.54-8.55A8.27,8.27,0,0,1,376.8,395.12Zm-2.3,0c0-3.94-2.66-6.56-6.24-6.56s-6.27,2.62-6.27,6.56,2.69,6.55,6.27,6.55S374.5,399.05,374.5,395.12Zm-9.37-11H363l4.16-3h2.24l4.16,3h-2.18l-3.1-1.89Zm8-2.69h-2l3.87-3.49h2.75Z"/><path d="M396.93,393.77v9.76h-2.27V394c0-3.55-1.86-5.37-5.06-5.37-3.61,0-5.88,2.24-5.88,6.08v8.83h-2.27V386.7h2.17v3.1a7.1,7.1,0,0,1,6.4-3.23C394.12,386.57,396.93,388.94,396.93,393.77Z"/><path d="M418.76,386.7v14.78c0,5.79-2.85,8.42-8.42,8.42-3.07,0-6.08-.93-7.84-2.59l1.15-1.73a10,10,0,0,0,6.63,2.3c4.25,0,6.2-1.95,6.2-6.11v-2.14a7.56,7.56,0,0,1-6.56,3.26c-4.8,0-8.44-3.36-8.44-8.19s3.64-8.13,8.44-8.13a7.6,7.6,0,0,1,6.66,3.36V386.7Zm-2.21,8c0-3.65-2.69-6.14-6.4-6.14s-6.37,2.49-6.37,6.14a6.39,6.39,0,0,0,12.77,0Z"/><path d="M449,393.77v9.76h-2.28V394c0-3.55-1.85-5.37-5.05-5.37-3.62,0-5.89,2.24-5.89,6.08v8.83h-2.27V386.7h2.17v3.1a7.1,7.1,0,0,1,6.4-3.23C446.18,386.57,449,388.94,449,393.77Z"/><path d="M467.88,393.1v10.43H465.7v-2.62c-1,1.72-3,2.78-5.79,2.78-3.81,0-6.15-2-6.15-4.9,0-2.59,1.67-4.76,6.5-4.76h5.34v-1c0-2.88-1.63-4.44-4.76-4.44a8.53,8.53,0,0,0-5.6,2l-1-1.7a10.69,10.69,0,0,1,6.85-2.27C465.41,386.57,467.88,388.75,467.88,393.1Zm-2.28,5.37v-2.75h-5.28c-3.26,0-4.32,1.28-4.32,3,0,1.95,1.57,3.17,4.26,3.17A5.38,5.38,0,0,0,465.6,398.47Zm-9.34-17.37h1.57c.19,1.15,1.5,1.82,3.29,1.82s3.11-.67,3.3-1.82H466c-.26,2-2.21,3.17-4.87,3.17S456.52,383.08,456.26,381.1Zm4.93-.61h-2L463,377h2.76Z"/><path d="M489.54,393.77v9.76h-2.27V394c0-3.55-1.86-5.37-5.06-5.37-3.61,0-5.89,2.24-5.89,6.08v8.83h-2.27V386.7h2.18v3.1a7.08,7.08,0,0,1,6.4-3.23C486.72,386.57,489.54,388.94,489.54,393.77Z"/><path d="M511.36,386.7v14.78c0,5.79-2.85,8.42-8.41,8.42-3.07,0-6.08-.93-7.84-2.59l1.15-1.73a10,10,0,0,0,6.62,2.3c4.26,0,6.21-1.95,6.21-6.11v-2.14a7.59,7.59,0,0,1-6.56,3.26c-4.8,0-8.45-3.36-8.45-8.19s3.65-8.13,8.45-8.13a7.6,7.6,0,0,1,6.66,3.36V386.7Zm-2.21,8c0-3.65-2.68-6.14-6.4-6.14a6.16,6.16,0,1,0,6.4,6.14Z"/><path d="M524.45,400.81l.93-1.82a11,11,0,0,0,7.39,2.72c4.19,0,6-1.76,6-4,0-6.15-13.79-2.37-13.79-10.66,0-3.29,2.55-6.14,8.25-6.14a12.69,12.69,0,0,1,6.94,2l-.8,1.89a11.5,11.5,0,0,0-6.14-1.85c-4.1,0-5.92,1.82-5.92,4.06,0,6.14,13.79,2.43,13.79,10.59,0,3.3-2.62,6.11-8.35,6.11C529.41,403.72,526.12,402.54,524.45,400.81Z"/><path d="M563.81,388.81c0,4.77-3.46,7.65-9.15,7.65h-6v7.07h-2.37v-22.4h8.39C560.35,381.13,563.81,384,563.81,388.81Zm-2.37,0c0-3.58-2.37-5.63-6.85-5.63h-6v11.2h6C559.07,394.38,561.44,392.33,561.44,388.81Z"/><path d="M571.3,383.18V392h11.58v2H571.3v9.5h-2.37v-22.4h15.36v2.05Z"/><path d="M601.83,396.94c0,3.81-2.66,6.78-8.13,6.78a11.55,11.55,0,0,1-8-2.88l1.12-1.82a9.72,9.72,0,0,0,6.88,2.59c3.8,0,5.82-1.86,5.82-4.57,0-2.88-1.79-4.68-7.49-4.68h-4.77l1.16-11.23h12.25v2.05H590.4l-.77,7.14h2.88C599.27,390.32,601.83,393,601.83,396.94Z"/><path d="M604.74,392.33c0-7.13,3.74-11.39,8.93-11.39s9,4.26,9,11.39-3.77,11.39-9,11.39S604.74,399.47,604.74,392.33Zm15.52,0c0-6-2.69-9.28-6.59-9.28s-6.6,3.3-6.6,9.28,2.69,9.28,6.6,9.28S620.26,398.31,620.26,392.33Z"/><path d="M640.67,393.29h-5.95v5.82h-2v-5.82h-6V391.4h6v-5.85h2v5.85h5.95Z"/><path d="M672.48,388.81c0,4.77-3.46,7.65-9.15,7.65h-6v7.07H655v-22.4h8.38C669,381.13,672.48,384,672.48,388.81Zm-2.37,0c0-3.58-2.37-5.63-6.85-5.63h-6v11.2h6C667.74,394.38,670.11,392.33,670.11,388.81Z"/><path d="M690.53,397.55H678.05l-2.69,6H672.9l10.24-22.4h2.33l10.24,22.4h-2.49Zm-.87-1.92-5.37-12-5.38,12Z"/><path d="M711.46,393.29h-6v5.82h-2v-5.82h-6V391.4h6v-5.85h2v5.85h6Z"/><path d="M729.92,393.29H724v5.82h-2v-5.82h-6V391.4h6v-5.85h2v5.85h5.95Z"/><path d="M748.38,393.29h-6v5.82h-2v-5.82h-6V391.4h6v-5.85h2v5.85h6Z"/><path d="M779.23,395.12a8.17,8.17,0,0,1-8.38,8.57,7.3,7.3,0,0,1-6.5-3.49v3.33h-2.17V379.79h2.27V389.9a7.34,7.34,0,0,1,6.4-3.33A8.14,8.14,0,0,1,779.23,395.12Zm-2.27,0a6.18,6.18,0,0,0-6.27-6.56c-3.59,0-6.27,2.62-6.27,6.56s2.68,6.55,6.27,6.55A6.18,6.18,0,0,0,777,395.12Z"/><path d="M796.48,393.1v10.43H794.3v-2.62c-1,1.72-3,2.78-5.79,2.78-3.81,0-6.14-2-6.14-4.9,0-2.59,1.66-4.76,6.49-4.76h5.35v-1c0-2.88-1.63-4.44-4.77-4.44a8.55,8.55,0,0,0-5.6,2l-1-1.7a10.66,10.66,0,0,1,6.84-2.27C794,386.57,796.48,388.75,796.48,393.1Zm-2.27,5.37v-2.75h-5.28c-3.27,0-4.32,1.28-4.32,3,0,1.95,1.57,3.17,4.25,3.17A5.4,5.4,0,0,0,794.21,398.47Zm-6.66-18.36L787,379a4.46,4.46,0,0,1,2.65-.83,2.73,2.73,0,0,1,3,2.75c0,1.5-.83,2.62-2.56,3.42l-.8-1c1.28-.58,1.89-1.31,1.89-2.27a1.62,1.62,0,0,0-1.76-1.57A3.38,3.38,0,0,0,787.55,380.11Z"/><path d="M801,395.12a8.56,8.56,0,1,1,8.58,8.57A8.28,8.28,0,0,1,801,395.12Zm14.82,0c0-3.94-2.66-6.56-6.24-6.56s-6.27,2.62-6.27,6.56,2.69,6.55,6.27,6.55S815.84,399.05,815.84,395.12Z"/><path d="M845.31,386.7l-7.49,16.83h-2.33L828,386.7h2.37L836.7,401l6.37-14.33Z"/><path d="M862.69,395.82H848.61c.25,3.52,2.94,5.85,6.62,5.85a6.63,6.63,0,0,0,5.15-2.2l1.28,1.47a8.28,8.28,0,0,1-6.49,2.75c-5.25,0-8.83-3.58-8.83-8.57s3.48-8.55,8.22-8.55,8.16,3.49,8.16,8.55C862.72,395.31,862.69,395.56,862.69,395.82Zm-14.08-1.7h11.93a6,6,0,0,0-11.93,0Zm2.78-10h-2.11l4.13-4h2.3l4.13,4h-2.11l-3.17-2.66Zm4.55,24.12a1.38,1.38,0,1,1-1.38-1.37A1.35,1.35,0,0,1,855.94,408.23Z"/><path d="M891.1,379.79v23.74h-2.17V400.2a7.31,7.31,0,0,1-6.5,3.49,8.56,8.56,0,0,1,0-17.12,7.34,7.34,0,0,1,6.4,3.33V379.79Zm-2.24,15.33c0-3.94-2.69-6.56-6.24-6.56s-6.27,2.62-6.27,6.56,2.69,6.55,6.27,6.55S888.86,399.05,888.86,395.12Z"/><path d="M910.14,393.1v10.43H908v-2.62c-1,1.72-3,2.78-5.8,2.78-3.8,0-6.14-2-6.14-4.9,0-2.59,1.67-4.76,6.5-4.76h5.34v-1c0-2.88-1.63-4.44-4.77-4.44a8.57,8.57,0,0,0-5.6,2l-1-1.7a10.69,10.69,0,0,1,6.85-2.27C907.68,386.57,910.14,388.75,910.14,393.1Zm-2.27,5.37v-2.75h-5.28c-3.26,0-4.32,1.28-4.32,3,0,1.95,1.57,3.17,4.26,3.17A5.39,5.39,0,0,0,907.87,398.47Z"/><path d="M922.37,401.61l1-1.79a10.21,10.21,0,0,0,6,1.89c3.2,0,4.52-1.09,4.52-2.76,0-4.38-10.91-.92-10.91-7.58,0-2.75,2.36-4.8,6.65-4.8a11.39,11.39,0,0,1,6,1.57l-1,1.82a8.65,8.65,0,0,0-5-1.44c-3,0-4.38,1.19-4.38,2.79,0,4.54,10.91,1.12,10.91,7.58,0,2.91-2.56,4.8-6.95,4.8A11.24,11.24,0,0,1,922.37,401.61Z"/><path d="M955.52,386.7v16.83h-2.18v-3.07a6.69,6.69,0,0,1-6.05,3.23c-4.28,0-7.1-2.4-7.1-7.23V386.7h2.27v9.53c0,3.59,1.86,5.41,5.06,5.41,3.52,0,5.73-2.27,5.73-6.11V386.7Z"/><path d="M977.31,395.12a8.56,8.56,0,1,1-8.54-8.55A8.28,8.28,0,0,1,977.31,395.12Zm-2.3,0c0-3.94-2.66-6.56-6.24-6.56s-6.28,2.62-6.28,6.56a6.16,6.16,0,0,0,6.28,6.55C972.35,401.67,975,399.05,975,395.12Zm-9.38-11h-2.18l4.16-3h2.24l4.16,3h-2.17l-3.11-1.89Zm8-2.69h-2l3.87-3.49h2.75Z"/><path d="M990.81,402.51a5.39,5.39,0,0,1-3.55,1.18c-3.17,0-4.93-1.79-4.93-4.9V388.62h-3V386.7h3V383h2.28v3.68h5.12v1.92h-5.12v10.05c0,2,1,3.07,2.91,3.07a3.72,3.72,0,0,0,2.49-.87Z"/><path d="M1019,397.29c0,4-3.36,6.43-8.71,6.43s-8.64-2.46-8.64-6.43c0-2.69,1.54-4.58,4.32-5.5a5.06,5.06,0,0,1-3.52-4.93c0-3.65,3.11-5.92,7.84-5.92s7.91,2.27,7.91,5.92a5.07,5.07,0,0,1-3.59,4.93C1017.47,392.71,1019,394.63,1019,397.29Zm-2.37,0c0-2.75-2.37-4.48-6.34-4.48s-6.3,1.73-6.3,4.48,2.34,4.51,6.3,4.51S1016.67,400,1016.67,397.26Zm-6.34-6.31c3.49,0,5.57-1.56,5.57-4s-2.21-4.06-5.57-4.06-5.53,1.54-5.53,4S1006.85,391,1010.33,391Z"/><path d="M1041,402.51a5.41,5.41,0,0,1-3.55,1.18c-3.17,0-4.93-1.79-4.93-4.9V388.62h-3V386.7h3V383h2.27v3.68h5.12v1.92h-5.12v10.05c0,2,1,3.07,2.91,3.07a3.75,3.75,0,0,0,2.5-.87Z"/><path d="M1044.6,381.39a1.64,1.64,0,0,1,1.67-1.6,1.61,1.61,0,0,1,1.66,1.57,1.63,1.63,0,0,1-1.66,1.66A1.65,1.65,0,0,1,1044.6,381.39Zm.52,5.31h2.27v16.83h-2.27Z"/><path d="M1068.41,395.12c0,.19,0,.44,0,.7H1054.3c.26,3.52,2.94,5.85,6.62,5.85a6.65,6.65,0,0,0,5.16-2.2l1.28,1.47a8.3,8.3,0,0,1-6.5,2.75c-5.25,0-8.83-3.58-8.83-8.57s3.49-8.55,8.22-8.55S1068.41,390.06,1068.41,395.12Zm-14.11-1h11.94a6,6,0,0,0-11.94,0Zm2.85-10H1055l4.16-3h2.24l4.16,3h-2.17l-3.11-1.89Zm8-2.69h-2l3.88-3.49h2.75Z"/><path d="M1088.54,393.77v9.76h-2.27V394c0-3.55-1.86-5.37-5.06-5.37-3.61,0-5.89,2.24-5.89,6.08v8.83h-2.27V386.7h2.18v3.1a7.08,7.08,0,0,1,6.4-3.23C1085.72,386.57,1088.54,388.94,1088.54,393.77Z"/><path d="M1110.36,386.7v14.78c0,5.79-2.84,8.42-8.41,8.42-3.07,0-6.08-.93-7.84-2.59l1.15-1.73a10,10,0,0,0,6.62,2.3c4.26,0,6.21-1.95,6.21-6.11v-2.14a7.59,7.59,0,0,1-6.56,3.26c-4.8,0-8.45-3.36-8.45-8.19s3.65-8.13,8.45-8.13a7.6,7.6,0,0,1,6.66,3.36V386.7Zm-2.2,8c0-3.65-2.69-6.14-6.4-6.14s-6.37,2.49-6.37,6.14a6.39,6.39,0,0,0,12.77,0Z"/><path d="M1115.26,401.93a1.7,1.7,0,0,1,1.7-1.73,1.72,1.72,0,0,1,1.72,1.73,1.75,1.75,0,0,1-1.72,1.76A1.73,1.73,0,0,1,1115.26,401.93Z"/></svg>