<svg id="Layer_1" data-name="Layer 1" xmlns="http://www.w3.org/2000/svg" viewBox="0 0 2006 984.99"><defs><style>.cls-1{fill:#c90202;}.cls-2{fill:#fff;}</style></defs><title>Image convert 1 fix text</title><path d="M218.53,663.22l-.2-82.81-40.61,68.22h-14.4L122.9,582.18v81h-30v-138h26.42L171,611l50.87-85.77h26.23l.39,138Z"/><path d="M372.91,602.69v60.53H344.13V650c-5.72,9.66-16.76,14.79-32.34,14.79-24.84,0-39.63-13.8-39.63-32.14,0-18.73,13.21-31.75,45.55-31.75h24.45c0-13.21-7.89-20.9-24.45-20.9-11.24,0-22.88,3.75-30.57,9.86l-11-21.49c11.63-8.28,28.79-12.82,45.75-12.82C354.18,555.56,372.91,570.55,372.91,602.69Zm-30.75,27V618.86h-21.1c-14.4,0-18.93,5.32-18.93,12.42,0,7.69,6.51,12.81,17.35,12.81C329.73,644.09,338.61,639.36,342.16,629.7Z"/><path d="M390.46,653.36l10.25-22.08c9.47,6.11,23.86,10.25,36.87,10.25,14.2,0,19.52-3.74,19.52-9.66,0-17.35-64.08.39-64.08-42,0-20.11,18.14-34.31,49.1-34.31,14.59,0,30.76,3.36,40.81,9.27l-10.25,21.89a60.87,60.87,0,0,0-30.56-7.89c-13.8,0-19.72,4.34-19.72,9.86,0,18.14,64.08.59,64.08,42.39,0,19.72-18.33,33.72-50.08,33.72C418.46,664.8,400.32,659.87,390.46,653.36Z"/><path d="M497.52,610.18c0-31.94,24.65-54.62,59.15-54.62,22.28,0,39.83,9.67,47.52,27l-23.86,12.81c-5.71-10-14.19-14.59-23.85-14.59-15.58,0-27.81,10.85-27.81,29.38s12.23,29.38,27.81,29.38c9.66,0,18.14-4.34,23.85-14.59l23.86,13c-7.69,17-25.24,26.82-47.52,26.82C522.17,664.8,497.52,642.12,497.52,610.18Z"/><path d="M715.79,602.69v60.53H687V650c-5.72,9.66-16.76,14.79-32.33,14.79C629.82,664.8,615,651,615,632.66c0-18.73,13.21-31.75,45.55-31.75H685c0-13.21-7.89-20.9-24.45-20.9-11.24,0-22.87,3.75-30.56,9.86l-11-21.49c11.63-8.28,28.78-12.82,45.74-12.82C697.06,555.56,715.79,570.55,715.79,602.69ZM685,629.7V618.86h-21.1c-14.39,0-18.93,5.32-18.93,12.42,0,7.69,6.51,12.81,17.35,12.81C672.61,644.09,681.48,639.36,685,629.7Z"/><path d="M809.44,555.56V584c-2.56-.2-4.53-.4-6.9-.4-17,0-28.19,9.27-28.19,29.58v50.08H743.59V557.14H773v14C780.46,560.89,793.08,555.56,809.44,555.56Z"/><path d="M921,602.69v60.53H892.26V650c-5.72,9.66-16.76,14.79-32.34,14.79-24.84,0-39.63-13.8-39.63-32.14,0-18.73,13.21-31.75,45.55-31.75h24.45c0-13.21-7.89-20.9-24.45-20.9-11.24,0-22.88,3.75-30.57,9.86l-11-21.49C835.87,560.1,853,555.56,870,555.56,902.31,555.56,921,570.55,921,602.69Zm-30.75,27V618.86h-21.1c-14.4,0-18.93,5.32-18.93,12.42,0,7.69,6.51,12.81,17.35,12.81C877.86,644.09,886.74,639.36,890.29,629.7Z"/><path d="M1112.69,516.92v146.3h-29.38V651c-7.69,9.26-18.93,13.8-33.12,13.8-30,0-53-21.3-53-54.62s23.07-54.62,53-54.62c13,0,24,4.14,31.74,12.82V516.92Zm-30.17,93.26c0-18.34-11.83-29.38-27-29.38-15.38,0-27.21,11-27.21,29.38s11.83,29.38,27.21,29.38C1070.69,639.56,1082.52,628.52,1082.52,610.18Z"/><path d="M1234.94,602.69v60.53h-28.79V650c-5.72,9.66-16.76,14.79-32.34,14.79-24.84,0-39.63-13.8-39.63-32.14,0-18.73,13.21-31.75,45.55-31.75h24.45c0-13.21-7.89-20.9-24.45-20.9-11.24,0-22.88,3.75-30.57,9.86l-11-21.49c11.64-8.28,28.79-12.82,45.75-12.82C1216.2,555.56,1234.94,570.55,1234.94,602.69Zm-54-59.15-35.69-28.4h33.13l26.61,28.4Zm23.27,86.16V618.86h-21.1c-14.4,0-18.93,5.32-18.93,12.42,0,7.69,6.51,12.81,17.35,12.81C1191.75,644.09,1200.63,639.36,1204.18,629.7Z"/><path d="M1366.05,557.14l-47.91,112.59c-10.25,25.63-24.84,33.32-44,33.32-10.84,0-22.67-3.55-29.58-9.66l11.24-21.89a27.28,27.28,0,0,0,17.35,6.71c8.48,0,13.21-3.75,17.36-13.22l.39-1L1245,557.14h31.74l29.78,72,30-72Z"/><path d="M1613.7,602.49v60.73h-30.76v-56c0-17.15-7.69-25-20.11-25-13.81,0-23.47,8.87-23.47,27.8v53.24H1508.6v-56c0-17.15-7.29-25-20.11-25-13.6,0-23.26,8.87-23.26,27.8v53.24h-30.76V557.14h29.37v12.23c7.89-9.07,19.72-13.81,33.33-13.81,14.79,0,27.4,5.72,34.9,17.35,8.48-10.84,22.28-17.35,38.25-17.35C1595.56,555.56,1613.7,570.15,1613.7,602.49Z"/><path d="M1637.55,525.2c0-9.66,7.69-17.16,19.13-17.16s19.12,7.1,19.12,16.57c0,10.25-7.68,17.74-19.12,17.74S1637.55,534.86,1637.55,525.2Zm3.75,31.94h30.76V663.22H1641.3Z"/><path d="M80.1,754.08c0-19.12,14.68-32.79,34.42-32.79,11,0,20.12,4,26.09,11.23l-9.42,8.7a20.36,20.36,0,0,0-15.94-7.43c-11.87,0-20.29,8.33-20.29,20.29s8.42,20.29,20.29,20.29a20.17,20.17,0,0,0,15.94-7.52l9.42,8.7c-6,7.34-15.12,11.32-26.18,11.32C94.78,786.87,80.1,773.2,80.1,754.08Z"/><path d="M192.25,758v27.81H179v-6.07c-2.63,4.44-7.71,6.79-14.86,6.79-11.42,0-18.21-6.34-18.21-14.77,0-8.6,6.07-14.58,20.93-14.58h11.23c0-6.07-3.62-9.6-11.23-9.6a23.45,23.45,0,0,0-14,4.53l-5.07-9.88c5.35-3.8,13.23-5.89,21-5.89C183.65,736.32,192.25,743.21,192.25,758Zm-14.13,12.41v-5h-9.69c-6.62,0-8.7,2.45-8.7,5.71,0,3.53,3,5.89,8,5.89C172.41,777,176.49,774.83,178.12,770.39Z"/><path d="M236.46,783.43c-2.9,2.09-7.16,3.08-11.51,3.08-11.5,0-18.2-5.89-18.2-17.48V749h-7.52V738.14h7.52V726.27h14.13v11.87H233V749H220.88v19.84c0,4.16,2.26,6.43,6.07,6.43a9.56,9.56,0,0,0,5.7-1.81Z"/><path d="M294.26,757.88v27.91H280.12V760.06c0-7.88-3.62-11.51-9.87-11.51-6.79,0-11.69,4.17-11.69,13.14v24.1H244.43V718.57h14.13v23.55c3.81-3.8,9.24-5.8,15.5-5.8C285.56,736.32,294.26,743,294.26,757.88Z"/><path d="M354.5,737.05l-22,51.73c-4.71,11.77-11.42,15.31-20.2,15.31-5,0-10.42-1.63-13.59-4.44l5.16-10.06a12.52,12.52,0,0,0,8,3.08c3.9,0,6.07-1.72,8-6.07l.19-.45-21.11-49.1h14.58l13.68,33.07,13.77-33.07Z"/><path d="M386.93,722.37h28.81c20.75,0,35,12.5,35,31.71s-14.22,31.71-35,31.71H386.93ZM415,773.74c12.59,0,20.83-7.52,20.83-19.66s-8.24-19.66-20.83-19.66H401.61v39.32Z"/><path d="M457.14,761.42c0-14.68,11.32-25.1,26.81-25.1s26.73,10.42,26.73,25.1S499.45,786.51,484,786.51,457.14,776.09,457.14,761.42Zm39.23,0c0-8.43-5.35-13.5-12.42-13.5s-12.5,5.07-12.5,13.5,5.44,13.5,12.5,13.5S496.37,769.84,496.37,761.42Z"/><path d="M520.1,718.57h14.13v67.22H520.1Z"/><path d="M547.37,718.57H561.5v67.22H547.37Z"/><path d="M650.37,774v11.78h-49.1V722.37h47.92v11.78H615.86v13.77H645.3v11.41H615.86V774Z"/><path d="M709,737.05l-22,51.73c-4.71,11.77-11.41,15.31-20.2,15.31-5,0-10.42-1.63-13.59-4.44l5.16-10.06a12.57,12.57,0,0,0,8,3.08c3.89,0,6.06-1.72,8-6.07l.18-.45-21.11-49.1H668l13.67,33.07,13.78-33.07Z"/><path d="M760.89,765.4H724c1.36,6.07,6.52,9.79,14,9.79a16.51,16.51,0,0,0,12.23-4.71l7.52,8.15c-4.53,5.16-11.32,7.88-20.11,7.88-16.85,0-27.81-10.6-27.81-25.09s11.14-25.1,26-25.1c14.31,0,25.36,9.61,25.36,25.28C761.16,762.69,761,764.23,760.89,765.4Zm-37-8.24h24a11.59,11.59,0,0,0-12-10.15C729.46,747,724.84,750.91,723.84,757.16Z"/><path d="M793.23,754.08c0-19.12,14.68-32.79,34.43-32.79,11,0,20.11,4,26.09,11.23l-9.42,8.7a20.4,20.4,0,0,0-16-7.43c-11.86,0-20.29,8.33-20.29,20.29s8.43,20.29,20.29,20.29a20.2,20.2,0,0,0,16-7.52l9.42,8.7c-6,7.34-15.13,11.32-26.18,11.32C807.91,786.87,793.23,773.2,793.23,754.08Z"/><path d="M857.28,761.42c0-14.68,11.33-25.1,26.82-25.1s26.72,10.42,26.72,25.1-11.23,25.09-26.72,25.09S857.28,776.09,857.28,761.42Zm39.23,0c0-8.43-5.35-13.5-12.41-13.5s-12.51,5.07-12.51,13.5,5.44,13.5,12.51,13.5S896.51,769.84,896.51,761.42Z"/><path d="M970.07,757.88v27.91H955.94V760.06c0-7.88-3.63-11.51-9.88-11.51-6.79,0-11.68,4.17-11.68,13.14v24.1H920.24V737.05h13.5v5.71c3.81-4.17,9.51-6.44,16.13-6.44C961.37,736.32,970.07,743,970.07,757.88Z"/><path d="M981.12,722.37c0-4.44,3.53-7.88,8.79-7.88s8.79,3.26,8.79,7.61c0,4.71-3.54,8.15-8.79,8.15S981.12,726.81,981.12,722.37Zm1.72,14.68H997v48.74H982.84Z"/><path d="M1006.49,761.42c0-14.68,11.32-25.1,27.17-25.1,10.24,0,18.3,4.44,21.84,12.42l-11,5.88c-2.62-4.62-6.52-6.7-11-6.7-7.15,0-12.77,5-12.77,13.5s5.62,13.5,12.77,13.5c4.44,0,8.34-2,11-6.71l11,6c-3.54,7.79-11.6,12.32-21.84,12.32C1017.81,786.51,1006.49,776.09,1006.49,761.42Z"/><path d="M1148,785.79l-.09-38-18.66,31.34h-6.62l-18.57-30.53v37.24h-13.77V722.37h12.14l23.74,39.41,23.37-39.41h12l.18,63.42Z"/><path d="M1218.92,758v27.81H1205.7v-6.07c-2.63,4.44-7.7,6.79-14.86,6.79-11.42,0-18.21-6.34-18.21-14.77,0-8.6,6.07-14.58,20.93-14.58h11.23c0-6.07-3.62-9.6-11.23-9.6a23.45,23.45,0,0,0-14,4.53l-5.07-9.88c5.35-3.8,13.23-5.89,21-5.89C1210.32,736.32,1218.92,743.21,1218.92,758Zm-14.13,12.41v-5h-9.69c-6.62,0-8.7,2.45-8.7,5.71,0,3.53,3,5.89,8,5.89C1199.08,777,1203.16,774.83,1204.79,770.39Z"/><path d="M1227,781.26l4.71-10.15a33.36,33.36,0,0,0,16.94,4.71c6.53,0,9-1.72,9-4.44,0-8-29.44.18-29.44-19.29,0-9.24,8.34-15.77,22.56-15.77,6.7,0,14.13,1.54,18.75,4.26l-4.71,10.06a28,28,0,0,0-14-3.63c-6.34,0-9.06,2-9.06,4.53,0,8.34,29.44.28,29.44,19.48,0,9.06-8.42,15.49-23,15.49C1239.85,786.51,1231.51,784.25,1227,781.26Z"/><path d="M1276.17,761.42c0-14.68,11.33-25.1,27.18-25.1,10.24,0,18.3,4.44,21.83,12.42l-11,5.88c-2.62-4.62-6.52-6.7-11-6.7-7.16,0-12.77,5-12.77,13.5s5.61,13.5,12.77,13.5c4.44,0,8.34-2,11-6.71l11,6c-3.53,7.79-11.59,12.32-21.83,12.32C1287.5,786.51,1276.17,776.09,1276.17,761.42Z"/><path d="M1376.46,758v27.81h-13.23v-6.07c-2.62,4.44-7.7,6.79-14.85,6.79-11.42,0-18.21-6.34-18.21-14.77,0-8.6,6.07-14.58,20.92-14.58h11.24c0-6.07-3.63-9.6-11.24-9.6a23.42,23.42,0,0,0-14,4.53l-5.07-9.88c5.34-3.8,13.22-5.89,21-5.89C1367.85,736.32,1376.46,743.21,1376.46,758Zm-14.13,12.41v-5h-9.7c-6.61,0-8.69,2.45-8.69,5.71,0,3.53,3,5.89,8,5.89C1356.62,777,1360.7,774.83,1362.33,770.39Z"/><path d="M1419.49,736.32v13c-1.18-.09-2.08-.18-3.17-.18-7.79,0-13,4.26-13,13.59v23h-14.13V737.05h13.5v6.43C1406.17,738.77,1412,736.32,1419.49,736.32Z"/><path d="M1470.77,758v27.81h-13.23v-6.07c-2.63,4.44-7.7,6.79-14.86,6.79-11.41,0-18.21-6.34-18.21-14.77,0-8.6,6.07-14.58,20.93-14.58h11.23c0-6.07-3.62-9.6-11.23-9.6a23.42,23.42,0,0,0-14,4.53l-5.07-9.88c5.34-3.8,13.22-5.89,21-5.89C1462.16,736.32,1470.77,743.21,1470.77,758Zm-14.14,12.41v-5h-9.69c-6.61,0-8.7,2.45-8.7,5.71,0,3.53,3,5.89,8,5.89C1450.93,777,1455,774.83,1456.63,770.39Z"/><path d="M1556.83,752.72c0,21.92-13.14,34.15-32.34,34.15-6.71,0-13.14-1.54-17.58-4.34l5.44-10.79c3.44,2.36,7.51,3.18,11.86,3.18,10.51,0,17.4-6.26,17.85-18.48-3.71,3.71-9.15,5.7-15.76,5.7-12.23,0-21.84-7.79-21.84-19.75,0-12.95,10.6-21.1,24-21.1C1546.05,721.29,1556.83,732.25,1556.83,752.72Zm-16.4-11.05c0-5.44-4.08-9.42-11-9.42-6.25,0-10.6,3.62-10.6,9.42s4.26,9.51,10.78,9.51S1540.43,747.2,1540.43,741.67Z"/><path d="M1617.16,737.05v40.58c0,18.12-9.78,26.46-27.36,26.46-9.24,0-18.21-2.27-23.92-6.71l5.62-10.14c4.17,3.35,11,5.52,17.21,5.52,10,0,14.32-4.53,14.32-13.31v-2.09c-3.72,4.08-9.06,6.07-15.4,6.07-13.5,0-24.37-9.33-24.37-23.55s10.87-23.56,24.37-23.56c6.79,0,12.41,2.27,16.12,7v-6.25Zm-14,22.83c0-7.16-5.35-12-12.78-12s-12.86,4.8-12.86,12,5.44,12,12.86,12S1603.21,767,1603.21,759.88Z"/><g id="_Rectangle_" data-name="&lt;Rectangle&gt;"><rect class="cls-1" x="77" y="68.49" width="921" height="272"/></g><path class="cls-2" d="M212.1,252.19V173.71L192.18,189.1l-13.13-18,35.15-25.81h23.11V252.19Z"/><path class="cls-2" d="M344.62,231.36v20.83h-23.7V231.36H270.66V210.08l43.47-64.75h30.34v65.5h14.79v20.53Zm-23.55-60.07h-.45l-25.36,39.54h25.81Z"/><path class="cls-2" d="M452.23,216.87a38.66,38.66,0,0,1-3.47,17,34,34,0,0,1-9.29,11.85,40.08,40.08,0,0,1-13.2,7A50.28,50.28,0,0,1,411,255.06a49.7,49.7,0,0,1-13.81-1.89,44.2,44.2,0,0,1-11.92-5.36,36.14,36.14,0,0,1-9.21-8.53,34.17,34.17,0,0,1-5.66-11.39l23.1-7.1a17.88,17.88,0,0,0,6.26,9.21,18.22,18.22,0,0,0,22.19-.3q4.75-3.93,4.75-11.62a14.63,14.63,0,0,0-2-7.85,15.3,15.3,0,0,0-5.06-5.06,21.23,21.23,0,0,0-7-2.64,41.63,41.63,0,0,0-7.84-.75,77,77,0,0,0-13.06,1.28,75.79,75.79,0,0,0-13,3.4l2.56-61.13h65.5v21.74h-43l-.91,16.9a32.62,32.62,0,0,1,5.36-.83c2-.15,3.75-.23,5.36-.23A52.56,52.56,0,0,1,428.68,185a34.5,34.5,0,0,1,12.3,6.41,30.61,30.61,0,0,1,8.23,10.64A34.11,34.11,0,0,1,452.23,216.87Z"/><path class="cls-2" d="M485.28,270.9H464.9L476.22,228h23.7Z"/><path class="cls-2" d="M597.72,198.46A99.92,99.92,0,0,1,595.46,220a55.19,55.19,0,0,1-7.25,18,37.52,37.52,0,0,1-12.9,12.37q-7.93,4.61-19.25,4.61t-19.31-4.61a37.91,37.91,0,0,1-13.06-12.37,54.2,54.2,0,0,1-7.32-18,99.92,99.92,0,0,1-2.26-21.58A98.87,98.87,0,0,1,516.37,177a52.52,52.52,0,0,1,7.32-17.81A37.75,37.75,0,0,1,536.75,147q8-4.53,19.31-4.53T575.31,147a37.35,37.35,0,0,1,12.9,12.15A53.47,53.47,0,0,1,595.46,177,98.87,98.87,0,0,1,597.72,198.46Zm-26,0q0-5-.6-11a55.24,55.24,0,0,0-2.27-11.24,24.48,24.48,0,0,0-4.75-8.76,10.24,10.24,0,0,0-8.08-3.54,10.45,10.45,0,0,0-8.15,3.54,24.57,24.57,0,0,0-4.9,8.76,51.45,51.45,0,0,0-2.34,11.24q-.6,6-.6,11,0,5.13.6,11.24A51.45,51.45,0,0,0,543,221a24.65,24.65,0,0,0,4.9,8.76,10.45,10.45,0,0,0,8.15,3.54,10.24,10.24,0,0,0,8.08-3.54,24.57,24.57,0,0,0,4.75-8.76,55.21,55.21,0,0,0,2.27-11.32Q571.76,203.6,571.76,198.46Z"/><path class="cls-2" d="M695.22,198.46A99.92,99.92,0,0,1,693,220a55,55,0,0,1-7.24,18,37.52,37.52,0,0,1-12.9,12.37q-7.93,4.61-19.25,4.61t-19.32-4.61a38,38,0,0,1-13-12.37,54.2,54.2,0,0,1-7.32-18,99.92,99.92,0,0,1-2.27-21.58A98.86,98.86,0,0,1,613.87,177a52.52,52.52,0,0,1,7.32-17.81,37.81,37.81,0,0,1,13-12.15q8-4.53,19.32-4.53T672.81,147a37.35,37.35,0,0,1,12.9,12.15A53.25,53.25,0,0,1,693,177,98.86,98.86,0,0,1,695.22,198.46Zm-26,0a109.5,109.5,0,0,0-.61-11,54.58,54.58,0,0,0-2.26-11.24,24.48,24.48,0,0,0-4.75-8.76,10.24,10.24,0,0,0-8.08-3.54,10.44,10.44,0,0,0-8.15,3.54,24.57,24.57,0,0,0-4.9,8.76,51.45,51.45,0,0,0-2.34,11.24,109.5,109.5,0,0,0-.61,11q0,5.13.61,11.24A51.45,51.45,0,0,0,640.51,221a24.65,24.65,0,0,0,4.9,8.76,10.44,10.44,0,0,0,8.15,3.54,10.24,10.24,0,0,0,8.08-3.54,24.57,24.57,0,0,0,4.75-8.76,54.56,54.56,0,0,0,2.26-11.32Q669.26,203.6,669.26,198.46Z"/><path class="cls-2" d="M792.72,198.46A99.92,99.92,0,0,1,790.45,220a55.18,55.18,0,0,1-7.24,18,37.46,37.46,0,0,1-12.91,12.37q-7.92,4.61-19.24,4.61t-19.32-4.61a38,38,0,0,1-13-12.37,54,54,0,0,1-7.32-18,99.92,99.92,0,0,1-2.27-21.58A98.86,98.86,0,0,1,711.37,177a52.32,52.32,0,0,1,7.32-17.81,37.81,37.81,0,0,1,13-12.15q8-4.53,19.32-4.53T770.3,147a37.29,37.29,0,0,1,12.91,12.15A53.46,53.46,0,0,1,790.45,177,98.86,98.86,0,0,1,792.72,198.46Zm-26,0c0-3.32-.21-7-.61-11a54.58,54.58,0,0,0-2.26-11.24,24.48,24.48,0,0,0-4.75-8.76,10.24,10.24,0,0,0-8.08-3.54,10.44,10.44,0,0,0-8.15,3.54,24.57,24.57,0,0,0-4.9,8.76,51.45,51.45,0,0,0-2.34,11.24,109.5,109.5,0,0,0-.61,11q0,5.13.61,11.24A51.45,51.45,0,0,0,738,221a24.65,24.65,0,0,0,4.9,8.76,10.44,10.44,0,0,0,8.15,3.54,10.24,10.24,0,0,0,8.08-3.54,24.57,24.57,0,0,0,4.75-8.76,54.56,54.56,0,0,0,2.26-11.32C766.55,205.63,766.76,201.88,766.76,198.46Z"/><path class="cls-2" d="M866.22,252.19v-9.81h-.3a23.57,23.57,0,0,1-10.34,8.83,33.72,33.72,0,0,1-14.26,3.09,33.36,33.36,0,0,1-15.1-3.32A34.49,34.49,0,0,1,815,242.15a38.74,38.74,0,0,1-7-12.75,47.4,47.4,0,0,1-2.41-15.09,45.47,45.47,0,0,1,2.49-15,39.09,39.09,0,0,1,7.09-12.6A33.07,33.07,0,0,1,841,174.91a28.71,28.71,0,0,1,14,3.17A31.17,31.17,0,0,1,864,185h.31V166.16H841.77V152.73h22.49V138.09H889v14.64H896v13.43H889v86Zm-.91-37.73a20.61,20.61,0,0,0-4.9-13.29,18.09,18.09,0,0,0-5.66-4.37,16.63,16.63,0,0,0-7.55-1.66,17,17,0,0,0-7.7,1.66,17.39,17.39,0,0,0-9,10.41,22.92,22.92,0,0,0-1.13,7.1,23.53,23.53,0,0,0,1.13,7.16,18.48,18.48,0,0,0,3.4,6.27,16.66,16.66,0,0,0,13.28,6,16.76,16.76,0,0,0,7.55-1.66,18.12,18.12,0,0,0,5.66-4.38,20.05,20.05,0,0,0,3.62-6.19A20.41,20.41,0,0,0,865.31,214.46Z"/></svg>