<?xml version="1.0" encoding="utf-8"?>
<!-- Generator: Adobe Illustrator 22.1.0, SVG Export Plug-In . SVG Version: 6.00 Build 0)  -->
<svg version="1.1" id="Layer_1" xmlns="http://www.w3.org/2000/svg" xmlns:xlink="http://www.w3.org/1999/xlink" x="0px" y="0px"
	 viewBox="0 0 987 439.4" style="enable-background:new 0 0 987 439.4;" xml:space="preserve">
<style type="text/css">
	.st0{fill:#C90202;}
	.st1{fill:#FFFFFF;}
</style>
<title>Image convert 3</title>
<path d="M52.7,228.5c0-11.5,8.8-19.8,20.6-19.8c6.3,0,11.7,2.2,15.2,6.4l-4.6,4.4c-2.6-2.9-6.4-4.6-10.3-4.5
	c-8,0-13.8,5.6-13.8,13.5s5.8,13.5,13.8,13.5c3.9,0.1,7.7-1.6,10.3-4.6l4.6,4.4c-3.6,4.2-9,6.4-15.3,6.4
	C61.5,248.3,52.7,240,52.7,228.5z"/>
<path d="M91.9,228.5c0-11.4,8.8-19.8,20.7-19.8s20.7,8.4,20.7,19.8s-8.8,19.8-20.7,19.8S91.9,239.9,91.9,228.5z M126.2,228.5
	c0-7.5-6-13.5-13.5-13.5c-7.5,0-13.5,6-13.5,13.5c0,7.5,6,13.5,13.5,13.5c0,0,0,0,0,0c7.2,0.2,13.3-5.5,13.5-12.7
	C126.2,229.1,126.2,228.8,126.2,228.5z M109.3,255.7c0-1.8,1.5-3.3,3.3-3.3s3.3,1.5,3.3,3.3c0,0,0,0,0,0c0,1.8-1.5,3.3-3.3,3.3
	C110.8,259,109.3,257.5,109.3,255.7z"/>
<path d="M191.3,209.3l-16.8,38.5h-7l-16.9-38.5h7.8l12.8,29.7l12.9-29.7H191.3z"/>
<path d="M224.3,241.8v6h-28.9v-38.5h28.1v6h-21v10h18.6v5.9h-18.5v10.6H224.3z M203.3,205.8h-3.7c0.1-4.5,2.4-7.4,5.9-7.4
	s5.5,3.6,7.5,3.6c1.5,0,2.6-1.2,2.7-3.1h3.7c-0.1,4.3-2.4,7.2-5.9,7.2s-5.5-3.6-7.5-3.6C204.5,202.5,203.4,203.7,203.3,205.8
	L203.3,205.8z"/>
<path d="M244.7,228.5c0-11.5,8.8-19.8,20.6-19.8c6.3,0,11.6,2.2,15.2,6.4l-4.6,4.4c-2.6-2.9-6.4-4.6-10.3-4.5
	c-8,0-13.8,5.6-13.8,13.5s5.8,13.5,13.8,13.5c3.9,0.1,7.7-1.6,10.3-4.6l4.6,4.4c-3.6,4.2-9,6.4-15.3,6.4
	C253.5,248.3,244.7,240,244.7,228.5z"/>
<path d="M321.6,209.3v38.5h-7.1v-16.5h-19.9v16.5h-7.1v-38.5h7.1v15.9h19.9v-15.9H321.6z"/>
<path d="M356.9,238.9h-19.2l-3.8,8.9h-7.4l17.3-38.5h7l17.4,38.5h-7.5L356.9,238.9z M342.5,206.1h-5.7l7.4-7.5h6.3l7.4,7.5h-5.7
	l-4.8-4.1L342.5,206.1z M354.5,233.3l-7.2-16.9l-7.2,16.8L354.5,233.3z"/>
<path d="M407.4,209.3v38.5h-5.9l-21.2-26.1v26.1h-7.1v-38.5h5.9l21.2,26.1v-26.1H407.4z"/>
<path d="M468.2,247.8l0-25.5l-12.7,21.1h-3.2l-12.6-20.8v25.2h-6.8v-38.5h5.9l15.3,25.5l15-25.5h5.9l0.1,38.5L468.2,247.8z"/>
<path d="M510.4,238.9h-19.2l-3.8,8.9H480l17.3-38.5h7l17.4,38.5h-7.5L510.4,238.9z M499.5,206.1l-9.6-7.5h8.1l7.4,7.5H499.5z
	 M508,233.3l-7.2-16.9l-7.2,16.8L508,233.3z"/>
<path d="M540.9,234.2v13.6h-7.2v-13.5l-15.1-25h7.6l11.3,18.8l11.4-18.8h7L540.9,234.2z"/>
<path d="M573.1,228.5c0-11.5,8.8-19.8,20.6-19.8c6.3,0,11.7,2.2,15.2,6.4l-4.6,4.4c-2.6-2.9-6.4-4.6-10.3-4.5
	c-8,0-13.8,5.6-13.8,13.5s5.8,13.5,13.8,13.5c3.9,0.1,7.7-1.6,10.3-4.6l4.6,4.4c-3.6,4.2-9,6.4-15.3,6.4
	C581.9,248.3,573.1,240,573.1,228.5z"/>
<path d="M640,238.9h-19.3l-3.8,8.9h-7.4l17.3-38.5h7l17.4,38.5h-7.5L640,238.9z M637.6,233.3l-7.3-16.9l-7.2,16.8L637.6,233.3z"/>
<path d="M662.1,215.3h-12.8v-6H682v6h-12.8v32.4h-7.2L662.1,215.3z"/>
<path d="M721.6,209.3v38.5h-7.2v-16.5h-19.9v16.5h-7.2v-38.5h7.2v15.9h19.9v-15.9H721.6z"/>
<path d="M748.5,234.2v13.6h-7.2v-13.5l-15.1-25h7.6l11.3,18.8l11.4-18.8h7L748.5,234.2z"/>
<path d="M783.5,209.3h16.8c12.5,0,21,7.7,21,19.2s-8.5,19.2-21,19.2h-16.8V209.3z M800,241.7c8.6,0,14.1-5.2,14.1-13.2
	c0-8-5.6-13.2-14.1-13.2h-9.3v26.4H800z"/>
<path d="M826.1,228.5c0-11.4,8.8-19.8,20.7-19.8s20.7,8.4,20.7,19.8s-8.8,19.8-20.7,19.8S826.1,239.9,826.1,228.5z M860.4,228.5
	c0-7.5-6-13.5-13.5-13.5s-13.5,6-13.5,13.5c0,7.5,6,13.5,13.5,13.5c0,0,0,0,0,0c7.2,0.2,13.3-5.5,13.5-12.7
	C860.4,229.1,860.4,228.8,860.4,228.5z"/>
<path d="M875.2,209.3h7.2v32.4h20.1v6h-27.3V209.3z"/>
<path d="M908.1,209.3h7.2v32.4h20.1v6h-27.3V209.3z"/>
<path d="M80.7,313.8l-7.9-11.3c-0.5,0-1,0.1-1.5,0.1h-8.7v11.2h-7.1v-38.5h15.8c10.1,0,16.4,5.2,16.4,13.7
	c0.2,5.4-3.1,10.3-8.2,12.2l8.8,12.6H80.7z M71,281.3h-8.4v15.3H71c6.3,0,9.5-2.9,9.5-7.7S77.3,281.3,71,281.3z"/>
<path d="M124.6,307.8v6H95.7v-38.5h28.1v6h-21v10h18.6v5.9h-18.5v10.6H124.6z"/>
<path d="M157.5,304.9h-19.2l-3.8,8.9h-7.4l17.3-38.5h7l17.4,38.5h-7.5L157.5,304.9z M155.1,299.3l-7.3-16.9l-7.2,16.8L155.1,299.3z"
	/>
<path d="M173.7,275.3h7.1v32.5H201v6h-27.3V275.3z"/>
<path d="M256.1,303.3c0,6.6-5.2,10.4-15.1,10.4h-19.1v-38.5h18c9.2,0,14.2,3.9,14.2,10c0.1,3.5-1.8,6.8-5,8.5
	C253.3,294.9,256.3,298.9,256.1,303.3z M229,280.9v10.6h10.1c5,0,7.8-1.8,7.8-5.3c0-3.5-2.8-5.3-7.8-5.3H229z M248.9,302.6
	c0-3.9-2.9-5.6-8.3-5.6H229v11.1h11.6C246,308.2,248.9,306.5,248.9,302.6L248.9,302.6z"/>
<path d="M288.9,313.8l-7.9-11.3c-0.5,0-1,0.1-1.5,0.1h-8.7v11.2h-7.1v-38.5h15.8c10.1,0,16.4,5.2,16.4,13.7
	c0.2,5.4-3.1,10.3-8.2,12.2l8.9,12.6H288.9z M279.2,281.3h-8.4v15.3h8.4c6.3,0,9.5-2.9,9.5-7.7S285.5,281.3,279.2,281.3z"/>
<path d="M301.2,294.5c0-11.4,8.8-19.8,20.7-19.8s20.7,8.4,20.7,19.8s-8.8,19.8-20.7,19.8S301.2,305.9,301.2,294.5z M335.4,294.5
	c0-7.5-6-13.5-13.5-13.5s-13.5,6-13.5,13.5s6,13.5,13.5,13.5c0,0,0,0,0,0c7.2,0.2,13.3-5.5,13.5-12.7
	C335.4,295.1,335.4,294.8,335.4,294.5L335.4,294.5z"/>
<path d="M405.3,275.3l-12.8,38.5h-7.6l-9.5-28.5l-9.7,28.5h-7.6l-12.8-38.5h7.4l9.6,29.3l10-29.3h6.6l9.7,29.4l9.9-29.4H405.3z"/>
<path d="M458.7,305h-6.8v8.7h-6.9V305h-21.1v-4.9l19-24.8h7.6L432.6,299h12.6v-7.8h6.7v7.8h6.8L458.7,305z"/>
<path d="M464.5,275.3h16.8c12.5,0,21,7.7,21,19.2c0,11.6-8.5,19.2-21,19.2h-16.8V275.3z M481,307.7c8.6,0,14.1-5.2,14.1-13.2
	s-5.5-13.2-14.1-13.2h-9.4v26.4H481z"/>
<path d="M532.9,281.3h-12.8v-6.1h32.7v6.1H540v32.4h-7.2L532.9,281.3z"/>
<path d="M558.2,275.3h7.2v38.5h-7.2V275.3z"/>
<path d="M609.9,275.3v38.5H604l-21.2-26.1v26.1h-7.1v-38.5h5.9l21.3,26.1v-26.1H609.9z"/>
<path d="M628.1,281.3h-12.8v-6.1H648v6.1h-12.8v32.4h-7.2L628.1,281.3z"/>
<path d="M78.9,365.4h7.4v5h-8l-1.2,9.3h-5l1.1-9.3H64l-1.2,9.3h-5l1.2-9.3h-7.4v-5h8l1.3-9.8h-7.4v-5h8l1.2-9.4h5l-1.2,9.4h9.2
	l1.2-9.4h5l-1.2,9.4h7.4l0.1,5h-8L78.9,365.4z M73.9,365.4l1.2-9.8h-9.2l-1.3,9.8H73.9z"/>
<path d="M91.8,360.5c0-12.6,6.9-19.8,16.1-19.8s16.1,7.1,16.1,19.8s-6.9,19.8-16.1,19.8S91.8,373.2,91.8,360.5z M116.8,360.5
	c0-9.3-3.6-13.6-8.9-13.6s-8.8,4.3-8.8,13.6c0,9.3,3.6,13.6,8.8,13.6S116.8,369.8,116.8,360.5L116.8,360.5z"/>
<path d="M156.5,373.7v6h-28.4V375l15.3-14.5c3.7-3.6,4.4-5.8,4.4-8c0-3.5-2.4-5.6-7.1-5.6c-3.5-0.2-6.8,1.3-9,4l-5-3.9
	c3-4,8.3-6.4,14.6-6.4c8.4,0,13.8,4.2,13.8,11c0,3.7-1,7.1-6.4,12.2l-10.3,9.8L156.5,373.7z"/>
<path d="M203.5,370.9h-19.2l-3.8,8.9h-7.4l17.3-38.5h7l17.4,38.5h-7.5L203.5,370.9z M201.1,365.3l-7.3-16.9l-7.2,16.8L201.1,365.3z"
	/>
<path d="M216.5,375.7l2.5-5.6c3.7,2.7,8.1,4.2,12.7,4.2c6,0,8.5-2.1,8.5-5c0-8.3-22.9-2.9-22.9-17.2c0-6.2,5-11.5,15.5-11.5
	c4.5-0.1,8.9,1.1,12.8,3.4l-2.3,5.6c-3.2-1.9-6.9-2.9-10.6-3c-5.9,0-8.4,2.3-8.4,5.2c0,8.2,22.8,2.9,22.8,17c0,6.1-5,11.4-15.6,11.4
	C225.6,380.3,219.7,378.5,216.5,375.7z"/>
<path d="M288.5,341.3v38.5h-7.1v-16.5h-19.9v16.5h-7.1v-38.5h7.1v15.9h19.9v-15.9H288.5z"/>
<path d="M348.2,369.3c0,6.6-5.2,10.4-15.1,10.4H314v-38.5h18c9.2,0,14.2,3.9,14.2,10c0.1,3.5-1.8,6.8-5,8.5
	C345.5,360.9,348.4,364.9,348.2,369.3z M321.2,346.9v10.6h10.1c5,0,7.8-1.8,7.8-5.3c0-3.5-2.8-5.3-7.8-5.3H321.2z M341,368.6
	c0-3.9-2.9-5.6-8.3-5.6h-11.5v11.1h11.5C338.1,374.2,341,372.5,341,368.6z"/>
<path d="M381.1,379.8l-7.9-11.3c-0.5,0-1,0.1-1.5,0.1H363v11.2h-7.1v-38.5h15.8c10.1,0,16.4,5.2,16.4,13.7
	c0.2,5.4-3.1,10.4-8.2,12.2l8.9,12.6H381.1z M371.4,347.3H363v15.3h8.4c6.3,0,9.5-2.9,9.5-7.7S377.7,347.3,371.4,347.3z"/>
<path d="M393.4,360.5c0-11.4,8.8-19.8,20.7-19.8s20.7,8.4,20.7,19.8s-8.8,19.8-20.7,19.8S393.4,371.9,393.4,360.5z M427.6,360.5
	c0-7.5-6.1-13.5-13.5-13.5s-13.5,6.1-13.5,13.5s6.1,13.5,13.5,13.5l0,0c7.2,0.2,13.3-5.5,13.5-12.7
	C427.6,361.1,427.6,360.8,427.6,360.5L427.6,360.5z"/>
<path d="M497.5,341.3l-12.8,38.5h-7.6l-9.5-28.5l-9.7,28.5h-7.6l-12.8-38.5h7.4l9.6,29.3l10-29.3h6.6l9.7,29.4l9.9-29.4H497.5z"/>
<path d="M537.5,341.3v38.5h-5.9l-21.2-26.1v26.1h-7.1v-38.5h5.9l21.2,26.1v-26.1H537.5z"/>
<path d="M588.2,373.7v6h-28.4V375l15.3-14.5c3.7-3.6,4.4-5.8,4.4-8c0-3.5-2.4-5.6-7.2-5.6c-3.5-0.2-6.8,1.3-9,4l-5-3.9
	c3-4,8.3-6.4,14.6-6.4c8.4,0,13.8,4.2,13.8,11c0,3.7-1,7.1-6.4,12.2l-10.3,9.9H588.2z"/>
<path d="M621.3,360.1h6.8v15.3c-4.3,3.3-9.6,5-15.1,4.9c-11.9,0-20.7-8.3-20.7-19.8c0-11.5,8.8-19.8,20.8-19.8
	c6.4,0,11.8,2.1,15.5,6.3l-4.5,4.4c-2.8-2.9-6.6-4.5-10.6-4.4c-8.2,0-14,5.5-14,13.5c0,7.8,5.8,13.5,13.9,13.5
	c2.8,0.1,5.5-0.6,7.9-2L621.3,360.1z"/>
<g id="_Rectangle_">
	<rect x="55.4" y="46.1" class="st0" width="383" height="113.1"/>
</g>
<g>
	<path class="st1" d="M97,124.7V88.5l-9.2,7.1l-6-8.3L98,75.4h10.6v49.2H97z"/>
	<path class="st1" d="M163.2,110.6c0,2.6-0.5,4.9-1.5,6.8c-1,1.9-2.4,3.5-4.1,4.8c-1.7,1.3-3.7,2.2-5.9,2.9c-2.2,0.6-4.6,0.9-7,0.9
		c-2.5,0-4.8-0.3-7-0.9s-4.2-1.6-5.9-2.8c-1.7-1.3-3-2.8-4.1-4.8c-1-1.9-1.5-4.2-1.5-6.8c0-1.5,0.2-2.9,0.7-4.1
		c0.5-1.3,1.1-2.4,1.9-3.4c0.8-1,1.7-1.9,2.8-2.6c1.1-0.7,2.2-1.3,3.4-1.6v-0.1c-2.1-0.8-3.9-2.1-5.4-3.9c-1.4-1.8-2.2-4-2.2-6.8
		c0-2.3,0.5-4.3,1.4-6c0.9-1.8,2.2-3.2,3.8-4.4c1.6-1.2,3.4-2.1,5.5-2.7c2.1-0.6,4.3-0.9,6.5-0.9c2.3,0,4.4,0.3,6.5,0.9
		c2.1,0.6,3.9,1.4,5.5,2.6c1.6,1.2,2.8,2.6,3.8,4.3c0.9,1.7,1.4,3.7,1.4,6c0,2.7-0.7,5-2.1,6.9c-1.4,1.9-3.2,3.2-5.4,3.9v0.2
		c1.2,0.4,2.4,0.9,3.4,1.6c1.1,0.7,2,1.6,2.8,2.6c0.8,1,1.4,2.1,1.9,3.4C162.9,107.8,163.2,109.2,163.2,110.6z M151.5,110.2
		c0-1.9-0.6-3.5-1.9-4.8c-1.3-1.3-2.9-1.9-4.9-1.9c-2,0-3.7,0.6-5,1.9c-1.3,1.3-1.9,2.9-1.9,4.8c0,2,0.6,3.6,1.9,4.8
		c1.3,1.2,2.9,1.8,5,1.8c2,0,3.7-0.6,4.9-1.8C150.9,113.8,151.5,112.2,151.5,110.2z M150.6,88.8c0-1.6-0.6-3-1.7-4
		c-1.2-1.1-2.5-1.6-4.2-1.6c-1.8,0-3.2,0.5-4.2,1.6c-1.1,1.1-1.6,2.4-1.6,4c0,1.6,0.5,2.9,1.6,4.1c1,1.2,2.5,1.7,4.3,1.7
		c1.7,0,3.1-0.6,4.2-1.7C150.1,91.7,150.6,90.4,150.6,88.8z"/>
	<path class="st1" d="M209,91.7c0,2.9-0.5,5.6-1.5,8c-1,2.4-2.3,4.8-4,7.3l-11.9,17.7h-14.1l12.2-17l0.1-0.2
		c-0.5,0.2-1.1,0.3-1.7,0.4c-0.6,0.1-1.2,0.1-1.8,0.1c-2.2,0-4.2-0.4-6.2-1.1s-3.7-1.9-5.1-3.3c-1.5-1.4-2.7-3.1-3.5-5.1
		c-0.9-2-1.3-4.2-1.3-6.6c0-2.8,0.5-5.3,1.5-7.5c1-2.2,2.4-4.1,4.2-5.6c1.8-1.5,3.8-2.7,6.2-3.5c2.4-0.8,4.9-1.2,7.5-1.2
		c2.7,0,5.2,0.4,7.6,1.2c2.4,0.8,4.4,2,6.1,3.5c1.7,1.5,3.1,3.4,4.1,5.6C208.5,86.6,209,89,209,91.7z M197.4,91.6
		c0-2.1-0.7-4-2.1-5.5c-1.4-1.6-3.2-2.3-5.6-2.3s-4.3,0.7-5.7,2.2c-1.4,1.5-2.1,3.4-2.1,5.7c0,2.2,0.7,4.1,2.1,5.5s3.3,2.2,5.6,2.2
		c2.3,0,4.2-0.7,5.7-2.2C196.6,95.8,197.4,93.9,197.4,91.6z"/>
	<path class="st1" d="M222.9,133.3h-9.4l5.2-19.7h10.9L222.9,133.3z"/>
	<path class="st1" d="M274.7,99.9c0,3.5-0.3,6.8-1,9.9c-0.7,3.2-1.8,5.9-3.3,8.3c-1.5,2.4-3.5,4.3-5.9,5.7c-2.4,1.4-5.4,2.1-8.9,2.1
		s-6.4-0.7-8.9-2.1c-2.5-1.4-4.5-3.3-6-5.7c-1.6-2.4-2.7-5.2-3.4-8.3c-0.7-3.2-1-6.5-1-9.9s0.3-6.8,1-9.9s1.8-5.9,3.4-8.2
		c1.6-2.3,3.6-4.2,6-5.6c2.5-1.4,5.4-2.1,8.9-2.1s6.4,0.7,8.9,2.1c2.4,1.4,4.4,3.3,5.9,5.6c1.5,2.3,2.6,5.1,3.3,8.2
		C274.3,93.1,274.7,96.4,274.7,99.9z M262.7,99.9c0-1.5-0.1-3.2-0.3-5.1c-0.2-1.9-0.5-3.6-1-5.2c-0.5-1.6-1.2-2.9-2.2-4
		c-1-1.1-2.2-1.6-3.7-1.6s-2.8,0.5-3.8,1.6c-1,1.1-1.7,2.4-2.3,4c-0.5,1.6-0.9,3.3-1.1,5.2c-0.2,1.9-0.3,3.5-0.3,5.1
		c0,1.6,0.1,3.3,0.3,5.2c0.2,1.9,0.5,3.6,1.1,5.2c0.5,1.6,1.3,2.9,2.3,4c1,1.1,2.2,1.6,3.8,1.6s2.8-0.5,3.7-1.6
		c0.9-1.1,1.7-2.4,2.2-4c0.5-1.6,0.9-3.3,1-5.2C262.6,103.2,262.7,101.5,262.7,99.9z"/>
	<path class="st1" d="M319.6,99.9c0,3.5-0.3,6.8-1,9.9c-0.7,3.2-1.8,5.9-3.3,8.3c-1.5,2.4-3.5,4.3-5.9,5.7c-2.4,1.4-5.4,2.1-8.9,2.1
		s-6.4-0.7-8.9-2.1c-2.5-1.4-4.5-3.3-6-5.7c-1.6-2.4-2.7-5.2-3.4-8.3c-0.7-3.2-1-6.5-1-9.9s0.3-6.8,1-9.9s1.8-5.9,3.4-8.2
		c1.6-2.3,3.6-4.2,6-5.6c2.5-1.4,5.4-2.1,8.9-2.1s6.4,0.7,8.9,2.1c2.4,1.4,4.4,3.3,5.9,5.6c1.5,2.3,2.6,5.1,3.3,8.2
		C319.2,93.1,319.6,96.4,319.6,99.9z M307.6,99.9c0-1.5-0.1-3.2-0.3-5.1c-0.2-1.9-0.5-3.6-1-5.2c-0.5-1.6-1.2-2.9-2.2-4
		c-1-1.1-2.2-1.6-3.7-1.6s-2.8,0.5-3.8,1.6c-1,1.1-1.7,2.4-2.3,4c-0.5,1.6-0.9,3.3-1.1,5.2c-0.2,1.9-0.3,3.5-0.3,5.1
		c0,1.6,0.1,3.3,0.3,5.2c0.2,1.9,0.5,3.6,1.1,5.2c0.5,1.6,1.3,2.9,2.3,4c1,1.1,2.2,1.6,3.8,1.6s2.8-0.5,3.7-1.6
		c0.9-1.1,1.7-2.4,2.2-4c0.5-1.6,0.9-3.3,1-5.2C307.5,103.2,307.6,101.5,307.6,99.9z"/>
	<path class="st1" d="M364.5,99.9c0,3.5-0.3,6.8-1,9.9c-0.7,3.2-1.8,5.9-3.3,8.3c-1.5,2.4-3.5,4.3-5.9,5.7c-2.4,1.4-5.4,2.1-8.9,2.1
		s-6.4-0.7-8.9-2.1c-2.5-1.4-4.5-3.3-6-5.7c-1.6-2.4-2.7-5.2-3.4-8.3c-0.7-3.2-1-6.5-1-9.9s0.3-6.8,1-9.9s1.8-5.9,3.4-8.2
		c1.6-2.3,3.6-4.2,6-5.6c2.5-1.4,5.4-2.1,8.9-2.1s6.4,0.7,8.9,2.1c2.4,1.4,4.4,3.3,5.9,5.6c1.5,2.3,2.6,5.1,3.3,8.2
		C364.1,93.1,364.5,96.4,364.5,99.9z M352.5,99.9c0-1.5-0.1-3.2-0.3-5.1c-0.2-1.9-0.5-3.6-1-5.2c-0.5-1.6-1.2-2.9-2.2-4
		c-1-1.1-2.2-1.6-3.7-1.6s-2.8,0.5-3.8,1.6c-1,1.1-1.7,2.4-2.3,4c-0.5,1.6-0.9,3.3-1.1,5.2c-0.2,1.9-0.3,3.5-0.3,5.1
		c0,1.6,0.1,3.3,0.3,5.2c0.2,1.9,0.5,3.6,1.1,5.2c0.5,1.6,1.3,2.9,2.3,4c1,1.1,2.2,1.6,3.8,1.6s2.8-0.5,3.7-1.6
		c0.9-1.1,1.7-2.4,2.2-4c0.5-1.6,0.9-3.3,1-5.2C352.4,103.2,352.5,101.5,352.5,99.9z"/>
	<path class="st1" d="M398.3,124.7v-4.5h-0.1c-1.1,1.8-2.7,3.1-4.8,4.1c-2.1,0.9-4.3,1.4-6.6,1.4c-2.6,0-4.9-0.5-7-1.5
		c-2-1-3.8-2.4-5.2-4.1c-1.4-1.7-2.5-3.6-3.2-5.9c-0.7-2.2-1.1-4.5-1.1-7c0-2.4,0.4-4.7,1.1-6.9c0.8-2.2,1.9-4.1,3.3-5.8
		c1.4-1.7,3.1-3,5.1-4c2-1,4.3-1.5,6.8-1.5c2.5,0,4.7,0.5,6.5,1.5c1.8,1,3.1,2,4.1,3.2h0.1V85h-10.4v-6.2h10.4v-6.7h11.4v6.7h3.2V85
		h-3.2v39.6H398.3z M397.9,107.3c0-1.1-0.2-2.2-0.6-3.3c-0.4-1.1-1-2-1.7-2.9c-0.7-0.8-1.6-1.5-2.6-2c-1-0.5-2.2-0.8-3.5-0.8
		c-1.3,0-2.5,0.3-3.5,0.8c-1,0.5-1.9,1.2-2.6,2c-0.7,0.8-1.2,1.8-1.6,2.8c-0.3,1.1-0.5,2.2-0.5,3.3s0.2,2.2,0.5,3.3
		c0.3,1.1,0.9,2.1,1.6,2.9c0.7,0.8,1.6,1.5,2.6,2c1,0.5,2.2,0.8,3.5,0.8c1.3,0,2.5-0.3,3.5-0.8c1-0.5,1.9-1.2,2.6-2
		c0.7-0.8,1.3-1.8,1.7-2.9C397.7,109.5,397.9,108.4,397.9,107.3z"/>
</g>
</svg>
