<svg id="Layer_1" data-name="Layer 1" xmlns="http://www.w3.org/2000/svg" viewBox="0 0 1141 487.99"><title>Image convert makeup convert</title><path d="M102.56,76.37c0,11.54-8.65,18.72-22.49,18.72H69.63v14.28h-12V57.57H80.07C93.91,57.57,102.56,64.75,102.56,76.37Zm-12.13,0c0-5.7-3.7-9-11-9H69.63v18H79.4C86.73,85.32,90.43,82,90.43,76.37Z"/><path d="M158.58,57.57v51.8h-12V88.13H123.06v21.24h-12V57.57h12V78h23.53V57.57Z"/><path d="M205,98.27h-24l-4.59,11.1H164.05l23.09-51.8H199l23.17,51.8H209.57ZM186.7,53.35h-8.51L188,44.91H198.1l9.84,8.44h-8.51l-6.37-4.22Zm14.5,35.82L193,69.33l-8.21,19.84Zm9.11-42.92h-8.37l8.22-9h11.77Z"/><path d="M275.06,57.57v51.8h-9.85L239.39,77.92v31.45H227.55V57.57h9.91L263.22,89V57.57Z"/><path d="M353.2,76.37c0,11.54-8.66,18.72-22.5,18.72H320.27v14.28h-12V57.57H330.7C344.54,57.57,353.2,64.75,353.2,76.37Zm-12.14,0c0-5.7-3.7-9-11-9h-9.77v18H330C337.36,85.32,341.06,82,341.06,76.37Z"/><path d="M409.22,57.57v51.8h-12V88.13H373.7v21.24h-12V57.57h12V78h23.53V57.57Z"/><path d="M421.05,86.58v-29h12V86.13c0,9.85,4.3,13.92,11.55,13.92S456.13,96,456.13,86.13V57.57H468v29c0,15.24-8.73,23.68-23.46,23.68S421.05,101.82,421.05,86.58Zm22.13-36.34c2.89-1.33,3.78-2.81,3.78-4.51s-1.41-3.11-3.48-3.11A7.77,7.77,0,0,0,439.11,44l-2.37-4.67a12.91,12.91,0,0,1,8-2.51c5.25,0,8.88,3.18,8.88,7.92,0,4.21-2.3,7.25-6.81,9.32Z"/><path d="M511.48,67.34H494.9V57.57h45.15v9.77H523.47v42h-12Z"/><path d="M579.49,109.37l-10-14.43h-11v14.43h-12V57.57h22.43c13.84,0,22.49,7.18,22.49,18.8,0,7.77-3.92,13.46-10.65,16.35l11.62,16.65Zm-11.25-42h-9.77v18h9.77c7.33,0,11-3.4,11-9S575.57,67.34,568.24,67.34Z"/><path d="M597.62,83.47c0-15.39,12-26.79,28.34-26.79S654.3,68,654.3,83.47,642.24,110.26,626,110.26,597.62,98.86,597.62,83.47Zm44.55,0c0-9.84-7-16.58-16.21-16.58s-16.21,6.74-16.21,16.58,7,16.58,16.21,16.58S642.17,93.31,642.17,83.47Z"/><path d="M710.84,57.57v51.8H701L675.17,77.92v31.45H663.33V57.57h9.91L699,89V57.57Z"/><path d="M758.12,82.66h11v21c-5.7,4.3-13.55,6.59-21,6.59-16.28,0-28.27-11.18-28.27-26.79s12-26.79,28.5-26.79c9.1,0,16.65,3.11,21.68,8.95l-7.7,7.11A17.51,17.51,0,0,0,749,66.89c-10.07,0-17,6.74-17,16.58,0,9.69,6.88,16.58,16.8,16.58a19.08,19.08,0,0,0,9.32-2.22Z"/><path d="M797,104.27l4.07-9a30.5,30.5,0,0,0,17.1,5.4c7.1,0,10-2.37,10-5.55,0-9.7-30.12-3-30.12-22.28,0-8.8,7.1-16.13,21.83-16.13,6.51,0,13.17,1.55,18,4.59l-3.71,9.1a29.21,29.21,0,0,0-14.35-4.07c-7.11,0-9.84,2.66-9.84,5.92,0,9.55,30.12,3,30.12,22,0,8.66-7.18,16.06-22,16.06C809.92,110.26,801.63,107.82,797,104.27Z"/><path d="M847.88,86.58v-29h12V86.13c0,9.85,4.29,13.92,11.55,13.92S883,96,883,86.13V57.57H894.8v29c0,15.24-8.73,23.68-23.46,23.68S847.88,101.82,847.88,86.58Z"/><path d="M960.07,83.47c0,15.47-12.06,26.79-28.35,26.79s-28.34-11.4-28.34-26.79,12-26.79,28.34-26.79S960.07,68,960.07,83.47Zm-12.14,0c0-9.84-6.95-16.58-16.21-16.58s-16.2,6.74-16.2,16.58,7,16.58,16.2,16.58S947.93,93.31,947.93,83.47ZM925.36,53.35h-8.51l9.84-8.44h10.07l9.84,8.44h-8.51l-6.37-4.22ZM949,46.25h-8.36l8.21-9h11.77Z"/><path d="M979.08,67.34H962.51V57.57h45.14v9.77H991.07v42h-12Z"/><path d="M53.57,193.07l4.07-9a30.5,30.5,0,0,0,17.1,5.4c7.1,0,10-2.37,10-5.55,0-9.7-30.12-3-30.12-22.28,0-8.8,7.1-16.13,21.83-16.13,6.51,0,13.17,1.55,18,4.59l-3.7,9.1a29.24,29.24,0,0,0-14.35-4.07c-7.11,0-9.85,2.66-9.85,5.92,0,9.55,30.12,3,30.12,22,0,8.66-7.18,16.06-22,16.06C66.45,199.06,58.16,196.62,53.57,193.07Z"/><path d="M139,187.07h-24l-4.59,11.1H98l23.09-51.8H133l23.16,51.8H143.56ZM135.2,178,127,158.13,118.77,178Zm-5.85-35.82h-9l10-10.66h12.43Z"/><path d="M209.05,146.37v51.8h-9.84l-25.83-31.45v31.45H161.54v-51.8h9.91l25.76,31.45V146.37Z"/><path d="M256.33,171.46h11v21c-5.7,4.3-13.55,6.59-21,6.59-16.28,0-28.27-11.18-28.27-26.79s12-26.79,28.49-26.79c9.11,0,16.66,3.11,21.69,9l-7.7,7.11a17.51,17.51,0,0,0-13.39-5.85c-10.07,0-16.95,6.74-16.95,16.58,0,9.69,6.88,16.58,16.8,16.58a19.11,19.11,0,0,0,9.32-2.22Z"/><path d="M299.32,146.37h23.54c16.94,0,28.56,10.21,28.56,25.9s-11.62,25.9-28.56,25.9H299.32Zm22.95,42c10.28,0,17-6.14,17-16.06s-6.74-16.06-17-16.06h-11v32.12Z"/><path d="M393.82,187.07H369.77l-4.59,11.1H352.9L376,146.37h11.84L411,198.17H398.41Zm-3.77-9.1-8.22-19.84L373.62,178Z"/><path d="M53.32,273.87h8.39v2H53.32Z"/><path d="M94.38,277.55c0,3.8-2.82,6-8.42,6H75.66v-22.4h9.66c5,0,7.87,2.11,7.87,5.76A5.2,5.2,0,0,1,89.77,272,5.35,5.35,0,0,1,94.38,277.55ZM78,263.08v8.13h7.13c3.58,0,5.66-1.38,5.66-4.06s-2.08-4.07-5.66-4.07Zm14,14.27c0-2.91-2.15-4.19-6.08-4.19H78v8.42h7.9C89.86,281.58,92,280.3,92,277.35Z"/><path d="M114.73,275.11a8.56,8.56,0,1,1-8.54-8.54A8.28,8.28,0,0,1,114.73,275.11Zm-2.31,0c0-3.93-2.65-6.56-6.23-6.56s-6.28,2.63-6.28,6.56,2.69,6.56,6.28,6.56S112.42,279.05,112.42,275.11Zm-9.43-11h-2.12l4.13-4h2.3l4.13,4h-2.11l-3.17-2.66Zm4.54,24.12a1.38,1.38,0,1,1-2.75,0,1.38,1.38,0,0,1,2.75,0Z"/><path d="M128.23,282.5a5.35,5.35,0,0,1-3.55,1.19c-3.17,0-4.93-1.79-4.93-4.9V268.62h-3V266.7h3V263H122v3.68h5.12v1.92H122v10.05c0,2,1,3.07,2.91,3.07a3.72,3.72,0,0,0,2.49-.87Z"/><path d="M157.8,275.11c0,5.12-3.58,8.58-8.38,8.58a7.33,7.33,0,0,1-6.4-3.33v9.38h-2.27v-23h2.17V270a7.34,7.34,0,0,1,6.5-3.46A8.14,8.14,0,0,1,157.8,275.11Zm-2.27,0a6.28,6.28,0,1,0-12.55,0c0,3.94,2.69,6.56,6.28,6.56A6.18,6.18,0,0,0,155.53,275.11Z"/><path d="M177.93,273.77v9.76h-2.27V274c0-3.55-1.86-5.37-5.06-5.37-3.62,0-5.89,2.24-5.89,6.08v8.83h-2.27V259.79h2.27v9.85a7.13,7.13,0,0,1,6.31-3.07C175.11,266.57,177.93,268.94,177.93,273.77Z"/><path d="M196.81,273.1v10.43h-2.18v-2.62c-1,1.72-3,2.78-5.79,2.78-3.81,0-6.14-2-6.14-4.9,0-2.59,1.66-4.76,6.49-4.76h5.35v-1c0-2.88-1.64-4.45-4.77-4.45a8.54,8.54,0,0,0-5.6,2l-1-1.7a10.71,10.71,0,0,1,6.85-2.27C194.34,266.57,196.81,268.75,196.81,273.1Zm-9.86-9h-2.17l4.16-3h2.24l4.16,3h-2.18l-3.1-1.89Zm7.59,14.36v-2.75h-5.28c-3.27,0-4.32,1.28-4.32,3,0,1.95,1.56,3.17,4.25,3.17A5.4,5.4,0,0,0,194.54,278.47Zm.44-17.05h-2l3.87-3.49h2.75Z"/><path d="M218.47,273.77v9.76H216.2V274c0-3.55-1.86-5.37-5.06-5.37-3.61,0-5.88,2.24-5.88,6.08v8.83H203V266.7h2.18v3.1a7.07,7.07,0,0,1,6.4-3.23C215.66,266.57,218.47,268.94,218.47,273.77Z"/><path d="M241.9,282.5a5.38,5.38,0,0,1-3.56,1.19c-3.16,0-4.92-1.79-4.92-4.9V268.62h-3V266.7h3V263h2.27v3.68h5.12v1.92h-5.12v10.05c0,2,1,3.07,2.91,3.07a3.71,3.71,0,0,0,2.49-.87Z"/><path d="M254.5,266.57v2.21c-.19,0-.38,0-.54,0-3.52,0-5.67,2.24-5.67,6.2v8.58H246V266.7h2.18V270C249.25,267.75,251.4,266.57,254.5,266.57Z"/><path d="M256.74,275.11a8.56,8.56,0,1,1,8.58,8.58A8.28,8.28,0,0,1,256.74,275.11Zm14.82,0c0-3.93-2.66-6.56-6.24-6.56s-6.27,2.63-6.27,6.56,2.69,6.56,6.27,6.56S271.56,279.05,271.56,275.11Z"/><path d="M294,273.77v9.76h-2.27V274c0-3.55-1.86-5.37-5.06-5.37-3.61,0-5.88,2.24-5.88,6.08v8.83H278.5V266.7h2.18v3.1a7.07,7.07,0,0,1,6.4-3.23C291.17,266.57,294,268.94,294,273.77Z"/><path d="M315.81,266.7v14.78c0,5.79-2.84,8.42-8.41,8.42-3.07,0-6.08-.93-7.84-2.6l1.15-1.72a10,10,0,0,0,6.62,2.3c4.26,0,6.21-1.95,6.21-6.11v-2.14a7.59,7.59,0,0,1-6.56,3.26c-4.8,0-8.44-3.36-8.44-8.19s3.64-8.13,8.44-8.13a7.6,7.6,0,0,1,6.66,3.36V266.7Zm-2.2,8c0-3.65-2.69-6.15-6.4-6.15a6.16,6.16,0,1,0,6.4,6.15Z"/><path d="M328.23,281.61l1-1.79a10.24,10.24,0,0,0,6,1.88c3.2,0,4.51-1.08,4.51-2.75,0-4.38-10.91-.92-10.91-7.58,0-2.75,2.37-4.8,6.65-4.8a11.43,11.43,0,0,1,6,1.57l-1,1.82a8.65,8.65,0,0,0-5-1.44c-3,0-4.38,1.19-4.38,2.79,0,4.54,10.91,1.12,10.91,7.58,0,2.91-2.56,4.8-6.94,4.8A11.27,11.27,0,0,1,328.23,281.61Z"/><path d="M361.38,266.7v16.83h-2.17v-3.07a6.72,6.72,0,0,1-6,3.23c-4.29,0-7.11-2.4-7.11-7.23V266.7h2.28v9.53c0,3.59,1.85,5.41,5.05,5.41,3.52,0,5.73-2.27,5.73-6.11V266.7Z"/><path d="M383.17,275.11a8.56,8.56,0,1,1-8.54-8.54A8.27,8.27,0,0,1,383.17,275.11Zm-2.3,0c0-3.93-2.66-6.56-6.24-6.56s-6.27,2.63-6.27,6.56,2.69,6.56,6.27,6.56S380.87,279.05,380.87,275.11Zm-9.38-11h-2.17l4.16-3h2.24l4.16,3H377.7l-3.1-1.89Zm8-2.69h-2l3.87-3.49h2.75Z"/><path d="M396.68,282.5a5.37,5.37,0,0,1-3.55,1.19c-3.17,0-4.93-1.79-4.93-4.9V268.62h-3V266.7h3V263h2.27v3.68h5.12v1.92h-5.12v10.05c0,2,1,3.07,2.91,3.07a3.75,3.75,0,0,0,2.5-.87Z"/><path d="M403.08,281.93a5.29,5.29,0,0,1-.45,1.86l-1.34,4.41h-1.54l1.09-4.64a1.62,1.62,0,0,1-1.15-1.63,1.7,1.7,0,1,1,3.39,0Z"/><path d="M444.07,273.77v9.76h-2.28V274c0-3.55-1.79-5.37-4.83-5.37-3.45,0-5.63,2.24-5.63,6.08v8.83h-2.27V274c0-3.55-1.79-5.37-4.86-5.37-3.43,0-5.64,2.24-5.64,6.08v8.83h-2.27V266.7h2.18v3.07a6.79,6.79,0,0,1,6.17-3.2c2.79,0,5,1.18,6,3.55a7.32,7.32,0,0,1,6.65-3.55C441.38,266.57,444.07,268.94,444.07,273.77Z"/><path d="M448.61,275.11a8.56,8.56,0,1,1,8.58,8.58A8.28,8.28,0,0,1,448.61,275.11Zm14.82,0c0-3.93-2.66-6.56-6.24-6.56s-6.27,2.63-6.27,6.56,2.68,6.56,6.27,6.56S463.43,279.05,463.43,275.11Zm-6.66-11.77c1.28-.58,1.89-1.31,1.89-2.27a1.62,1.62,0,0,0-1.76-1.57,3.38,3.38,0,0,0-1.92.61l-.54-1.12a4.44,4.44,0,0,1,2.65-.83,2.74,2.74,0,0,1,3,2.75c0,1.5-.83,2.62-2.56,3.42Z"/><path d="M485.86,273.77v9.76h-2.27V274c0-3.55-1.86-5.37-5.06-5.37-3.61,0-5.89,2.24-5.89,6.08v8.83h-2.27V266.7h2.18v3.1a7.06,7.06,0,0,1,6.4-3.23C483,266.57,485.86,268.94,485.86,273.77Z"/><path d="M507.68,266.7v14.78c0,5.79-2.85,8.42-8.41,8.42-3.07,0-6.08-.93-7.84-2.6l1.15-1.72a10,10,0,0,0,6.62,2.3c4.26,0,6.21-1.95,6.21-6.11v-2.14a7.59,7.59,0,0,1-6.56,3.26c-4.8,0-8.45-3.36-8.45-8.19s3.65-8.13,8.45-8.13a7.6,7.6,0,0,1,6.66,3.36V266.7Zm-2.21,8c0-3.65-2.68-6.15-6.39-6.15a6.16,6.16,0,1,0,6.39,6.15Z"/><path d="M537.92,273.77v9.76h-2.27V274c0-3.55-1.86-5.37-5.06-5.37-3.61,0-5.88,2.24-5.88,6.08v8.83h-2.27V266.7h2.17v3.1a7.07,7.07,0,0,1,6.4-3.23C535.11,266.57,537.92,268.94,537.92,273.77Z"/><path d="M559.59,273.77v9.76h-2.28V274c0-3.55-1.85-5.37-5-5.37-3.62,0-5.89,2.24-5.89,6.08v8.83H544.1V259.79h2.27v9.85a7.12,7.12,0,0,1,6.3-3.07C556.77,266.57,559.59,268.94,559.59,273.77Z"/><path d="M580.48,275.82H566.4c.26,3.52,3,5.85,6.63,5.85a6.64,6.64,0,0,0,5.15-2.2l1.28,1.47a8.3,8.3,0,0,1-6.5,2.75c-5.25,0-8.83-3.58-8.83-8.58s3.49-8.54,8.22-8.54,8.16,3.49,8.16,8.54C580.51,275.31,580.48,275.56,580.48,275.82Zm-14.08-1.7h11.94a6,6,0,0,0-11.94,0Zm7.33,14.11a1.38,1.38,0,1,1-1.38-1.37A1.35,1.35,0,0,1,573.73,288.23Z"/><path d="M587.11,281.93a5.29,5.29,0,0,1-.45,1.86l-1.35,4.41h-1.53l1.09-4.64a1.61,1.61,0,0,1-1.16-1.63,1.7,1.7,0,1,1,3.4,0Z"/><path d="M628.1,273.77v9.76h-2.28V274c0-3.55-1.79-5.37-4.83-5.37-3.45,0-5.63,2.24-5.63,6.08v8.83h-2.27V274c0-3.55-1.79-5.37-4.86-5.37-3.43,0-5.64,2.24-5.64,6.08v8.83h-2.27V266.7h2.18v3.07a6.79,6.79,0,0,1,6.17-3.2c2.79,0,5,1.18,6,3.55a7.32,7.32,0,0,1,6.65-3.55C625.41,266.57,628.1,268.94,628.1,273.77Z"/><path d="M649,275.82H634.91c.26,3.52,3,5.85,6.63,5.85a6.64,6.64,0,0,0,5.15-2.2l1.28,1.47a8.3,8.3,0,0,1-6.5,2.75c-5.24,0-8.83-3.58-8.83-8.58s3.49-8.54,8.22-8.54,8.16,3.49,8.16,8.54C649,275.31,649,275.56,649,275.82Zm-14.08-1.7h11.94a6,6,0,0,0-11.94,0Zm2.85-10h-2.18l4.17-3H642l4.16,3H644l-3.11-1.89Zm7.94-2.69-4.64-3.49h2.78l3.84,3.49Z"/><path d="M681.44,273.77v9.76h-2.27V274c0-3.55-1.79-5.37-4.83-5.37-3.46,0-5.64,2.24-5.64,6.08v8.83h-2.27V274c0-3.55-1.79-5.37-4.86-5.37-3.43,0-5.63,2.24-5.63,6.08v8.83h-2.27V266.7h2.17v3.07a6.8,6.8,0,0,1,6.18-3.2c2.78,0,5,1.18,6,3.55a7.35,7.35,0,0,1,6.66-3.55C678.75,266.57,681.44,268.94,681.44,273.77Z"/><path d="M723.77,273.77v9.76H721.5V274c0-3.55-1.79-5.37-4.83-5.37-3.46,0-5.63,2.24-5.63,6.08v8.83h-2.27V274c0-3.55-1.79-5.37-4.87-5.37-3.42,0-5.63,2.24-5.63,6.08v8.83H696V266.7h2.18v3.07a6.79,6.79,0,0,1,6.17-3.2c2.79,0,5,1.18,6,3.55a7.35,7.35,0,0,1,6.66-3.55C721.09,266.57,723.77,268.94,723.77,273.77Z"/><path d="M729.44,261.39a1.64,1.64,0,0,1,1.66-1.6,1.61,1.61,0,0,1,1.67,1.56,1.67,1.67,0,0,1-3.33,0Zm.29,26.84a1.38,1.38,0,1,1,1.37,1.38A1.34,1.34,0,0,1,729.73,288.23ZM730,266.7h2.27v16.83H730Z"/><path d="M754.05,273.77v9.76h-2.28V274c0-3.55-1.85-5.37-5-5.37-3.62,0-5.89,2.24-5.89,6.08v8.83h-2.27V266.7h2.18v3.1a7.05,7.05,0,0,1,6.4-3.23C751.23,266.57,754.05,268.94,754.05,273.77Z"/><path d="M758.75,281.93a1.7,1.7,0,0,1,1.7-1.73,1.72,1.72,0,0,1,1.73,1.73,1.75,1.75,0,0,1-1.73,1.76A1.73,1.73,0,0,1,758.75,281.93Z"/><path d="M53.32,319.87h8.39v2H53.32Z"/><path d="M91.43,318.33H93.7v8.54a12.34,12.34,0,0,1-8.22,2.85c-6.81,0-11.81-4.83-11.81-11.39s5-11.39,11.84-11.39a11,11,0,0,1,8.32,3.23l-1.47,1.51a9.13,9.13,0,0,0-6.75-2.63c-5.54,0-9.6,3.94-9.6,9.28a9.18,9.18,0,0,0,9.57,9.28,9.68,9.68,0,0,0,5.85-1.73Z"/><path d="M99.4,307.39a1.64,1.64,0,0,1,1.67-1.6,1.61,1.61,0,0,1,1.66,1.57,1.63,1.63,0,0,1-1.66,1.66A1.65,1.65,0,0,1,99.4,307.39Zm.51,5.31h2.28v16.83H99.91Z"/><path d="M123.69,314.33v15.2h-2.18v-3.07a6.69,6.69,0,0,1-6.05,3.23c-4.28,0-7.1-2.4-7.1-7.23V312.7h2.27v9.53c0,3.59,1.86,5.41,5.06,5.41,3.52,0,5.73-2.27,5.73-6.11V312.7h1.18a2,2,0,0,0,2.11-2.14,3.5,3.5,0,0,0-.64-2.05l1.51-.58a4.67,4.67,0,0,1,.83,2.69A3.44,3.44,0,0,1,123.69,314.33Zm-11.33-4.54H111c.06-2.15,1.18-3.52,2.87-3.52,2,0,3,2.17,4.2,2.17,1,0,1.6-.76,1.66-2h1.38c-.07,2.08-1.19,3.46-2.88,3.46-2,0-2.92-2.18-4.2-2.18C113.06,307.74,112.42,308.51,112.36,309.79Z"/><path d="M138.63,305.79h2.27v23.74h-2.27Z"/><path d="M162.66,321.12a8.56,8.56,0,1,1-8.54-8.55c1.73,0,2.43.19,4,.19,1.79,0,2.59-1.05,2.59-2.24a3.85,3.85,0,0,0-.64-2l1.47-.58a5.09,5.09,0,0,1,.87,2.69,3.56,3.56,0,0,1-3.08,3.61A8.31,8.31,0,0,1,162.66,321.12Zm-2.3,0c0-3.94-2.66-6.56-6.24-6.56s-6.27,2.62-6.27,6.56,2.69,6.55,6.27,6.55S160.36,325.05,160.36,321.12Zm-6.08-11H152l4.38-4h3Z"/><path d="M184.36,321.12a8.15,8.15,0,0,1-8.38,8.57,7.33,7.33,0,0,1-6.4-3.33v9.38H167.3v-23h2.18V316a7.34,7.34,0,0,1,6.5-3.46A8.14,8.14,0,0,1,184.36,321.12Zm-2.27,0a6.28,6.28,0,1,0-6.27,6.55A6.19,6.19,0,0,0,182.09,321.12Z"/><path d="M206.25,328.51a5.41,5.41,0,0,1-3.55,1.18c-3.17,0-4.93-1.79-4.93-4.9V314.62h-3V312.7h3V309H200v3.68h5.12v1.92H200v10.05c0,2,1,3.07,2.91,3.07a3.75,3.75,0,0,0,2.5-.87Z"/><path d="M218.86,312.57v2.21c-.2,0-.39,0-.55,0-3.52,0-5.66,2.24-5.66,6.2v8.58h-2.27V312.7h2.17V316C213.61,313.76,215.75,312.57,218.86,312.57Z"/><path d="M235.62,319.1v10.43h-2.17v-2.62c-1,1.72-3,2.78-5.79,2.78-3.81,0-6.15-2-6.15-4.9,0-2.59,1.67-4.76,6.5-4.76h5.34v-1c0-2.88-1.63-4.44-4.77-4.44a8.57,8.57,0,0,0-5.6,2l-1-1.7a10.69,10.69,0,0,1,6.85-2.27C233.16,312.57,235.62,314.75,235.62,319.1Zm-2.27,5.37v-2.75h-5.28c-3.26,0-4.32,1.28-4.32,3,0,1.95,1.57,3.17,4.26,3.17A5.38,5.38,0,0,0,233.35,324.47Z"/><path d="M257.29,319.77v9.76H255V320c0-3.55-1.85-5.37-5-5.37-3.62,0-5.89,2.24-5.89,6.08v8.83H241.8V312.7H244v3.1a7.07,7.07,0,0,1,6.4-3.23C254.47,312.57,257.29,314.94,257.29,319.77Z"/><path d="M279.11,312.7v14.78c0,5.79-2.85,8.42-8.42,8.42-3.07,0-6.07-.93-7.83-2.59l1.15-1.73a10,10,0,0,0,6.62,2.3c4.26,0,6.21-1.95,6.21-6.11v-2.14a7.59,7.59,0,0,1-6.56,3.26c-4.8,0-8.45-3.36-8.45-8.19s3.65-8.13,8.45-8.13a7.58,7.58,0,0,1,6.65,3.36V312.7Zm-2.21,8c0-3.65-2.69-6.14-6.4-6.14s-6.37,2.49-6.37,6.14a6.39,6.39,0,0,0,12.77,0Z"/><path d="M312.39,310.11h-3.17v19.42h-2.17V326.2a7.31,7.31,0,0,1-6.5,3.49,8.56,8.56,0,0,1,0-17.12,7.34,7.34,0,0,1,6.4,3.33v-5.79h-7v-1.67h7v-2.65h2.27v2.65h3.17Zm-5.41,11c0-3.94-2.69-6.56-6.24-6.56s-6.27,2.62-6.27,6.56,2.69,6.55,6.27,6.55S307,325.05,307,321.12Z"/><path d="M315.05,307.39a1.63,1.63,0,0,1,1.66-1.6,1.61,1.61,0,0,1,1.66,1.57,1.66,1.66,0,0,1-3.32,0Zm.51,5.31h2.27v16.83h-2.27Z"/><path d="M338.82,321.82H324.74c.26,3.52,2.95,5.85,6.63,5.85a6.64,6.64,0,0,0,5.15-2.2l1.28,1.47a8.3,8.3,0,0,1-6.5,2.75c-5.25,0-8.83-3.58-8.83-8.57s3.49-8.55,8.22-8.55,8.16,3.49,8.16,8.55C338.85,321.31,338.82,321.56,338.82,321.82Zm-14.08-1.7h11.94a6,6,0,0,0-11.94,0Zm2.85-10h-2.18l4.16-3h2.24l4.16,3H333.8l-3.11-1.89Zm5.34-5.22-.48-.93a3.81,3.81,0,0,1,2.05-.6,2.07,2.07,0,0,1,2.31,2.08,2.76,2.76,0,0,1-1.89,2.52l-.67-.8c.86-.41,1.34-1,1.34-1.6s-.54-1.05-1.28-1.05A2.79,2.79,0,0,0,332.93,304.89Z"/><path d="M371.27,319.77v9.76H369V320c0-3.55-1.8-5.37-4.84-5.37-3.45,0-5.63,2.24-5.63,6.08v8.83h-2.27V320c0-3.55-1.79-5.37-4.86-5.37-3.43,0-5.63,2.24-5.63,6.08v8.83h-2.28V312.7h2.18v3.07a6.82,6.82,0,0,1,6.18-3.2c2.78,0,4.95,1.19,6,3.55a7.32,7.32,0,0,1,6.65-3.55C368.58,312.57,371.27,314.94,371.27,319.77Z"/><path d="M385.83,305.79h2.27v23.74h-2.27Z"/><path d="M407.14,319.1v10.43H405v-2.62c-1,1.72-3,2.78-5.79,2.78-3.8,0-6.14-2-6.14-4.9,0-2.59,1.66-4.76,6.49-4.76h5.35v-1c0-2.88-1.63-4.44-4.77-4.44a8.55,8.55,0,0,0-5.6,2l-1-1.7a10.67,10.67,0,0,1,6.85-2.27C404.68,312.57,407.14,314.75,407.14,319.1Zm-9.92-9h-2.11l4.13-4h2.3l4.13,4h-2.11l-3.17-2.66Zm7.65,14.36v-2.75h-5.28c-3.26,0-4.32,1.28-4.32,3,0,1.95,1.57,3.17,4.25,3.17A5.4,5.4,0,0,0,404.87,324.47Z"/><path d="M428.48,312.7v16.83h-2.17v-3.07a6.7,6.7,0,0,1-6.05,3.23c-4.29,0-7.1-2.4-7.1-7.23V312.7h2.27v9.53c0,3.59,1.86,5.41,5.05,5.41,3.52,0,5.73-2.27,5.73-6.11V312.7Z"/><path d="M452.1,328.51a5.41,5.41,0,0,1-3.55,1.18c-3.17,0-4.93-1.79-4.93-4.9V314.62h-3V312.7h3V309h2.27v3.68H451v1.92h-5.12v10.05c0,2,1,3.07,2.91,3.07a3.75,3.75,0,0,0,2.5-.87Z"/><path d="M464.71,312.57v2.21c-.19,0-.39,0-.55,0-3.52,0-5.66,2.24-5.66,6.2v8.58h-2.27V312.7h2.17V316C459.46,313.76,461.6,312.57,464.71,312.57Z"/><path d="M484.07,321.12a8.56,8.56,0,1,1-8.55-8.55A8.28,8.28,0,0,1,484.07,321.12Zm-2.31,0c0-3.94-2.65-6.56-6.24-6.56s-6.27,2.62-6.27,6.56,2.69,6.55,6.27,6.55S481.76,325.05,481.76,321.12Zm-9.44-11h-2.11l4.13-4h2.3l4.13,4h-2.11l-3.17-2.66Z"/><path d="M488.2,307.39a1.63,1.63,0,0,1,1.66-1.6,1.61,1.61,0,0,1,1.66,1.57,1.66,1.66,0,0,1-3.32,0Zm.51,5.31H491v16.83h-2.27Z"/><path d="M495.84,327.93a1.7,1.7,0,0,1,1.7-1.73,1.72,1.72,0,0,1,1.73,1.73,1.75,1.75,0,0,1-1.73,1.76A1.73,1.73,0,0,1,495.84,327.93Z"/><path d="M53.32,365.87h8.39v2H53.32Z"/><path d="M82.6,365,78,369.64v5.89H75.66v-22.4H78v13.54l13.15-13.54H93.9l-9.7,10.15,10.37,12.25H91.75Z"/><path d="M97.1,353.39A1.67,1.67,0,1,1,98.76,355,1.63,1.63,0,0,1,97.1,353.39Zm.51,5.31h2.27v16.83H97.61Z"/><path d="M120.87,367.82H106.79c.26,3.52,2.95,5.85,6.63,5.85a6.64,6.64,0,0,0,5.15-2.2l1.28,1.47a8.3,8.3,0,0,1-6.5,2.75c-5.24,0-8.83-3.58-8.83-8.57s3.49-8.55,8.23-8.55,8.15,3.49,8.15,8.55C120.9,367.31,120.87,367.56,120.87,367.82Zm-14.08-1.7h11.94a6,6,0,0,0-11.94,0Zm2.85-10h-2.17l4.15-3h2.25l4.15,3h-2.17l-3.1-1.89Zm7.94-2.69-4.64-3.49h2.78l3.84,3.49Z"/><path d="M153.32,365.77v9.76h-2.27V366c0-3.55-1.79-5.37-4.83-5.37-3.46,0-5.64,2.24-5.64,6.08v8.83h-2.27V366c0-3.55-1.79-5.37-4.86-5.37-3.43,0-5.63,2.24-5.63,6.08v8.83h-2.28V358.7h2.18v3.07a6.83,6.83,0,0,1,6.18-3.2c2.78,0,5,1.19,6,3.55a7.35,7.35,0,0,1,6.66-3.55C150.63,358.57,153.32,360.94,153.32,365.77Z"/><path d="M183.24,351.79v23.74h-2.18V372.2a7.28,7.28,0,0,1-6.49,3.49,8.56,8.56,0,0,1,0-17.12,7.34,7.34,0,0,1,6.4,3.33V351.79ZM181,367.12c0-3.94-2.69-6.56-6.24-6.56s-6.27,2.62-6.27,6.56,2.69,6.55,6.27,6.55S181,371.05,181,367.12Z"/><path d="M202.28,365.1v10.43H200.1v-2.62c-1,1.72-3,2.78-5.79,2.78-3.81,0-6.14-2-6.14-4.9,0-2.59,1.66-4.76,6.49-4.76H200v-1c0-2.88-1.63-4.44-4.77-4.44a8.55,8.55,0,0,0-5.6,2l-1-1.7a10.66,10.66,0,0,1,6.84-2.27C199.82,358.57,202.28,360.75,202.28,365.1Zm-9.86-9h-2.17l4.16-3h2.24l4.16,3h-2.18l-3.1-1.89ZM200,370.47v-2.75h-5.28c-3.27,0-4.32,1.28-4.32,3,0,1.95,1.57,3.17,4.25,3.17A5.4,5.4,0,0,0,200,370.47Zm.35-17.05-4.64-3.49h2.78l3.84,3.49Z"/><path d="M223.62,358.7v16.83h-2.17v-3.07a6.7,6.7,0,0,1-6,3.23c-4.29,0-7.1-2.4-7.1-7.23V358.7h2.27v9.53c0,3.59,1.85,5.41,5.05,5.41,3.52,0,5.73-2.27,5.73-6.11V358.7Z"/><path d="M231.94,373.93a5.23,5.23,0,0,1-.44,1.86l-1.35,4.41h-1.53l1.08-4.64a1.62,1.62,0,0,1-1.15-1.63,1.7,1.7,0,1,1,3.39,0Z"/><path d="M262.21,367.12a8.15,8.15,0,0,1-8.38,8.57,7.34,7.34,0,0,1-6.4-3.33v9.38h-2.27v-23h2.17V362a7.35,7.35,0,0,1,6.5-3.46A8.14,8.14,0,0,1,262.21,367.12Zm-2.27,0a6.28,6.28,0,1,0-12.54,0c0,3.93,2.69,6.55,6.27,6.55A6.18,6.18,0,0,0,259.94,367.12Z"/><path d="M282.34,365.77v9.76h-2.27V366c0-3.55-1.86-5.37-5.06-5.37-3.61,0-5.88,2.24-5.88,6.08v8.83h-2.27V351.79h2.27v9.85a7.11,7.11,0,0,1,6.3-3.07C279.53,358.57,282.34,360.94,282.34,365.77Z"/><path d="M303.69,358.7v16.83h-2.18v-3.07a6.69,6.69,0,0,1-6.05,3.23c-4.29,0-7.1-2.4-7.1-7.23V358.7h2.27v9.53c0,3.59,1.86,5.41,5.06,5.41,3.52,0,5.72-2.27,5.72-6.11V358.7Zm-9.83-6.59-.54-1.12a4.46,4.46,0,0,1,2.65-.83,2.73,2.73,0,0,1,3,2.75c0,1.5-.83,2.62-2.56,3.42l-.8-1c1.28-.58,1.89-1.31,1.89-2.27a1.62,1.62,0,0,0-1.76-1.57A3.38,3.38,0,0,0,293.86,352.11Z"/><path d="M346.21,365.77v9.76h-2.27V366c0-3.55-1.79-5.37-4.83-5.37-3.46,0-5.63,2.24-5.63,6.08v8.83h-2.27V366c0-3.55-1.8-5.37-4.87-5.37-3.42,0-5.63,2.24-5.63,6.08v8.83h-2.27V358.7h2.17v3.07a6.83,6.83,0,0,1,6.18-3.2c2.78,0,5,1.19,6,3.55a7.35,7.35,0,0,1,6.66-3.55C343.52,358.57,346.21,360.94,346.21,365.77Z"/><path d="M367.88,367.12a8.56,8.56,0,1,1-8.55-8.55c1.73,0,2.44.19,4,.19,1.79,0,2.59-1.05,2.59-2.24a3.85,3.85,0,0,0-.64-2l1.47-.58a5,5,0,0,1,.87,2.69,3.56,3.56,0,0,1-3.07,3.61A8.31,8.31,0,0,1,367.88,367.12Zm-2.31,0c0-3.94-2.65-6.56-6.24-6.56s-6.27,2.62-6.27,6.56,2.69,6.55,6.27,6.55S365.57,371.05,365.57,367.12Zm-6.4-11-5.18-4h3l4.38,4Z"/><path d="M396.39,365.77v9.76h-2.27V366c0-3.55-1.86-5.37-5.06-5.37-3.61,0-5.89,2.24-5.89,6.08v8.83H380.9V358.7h2.18v3.1a7.08,7.08,0,0,1,6.4-3.23C393.57,358.57,396.39,360.94,396.39,365.77Z"/><path d="M417.32,367.12c0,.19,0,.44,0,.7H403.21c.25,3.52,2.94,5.85,6.62,5.85a6.63,6.63,0,0,0,5.15-2.2l1.28,1.47a8.29,8.29,0,0,1-6.5,2.75c-5.24,0-8.83-3.58-8.83-8.57s3.49-8.55,8.23-8.55S417.32,362.06,417.32,367.12Zm-14.11-1h11.93a6,6,0,0,0-11.93,0Zm2.84-10h-2.17l4.16-3h2.24l4.16,3h-2.18l-3.1-1.89Zm8-2.69h-2l3.87-3.49h2.75Z"/><path d="M439,367.12a8.15,8.15,0,0,1-8.38,8.57,7.34,7.34,0,0,1-6.4-3.33v9.38H422v-23h2.17V362a7.34,7.34,0,0,1,6.5-3.46A8.14,8.14,0,0,1,439,367.12Zm-2.27,0a6.19,6.19,0,0,0-6.27-6.56c-3.59,0-6.27,2.65-6.27,6.56s2.68,6.55,6.27,6.55A6.18,6.18,0,0,0,436.74,367.12Z"/><path d="M467.52,365.77v9.76h-2.27V366c0-3.55-1.85-5.37-5.05-5.37-3.62,0-5.89,2.24-5.89,6.08v8.83H452V358.7h2.17v3.1a7.1,7.1,0,0,1,6.4-3.23C464.71,358.57,467.52,360.94,467.52,365.77Z"/><path d="M489.19,365.77v9.76h-2.27V366c0-3.55-1.86-5.37-5.06-5.37-3.62,0-5.89,2.24-5.89,6.08v8.83H473.7V351.79H476v9.85a7.13,7.13,0,0,1,6.31-3.07C486.37,358.57,489.19,360.94,489.19,365.77Z"/><path d="M508.07,365.1v10.43h-2.18v-2.62c-1,1.72-3,2.78-5.79,2.78-3.81,0-6.14-2-6.14-4.9,0-2.59,1.66-4.76,6.49-4.76h5.34v-1c0-2.88-1.63-4.44-4.76-4.44a8.53,8.53,0,0,0-5.6,2l-1-1.7a10.71,10.71,0,0,1,6.85-2.27C505.6,358.57,508.07,360.75,508.07,365.1Zm-2.28,5.37v-2.75h-5.27c-3.27,0-4.32,1.28-4.32,3,0,1.95,1.56,3.17,4.25,3.17A5.38,5.38,0,0,0,505.79,370.47Zm-9.34-18.33h1.6c.07,1.7,1.47,2.72,3.27,2.72s3.19-1,3.26-2.72h1.6c-.1,2.56-2.18,4.13-4.86,4.13S496.55,354.7,496.45,352.14Z"/><path d="M529.73,365.77v9.76h-2.27V366c0-3.55-1.86-5.37-5.06-5.37-3.61,0-5.88,2.24-5.88,6.08v8.83h-2.28V358.7h2.18v3.1a7.1,7.1,0,0,1,6.4-3.23C526.91,358.57,529.73,360.94,529.73,365.77Z"/><path d="M558.43,358.7,551,375.53h-2.34l-7.45-16.83h2.36L549.83,373l6.36-14.33Z"/><path d="M573.83,365.1v10.43h-2.18v-2.62c-1,1.72-3,2.78-5.79,2.78-3.81,0-6.15-2-6.15-4.9,0-2.59,1.67-4.76,6.5-4.76h5.34v-1c0-2.88-1.63-4.44-4.76-4.44a8.53,8.53,0,0,0-5.6,2l-1-1.7a10.69,10.69,0,0,1,6.85-2.27C571.36,358.57,573.83,360.75,573.83,365.1Zm-6.92-9-5.18-4h3l4.38,4Zm4.64,14.36v-2.75h-5.28c-3.26,0-4.31,1.28-4.31,3,0,1.95,1.56,3.17,4.25,3.17A5.38,5.38,0,0,0,571.55,370.47Z"/><path d="M588.39,351.79h2.27v23.74h-2.27Z"/><path d="M612.42,367.12a8.56,8.56,0,1,1-8.55-8.55A8.28,8.28,0,0,1,612.42,367.12Zm-2.31,0c0-3.94-2.65-6.56-6.24-6.56s-6.27,2.62-6.27,6.56,2.69,6.55,6.27,6.55S610.11,371.05,610.11,367.12Zm-9.37-11h-2.18l4.16-3H605l4.16,3H607l-3.11-1.89Zm-.48-4.16h-1.38a2.72,2.72,0,0,1,2.85-2.95c1.89,0,2.88,1.73,4.16,1.73a1.46,1.46,0,0,0,1.57-1.57h1.34a2.7,2.7,0,0,1-2.81,2.92c-2,0-2.92-1.73-4.2-1.73A1.44,1.44,0,0,0,600.26,352Z"/><path d="M623.75,367.12a8.28,8.28,0,0,1,8.67-8.55A7.34,7.34,0,0,1,639,361.9l-1.7,1.15a5.72,5.72,0,0,0-4.89-2.49,6.56,6.56,0,0,0,0,13.11,5.67,5.67,0,0,0,4.89-2.46l1.7,1.15a7.4,7.4,0,0,1-6.59,3.33A8.3,8.3,0,0,1,623.75,367.12Z"/><path d="M658.69,365.77v9.76h-2.27V366c0-3.55-1.86-5.37-5.06-5.37-3.61,0-5.89,2.24-5.89,6.08v8.83H643.2V351.79h2.27v9.85a7.13,7.13,0,0,1,6.31-3.07C655.87,358.57,658.69,360.94,658.69,365.77Z"/><path d="M677.57,365.1v10.43h-2.18v-2.62c-1,1.72-3,2.78-5.79,2.78-3.81,0-6.14-2-6.14-4.9,0-2.59,1.66-4.76,6.49-4.76h5.35v-1c0-2.88-1.63-4.44-4.77-4.44a8.55,8.55,0,0,0-5.6,2l-1-1.7a10.66,10.66,0,0,1,6.84-2.27C675.1,358.57,677.57,360.75,677.57,365.1Zm-9.92-9h-2.11l4.13-4H672l4.13,4H674l-3.16-2.66Zm7.65,14.36v-2.75H670c-3.27,0-4.32,1.28-4.32,3,0,1.95,1.57,3.17,4.25,3.17A5.4,5.4,0,0,0,675.3,370.47Z"/><path d="M699.23,365.77v9.76H697V366c0-3.55-1.86-5.37-5.06-5.37-3.61,0-5.88,2.24-5.88,6.08v8.83h-2.27V358.7h2.17v3.1a7.1,7.1,0,0,1,6.4-3.23C696.42,358.57,699.23,360.94,699.23,365.77Z"/><path d="M713.79,351.79h2.27v23.74h-2.27Z"/><path d="M737.82,367.12a8.56,8.56,0,1,1-8.54-8.55A8.27,8.27,0,0,1,737.82,367.12Zm-2.3,0c0-3.94-2.66-6.56-6.24-6.56s-6.27,2.62-6.27,6.56,2.69,6.55,6.27,6.55S735.52,371.05,735.52,367.12Zm-9.44-11H724l4.13-4h2.3l4.13,4h-2.11l-3.17-2.66Z"/><path d="M758,365.77v9.76h-2.27V366c0-3.55-1.86-5.37-5.06-5.37-3.61,0-5.88,2.24-5.88,6.08v8.83h-2.28V358.7h2.18v3.1a7.1,7.1,0,0,1,6.4-3.23C755.14,358.57,758,360.94,758,365.77Z"/><path d="M779.78,358.7v14.78c0,5.79-2.85,8.42-8.42,8.42-3.07,0-6.08-.93-7.84-2.59l1.15-1.73a10,10,0,0,0,6.63,2.3c4.25,0,6.2-1.95,6.2-6.11v-2.14a7.56,7.56,0,0,1-6.56,3.26c-4.8,0-8.44-3.36-8.44-8.19s3.64-8.13,8.44-8.13a7.6,7.6,0,0,1,6.66,3.36V358.7Zm-2.21,8c0-3.65-2.69-6.14-6.4-6.14s-6.37,2.49-6.37,6.14a6.39,6.39,0,0,0,12.77,0Z"/><path d="M784.67,373.93a1.7,1.7,0,0,1,1.7-1.73,1.72,1.72,0,0,1,1.73,1.73,1.75,1.75,0,0,1-1.73,1.76A1.73,1.73,0,0,1,784.67,373.93Z"/><path d="M53.32,411.87h8.39v2H53.32Z"/><path d="M80,401.18H72.14v-2.05H90.25v2.05H82.38v20.35H80Z"/><path d="M105.32,411.1v10.43h-2.18v-2.62c-1,1.72-3,2.78-5.79,2.78-3.8,0-6.14-2-6.14-4.9,0-2.59,1.66-4.76,6.5-4.76h5.34v-1c0-2.88-1.63-4.44-4.77-4.44a8.57,8.57,0,0,0-5.6,2l-1-1.7a10.66,10.66,0,0,1,6.84-2.27C102.86,404.57,105.32,406.75,105.32,411.1Zm-2.27,5.37v-2.75H97.77c-3.26,0-4.32,1.28-4.32,3,0,1.95,1.57,3.17,4.26,3.17A5.39,5.39,0,0,0,103.05,416.47Zm-3,9.76a1.38,1.38,0,1,1-1.38-1.37A1.35,1.35,0,0,1,100,426.23Z"/><path d="M109.87,413.12a8.56,8.56,0,1,1,8.57,8.57A8.27,8.27,0,0,1,109.87,413.12Zm14.81,0c0-3.94-2.66-6.56-6.24-6.56s-6.27,2.62-6.27,6.56,2.69,6.55,6.27,6.55S124.68,417.05,124.68,413.12Z"/><path d="M155.5,411.77v9.76h-2.28V412c0-3.55-1.85-5.37-5.05-5.37-3.62,0-5.89,2.24-5.89,6.08v8.83H140V397.79h2.27v9.85a7.12,7.12,0,0,1,6.3-3.07C152.68,404.57,155.5,406.94,155.5,411.77Z"/><path d="M161.16,399.39a1.64,1.64,0,0,1,1.66-1.6,1.62,1.62,0,0,1,1.67,1.57,1.67,1.67,0,0,1-3.33,0Zm.51,5.31h2.27v16.83h-2.27Z"/><path d="M184.94,413.82H170.86c.25,3.52,2.94,5.85,6.62,5.85a6.63,6.63,0,0,0,5.15-2.2l1.28,1.47a8.28,8.28,0,0,1-6.49,2.75c-5.25,0-8.84-3.58-8.84-8.57s3.49-8.55,8.23-8.55,8.16,3.49,8.16,8.55C185,413.31,184.94,413.56,184.94,413.82Zm-14.08-1.7h11.93a6,6,0,0,0-11.93,0Zm2.78-10h-2.11l4.13-4H178l4.13,4H180l-3.17-2.66Zm4.54,24.12a1.38,1.38,0,1,1-1.37-1.37A1.34,1.34,0,0,1,178.18,426.23Z"/><path d="M204.78,404.7v16.83H202.6v-3.07a6.69,6.69,0,0,1-6,3.23c-4.29,0-7.1-2.4-7.1-7.23V404.7h2.27v9.53c0,3.59,1.86,5.41,5.06,5.41,3.52,0,5.72-2.27,5.72-6.11V404.7Z"/><path d="M234.69,406.33v15.2h-2.17v-3.07a6.7,6.7,0,0,1-6.05,3.23c-4.29,0-7.1-2.4-7.1-7.23V404.7h2.27v9.53c0,3.59,1.86,5.41,5.06,5.41,3.51,0,5.72-2.27,5.72-6.11V404.7h1.19a2,2,0,0,0,2.11-2.14,3.57,3.57,0,0,0-.64-2.05l1.5-.58a4.67,4.67,0,0,1,.83,2.69A3.43,3.43,0,0,1,234.69,406.33Zm-7.48-4.22H225l4.38-4h3Z"/><path d="M256.26,411.77v9.76H254V412c0-3.55-1.86-5.37-5.06-5.37-3.61,0-5.88,2.24-5.88,6.08v8.83h-2.27V404.7H243v3.1a7.1,7.1,0,0,1,6.4-3.23C253.45,404.57,256.26,406.94,256.26,411.77Z"/><path d="M278.09,404.7v14.78c0,5.79-2.85,8.42-8.42,8.42-3.07,0-6.08-.93-7.84-2.59l1.15-1.73a10,10,0,0,0,6.63,2.3c4.25,0,6.2-1.95,6.2-6.11v-2.14a7.56,7.56,0,0,1-6.56,3.26c-4.8,0-8.44-3.36-8.44-8.19s3.64-8.13,8.44-8.13a7.6,7.6,0,0,1,6.66,3.36V404.7Zm-2.21,8c0-3.65-2.69-6.14-6.4-6.14s-6.37,2.49-6.37,6.14a6.39,6.39,0,0,0,12.77,0Z"/><path d="M308.2,397.79v23.74H306V418.2a7.28,7.28,0,0,1-6.49,3.49,8.56,8.56,0,0,1,0-17.12,7.36,7.36,0,0,1,6.4,3.33V397.79ZM306,413.12c0-3.94-2.69-6.56-6.24-6.56s-6.27,2.62-6.27,6.56,2.68,6.55,6.27,6.55S306,417.05,306,413.12Z"/><path d="M327.24,411.1v10.43h-2.18v-2.62c-1,1.72-3,2.78-5.79,2.78-3.81,0-6.14-2-6.14-4.9,0-2.59,1.66-4.76,6.49-4.76H325v-1c0-2.88-1.64-4.44-4.77-4.44a8.53,8.53,0,0,0-5.6,2l-1-1.7a10.71,10.71,0,0,1,6.85-2.27C324.77,404.57,327.24,406.75,327.24,411.1ZM325,416.47v-2.75h-5.28c-3.27,0-4.32,1.28-4.32,3,0,1.95,1.56,3.17,4.25,3.17A5.4,5.4,0,0,0,325,416.47Z"/><path d="M339.46,419.61l1-1.79a10.18,10.18,0,0,0,6,1.89c3.2,0,4.51-1.09,4.51-2.76,0-4.38-10.91-.92-10.91-7.58,0-2.75,2.37-4.8,6.66-4.8a11.42,11.42,0,0,1,5.95,1.57l-1,1.82a8.69,8.69,0,0,0-5-1.44c-3,0-4.39,1.19-4.39,2.79,0,4.54,10.91,1.12,10.91,7.58,0,2.91-2.56,4.8-6.94,4.8A11.3,11.3,0,0,1,339.46,419.61Z"/><path d="M370.15,411.1v10.43H368v-2.62c-1,1.72-3,2.78-5.79,2.78-3.81,0-6.14-2-6.14-4.9,0-2.59,1.66-4.76,6.49-4.76h5.35v-1c0-2.88-1.63-4.44-4.77-4.44a8.55,8.55,0,0,0-5.6,2l-1-1.7a10.66,10.66,0,0,1,6.84-2.27C367.68,404.57,370.15,406.75,370.15,411.1Zm-2.27,5.37v-2.75H362.6c-3.27,0-4.32,1.28-4.32,3,0,1.95,1.57,3.17,4.25,3.17A5.4,5.4,0,0,0,367.88,416.47Zm-4.32-14.36h-2.24l4.38-4h3Z"/><path d="M391.81,411.77v9.76h-2.27V412c0-3.55-1.86-5.37-5.06-5.37-3.61,0-5.88,2.24-5.88,6.08v8.83h-2.27V404.7h2.17v3.1a7.1,7.1,0,0,1,6.4-3.23C389,404.57,391.81,406.94,391.81,411.77Z"/><path d="M413.64,404.7v14.78c0,5.79-2.85,8.42-8.42,8.42-3.07,0-6.08-.93-7.84-2.59l1.15-1.73a10,10,0,0,0,6.63,2.3c4.25,0,6.2-1.95,6.2-6.11v-2.14a7.56,7.56,0,0,1-6.56,3.26c-4.8,0-8.44-3.36-8.44-8.19s3.64-8.13,8.44-8.13a7.6,7.6,0,0,1,6.66,3.36V404.7Zm-2.21,8c0-3.65-2.69-6.14-6.4-6.14s-6.37,2.49-6.37,6.14a6.39,6.39,0,0,0,12.77,0Z"/><path d="M445.44,413.12a8.17,8.17,0,0,1-8.38,8.57,7.31,7.31,0,0,1-6.5-3.49v3.33h-2.17V397.79h2.27V407.9a7.34,7.34,0,0,1,6.4-3.33A8.14,8.14,0,0,1,445.44,413.12Zm-2.27,0a6.18,6.18,0,0,0-6.27-6.56c-3.58,0-6.27,2.62-6.27,6.56s2.69,6.55,6.27,6.55A6.18,6.18,0,0,0,443.17,413.12Z"/><path d="M448.39,413.12a8.56,8.56,0,1,1,8.57,8.57A8.28,8.28,0,0,1,448.39,413.12Zm14.81,0c0-3.94-2.65-6.56-6.24-6.56s-6.27,2.62-6.27,6.56,2.69,6.55,6.27,6.55S463.2,417.05,463.2,413.12Zm-4-15h3l-5.19,4h-2.24Z"/><path d="M485.63,411.77v9.76h-2.27V412c0-3.55-1.85-5.37-5.05-5.37-3.62,0-5.89,2.24-5.89,6.08v8.83h-2.27V404.7h2.17v3.1a7.1,7.1,0,0,1,6.4-3.23C482.82,404.57,485.63,406.94,485.63,411.77Z"/><path d="M507.46,404.7v14.78c0,5.79-2.85,8.42-8.42,8.42-3.07,0-6.08-.93-7.84-2.59l1.16-1.73a10,10,0,0,0,6.62,2.3c4.25,0,6.21-1.95,6.21-6.11v-2.14a7.59,7.59,0,0,1-6.56,3.26c-4.8,0-8.45-3.36-8.45-8.19s3.65-8.13,8.45-8.13a7.58,7.58,0,0,1,6.65,3.36V404.7Zm-2.21,8c0-3.65-2.69-6.14-6.4-6.14s-6.37,2.49-6.37,6.14a6.39,6.39,0,0,0,12.77,0Z"/><path d="M530.69,404.57v2.21c-.19,0-.38,0-.54,0-3.52,0-5.67,2.24-5.67,6.2v8.58h-2.27V404.7h2.18V408C525.44,405.76,527.59,404.57,530.69,404.57Z"/><path d="M547.46,411.1v10.43h-2.18v-2.62c-1,1.72-3,2.78-5.79,2.78-3.81,0-6.14-2-6.14-4.9,0-2.59,1.66-4.76,6.49-4.76h5.35v-1c0-2.88-1.64-4.44-4.77-4.44a8.55,8.55,0,0,0-5.6,2l-1-1.7a10.71,10.71,0,0,1,6.85-2.27C545,404.57,547.46,406.75,547.46,411.1Zm-2.27,5.37v-2.75h-5.28c-3.27,0-4.32,1.28-4.32,3,0,1.95,1.57,3.17,4.25,3.17A5.4,5.4,0,0,0,545.19,416.47Zm-3,9.76a1.38,1.38,0,1,1-1.38-1.37A1.35,1.35,0,0,1,542.15,426.23Z"/><path d="M569.12,411.77v9.76h-2.27V412c0-3.55-1.86-5.37-5.06-5.37-3.61,0-5.88,2.24-5.88,6.08v8.83h-2.28V404.7h2.18v3.1a7.1,7.1,0,0,1,6.4-3.23C566.31,404.57,569.12,406.94,569.12,411.77Z"/><path d="M591,404.7v14.78c0,5.79-2.85,8.42-8.42,8.42-3.07,0-6.08-.93-7.84-2.59l1.15-1.73a10,10,0,0,0,6.63,2.3c4.25,0,6.2-1.95,6.2-6.11v-2.14a7.56,7.56,0,0,1-6.56,3.26c-4.8,0-8.44-3.36-8.44-8.19s3.64-8.13,8.44-8.13a7.6,7.6,0,0,1,6.66,3.36V404.7Zm-2.21,8c0-3.65-2.69-6.14-6.4-6.14S576,409.05,576,412.7a6.39,6.39,0,0,0,12.77,0Z"/><path d="M614.18,404.57v2.21c-.19,0-.39,0-.55,0-3.52,0-5.66,2.24-5.66,6.2v8.58H605.7V404.7h2.17V408C608.93,405.76,611.07,404.57,614.18,404.57Z"/><path d="M633.54,413.12a8.56,8.56,0,1,1-8.55-8.55c1.73,0,2.44.19,4,.19,1.79,0,2.59-1.05,2.59-2.24a3.77,3.77,0,0,0-.64-2l1.47-.58a5,5,0,0,1,.87,2.69,3.56,3.56,0,0,1-3.07,3.61A8.31,8.31,0,0,1,633.54,413.12Zm-2.31,0c0-3.94-2.65-6.56-6.24-6.56s-6.27,2.62-6.27,6.56,2.69,6.55,6.27,6.55S631.23,417.05,631.23,413.12Zm-9.72-11.33h-1.32c.07-2.15,1.12-3.52,2.76-3.52,1.85,0,2.78,2.17,4,2.17.93,0,1.54-.76,1.57-2h1.31c-.06,2.08-1.12,3.46-2.72,3.46-1.88,0-2.78-2.18-4-2.18C622.18,399.74,621.57,400.51,621.51,401.79Z"/><path d="M636.35,419.93a1.7,1.7,0,0,1,1.7-1.73,1.72,1.72,0,0,1,1.73,1.73,1.75,1.75,0,0,1-1.73,1.76A1.73,1.73,0,0,1,636.35,419.93Z"/></svg>