<?xml version="1.0" encoding="utf-8"?>
<!-- Generator: Adobe Illustrator 22.1.0, SVG Export Plug-In . SVG Version: 6.00 Build 0)  -->
<svg version="1.1" id="Layer_1" xmlns="http://www.w3.org/2000/svg" xmlns:xlink="http://www.w3.org/1999/xlink" x="0px" y="0px"
	 viewBox="0 0 1141 662.7" style="enable-background:new 0 0 1141 662.7;" xml:space="preserve">
<style type="text/css">
	.st0{fill:#C90202;}
	.st1{fill:#FFFFFF;}
</style>
<title>Image convert makeup convert</title>
<path d="M102.6,251.1c0,11.5-8.7,18.7-22.5,18.7H69.6v14.3h-12v-51.8h22.4C93.9,232.3,102.6,239.5,102.6,251.1z M90.4,251.1
	c0-5.7-3.7-9-11-9h-9.8v18h9.8C86.7,260,90.4,256.7,90.4,251.1z"/>
<path d="M158.6,232.3v51.8h-12v-21.2h-23.5v21.2h-12v-51.8h12v20.4h23.5v-20.4H158.6z"/>
<path d="M205,273h-24l-4.6,11.1h-12.4l23.1-51.8H199l23.2,51.8h-12.6L205,273z M186.7,228.1h-8.5l9.8-8.4h10.1l9.8,8.4h-8.5
	l-6.4-4.2L186.7,228.1z M201.2,263.9l-8.2-19.8l-8.2,19.8H201.2z M210.3,221h-8.4l8.2-9h11.8L210.3,221z"/>
<path d="M275.1,232.3v51.8h-9.9l-25.8-31.4v31.4h-11.8v-51.8h9.9l25.8,31.4v-31.4H275.1z"/>
<path d="M353.2,251.1c0,11.5-8.7,18.7-22.5,18.7h-10.4v14.3h-12v-51.8h22.4C344.5,232.3,353.2,239.5,353.2,251.1z M341.1,251.1
	c0-5.7-3.7-9-11-9h-9.8v18h9.7C337.4,260,341.1,256.7,341.1,251.1z"/>
<path d="M409.2,232.3v51.8h-12v-21.2h-23.5v21.2h-12v-51.8h12v20.4h23.5v-20.4H409.2z"/>
<path d="M421,261.3v-29h12v28.6c0,9.8,4.3,13.9,11.5,13.9s11.5-4,11.5-13.9v-28.6H468v29c0,15.2-8.7,23.7-23.5,23.7
	S421,276.5,421,261.3z M443.2,225c2.9-1.3,3.8-2.8,3.8-4.5c0-1.7-1.4-3.1-3.5-3.1c-1.6,0-3.1,0.5-4.4,1.4l-2.4-4.7
	c2.3-1.7,5.1-2.6,8-2.5c5.2,0,8.9,3.2,8.9,7.9c0,4.2-2.3,7.2-6.8,9.3L443.2,225z"/>
<path d="M511.5,242.1h-16.6v-9.8H540v9.8h-16.6v42h-12L511.5,242.1z"/>
<path d="M579.5,284.1l-10-14.4h-11v14.4h-12v-51.8h22.4c13.8,0,22.5,7.2,22.5,18.8c0,7.8-3.9,13.5-10.7,16.4l11.6,16.6H579.5z
	 M568.2,242.1h-9.8v18h9.8c7.3,0,11-3.4,11-9C579.2,245.5,575.6,242.1,568.2,242.1L568.2,242.1z"/>
<path d="M597.6,258.2c0-15.4,12-26.8,28.3-26.8s28.3,11.3,28.3,26.8S642.2,285,626,285S597.6,273.6,597.6,258.2z M642.2,258.2
	c0-9.8-7-16.6-16.2-16.6s-16.2,6.7-16.2,16.6s7,16.6,16.2,16.6S642.2,268,642.2,258.2z"/>
<path d="M710.8,232.3v51.8H701l-25.8-31.4v31.4h-11.8v-51.8h9.9l25.8,31.4v-31.4H710.8z"/>
<path d="M758.1,257.4h11v21c-5.7,4.3-13.5,6.6-21,6.6c-16.3,0-28.3-11.2-28.3-26.8c0-15.6,12-26.8,28.5-26.8
	c9.1,0,16.7,3.1,21.7,8.9l-7.7,7.1c-3.4-3.8-8.2-5.9-13.3-5.8c-10.1,0-17,6.7-17,16.6c0,9.7,6.9,16.6,16.8,16.6
	c3.2,0.1,6.5-0.7,9.3-2.2V257.4z"/>
<path d="M797,279l4.1-9c5,3.5,11,5.4,17.1,5.4c7.1,0,10-2.4,10-5.5c0-9.7-30.1-3-30.1-22.3c0-8.8,7.1-16.1,21.8-16.1
	c6.5,0,13.2,1.6,18,4.6l-3.7,9.1c-4.4-2.6-9.3-4-14.3-4.1c-7.1,0-9.8,2.7-9.8,5.9c0,9.5,30.1,3,30.1,22c0,8.7-7.2,16.1-22,16.1
	C809.9,285,801.6,282.5,797,279z"/>
<path d="M847.9,261.3v-29h12v28.6c0,9.8,4.3,13.9,11.5,13.9s11.6-4,11.6-13.9v-28.6h11.8v29c0,15.2-8.7,23.7-23.5,23.7
	S847.9,276.5,847.9,261.3z"/>
<path d="M960.1,258.2c0,15.5-12.1,26.8-28.3,26.8s-28.3-11.4-28.3-26.8s12-26.8,28.3-26.8S960.1,242.7,960.1,258.2z M947.9,258.2
	c0-9.8-7-16.6-16.2-16.6s-16.2,6.7-16.2,16.6s7,16.6,16.2,16.6S947.9,268,947.9,258.2z M925.4,228.1h-8.5l9.8-8.4h10.1l9.8,8.4h-8.5
	l-6.4-4.2L925.4,228.1z M949,221h-8.4l8.2-9h11.8L949,221z"/>
<path d="M979.1,242.1h-16.6v-9.8h45.1v9.8h-16.6v42h-12L979.1,242.1z"/>
<path d="M53.6,367.8l4.1-9c5,3.5,11,5.4,17.1,5.4c7.1,0,10-2.4,10-5.6c0-9.7-30.1-3-30.1-22.3c0-8.8,7.1-16.1,21.8-16.1
	c6.5,0,13.2,1.5,18,4.6l-3.7,9.1c-4.4-2.6-9.3-4-14.3-4.1c-7.1,0-9.8,2.7-9.8,5.9c0,9.5,30.1,3,30.1,22c0,8.7-7.2,16.1-22,16.1
	C66.4,373.8,58.2,371.3,53.6,367.8z"/>
<path d="M139,361.8h-24l-4.6,11.1H98l23.1-51.8H133l23.2,51.8h-12.6L139,361.8z M135.2,352.7l-8.2-19.9l-8.2,19.9H135.2z
	 M129.3,316.9h-9l10-10.7h12.4L129.3,316.9z"/>
<path d="M209.1,321.1v51.8h-9.8l-25.8-31.4v31.4h-11.8v-51.8h9.9l25.8,31.5v-31.5H209.1z"/>
<path d="M256.3,346.2h11v21c-5.7,4.3-13.6,6.6-21,6.6c-16.3,0-28.3-11.2-28.3-26.8s12-26.8,28.5-26.8c9.1,0,16.7,3.1,21.7,9
	l-7.7,7.1c-3.4-3.8-8.3-5.9-13.4-5.9c-10.1,0-16.9,6.7-16.9,16.6c0,9.7,6.9,16.6,16.8,16.6c3.2,0.1,6.5-0.7,9.3-2.2L256.3,346.2z"/>
<path d="M299.3,321.1h23.5c16.9,0,28.6,10.2,28.6,25.9s-11.6,25.9-28.6,25.9h-23.5V321.1z M322.3,363.1c10.3,0,17-6.1,17-16.1
	s-6.7-16.1-17-16.1h-11v32.1H322.3z"/>
<path d="M393.8,361.8h-24.1l-4.6,11.1h-12.3l23.1-51.8h11.8l23.2,51.8h-12.6L393.8,361.8z M390.1,352.7l-8.2-19.8l-8.2,19.9
	L390.1,352.7z"/>
<path d="M53.3,448.6h8.4v2h-8.4V448.6z"/>
<path d="M94.4,452.3c0,3.8-2.8,6-8.4,6H75.7v-22.4h9.7c5,0,7.9,2.1,7.9,5.8c0.1,2.3-1.3,4.3-3.4,5.1
	C92.5,447.1,94.5,449.5,94.4,452.3z M78,437.8v8.1h7.1c3.6,0,5.7-1.4,5.7-4.1s-2.1-4.1-5.7-4.1H78z M92,452.1c0-2.9-2.2-4.2-6.1-4.2
	H78v8.4h7.9C89.9,456.3,92,455,92,452.1L92,452.1z"/>
<path d="M114.7,449.8c0,4.7-3.8,8.6-8.5,8.6c-4.7,0-8.6-3.8-8.6-8.5c0-4.7,3.8-8.6,8.5-8.6c0,0,0,0,0,0c4.6-0.1,8.4,3.4,8.5,8
	C114.7,449.5,114.7,449.7,114.7,449.8z M112.4,449.8c0-3.9-2.7-6.6-6.2-6.6s-6.3,2.6-6.3,6.6s2.7,6.6,6.3,6.6
	S112.4,453.8,112.4,449.8z M103,438.8h-2.1l4.1-4h2.3l4.1,4h-2.1l-3.2-2.7L103,438.8z M107.5,463c0.1,0.8-0.5,1.4-1.3,1.5
	c-0.8,0.1-1.4-0.5-1.5-1.3c0-0.1,0-0.2,0-0.2c0.1-0.8,0.7-1.3,1.5-1.3C106.9,461.8,107.5,462.3,107.5,463z"/>
<path d="M128.2,457.2c-1,0.8-2.3,1.2-3.6,1.2c-3.2,0-4.9-1.8-4.9-4.9v-10.2h-3v-1.9h3v-3.7h2.3v3.7h5.1v1.9H122v10
	c0,2,1,3.1,2.9,3.1c0.9,0,1.8-0.3,2.5-0.9L128.2,457.2z"/>
<path d="M157.8,449.8c0,5.1-3.6,8.6-8.4,8.6c-2.6,0.1-5-1.2-6.4-3.3v9.4h-2.3v-23h2.2v3.3c1.4-2.2,3.9-3.6,6.5-3.5
	c4.5-0.1,8.2,3.4,8.4,7.9C157.8,449.4,157.8,449.6,157.8,449.8z M155.5,449.8c0.1-3.5-2.6-6.4-6-6.5c-3.5-0.1-6.4,2.6-6.5,6
	c0,0.2,0,0.3,0,0.5c0,3.9,2.7,6.6,6.3,6.6c3.4,0.1,6.2-2.7,6.3-6.1C155.5,450.2,155.5,450,155.5,449.8z"/>
<path d="M177.9,448.5v9.8h-2.3v-9.5c0-3.5-1.9-5.4-5.1-5.4c-3.6,0-5.9,2.2-5.9,6.1v8.8h-2.3v-23.7h2.3v9.9c1.4-2.1,3.8-3.2,6.3-3.1
	C175.1,441.3,177.9,443.7,177.9,448.5z"/>
<path d="M196.8,447.8v10.4h-2.2v-2.6c-1,1.7-3,2.8-5.8,2.8c-3.8,0-6.1-2-6.1-4.9c0-2.6,1.7-4.8,6.5-4.8h5.4v-1
	c0-2.9-1.6-4.5-4.8-4.5c-2,0-4,0.7-5.6,2l-1-1.7c2-1.5,4.4-2.3,6.9-2.3C194.3,441.3,196.8,443.5,196.8,447.8z M186.9,438.8h-2.2
	l4.2-3h2.2l4.2,3h-2.2l-3.1-1.9L186.9,438.8z M194.5,453.2v-2.8h-5.3c-3.3,0-4.3,1.3-4.3,3c0,2,1.6,3.2,4.2,3.2
	C191.5,456.7,193.7,455.4,194.5,453.2L194.5,453.2z M195,436.1h-2l3.9-3.5h2.8L195,436.1z"/>
<path d="M218.5,448.5v9.8h-2.3v-9.5c0-3.5-1.9-5.4-5.1-5.4c-3.6,0-5.9,2.2-5.9,6.1v8.8H203v-16.8h2.2v3.1c1.4-2.2,3.8-3.4,6.4-3.2
	C215.7,441.3,218.5,443.7,218.5,448.5z"/>
<path d="M241.9,457.2c-1,0.8-2.3,1.2-3.6,1.2c-3.2,0-4.9-1.8-4.9-4.9v-10.2h-3v-1.9h3v-3.7h2.3v3.7h5.1v1.9h-5.1v10
	c0,2,1,3.1,2.9,3.1c0.9,0,1.8-0.3,2.5-0.9L241.9,457.2z"/>
<path d="M254.5,441.3v2.2c-0.2,0-0.4,0-0.5,0c-3.5,0-5.7,2.2-5.7,6.2v8.6H246v-16.9h2.2v3.3C249.2,442.5,251.4,441.3,254.5,441.3z"
	/>
<path d="M256.7,449.8c0-4.7,3.9-8.6,8.6-8.5s8.6,3.9,8.5,8.6c0,4.7-3.8,8.5-8.5,8.5c-4.6,0.2-8.4-3.4-8.6-8
	C256.7,450.2,256.7,450,256.7,449.8z M271.6,449.8c0-3.9-2.7-6.6-6.2-6.6s-6.3,2.6-6.3,6.6s2.7,6.6,6.3,6.6S271.6,453.8,271.6,449.8
	z"/>
<path d="M294,448.5v9.8h-2.3v-9.5c0-3.5-1.9-5.4-5.1-5.4c-3.6,0-5.9,2.2-5.9,6.1v8.8h-2.3v-16.8h2.2v3.1c1.4-2.2,3.8-3.4,6.4-3.2
	C291.2,441.3,294,443.7,294,448.5z"/>
<path d="M315.8,441.4v14.8c0,5.8-2.8,8.4-8.4,8.4c-3.1,0-6.1-0.9-7.8-2.6l1.1-1.7c1.9,1.5,4.2,2.4,6.6,2.3c4.3,0,6.2-2,6.2-6.1v-2.1
	c-1.5,2.1-4,3.4-6.6,3.3c-4.8,0-8.4-3.4-8.4-8.2s3.6-8.1,8.4-8.1c2.7-0.1,5.2,1.2,6.7,3.4v-3.2H315.8z M313.6,449.4
	c0-3.6-2.7-6.1-6.4-6.1c-3.4,0.1-6,3-5.9,6.4c0.1,3.4,3,6,6.4,5.9C311,455.5,313.6,452.7,313.6,449.4z"/>
<path d="M328.2,456.3l1-1.8c1.8,1.2,3.9,1.9,6,1.9c3.2,0,4.5-1.1,4.5-2.8c0-4.4-10.9-0.9-10.9-7.6c0-2.8,2.4-4.8,6.6-4.8
	c2.1,0,4.2,0.5,6,1.6l-1,1.8c-1.5-1-3.2-1.5-5-1.4c-3,0-4.4,1.2-4.4,2.8c0,4.5,10.9,1.1,10.9,7.6c0,2.9-2.6,4.8-6.9,4.8
	C332.6,458.5,330.2,457.8,328.2,456.3z"/>
<path d="M361.4,441.4v16.8h-2.2v-3.1c-1.3,2.1-3.6,3.3-6,3.2c-4.3,0-7.1-2.4-7.1-7.2v-9.8h2.3v9.5c0,3.6,1.9,5.4,5,5.4
	c3.5,0,5.7-2.3,5.7-6.1v-8.8H361.4z"/>
<path d="M383.2,449.8c0,4.7-3.8,8.6-8.5,8.6c-4.7,0-8.6-3.8-8.6-8.5c0-4.7,3.8-8.6,8.5-8.6c0,0,0,0,0,0c4.6-0.2,8.4,3.4,8.5,8
	C383.2,449.5,383.2,449.7,383.2,449.8z M380.9,449.8c0-3.9-2.7-6.6-6.2-6.6s-6.3,2.6-6.3,6.6s2.7,6.6,6.3,6.6
	S380.9,453.8,380.9,449.8L380.9,449.8z M371.5,438.8h-2.2l4.2-3h2.2l4.2,3h-2.2l-3.1-1.9L371.5,438.8z M379.5,436.1h-2l3.9-3.5h2.8
	L379.5,436.1z"/>
<path d="M396.7,457.2c-1,0.8-2.3,1.2-3.5,1.2c-3.2,0-4.9-1.8-4.9-4.9v-10.2h-3v-1.9h3v-3.7h2.3v3.7h5.1v1.9h-5.1v10
	c0,2,1,3.1,2.9,3.1c0.9,0,1.8-0.3,2.5-0.9L396.7,457.2z"/>
<path d="M403.1,456.7c0,0.6-0.2,1.3-0.5,1.9l-1.3,4.4h-1.5l1.1-4.6c-0.7-0.2-1.2-0.9-1.1-1.6c-0.1-0.9,0.6-1.8,1.6-1.8
	s1.8,0.6,1.8,1.6C403.1,456.5,403.1,456.6,403.1,456.7L403.1,456.7z"/>
<path d="M444.1,448.5v9.8h-2.3v-9.5c0-3.5-1.8-5.4-4.8-5.4c-3.5,0-5.6,2.2-5.6,6.1v8.8h-2.3v-9.5c0-3.5-1.8-5.4-4.9-5.4
	c-3.4,0-5.6,2.2-5.6,6.1v8.8h-2.3v-16.8h2.2v3.1c1.3-2.1,3.7-3.3,6.2-3.2c2.8,0,5,1.2,6,3.5c1.4-2.3,3.9-3.7,6.6-3.5
	C441.4,441.3,444.1,443.7,444.1,448.5z"/>
<path d="M448.6,449.8c0-4.7,3.9-8.6,8.6-8.5s8.6,3.9,8.5,8.6c0,4.7-3.8,8.5-8.5,8.5c-4.6,0.2-8.4-3.4-8.6-8
	C448.6,450.2,448.6,450,448.6,449.8z M463.4,449.8c0-3.9-2.7-6.6-6.2-6.6s-6.3,2.6-6.3,6.6s2.7,6.6,6.3,6.6S463.4,453.8,463.4,449.8
	z M456.8,438.1c1.3-0.6,1.9-1.3,1.9-2.3c0-0.9-0.8-1.6-1.7-1.6c0,0-0.1,0-0.1,0c-0.7,0-1.4,0.2-1.9,0.6l-0.5-1.1
	c0.8-0.6,1.7-0.8,2.6-0.8c1.5-0.1,2.8,1,3,2.5c0,0.1,0,0.2,0,0.3c0,1.5-0.8,2.6-2.6,3.4L456.8,438.1z"/>
<path d="M485.9,448.5v9.8h-2.3v-9.5c0-3.5-1.9-5.4-5.1-5.4c-3.6,0-5.9,2.2-5.9,6.1v8.8h-2.3v-16.8h2.2v3.1c1.4-2.2,3.8-3.4,6.4-3.2
	C483,441.3,485.9,443.7,485.9,448.5z"/>
<path d="M507.7,441.4v14.8c0,5.8-2.9,8.4-8.4,8.4c-3.1,0-6.1-0.9-7.8-2.6l1.1-1.7c1.9,1.5,4.2,2.4,6.6,2.3c4.3,0,6.2-2,6.2-6.1v-2.1
	c-1.5,2.1-4,3.4-6.6,3.3c-4.8,0-8.5-3.4-8.5-8.2s3.6-8.1,8.5-8.1c2.7-0.1,5.2,1.2,6.7,3.4v-3.2H507.7z M505.5,449.4
	c0-3.6-2.7-6.1-6.4-6.1c-3.4,0.1-6.1,3-5.9,6.4c0.1,3.4,3,6.1,6.4,5.9C502.9,455.5,505.5,452.7,505.5,449.4z"/>
<path d="M537.9,448.5v9.8h-2.3v-9.5c0-3.5-1.9-5.4-5.1-5.4c-3.6,0-5.9,2.2-5.9,6.1v8.8h-2.3v-16.8h2.2v3.1c1.4-2.2,3.8-3.4,6.4-3.2
	C535.1,441.3,537.9,443.7,537.9,448.5z"/>
<path d="M559.6,448.5v9.8h-2.3v-9.5c0-3.5-1.8-5.4-5-5.4c-3.6,0-5.9,2.2-5.9,6.1v8.8h-2.3v-23.7h2.3v9.9c1.4-2.1,3.8-3.2,6.3-3.1
	C556.8,441.3,559.6,443.7,559.6,448.5z"/>
<path d="M580.5,450.5h-14.1c0.3,3.5,3,5.9,6.6,5.9c2,0.1,3.8-0.7,5.2-2.2l1.3,1.5c-1.6,1.8-4,2.8-6.5,2.8c-5.2,0-8.8-3.6-8.8-8.6
	s3.5-8.5,8.2-8.5s8.2,3.5,8.2,8.5C580.5,450,580.5,450.3,580.5,450.5z M566.4,448.8h11.9c-0.3-3.3-3.3-5.7-6.6-5.4
	C568.9,443.8,566.7,446,566.4,448.8z M573.7,463c0,0.8-0.6,1.4-1.4,1.4c-0.8,0-1.4-0.6-1.4-1.4c0-0.8,0.6-1.4,1.4-1.4c0,0,0,0,0,0
	C573.1,461.6,573.7,462.2,573.7,463C573.7,462.9,573.7,462.9,573.7,463L573.7,463z"/>
<path d="M587.1,456.7c0,0.6-0.2,1.3-0.5,1.9l-1.3,4.4h-1.5l1.1-4.6c-0.7-0.2-1.2-0.9-1.2-1.6c0-0.9,0.8-1.7,1.7-1.7
	S587.1,455.7,587.1,456.7L587.1,456.7z"/>
<path d="M628.1,448.5v9.8h-2.3v-9.5c0-3.5-1.8-5.4-4.8-5.4c-3.5,0-5.6,2.2-5.6,6.1v8.8h-2.3v-9.5c0-3.5-1.8-5.4-4.9-5.4
	c-3.4,0-5.6,2.2-5.6,6.1v8.8h-2.3v-16.8h2.2v3.1c1.3-2.1,3.7-3.3,6.2-3.2c2.8,0,5,1.2,6,3.5c1.4-2.3,3.9-3.7,6.7-3.5
	C625.4,441.3,628.1,443.7,628.1,448.5z"/>
<path d="M649,450.5h-14.1c0.3,3.5,3,5.9,6.6,5.9c2,0.1,3.8-0.7,5.2-2.2l1.3,1.5c-1.6,1.8-4,2.8-6.5,2.8c-5.2,0-8.8-3.6-8.8-8.6
	s3.5-8.5,8.2-8.5s8.2,3.5,8.2,8.5C649,450,649,450.3,649,450.5z M634.9,448.8h11.9c-0.3-3.3-3.3-5.7-6.6-5.4
	C637.5,443.8,635.2,446,634.9,448.8z M637.8,438.8h-2.2l4.2-3h2.2l4.2,3H644l-3.1-1.9L637.8,438.8z M645.7,436.2l-4.6-3.5h2.8
	l3.8,3.5H645.7z"/>
<path d="M681.4,448.5v9.8h-2.3v-9.5c0-3.5-1.8-5.4-4.8-5.4c-3.5,0-5.6,2.2-5.6,6.1v8.8h-2.3v-9.5c0-3.5-1.8-5.4-4.9-5.4
	c-3.4,0-5.6,2.2-5.6,6.1v8.8h-2.3v-16.8h2.2v3.1c1.3-2.1,3.7-3.3,6.2-3.2c2.8,0,5,1.2,6,3.5c1.4-2.3,4-3.7,6.7-3.5
	C678.8,441.3,681.4,443.7,681.4,448.5z"/>
<path d="M723.8,448.5v9.8h-2.3v-9.5c0-3.5-1.8-5.4-4.8-5.4c-3.5,0-5.6,2.2-5.6,6.1v8.8h-2.3v-9.5c0-3.5-1.8-5.4-4.9-5.4
	c-3.4,0-5.6,2.2-5.6,6.1v8.8H696v-16.8h2.2v3.1c1.3-2.1,3.7-3.3,6.2-3.2c2.8,0,5,1.2,6,3.5c1.4-2.3,4-3.7,6.7-3.5
	C721.1,441.3,723.8,443.7,723.8,448.5z"/>
<path d="M729.4,436.1c0-0.9,0.8-1.6,1.7-1.6c0.9,0,1.6,0.7,1.7,1.5c0,0,0,0,0,0c-0.1,0.9-0.9,1.6-1.8,1.5
	C730.2,437.5,729.5,436.9,729.4,436.1L729.4,436.1z M729.7,463c0-0.8,0.6-1.4,1.4-1.4c0.8,0,1.4,0.6,1.4,1.4c0,0.8-0.6,1.4-1.4,1.4
	c0,0,0,0,0,0C730.4,464.4,729.7,463.8,729.7,463C729.7,463,729.7,463,729.7,463z M730,441.4h2.3v16.8H730V441.4z"/>
<path d="M754,448.5v9.8h-2.3v-9.5c0-3.5-1.8-5.4-5-5.4c-3.6,0-5.9,2.2-5.9,6.1v8.8h-2.3v-16.8h2.2v3.1c1.4-2.2,3.8-3.4,6.4-3.2
	C751.2,441.3,754,443.7,754,448.5z"/>
<path d="M758.8,456.7c0-0.9,0.7-1.7,1.7-1.7c0,0,0,0,0,0c0.9,0,1.7,0.8,1.7,1.7c0,0,0,0,0,0c0,1-0.8,1.7-1.7,1.8
	C759.5,458.4,758.7,457.6,758.8,456.7C758.8,456.7,758.8,456.7,758.8,456.7z"/>
<path d="M53.3,494.6h8.4v2h-8.4V494.6z"/>
<path d="M91.4,493.1h2.3v8.5c-2.3,1.9-5.2,2.9-8.2,2.9c-6.8,0-11.8-4.8-11.8-11.4s5-11.4,11.8-11.4c3.1-0.1,6.1,1,8.3,3.2l-1.5,1.5
	c-1.8-1.8-4.2-2.7-6.8-2.6c-5.5,0-9.6,3.9-9.6,9.3c-0.1,5.1,4,9.2,9.1,9.3c0.2,0,0.3,0,0.5,0c2.1,0.1,4.1-0.5,5.8-1.7L91.4,493.1z"
	/>
<path d="M99.4,482.1c0-0.9,0.8-1.6,1.7-1.6c0.9,0,1.6,0.7,1.7,1.6c0,0,0,0,0,0c0,0.9-0.7,1.6-1.6,1.7c0,0,0,0-0.1,0
	C100.2,483.8,99.4,483,99.4,482.1C99.4,482.1,99.4,482.1,99.4,482.1z M99.9,487.4h2.3v16.8h-2.3V487.4z"/>
<path d="M123.7,489.1v15.2h-2.2v-3.1c-1.3,2.1-3.6,3.3-6.1,3.2c-4.3,0-7.1-2.4-7.1-7.2v-9.8h2.3v9.5c0,3.6,1.9,5.4,5.1,5.4
	c3.5,0,5.7-2.3,5.7-6.1v-8.8h1.2c1.1,0.1,2-0.8,2.1-1.9c0-0.1,0-0.2,0-0.3c0-0.7-0.2-1.5-0.6-2l1.5-0.6c0.5,0.8,0.8,1.7,0.8,2.7
	C126.6,487.1,125.4,488.7,123.7,489.1z M112.4,484.5H111c0.1-2.1,1.2-3.5,2.9-3.5c2,0,3,2.2,4.2,2.2c1,0,1.6-0.8,1.7-2h1.4
	c-0.1,2.1-1.2,3.5-2.9,3.5c-2,0-2.9-2.2-4.2-2.2C113.1,482.5,112.4,483.2,112.4,484.5L112.4,484.5z"/>
<path d="M138.6,480.5h2.3v23.7h-2.3V480.5z"/>
<path d="M162.7,495.8c0,4.7-3.8,8.6-8.6,8.6s-8.6-3.8-8.6-8.5c0-4.7,3.8-8.6,8.6-8.6c0,0,0,0,0,0c1.7,0,2.4,0.2,4,0.2
	c1.8,0,2.6-1,2.6-2.2c0-0.7-0.2-1.4-0.6-2l1.5-0.6c0.5,0.8,0.8,1.7,0.9,2.7c0,1.8-1.3,3.4-3.1,3.6
	C161.5,490.6,162.7,493.1,162.7,495.8z M160.4,495.8c0-3.9-2.7-6.6-6.2-6.6s-6.3,2.6-6.3,6.6s2.7,6.5,6.3,6.5
	S160.4,499.8,160.4,495.8z M154.3,484.8H152l4.4-4h3L154.3,484.8z"/>
<path d="M184.4,495.8c0.2,4.5-3.2,8.3-7.7,8.6c-0.2,0-0.4,0-0.7,0c-2.6,0.1-5-1.2-6.4-3.3v9.4h-2.3v-23h2.2v3.3
	c1.4-2.2,3.9-3.6,6.5-3.5c4.5-0.1,8.2,3.4,8.4,7.9C184.4,495.4,184.4,495.6,184.4,495.8z M182.1,495.8c-0.1-3.5-3.1-6.2-6.5-6
	c-3.5,0.1-6.2,3.1-6,6.5c0.1,3.4,2.9,6,6.3,6c3.4,0,6.2-2.7,6.3-6.1C182.1,496.1,182.1,496,182.1,495.8z"/>
<path d="M206.2,503.2c-1,0.8-2.3,1.2-3.6,1.2c-3.2,0-4.9-1.8-4.9-4.9v-10.2h-3v-1.9h3v-3.7h2.2v3.7h5.1v1.9H200v10
	c0,2,1,3.1,2.9,3.1c0.9,0,1.8-0.3,2.5-0.9L206.2,503.2z"/>
<path d="M218.9,487.3v2.2c-0.2,0-0.4,0-0.6,0c-3.5,0-5.7,2.2-5.7,6.2v8.6h-2.3v-16.9h2.2v3.3C213.6,488.5,215.8,487.3,218.9,487.3z"
	/>
<path d="M235.6,493.8v10.4h-2.2v-2.6c-1,1.7-3,2.8-5.8,2.8c-3.8,0-6.1-2-6.1-4.9c0-2.6,1.7-4.8,6.5-4.8h5.3v-1
	c0-2.9-1.6-4.4-4.8-4.4c-2,0-4,0.7-5.6,2l-1-1.7c2-1.5,4.4-2.3,6.9-2.3C233.2,487.3,235.6,489.5,235.6,493.8z M233.3,499.2v-2.8
	h-5.3c-3.3,0-4.3,1.3-4.3,3c0,2,1.6,3.2,4.3,3.2C230.3,502.8,232.5,501.4,233.3,499.2L233.3,499.2z"/>
<path d="M257.3,494.5v9.8H255v-9.5c0-3.5-1.9-5.4-5-5.4c-3.6,0-5.9,2.2-5.9,6.1v8.8h-2.3v-16.8h2.2v3.1c1.4-2.2,3.8-3.4,6.4-3.2
	C254.5,487.3,257.3,489.7,257.3,494.5z"/>
<path d="M279.1,487.4v14.8c0,5.8-2.9,8.4-8.4,8.4c-3.1,0-6.1-0.9-7.8-2.6l1.1-1.7c1.9,1.5,4.2,2.4,6.6,2.3c4.3,0,6.2-2,6.2-6.1v-2.1
	c-1.5,2.1-4,3.4-6.6,3.3c-4.8,0-8.5-3.4-8.5-8.2s3.6-8.1,8.5-8.1c2.7-0.1,5.2,1.2,6.6,3.4v-3.2H279.1z M276.9,495.4
	c0-3.6-2.7-6.1-6.4-6.1s-6.4,2.5-6.4,6.1c0.1,3.5,3.1,6.3,6.6,6.1C274.1,501.4,276.8,498.8,276.9,495.4z"/>
<path d="M312.4,484.8h-3.2v19.4H307v-3.3c-1.4,2.3-3.9,3.6-6.5,3.5c-4.7,0-8.6-3.8-8.6-8.6c0-4.7,3.8-8.5,8.6-8.6
	c2.6-0.1,5,1.2,6.4,3.3v-5.8h-7v-1.7h7v-2.6h2.3v2.6h3.2L312.4,484.8z M307,495.8c0-3.9-2.7-6.6-6.2-6.6s-6.3,2.6-6.3,6.6
	s2.7,6.5,6.3,6.5S307,499.8,307,495.8L307,495.8z"/>
<path d="M315,482.1c0-0.9,0.8-1.6,1.7-1.6c0,0,0,0,0,0c0.9,0,1.6,0.7,1.7,1.6c0,0,0,0,0,0c0,0.9-0.7,1.7-1.7,1.7S315,483,315,482.1
	L315,482.1z M315.6,487.4h2.3v16.8h-2.3V487.4z"/>
<path d="M338.8,496.5h-14.1c0.3,3.5,3,5.9,6.6,5.9c2,0.1,3.8-0.7,5.1-2.2l1.3,1.5c-1.6,1.8-4,2.8-6.5,2.8c-5.2,0-8.8-3.6-8.8-8.6
	s3.5-8.5,8.2-8.5s8.2,3.5,8.2,8.5C338.9,496,338.8,496.3,338.8,496.5z M324.7,494.8h11.9c-0.3-3.3-3.3-5.7-6.6-5.4
	C327.3,489.8,325,492,324.7,494.8z M327.6,484.8h-2.2l4.2-3h2.2l4.2,3h-2.2l-3.1-1.9L327.6,484.8z M332.9,479.6l-0.5-0.9
	c0.6-0.4,1.3-0.6,2-0.6c1.1-0.1,2.2,0.7,2.3,1.8c0,0.1,0,0.2,0,0.3c0,1.2-0.8,2.2-1.9,2.5l-0.7-0.8c0.9-0.4,1.3-1,1.3-1.6
	s-0.5-1-1.3-1C333.8,479.2,333.4,479.4,332.9,479.6L332.9,479.6z"/>
<path d="M371.3,494.5v9.8H369v-9.5c0-3.5-1.8-5.4-4.8-5.4c-3.5,0-5.6,2.2-5.6,6.1v8.8h-2.3v-9.5c0-3.5-1.8-5.4-4.9-5.4
	c-3.4,0-5.6,2.2-5.6,6.1v8.8h-2.3v-16.8h2.2v3.1c1.3-2.1,3.7-3.3,6.2-3.2c2.8,0,5,1.2,6,3.5c1.4-2.3,3.9-3.7,6.6-3.5
	C368.6,487.3,371.3,489.7,371.3,494.5z"/>
<path d="M385.8,480.5h2.3v23.7h-2.3V480.5z"/>
<path d="M407.1,493.8v10.4H405v-2.6c-1,1.7-3,2.8-5.8,2.8c-3.8,0-6.1-2-6.1-4.9c0-2.6,1.7-4.8,6.5-4.8h5.4v-1c0-2.9-1.6-4.4-4.8-4.4
	c-2,0-4,0.7-5.6,2l-1-1.7c2-1.5,4.4-2.3,6.9-2.3C404.7,487.3,407.1,489.5,407.1,493.8z M397.2,484.8h-2.1l4.1-4h2.3l4.1,4h-2.1
	l-3.2-2.7L397.2,484.8z M404.9,499.2v-2.8h-5.3c-3.3,0-4.3,1.3-4.3,3c0,2,1.6,3.2,4.2,3.2C401.9,502.7,404,501.4,404.9,499.2
	L404.9,499.2z"/>
<path d="M428.5,487.4v16.8h-2.2v-3.1c-1.3,2.1-3.6,3.3-6,3.2c-4.3,0-7.1-2.4-7.1-7.2v-9.8h2.3v9.5c0,3.6,1.9,5.4,5,5.4
	c3.5,0,5.7-2.3,5.7-6.1v-8.8H428.5z"/>
<path d="M452.1,503.2c-1,0.8-2.3,1.2-3.5,1.2c-3.2,0-4.9-1.8-4.9-4.9v-10.2h-3v-1.9h3v-3.7h2.3v3.7h5.1v1.9h-5.1v10
	c0,2,1,3.1,2.9,3.1c0.9,0,1.8-0.3,2.5-0.9L452.1,503.2z"/>
<path d="M464.7,487.3v2.2c-0.2,0-0.4,0-0.5,0c-3.5,0-5.7,2.2-5.7,6.2v8.6h-2.3v-16.9h2.2v3.3C459.5,488.5,461.6,487.3,464.7,487.3z"
	/>
<path d="M484.1,495.8c0,4.7-3.8,8.6-8.5,8.6s-8.6-3.8-8.6-8.5c0-4.7,3.8-8.6,8.5-8.6c0,0,0,0,0,0c4.6-0.2,8.4,3.4,8.5,8
	C484.1,495.5,484.1,495.7,484.1,495.8z M481.8,495.8c0-3.9-2.6-6.6-6.2-6.6s-6.3,2.6-6.3,6.6s2.7,6.5,6.3,6.5
	S481.8,499.8,481.8,495.8z M472.3,484.8h-2.1l4.1-4h2.3l4.1,4h-2.1l-3.2-2.7L472.3,484.8z"/>
<path d="M488.2,482.1c0-0.9,0.8-1.6,1.7-1.6c0,0,0,0,0,0c0.9,0,1.6,0.7,1.7,1.6c0,0,0,0,0,0c0,0.9-0.7,1.7-1.7,1.7
	S488.2,483,488.2,482.1L488.2,482.1z M488.7,487.4h2.3v16.8h-2.3L488.7,487.4z"/>
<path d="M495.8,502.7c0-0.9,0.7-1.7,1.7-1.7c0,0,0,0,0,0c0.9,0,1.7,0.8,1.7,1.7c0,0,0,0,0,0c0,1-0.8,1.7-1.7,1.8
	C496.6,504.4,495.8,503.6,495.8,502.7C495.8,502.7,495.8,502.7,495.8,502.7z"/>
<path d="M53.3,540.6h8.4v2h-8.4V540.6z"/>
<path d="M82.6,539.7l-4.6,4.6v5.9h-2.3v-22.4H78v13.5l13.2-13.5h2.8L84.2,538l10.4,12.2h-2.8L82.6,539.7z"/>
<path d="M97.1,528.1c0-0.9,0.7-1.7,1.6-1.7c0.9,0,1.7,0.7,1.7,1.6s-0.7,1.7-1.6,1.7c0,0,0,0-0.1,0C97.9,529.7,97.1,529,97.1,528.1
	C97.1,528.1,97.1,528.1,97.1,528.1z M97.6,533.4h2.3v16.8h-2.3V533.4z"/>
<path d="M120.9,542.5h-14.1c0.3,3.5,2.9,5.8,6.6,5.8c2,0.1,3.8-0.7,5.2-2.2l1.3,1.5c-1.6,1.8-4,2.8-6.5,2.8c-5.2,0-8.8-3.6-8.8-8.6
	s3.5-8.5,8.2-8.5s8.2,3.5,8.2,8.5C120.9,542,120.9,542.3,120.9,542.5z M106.8,540.8h11.9c-0.3-3.3-3.3-5.7-6.6-5.4
	C109.3,535.8,107.1,538,106.8,540.8z M109.6,530.8h-2.2l4.2-3h2.2l4.2,3h-2.2l-3.1-1.9L109.6,530.8z M117.6,528.2l-4.6-3.5h2.8
	l3.8,3.5H117.6z"/>
<path d="M153.3,540.5v9.8h-2.3v-9.5c0-3.5-1.8-5.4-4.8-5.4c-3.5,0-5.6,2.2-5.6,6.1v8.8h-2.3v-9.5c0-3.5-1.8-5.4-4.9-5.4
	c-3.4,0-5.6,2.2-5.6,6.1v8.8h-2.3v-16.8h2.2v3.1c1.3-2.1,3.7-3.3,6.2-3.2c2.8,0,5,1.2,6,3.5c1.4-2.3,4-3.7,6.7-3.5
	C150.6,533.3,153.3,535.7,153.3,540.5z"/>
<path d="M183.2,526.5v23.7h-2.2v-3.3c-1.4,2.3-3.9,3.6-6.5,3.5c-4.7,0-8.6-3.8-8.6-8.6c0-4.7,3.8-8.5,8.6-8.6c2.6-0.1,5,1.2,6.4,3.3
	v-10.1H183.2z M181,541.8c0-3.9-2.7-6.6-6.2-6.6s-6.3,2.6-6.3,6.6s2.7,6.5,6.3,6.5S181,545.8,181,541.8z"/>
<path d="M202.3,539.8v10.4h-2.2v-2.6c-1,1.7-3,2.8-5.8,2.8c-3.8,0-6.1-2-6.1-4.9c0-2.6,1.7-4.8,6.5-4.8h5.3v-1
	c0-2.9-1.6-4.4-4.8-4.4c-2,0-4,0.7-5.6,2l-1-1.7c1.9-1.5,4.4-2.3,6.8-2.3C199.8,533.3,202.3,535.5,202.3,539.8z M192.4,530.8h-2.2
	l4.2-3h2.2l4.2,3h-2.2l-3.1-1.9L192.4,530.8z M200,545.2v-2.8h-5.3c-3.3,0-4.3,1.3-4.3,3c0,1.9,1.6,3.2,4.2,3.2
	C197,548.8,199.1,547.4,200,545.2z M200.4,528.1l-4.6-3.5h2.8l3.8,3.5H200.4z"/>
<path d="M223.6,533.4v16.8h-2.2v-3.1c-1.3,2.1-3.6,3.3-6,3.2c-4.3,0-7.1-2.4-7.1-7.2v-9.8h2.3v9.5c0,3.6,1.9,5.4,5.1,5.4
	c3.5,0,5.7-2.3,5.7-6.1v-8.8H223.6z"/>
<path d="M231.9,548.7c0,0.6-0.2,1.3-0.4,1.9l-1.4,4.4h-1.5l1.1-4.6c-0.7-0.2-1.2-0.9-1.1-1.6c-0.1-0.9,0.6-1.8,1.6-1.8
	c0.9-0.1,1.8,0.6,1.8,1.6C231.9,548.5,231.9,548.6,231.9,548.7L231.9,548.7z"/>
<path d="M262.2,541.8c0.2,4.5-3.2,8.3-7.7,8.6c-0.2,0-0.4,0-0.7,0c-2.6,0.1-5-1.2-6.4-3.3v9.4h-2.3v-23h2.2v3.3
	c1.4-2.2,3.9-3.6,6.5-3.5c4.5-0.1,8.2,3.4,8.4,7.9C262.2,541.4,262.2,541.6,262.2,541.8z M259.9,541.8c0.2-3.5-2.5-6.4-5.9-6.6
	c-3.5-0.2-6.4,2.5-6.6,5.9c0,0.2,0,0.5,0,0.7c0,3.9,2.7,6.5,6.3,6.5c3.4,0.1,6.2-2.7,6.3-6.1C260,542.2,259.9,542,259.9,541.8z"/>
<path d="M282.3,540.5v9.8h-2.3v-9.5c0-3.5-1.9-5.4-5.1-5.4c-3.6,0-5.9,2.2-5.9,6.1v8.8h-2.3v-23.8h2.3v9.9c1.4-2.1,3.8-3.2,6.3-3.1
	C279.5,533.3,282.3,535.7,282.3,540.5z"/>
<path d="M303.7,533.4v16.8h-2.2v-3.1c-1.3,2.1-3.6,3.3-6,3.2c-4.3,0-7.1-2.4-7.1-7.2v-9.8h2.3v9.5c0,3.6,1.9,5.4,5.1,5.4
	c3.5,0,5.7-2.3,5.7-6.1v-8.8H303.7z M293.9,526.8l-0.5-1.1c0.8-0.6,1.7-0.8,2.6-0.8c1.5-0.1,2.8,0.9,3,2.4c0,0.1,0,0.2,0,0.3
	c0,1.5-0.8,2.6-2.6,3.4l-0.8-1c1.3-0.6,1.9-1.3,1.9-2.3c0-0.9-0.8-1.6-1.7-1.6c0,0-0.1,0-0.1,0C295.1,526.2,294.4,526.4,293.9,526.8
	L293.9,526.8z"/>
<path d="M346.2,540.5v9.8h-2.3v-9.5c0-3.5-1.8-5.4-4.8-5.4c-3.5,0-5.6,2.2-5.6,6.1v8.8h-2.3v-9.5c0-3.5-1.8-5.4-4.9-5.4
	c-3.4,0-5.6,2.2-5.6,6.1v8.8h-2.3v-16.8h2.2v3.1c1.3-2.1,3.7-3.3,6.2-3.2c2.8,0,5,1.2,6,3.5c1.4-2.3,4-3.7,6.7-3.5
	C343.5,533.3,346.2,535.7,346.2,540.5z"/>
<path d="M367.9,541.8c0,4.7-3.8,8.6-8.5,8.6s-8.6-3.8-8.6-8.5c0-4.7,3.8-8.6,8.5-8.6c0,0,0,0,0,0c1.7,0,2.4,0.2,4,0.2
	c1.8,0,2.6-1,2.6-2.2c0-0.7-0.2-1.4-0.6-2l1.5-0.6c0.5,0.8,0.8,1.7,0.9,2.7c0,1.8-1.3,3.4-3.1,3.6
	C366.7,536.6,368,539.1,367.9,541.8z M365.6,541.8c0-3.9-2.6-6.6-6.2-6.6s-6.3,2.6-6.3,6.6s2.7,6.5,6.3,6.5S365.6,545.8,365.6,541.8
	z M359.2,530.8l-5.2-4h3l4.4,4H359.2z"/>
<path d="M396.4,540.5v9.8h-2.3v-9.5c0-3.5-1.9-5.4-5.1-5.4c-3.6,0-5.9,2.2-5.9,6.1v8.8h-2.3v-16.8h2.2v3.1c1.4-2.2,3.8-3.4,6.4-3.2
	C393.6,533.3,396.4,535.7,396.4,540.5z"/>
<path d="M417.3,541.8c0,0.2,0,0.4,0,0.7h-14.1c0.2,3.5,2.9,5.8,6.6,5.8c2,0.1,3.8-0.7,5.1-2.2l1.3,1.5c-1.6,1.8-4,2.8-6.5,2.8
	c-5.2,0-8.8-3.6-8.8-8.6s3.5-8.5,8.2-8.5S417.3,536.8,417.3,541.8z M403.2,540.8h11.9c-0.4-3.3-3.3-5.7-6.6-5.3
	C405.7,535.8,403.5,538,403.2,540.8z M406.1,530.8h-2.2l4.2-3h2.2l4.2,3h-2.2l-3.1-1.9L406.1,530.8z M414.1,528.2h-2l3.9-3.5h2.8
	L414.1,528.2z"/>
<path d="M439,541.8c0.2,4.5-3.2,8.3-7.7,8.6c-0.2,0-0.4,0-0.7,0c-2.6,0.1-5-1.2-6.4-3.3v9.4H422v-23h2.2v3.3
	c1.4-2.2,3.9-3.6,6.5-3.5c4.5-0.1,8.2,3.4,8.3,7.9C439,541.4,439,541.6,439,541.8z M436.7,541.8c0.2-3.4-2.4-6.3-5.8-6.5
	c-0.2,0-0.3,0-0.5,0c-3.6,0-6.3,2.7-6.3,6.6s2.7,6.5,6.3,6.5c3.4,0.1,6.2-2.7,6.3-6.1C436.8,542.2,436.7,542,436.7,541.8
	L436.7,541.8z"/>
<path d="M467.5,540.5v9.8h-2.3v-9.5c0-3.5-1.9-5.4-5-5.4c-3.6,0-5.9,2.2-5.9,6.1v8.8H452v-16.8h2.2v3.1c1.4-2.2,3.8-3.4,6.4-3.2
	C464.7,533.3,467.5,535.7,467.5,540.5z"/>
<path d="M489.2,540.5v9.8h-2.3v-9.5c0-3.5-1.9-5.4-5.1-5.4c-3.6,0-5.9,2.2-5.9,6.1v8.8h-2.3v-23.8h2.3v9.9c1.4-2.1,3.8-3.2,6.3-3.1
	C486.4,533.3,489.2,535.7,489.2,540.5z"/>
<path d="M508.1,539.8v10.4h-2.2v-2.6c-1,1.7-3,2.8-5.8,2.8c-3.8,0-6.1-2-6.1-4.9c0-2.6,1.7-4.8,6.5-4.8h5.3v-1
	c0-2.9-1.6-4.4-4.8-4.4c-2,0-4,0.7-5.6,2l-1-1.7c2-1.5,4.4-2.3,6.9-2.3C505.6,533.3,508.1,535.5,508.1,539.8z M505.8,545.2v-2.8
	h-5.3c-3.3,0-4.3,1.3-4.3,3c0,1.9,1.6,3.2,4.2,3.2C502.8,548.8,504.9,547.4,505.8,545.2z M496.5,526.9h1.6c0.1,1.7,1.5,2.7,3.3,2.7
	s3.2-1,3.3-2.7h1.6c-0.1,2.6-2.2,4.1-4.9,4.1S496.5,529.4,496.5,526.9z"/>
<path d="M529.7,540.5v9.8h-2.3v-9.5c0-3.5-1.9-5.4-5.1-5.4c-3.6,0-5.9,2.2-5.9,6.1v8.8h-2.3v-16.8h2.2v3.1c1.4-2.2,3.8-3.4,6.4-3.2
	C526.9,533.3,529.7,535.7,529.7,540.5z"/>
<path d="M558.4,533.4l-7.4,16.8h-2.3l-7.5-16.8h2.4l6.3,14.3l6.4-14.3L558.4,533.4z"/>
<path d="M573.8,539.8v10.4h-2.2v-2.6c-1,1.7-3,2.8-5.8,2.8c-3.8,0-6.2-2-6.2-4.9c0-2.6,1.7-4.8,6.5-4.8h5.3v-1
	c0-2.9-1.6-4.4-4.8-4.4c-2,0-4,0.7-5.6,2l-1-1.7c2-1.5,4.4-2.3,6.8-2.3C571.4,533.3,573.8,535.5,573.8,539.8z M566.9,530.8l-5.2-4h3
	l4.4,4H566.9z M571.6,545.2v-2.8h-5.3c-3.3,0-4.3,1.3-4.3,3c0,1.9,1.6,3.2,4.2,3.2C568.5,548.7,570.7,547.4,571.6,545.2L571.6,545.2
	z"/>
<path d="M588.4,526.5h2.3v23.7h-2.3V526.5z"/>
<path d="M612.4,541.8c0,4.7-3.8,8.6-8.5,8.6s-8.6-3.8-8.6-8.5c0-4.7,3.8-8.6,8.5-8.6c0,0,0,0,0,0c4.6-0.2,8.4,3.4,8.5,8
	C612.4,541.5,612.4,541.7,612.4,541.8z M610.1,541.8c0-3.9-2.7-6.6-6.2-6.6s-6.3,2.6-6.3,6.6s2.7,6.5,6.3,6.5
	S610.1,545.8,610.1,541.8z M600.7,530.8h-2.2l4.2-3h2.3l4.2,3H607l-3.1-1.9L600.7,530.8z M600.3,526.7h-1.4c-0.1-1.5,1-2.8,2.5-2.9
	c0.1,0,0.2,0,0.4,0c1.9,0,2.9,1.7,4.2,1.7c0.8,0.1,1.5-0.5,1.6-1.3c0-0.1,0-0.2,0-0.2h1.3c0.1,1.5-1,2.8-2.5,2.9c-0.1,0-0.2,0-0.3,0
	c-2,0-2.9-1.7-4.2-1.7c-0.8-0.1-1.5,0.5-1.5,1.3C600.2,526.5,600.2,526.6,600.3,526.7L600.3,526.7z"/>
<path d="M623.8,541.8c-0.2-4.6,3.4-8.4,8-8.6c0.2,0,0.4,0,0.7,0c2.6-0.2,5.1,1.1,6.6,3.3l-1.7,1.2c-1.1-1.6-2.9-2.5-4.9-2.5
	c-3.6,0.1-6.4,3.2-6.3,6.8c0.1,3.4,2.9,6.2,6.3,6.3c1.9,0.1,3.8-0.9,4.9-2.5l1.7,1.1c-1.4,2.2-4,3.5-6.6,3.3
	c-4.6,0.2-8.5-3.3-8.7-7.9C623.7,542.3,623.7,542.1,623.8,541.8z"/>
<path d="M658.7,540.5v9.8h-2.3v-9.5c0-3.5-1.9-5.4-5.1-5.4c-3.6,0-5.9,2.2-5.9,6.1v8.8h-2.3v-23.8h2.3v9.9c1.4-2.1,3.8-3.2,6.3-3.1
	C655.9,533.3,658.7,535.7,658.7,540.5z"/>
<path d="M677.6,539.8v10.4h-2.2v-2.6c-1,1.7-3,2.8-5.8,2.8c-3.8,0-6.1-2-6.1-4.9c0-2.6,1.7-4.8,6.5-4.8h5.3v-1
	c0-2.9-1.6-4.4-4.8-4.4c-2,0-4,0.7-5.6,2l-1-1.7c1.9-1.5,4.4-2.3,6.8-2.3C675.1,533.3,677.6,535.5,677.6,539.8z M667.7,530.8h-2.1
	l4.1-4h2.3l4.1,4H674l-3.2-2.7L667.7,530.8z M675.3,545.2v-2.8H670c-3.3,0-4.3,1.3-4.3,3c0,1.9,1.6,3.2,4.2,3.2
	C672.3,548.8,674.4,547.4,675.3,545.2L675.3,545.2z"/>
<path d="M699.2,540.5v9.8H697v-9.5c0-3.5-1.9-5.4-5.1-5.4c-3.6,0-5.9,2.2-5.9,6.1v8.8h-2.3v-16.8h2.2v3.1c1.4-2.2,3.8-3.4,6.4-3.2
	C696.4,533.3,699.2,535.7,699.2,540.5z"/>
<path d="M713.8,526.5h2.3v23.7h-2.3V526.5z"/>
<path d="M737.8,541.8c0,4.7-3.8,8.6-8.5,8.6c-4.7,0-8.6-3.8-8.6-8.6s3.8-8.6,8.5-8.6c0,0,0,0,0,0c4.6-0.2,8.4,3.4,8.5,8
	C737.8,541.5,737.8,541.7,737.8,541.8z M735.5,541.8c0-3.9-2.7-6.6-6.2-6.6s-6.3,2.6-6.3,6.6s2.7,6.5,6.3,6.5
	S735.5,545.8,735.5,541.8z M726.1,530.8H724l4.1-4h2.3l4.1,4h-2.1l-3.2-2.7L726.1,530.8z"/>
<path d="M758,540.5v9.8h-2.3v-9.5c0-3.5-1.9-5.4-5.1-5.4c-3.6,0-5.9,2.2-5.9,6.1v8.8h-2.3v-16.8h2.2v3.1c1.4-2.2,3.8-3.4,6.4-3.2
	C755.1,533.3,758,535.7,758,540.5z"/>
<path d="M779.8,533.4v14.8c0,5.8-2.8,8.4-8.4,8.4c-3.1,0-6.1-0.9-7.8-2.6l1.2-1.7c1.9,1.5,4.2,2.4,6.6,2.3c4.2,0,6.2-2,6.2-6.1v-2.1
	c-1.5,2.1-4,3.4-6.6,3.3c-4.8,0-8.4-3.4-8.4-8.2s3.6-8.1,8.4-8.1c2.7-0.1,5.2,1.2,6.7,3.4v-3.2H779.8z M777.6,541.4
	c0-3.7-2.7-6.1-6.4-6.1s-6.4,2.5-6.4,6.1c0.1,3.5,3.1,6.3,6.6,6.1C774.8,547.4,777.4,544.8,777.6,541.4z"/>
<path d="M784.7,548.7c0-0.9,0.7-1.7,1.7-1.7c0,0,0,0,0,0c0.9,0,1.7,0.8,1.7,1.7c0,0,0,0,0,0c0,1-0.8,1.7-1.7,1.8
	C785.4,550.4,784.7,549.6,784.7,548.7C784.7,548.7,784.7,548.7,784.7,548.7z"/>
<path d="M53.3,586.6h8.4v2h-8.4V586.6z"/>
<path d="M80,575.9h-7.9v-2h18.1v2h-7.9v20.3H80V575.9z"/>
<path d="M105.3,585.8v10.4h-2.2v-2.6c-1,1.7-3,2.8-5.8,2.8c-3.8,0-6.1-2-6.1-4.9c0-2.6,1.7-4.8,6.5-4.8h5.3v-1
	c0-2.9-1.6-4.4-4.8-4.4c-2,0-4,0.7-5.6,2l-1-1.7c1.9-1.5,4.4-2.3,6.8-2.3C102.9,579.3,105.3,581.5,105.3,585.8z M103.1,591.2v-2.8
	h-5.3c-3.3,0-4.3,1.3-4.3,3c0,1.9,1.6,3.2,4.3,3.2C100,594.8,102.2,593.4,103.1,591.2z M100.1,601c0,0.8-0.6,1.4-1.4,1.4
	c-0.8,0-1.4-0.6-1.4-1.4c0-0.8,0.6-1.4,1.4-1.4c0,0,0,0,0,0C99.4,599.6,100,600.2,100.1,601C100,601,100,601,100.1,601L100.1,601z"
	/>
<path d="M109.9,587.8c0-4.7,3.8-8.6,8.6-8.5s8.6,3.8,8.5,8.6c0,4.7-3.8,8.5-8.5,8.5c-4.6,0.2-8.4-3.4-8.6-8
	C109.9,588.3,109.9,588,109.9,587.8z M124.7,587.8c0-3.9-2.7-6.6-6.2-6.6s-6.3,2.6-6.3,6.6s2.7,6.5,6.3,6.5S124.7,591.8,124.7,587.8
	z"/>
<path d="M155.5,586.5v9.8h-2.3v-9.5c0-3.5-1.9-5.4-5.1-5.4c-3.6,0-5.9,2.2-5.9,6.1v8.8H140v-23.8h2.3v9.9c1.4-2.1,3.8-3.2,6.3-3.1
	C152.7,579.3,155.5,581.7,155.5,586.5z"/>
<path d="M161.2,574.1c0-0.9,0.8-1.6,1.7-1.6c0.9,0,1.6,0.7,1.7,1.6c0,0,0,0,0,0c-0.1,0.9-0.9,1.6-1.8,1.5
	C161.9,575.6,161.2,574.9,161.2,574.1L161.2,574.1z M161.7,579.4h2.3v16.8h-2.3V579.4z"/>
<path d="M184.9,588.5h-14.1c0.2,3.5,2.9,5.8,6.6,5.8c2,0.1,3.8-0.7,5.1-2.2l1.3,1.5c-1.6,1.8-4,2.8-6.5,2.8c-5.2,0-8.8-3.6-8.8-8.6
	s3.5-8.5,8.2-8.5s8.2,3.5,8.2,8.5C185,588,184.9,588.3,184.9,588.5z M170.9,586.8h11.9c-0.4-3.3-3.3-5.7-6.6-5.3
	C173.4,581.8,171.2,584,170.9,586.8L170.9,586.8z M173.6,576.8h-2.1l4.1-4h2.3l4.1,4H180l-3.2-2.7L173.6,576.8z M178.2,601
	c0,0.8-0.6,1.4-1.4,1.4s-1.4-0.6-1.4-1.4c0-0.8,0.6-1.4,1.4-1.4c0,0,0,0,0,0C177.5,599.6,178.2,600.2,178.2,601
	C178.2,600.9,178.2,600.9,178.2,601L178.2,601z"/>
<path d="M204.8,579.4v16.8h-2.2v-3.1c-1.3,2.1-3.6,3.3-6,3.2c-4.3,0-7.1-2.4-7.1-7.2v-9.8h2.3v9.5c0,3.6,1.9,5.4,5.1,5.4
	c3.5,0,5.7-2.3,5.7-6.1v-8.8H204.8z"/>
<path d="M234.7,581.1v15.2h-2.2v-3.1c-1.3,2.1-3.6,3.3-6.1,3.2c-4.3,0-7.1-2.4-7.1-7.2v-9.8h2.3v9.5c0,3.6,1.9,5.4,5.1,5.4
	c3.5,0,5.7-2.3,5.7-6.1v-8.8h1.2c1.1,0.1,2-0.8,2.1-1.9c0-0.1,0-0.2,0-0.3c0-0.7-0.2-1.4-0.6-2l1.5-0.6c0.5,0.8,0.8,1.7,0.8,2.7
	C237.6,579.1,236.4,580.7,234.7,581.1z M227.2,576.8H225l4.4-4h3L227.2,576.8z"/>
<path d="M256.3,586.5v9.8H254v-9.5c0-3.5-1.9-5.4-5.1-5.4c-3.6,0-5.9,2.2-5.9,6.1v8.8h-2.3v-16.8h2.2v3.1c1.4-2.2,3.8-3.4,6.4-3.2
	C253.4,579.3,256.3,581.7,256.3,586.5z"/>
<path d="M278.1,579.4v14.8c0,5.8-2.9,8.4-8.4,8.4c-3.1,0-6.1-0.9-7.8-2.6l1.1-1.7c1.9,1.5,4.2,2.4,6.6,2.3c4.2,0,6.2-2,6.2-6.1v-2.1
	c-1.5,2.1-4,3.4-6.6,3.3c-4.8,0-8.4-3.4-8.4-8.2s3.6-8.1,8.4-8.1c2.7-0.1,5.2,1.2,6.7,3.4v-3.2H278.1z M275.9,587.4
	c0-3.7-2.7-6.1-6.4-6.1s-6.4,2.5-6.4,6.1c0.1,3.5,3.1,6.3,6.6,6.1C273.1,593.4,275.7,590.8,275.9,587.4z"/>
<path d="M308.2,572.5v23.7H306v-3.3c-1.4,2.3-3.9,3.6-6.5,3.5c-4.7,0-8.6-3.8-8.6-8.6c0-4.7,3.8-8.5,8.6-8.6c2.6-0.1,5,1.2,6.4,3.3
	v-10.1H308.2z M306,587.8c0-3.9-2.7-6.6-6.2-6.6s-6.3,2.6-6.3,6.6s2.7,6.5,6.3,6.5S306,591.8,306,587.8z"/>
<path d="M327.2,585.8v10.4h-2.2v-2.6c-1,1.7-3,2.8-5.8,2.8c-3.8,0-6.1-2-6.1-4.9c0-2.6,1.7-4.8,6.5-4.8h5.4v-1
	c0-2.9-1.6-4.4-4.8-4.4c-2,0-4,0.7-5.6,2l-1-1.7c2-1.5,4.4-2.3,6.9-2.3C324.8,579.3,327.2,581.5,327.2,585.8z M325,591.2v-2.8h-5.3
	c-3.3,0-4.3,1.3-4.3,3c0,1.9,1.6,3.2,4.2,3.2C322,594.8,324.1,593.4,325,591.2z"/>
<path d="M339.5,594.3l1-1.8c1.8,1.2,3.9,1.9,6,1.9c3.2,0,4.5-1.1,4.5-2.8c0-4.4-10.9-0.9-10.9-7.6c0-2.8,2.4-4.8,6.7-4.8
	c2.1,0,4.1,0.5,6,1.6l-1,1.8c-1.5-1-3.2-1.5-5-1.4c-3,0-4.4,1.2-4.4,2.8c0,4.5,10.9,1.1,10.9,7.6c0,2.9-2.6,4.8-6.9,4.8
	C343.8,596.5,341.4,595.7,339.5,594.3z"/>
<path d="M370.1,585.8v10.4H368v-2.6c-1,1.7-3,2.8-5.8,2.8c-3.8,0-6.1-2-6.1-4.9c0-2.6,1.7-4.8,6.5-4.8h5.4v-1c0-2.9-1.6-4.4-4.8-4.4
	c-2,0-4,0.7-5.6,2l-1-1.7c1.9-1.5,4.4-2.3,6.8-2.3C367.7,579.3,370.1,581.5,370.1,585.8z M367.9,591.2v-2.8h-5.3
	c-3.3,0-4.3,1.3-4.3,3c0,1.9,1.6,3.2,4.2,3.2C364.9,594.8,367,593.4,367.9,591.2z M363.6,576.8h-2.2l4.4-4h3L363.6,576.8z"/>
<path d="M391.8,586.5v9.8h-2.3v-9.5c0-3.5-1.9-5.4-5.1-5.4c-3.6,0-5.9,2.2-5.9,6.1v8.8h-2.3v-16.8h2.2v3.1c1.4-2.2,3.8-3.4,6.4-3.2
	C389,579.3,391.8,581.7,391.8,586.5z"/>
<path d="M413.6,579.4v14.8c0,5.8-2.9,8.4-8.4,8.4c-3.1,0-6.1-0.9-7.8-2.6l1.1-1.7c1.9,1.5,4.2,2.4,6.6,2.3c4.2,0,6.2-2,6.2-6.1v-2.1
	c-1.5,2.1-4,3.4-6.6,3.3c-4.8,0-8.4-3.4-8.4-8.2s3.6-8.1,8.4-8.1c2.7-0.1,5.2,1.2,6.7,3.4v-3.2H413.6z M411.4,587.4
	c0-3.7-2.7-6.1-6.4-6.1s-6.4,2.5-6.4,6.1c0.1,3.5,3.1,6.3,6.6,6.1C408.6,593.4,411.3,590.8,411.4,587.4z"/>
<path d="M445.4,587.8c0.2,4.5-3.3,8.3-7.8,8.6c-0.2,0-0.4,0-0.6,0c-2.6,0.1-5.1-1.2-6.5-3.5v3.3h-2.2v-23.7h2.3v10.1
	c1.4-2.2,3.8-3.4,6.4-3.3c4.5-0.1,8.2,3.4,8.4,7.9C445.5,587.4,445.5,587.6,445.4,587.8z M443.2,587.8c0.2-3.4-2.4-6.3-5.8-6.5
	c-0.2,0-0.3,0-0.5,0c-3.6,0-6.3,2.6-6.3,6.6s2.7,6.5,6.3,6.5c3.4,0.1,6.2-2.7,6.3-6.1C443.2,588.2,443.2,588,443.2,587.8z"/>
<path d="M448.4,587.8c0-4.7,3.8-8.6,8.6-8.5s8.6,3.8,8.5,8.6c0,4.7-3.8,8.5-8.5,8.5c-4.6,0.2-8.4-3.4-8.6-8
	C448.4,588.2,448.4,588,448.4,587.8z M463.2,587.8c0-3.9-2.6-6.6-6.2-6.6s-6.3,2.6-6.3,6.6s2.7,6.5,6.3,6.5S463.2,591.8,463.2,587.8
	z M459.2,572.8h3l-5.2,4h-2.2L459.2,572.8z"/>
<path d="M485.6,586.5v9.8h-2.3v-9.5c0-3.5-1.9-5.4-5-5.4c-3.6,0-5.9,2.2-5.9,6.1v8.8h-2.3v-16.8h2.2v3.1c1.4-2.2,3.8-3.4,6.4-3.2
	C482.8,579.3,485.6,581.7,485.6,586.5z"/>
<path d="M507.5,579.4v14.8c0,5.8-2.9,8.4-8.4,8.4c-3.1,0-6.1-0.9-7.8-2.6l1.2-1.7c1.9,1.5,4.2,2.4,6.6,2.3c4.2,0,6.2-2,6.2-6.1v-2.1
	c-1.5,2.1-4,3.4-6.6,3.3c-4.8,0-8.5-3.4-8.5-8.2s3.6-8.1,8.5-8.1c2.7-0.1,5.2,1.2,6.6,3.4v-3.2H507.5z M505.2,587.4
	c0-3.7-2.7-6.1-6.4-6.1s-6.4,2.5-6.4,6.1c0.1,3.5,3.1,6.3,6.6,6.1C502.4,593.4,505.1,590.8,505.2,587.4z"/>
<path d="M530.7,579.3v2.2c-0.2,0-0.4,0-0.5,0c-3.5,0-5.7,2.2-5.7,6.2v8.6h-2.3v-16.9h2.2v3.3C525.4,580.5,527.6,579.3,530.7,579.3z"
	/>
<path d="M547.5,585.8v10.4h-2.2v-2.6c-1,1.7-3,2.8-5.8,2.8c-3.8,0-6.1-2-6.1-4.9c0-2.6,1.7-4.8,6.5-4.8h5.3v-1
	c0-2.9-1.6-4.4-4.8-4.4c-2,0-4,0.7-5.6,2l-1-1.7c2-1.5,4.4-2.3,6.8-2.3C545,579.3,547.5,581.5,547.5,585.8z M545.2,591.2v-2.8h-5.3
	c-3.3,0-4.3,1.3-4.3,3c0,1.9,1.6,3.2,4.2,3.2C542.2,594.8,544.3,593.4,545.2,591.2z M542.2,601c0,0.8-0.6,1.4-1.4,1.4
	c-0.8,0-1.4-0.6-1.4-1.4c0-0.8,0.6-1.4,1.4-1.4c0,0,0,0,0,0C541.6,599.6,542.2,600.2,542.2,601C542.2,600.9,542.2,601,542.2,601
	L542.2,601z"/>
<path d="M569.1,586.5v9.8h-2.3v-9.5c0-3.5-1.9-5.4-5.1-5.4c-3.6,0-5.9,2.2-5.9,6.1v8.8h-2.3v-16.8h2.2v3.1c1.4-2.2,3.8-3.4,6.4-3.2
	C566.3,579.3,569.1,581.7,569.1,586.5z"/>
<path d="M591,579.4v14.8c0,5.8-2.8,8.4-8.4,8.4c-3.1,0-6.1-0.9-7.8-2.6l1.2-1.7c1.9,1.5,4.2,2.4,6.6,2.3c4.2,0,6.2-2,6.2-6.1v-2.1
	c-1.5,2.1-4,3.4-6.6,3.3c-4.8,0-8.4-3.4-8.4-8.2s3.6-8.1,8.4-8.1c2.7-0.1,5.2,1.2,6.7,3.4v-3.2H591z M588.8,587.4
	c0-3.7-2.7-6.1-6.4-6.1s-6.4,2.5-6.4,6.1c0.1,3.5,3.1,6.3,6.6,6.1C586,593.4,588.6,590.8,588.8,587.4L588.8,587.4z"/>
<path d="M614.2,579.3v2.2c-0.2,0-0.4,0-0.5,0c-3.5,0-5.7,2.2-5.7,6.2v8.6h-2.3v-16.9h2.2v3.3C608.9,580.5,611.1,579.3,614.2,579.3z"
	/>
<path d="M633.5,587.8c0,4.7-3.8,8.6-8.5,8.6s-8.6-3.8-8.6-8.5c0-4.7,3.8-8.6,8.5-8.6c0,0,0,0,0,0c1.7,0,2.4,0.2,4,0.2
	c1.8,0,2.6-1,2.6-2.2c0-0.7-0.2-1.4-0.6-2l1.5-0.6c0.5,0.8,0.8,1.7,0.9,2.7c0,1.8-1.3,3.4-3.1,3.6
	C632.4,582.6,633.6,585.1,633.5,587.8z M631.2,587.8c0-3.9-2.7-6.6-6.2-6.6s-6.3,2.6-6.3,6.6s2.7,6.5,6.3,6.5
	S631.2,591.8,631.2,587.8z M621.5,576.5h-1.3c0.1-2.1,1.1-3.5,2.8-3.5c1.8,0,2.8,2.2,4,2.2c0.9,0,1.5-0.8,1.6-2h1.3
	c-0.1,2.1-1.1,3.5-2.7,3.5c-1.9,0-2.8-2.2-4-2.2C622.2,574.5,621.6,575.2,621.5,576.5z"/>
<path d="M636.3,594.7c0-0.9,0.7-1.7,1.7-1.7c0,0,0,0,0,0c0.9,0,1.7,0.8,1.7,1.7c0,0,0,0,0,0c0,1-0.8,1.7-1.7,1.8
	C637.1,596.4,636.3,595.6,636.3,594.7C636.3,594.7,636.3,594.7,636.3,594.7z"/>
<g id="XMLID_8_">
	<rect x="56.4" y="30.5" class="st0" width="451.8" height="133.4"/>
</g>
<g>
	<path class="st1" d="M122.7,120.6V82.1l-9.8,7.6l-6.4-8.8l17.2-12.7h11.3v52.4H122.7z"/>
	<path class="st1" d="M154.6,120.6v-10.3l20.4-18.5c1.3-1.2,2.3-2.5,3.1-3.8c0.8-1.3,1.2-2.7,1.2-4.3c0-1.9-0.6-3.4-1.8-4.5
		c-1.2-1.2-2.8-1.7-4.7-1.7c-2.1,0-3.8,0.7-5.1,2.2c-1.3,1.5-2.1,3.4-2.3,5.7l-11.9-1.6c0.3-2.7,1-5,2.2-7.1
		c1.2-2.1,2.6-3.9,4.4-5.3c1.8-1.5,3.8-2.6,6.1-3.4c2.3-0.8,4.7-1.2,7.3-1.2c2.4,0,4.8,0.3,7,1c2.3,0.6,4.3,1.6,6.1,3
		c1.8,1.3,3.2,3,4.3,5c1.1,2,1.6,4.4,1.6,7.1c0,1.9-0.2,3.6-0.7,5.1c-0.5,1.5-1.2,2.9-2,4.2c-0.9,1.3-1.9,2.5-3,3.6
		c-1.1,1.1-2.3,2.2-3.4,3.3l-12.1,10.8h21.4v10.8H154.6z"/>
	<path class="st1" d="M241.9,85.5c0,3.1-0.5,5.9-1.6,8.5c-1.1,2.5-2.5,5.1-4.2,7.7l-12.7,18.9h-15l13-18.1l0.1-0.2
		c-0.5,0.2-1.1,0.3-1.8,0.4c-0.7,0.1-1.3,0.1-1.9,0.1c-2.3,0-4.5-0.4-6.6-1.2c-2.1-0.8-3.9-2-5.5-3.5c-1.6-1.5-2.8-3.3-3.8-5.4
		c-0.9-2.1-1.4-4.4-1.4-7c0-3,0.5-5.6,1.6-8s2.6-4.4,4.4-6c1.9-1.6,4.1-2.9,6.6-3.7c2.5-0.9,5.2-1.3,8-1.3c2.9,0,5.5,0.4,8.1,1.3
		c2.5,0.9,4.7,2.1,6.5,3.7c1.8,1.6,3.3,3.6,4.4,5.9C241.4,80,241.9,82.6,241.9,85.5z M229.6,85.3c0-2.3-0.7-4.2-2.2-5.9
		c-1.5-1.7-3.5-2.5-6-2.5s-4.5,0.8-6.1,2.3c-1.5,1.6-2.3,3.6-2.3,6.1c0,2.4,0.7,4.3,2.2,5.9c1.5,1.6,3.5,2.3,6,2.3
		c2.5,0,4.5-0.8,6-2.3C228.8,89.8,229.6,87.8,229.6,85.3z"/>
	<path class="st1" d="M256.7,129.8h-10l5.6-21h11.6L256.7,129.8z"/>
	<path class="st1" d="M311.9,94.2c0,3.7-0.4,7.2-1.1,10.6c-0.7,3.4-1.9,6.3-3.6,8.8c-1.6,2.5-3.7,4.6-6.3,6.1
		c-2.6,1.5-5.7,2.3-9.4,2.3c-3.7,0-6.9-0.8-9.5-2.3c-2.6-1.5-4.8-3.5-6.4-6.1c-1.7-2.5-2.9-5.5-3.6-8.8c-0.7-3.4-1.1-6.9-1.1-10.6
		c0-3.7,0.4-7.2,1.1-10.6c0.7-3.3,1.9-6.2,3.6-8.7c1.7-2.5,3.8-4.5,6.4-6c2.6-1.5,5.8-2.2,9.5-2.2c3.7,0,6.8,0.7,9.4,2.2
		s4.7,3.5,6.3,6c1.6,2.5,2.8,5.4,3.6,8.7C311.5,87,311.9,90.5,311.9,94.2z M299.1,94.2c0-1.6-0.1-3.4-0.3-5.4
		c-0.2-2-0.6-3.8-1.1-5.5c-0.5-1.7-1.3-3.1-2.3-4.3c-1-1.2-2.3-1.7-4-1.7c-1.6,0-3,0.6-4,1.7c-1,1.2-1.8,2.6-2.4,4.3
		c-0.6,1.7-1,3.5-1.1,5.5c-0.2,2-0.3,3.8-0.3,5.4c0,1.7,0.1,3.5,0.3,5.5c0.2,2,0.6,3.8,1.1,5.6c0.6,1.7,1.4,3.1,2.4,4.3
		c1,1.2,2.4,1.7,4,1.7c1.6,0,2.9-0.6,4-1.7c1-1.2,1.8-2.6,2.3-4.3c0.5-1.7,0.9-3.6,1.1-5.6C299,97.7,299.1,95.9,299.1,94.2z"/>
	<path class="st1" d="M359.7,94.2c0,3.7-0.4,7.2-1.1,10.6c-0.7,3.4-1.9,6.3-3.6,8.8c-1.6,2.5-3.7,4.6-6.3,6.1
		c-2.6,1.5-5.7,2.3-9.4,2.3c-3.7,0-6.9-0.8-9.5-2.3c-2.6-1.5-4.8-3.5-6.4-6.1c-1.7-2.5-2.9-5.5-3.6-8.8c-0.7-3.4-1.1-6.9-1.1-10.6
		c0-3.7,0.4-7.2,1.1-10.6c0.7-3.3,1.9-6.2,3.6-8.7c1.7-2.5,3.8-4.5,6.4-6c2.6-1.5,5.8-2.2,9.5-2.2c3.7,0,6.8,0.7,9.4,2.2
		s4.7,3.5,6.3,6c1.6,2.5,2.8,5.4,3.6,8.7C359.3,87,359.7,90.5,359.7,94.2z M347,94.2c0-1.6-0.1-3.4-0.3-5.4c-0.2-2-0.6-3.8-1.1-5.5
		c-0.5-1.7-1.3-3.1-2.3-4.3c-1-1.2-2.3-1.7-4-1.7c-1.6,0-3,0.6-4,1.7c-1,1.2-1.8,2.6-2.4,4.3c-0.6,1.7-1,3.5-1.1,5.5
		c-0.2,2-0.3,3.8-0.3,5.4c0,1.7,0.1,3.5,0.3,5.5c0.2,2,0.6,3.8,1.1,5.6c0.6,1.7,1.4,3.1,2.4,4.3c1,1.2,2.4,1.7,4,1.7
		c1.6,0,2.9-0.6,4-1.7c1-1.2,1.8-2.6,2.3-4.3c0.5-1.7,0.9-3.6,1.1-5.6C346.9,97.7,347,95.9,347,94.2z"/>
	<path class="st1" d="M407.5,94.2c0,3.7-0.4,7.2-1.1,10.6c-0.7,3.4-1.9,6.3-3.6,8.8c-1.6,2.5-3.7,4.6-6.3,6.1
		c-2.6,1.5-5.7,2.3-9.4,2.3c-3.7,0-6.9-0.8-9.5-2.3c-2.6-1.5-4.8-3.5-6.4-6.1c-1.7-2.5-2.9-5.5-3.6-8.8c-0.7-3.4-1.1-6.9-1.1-10.6
		c0-3.7,0.4-7.2,1.1-10.6c0.7-3.3,1.9-6.2,3.6-8.7c1.7-2.5,3.8-4.5,6.4-6c2.6-1.5,5.8-2.2,9.5-2.2c3.7,0,6.8,0.7,9.4,2.2
		s4.7,3.5,6.3,6c1.6,2.5,2.8,5.4,3.6,8.7C407.2,87,407.5,90.5,407.5,94.2z M394.8,94.2c0-1.6-0.1-3.4-0.3-5.4
		c-0.2-2-0.6-3.8-1.1-5.5c-0.5-1.7-1.3-3.1-2.3-4.3c-1-1.2-2.3-1.7-4-1.7c-1.6,0-3,0.6-4,1.7c-1,1.2-1.8,2.6-2.4,4.3
		c-0.6,1.7-1,3.5-1.1,5.5c-0.2,2-0.3,3.8-0.3,5.4c0,1.7,0.1,3.5,0.3,5.5c0.2,2,0.6,3.8,1.1,5.6c0.6,1.7,1.4,3.1,2.4,4.3
		c1,1.2,2.4,1.7,4,1.7c1.6,0,2.9-0.6,4-1.7c1-1.2,1.8-2.6,2.3-4.3c0.5-1.7,0.9-3.6,1.1-5.6C394.7,97.7,394.8,95.9,394.8,94.2z"/>
	<path class="st1" d="M443.6,120.6v-4.8h-0.1c-1.2,1.9-2.9,3.3-5.1,4.3c-2.2,1-4.5,1.5-7,1.5c-2.8,0-5.2-0.5-7.4-1.6
		c-2.2-1.1-4-2.5-5.5-4.3c-1.5-1.8-2.7-3.9-3.4-6.3c-0.8-2.4-1.2-4.8-1.2-7.4c0-2.6,0.4-5,1.2-7.4c0.8-2.3,2-4.4,3.5-6.2
		c1.5-1.8,3.3-3.2,5.5-4.2c2.1-1,4.6-1.6,7.2-1.6c2.7,0,5,0.5,6.9,1.6c1.9,1,3.3,2.2,4.4,3.4h0.1v-9.3h-11v-6.6h11v-7.2h12.1v7.2
		h3.4v6.6h-3.4v42.2H443.6z M443.1,102.1c0-1.2-0.2-2.3-0.6-3.5c-0.4-1.1-1-2.1-1.8-3c-0.8-0.9-1.7-1.6-2.8-2.1
		c-1.1-0.5-2.3-0.8-3.7-0.8c-1.4,0-2.7,0.3-3.8,0.8c-1.1,0.5-2,1.2-2.7,2.1c-0.7,0.9-1.3,1.9-1.7,3c-0.4,1.1-0.6,2.3-0.6,3.5
		s0.2,2.4,0.6,3.5c0.4,1.2,0.9,2.2,1.7,3.1c0.7,0.9,1.7,1.6,2.7,2.1c1.1,0.5,2.3,0.8,3.8,0.8c1.4,0,2.6-0.3,3.7-0.8
		c1.1-0.5,2-1.3,2.8-2.1c0.8-0.9,1.4-1.9,1.8-3C442.9,104.4,443.1,103.3,443.1,102.1z"/>
</g>
</svg>
