<svg id="Layer_1" data-name="Layer 1" xmlns="http://www.w3.org/2000/svg" viewBox="0 0 2006 984.99"><defs><style>.cls-1{fill:#c90202;}.cls-2{fill:#fff;}</style></defs><title>Image convert 1 fix text</title><path d="M214.77,663.22l-.2-82.81L174,648.63H159.56l-40.42-66.45v81h-30v-138h26.42L167.25,611l50.87-85.77h26.22l.4,138Z"/><path d="M369.15,602.69v60.53H340.36V650c-5.72,9.66-16.76,14.79-32.34,14.79-24.84,0-39.63-13.8-39.63-32.14,0-18.73,13.21-31.75,45.55-31.75h24.45c0-13.21-7.89-20.9-24.45-20.9-11.24,0-22.87,3.75-30.56,9.86l-11-21.49c11.63-8.28,28.78-12.82,45.74-12.82C350.42,555.56,369.15,570.55,369.15,602.69Zm-30.76,27V618.86h-21.1c-14.39,0-18.93,5.32-18.93,12.42,0,7.69,6.51,12.81,17.35,12.81C326,644.09,334.84,639.36,338.39,629.7Z"/><path d="M386.69,653.36,397,631.28c9.46,6.11,23.85,10.25,36.87,10.25,14.19,0,19.52-3.74,19.52-9.66,0-17.35-64.08.39-64.08-42,0-20.11,18.14-34.31,49.09-34.31,14.59,0,30.76,3.36,40.82,9.27l-10.25,21.89a60.93,60.93,0,0,0-30.57-7.89c-13.8,0-19.71,4.34-19.71,9.86,0,18.14,64.08.59,64.08,42.39,0,19.72-18.34,33.72-50.09,33.72C414.69,664.8,396.55,659.87,386.69,653.36Z"/><path d="M493.76,610.18c0-31.94,24.64-54.62,59.15-54.62,22.28,0,39.83,9.67,47.52,27l-23.86,12.81c-5.72-10-14.2-14.59-23.86-14.59-15.58,0-27.8,10.85-27.8,29.38s12.22,29.38,27.8,29.38c9.66,0,18.14-4.34,23.86-14.59l23.86,13c-7.69,17-25.24,26.82-47.52,26.82C518.4,664.8,493.76,642.12,493.76,610.18Z"/><path d="M712,602.69v60.53H683.24V650c-5.72,9.66-16.76,14.79-32.34,14.79-24.85,0-39.63-13.8-39.63-32.14,0-18.73,13.21-31.75,45.54-31.75h24.45c0-13.21-7.88-20.9-24.45-20.9-11.23,0-22.87,3.75-30.56,9.86l-11-21.49C626.84,560.1,644,555.56,661,555.56,693.29,555.56,712,570.55,712,602.69Zm-30.76,27V618.86H660.17c-14.4,0-18.93,5.32-18.93,12.42,0,7.69,6.5,12.81,17.35,12.81C668.84,644.09,677.71,639.36,681.26,629.7Z"/><path d="M805.68,555.56V584c-2.57-.2-4.54-.4-6.9-.4-17,0-28.2,9.27-28.2,29.58v50.08H739.82V557.14H769.2v14C776.69,560.89,789.31,555.56,805.68,555.56Z"/><path d="M917.28,602.69v60.53H888.49V650c-5.72,9.66-16.76,14.79-32.33,14.79-24.85,0-39.64-13.8-39.64-32.14,0-18.73,13.21-31.75,45.55-31.75h24.45c0-13.21-7.89-20.9-24.45-20.9-11.24,0-22.87,3.75-30.56,9.86l-11-21.49c11.63-8.28,28.78-12.82,45.74-12.82C898.55,555.56,917.28,570.55,917.28,602.69Zm-30.76,27V618.86h-21.1c-14.39,0-18.93,5.32-18.93,12.42,0,7.69,6.51,12.81,17.35,12.81C874.1,644.09,883,639.36,886.52,629.7Z"/><path d="M993,610.18c0-31.94,24.64-54.62,59.15-54.62,22.28,0,39.83,9.67,47.52,27l-23.86,12.81c-5.72-10-14.2-14.59-23.86-14.59-15.57,0-27.8,10.85-27.8,29.38s12.23,29.38,27.8,29.38c9.66,0,18.14-4.34,23.86-14.59l23.86,13c-7.69,17-25.24,26.82-47.52,26.82C1017.63,664.8,993,642.12,993,610.18Z"/><path d="M1108.14,610.18c0-31.94,24.64-54.62,58.36-54.62s58.17,22.68,58.17,54.62-24.45,54.62-58.17,54.62S1108.14,642.12,1108.14,610.18Zm85.37,0c0-18.34-11.63-29.38-27-29.38s-27.21,11-27.21,29.38,11.83,29.38,27.21,29.38S1193.51,628.52,1193.51,610.18Z"/><path d="M1353.62,602.49v60.73h-30.76v-56c0-17.15-7.89-25-21.5-25-14.78,0-25.43,9.07-25.43,28.59v52.45h-30.76V557.14h29.38v12.42c8.28-9.07,20.7-14,35.1-14C1334.69,555.56,1353.62,570.15,1353.62,602.49Z"/><path d="M1492,557.14v88.33c0,39.44-21.3,57.58-59.55,57.58-20.11,0-39.63-4.93-52-14.59l12.22-22.08c9.07,7.29,23.86,12,37.47,12,21.68,0,31.15-9.86,31.15-29v-4.54c-8.09,8.88-19.72,13.21-33.52,13.21-29.38,0-53-20.3-53-51.26s23.66-51.27,53-51.27c14.79,0,27,4.93,35.1,15.19V557.14Zm-30.37,49.69c0-15.58-11.63-26-27.8-26s-28,10.45-28,26,11.83,26,28,26S1461.66,622.41,1461.66,606.83Z"/><path d="M1755.64,602.49v60.73h-30.75v-56c0-17.15-7.69-25-20.12-25-13.8,0-23.46,8.87-23.46,27.8v53.24h-30.76v-56c0-17.15-7.3-25-20.11-25-13.61,0-23.27,8.87-23.27,27.8v53.24h-30.76V557.14h29.38v12.23c7.89-9.07,19.72-13.81,33.32-13.81,14.79,0,27.41,5.72,34.9,17.35,8.48-10.84,22.28-17.35,38.26-17.35C1737.5,555.56,1755.64,570.15,1755.64,602.49Z"/><path d="M1779.5,525.2c0-9.66,7.69-17.16,19.12-17.16s19.13,7.1,19.13,16.57c0,10.25-7.69,17.74-19.13,17.74S1779.5,534.86,1779.5,525.2Zm3.75,31.94H1814V663.22h-30.75Z"/><path d="M76.33,754.08c0-19.12,14.68-32.79,34.43-32.79,11,0,20.11,4,26.09,11.23l-9.42,8.7a20.38,20.38,0,0,0-16-7.43c-11.86,0-20.29,8.33-20.29,20.29s8.43,20.29,20.29,20.29a20.19,20.19,0,0,0,16-7.52l9.42,8.7c-6,7.34-15.13,11.32-26.18,11.32C91,786.87,76.33,773.2,76.33,754.08Z"/><path d="M188.49,758v27.81H175.26v-6.07c-2.63,4.44-7.7,6.79-14.86,6.79-11.41,0-18.21-6.34-18.21-14.77,0-8.6,6.07-14.58,20.93-14.58h11.23c0-6.07-3.62-9.6-11.23-9.6a23.42,23.42,0,0,0-14,4.53L144,742.21c5.34-3.8,13.22-5.89,21-5.89C179.88,736.32,188.49,743.21,188.49,758Zm-14.14,12.41v-5h-9.69c-6.61,0-8.7,2.45-8.7,5.71,0,3.53,3,5.89,8,5.89C168.65,777,172.72,774.83,174.35,770.39Z"/><path d="M232.69,783.43c-2.9,2.09-7.15,3.08-11.5,3.08-11.51,0-18.21-5.89-18.21-17.48V749h-7.52V738.14H203V726.27h14.13v11.87h12.14V749H217.11v19.84c0,4.16,2.27,6.43,6.07,6.43a9.57,9.57,0,0,0,5.71-1.81Z"/><path d="M290.49,757.88v27.91H276.36V760.06c0-7.88-3.62-11.51-9.88-11.51-6.79,0-11.68,4.17-11.68,13.14v24.1H240.67V718.57H254.8v23.55c3.8-3.8,9.24-5.8,15.49-5.8C281.79,736.32,290.49,743,290.49,757.88Z"/><path d="M350.74,737.05l-22,51.73c-4.71,11.77-11.41,15.31-20.2,15.31-5,0-10.42-1.63-13.59-4.44l5.16-10.06a12.57,12.57,0,0,0,8,3.08c3.89,0,6.07-1.72,8-6.07l.18-.45-21.11-49.1H309.7l13.68,33.07,13.77-33.07Z"/><path d="M383.17,722.37H412c20.75,0,35,12.5,35,31.71s-14.22,31.71-35,31.71h-28.8Zm28.08,51.37c12.59,0,20.84-7.52,20.84-19.66s-8.25-19.66-20.84-19.66H397.84v39.32Z"/><path d="M453.38,761.42c0-14.68,11.32-25.1,26.81-25.1s26.72,10.42,26.72,25.1-11.23,25.09-26.72,25.09S453.38,776.09,453.38,761.42Zm39.22,0c0-8.43-5.34-13.5-12.41-13.5s-12.5,5.07-12.5,13.5,5.43,13.5,12.5,13.5S492.6,769.84,492.6,761.42Z"/><path d="M516.34,718.57h14.13v67.22H516.34Z"/><path d="M543.6,718.57h14.14v67.22H543.6Z"/><path d="M646.61,774v11.78H597.5V722.37h47.93v11.78H612.09v13.77h29.44v11.41H612.09V774Z"/><path d="M705.22,737.05l-22,51.73c-4.72,11.77-11.42,15.31-20.21,15.31-5,0-10.42-1.63-13.59-4.44l5.17-10.06a12.52,12.52,0,0,0,8,3.08c3.9,0,6.07-1.72,8-6.07l.18-.45-21.1-49.1h14.58l13.68,33.07,13.77-33.07Z"/><path d="M757.13,765.4H720.26c1.36,6.07,6.52,9.79,14,9.79a16.53,16.53,0,0,0,12.23-4.71l7.52,8.15c-4.53,5.16-11.33,7.88-20.11,7.88-16.85,0-27.82-10.6-27.82-25.09s11.15-25.1,26-25.1c14.32,0,25.37,9.61,25.37,25.28C757.4,762.69,757.22,764.23,757.13,765.4Zm-37-8.24h24a11.58,11.58,0,0,0-12-10.15C725.69,747,721.07,750.91,720.08,757.16Z"/><path d="M793.45,722.37h28.81c20.75,0,35,12.5,35,31.71s-14.22,31.71-35,31.71H793.45Zm28.09,51.37c12.59,0,20.83-7.52,20.83-19.66s-8.24-19.66-20.83-19.66H808.13v39.32Z"/><path d="M863.66,761.42c0-14.68,11.33-25.1,26.82-25.1s26.72,10.42,26.72,25.1S906,786.51,890.48,786.51,863.66,776.09,863.66,761.42Zm39.23,0c0-8.43-5.35-13.5-12.41-13.5S878,753,878,761.42s5.44,13.5,12.51,13.5S902.89,769.84,902.89,761.42Z"/><path d="M956.88,736.32v13c-1.18-.09-2.08-.18-3.17-.18-7.79,0-13,4.26-13,13.59v23H926.62V737.05h13.5v6.43C943.56,738.77,949.36,736.32,956.88,736.32Z"/><path d="M1008.16,758v27.81H994.93v-6.07c-2.63,4.44-7.7,6.79-14.86,6.79-11.41,0-18.2-6.34-18.2-14.77,0-8.6,6.07-14.58,20.92-14.58H994c0-6.07-3.63-9.6-11.24-9.6a23.42,23.42,0,0,0-14,4.53l-5.07-9.88c5.34-3.8,13.22-5.89,21-5.89C999.55,736.32,1008.16,743.21,1008.16,758ZM994,770.39v-5h-9.7c-6.61,0-8.69,2.45-8.69,5.71,0,3.53,3,5.89,8,5.89C988.32,777,992.39,774.83,994,770.39Z"/><path d="M1074,761.42c0,15.31-10.6,25.09-24.28,25.09-6.53,0-11.78-2.08-15.31-6.34v5.62h-13.5V718.57h14.13v23.64c3.63-4,8.61-5.89,14.68-5.89C1063.42,736.32,1074,746.11,1074,761.42Zm-14.32,0c0-8.43-5.34-13.5-12.41-13.5s-12.41,5.07-12.41,13.5,5.35,13.5,12.41,13.5S1059.7,769.84,1059.7,761.42Z"/><path d="M1083.44,718.57h14.13v67.22h-14.13Z"/><path d="M1158.17,765.4H1121.3c1.36,6.07,6.53,9.79,14,9.79a16.54,16.54,0,0,0,12.23-4.71l7.51,8.15c-4.53,5.16-11.32,7.88-20.11,7.88-16.85,0-27.81-10.6-27.81-25.09s11.14-25.1,26-25.1c14.31,0,25.37,9.61,25.37,25.28C1158.45,762.69,1158.27,764.23,1158.17,765.4Zm-37.05-8.24h24a11.59,11.59,0,0,0-12-10.15C1126.74,747,1122.12,750.91,1121.12,757.16Z"/><path d="M1252.21,785.79l-.09-38-18.66,31.34h-6.62l-18.57-30.53v37.24H1194.5V722.37h12.14l23.74,39.41,23.37-39.41h12l.18,63.42Z"/><path d="M1323.14,758v27.81h-13.22v-6.07c-2.63,4.44-7.7,6.79-14.86,6.79-11.42,0-18.21-6.34-18.21-14.77,0-8.6,6.07-14.58,20.93-14.58H1309c0-6.07-3.62-9.6-11.23-9.6a23.4,23.4,0,0,0-14,4.53l-5.08-9.88c5.35-3.8,13.23-5.89,21-5.89C1314.54,736.32,1323.14,743.21,1323.14,758ZM1309,770.39v-5h-9.69c-6.62,0-8.7,2.45-8.7,5.71,0,3.53,3,5.89,8,5.89C1303.3,777,1307.38,774.83,1309,770.39Z"/><path d="M1331.2,781.26l4.72-10.15a33.3,33.3,0,0,0,16.94,4.71c6.52,0,9-1.72,9-4.44,0-8-29.44.18-29.44-19.29,0-9.24,8.34-15.77,22.56-15.77,6.7,0,14.13,1.54,18.75,4.26L1369,750.64a28,28,0,0,0-14-3.63c-6.34,0-9.06,2-9.06,4.53,0,8.34,29.44.28,29.44,19.48,0,9.06-8.42,15.49-23,15.49C1344.07,786.51,1335.73,784.25,1331.2,781.26Z"/><path d="M1380.39,761.42c0-14.68,11.33-25.1,27.18-25.1,10.24,0,18.3,4.44,21.84,12.42l-11,5.88c-2.62-4.62-6.52-6.7-11-6.7-7.15,0-12.77,5-12.77,13.5s5.62,13.5,12.77,13.5c4.44,0,8.34-2,11-6.71l11,6c-3.54,7.79-11.6,12.32-21.84,12.32C1391.72,786.51,1380.39,776.09,1380.39,761.42Z"/><path d="M1480.68,758v27.81h-13.23v-6.07c-2.62,4.44-7.7,6.79-14.85,6.79-11.42,0-18.21-6.34-18.21-14.77,0-8.6,6.07-14.58,20.92-14.58h11.24c0-6.07-3.63-9.6-11.24-9.6a23.42,23.42,0,0,0-14,4.53l-5.07-9.88c5.34-3.8,13.22-5.89,21-5.89C1472.07,736.32,1480.68,743.21,1480.68,758Zm-14.13,12.41v-5h-9.7c-6.61,0-8.69,2.45-8.69,5.71,0,3.53,3,5.89,8,5.89C1460.84,777,1464.92,774.83,1466.55,770.39Z"/><path d="M1523.71,736.32v13c-1.18-.09-2.08-.18-3.17-.18-7.79,0-13,4.26-13,13.59v23h-14.13V737.05H1507v6.43C1510.39,738.77,1516.19,736.32,1523.71,736.32Z"/><path d="M1575,758v27.81h-13.23v-6.07c-2.63,4.44-7.7,6.79-14.86,6.79-11.41,0-18.21-6.34-18.21-14.77,0-8.6,6.07-14.58,20.93-14.58h11.23c0-6.07-3.62-9.6-11.23-9.6a23.42,23.42,0,0,0-14,4.53l-5.07-9.88c5.34-3.8,13.22-5.89,21-5.89C1566.38,736.32,1575,743.21,1575,758Zm-14.14,12.41v-5h-9.69c-6.61,0-8.7,2.45-8.7,5.71,0,3.53,3,5.89,8,5.89C1555.15,777,1559.22,774.83,1560.85,770.39Z"/><path d="M1661.05,752.72c0,21.92-13.14,34.15-32.34,34.15-6.71,0-13.14-1.54-17.58-4.34l5.44-10.79c3.44,2.36,7.51,3.18,11.86,3.18,10.51,0,17.4-6.26,17.85-18.48-3.71,3.71-9.15,5.7-15.76,5.7-12.23,0-21.84-7.79-21.84-19.75,0-12.95,10.6-21.1,24-21.1C1650.27,721.29,1661.05,732.25,1661.05,752.72Zm-16.4-11.05c0-5.44-4.08-9.42-11.05-9.42-6.25,0-10.6,3.62-10.6,9.42s4.26,9.51,10.78,9.51S1644.65,747.2,1644.65,741.67Z"/><path d="M1721.38,737.05v40.58c0,18.12-9.78,26.46-27.36,26.46-9.24,0-18.21-2.27-23.91-6.71l5.61-10.14c4.17,3.35,11,5.52,17.21,5.52,10,0,14.32-4.53,14.32-13.31v-2.09c-3.72,4.08-9.06,6.07-15.4,6.07-13.5,0-24.37-9.33-24.37-23.55s10.87-23.56,24.37-23.56c6.79,0,12.41,2.27,16.12,7v-6.25Zm-14,22.83c0-7.16-5.35-12-12.77-12s-12.87,4.8-12.87,12,5.44,12,12.87,12S1707.43,767,1707.43,759.88Z"/><g id="_Rectangle_" data-name="&lt;Rectangle&gt;"><rect class="cls-1" x="77" y="68.49" width="921" height="272"/></g><path class="cls-2" d="M212.1,252.19V173.71L192.18,189.1l-13.13-18,35.15-25.81h23.11V252.19Z"/><path class="cls-2" d="M344.62,231.36v20.83h-23.7V231.36H270.66V210.08l43.47-64.75h30.34v65.5h14.79v20.53Zm-23.55-60.07h-.45l-25.36,39.54h25.81Z"/><path class="cls-2" d="M452.23,216.87a38.66,38.66,0,0,1-3.47,17,34,34,0,0,1-9.29,11.85,40.08,40.08,0,0,1-13.2,7A50.23,50.23,0,0,1,411,255.06a49.7,49.7,0,0,1-13.81-1.89,44.2,44.2,0,0,1-11.92-5.36,36.14,36.14,0,0,1-9.21-8.53,34,34,0,0,1-5.65-11.39l23.09-7.1a17.88,17.88,0,0,0,6.26,9.21,18.22,18.22,0,0,0,22.19-.3q4.75-3.93,4.75-11.62a14.63,14.63,0,0,0-2-7.85,15.3,15.3,0,0,0-5.06-5.06,21.25,21.25,0,0,0-7-2.64,41.82,41.82,0,0,0-7.85-.75,77,77,0,0,0-13.06,1.28,75.79,75.79,0,0,0-13,3.4l2.56-61.13h65.5v21.74h-43l-.91,16.9a32.62,32.62,0,0,1,5.36-.83c2-.15,3.75-.23,5.36-.23A52.56,52.56,0,0,1,428.68,185a34.5,34.5,0,0,1,12.3,6.41,30.84,30.84,0,0,1,8.23,10.64A34.11,34.11,0,0,1,452.23,216.87Z"/><path class="cls-2" d="M485.28,270.9H464.9L476.22,228h23.7Z"/><path class="cls-2" d="M597.72,198.46A99.92,99.92,0,0,1,595.46,220a55.19,55.19,0,0,1-7.25,18,37.52,37.52,0,0,1-12.9,12.37q-7.93,4.61-19.25,4.61t-19.31-4.61a37.91,37.91,0,0,1-13.06-12.37,54.2,54.2,0,0,1-7.32-18,99.92,99.92,0,0,1-2.26-21.58A98.87,98.87,0,0,1,516.37,177a52.52,52.52,0,0,1,7.32-17.81A37.75,37.75,0,0,1,536.75,147q8-4.53,19.31-4.53T575.31,147a37.35,37.35,0,0,1,12.9,12.15A53.47,53.47,0,0,1,595.46,177,98.87,98.87,0,0,1,597.72,198.46Zm-26,0q0-5-.6-11a55.24,55.24,0,0,0-2.27-11.24,24.48,24.48,0,0,0-4.75-8.76,10.24,10.24,0,0,0-8.08-3.54,10.45,10.45,0,0,0-8.15,3.54,24.57,24.57,0,0,0-4.9,8.76,51.45,51.45,0,0,0-2.34,11.24q-.6,6-.6,11,0,5.13.6,11.24A51.45,51.45,0,0,0,543,221a24.65,24.65,0,0,0,4.9,8.76,10.45,10.45,0,0,0,8.15,3.54,10.24,10.24,0,0,0,8.08-3.54,24.57,24.57,0,0,0,4.75-8.76,55.21,55.21,0,0,0,2.27-11.32Q571.76,203.6,571.76,198.46Z"/><path class="cls-2" d="M695.22,198.46A99.92,99.92,0,0,1,693,220a55.18,55.18,0,0,1-7.24,18,37.52,37.52,0,0,1-12.9,12.37q-7.93,4.61-19.25,4.61t-19.32-4.61a38,38,0,0,1-13-12.37,54.2,54.2,0,0,1-7.32-18,99.92,99.92,0,0,1-2.27-21.58A98.86,98.86,0,0,1,613.87,177a52.52,52.52,0,0,1,7.32-17.81,37.81,37.81,0,0,1,13-12.15q8-4.53,19.32-4.53T672.81,147a37.35,37.35,0,0,1,12.9,12.15A53.46,53.46,0,0,1,693,177,98.86,98.86,0,0,1,695.22,198.46Zm-26,0a109.5,109.5,0,0,0-.61-11,54.58,54.58,0,0,0-2.26-11.24,24.48,24.48,0,0,0-4.75-8.76,10.24,10.24,0,0,0-8.08-3.54,10.44,10.44,0,0,0-8.15,3.54,24.57,24.57,0,0,0-4.9,8.76,51.45,51.45,0,0,0-2.34,11.24,109.5,109.5,0,0,0-.61,11q0,5.13.61,11.24A51.45,51.45,0,0,0,640.51,221a24.65,24.65,0,0,0,4.9,8.76,10.44,10.44,0,0,0,8.15,3.54,10.24,10.24,0,0,0,8.08-3.54,24.57,24.57,0,0,0,4.75-8.76,54.56,54.56,0,0,0,2.26-11.32Q669.26,203.6,669.26,198.46Z"/><path class="cls-2" d="M792.72,198.46A99.92,99.92,0,0,1,790.45,220a55.18,55.18,0,0,1-7.24,18,37.46,37.46,0,0,1-12.91,12.37q-7.92,4.61-19.24,4.61t-19.32-4.61a38,38,0,0,1-13-12.37,54,54,0,0,1-7.32-18,99.92,99.92,0,0,1-2.27-21.58A98.86,98.86,0,0,1,711.37,177a52.32,52.32,0,0,1,7.32-17.81,37.81,37.81,0,0,1,13-12.15q8-4.53,19.32-4.53T770.3,147a37.29,37.29,0,0,1,12.91,12.15A53.46,53.46,0,0,1,790.45,177,98.86,98.86,0,0,1,792.72,198.46Zm-26,0c0-3.32-.21-7-.61-11a54.58,54.58,0,0,0-2.26-11.24,24.48,24.48,0,0,0-4.75-8.76,10.24,10.24,0,0,0-8.08-3.54,10.44,10.44,0,0,0-8.15,3.54,24.57,24.57,0,0,0-4.9,8.76,51.45,51.45,0,0,0-2.34,11.24,109.5,109.5,0,0,0-.61,11q0,5.13.61,11.24A51.45,51.45,0,0,0,738,221a24.65,24.65,0,0,0,4.9,8.76,10.44,10.44,0,0,0,8.15,3.54,10.24,10.24,0,0,0,8.08-3.54,24.57,24.57,0,0,0,4.75-8.76,54.56,54.56,0,0,0,2.26-11.32C766.55,205.63,766.76,201.88,766.76,198.46Z"/><path class="cls-2" d="M866.22,252.19v-9.81h-.3a23.57,23.57,0,0,1-10.34,8.83,33.72,33.72,0,0,1-14.26,3.09,33.36,33.36,0,0,1-15.1-3.32A34.49,34.49,0,0,1,815,242.15a38.74,38.74,0,0,1-7-12.75,47.4,47.4,0,0,1-2.41-15.09,45.47,45.47,0,0,1,2.49-15,39.09,39.09,0,0,1,7.09-12.6A33.07,33.07,0,0,1,841,174.91a28.71,28.71,0,0,1,14,3.17A31.17,31.17,0,0,1,864,185h.31V166.16H841.77V152.73h22.49V138.09H889v14.64H896v13.43H889v86Zm-.91-37.73a20.61,20.61,0,0,0-4.9-13.29,18.09,18.09,0,0,0-5.66-4.37,16.63,16.63,0,0,0-7.55-1.66,17,17,0,0,0-7.7,1.66,17.39,17.39,0,0,0-9,10.41,22.92,22.92,0,0,0-1.13,7.1,23.53,23.53,0,0,0,1.13,7.16,18.48,18.48,0,0,0,3.4,6.27,16.66,16.66,0,0,0,13.28,6,16.76,16.76,0,0,0,7.55-1.66,18.12,18.12,0,0,0,5.66-4.38,20.05,20.05,0,0,0,3.62-6.19A20.41,20.41,0,0,0,865.31,214.46Z"/></svg>