<svg id="Layer_1" data-name="Layer 1" xmlns="http://www.w3.org/2000/svg" viewBox="0 0 2006 1015.99"><defs><style>.cls-1{fill:#c90202;}.cls-2{fill:#fff;}</style></defs><title>Image convert 1 fix text</title><path d="M148,484.73c0,19.53-14.64,31.67-38.06,31.67H92.24v24.17H72V452.93h37.93C133.31,452.93,148,465.07,148,484.73Zm-20.53,0c0-9.64-6.26-15.28-18.65-15.28H92.24v30.43h16.53C121.16,499.88,127.42,494.24,127.42,484.73Z"/><path d="M242.73,452.93v87.64H222.45V504.64H182.63v35.93H162.35V452.93h20.28v34.55h39.82V452.93Z"/><path d="M321.22,521.79H280.54l-7.77,18.78H252l39.06-87.64h20l39.19,87.64H329Zm-30.92-76H275.9l16.65-14.27h17l16.65,14.27h-14.4l-10.76-7.13Zm24.54,60.6-13.9-33.56L287,506.39Zm15.4-72.62H316.09L330,418.62h19.9Z"/><path d="M439.78,452.93v87.64H423.13l-43.69-53.21v53.21h-20V452.93h16.77l43.57,53.21V452.93Z"/><path d="M572,484.73c0,19.53-14.65,31.67-38.06,31.67H516.28v24.17H496V452.93h37.94C557.34,452.93,572,465.07,572,484.73Zm-20.53,0c0-9.64-6.26-15.28-18.66-15.28H516.28v30.43H532.8C545.2,499.88,551.46,494.24,551.46,484.73Z"/><path d="M666.76,452.93v87.64H646.48V504.64H606.67v35.93H586.38V452.93h20.29v34.55h39.81V452.93Z"/><path d="M686.79,502V452.93h20.28v48.32c0,16.66,7.27,23.54,19.53,23.54s19.54-6.88,19.54-23.54V452.93h20V502c0,25.79-14.78,40.06-39.69,40.06S686.79,527.8,686.79,502Zm37.44-61.48c4.88-2.25,6.38-4.75,6.38-7.63,0-3.13-2.38-5.26-5.88-5.26a13.19,13.19,0,0,0-7.39,2.38l-4-7.89a21.8,21.8,0,0,1,13.53-4.26c8.88,0,15,5.39,15,13.4,0,7.14-3.88,12.27-11.52,15.77Z"/><path d="M839.78,469.45h-28V452.93h76.38v16.52H860.06v71.12H839.78Z"/><path d="M954.83,540.57l-16.9-24.42H919.28v24.42H899V452.93h37.93c23.41,0,38.06,12.14,38.06,31.8,0,13.14-6.63,22.78-18,27.67l19.66,28.17Zm-19-71.12H919.28V500H935.8c12.4,0,18.66-5.76,18.66-15.27S948.2,469.45,935.8,469.45Z"/><path d="M1048.73,521.79H1008l-7.76,18.78H979.49l39.07-87.64h20l39.19,87.64h-21.29Zm-6.39-15.4-13.89-33.56-13.9,33.56Z"/><path d="M1167.29,452.93v87.64h-16.65l-43.7-53.21v53.21h-20V452.93h16.78l43.57,53.21V452.93Z"/><path d="M1247.29,495.37h18.53v35.56c-9.64,7.26-22.91,11.14-35.43,11.14-27.55,0-47.83-18.91-47.83-45.32s20.28-45.32,48.2-45.32c15.4,0,28.17,5.25,36.69,15.15l-13,12a29.65,29.65,0,0,0-22.66-9.89c-17,0-28.67,11.4-28.67,28.05,0,16.4,11.65,28,28.42,28a32.25,32.25,0,0,0,15.78-3.75Z"/><path d="M1409.79,496.75c0,26.54-19.66,43.82-48.33,43.82h-39.81V502.76h-11.89V489.24h11.89V452.93h39.81C1390.13,452.93,1409.79,470.21,1409.79,496.75Zm-20.53,0c0-16.78-11.39-27.17-28.8-27.17h-18.53v19.66h21.91v13.52h-21.91v21.16h18.53C1377.87,523.92,1389.26,513.52,1389.26,496.75Z"/><path d="M1425.06,452.93h20.28v87.64h-20.28Z"/><path d="M1534,524.29v16.28h-67.86V452.93h66.23V469.2h-46.07v19H1527V504h-40.69v20.28Zm-45.44-78.5h-14.4l16.65-14.27h17l16.65,14.27h-14.4l-10.77-7.13Zm23.16-21.66-3.26-6a19.25,19.25,0,0,1,10.39-2.75c7,0,11.52,3.88,11.52,9.89,0,5-3.88,9-8.76,10.89l-4.76-4.63c3.38-1.63,4.63-3.63,4.63-5.26,0-2.25-1.75-3.63-4.25-3.63A11,11,0,0,0,1511.7,424.13Z"/><path d="M1629.88,540.57l-.12-52.59L1604,531.3h-9.13l-25.67-42.19v51.46h-19V452.93h16.78l32.8,54.46,32.3-54.46h16.65l.25,87.64Z"/><path d="M1784.87,540.57l-.13-52.59L1759,531.3h-9.14l-25.66-42.19v51.46h-19V452.93h16.77l32.81,54.46,32.3-54.46h16.65l.25,87.64Z"/><path d="M1890.16,540.57l-7.77-18.78h-40.68l-7.77,18.78h-20.78l39.06-87.64h20l39.19,87.64Zm-51-112.81h12.27c.25,5.39,4.88,8.89,10.77,8.89s10.51-3.5,10.77-8.89h12.26c-.5,11.77-10,19-23,19S1839.7,439.53,1839.2,427.76ZM1876,506.39l-13.9-33.56-13.89,33.56Zm-5.13,52.08c0,5.13-3.76,8.39-8.64,8.39s-8.64-3.26-8.64-8.39a8.64,8.64,0,1,1,17.28,0Z"/><path d="M1934.35,469.45h-28V452.93h76.37v16.52h-28v71.12h-20.28Z"/><path d="M63.81,598.26c0-12.14,9.32-20.83,21.86-20.83,7,0,12.77,2.53,16.57,7.14l-6,5.52a13,13,0,0,0-10.13-4.72c-7.54,0-12.88,5.29-12.88,12.89s5.34,12.88,12.88,12.88a12.86,12.86,0,0,0,10.13-4.77l6,5.52c-3.8,4.66-9.61,7.19-16.63,7.19C73.13,619.08,63.81,610.4,63.81,598.26Z"/><path d="M134.22,609.76h-18.7L112,618.39h-9.55l18-40.27h9.2l18,40.27h-9.78Zm-2.93-7.07-6.39-15.42-6.38,15.42Z"/><path d="M158.09,585.72H145.21v-7.6h35.08v7.6H167.41v32.67h-9.32Z"/><path d="M222.23,578.12v40.27h-9.32V601.88H194.62v16.51H185.3V578.12h9.32V594h18.29V578.12Z"/><path d="M251.1,604.12v14.27h-9.31V604L226.2,578.12h9.89L246.85,596l10.75-17.89h9.15Z"/><path d="M286.94,578.12h18.29c13.18,0,22.21,7.94,22.21,20.14s-9,20.13-22.21,20.13H286.94Zm17.83,32.62c8,0,13.23-4.77,13.23-12.48s-5.23-12.49-13.23-12.49h-8.51v25Z"/><path d="M331.92,598.26c0-12,9.32-20.83,22-20.83s22,8.8,22,20.83-9.37,20.82-22,20.82S331.92,610.22,331.92,598.26Zm34.63,0c0-7.65-5.41-12.89-12.6-12.89s-12.6,5.24-12.6,12.89,5.41,12.88,12.6,12.88S366.55,605.91,366.55,598.26Z"/><path d="M383,578.12h9.32V610.8h20.19v7.59H383Z"/><path d="M417.74,578.12h9.32V610.8h20.19v7.59H417.74Z"/><path d="M466.23,598.26c0-12.14,9.32-20.83,21.86-20.83,7,0,12.77,2.53,16.57,7.14l-6,5.52a13,13,0,0,0-10.13-4.72c-7.53,0-12.88,5.29-12.88,12.89s5.35,12.88,12.88,12.88a12.86,12.86,0,0,0,10.13-4.77l6,5.52c-3.8,4.66-9.61,7.19-16.62,7.19C475.55,619.08,466.23,610.4,466.23,598.26Z"/><path d="M507.53,598.26c0-12.14,9.32-20.83,21.86-20.83,7,0,12.77,2.53,16.57,7.14l-6,5.52a13,13,0,0,0-10.13-4.72c-7.53,0-12.88,5.29-12.88,12.89s5.35,12.88,12.88,12.88A12.86,12.86,0,0,0,540,606.37l6,5.52c-3.8,4.66-9.61,7.19-16.63,7.19C516.85,619.08,507.53,610.4,507.53,598.26Z"/><path d="M603.42,592.74c0,9-6.73,14.55-17.48,14.55h-8.12v11.1H568.5V578.12h17.44C596.69,578.12,603.42,583.7,603.42,592.74Zm-9.43,0c0-4.43-2.88-7-8.57-7h-7.6v14h7.6C591.11,599.7,594,597.11,594,592.74Z"/><path d="M608.08,598.26c0-12,9.32-20.83,22-20.83s22,8.8,22,20.83-9.37,20.82-22,20.82S608.08,610.22,608.08,598.26Zm34.63,0c0-7.65-5.41-12.89-12.6-12.89s-12.6,5.24-12.6,12.89,5.41,12.88,12.6,12.88S642.71,605.91,642.71,598.26Z"/><path d="M718.7,578.12l-13.17,40.27h-10l-8.86-27.27-9.15,27.27h-10l-13.23-40.27H664l9.09,28.31,9.49-28.31h8.63l9.21,28.54,9.37-28.54Z"/><path d="M723.87,578.12h18.3c13.17,0,22.2,7.94,22.2,20.14s-9,20.13-22.2,20.13h-18.3Zm17.84,32.62c8,0,13.23-4.77,13.23-12.48s-5.24-12.49-13.23-12.49h-8.52v25Z"/><path d="M802.56,610.91v7.48H771.38V578.12h30.44v7.48H780.65v8.75h18.69v7.24H780.65v9.32Z"/><path d="M835.64,618.39l-7.77-11.22H819.3v11.22H810V578.12h17.43c10.76,0,17.49,5.58,17.49,14.62a13.1,13.1,0,0,1-8.28,12.71l9,12.94Zm-8.75-32.67H819.3v14h7.59c5.7,0,8.57-2.64,8.57-7S832.59,585.72,826.89,585.72Z"/><path d="M903.46,592.74c0,9-6.74,14.55-17.49,14.55h-8.11v11.1h-9.32V578.12H886C896.72,578.12,903.46,583.7,903.46,592.74Zm-9.44,0c0-4.43-2.88-7-8.57-7h-7.59v14h7.59C891.14,599.7,894,597.11,894,592.74Z"/><path d="M934.57,609.76H915.88l-3.57,8.63h-9.55l18-40.27h9.2l18,40.27h-9.78Zm-2.93-7.07-6.39-15.42-6.38,15.42Z"/><path d="M949,598.26c0-12.14,9.32-20.83,21.86-20.83,7,0,12.77,2.53,16.57,7.14l-6,5.52a13,13,0,0,0-10.13-4.72c-7.54,0-12.89,5.29-12.89,12.89s5.35,12.88,12.89,12.88a12.86,12.86,0,0,0,10.13-4.77l6,5.52c-3.8,4.66-9.61,7.19-16.63,7.19C958.33,619.08,949,610.4,949,598.26Z"/><path d="M1001.64,585.72H988.76v-7.6h35.09v7.6H1011v32.67h-9.32Z"/><path d="M1042,614.42l3.17-7a23.64,23.64,0,0,0,13.29,4.2c5.52,0,7.76-1.84,7.76-4.31,0-7.54-23.41-2.36-23.41-17.32,0-6.84,5.52-12.54,17-12.54,5.06,0,10.24,1.21,14,3.57l-2.88,7.08a22.73,22.73,0,0,0-11.16-3.17c-5.52,0-7.65,2.07-7.65,4.6,0,7.42,23.42,2.3,23.42,17.09,0,6.73-5.58,12.48-17.09,12.48C1052,619.08,1045.53,617.18,1042,614.42Z"/><path d="M1116.75,592.74c0,9-6.73,14.55-17.49,14.55h-8.11v11.1h-9.32V578.12h17.43C1110,578.12,1116.75,583.7,1116.75,592.74Zm-9.44,0c0-4.43-2.87-7-8.57-7h-7.59v14h7.59C1104.44,599.7,1107.31,597.11,1107.31,592.74Z"/><path d="M1132.68,585.6v10.64h18.64v7.48h-18.64v14.67h-9.32V578.12h30.43v7.48Z"/><path d="M1192,609.94h-6.56v8.45h-9.08v-8.45h-21.69v-6.28l19-25.54h9.78l-17.6,24.22h10.81v-7.53h8.8v7.53H1192Z"/><path d="M1194.8,598.26c0-13.29,7.36-20.83,17.26-20.83s17.26,7.54,17.26,20.83-7.31,20.82-17.26,20.82S1194.8,611.55,1194.8,598.26Zm25.14,0c0-9.15-3.22-13-7.88-13s-7.82,3.8-7.82,13,3.22,12.94,7.82,12.94S1219.94,607.4,1219.94,598.26Z"/><path d="M1287.59,592.74c0,9-6.73,14.55-17.49,14.55H1262v11.1h-9.32V578.12h17.43C1280.86,578.12,1287.59,583.7,1287.59,592.74Zm-9.44,0c0-4.43-2.87-7-8.57-7H1262v14h7.59C1275.28,599.7,1278.15,597.11,1278.15,592.74Z"/><path d="M1318.7,609.76H1300l-3.57,8.63h-9.55l17.95-40.27h9.2l18,40.27h-9.78Zm-2.93-7.07-6.39-15.42L1303,602.69Z"/><path d="M1361.1,601.77h-10v9.78h-7.42v-9.78h-10v-7h10V585h7.42v9.78h10Z"/><path d="M1395.9,601.77h-10v9.78h-7.42v-9.78h-10v-7h10V585h7.42v9.78h10Z"/><path d="M1430.7,601.77h-10v9.78h-7.42v-9.78h-10v-7h10V585h7.42v9.78h10Z"/><path d="M92.4,758.57h7.48v6.27H91.65L90.5,774H84l1.15-9.2H76.7L75.55,774H69.1l1.15-9.2H62.72v-6.27H71l1.21-9.32H64.67V743H73l1.15-9.21h6.44L79.4,743h8.46L89,733.77h6.44L94.3,743h7.48l.06,6.27H93.55Zm-6.5,0,1.21-9.32H78.65l-1.21,9.32Z"/><path d="M135.31,766.45V774H104.88v-6l15.53-14.67c3.57-3.39,4.2-5.46,4.2-7.42,0-3.16-2.18-5-6.44-5a9.84,9.84,0,0,0-8.34,4L103,740.56c3.11-4.54,8.74-7.48,16-7.48,9,0,15,4.6,15,11.91,0,3.91-1.09,7.48-6.73,12.71L118,766.45Z"/><path d="M154.7,733.77V774h-9.32V741.25h-8.06v-7.48Z"/><path d="M180.52,733.77h9.32v32.68H210V774H180.52Z"/><path d="M215.26,733.77h9.32V774h-9.32Z"/><path d="M261.34,753.27h8.52v16.34a27.77,27.77,0,0,1-16.28,5.12c-12.66,0-22-8.69-22-20.82s9.32-20.83,22.15-20.83c7.07,0,12.94,2.42,16.85,7l-6,5.52A13.64,13.64,0,0,0,254.21,741c-7.83,0-13.17,5.23-13.17,12.89s5.34,12.88,13.05,12.88a14.86,14.86,0,0,0,7.25-1.72Z"/><path d="M315.41,733.77V774h-9.32V757.53H287.8V774h-9.32V733.77h9.32v15.88h18.29V733.77Z"/><path d="M333.3,741.37H320.41v-7.6h35.1v7.6H342.62V774H333.3Z"/><path d="M413.72,763.05c0,7-5.52,11-16.11,11H376.79V733.77h19.67c10.07,0,15.24,4.2,15.24,10.47a9.68,9.68,0,0,1-5.35,8.86A10,10,0,0,1,413.72,763.05Zm-27.67-22.26v9.49h9.26c4.54,0,7-1.61,7-4.77s-2.48-4.72-7-4.72Zm18.29,21.29c0-3.4-2.59-5-7.42-5H386.05V767h10.87C401.75,767,404.34,765.53,404.34,762.08Z"/><path d="M452,766.56V774H420.79V733.77h30.43v7.48H430.05V750h18.7v7.25h-18.7v9.32Z"/><path d="M459.39,733.77h9.32V774h-9.32Z"/><path d="M505.46,753.27H514v16.34a27.77,27.77,0,0,1-16.28,5.12c-12.66,0-22-8.69-22-20.82s9.32-20.83,22.15-20.83c7.08,0,12.94,2.42,16.85,7l-6,5.52A13.64,13.64,0,0,0,498.33,741c-7.82,0-13.17,5.23-13.17,12.89s5.35,12.88,13,12.88a14.84,14.84,0,0,0,7.25-1.72Z"/><path d="M553.78,766.56V774H522.6V733.77H553v7.48H531.87V750h18.69v7.25H531.87v9.32Z"/><path d="M79.34,811.6v40.26H70V819.07H62V811.6Z"/><path d="M116.45,844.27v7.59H86v-6l15.54-14.66c3.56-3.4,4.2-5.47,4.2-7.43,0-3.16-2.19-5-6.45-5a9.84,9.84,0,0,0-8.34,4l-6.79-4.38c3.11-4.54,8.75-7.47,16-7.47,9,0,15,4.6,15,11.9,0,3.92-1.09,7.48-6.73,12.72l-9.26,8.74Z"/><path d="M150,831.1h8.51v16.33a27.75,27.75,0,0,1-16.28,5.12c-12.65,0-22-8.68-22-20.82s9.32-20.82,22.15-20.82c7.07,0,12.94,2.41,16.85,7l-6,5.52a13.63,13.63,0,0,0-10.41-4.55c-7.83,0-13.18,5.24-13.18,12.89s5.35,12.89,13.06,12.89a14.76,14.76,0,0,0,7.25-1.73Z"/><g id="_Rectangle_" data-name="&lt;Rectangle&gt;"><rect class="cls-1" x="77" y="55.49" width="921" height="272"/></g><path class="cls-2" d="M212.1,239.19V160.71L192.18,176.1l-13.13-18,35.15-25.81h23.11V239.19Z"/><path class="cls-2" d="M357.6,167.65a43.61,43.61,0,0,1-3.32,17.28,99.85,99.85,0,0,1-8.6,15.77L319.9,239.19H289.28l26.58-36.83.31-.45a19.09,19.09,0,0,1-3.7.9,25,25,0,0,1-3.84.31,36.3,36.3,0,0,1-13.41-2.49,33.91,33.91,0,0,1-11.14-7.1,34.21,34.21,0,0,1-10.55-25.28,38.73,38.73,0,0,1,3.31-16.3,35.66,35.66,0,0,1,9-12.22,40,40,0,0,1,13.41-7.62,51.73,51.73,0,0,1,32.69,0,39.23,39.23,0,0,1,13.34,7.62,36.51,36.51,0,0,1,9,12.07A37,37,0,0,1,357.6,167.65Zm-25.21-.3a17.52,17.52,0,0,0-4.47-12q-4.47-5.06-12.21-5.06t-12.35,4.76q-4.64,4.75-4.63,12.45a16.67,16.67,0,0,0,4.55,12q4.55,4.75,12.13,4.75t12.28-4.68Q332.39,174.89,332.39,167.35Z"/><path class="cls-2" d="M455.1,167.65a43.61,43.61,0,0,1-3.32,17.28,99.85,99.85,0,0,1-8.6,15.77l-25.79,38.49H386.78l26.58-36.83.31-.45a19.09,19.09,0,0,1-3.7.9,25,25,0,0,1-3.84.31,36.3,36.3,0,0,1-13.41-2.49,34.06,34.06,0,0,1-11.15-7.1A34.26,34.26,0,0,1,371,168.25a38.73,38.73,0,0,1,3.31-16.3,35.66,35.66,0,0,1,9-12.22,40,40,0,0,1,13.41-7.62,51.73,51.73,0,0,1,32.69,0,39.23,39.23,0,0,1,13.34,7.62,36.51,36.51,0,0,1,9,12.07A37,37,0,0,1,455.1,167.65Zm-25.21-.3a17.52,17.52,0,0,0-4.47-12q-4.47-5.06-12.21-5.06t-12.35,4.76q-4.64,4.75-4.63,12.45a16.67,16.67,0,0,0,4.55,12q4.55,4.75,12.13,4.75t12.28-4.68Q429.89,174.89,429.89,167.35Z"/><path class="cls-2" d="M485.28,257.9H464.9L476.22,215h23.7Z"/><path class="cls-2" d="M597.72,185.46A99.92,99.92,0,0,1,595.46,207a55.19,55.19,0,0,1-7.25,18,37.52,37.52,0,0,1-12.9,12.37q-7.93,4.61-19.25,4.61t-19.31-4.61a37.91,37.91,0,0,1-13.06-12.37,54.2,54.2,0,0,1-7.32-18,99.92,99.92,0,0,1-2.26-21.58A98.87,98.87,0,0,1,516.37,164a52.52,52.52,0,0,1,7.32-17.81A37.75,37.75,0,0,1,536.75,134q8-4.53,19.31-4.53T575.31,134a37.35,37.35,0,0,1,12.9,12.15A53.47,53.47,0,0,1,595.46,164,98.87,98.87,0,0,1,597.72,185.46Zm-26,0q0-5-.6-11a55.24,55.24,0,0,0-2.27-11.24,24.48,24.48,0,0,0-4.75-8.76,10.24,10.24,0,0,0-8.08-3.54,10.45,10.45,0,0,0-8.15,3.54,24.57,24.57,0,0,0-4.9,8.76,51.45,51.45,0,0,0-2.34,11.24q-.6,6-.6,11,0,5.13.6,11.24A51.45,51.45,0,0,0,543,208a24.65,24.65,0,0,0,4.9,8.76,10.45,10.45,0,0,0,8.15,3.54,10.24,10.24,0,0,0,8.08-3.54,24.57,24.57,0,0,0,4.75-8.76,55.21,55.21,0,0,0,2.27-11.32Q571.76,190.6,571.76,185.46Z"/><path class="cls-2" d="M695.22,185.46A99.92,99.92,0,0,1,693,207a55.18,55.18,0,0,1-7.24,18,37.52,37.52,0,0,1-12.9,12.37q-7.93,4.61-19.25,4.61t-19.32-4.61a38,38,0,0,1-13-12.37,54.2,54.2,0,0,1-7.32-18,99.92,99.92,0,0,1-2.27-21.58A98.86,98.86,0,0,1,613.87,164a52.52,52.52,0,0,1,7.32-17.81,37.81,37.81,0,0,1,13-12.15q8-4.53,19.32-4.53T672.81,134a37.35,37.35,0,0,1,12.9,12.15A53.46,53.46,0,0,1,693,164,98.86,98.86,0,0,1,695.22,185.46Zm-26,0a109.5,109.5,0,0,0-.61-11,54.58,54.58,0,0,0-2.26-11.24,24.48,24.48,0,0,0-4.75-8.76,10.24,10.24,0,0,0-8.08-3.54,10.44,10.44,0,0,0-8.15,3.54,24.57,24.57,0,0,0-4.9,8.76,51.45,51.45,0,0,0-2.34,11.24,109.5,109.5,0,0,0-.61,11q0,5.13.61,11.24A51.45,51.45,0,0,0,640.51,208a24.65,24.65,0,0,0,4.9,8.76,10.44,10.44,0,0,0,8.15,3.54,10.24,10.24,0,0,0,8.08-3.54,24.57,24.57,0,0,0,4.75-8.76,54.56,54.56,0,0,0,2.26-11.32Q669.26,190.6,669.26,185.46Z"/><path class="cls-2" d="M792.72,185.46A99.92,99.92,0,0,1,790.45,207a55.18,55.18,0,0,1-7.24,18,37.46,37.46,0,0,1-12.91,12.37q-7.92,4.61-19.24,4.61t-19.32-4.61a38,38,0,0,1-13-12.37,54,54,0,0,1-7.32-18,99.92,99.92,0,0,1-2.27-21.58A98.86,98.86,0,0,1,711.37,164a52.32,52.32,0,0,1,7.32-17.81,37.81,37.81,0,0,1,13-12.15q8-4.53,19.32-4.53T770.3,134a37.29,37.29,0,0,1,12.91,12.15A53.46,53.46,0,0,1,790.45,164,98.86,98.86,0,0,1,792.72,185.46Zm-26,0c0-3.32-.21-7-.61-11a54.58,54.58,0,0,0-2.26-11.24,24.48,24.48,0,0,0-4.75-8.76,10.24,10.24,0,0,0-8.08-3.54,10.44,10.44,0,0,0-8.15,3.54,24.57,24.57,0,0,0-4.9,8.76,51.45,51.45,0,0,0-2.34,11.24,109.5,109.5,0,0,0-.61,11q0,5.13.61,11.24A51.45,51.45,0,0,0,738,208a24.65,24.65,0,0,0,4.9,8.76,10.44,10.44,0,0,0,8.15,3.54,10.24,10.24,0,0,0,8.08-3.54,24.57,24.57,0,0,0,4.75-8.76,54.56,54.56,0,0,0,2.26-11.32C766.55,192.63,766.76,188.88,766.76,185.46Z"/><path class="cls-2" d="M866.22,239.19v-9.81h-.3a23.57,23.57,0,0,1-10.34,8.83,33.72,33.72,0,0,1-14.26,3.09,33.36,33.36,0,0,1-15.1-3.32A34.49,34.49,0,0,1,815,229.15a38.74,38.74,0,0,1-7-12.75,47.4,47.4,0,0,1-2.41-15.09,45.47,45.47,0,0,1,2.49-15,39.09,39.09,0,0,1,7.09-12.6A33.07,33.07,0,0,1,841,161.91a28.71,28.71,0,0,1,14,3.17A31.17,31.17,0,0,1,864,172h.31V153.16H841.77V139.73h22.49V125.09H889v14.64H896v13.43H889v86Zm-.91-37.73a20.61,20.61,0,0,0-4.9-13.29,18.09,18.09,0,0,0-5.66-4.37,16.63,16.63,0,0,0-7.55-1.66,17,17,0,0,0-7.7,1.66,17.39,17.39,0,0,0-9,10.41,22.92,22.92,0,0,0-1.13,7.1,23.53,23.53,0,0,0,1.13,7.16,18.48,18.48,0,0,0,3.4,6.27,16.66,16.66,0,0,0,13.28,6,16.76,16.76,0,0,0,7.55-1.66,18.12,18.12,0,0,0,5.66-4.38,20.05,20.05,0,0,0,3.62-6.19A20.41,20.41,0,0,0,865.31,201.46Z"/></svg>