<svg id="Layer_1" data-name="Layer 1" xmlns="http://www.w3.org/2000/svg" viewBox="0 0 2006 1015.99"><defs><style>.cls-1{fill:#c90202;}.cls-2{fill:#fff;}</style></defs><title>Image convert 1 fix text</title><path d="M146.18,495.37h18.53v35.56c-9.64,7.26-22.91,11.14-35.43,11.14-27.55,0-47.83-18.91-47.83-45.32s20.28-45.32,48.2-45.32c15.4,0,28.17,5.25,36.68,15.15l-13,12a29.65,29.65,0,0,0-22.66-9.89c-17,0-28.67,11.4-28.67,28.05,0,16.4,11.65,28,28.42,28A32.27,32.27,0,0,0,146.18,521Z"/><path d="M251.34,524.29v16.28H183.48V452.93h66.23V469.2H203.64v19h40.69V504H203.64v20.28Z"/><path d="M267.49,452.93h20.28V524h44v16.53H267.49Z"/><path d="M396.69,469.45H368.64V452.93H445v16.52H417v71.12H396.69Z"/><path d="M509.24,521.79H468.55l-7.76,18.78H440l39.06-87.64h20l39.19,87.64H517Zm-43.19-90.27h11.77c.5,3.51,5,5.88,11.26,5.88s10.77-2.37,11.27-5.88h11.77c-.88,9.39-10.14,15.27-23,15.27S466.92,440.91,466.05,431.52Zm36.81,74.87L489,472.83l-13.9,33.56Zm-10.4-78.63H478.32l13.89-15.15h19.91Z"/><path d="M627.17,540.57,627.05,488,601.26,531.3h-9.14l-25.67-42.19v51.46h-19V452.93H564.2L597,507.39l32.3-54.46H646l.25,87.64Z"/><path d="M720.57,469.45H692.52V452.93h76.37v16.52h-28v71.12H720.57Z"/><path d="M860.16,452.93v87.64H839.88V504.64H800.07v35.93H779.78V452.93h20.29v34.55h39.81V452.93Z"/><path d="M938.66,521.79H898l-7.76,18.78H869.42l39.06-87.64h20l39.18,87.64H946.42Zm-6.39-15.4-13.89-33.56-13.9,33.56Z"/><path d="M1057.22,452.93v87.64h-16.65l-43.7-53.21v53.21h-20V452.93h16.78l43.57,53.21V452.93Z"/><path d="M1131.58,469.45h-28V452.93h76.37v16.52h-28.05v71.12h-20.28Z"/><path d="M1246.64,540.57l-16.91-24.42h-18.65v24.42H1190.8V452.93h37.93c23.41,0,38.06,12.14,38.06,31.8,0,13.14-6.63,22.78-18,27.67l19.66,28.17Zm-19-71.12h-16.53V500h16.53c12.39,0,18.65-5.76,18.65-15.27S1240,469.45,1227.61,469.45Z"/><path d="M1350.67,524.29v16.28h-67.86V452.93H1349V469.2H1303v19h40.69V504H1303v20.28Z"/><path d="M78.81,598.26c0-12.14,9.32-20.83,21.86-20.83,7,0,12.77,2.53,16.57,7.14l-6,5.52a13,13,0,0,0-10.13-4.72c-7.54,0-12.88,5.29-12.88,12.89s5.34,12.88,12.88,12.88a12.86,12.86,0,0,0,10.13-4.77l6,5.52c-3.8,4.66-9.61,7.19-16.63,7.19C88.13,619.08,78.81,610.4,78.81,598.26Z"/><path d="M149.22,609.76h-18.7L127,618.39h-9.55l18-40.27h9.2l18,40.27h-9.78Zm-2.93-7.07-6.39-15.42-6.38,15.42Z"/><path d="M173.09,585.72H160.21v-7.6h35.08v7.6H182.41v32.67h-9.32Z"/><path d="M237.23,578.12v40.27h-9.32V601.88H209.62v16.51H200.3V578.12h9.32V594h18.29V578.12Z"/><path d="M266.1,604.12v14.27h-9.31V604L241.2,578.12h9.89L261.85,596l10.75-17.89h9.15Z"/><path d="M301.94,578.12h18.29c13.18,0,22.21,7.94,22.21,20.14s-9,20.13-22.21,20.13H301.94Zm17.83,32.62c8,0,13.23-4.77,13.23-12.48s-5.23-12.49-13.23-12.49h-8.51v25Z"/><path d="M346.92,598.26c0-12,9.32-20.83,22-20.83s22,8.8,22,20.83-9.37,20.82-22,20.82S346.92,610.22,346.92,598.26Zm34.63,0c0-7.65-5.41-12.89-12.6-12.89s-12.6,5.24-12.6,12.89,5.41,12.88,12.6,12.88S381.55,605.91,381.55,598.26Z"/><path d="M398,578.12h9.32V610.8h20.19v7.59H398Z"/><path d="M432.74,578.12h9.32V610.8h20.19v7.59H432.74Z"/><path d="M520.7,607.4c0,7-5.53,11-16.11,11H483.76V578.12h19.68c10.06,0,15.24,4.2,15.24,10.47a9.67,9.67,0,0,1-5.35,8.86A10,10,0,0,1,520.7,607.4ZM493,585.14v9.49h9.26c4.54,0,7-1.61,7-4.77s-2.47-4.72-7-4.72Zm18.29,21.29c0-3.4-2.59-5-7.42-5H493v10H503.9C508.73,611.37,511.32,609.88,511.32,606.43Z"/><path d="M554.29,609.76h-18.7L532,618.39h-9.55l17.94-40.27h9.21l18,40.27h-9.78Zm-2.94-7.07L545,587.27l-6.39,15.42Z"/><path d="M608.47,618.39l-.05-24.16-11.85,19.9h-4.2l-11.8-19.38v23.64h-8.74V578.12h7.71l15.07,25,14.84-25h7.65l.12,40.27Z"/><path d="M663.69,607.4c0,7-5.52,11-16.1,11H626.76V578.12h19.68c10.06,0,15.24,4.2,15.24,10.47a9.67,9.67,0,0,1-5.35,8.86A9.94,9.94,0,0,1,663.69,607.4ZM636,585.14v9.49h9.27c4.54,0,7-1.61,7-4.77s-2.47-4.72-7-4.72Zm18.3,21.29c0-3.4-2.59-5-7.42-5H636v10H646.9C651.73,611.37,654.32,609.88,654.32,606.43Z"/><path d="M668.24,598.26c0-12,9.31-20.83,22-20.83s22,8.8,22,20.83-9.38,20.82-22,20.82S668.24,610.22,668.24,598.26Zm34.63,0c0-7.65-5.41-12.89-12.6-12.89s-12.6,5.24-12.6,12.89,5.41,12.88,12.6,12.88S702.87,605.91,702.87,598.26Z"/><path d="M716.79,598.26c0-12,9.31-20.83,22-20.83s22,8.8,22,20.83-9.38,20.82-22,20.82S716.79,610.22,716.79,598.26Zm34.63,0c0-7.65-5.41-12.89-12.6-12.89s-12.6,5.24-12.6,12.89,5.41,12.88,12.6,12.88S751.42,605.91,751.42,598.26Z"/><path d="M781.61,598.26c0-12.14,9.32-20.83,21.86-20.83,7,0,12.77,2.53,16.57,7.14l-6,5.52a13,13,0,0,0-10.13-4.72c-7.53,0-12.88,5.29-12.88,12.89s5.35,12.88,12.88,12.88a12.86,12.86,0,0,0,10.13-4.77l6,5.52c-3.8,4.66-9.61,7.19-16.63,7.19C790.93,619.08,781.61,610.4,781.61,598.26Z"/><path d="M863.24,578.12v40.27h-9.32V601.88h-18.3v16.51h-9.31V578.12h9.31V594h18.3V578.12Z"/><path d="M899.3,609.76H880.61L877,618.39h-9.55l18-40.27h9.2l18,40.27h-9.78Zm-2.93-7.07L890,587.27l-6.38,15.42Z"/><path d="M942.5,618.39l-7.76-11.22h-8.58v11.22h-9.32V578.12h17.44c10.75,0,17.48,5.58,17.48,14.62a13.1,13.1,0,0,1-8.28,12.71l9,12.94Zm-8.74-32.67h-7.6v14h7.6c5.69,0,8.57-2.64,8.57-7S939.45,585.72,933.76,585.72Z"/><path d="M956.59,598.26c0-12.14,9.32-20.83,21.86-20.83,7,0,12.77,2.53,16.57,7.14l-6,5.52a13,13,0,0,0-10.13-4.72c-7.53,0-12.88,5.29-12.88,12.89s5.35,12.88,12.88,12.88A12.86,12.86,0,0,0,989,606.37l6,5.52c-3.8,4.66-9.61,7.19-16.63,7.19C965.91,619.08,956.59,610.4,956.59,598.26Z"/><path d="M997.89,598.26c0-12,9.32-20.83,22-20.83s22,8.8,22,20.83-9.38,20.82-22,20.82S997.89,610.22,997.89,598.26Zm34.63,0c0-7.65-5.4-12.89-12.6-12.89s-12.59,5.24-12.59,12.89,5.4,12.88,12.59,12.88S1032.52,605.91,1032.52,598.26Z"/><path d="M1074.92,609.76h-18.7l-3.57,8.63h-9.54l17.94-40.27h9.21l18,40.27h-9.78Zm-2.94-7.07-6.38-15.42-6.39,15.42Z"/><path d="M1092.46,578.12h9.32V610.8H1122v7.59h-29.51Z"/><path d="M1170,609.76h-18.7l-3.56,8.63h-9.55l17.94-40.27h9.21l18,40.27h-9.77Zm-2.93-7.07-6.39-15.42-6.39,15.42Z"/><path d="M1224.47,578.12v40.27h-7.65l-20.07-24.45v24.45h-9.21V578.12h7.71l20,24.45V578.12Z"/><path d="M1242.36,585.72h-12.89v-7.6h35.1v7.6h-12.89v32.67h-9.32Z"/><path d="M1269.57,578.12h9.32v40.27h-9.32Z"/><path d="M1331.23,609.76h-18.69l-3.57,8.63h-9.55l17.95-40.27h9.2l18,40.27h-9.78Zm-2.93-7.07-6.39-15.42-6.38,15.42Z"/><path d="M1345.67,598.26c0-12.14,9.32-20.83,21.86-20.83,7,0,12.77,2.53,16.57,7.14l-6,5.52a12.93,12.93,0,0,0-10.12-4.72c-7.54,0-12.89,5.29-12.89,12.89s5.35,12.88,12.89,12.88a12.82,12.82,0,0,0,10.12-4.77l6,5.52c-3.8,4.66-9.61,7.19-16.63,7.19C1355,619.08,1345.67,610.4,1345.67,598.26Z"/><path d="M1427.29,578.12v40.27h-7.65l-20.07-24.45v24.45h-9.21V578.12h7.71l20,24.45V578.12Z"/><path d="M1468,610.91v7.48h-31.18V578.12h30.43v7.48H1446.1v8.75h18.7v7.24h-18.7v9.32Z"/><path d="M1500.46,601.77h-10v9.78H1483v-9.78h-10v-7h10V585h7.42v9.78h10Z"/><path d="M1506.44,598.26c0-12,9.32-20.83,22-20.83s22,8.8,22,20.83-9.38,20.82-22,20.82S1506.44,610.22,1506.44,598.26Zm34.63,0c0-7.65-5.41-12.89-12.6-12.89s-12.59,5.24-12.59,12.89,5.4,12.88,12.59,12.88S1541.07,605.91,1541.07,598.26Z"/><path d="M1557.52,578.12h9.32v40.27h-9.32Z"/><path d="M1576.39,578.12h9.32V610.8h20.19v7.59h-29.51Z"/><path d="M1624.88,598.26c0-12.14,9.32-20.83,21.86-20.83,7,0,12.77,2.53,16.56,7.14l-6,5.52a12.94,12.94,0,0,0-10.12-4.72c-7.54,0-12.89,5.29-12.89,12.89s5.35,12.88,12.89,12.88a12.84,12.84,0,0,0,10.12-4.77l6,5.52c-3.79,4.66-9.6,7.19-16.62,7.19C1634.2,619.08,1624.88,610.4,1624.88,598.26Z"/><path d="M1666.18,598.26c0-12,9.32-20.83,22-20.83s22,8.8,22,20.83-9.37,20.82-22,20.82S1666.18,610.22,1666.18,598.26Zm34.63,0c0-7.65-5.41-12.89-12.6-12.89s-12.6,5.24-12.6,12.89,5.41,12.88,12.6,12.88S1700.81,605.91,1700.81,598.26Z"/><path d="M1754.19,578.12v40.27h-7.65l-20.08-24.45v24.45h-9.2V578.12H1725l20,24.45V578.12Z"/><path d="M1772.08,585.72h-12.89v-7.6h35.09v7.6H1781.4v32.67h-9.32Z"/><path d="M1824.94,618.39l-7.77-11.22h-8.57v11.22h-9.32V578.12h17.43c10.76,0,17.49,5.58,17.49,14.62a13.1,13.1,0,0,1-8.28,12.71l9,12.94Zm-8.74-32.67h-7.6v14h7.6c5.69,0,8.57-2.64,8.57-7S1821.89,585.72,1816.2,585.72Z"/><path d="M1839,598.26c0-12,9.32-20.83,22-20.83s22,8.8,22,20.83-9.38,20.82-22,20.82S1839,610.22,1839,598.26Zm34.63,0c0-7.65-5.41-12.89-12.6-12.89s-12.59,5.24-12.59,12.89,5.4,12.88,12.59,12.88S1873.66,605.91,1873.66,598.26Z"/><path d="M1890.11,578.12h9.32V610.8h20.19v7.59h-29.51Z"/><path d="M118.27,685.23c0,7-5.52,11-16.1,11H81.34V656H101c10.06,0,15.24,4.2,15.24,10.47a9.69,9.69,0,0,1-5.35,8.86A9.93,9.93,0,0,1,118.27,685.23ZM90.6,663v9.49h9.27c4.54,0,7-1.61,7-4.78s-2.47-4.71-7-4.71Zm18.3,21.28c0-3.39-2.59-5-7.42-5H90.6v10h10.88C106.31,689.2,108.9,687.7,108.9,684.25Z"/><path d="M122.82,676.08c0-12,9.31-20.82,22-20.82s22,8.8,22,20.82-9.38,20.83-22,20.83S122.82,688.05,122.82,676.08Zm34.63,0c0-7.65-5.41-12.88-12.6-12.88s-12.6,5.23-12.6,12.88S137.66,689,144.85,689,157.45,683.73,157.45,676.08Z"/><path d="M173.89,656h18.3c13.17,0,22.2,7.94,22.2,20.13s-9,20.14-22.2,20.14h-18.3Zm17.84,32.61c8,0,13.23-4.77,13.23-12.48s-5.24-12.48-13.23-12.48h-8.52v25Z"/><path d="M239,682v14.27h-9.32V681.83L214.1,656H224l10.75,17.89L245.51,656h9.15Z"/><path d="M311.78,685.23c0,7-5.53,11-16.11,11H274.85V656h19.67c10.07,0,15.24,4.2,15.24,10.47a9.69,9.69,0,0,1-5.35,8.86A9.94,9.94,0,0,1,311.78,685.23ZM284.11,663v9.49h9.26c4.54,0,7-1.61,7-4.78s-2.48-4.71-7-4.71Zm18.29,21.28c0-3.39-2.59-5-7.42-5H284.11v10H295C299.81,689.2,302.4,687.7,302.4,684.25Z"/><path d="M345.37,687.59h-18.7l-3.56,8.63h-9.55L331.51,656h9.2l18,40.27h-9.77Zm-2.93-7.08-6.39-15.42-6.39,15.42Z"/><path d="M369.24,663.54H356.35V656h35.1v7.59H378.56v32.68h-9.32Z"/><path d="M433.38,656v40.27h-9.32V679.71H405.77v16.51h-9.32V656h9.32v15.88h18.29V656Z"/><path d="M486.41,675.45h8.52v16.34a27.84,27.84,0,0,1-16.28,5.12c-12.66,0-22-8.69-22-20.83s9.32-20.82,22.15-20.82c7.07,0,12.94,2.41,16.85,7l-6,5.52a13.61,13.61,0,0,0-10.41-4.54c-7.82,0-13.17,5.23-13.17,12.88S471.46,689,479.16,689a14.74,14.74,0,0,0,7.25-1.73Z"/><path d="M534.73,688.74v7.48H503.55V656H534v7.48H512.81v8.74h18.7v7.25h-18.7v9.32Z"/><path d="M542.15,656h9.32v32.67h20.19v7.6H542.15Z"/><path d="M109.24,839.21c0,7.13-5.23,13.34-16.74,13.34-5.58,0-11.45-1.55-15.36-4.31l3.68-7.13a19.39,19.39,0,0,0,11.45,3.62c4.66,0,7.54-2,7.54-5.23s-2.07-5.24-9.38-5.24H80.13l2.08-22.66h24.56v7.47H90l-.63,7.66h3.28C104.53,826.73,109.24,832.08,109.24,839.21Z"/><path d="M113,831.73c0-13.29,7.36-20.82,17.25-20.82s17.26,7.53,17.26,20.82-7.3,20.82-17.26,20.82S113,845,113,831.73Zm25.13,0c0-9.15-3.22-12.94-7.88-12.94s-7.82,3.79-7.82,12.94,3.22,12.94,7.82,12.94S138.17,840.88,138.17,831.73Z"/><path d="M152.09,831.73c0-13.29,7.37-20.82,17.26-20.82s17.26,7.53,17.26,20.82-7.31,20.82-17.26,20.82S152.09,845,152.09,831.73Zm25.14,0c0-9.15-3.22-12.94-7.88-12.94s-7.82,3.79-7.82,12.94,3.22,12.94,7.82,12.94S177.23,840.88,177.23,831.73Z"/><path d="M230.32,851.86l0-24.16-11.85,19.91h-4.2l-11.8-19.39v23.64h-8.74V811.6h7.71l15.07,25,14.84-25H239l.12,40.26Z"/><path d="M248.61,811.6h9.32v32.67h20.19v7.59H248.61Z"/><g id="_Rectangle_" data-name="&lt;Rectangle&gt;"><rect class="cls-1" x="77" y="55.49" width="921" height="272"/></g><path class="cls-2" d="M212.1,239.19V160.71L192.18,176.1l-13.13-18,35.15-25.81h23.11V239.19Z"/><path class="cls-2" d="M354.73,203.87a38.66,38.66,0,0,1-3.47,17A34.06,34.06,0,0,1,342,232.7a40.23,40.23,0,0,1-13.21,7,50.23,50.23,0,0,1-15.25,2.34,49.57,49.57,0,0,1-13.8-1.89,44.13,44.13,0,0,1-11.93-5.36,35.94,35.94,0,0,1-9.2-8.53,33.8,33.8,0,0,1-5.66-11.39l23.09-7.1a17.88,17.88,0,0,0,6.26,9.21,18.22,18.22,0,0,0,22.19-.3q4.75-3.93,4.75-11.62a14.63,14.63,0,0,0-2-7.85,15.21,15.21,0,0,0-5.06-5.06,21.25,21.25,0,0,0-7-2.64,41.82,41.82,0,0,0-7.85-.75,77,77,0,0,0-13.06,1.28,75.79,75.79,0,0,0-13,3.4l2.56-61.13h65.5v21.74h-43l-.91,16.9a32.62,32.62,0,0,1,5.36-.83c2-.15,3.75-.23,5.36-.23A52.56,52.56,0,0,1,331.18,172a34.5,34.5,0,0,1,12.3,6.41,30.61,30.61,0,0,1,8.23,10.64A34.11,34.11,0,0,1,354.73,203.87Z"/><path class="cls-2" d="M455.1,167.65a43.61,43.61,0,0,1-3.32,17.28,100.66,100.66,0,0,1-8.6,15.77l-25.79,38.49H386.78l26.58-36.83.31-.45a19.09,19.09,0,0,1-3.7.9,25,25,0,0,1-3.84.31,36.3,36.3,0,0,1-13.41-2.49,34.06,34.06,0,0,1-11.15-7.1A34.26,34.26,0,0,1,371,168.25a38.73,38.73,0,0,1,3.31-16.3,35.54,35.54,0,0,1,9-12.22,40,40,0,0,1,13.41-7.62,51.73,51.73,0,0,1,32.69,0,39.23,39.23,0,0,1,13.34,7.62,36.51,36.51,0,0,1,9,12.07A37,37,0,0,1,455.1,167.65Zm-25.21-.3a17.52,17.52,0,0,0-4.47-12q-4.47-5.06-12.21-5.06t-12.35,4.76q-4.64,4.75-4.63,12.45a16.67,16.67,0,0,0,4.55,12q4.55,4.75,12.13,4.75t12.28-4.68Q429.89,174.89,429.89,167.35Z"/><path class="cls-2" d="M485.28,257.9H464.9L476.22,215h23.7Z"/><path class="cls-2" d="M597.72,185.46A99.92,99.92,0,0,1,595.45,207a55,55,0,0,1-7.24,18,37.52,37.52,0,0,1-12.9,12.37q-7.93,4.61-19.25,4.61t-19.32-4.61a38,38,0,0,1-13-12.37,54.2,54.2,0,0,1-7.32-18,99.92,99.92,0,0,1-2.27-21.58A98.86,98.86,0,0,1,516.37,164a52.52,52.52,0,0,1,7.32-17.81,37.81,37.81,0,0,1,13-12.15q8-4.53,19.32-4.53T575.31,134a37.35,37.35,0,0,1,12.9,12.15A53.25,53.25,0,0,1,595.45,164,98.86,98.86,0,0,1,597.72,185.46Zm-26,0q0-5-.6-11a55.24,55.24,0,0,0-2.27-11.24,24.48,24.48,0,0,0-4.75-8.76,10.24,10.24,0,0,0-8.08-3.54,10.45,10.45,0,0,0-8.15,3.54,24.57,24.57,0,0,0-4.9,8.76,51.45,51.45,0,0,0-2.34,11.24c-.4,4-.61,7.7-.61,11s.21,7.17.61,11.24A51.45,51.45,0,0,0,543,208a24.65,24.65,0,0,0,4.9,8.76,10.45,10.45,0,0,0,8.15,3.54,10.24,10.24,0,0,0,8.08-3.54,24.57,24.57,0,0,0,4.75-8.76,55.21,55.21,0,0,0,2.27-11.32Q571.76,190.6,571.76,185.46Z"/><path class="cls-2" d="M695.22,185.46A99.92,99.92,0,0,1,693,207a55.18,55.18,0,0,1-7.24,18,37.52,37.52,0,0,1-12.9,12.37q-7.93,4.61-19.25,4.61t-19.32-4.61a38,38,0,0,1-13-12.37,54.2,54.2,0,0,1-7.32-18,99.92,99.92,0,0,1-2.27-21.58A98.86,98.86,0,0,1,613.87,164a52.52,52.52,0,0,1,7.32-17.81,37.81,37.81,0,0,1,13-12.15q8-4.53,19.32-4.53T672.81,134a37.35,37.35,0,0,1,12.9,12.15A53.46,53.46,0,0,1,693,164,98.86,98.86,0,0,1,695.22,185.46Zm-26,0a109.5,109.5,0,0,0-.61-11,54.58,54.58,0,0,0-2.26-11.24,24.48,24.48,0,0,0-4.75-8.76,10.24,10.24,0,0,0-8.08-3.54,10.44,10.44,0,0,0-8.15,3.54,24.57,24.57,0,0,0-4.9,8.76,51.45,51.45,0,0,0-2.34,11.24,109.5,109.5,0,0,0-.61,11q0,5.13.61,11.24A51.45,51.45,0,0,0,640.51,208a24.65,24.65,0,0,0,4.9,8.76,10.44,10.44,0,0,0,8.15,3.54,10.24,10.24,0,0,0,8.08-3.54,24.57,24.57,0,0,0,4.75-8.76,54.56,54.56,0,0,0,2.26-11.32Q669.26,190.6,669.26,185.46Z"/><path class="cls-2" d="M792.72,185.46A99.92,99.92,0,0,1,790.45,207a55.18,55.18,0,0,1-7.24,18,37.46,37.46,0,0,1-12.91,12.37q-7.92,4.61-19.24,4.61t-19.32-4.61a38,38,0,0,1-13-12.37,54,54,0,0,1-7.32-18,99.92,99.92,0,0,1-2.27-21.58A98.86,98.86,0,0,1,711.37,164a52.32,52.32,0,0,1,7.32-17.81,37.81,37.81,0,0,1,13-12.15q8-4.53,19.32-4.53T770.3,134a37.29,37.29,0,0,1,12.91,12.15A53.46,53.46,0,0,1,790.45,164,98.86,98.86,0,0,1,792.72,185.46Zm-26,0c0-3.32-.21-7-.61-11a54.58,54.58,0,0,0-2.26-11.24,24.48,24.48,0,0,0-4.75-8.76,10.24,10.24,0,0,0-8.08-3.54,10.44,10.44,0,0,0-8.15,3.54,24.57,24.57,0,0,0-4.9,8.76,51.45,51.45,0,0,0-2.34,11.24,109.5,109.5,0,0,0-.61,11q0,5.13.61,11.24A51.45,51.45,0,0,0,738,208a24.65,24.65,0,0,0,4.9,8.76,10.44,10.44,0,0,0,8.15,3.54,10.24,10.24,0,0,0,8.08-3.54,24.57,24.57,0,0,0,4.75-8.76,54.56,54.56,0,0,0,2.26-11.32C766.55,192.63,766.76,188.88,766.76,185.46Z"/><path class="cls-2" d="M866.22,239.19v-9.81h-.3a23.57,23.57,0,0,1-10.34,8.83,33.73,33.73,0,0,1-14.27,3.09A33.35,33.35,0,0,1,826.22,238,34.49,34.49,0,0,1,815,229.15a38.74,38.74,0,0,1-7-12.75,47.41,47.41,0,0,1-2.42-15.09,45.47,45.47,0,0,1,2.49-15,39.11,39.11,0,0,1,7.1-12.6A33.07,33.07,0,0,1,841,161.91a28.71,28.71,0,0,1,14,3.17A31.17,31.17,0,0,1,864,172h.31V153.16H841.77V139.73h22.49V125.09H889v14.64H896v13.43H889v86Zm-.91-37.73a20.61,20.61,0,0,0-4.9-13.29,18.09,18.09,0,0,0-5.66-4.37,16.63,16.63,0,0,0-7.55-1.66,17,17,0,0,0-7.7,1.66,17.39,17.39,0,0,0-9,10.41,22.92,22.92,0,0,0-1.13,7.1,23.53,23.53,0,0,0,1.13,7.16,18.48,18.48,0,0,0,3.4,6.27,16.66,16.66,0,0,0,13.28,6,16.76,16.76,0,0,0,7.55-1.66,18.12,18.12,0,0,0,5.66-4.38,20.05,20.05,0,0,0,3.62-6.19A20.41,20.41,0,0,0,865.31,201.46Z"/></svg>