<svg id="Layer_1" data-name="Layer 1" xmlns="http://www.w3.org/2000/svg" viewBox="0 0 2006 967.99"><defs><style>.cls-1{fill:#c90202;}.cls-2{fill:#fff;}</style></defs><title>Image convert 1 fix text</title><path d="M80.07,571.16,87,555.89A51.57,51.57,0,0,0,115.88,565c12,0,16.9-4,16.9-9.39,0-16.4-50.95-5.14-50.95-37.69,0-14.9,12-27.29,36.93-27.29,11,0,22.28,2.63,30.42,7.76l-6.26,15.4a49.52,49.52,0,0,0-24.29-6.89c-12,0-16.65,4.51-16.65,10,0,16.15,51,5,51,37.18,0,14.65-12.15,27.17-37.19,27.17C101.86,581.3,87.84,577.17,80.07,571.16Z"/><path d="M161.32,536c0-26,20.29-45.32,48-45.32s48,19.15,48,45.32-20.41,45.32-48,45.32S161.32,562,161.32,536Zm75.37,0c0-16.65-11.77-28-27.42-28s-27.41,11.39-27.41,28,11.76,28,27.41,28S236.69,552.63,236.69,536Z"/><path d="M352.87,492.16V579.8H336.22l-43.69-53.21V579.8h-20V492.16h16.77l43.57,53.21V492.16Z"/><path d="M489.46,555.89c0,15.15-12,23.91-35.06,23.91H409.08V492.16H451.9c21.91,0,33.18,9.14,33.18,22.79a21.08,21.08,0,0,1-11.64,19.28C483.2,537.36,489.46,544.87,489.46,555.89Zm-60.22-48.45v20.65H449.4c9.89,0,15.27-3.5,15.27-10.39s-5.38-10.26-15.27-10.26Zm39.81,46.32c0-7.39-5.63-10.89-16.15-10.89H429.24v21.66H452.9C463.42,564.53,469.05,561.27,469.05,553.76Z"/><path d="M499.35,536c0-26,20.28-45.32,47.95-45.32s48,19.15,48,45.32-20.41,45.32-48,45.32S499.35,562,499.35,536Zm75.37,0c0-16.65-11.77-28-27.42-28s-27.42,11.39-27.42,28,11.77,28,27.42,28S574.72,552.63,574.72,536Zm-21.91-69h21l-22.66,18H535.91Z"/><path d="M690.9,492.16V579.8H674.25l-43.7-53.21V579.8h-20V492.16H627.3l43.57,53.21V492.16Z"/><path d="M770.9,534.6h18.53v35.56c-9.64,7.26-22.91,11.14-35.43,11.14-27.55,0-47.83-18.9-47.83-45.32s20.28-45.32,48.2-45.32c15.4,0,28.17,5.26,36.69,15.15l-13,12a29.65,29.65,0,0,0-22.66-9.89c-17,0-28.67,11.39-28.67,28,0,16.4,11.65,28,28.42,28a32.25,32.25,0,0,0,15.78-3.75Z"/><path d="M902.85,534.6h18.53v35.56c-9.64,7.26-22.91,11.14-35.43,11.14-27.54,0-47.82-18.9-47.82-45.32s20.28-45.32,48.2-45.32c15.4,0,28.17,5.26,36.68,15.15l-13,12a29.66,29.66,0,0,0-22.66-9.89c-17,0-28.67,11.39-28.67,28,0,16.4,11.64,28,28.42,28a32.21,32.21,0,0,0,15.77-3.75Z"/><path d="M1018.78,504.18v37.06c0,25.79-14.77,40.06-39.68,40.06S939.41,567,939.41,541.24V492.16h20.28v48.33c0,16.65,7.26,23.53,19.53,23.53s19.53-6.88,19.53-23.53V492.16h13c4.51,0,7.51-3.25,7.51-7.89a12.05,12.05,0,0,0-2.5-7.51l11.52-4.26a20.28,20.28,0,0,1,4,12.52C1032.31,494.91,1027.42,501.8,1018.78,504.18Z"/><path d="M1130.83,536c0,26.17-20.4,45.32-47.95,45.32s-48-19.28-48-45.32,20.41-45.32,48.83-45.32c9.39,0,16.65,1.75,22.91,1.75s10.27-2.88,10.27-8.26a13.44,13.44,0,0,0-2.51-7.51l11.52-4.26a21.63,21.63,0,0,1,4,12.52c0,9.39-5.14,15.52-13.9,18C1125.07,510.57,1130.83,522.33,1130.83,536Zm-20.53,0c0-16.53-11.77-28-27.42-28s-27.42,11.39-27.42,28,11.9,28,27.42,28S1110.3,552.51,1110.3,536Z"/><path d="M1226.48,492.16V579.8h-16.65l-43.69-53.21V579.8h-20V492.16h16.78l43.57,53.21V492.16Z"/><path d="M1306.48,534.6H1325v35.56c-9.64,7.26-22.91,11.14-35.43,11.14-27.54,0-47.83-18.9-47.83-45.32S1262,490.66,1290,490.66c15.39,0,28.16,5.26,36.68,15.15l-13,12a29.66,29.66,0,0,0-22.66-9.89c-17,0-28.67,11.39-28.67,28,0,16.4,11.64,28,28.42,28a32.21,32.21,0,0,0,15.77-3.75Z"/><path d="M78.81,637.49c0-12.14,9.32-20.82,21.86-20.82,7,0,12.77,2.53,16.57,7.13l-6,5.52a13,13,0,0,0-10.13-4.72c-7.54,0-12.88,5.3-12.88,12.89s5.34,12.89,12.88,12.89a12.86,12.86,0,0,0,10.13-4.78l6,5.52c-3.8,4.66-9.61,7.19-16.63,7.19C88.13,658.31,78.81,649.63,78.81,637.49Z"/><path d="M149.22,649h-18.7L127,657.62h-9.55l18-40.26h9.2l18,40.26h-9.78Zm-2.93-7.07L139.9,626.5l-6.38,15.42Z"/><path d="M173.09,625H160.2v-7.59h35.1V625H182.41v32.67h-9.32Z"/><path d="M237.23,617.36v40.26h-9.32V641.11H209.62v16.51H200.3V617.36h9.32v15.87h18.29V617.36Z"/><path d="M266.1,643.36v14.26h-9.31V643.24L241.2,617.36h9.89l10.76,17.89,10.75-17.89h9.15Z"/><path d="M301.94,617.36h18.29c13.18,0,22.21,7.93,22.21,20.13s-9,20.13-22.21,20.13H301.94ZM319.77,650c8,0,13.23-4.77,13.23-12.48S327.77,625,319.77,625h-8.51v25Z"/><path d="M346.92,637.49c0-12,9.32-20.82,22-20.82s22,8.8,22,20.82-9.37,20.82-22,20.82S346.92,649.45,346.92,637.49Zm34.63,0c0-7.65-5.41-12.89-12.6-12.89s-12.6,5.24-12.6,12.89,5.41,12.89,12.6,12.89S381.55,645.14,381.55,637.49Z"/><path d="M398,617.36h9.32V650h20.19v7.59H398Z"/><path d="M432.74,617.36h9.32V650h20.19v7.59H432.74Z"/><path d="M520.7,617.36v40.26h-9.32V641.11h-18.3v16.51h-9.32V617.36h9.32v15.87h18.3V617.36Z"/><path d="M530.24,617.36h9.32v40.26h-9.32Z"/><path d="M592.6,636.86h8.51v16.33a27.77,27.77,0,0,1-16.28,5.12c-12.66,0-22-8.68-22-20.82s9.31-20.82,22.14-20.82c7.08,0,13,2.41,16.86,7l-6,5.52a13.64,13.64,0,0,0-10.42-4.55c-7.82,0-13.17,5.24-13.17,12.89s5.35,12.89,13.06,12.89a14.76,14.76,0,0,0,7.25-1.73Z"/><path d="M609.74,617.36h9.32V650h20.19v7.59H609.74Z"/><path d="M641.26,637.49c0-12,9.32-20.82,22-20.82s22,8.8,22,20.82-9.37,20.82-22,20.82S641.26,649.45,641.26,637.49Zm34.63,0c0-7.65-5.41-12.89-12.6-12.89s-12.6,5.24-12.6,12.89,5.41,12.89,12.6,12.89S675.89,645.14,675.89,637.49Z"/><path d="M689.17,653.65l3.17-7a23.69,23.69,0,0,0,13.29,4.2c5.52,0,7.76-1.85,7.76-4.32,0-7.53-23.41-2.36-23.41-17.31,0-6.85,5.52-12.54,17-12.54,5.06,0,10.24,1.2,14,3.56l-2.88,7.08a22.73,22.73,0,0,0-11.16-3.17c-5.52,0-7.65,2.07-7.65,4.61,0,7.42,23.41,2.3,23.41,17.08,0,6.73-5.58,12.48-17.08,12.48C699.18,658.31,692.74,656.42,689.17,653.65Z"/><path d="M725.87,653.65l3.17-7a23.68,23.68,0,0,0,13.28,4.2c5.53,0,7.77-1.85,7.77-4.32,0-7.53-23.41-2.36-23.41-17.31,0-6.85,5.52-12.54,17-12.54,5.06,0,10.24,1.2,14,3.56l-2.88,7.08a22.73,22.73,0,0,0-11.16-3.17c-5.52,0-7.65,2.07-7.65,4.61,0,7.42,23.41,2.3,23.41,17.08,0,6.73-5.58,12.48-17.08,12.48C735.88,658.31,729.44,656.42,725.87,653.65Z"/><path d="M818.66,657.62l-.06-24.16-11.85,19.91h-4.2L790.76,634v23.64H782V617.36h7.71l15.07,25,14.84-25h7.66l.11,40.26Z"/><path d="M837,617.36h9.31v40.26H837Z"/><path d="M881.47,657.62l-7.77-11.21h-8.57v11.21h-9.32V617.36h17.43c10.76,0,17.49,5.58,17.49,14.61a13.09,13.09,0,0,1-8.28,12.71l9,12.94ZM872.72,625h-7.59v14h7.59c5.7,0,8.58-2.65,8.58-7S878.42,625,872.72,625Z"/><path d="M923.75,657.62,916,646.41h-8.57v11.21h-9.32V617.36h17.43c10.76,0,17.49,5.58,17.49,14.61a13.08,13.08,0,0,1-8.29,12.71l9,12.94ZM915,625h-7.59v14H915c5.7,0,8.57-2.65,8.57-7S920.7,625,915,625Z"/><path d="M937.84,637.49c0-12,9.32-20.82,22-20.82s22,8.8,22,20.82-9.37,20.82-22,20.82S937.84,649.45,937.84,637.49Zm34.63,0c0-7.65-5.41-12.89-12.6-12.89s-12.6,5.24-12.6,12.89,5.41,12.89,12.6,12.89S972.47,645.14,972.47,637.49Z"/><path d="M1014.57,657.62l-7.76-11.21h-8.57v11.21h-9.32V617.36h17.43c10.75,0,17.48,5.58,17.48,14.61a13.07,13.07,0,0,1-8.28,12.71l9,12.94ZM1005.83,625h-7.59v14h7.59c5.69,0,8.57-2.65,8.57-7S1011.52,625,1005.83,625Z"/><path d="M1047.47,617.36h9.32V650H1077v7.59h-29.51Z"/><path d="M1082.22,617.36h9.31v40.26h-9.31Z"/><path d="M1136,632c0,9-6.73,14.55-17.49,14.55h-8.11v11.1h-9.32V617.36h17.43C1129.27,617.36,1136,622.94,1136,632Zm-9.43,0c0-4.43-2.88-7-8.58-7h-7.59v14H1118C1123.69,638.93,1126.57,636.34,1126.57,632Z"/><path d="M1190.19,644.91c0,8.23-6.74,13.4-15.25,13.4-11.1,0-18-7-18-20,0-13.92,8.39-21.68,20.53-21.68a21.68,21.68,0,0,1,11.22,2.76l-3.45,6.84a13.32,13.32,0,0,0-7.54-2c-6.73,0-11,4-11.33,11.68,2.36-2.36,5.75-3.57,10-3.57C1184.09,632.37,1190.19,637.32,1190.19,644.91Zm-9,.46c0-3.68-2.7-6-6.84-6s-7,2.53-7,6,2.59,6,7.07,6C1178.39,651.35,1181.15,649.05,1181.15,645.37Z"/><path d="M1223.32,636.86h8.51v16.33a27.77,27.77,0,0,1-16.28,5.12c-12.65,0-22-8.68-22-20.82s9.32-20.82,22.14-20.82c7.08,0,13,2.41,16.86,7l-6,5.52a13.64,13.64,0,0,0-10.42-4.55c-7.82,0-13.17,5.24-13.17,12.89s5.35,12.89,13.06,12.89a14.76,14.76,0,0,0,7.25-1.73Z"/><g id="_Rectangle_" data-name="&lt;Rectangle&gt;"><rect class="cls-1" x="77" y="78.49" width="921" height="272"/></g><path class="cls-2" d="M212.1,262.19V183.71L192.18,199.1l-13.13-18,35.15-25.81h23.11V262.19Z"/><path class="cls-2" d="M355.63,231.7a30.14,30.14,0,0,1-12.12,25.13A38,38,0,0,1,330.7,263a57.46,57.46,0,0,1-30.35,0,39,39,0,0,1-12.73-6.11,30.39,30.39,0,0,1-8.82-10.34,31,31,0,0,1-3.31-14.72,26,26,0,0,1,1.51-9,25.44,25.44,0,0,1,4.15-7.39,28.17,28.17,0,0,1,13.51-9.14V206A26.44,26.44,0,0,1,283,197.67q-4.68-5.82-4.68-14.72a27.7,27.7,0,0,1,3-13.13,28.25,28.25,0,0,1,8.15-9.58,36.29,36.29,0,0,1,11.92-5.81,50.83,50.83,0,0,1,14.19-2,51.86,51.86,0,0,1,14.11,1.89A36.55,36.55,0,0,1,341.6,160a28.6,28.6,0,0,1,8.22,9.43,26.85,26.85,0,0,1,3.1,13.06q0,8.91-4.53,14.94a23.73,23.73,0,0,1-11.77,8.45v.45a27.07,27.07,0,0,1,7.48,3.55,26.19,26.19,0,0,1,10,13A26,26,0,0,1,355.63,231.7Zm-25.2-.9a14.06,14.06,0,0,0-4.15-10.34,14.41,14.41,0,0,0-10.64-4.15,14.71,14.71,0,0,0-10.79,4.07,14,14,0,0,0-4.15,10.42,13.39,13.39,0,0,0,4.15,10.33A15.2,15.2,0,0,0,315.64,245c4.42,0,8-1.28,10.71-3.85S330.43,235.12,330.43,230.8Zm-2-46.49a11.36,11.36,0,0,0-3.78-8.75,12.87,12.87,0,0,0-9.05-3.48,12.42,12.42,0,0,0-9.21,3.48,11.87,11.87,0,0,0-3.47,8.75,12.83,12.83,0,0,0,3.4,8.9,11.83,11.83,0,0,0,9.28,3.78,12.18,12.18,0,0,0,9.2-3.78A12.4,12.4,0,0,0,328.47,184.31Z"/><path class="cls-2" d="M454.94,208.46A99.92,99.92,0,0,1,452.68,230a55.18,55.18,0,0,1-7.24,18,37.55,37.55,0,0,1-12.91,12.37q-7.92,4.6-19.24,4.61T394,260.45a38,38,0,0,1-13.06-12.37,54.2,54.2,0,0,1-7.32-18,99.92,99.92,0,0,1-2.26-21.58A98.87,98.87,0,0,1,373.59,187a52.52,52.52,0,0,1,7.32-17.81A37.84,37.84,0,0,1,394,157q8-4.53,19.32-4.53T432.53,157a37.38,37.38,0,0,1,12.91,12.15A53.46,53.46,0,0,1,452.68,187,98.87,98.87,0,0,1,454.94,208.46Zm-26,0q0-5-.6-11a55.25,55.25,0,0,0-2.26-11.24,24.5,24.5,0,0,0-4.76-8.76,10.2,10.2,0,0,0-8.07-3.54,10.44,10.44,0,0,0-8.15,3.54,24.73,24.73,0,0,0-4.91,8.76,51.45,51.45,0,0,0-2.34,11.24q-.6,6-.6,11,0,5.13.6,11.24A51.45,51.45,0,0,0,400.23,231a24.82,24.82,0,0,0,4.91,8.76,10.44,10.44,0,0,0,8.15,3.54,10.2,10.2,0,0,0,8.07-3.54,24.58,24.58,0,0,0,4.76-8.76,55.22,55.22,0,0,0,2.26-11.32Q429,213.6,429,208.46Z"/><path class="cls-2" d="M485.28,280.9H464.9L476.22,238h23.7Z"/><path class="cls-2" d="M597.72,208.46A99.92,99.92,0,0,1,595.46,230a55.19,55.19,0,0,1-7.25,18,37.52,37.52,0,0,1-12.9,12.37q-7.93,4.6-19.25,4.61t-19.32-4.61a38,38,0,0,1-13-12.37,54.2,54.2,0,0,1-7.32-18,99.92,99.92,0,0,1-2.26-21.58A98.87,98.87,0,0,1,516.37,187a52.52,52.52,0,0,1,7.32-17.81,37.81,37.81,0,0,1,13-12.15q8-4.53,19.32-4.53T575.31,157a37.35,37.35,0,0,1,12.9,12.15A53.47,53.47,0,0,1,595.46,187,98.87,98.87,0,0,1,597.72,208.46Zm-26,0q0-5-.6-11a55.24,55.24,0,0,0-2.27-11.24,24.48,24.48,0,0,0-4.75-8.76,10.24,10.24,0,0,0-8.08-3.54,10.45,10.45,0,0,0-8.15,3.54,24.57,24.57,0,0,0-4.9,8.76,51.45,51.45,0,0,0-2.34,11.24q-.6,6-.6,11,0,5.13.6,11.24A51.45,51.45,0,0,0,543,231a24.65,24.65,0,0,0,4.9,8.76,10.45,10.45,0,0,0,8.15,3.54,10.24,10.24,0,0,0,8.08-3.54,24.57,24.57,0,0,0,4.75-8.76,55.21,55.21,0,0,0,2.27-11.32Q571.76,213.6,571.76,208.46Z"/><path class="cls-2" d="M695.22,208.46A99.92,99.92,0,0,1,693,230a55,55,0,0,1-7.24,18,37.52,37.52,0,0,1-12.9,12.37q-7.93,4.6-19.25,4.61t-19.32-4.61a38,38,0,0,1-13-12.37,54.2,54.2,0,0,1-7.32-18,99.92,99.92,0,0,1-2.27-21.58A98.86,98.86,0,0,1,613.87,187a52.52,52.52,0,0,1,7.32-17.81,37.81,37.81,0,0,1,13-12.15q8-4.53,19.32-4.53T672.81,157a37.35,37.35,0,0,1,12.9,12.15A53.25,53.25,0,0,1,693,187,98.86,98.86,0,0,1,695.22,208.46Zm-26,0a109.5,109.5,0,0,0-.61-11,54.58,54.58,0,0,0-2.26-11.24,24.48,24.48,0,0,0-4.75-8.76,10.24,10.24,0,0,0-8.08-3.54,10.44,10.44,0,0,0-8.15,3.54,24.57,24.57,0,0,0-4.9,8.76,51.45,51.45,0,0,0-2.34,11.24,109.5,109.5,0,0,0-.61,11q0,5.13.61,11.24A51.45,51.45,0,0,0,640.51,231a24.65,24.65,0,0,0,4.9,8.76,10.44,10.44,0,0,0,8.15,3.54,10.24,10.24,0,0,0,8.08-3.54,24.57,24.57,0,0,0,4.75-8.76,54.56,54.56,0,0,0,2.26-11.32Q669.26,213.6,669.26,208.46Z"/><path class="cls-2" d="M792.72,208.46A99.92,99.92,0,0,1,790.45,230a55.18,55.18,0,0,1-7.24,18,37.46,37.46,0,0,1-12.91,12.37q-7.92,4.6-19.24,4.61t-19.32-4.61a38,38,0,0,1-13-12.37,54,54,0,0,1-7.32-18,99.92,99.92,0,0,1-2.27-21.58A98.86,98.86,0,0,1,711.37,187a52.32,52.32,0,0,1,7.32-17.81,37.81,37.81,0,0,1,13-12.15q8-4.53,19.32-4.53T770.3,157a37.29,37.29,0,0,1,12.91,12.15A53.46,53.46,0,0,1,790.45,187,98.86,98.86,0,0,1,792.72,208.46Zm-26,0c0-3.32-.21-7-.61-11a54.58,54.58,0,0,0-2.26-11.24,24.48,24.48,0,0,0-4.75-8.76,10.24,10.24,0,0,0-8.08-3.54,10.44,10.44,0,0,0-8.15,3.54,24.57,24.57,0,0,0-4.9,8.76,51.45,51.45,0,0,0-2.34,11.24,109.5,109.5,0,0,0-.61,11q0,5.13.61,11.24A51.45,51.45,0,0,0,738,231a24.65,24.65,0,0,0,4.9,8.76,10.44,10.44,0,0,0,8.15,3.54,10.24,10.24,0,0,0,8.08-3.54,24.57,24.57,0,0,0,4.75-8.76,54.56,54.56,0,0,0,2.26-11.32C766.55,215.63,766.76,211.88,766.76,208.46Z"/><path class="cls-2" d="M866.22,262.19v-9.81h-.3a23.57,23.57,0,0,1-10.34,8.83,33.75,33.75,0,0,1-14.26,3.09,33.36,33.36,0,0,1-15.1-3.32A34.49,34.49,0,0,1,815,252.15a38.74,38.74,0,0,1-7-12.75,47.4,47.4,0,0,1-2.41-15.09,45.43,45.43,0,0,1,2.49-15,39.09,39.09,0,0,1,7.09-12.6A33.07,33.07,0,0,1,841,184.91a28.71,28.71,0,0,1,14,3.17A31.17,31.17,0,0,1,864,195h.31V176.16H841.77V162.73h22.49V148.09H889v14.64H896v13.43H889v86Zm-.91-37.73a20.61,20.61,0,0,0-4.9-13.29,18.09,18.09,0,0,0-5.66-4.37,16.63,16.63,0,0,0-7.55-1.66,17,17,0,0,0-7.7,1.66,17.39,17.39,0,0,0-9,10.41,22.92,22.92,0,0,0-1.13,7.1,23.53,23.53,0,0,0,1.13,7.16,18.48,18.48,0,0,0,3.4,6.27,16.74,16.74,0,0,0,13.28,6,16.63,16.63,0,0,0,7.55-1.67,18,18,0,0,0,5.66-4.37,20.05,20.05,0,0,0,3.62-6.19A20.41,20.41,0,0,0,865.31,224.46Z"/></svg>