<svg id="Layer_1" data-name="Layer 1" xmlns="http://www.w3.org/2000/svg" viewBox="0 0 2006 1123.99"><defs><style>.cls-1{fill:#c90202;}.cls-2{fill:#fff;}</style></defs><title>Image convert 1 body care fix text</title><path d="M78.11,508.69h-28V492.16h76.37v16.53h-28V579.8H78.11Z"/><path d="M190.67,561H150l-7.77,18.78H121.43l39.06-87.64h20l39.19,87.64H198.43Zm-30.93-76h-14.4L162,470.75h17L195.67,485H181.28l-10.77-7.13Zm24.54,60.6-13.9-33.55-13.89,33.55Zm-1.38-82.25-3.25-6A19.23,19.23,0,0,1,190,454.6c7,0,11.52,3.88,11.52,9.89,0,5-3.88,9-8.77,10.89L188,470.75c3.38-1.63,4.63-3.63,4.63-5.26,0-2.25-1.75-3.63-4.26-3.63A11,11,0,0,0,182.9,463.37Z"/><path d="M265.53,548.75v31H245.25V548.5l-33.93-56.34h21.53l23.42,38.94,23.41-38.94h19.9Z"/><path d="M361.68,508.69H333.63V492.16H410v16.53H382V579.8H361.68Z"/><path d="M441.05,563.52h47.7V579.8H420.9V492.16h66.23v16.28H441.05v19h40.69v15.77H441.05Zm2.26-78.5h-14.4l16.65-14.27h17L479.24,485h-14.4l-10.77-7.13Zm39.93-12H469.1L483,457.86H502.9Z"/><path d="M620.71,555.89c0,15.15-12,23.91-35.06,23.91H540.33V492.16h42.82c21.91,0,33.17,9.14,33.17,22.79a21.07,21.07,0,0,1-11.64,19.28C614.45,537.36,620.71,544.87,620.71,555.89Zm-60.22-48.45v20.65h20.15c9.89,0,15.28-3.5,15.28-10.39s-5.39-10.26-15.28-10.26Zm39.81,46.32c0-7.39-5.63-10.89-16.15-10.89H560.49v21.66h23.66C594.67,564.53,600.3,561.27,600.3,553.76Z"/><path d="M693.82,561H653.13l-7.76,18.78H624.59l39.06-87.64h20l39.19,87.64H701.58Zm-24-76-22.66-18h21l16.91,18Zm17.66,60.6-13.9-33.55-13.9,33.55Z"/><path d="M725.24,536c0-26,20.28-45.32,48-45.32s47.95,19.15,47.95,45.32-20.4,45.32-47.95,45.32S725.24,562,725.24,536Zm75.37,0c0-16.65-11.77-28-27.42-28s-27.42,11.39-27.42,28,11.77,28,27.42,28S800.61,552.63,800.61,536Z"/><path d="M866.34,536c0-26.42,20.28-45.32,47.57-45.32,15.15,0,27.8,5.51,36.06,15.52l-13,12c-5.89-6.76-13.27-10.26-22-10.26-16.4,0-28,11.51-28,28s11.64,28,28,28c8.77,0,16.15-3.5,22-10.39l13,12c-8.26,10.14-20.91,15.65-36.18,15.65C886.62,581.3,866.34,562.4,866.34,536Z"/><path d="M1044,492.16V579.8h-20.28V543.87H983.89V579.8H963.61V492.16h20.28v34.56h39.82V492.16Z"/><path d="M1084.93,563.52h47.7V579.8h-67.86V492.16H1131v16.28h-46.07v19h40.69v15.77h-40.69Zm2.25-78.5h-14.4l16.65-14.27h17L1123.11,485h-14.4L1098,477.89Zm39.94-12H1113l13.9-15.15h19.9Z"/><path d="M1166.93,508.69h-28V492.16h76.37v16.53h-28V579.8h-20.28Z"/><path d="M70.5,634.87c0-13.71,10.53-23.53,24.7-23.53,7.86,0,14.43,2.86,18.72,8.06l-6.76,6.24a14.65,14.65,0,0,0-11.44-5.33c-8.52,0-14.56,6-14.56,14.56s6,14.56,14.56,14.56A14.52,14.52,0,0,0,107.16,644l6.76,6.24c-4.29,5.26-10.86,8.12-18.79,8.12C81,658.4,70.5,648.59,70.5,634.87Z"/><path d="M150.06,647.87H128.93l-4,9.75H114.11l20.28-45.5h10.4l20.35,45.5h-11Zm-3.32-8-7.21-17.42-7.22,17.42Z"/><path d="M177,620.7H162.47v-8.58h39.65v8.58H187.56v36.92H177Z"/><path d="M249.51,612.12v45.5H239V639H218.31v18.65H207.78v-45.5h10.53v17.94H239V612.12Z"/><path d="M282.14,641.5v16.12H271.61V641.37L254,612.12h11.18l12.16,20.22,12.15-20.22h10.34Z"/><path d="M322.63,612.12H343.3c14.89,0,25.09,9,25.09,22.75s-10.2,22.75-25.09,22.75H322.63ZM342.78,649c9,0,15-5.4,15-14.11s-5.91-14.1-15-14.1h-9.62V649Z"/><path d="M373.46,634.87c0-13.52,10.53-23.53,24.9-23.53s24.89,9.95,24.89,23.53-10.59,23.53-24.89,23.53S373.46,648.39,373.46,634.87Zm39.13,0c0-8.64-6.11-14.56-14.23-14.56s-14.24,5.92-14.24,14.56,6.11,14.56,14.24,14.56S412.59,643.52,412.59,634.87Z"/><path d="M431.18,612.12h10.53V649h22.82v8.58H431.18Z"/><path d="M470.44,612.12H481V649h22.82v8.58H470.44Z"/><path d="M596.86,612.12,582,657.62H570.67l-10-30.81-10.34,30.81H539.08l-15-45.5h10.92l10.27,32,10.72-32h9.75l10.4,32.24,10.6-32.24Z"/><path d="M644.44,612.12v45.5H633.91V639H613.24v18.65H602.71v-45.5h10.53v17.94h20.67V612.12Z"/><path d="M655.23,612.12h10.53v45.5H655.23Z"/><path d="M686,620.7H671.42v-8.58h39.65v8.58H696.51v36.92H686Z"/><path d="M752,649.17v8.45H716.72v-45.5h34.39v8.45H727.19v9.88h21.12v8.19H727.19v10.53Z"/><path d="M820.14,657.62l-.07-27.3-13.39,22.49h-4.74l-13.33-21.9v26.71h-9.88v-45.5h8.71l17,28.28,16.77-28.28h8.65l.13,45.5Z"/><path d="M840.8,612.12h10.53v45.5H840.8Z"/><path d="M862.12,612.12h10.53V649h22.82v8.58H862.12Z"/><path d="M918,639.75l-6.11,6.37v11.5H901.38v-45.5h10.47v21.26L932,612.12h11.7L924.85,632.4l19.95,25.22H932.52Z"/><path d="M964.3,653.14l3.58-7.93a26.77,26.77,0,0,0,15,4.74c6.24,0,8.78-2.08,8.78-4.87,0-8.52-26.46-2.67-26.46-19.57,0-7.73,6.24-14.17,19.18-14.17,5.72,0,11.57,1.37,15.79,4l-3.25,8a25.64,25.64,0,0,0-12.61-3.58c-6.24,0-8.64,2.34-8.64,5.2,0,8.39,26.45,2.6,26.45,19.31,0,7.6-6.3,14.1-19.3,14.1C975.61,658.4,968.33,656.26,964.3,653.14Z"/><path d="M1051.08,612.12v45.5h-10.53V639h-20.67v18.65h-10.54v-45.5h10.54v17.94h20.67V612.12Z"/><path d="M1061.86,612.12h10.54v45.5h-10.54Z"/><path d="M1124.92,612.12v45.5h-8.65L1093.58,630v27.62h-10.4v-45.5h8.71l22.63,27.63V612.12Z"/><path d="M1170.94,649.17v8.45H1135.7v-45.5h34.39v8.45h-23.92v9.88h21.12v8.19h-21.12v10.53Z"/><path d="M1237.17,628.63c0,10.14-7.61,16.45-19.76,16.45h-9.17v12.54h-10.53v-45.5h19.7C1229.56,612.12,1237.17,618.43,1237.17,628.63Zm-10.66,0c0-5-3.25-7.93-9.69-7.93h-8.58v15.8h8.58C1223.26,636.5,1226.51,633.57,1226.51,628.63Z"/><path d="M1279.87,649.17v8.45h-35.23v-45.5H1279v8.45h-23.92v9.88h21.12v8.19h-21.12v10.53Z"/><path d="M1323.49,649.17v8.45h-35.23v-45.5h34.38v8.45h-23.92v9.88h21.13v8.19h-21.13v10.53Z"/><path d="M1331.87,612.12h10.53V649h22.82v8.58h-33.35Z"/><path d="M1371.13,612.12h10.53v45.5h-10.53Z"/><path d="M1434.18,612.12v45.5h-8.64L1402.85,630v27.62h-10.4v-45.5h8.71l22.62,27.63V612.12Z"/><path d="M1475.72,634.16h9.62v18.46a31.42,31.42,0,0,1-18.4,5.78c-14.3,0-24.83-9.81-24.83-23.53s10.53-23.53,25-23.53c8,0,14.62,2.73,19,7.87l-6.76,6.24a15.39,15.39,0,0,0-11.76-5.14c-8.85,0-14.89,5.92-14.89,14.56s6,14.56,14.76,14.56a16.73,16.73,0,0,0,8.19-1.95Z"/><path d="M1555.21,645.21c0,7.86-6.24,12.41-18.2,12.41h-23.53v-45.5h22.23c11.37,0,17.22,4.75,17.22,11.83a10.94,10.94,0,0,1-6,10C1552,635.59,1555.21,639.49,1555.21,645.21Zm-31.27-25.16v10.73h10.47c5.13,0,7.93-1.82,7.93-5.4s-2.8-5.33-7.93-5.33Zm20.67,24.05c0-3.83-2.92-5.65-8.38-5.65h-12.29v11.24h12.29C1541.69,649.69,1544.61,648,1544.61,644.1Z"/><path d="M1560.34,634.87c0-13.52,10.53-23.53,24.9-23.53s24.9,9.95,24.9,23.53-10.6,23.53-24.9,23.53S1560.34,648.39,1560.34,634.87Zm39.13,0c0-8.64-6.11-14.56-14.23-14.56S1571,626.23,1571,634.87s6.11,14.56,14.24,14.56S1599.47,643.52,1599.47,634.87Z"/><path d="M1618.06,612.12h20.67c14.89,0,25.09,9,25.09,22.75s-10.2,22.75-25.09,22.75h-20.67ZM1638.21,649c9,0,15-5.4,15-14.11s-5.91-14.1-15-14.1h-9.62V649Z"/><path d="M1691.64,641.5v16.12h-10.53V641.37l-17.61-29.25h11.18l12.15,20.22L1699,612.12h10.33Z"/><path d="M1728.56,653.14l3.58-7.93a26.77,26.77,0,0,0,15,4.74c6.24,0,8.78-2.08,8.78-4.87,0-8.52-26.46-2.67-26.46-19.57,0-7.73,6.24-14.17,19.18-14.17,5.72,0,11.57,1.37,15.79,4l-3.25,8a25.64,25.64,0,0,0-12.61-3.58c-6.24,0-8.64,2.34-8.64,5.2,0,8.39,26.45,2.6,26.45,19.31,0,7.6-6.3,14.1-19.3,14.1C1739.87,658.4,1732.59,656.26,1728.56,653.14Z"/><path d="M1770.75,634.87c0-13.71,10.53-23.53,24.7-23.53,7.86,0,14.43,2.86,18.72,8.06l-6.76,6.24a14.65,14.65,0,0,0-11.44-5.33c-8.52,0-14.56,6-14.56,14.56s6,14.56,14.56,14.56a14.52,14.52,0,0,0,11.44-5.39l6.76,6.24c-4.29,5.26-10.86,8.12-18.79,8.12C1781.28,658.4,1770.75,648.59,1770.75,634.87Z"/><path d="M1850.24,657.62,1841.47,645h-9.69v12.67h-10.53v-45.5H1841c12.15,0,19.76,6.31,19.76,16.51a14.81,14.81,0,0,1-9.36,14.37l10.2,14.62Zm-9.88-36.92h-8.58v15.86h8.58c6.44,0,9.69-3,9.69-7.93S1846.8,620.7,1840.36,620.7Z"/><path d="M1868.63,637.6V612.12h10.53v25.09c0,8.65,3.77,12.22,10.14,12.22s10.14-3.57,10.14-12.22V612.12h10.41V637.6c0,13.39-7.68,20.8-20.61,20.8S1868.63,651,1868.63,637.6Z"/><path d="M1962,645.21c0,7.86-6.25,12.41-18.21,12.41h-23.53v-45.5h22.23c11.38,0,17.23,4.75,17.23,11.83a10.93,10.93,0,0,1-6,10C1958.72,635.59,1962,639.49,1962,645.21Zm-31.27-25.16v10.73h10.46c5.14,0,7.93-1.82,7.93-5.4s-2.79-5.33-7.93-5.33Zm20.67,24.05c0-3.83-2.93-5.65-8.39-5.65h-12.28v11.24H1943C1948.45,649.69,1951.38,648,1951.38,644.1Z"/><path d="M85.71,799.36c0,7.67-5.92,14.69-18.85,14.69-6.37,0-12.94-1.75-17.36-4.87l4.1-8.06a22.07,22.07,0,0,0,13,4.09c5.26,0,8.51-2.14,8.51-5.85,0-3.44-2.53-5.59-8.51-5.59H61.79v-6.95l9.36-10.6H51.78v-8.45H83.63v6.83L73.36,786.3C81.55,787.6,85.71,792.67,85.71,799.36Z"/><path d="M124.25,804.69v8.58H89.87v-6.82l17.55-16.58c4-3.83,4.74-6.17,4.74-8.38,0-3.58-2.47-5.66-7.28-5.66a11.13,11.13,0,0,0-9.42,4.55l-7.67-4.94c3.51-5.13,9.88-8.45,18.07-8.45,10.14,0,16.9,5.2,16.9,13.46,0,4.42-1.24,8.45-7.61,14.36l-10.46,9.88Z"/><path d="M128.48,790.52c0-15,8.32-23.53,19.5-23.53s19.5,8.52,19.5,23.53-8.26,23.53-19.5,23.53S128.48,805.54,128.48,790.52Zm28.4,0c0-10.33-3.64-14.62-8.9-14.62s-8.84,4.29-8.84,14.62,3.64,14.63,8.84,14.63S156.88,800.86,156.88,790.52Z"/><path d="M216.88,813.27l-.07-27.3-13.39,22.49h-4.74l-13.33-21.9v26.71h-9.88v-45.5h8.71l17,28.28L218,767.77h8.65l.13,45.5Z"/><path d="M237.55,767.77h10.53v36.92h22.81v8.58H237.55Z"/><g id="_Rectangle_" data-name="&lt;Rectangle&gt;"><rect class="cls-1" x="50" y="78.49" width="921" height="272"/></g><path class="cls-2" d="M195.16,151.57V260.06H170.05V171.72h-21.7V151.57Z"/><path class="cls-2" d="M313.42,237.28H295.75v22.78H271.26V237.28H212.83V220.39L264,151.57h26.35l-47.43,65.25H272v-20.3h23.72v20.3h17.67Z"/><path class="cls-2" d="M406.88,203.49c0,37.51-22.47,58.43-55.33,58.43-11.47,0-22.48-2.63-30.07-7.44l9.3-18.44c5.89,4,12.86,5.43,20.3,5.43,18,0,29.76-10.7,30.54-31.62-6.36,6.35-15.66,9.76-27,9.76-20.93,0-37.35-13.33-37.35-33.79,0-22.16,18.13-36.11,41.07-36.11C388.44,149.71,406.88,168.46,406.88,203.49Zm-28.05-18.91c0-9.3-7-16.12-18.91-16.12-10.7,0-18.14,6.2-18.14,16.12s7.29,16.28,18.45,16.28C371.23,200.86,378.83,194,378.83,184.58Z"/><path class="cls-2" d="M446.26,246.12c0,4-.62,7-4.19,15.49l-8.83,22.32H417.89l6.82-24.64c-5.11-2-8.37-6.82-8.37-13.17,0-9,6.51-14.88,15-14.88C440.06,231.24,446.26,237.28,446.26,246.12Z"/><path class="cls-2" d="M455.56,205.82c0-35.81,19.84-56.11,46.5-56.11s46.5,20.3,46.5,56.11-19.69,56.1-46.5,56.1S455.56,241.62,455.56,205.82Zm67.73,0c0-24.65-8.68-34.88-21.23-34.88-12.4,0-21.08,10.23-21.08,34.88s8.68,34.87,21.08,34.87S523.29,230.46,523.29,205.82Z"/><path class="cls-2" d="M560.8,205.82c0-35.81,19.84-56.11,46.5-56.11,26.81,0,46.5,20.3,46.5,56.11s-19.69,56.1-46.5,56.1C580.64,261.92,560.8,241.62,560.8,205.82Zm67.73,0c0-24.65-8.68-34.88-21.23-34.88-12.4,0-21.08,10.23-21.08,34.88s8.68,34.87,21.08,34.87C619.85,240.69,628.53,230.46,628.53,205.82Z"/><path class="cls-2" d="M666,205.82c0-35.81,19.84-56.11,46.5-56.11,26.82,0,46.5,20.3,46.5,56.11s-19.68,56.1-46.5,56.1C685.88,261.92,666,241.62,666,205.82Zm67.74,0c0-24.65-8.68-34.88-21.24-34.88-12.4,0-21.08,10.23-21.08,34.88s8.68,34.87,21.08,34.87C725.1,240.69,733.78,230.46,733.78,205.82Z"/><path class="cls-2" d="M872.65,168.15H861.34v91.91h-23.1v-9.61c-6,7.29-14.88,10.86-26,10.86-23.56,0-41.7-16.75-41.7-42.94s18.14-42.93,41.7-42.93c10.22,0,18.9,3.25,24.95,10.07V168.15H808.8v-14h28.36v-9.14h24.18v9.14h11.31Zm-35,50.22c0-14.41-9.3-23.09-21.23-23.09C804.3,195.28,795,204,795,218.37s9.3,23.1,21.39,23.1C828.32,241.47,837.62,232.79,837.62,218.37Z"/></svg>