<?xml version="1.0" encoding="utf-8"?>
<!-- Generator: Adobe Illustrator 22.1.0, SVG Export Plug-In . SVG Version: 6.00 Build 0)  -->
<svg version="1.1" id="Layer_1" xmlns="http://www.w3.org/2000/svg" xmlns:xlink="http://www.w3.org/1999/xlink" x="0px" y="0px"
	 viewBox="0 0 987 460.9" style="enable-background:new 0 0 987 460.9;" xml:space="preserve">
<style type="text/css">
	.st0{fill:#C90202;}
	.st1{fill:#FFFFFF;}
</style>
<title>Image convert 3</title>
<path d="M104.2,234.3h16.8c12.5,0,21,7.7,21,19.2s-8.5,19.2-21,19.2h-16.8V234.3z M120.7,266.8c8.6,0,14.1-5.2,14.1-13.2
	c0-8-5.5-13.2-14.1-13.2h-9.3v26.4H120.7z"/>
<path d="M183.1,239v17.1c0,11.2-6.3,17.3-16.8,17.3s-16.9-6.1-16.9-17.3v-21.7h7.1v21.4c0,7.9,3.6,11.3,9.8,11.3s9.7-3.4,9.7-11.3
	v-21.4h4.6c1.8,0.1,3.3-1.3,3.4-3.1c0-0.1,0-0.3,0-0.4c0-1.2-0.4-2.4-1.1-3.4l4.3-1.5c1.1,1.5,1.7,3.3,1.6,5.2
	C188.8,235.2,186.7,238.1,183.1,239z"/>
<path d="M232.3,253.6c0,11.4-8.8,19.8-20.7,19.8s-20.7-8.4-20.7-19.8c0-11.4,8.9-19.8,21-19.8c4.3,0,7.4,0.8,10.3,0.8
	c3.1,0,4.9-1.3,4.9-3.8c0-1.2-0.4-2.4-1.1-3.4l4.2-1.5c1.1,1.5,1.7,3.3,1.6,5.2c0,4-2.3,6.7-6.4,7.5
	C229.8,242.2,232.4,247.8,232.3,253.6z M225.1,253.6c0-7.5-6.1-13.5-13.5-13.5s-13.5,6.1-13.5,13.5s6.1,13.5,13.5,13.5l0,0
	c7.3,0.2,13.3-5.5,13.5-12.8C225.1,254.1,225.1,253.8,225.1,253.6z M205.4,230.9h-3.7c0.1-4.5,2.4-7.4,5.9-7.4s5.5,3.6,7.5,3.6
	c1.5,0,2.6-1.2,2.7-3.1h3.7c-0.1,4.3-2.4,7.2-5.9,7.2s-5.5-3.6-7.5-3.6C206.5,227.6,205.5,228.8,205.4,230.9z"/>
<path d="M274.1,234.3v38.5h-5.9L247,246.8v26.1h-7.1v-38.5h5.9l21.2,26.1v-26.1H274.1z"/>
<path d="M310.8,253.1h6.8v15.4c-4.3,3.3-9.6,5-15.1,4.9c-11.9,0-20.7-8.3-20.7-19.8c0-11.5,8.8-19.8,20.8-19.8
	c6.4,0,11.8,2.1,15.4,6.3l-4.5,4.4c-2.8-2.9-6.6-4.5-10.6-4.4c-8.2,0-14,5.6-14,13.5c0,7.8,5.8,13.5,13.9,13.5
	c2.8,0.1,5.5-0.6,7.9-2L310.8,253.1z"/>
<path d="M349.9,240.4h-12.8v-6h32.7v6h-12.8v32.4h-7.1V240.4z"/>
<path d="M409.4,234.3v38.5h-7.1v-16.5h-19.9v16.5h-7.1v-38.5h7.1v15.9h19.9v-15.9H409.4z"/>
<path d="M448.6,266.9v6h-28.9v-38.6h28.1v6h-21v10h18.6v5.9h-18.5v10.7H448.6z M429.1,231.2h-5.7l7.4-5.9h6.2l7.4,5.9h-5.7l-4.8-3
	L429.1,231.2z M438.8,221.9l-1.2-2.3c1.3-0.8,2.7-1.2,4.2-1.1c2.9,0,4.6,1.6,4.6,4.1c-0.1,2.2-1.6,4-3.6,4.7l-1.8-1.9
	c1.5-0.7,2.1-1.6,2.1-2.4c0-1-0.8-1.7-1.8-1.7c-0.1,0-0.1,0-0.2,0C440.3,221.2,439.5,221.5,438.8,221.9z"/>
<path d="M469,253.6c0-11.5,8.8-19.8,20.6-19.8c6.3,0,11.7,2.2,15.2,6.4l-4.6,4.3c-2.6-2.9-6.4-4.6-10.3-4.5c-8,0-13.8,5.6-13.8,13.5
	s5.8,13.5,13.8,13.5c3.9,0.1,7.7-1.6,10.3-4.6l4.6,4.4c-3.6,4.2-9,6.4-15.3,6.4C477.9,273.4,469,265.1,469,253.6z"/>
<path d="M535.9,263.9h-19.2l-3.8,8.9h-7.4l17.3-38.5h7l17.4,38.5h-7.5L535.9,263.9z M533.6,258.3l-7.3-16.8l-7.2,16.8L533.6,258.3z"
	/>
<path d="M558,240.4h-12.7v-6H578v6h-12.8v32.4H558V240.4z"/>
<path d="M617.5,234.3v38.5h-7.1v-16.5h-19.9v16.5h-7.2v-38.5h7.2v15.9h19.9v-15.9H617.5z"/>
<path d="M644.5,259.3v13.6h-7.2v-13.5l-15.1-25h7.6l11.3,18.7l11.4-18.8h7L644.5,259.3z"/>
<path d="M679.4,234.3h16.8c12.5,0,21,7.7,21,19.2s-8.5,19.2-21,19.2h-16.8V234.3z M695.9,266.8c8.6,0,14.1-5.2,14.1-13.2
	c0-8-5.6-13.2-14.1-13.2h-9.3v26.4H695.9z"/>
<path d="M722.1,253.6c0-11.4,8.8-19.8,20.7-19.8s20.7,8.4,20.7,19.8s-8.8,19.8-20.7,19.8S722.1,265,722.1,253.6z M756.4,253.6
	c0-7.5-6.1-13.5-13.5-13.5c-7.5,0-13.5,6.1-13.5,13.5s6.1,13.5,13.5,13.5c7.2,0.2,13.3-5.5,13.5-12.7
	C756.4,254.1,756.4,253.9,756.4,253.6z"/>
<path d="M771.2,234.3h7.2v32.4h20.1v6h-27.3V234.3z"/>
<path d="M804.1,234.3h7.2v32.4h20.1v6h-27.3V234.3z"/>
<path d="M129.4,338.8l-7.9-11.3c-0.5,0-1,0.1-1.5,0h-8.7v11.2h-7.2v-38.5h15.8c10.1,0,16.4,5.2,16.4,13.7c0.2,5.4-3.1,10.3-8.2,12.1
	l8.9,12.6H129.4z M119.7,306.4h-8.4v15.3h8.4c6.3,0,9.5-2.9,9.5-7.7S126,306.4,119.7,306.4z"/>
<path d="M173.3,332.9v6h-28.9v-38.5h28.1v6h-21v10h18.6v5.9h-18.5v10.7H173.3z"/>
<path d="M206.3,329.9H187l-3.8,8.9h-7.4l17.3-38.5h7l17.4,38.5h-7.5L206.3,329.9z M203.9,324.3l-7.3-16.8l-7.2,16.8H203.9z"/>
<path d="M222.5,300.3h16.8c12.5,0,21,7.7,21,19.2s-8.5,19.2-21,19.2h-16.8V300.3z M239,332.8c8.6,0,14.1-5.2,14.1-13.2
	c0-8-5.6-13.2-14.1-13.2h-9.4v26.4H239z"/>
<path d="M282.9,325.3v13.6h-7.1v-13.5l-15.1-25h7.6l11.3,18.8l11.4-18.8h7L282.9,325.3z"/>
<path d="M342.9,332.8v6h-28.4v-4.8l15.3-14.5c3.7-3.6,4.4-5.8,4.4-8c0-3.5-2.4-5.6-7.1-5.6c-3.5-0.2-6.8,1.3-9,4l-5-3.9
	c3-4,8.3-6.4,14.6-6.4c8.4,0,13.8,4.2,13.8,11c0,3.7-1,7.1-6.4,12.1l-10.3,9.8L342.9,332.8z"/>
<path d="M421.2,300.3l-12.8,38.5h-7.6l-9.5-28.5l-9.7,28.5h-7.6l-12.8-38.5h7.4l9.6,29.2l10-29.2h6.6l9.7,29.4l9.8-29.4H421.2z"/>
<path d="M461.3,300.3v38.5h-7.1v-16.5h-19.9v16.5h-7.1v-38.5h7.1v15.9h19.9v-15.9H461.3z"/>
<path d="M471.6,300.3h7.1v38.5h-7.1V300.3z"/>
<path d="M497,306.4h-12.8v-6h32.7v6h-12.8v32.4H497V306.4z"/>
<path d="M551.2,332.9v6h-28.9v-38.5h28.1v6h-20.9v10H548v5.9h-18.6v10.7H551.2z"/>
<path d="M630.6,300.3l-12.8,38.5h-7.6l-9.5-28.5l-9.7,28.5h-7.6l-12.8-38.5h7.4l9.6,29.2l10-29.2h6.6l9.7,29.4l9.8-29.4H630.6z"/>
<path d="M670.6,300.3v38.5h-7.2v-16.5h-19.9v16.5h-7.2v-38.5h7.2v15.9h19.9v-15.9H670.6z"/>
<path d="M681,300.3h7.2v38.5H681V300.3z"/>
<path d="M706.3,306.4h-12.8v-6h32.7v6h-12.8v32.4h-7.2L706.3,306.4z"/>
<path d="M760.5,332.9v6h-28.9v-38.5h28.1v6h-21v10h18.6v5.9h-18.5v10.7H760.5z"/>
<path d="M802.7,300.3v38.5h-5.9l-21.2-26.1v26.1h-7.1v-38.5h5.9l21.2,26.1v-26.1H802.7z"/>
<path d="M841.9,332.9v6H813v-38.5h28.1v6h-21v10h18.6v5.9h-18.5v10.7H841.9z"/>
<path d="M875.1,338.8l-7.9-11.3c-0.5,0-1,0.1-1.5,0H857v11.2h-7.2v-38.5h15.8c10.1,0,16.4,5.2,16.4,13.7c0.2,5.4-3.1,10.3-8.2,12.1
	l8.9,12.6H875.1z M865.4,306.4H857v15.3h8.4c6.3,0,9.5-2.9,9.5-7.7S871.7,306.4,865.4,306.4z"/>
<path d="M138.4,394.4c0,6.6-5.2,10.4-15.1,10.4h-19.1v-38.5h18c9.2,0,14.2,3.9,14.2,10c0.1,3.5-1.8,6.8-4.9,8.5
	C135.8,386,138.6,390,138.4,394.4z M111.4,372v10.6h10.1c4.9,0,7.8-1.8,7.8-5.3c0-3.5-2.8-5.3-7.8-5.3H111.4z M131.2,393.7
	c0-3.9-2.9-5.6-8.3-5.6h-11.6v11.1h11.6C128.3,399.2,131.2,397.5,131.2,393.7z"/>
<path d="M143.4,385.6c0-11.4,8.8-19.8,20.7-19.8s20.7,8.4,20.7,19.8c0,11.4-8.8,19.8-20.7,19.8S143.4,397,143.4,385.6z M177.6,385.6
	c0-7.5-6.1-13.5-13.5-13.5s-13.5,6.1-13.5,13.5s6.1,13.5,13.5,13.5l0,0c7.2,0.2,13.3-5.5,13.5-12.7
	C177.6,386.1,177.6,385.9,177.6,385.6z"/>
<path d="M192.4,366.3h16.8c12.5,0,21,7.7,21,19.2s-8.5,19.2-21,19.2h-16.8V366.3z M208.9,398.8c8.6,0,14.1-5.2,14.1-13.2
	c0-8-5.6-13.2-14.1-13.2h-9.4v26.4H208.9z"/>
<path d="M252.8,391.3v13.6h-7.1v-13.5l-15.1-25h7.6l11.3,18.8l11.4-18.8h7L252.8,391.3z"/>
<path d="M287.7,366.3h7.1v32.4H315v6h-27.3V366.3z"/>
<path d="M317.2,385.6c0-11.4,8.8-19.8,20.7-19.8s20.7,8.4,20.7,19.8c0,11.4-8.8,19.8-20.7,19.8S317.2,397,317.2,385.6z M351.5,385.6
	c0-7.5-6.1-13.5-13.5-13.5s-13.5,6.1-13.5,13.5s6.1,13.5,13.5,13.5l0,0c7.2,0.2,13.3-5.4,13.5-12.7
	C351.5,386.2,351.5,385.9,351.5,385.6L351.5,385.6z"/>
<path d="M373.5,372.4h-12.8v-6h32.7v6h-12.8v32.4h-7.1L373.5,372.4z"/>
<path d="M398.8,366.3h7.2v38.5h-7.1L398.8,366.3z"/>
<path d="M413.6,385.6c0-11.4,8.8-19.8,20.7-19.8s20.7,8.4,20.7,19.8c0,11.4-8.8,19.8-20.7,19.8S413.6,397,413.6,385.6z M447.9,385.6
	c0-7.5-6.1-13.5-13.5-13.5s-13.5,6.1-13.5,13.5s6.1,13.5,13.5,13.5l0,0c7.2,0.2,13.3-5.5,13.5-12.7
	C447.9,386.1,447.9,385.9,447.9,385.6z"/>
<path d="M496.9,366.3v38.5H491l-21.2-26.1v26.1h-7.1v-38.5h5.9l21.2,26.1v-26.1H496.9z"/>
<path d="M533,366.3v38.5h-7.2v-32.5h-8.1v-6L533,366.3z"/>
<path d="M568.6,393c0,6.8-4.9,12.4-15.2,12.4c-5.5,0-11-1.6-14.5-4.4l3-5.6c3.2,2.5,7.2,3.8,11.3,3.8c5.1,0,8.1-2.3,8.1-5.9
	s-2.4-6-10.3-6h-9.3l2-21h22.6v6h-16.5l-0.8,8.9h3.7C564,381.2,568.6,386.2,568.6,393z"/>
<path d="M572.7,385.6c0-12.6,6.9-19.8,16.1-19.8s16.1,7.1,16.1,19.8s-6.9,19.8-16.1,19.8S572.7,398.2,572.7,385.6z M597.7,385.6
	c0-9.3-3.6-13.6-8.9-13.6s-8.9,4.3-8.9,13.6s3.6,13.6,8.9,13.6S597.7,394.9,597.7,385.6L597.7,385.6z"/>
<path d="M647.8,404.8l0-25.5l-12.7,21.1H632l-12.7-20.8v25.2h-6.8v-38.5h5.9l15.2,25.5l15-25.5h5.9l0.1,38.5L647.8,404.8z"/>
<path d="M665,366.3h7.2v32.4h20.1v6H665V366.3z"/>
<g id="_Rectangle_">
	<rect x="96.2" y="54.1" class="st0" width="383" height="113.1"/>
</g>
<g>
	<path class="st1" d="M131.9,131.5v-9.2l18.2-16.4c1.1-1.1,2.1-2.2,2.8-3.4c0.7-1.1,1.1-2.4,1.1-3.8c0-1.7-0.5-3-1.6-4
		c-1.1-1-2.5-1.5-4.2-1.5c-1.8,0-3.4,0.6-4.5,1.9c-1.2,1.3-1.9,3-2.1,5.1l-10.6-1.4c0.3-2.4,0.9-4.5,1.9-6.3c1-1.9,2.3-3.4,3.9-4.7
		c1.6-1.3,3.4-2.3,5.4-3c2-0.7,4.2-1,6.5-1c2.2,0,4.2,0.3,6.3,0.9c2,0.6,3.8,1.4,5.4,2.6c1.6,1.2,2.8,2.7,3.8,4.5
		c0.9,1.8,1.4,3.9,1.4,6.3c0,1.7-0.2,3.2-0.7,4.5c-0.4,1.3-1,2.6-1.8,3.7c-0.8,1.1-1.6,2.2-2.6,3.2c-1,1-2,2-3.1,2.9l-10.8,9.6h19
		v9.6H131.9z"/>
	<path class="st1" d="M208.4,117.9c0,2.5-0.5,4.7-1.5,6.6c-1,1.9-2.4,3.4-4.1,4.6c-1.7,1.2-3.5,2.1-5.6,2.7
		c-2.1,0.6-4.2,0.9-6.4,0.9c-2.1,0-4.2-0.2-6.2-0.7c-2-0.5-3.8-1.2-5.5-2.2c-1.6-1-3.1-2.3-4.3-3.8c-1.2-1.6-2.2-3.4-2.8-5.6
		l10.3-2.7c0.4,1.5,1.3,2.9,2.7,4.1c1.4,1.2,3.1,1.7,5.2,1.7c0.8,0,1.6-0.1,2.4-0.3c0.8-0.2,1.5-0.6,2.2-1c0.6-0.5,1.2-1.1,1.6-1.8
		c0.4-0.7,0.6-1.7,0.6-2.8c0-1.2-0.3-2.2-0.8-3c-0.5-0.8-1.3-1.4-2.2-1.9c-0.9-0.5-1.9-0.8-3.1-1c-1.1-0.2-2.3-0.3-3.4-0.3h-3v-8
		h3.2c1.1,0,2.1-0.1,3-0.2c1-0.2,1.8-0.4,2.6-0.9c0.8-0.4,1.4-1,1.8-1.7c0.5-0.7,0.7-1.6,0.7-2.8c0-1.7-0.6-3-1.8-3.8
		c-1.2-0.9-2.5-1.3-4.1-1.3c-1.6,0-3,0.5-4.1,1.4c-1.2,0.9-1.9,2.2-2.3,3.8l-10.3-2.4c0.6-2,1.4-3.7,2.6-5.2
		c1.1-1.5,2.5-2.7,4.1-3.7c1.6-1,3.3-1.7,5.1-2.2c1.8-0.5,3.7-0.8,5.7-0.8c2.1,0,4.1,0.3,6,0.8c2,0.5,3.7,1.3,5.2,2.4
		c1.5,1.1,2.8,2.5,3.7,4.1c0.9,1.6,1.4,3.6,1.4,5.8c0,2.6-0.7,4.8-2.2,6.6c-1.5,1.8-3.4,3-5.6,3.6v0.2c1.3,0.3,2.5,0.8,3.6,1.5
		c1.1,0.7,2,1.5,2.8,2.4c0.8,0.9,1.4,2,1.8,3.2C208.1,115.4,208.4,116.6,208.4,117.9z"/>
	<path class="st1" d="M252.1,100.2c0,2.8-0.5,5.3-1.4,7.5c-1,2.3-2.2,4.6-3.8,6.9l-11.3,16.8h-13.4l11.6-16.1l0.1-0.2
		c-0.5,0.2-1,0.3-1.6,0.4c-0.6,0.1-1.2,0.1-1.7,0.1c-2.1,0-4-0.4-5.9-1.1c-1.8-0.7-3.5-1.8-4.9-3.1c-1.4-1.3-2.5-2.9-3.4-4.8
		c-0.8-1.9-1.2-3.9-1.2-6.2c0-2.6,0.5-5,1.4-7.1c1-2.1,2.3-3.9,3.9-5.3c1.7-1.4,3.6-2.6,5.9-3.3c2.2-0.8,4.6-1.2,7.1-1.2
		c2.5,0,4.9,0.4,7.2,1.2c2.2,0.8,4.2,1.9,5.8,3.3c1.6,1.4,2.9,3.2,3.9,5.3C251.6,95.4,252.1,97.7,252.1,100.2z M241.1,100.1
		c0-2-0.7-3.8-2-5.2c-1.3-1.5-3.1-2.2-5.3-2.2s-4,0.7-5.4,2.1c-1.3,1.4-2,3.2-2,5.4c0,2.1,0.7,3.9,2,5.2s3.1,2.1,5.3,2.1
		c2.2,0,4-0.7,5.4-2C240.4,104.1,241.1,102.3,241.1,100.1z"/>
	<path class="st1" d="M265.3,139.6h-8.9l4.9-18.7h10.3L265.3,139.6z"/>
	<path class="st1" d="M314.4,108c0,3.3-0.3,6.4-1,9.4c-0.7,3-1.7,5.6-3.2,7.9c-1.4,2.3-3.3,4.1-5.6,5.4c-2.3,1.3-5.1,2-8.4,2
		s-6.1-0.7-8.4-2c-2.3-1.3-4.2-3.1-5.7-5.4c-1.5-2.3-2.5-4.9-3.2-7.9c-0.7-3-1-6.1-1-9.4s0.3-6.4,1-9.4c0.7-3,1.7-5.6,3.2-7.8
		c1.5-2.2,3.4-4,5.7-5.3c2.3-1.3,5.1-2,8.4-2s6.1,0.7,8.4,2c2.3,1.3,4.2,3.1,5.6,5.3c1.4,2.2,2.5,4.8,3.2,7.8
		C314,101.6,314.4,104.7,314.4,108z M303,108c0-1.4-0.1-3.1-0.3-4.8c-0.2-1.8-0.5-3.4-1-4.9c-0.5-1.5-1.2-2.8-2.1-3.8
		c-0.9-1-2.1-1.5-3.5-1.5s-2.6,0.5-3.6,1.5c-0.9,1-1.6,2.3-2.1,3.8c-0.5,1.5-0.8,3.2-1,4.9c-0.2,1.8-0.3,3.4-0.3,4.8
		c0,1.5,0.1,3.1,0.3,4.9c0.2,1.8,0.5,3.4,1,4.9c0.5,1.5,1.2,2.8,2.1,3.8c0.9,1,2.1,1.5,3.6,1.5s2.6-0.5,3.5-1.5
		c0.9-1,1.6-2.3,2.1-3.8c0.5-1.5,0.8-3.2,1-4.9C302.9,111.1,303,109.5,303,108z"/>
	<path class="st1" d="M356.9,108c0,3.3-0.3,6.4-1,9.4c-0.7,3-1.7,5.6-3.2,7.9c-1.4,2.3-3.3,4.1-5.6,5.4c-2.3,1.3-5.1,2-8.4,2
		s-6.1-0.7-8.4-2c-2.3-1.3-4.2-3.1-5.7-5.4c-1.5-2.3-2.5-4.9-3.2-7.9c-0.7-3-1-6.1-1-9.4s0.3-6.4,1-9.4c0.7-3,1.7-5.6,3.2-7.8
		c1.5-2.2,3.4-4,5.7-5.3c2.3-1.3,5.1-2,8.4-2s6.1,0.7,8.4,2c2.3,1.3,4.2,3.1,5.6,5.3c1.4,2.2,2.5,4.8,3.2,7.8
		C356.6,101.6,356.9,104.7,356.9,108z M345.6,108c0-1.4-0.1-3.1-0.3-4.8c-0.2-1.8-0.5-3.4-1-4.9c-0.5-1.5-1.2-2.8-2.1-3.8
		c-0.9-1-2.1-1.5-3.5-1.5s-2.6,0.5-3.6,1.5c-0.9,1-1.6,2.3-2.1,3.8c-0.5,1.5-0.8,3.2-1,4.9c-0.2,1.8-0.3,3.4-0.3,4.8
		c0,1.5,0.1,3.1,0.3,4.9c0.2,1.8,0.5,3.4,1,4.9c0.5,1.5,1.2,2.8,2.1,3.8c0.9,1,2.1,1.5,3.6,1.5s2.6-0.5,3.5-1.5
		c0.9-1,1.6-2.3,2.1-3.8c0.5-1.5,0.8-3.2,1-4.9C345.5,111.1,345.6,109.5,345.6,108z"/>
	<path class="st1" d="M399.5,108c0,3.3-0.3,6.4-1,9.4c-0.7,3-1.7,5.6-3.2,7.9c-1.4,2.3-3.3,4.1-5.6,5.4c-2.3,1.3-5.1,2-8.4,2
		s-6.1-0.7-8.4-2c-2.3-1.3-4.2-3.1-5.7-5.4c-1.5-2.3-2.5-4.9-3.2-7.9c-0.7-3-1-6.1-1-9.4s0.3-6.4,1-9.4c0.7-3,1.7-5.6,3.2-7.8
		c1.5-2.2,3.4-4,5.7-5.3c2.3-1.3,5.1-2,8.4-2s6.1,0.7,8.4,2c2.3,1.3,4.2,3.1,5.6,5.3c1.4,2.2,2.5,4.8,3.2,7.8
		C399.2,101.6,399.5,104.7,399.5,108z M388.2,108c0-1.4-0.1-3.1-0.3-4.8c-0.2-1.8-0.5-3.4-1-4.9c-0.5-1.5-1.2-2.8-2.1-3.8
		c-0.9-1-2.1-1.5-3.5-1.5s-2.6,0.5-3.6,1.5c-0.9,1-1.6,2.3-2.1,3.8c-0.5,1.5-0.8,3.2-1,4.9c-0.2,1.8-0.3,3.4-0.3,4.8
		c0,1.5,0.1,3.1,0.3,4.9c0.2,1.8,0.5,3.4,1,4.9c0.5,1.5,1.2,2.8,2.1,3.8c0.9,1,2.1,1.5,3.6,1.5s2.6-0.5,3.5-1.5
		c0.9-1,1.6-2.3,2.1-3.8c0.5-1.5,0.8-3.2,1-4.9C388.1,111.1,388.2,109.5,388.2,108z"/>
	<path class="st1" d="M431.6,131.5v-4.3h-0.1c-1.1,1.7-2.6,3-4.5,3.9c-2,0.9-4,1.4-6.2,1.4c-2.5,0-4.7-0.5-6.6-1.4
		c-1.9-1-3.6-2.2-4.9-3.9c-1.3-1.6-2.4-3.5-3.1-5.6c-0.7-2.1-1.1-4.3-1.1-6.6c0-2.3,0.4-4.5,1.1-6.6c0.7-2.1,1.8-3.9,3.1-5.5
		c1.3-1.6,3-2.8,4.9-3.8c1.9-0.9,4.1-1.4,6.4-1.4c2.4,0,4.5,0.5,6.1,1.4c1.7,0.9,3,1.9,3.9,3h0.1v-8.2h-9.8V88h9.8v-6.4h10.8V88h3
		v5.9h-3v37.6H431.6z M431.2,115c0-1.1-0.2-2.1-0.6-3.1c-0.4-1-0.9-1.9-1.6-2.7c-0.7-0.8-1.5-1.4-2.5-1.9c-1-0.5-2.1-0.7-3.3-0.7
		c-1.3,0-2.4,0.2-3.4,0.7c-1,0.5-1.8,1.1-2.4,1.9c-0.7,0.8-1.2,1.7-1.5,2.7c-0.3,1-0.5,2-0.5,3.1s0.2,2.1,0.5,3.1
		c0.3,1,0.8,1.9,1.5,2.7s1.5,1.4,2.4,1.9c1,0.5,2.1,0.7,3.4,0.7c1.2,0,2.3-0.2,3.3-0.7c1-0.5,1.8-1.1,2.5-1.9
		c0.7-0.8,1.2-1.7,1.6-2.7C431,117.1,431.2,116,431.2,115z"/>
</g>
</svg>
