<svg id="Layer_1" data-name="Layer 1" xmlns="http://www.w3.org/2000/svg" viewBox="0 0 996 358.02"><defs><style>.cls-1{fill:#c90202;}.cls-2{fill:#fff;}</style></defs><title>Image convert 4 (chăm sóc da mặt và tẩy trang) text fix</title><path d="M49.28,188.27H56.8l14.8,23.85h.09V188.27h5.67v31.86h-7.2L55,195.52H55v24.61H49.28Z"/><path d="M109.76,208.43a13.1,13.1,0,0,1-1,5.2,11.61,11.61,0,0,1-2.7,3.94,12,12,0,0,1-4,2.5,15.3,15.3,0,0,1-10.17,0,12.15,12.15,0,0,1-4.07-2.5,11.08,11.08,0,0,1-2.7-3.94,13.28,13.28,0,0,1-1-5.2V188.27h5.67v19.94a10.91,10.91,0,0,0,.36,2.77,6.9,6.9,0,0,0,1.19,2.45,6.16,6.16,0,0,0,2.21,1.75,8.82,8.82,0,0,0,6.79,0,6.16,6.16,0,0,0,2.21-1.75,6.9,6.9,0,0,0,1.19-2.45,10.91,10.91,0,0,0,.36-2.77V188.27h3.2a3.54,3.54,0,0,0,2.81-.92,3.89,3.89,0,0,0,.79-2.59,5.82,5.82,0,0,0-.2-1.46,4.56,4.56,0,0,0-.57-1.28l4.64-1.17a7.16,7.16,0,0,1,.63,1.82,11,11,0,0,1,.18,2.09,6.51,6.51,0,0,1-1.55,4.73,6,6,0,0,1-4.26,1.66Z"/><path d="M151.52,186.38a6.51,6.51,0,0,1-1.55,4.68,6.09,6.09,0,0,1-4.39,1.71,15.92,15.92,0,0,1,3,5,17.68,17.68,0,0,1,1.08,6.34,17.45,17.45,0,0,1-1.29,6.82,15.53,15.53,0,0,1-3.57,5.31,16.28,16.28,0,0,1-5.45,3.47,18.74,18.74,0,0,1-6.88,1.23,18.46,18.46,0,0,1-6.82-1.23,16,16,0,0,1-5.4-3.47,15.8,15.8,0,0,1-3.56-5.31,17.63,17.63,0,0,1-1.28-6.82,17.9,17.9,0,0,1,1.28-6.9,15.16,15.16,0,0,1,3.56-5.25,15.8,15.8,0,0,1,5.4-3.33,19.3,19.3,0,0,1,6.82-1.17,19,19,0,0,1,4,.36,25,25,0,0,1,2.86.81l2.16.81a5.07,5.07,0,0,0,1.89.36,3.41,3.41,0,0,0,2.68-.87,3.9,3.9,0,0,0,.74-2.55,5.82,5.82,0,0,0-.2-1.46,4.55,4.55,0,0,0-.56-1.28l4.63-1.17a7.16,7.16,0,0,1,.63,1.82A11,11,0,0,1,151.52,186.38ZM121.6,204.11a13.69,13.69,0,0,0,.78,4.71,11.15,11.15,0,0,0,2.25,3.71A10.28,10.28,0,0,0,128.1,215a10.82,10.82,0,0,0,4.43.88A11,11,0,0,0,137,215a10.12,10.12,0,0,0,3.48-2.45,10.83,10.83,0,0,0,2.25-3.71,13.46,13.46,0,0,0,.79-4.71,13,13,0,0,0-.79-4.59,11.19,11.19,0,0,0-2.22-3.69,10.45,10.45,0,0,0-3.47-2.47,11,11,0,0,0-4.5-.9,10.83,10.83,0,0,0-4.48.9,10.54,10.54,0,0,0-3.44,2.47,11.39,11.39,0,0,0-2.23,3.69A13.25,13.25,0,0,0,121.6,204.11Zm12.46-24.84h6.12l-6.34,6.48h-4.23Z"/><path d="M178.16,195.74a7.2,7.2,0,0,0-3.28-2.49,10.78,10.78,0,0,0-4-.79,11,11,0,0,0-4.5.9,10.64,10.64,0,0,0-3.49,2.47,10.94,10.94,0,0,0-2.25,3.69,13,13,0,0,0-.79,4.59,14.2,14.2,0,0,0,.77,4.77,10.91,10.91,0,0,0,2.18,3.72,9.69,9.69,0,0,0,3.4,2.4,11.11,11.11,0,0,0,4.45.86,9.93,9.93,0,0,0,4.55-1,8.92,8.92,0,0,0,3.19-2.68l4.55,3.19a14.42,14.42,0,0,1-5.18,4.12,16.33,16.33,0,0,1-7.15,1.46,18.65,18.65,0,0,1-6.87-1.23,15.84,15.84,0,0,1-5.37-3.47,15.68,15.68,0,0,1-3.51-5.31,17.82,17.82,0,0,1-1.26-6.82,17.36,17.36,0,0,1,1.32-6.9,15.38,15.38,0,0,1,3.65-5.25,16.3,16.3,0,0,1,5.47-3.33,19.49,19.49,0,0,1,6.84-1.17,18,18,0,0,1,3.19.3,15.64,15.64,0,0,1,3.2.9,15.14,15.14,0,0,1,2.88,1.5,9.63,9.63,0,0,1,2.29,2.16Z"/><path d="M220.73,195.74a7.2,7.2,0,0,0-3.28-2.49,10.78,10.78,0,0,0-4-.79,11,11,0,0,0-4.5.9,10.64,10.64,0,0,0-3.49,2.47,10.94,10.94,0,0,0-2.25,3.69,13,13,0,0,0-.79,4.59,14.2,14.2,0,0,0,.77,4.77,10.75,10.75,0,0,0,2.18,3.72,9.69,9.69,0,0,0,3.4,2.4,11.11,11.11,0,0,0,4.45.86,9.93,9.93,0,0,0,4.55-1,8.92,8.92,0,0,0,3.19-2.68l4.55,3.19a14.42,14.42,0,0,1-5.18,4.12,16.33,16.33,0,0,1-7.15,1.46,18.65,18.65,0,0,1-6.87-1.23,15.84,15.84,0,0,1-5.37-3.47,15.68,15.68,0,0,1-3.51-5.31,17.82,17.82,0,0,1-1.26-6.82,17.19,17.19,0,0,1,1.33-6.9,15.22,15.22,0,0,1,3.64-5.25,16.3,16.3,0,0,1,5.47-3.33,19.49,19.49,0,0,1,6.84-1.17,18,18,0,0,1,3.19.3,15.64,15.64,0,0,1,3.2.9,15.14,15.14,0,0,1,2.88,1.5,9.63,9.63,0,0,1,2.29,2.16Z"/><path d="M238.51,188.27h4.9l13.73,31.86h-6.48l-3-7.29H233.87L231,220.13h-6.34Zm5.53-2.52-3.1-4.05-3.11,4.05h-5l5.18-6.48H244l5.13,6.48ZM245.71,208l-4.91-13-5,13Z"/><path d="M260.29,188.27h7.51l14.81,23.85h.09V188.27h5.67v31.86h-7.2l-15.12-24.61H266v24.61h-5.67Z"/><path d="M306.64,188.27h12.42a15.19,15.19,0,0,1,3.55.43,9.18,9.18,0,0,1,3.13,1.4,7.54,7.54,0,0,1,2.23,2.49,7.46,7.46,0,0,1,.85,3.69,6.55,6.55,0,0,1-1.53,4.46,8.49,8.49,0,0,1-4,2.52v.09a8.35,8.35,0,0,1,4.95,2.34,7,7,0,0,1,1.93,5.17,8.59,8.59,0,0,1-1,4.39,8.29,8.29,0,0,1-2.72,2.86,11.65,11.65,0,0,1-3.88,1.55,20.51,20.51,0,0,1-4.43.47H306.64Zm5.67,13h5a7.07,7.07,0,0,0,4.32-1.12,3.76,3.76,0,0,0,1.48-3.2,3.27,3.27,0,0,0-1.53-3.06,9.73,9.73,0,0,0-4.77-.9h-4.54Zm0,14.13h5.08a19.88,19.88,0,0,0,2.34-.15,7.6,7.6,0,0,0,2.32-.66,4.53,4.53,0,0,0,1.75-1.44,4.1,4.1,0,0,0,.7-2.52,3.72,3.72,0,0,0-1.71-3.51,10.7,10.7,0,0,0-5.17-1h-5.31Z"/><path d="M345.74,188.27h4.91l13.72,31.86h-6.48l-3-7.29H341.11l-2.88,7.29h-6.35ZM343.58,180a3,3,0,0,0,1.62,2.34,6.74,6.74,0,0,0,3,.63,7.17,7.17,0,0,0,3.06-.54A3.46,3.46,0,0,0,352.9,180h3a6.79,6.79,0,0,1-2.41,4.91,8.44,8.44,0,0,1-5.29,1.57,8.58,8.58,0,0,1-5.31-1.55,6.31,6.31,0,0,1-2.29-4.93Zm7.43.54h-3.87l-4.82-5.62h5.76ZM352.94,208,348,195l-5,13Z"/><path d="M367.52,188.27H375l14.8,23.85h.09V188.27h5.67v31.86h-7.2l-15.12-24.61h-.09v24.61h-5.67Z"/><path d="M430.52,218.47a24.58,24.58,0,0,1-5.33,1.82,30.37,30.37,0,0,1-6.68.65,19.54,19.54,0,0,1-7.07-1.23,16.17,16.17,0,0,1-5.49-3.47,15.7,15.7,0,0,1-3.58-5.31,17.63,17.63,0,0,1-1.28-6.82,17.19,17.19,0,0,1,1.33-6.9,15.35,15.35,0,0,1,3.64-5.25,16.4,16.4,0,0,1,5.47-3.33,19.49,19.49,0,0,1,6.84-1.17,21.1,21.1,0,0,1,7,1.11,14.25,14.25,0,0,1,5.11,2.9l-3.92,4.23a9.62,9.62,0,0,0-3.4-2.3,11.76,11.76,0,0,0-4.74-.94,11.23,11.23,0,0,0-4.57.9,10.33,10.33,0,0,0-3.49,2.47,11.39,11.39,0,0,0-2.23,3.69,13.25,13.25,0,0,0-.78,4.59,13.69,13.69,0,0,0,.78,4.71,11.15,11.15,0,0,0,2.25,3.71,10.07,10.07,0,0,0,3.56,2.45,12.08,12.08,0,0,0,4.75.88,16.39,16.39,0,0,0,6.34-1.13v-8.1h-6.7V202h12.19Z"/><path d="M448.66,188.27h5.67V202h.13l13.32-13.77h7.65L460.54,203l15.88,17.14h-8l-14-16h-.13v16h-5.67Z"/><path d="M479.66,188.27h21.11v4.95H485.33v8.1H500v4.77H485.33v9h16.25v5H479.66Zm13.82-2.07-3.11-4-3.1,4h-5l5.17-6.48h6.08l5.13,6.48Zm5.4-11.47h5.94l-5.31,6.21h-3.87Z"/><path d="M513.54,193.22h-9.76v-4.95H529v4.95h-9.76v26.91h-5.68Z"/><path d="M542.84,188.27h5.67v12.87h14.9V188.27h5.67v31.86h-5.67V206h-14.9v14.13h-5.67Z"/><path d="M610.65,186.38a6.46,6.46,0,0,1-1.55,4.68,6.07,6.07,0,0,1-4.39,1.71,15.92,15.92,0,0,1,3,5,19,19,0,0,1-.2,13.16,15.7,15.7,0,0,1-3.58,5.31,16.28,16.28,0,0,1-5.45,3.47,18.74,18.74,0,0,1-6.88,1.23,18.5,18.5,0,0,1-6.82-1.23,16.16,16.16,0,0,1-5.4-3.47,15.77,15.77,0,0,1-3.55-5.31,17.45,17.45,0,0,1-1.29-6.82,17.71,17.71,0,0,1,1.29-6.9A15.14,15.14,0,0,1,579.4,192a16,16,0,0,1,5.4-3.33,21.24,21.24,0,0,1,10.85-.81,25.35,25.35,0,0,1,2.85.81l2.17.81a5,5,0,0,0,1.89.36,3.38,3.38,0,0,0,2.67-.87,3.84,3.84,0,0,0,.75-2.55,5.42,5.42,0,0,0-.21-1.46,4.28,4.28,0,0,0-.56-1.28l4.63-1.17a7.61,7.61,0,0,1,.64,1.82A11.94,11.94,0,0,1,610.65,186.38Zm-29.92,17.73a13.46,13.46,0,0,0,.79,4.71,10.83,10.83,0,0,0,2.25,3.71,10.24,10.24,0,0,0,3.46,2.45,10.86,10.86,0,0,0,4.44.88,11,11,0,0,0,4.45-.88,10.26,10.26,0,0,0,3.49-2.45,11.15,11.15,0,0,0,2.25-3.71,13.69,13.69,0,0,0,.79-4.71,13.25,13.25,0,0,0-.79-4.59,11.39,11.39,0,0,0-2.23-3.69,10.41,10.41,0,0,0-3.46-2.47,11,11,0,0,0-4.5-.9,10.77,10.77,0,0,0-4.48.9,10.33,10.33,0,0,0-3.44,2.47,11,11,0,0,0-2.23,3.69A13,13,0,0,0,580.73,204.11Zm7.74,22.64a3.08,3.08,0,0,1,1-2.27,3.29,3.29,0,0,1,2.45-1,3.61,3.61,0,0,1,2.5.92,3.17,3.17,0,0,1,0,4.64,3.61,3.61,0,0,1-2.5.92,3.29,3.29,0,0,1-2.45-1A3.08,3.08,0,0,1,588.47,226.75Z"/><path d="M614.3,188.27h10.39a22.81,22.81,0,0,1,5,.5,10.33,10.33,0,0,1,3.77,1.62,7.54,7.54,0,0,1,2.43,2.88,9.58,9.58,0,0,1,.86,4.23,9.1,9.1,0,0,1-1,4.45,8,8,0,0,1-2.68,2.91,11.81,11.81,0,0,1-3.94,1.59,21.54,21.54,0,0,1-4.77.5H620v13.18H614.3Zm9.63,13.91a17.28,17.28,0,0,0,2.65-.2,7.62,7.62,0,0,0,2.25-.72,4.17,4.17,0,0,0,1.58-1.42,4.23,4.23,0,0,0,.59-2.34,4,4,0,0,0-.59-2.27,4.13,4.13,0,0,0-1.55-1.38,7.05,7.05,0,0,0-2.21-.65,21,21,0,0,0-2.54-.16H620v9.14Z"/><path d="M658.35,193.22h-9.76v-4.95h25.2v4.95H664v26.91h-5.67Z"/><path d="M677.48,188.27h5.67v31.86h-5.67Z"/><path d="M690.17,188.27h7.51l14.81,23.85h.09V188.27h5.67v31.86h-7.2l-15.12-24.61h-.09v24.61h-5.67Z"/><path d="M725.27,188.27h5.67v12.87h14.89V188.27h5.67v31.86h-5.67V206H730.94v14.13h-5.67Z"/><path d="M792.77,195.74a7.22,7.22,0,0,0-3.29-2.49,10.78,10.78,0,0,0-4-.79,11,11,0,0,0-4.5.9,10.6,10.6,0,0,0-3.48,2.47,10.94,10.94,0,0,0-2.25,3.69,13,13,0,0,0-.79,4.59,14.21,14.21,0,0,0,.76,4.77,10.78,10.78,0,0,0,2.19,3.72,9.65,9.65,0,0,0,3.39,2.4,11.16,11.16,0,0,0,4.46.86,9.89,9.89,0,0,0,4.54-1,9,9,0,0,0,3.2-2.68l4.54,3.19a14.39,14.39,0,0,1-5.17,4.12,16.38,16.38,0,0,1-7.16,1.46,18.6,18.6,0,0,1-6.86-1.23,15.88,15.88,0,0,1-5.38-3.47,15.68,15.68,0,0,1-3.51-5.31,17.82,17.82,0,0,1-1.26-6.82,17.36,17.36,0,0,1,1.33-6.9,15.38,15.38,0,0,1,3.65-5.25,16.26,16.26,0,0,1,5.46-3.33,19.49,19.49,0,0,1,6.84-1.17,18.08,18.08,0,0,1,3.2.3,15.55,15.55,0,0,1,3.19.9,15.14,15.14,0,0,1,2.88,1.5,9.68,9.68,0,0,1,2.3,2.16Z"/><path d="M801.09,188.27h5.67v12.87h14.9V188.27h5.67v31.86h-5.67V206h-14.9v14.13h-5.67Z"/><path d="M844.34,188.27h4.9L863,220.13h-6.48l-3-7.29H839.7l-2.88,7.29h-6.34Zm5.53-2.07-3.1-4-3.11,4h-5l5.18-6.48h6.07L855,186.2ZM851.54,208l-4.91-13-5,13Zm3.73-33.25h5.94l-5.31,6.21H852Z"/><path d="M872.55,193.22h-9.76v-4.95H888v4.95h-9.77v26.91h-5.67Z"/><path d="M49.28,242.27h11.3a25,25,0,0,1,6.25.81,16.29,16.29,0,0,1,5.67,2.68,14,14,0,0,1,4.1,4.91,16.24,16.24,0,0,1,1.57,7.53,15.34,15.34,0,0,1-1.57,7.2,14.56,14.56,0,0,1-4.1,5,17,17,0,0,1-5.67,2.86,22,22,0,0,1-6.25.92H49.28Zm10.4,26.91a19.51,19.51,0,0,0,4.41-.51,11.53,11.53,0,0,0,4-1.76,9.33,9.33,0,0,0,2.9-3.35,11.35,11.35,0,0,0,1.13-5.36A12.09,12.09,0,0,0,71,252.62a9.07,9.07,0,0,0-2.9-3.37,10.84,10.84,0,0,0-4-1.67,22.76,22.76,0,0,0-4.41-.45H55v22.05Z"/><path d="M109,262.43a13.1,13.1,0,0,1-1,5.2,11.61,11.61,0,0,1-2.7,3.94,12,12,0,0,1-4,2.5,15.3,15.3,0,0,1-10.17,0,12.15,12.15,0,0,1-4.07-2.5,11.08,11.08,0,0,1-2.7-3.94,13.28,13.28,0,0,1-1-5.2V242.27h5.67v19.94a10.91,10.91,0,0,0,.36,2.77,6.9,6.9,0,0,0,1.19,2.45,6.16,6.16,0,0,0,2.21,1.75,8.82,8.82,0,0,0,6.79,0,6.16,6.16,0,0,0,2.21-1.75A6.9,6.9,0,0,0,103,265a10.91,10.91,0,0,0,.36-2.77V242.27h3.2a3.54,3.54,0,0,0,2.81-.92,3.89,3.89,0,0,0,.79-2.59,5.42,5.42,0,0,0-.21-1.46,4.28,4.28,0,0,0-.56-1.28l4.64-1.17a7.16,7.16,0,0,1,.63,1.82,11,11,0,0,1,.18,2.09,6.47,6.47,0,0,1-1.56,4.73,6,6,0,0,1-4.25,1.66Z"/><path d="M150.8,240.38a6.51,6.51,0,0,1-1.55,4.68,6.09,6.09,0,0,1-4.39,1.71,15.92,15.92,0,0,1,3,5,17.68,17.68,0,0,1,1.08,6.34,17.45,17.45,0,0,1-1.29,6.82,15.53,15.53,0,0,1-3.57,5.31,16.28,16.28,0,0,1-5.45,3.47,18.74,18.74,0,0,1-6.88,1.23,18.46,18.46,0,0,1-6.82-1.23,16,16,0,0,1-5.4-3.47,15.8,15.8,0,0,1-3.56-5.31,17.63,17.63,0,0,1-1.28-6.82,17.9,17.9,0,0,1,1.28-6.9,15.16,15.16,0,0,1,3.56-5.25,15.8,15.8,0,0,1,5.4-3.33,19.3,19.3,0,0,1,6.82-1.17,19,19,0,0,1,4,.36,25,25,0,0,1,2.86.81l2.16.81a5.07,5.07,0,0,0,1.89.36,3.41,3.41,0,0,0,2.68-.87,3.9,3.9,0,0,0,.74-2.55,5.82,5.82,0,0,0-.2-1.46,4.55,4.55,0,0,0-.56-1.28l4.63-1.17a7.16,7.16,0,0,1,.63,1.82A11,11,0,0,1,150.8,240.38Zm-29.92,17.73a13.69,13.69,0,0,0,.78,4.71,11.15,11.15,0,0,0,2.25,3.71,10.28,10.28,0,0,0,3.47,2.45,10.82,10.82,0,0,0,4.43.88,11,11,0,0,0,4.46-.88,10.12,10.12,0,0,0,3.48-2.45,10.83,10.83,0,0,0,2.25-3.71,13.46,13.46,0,0,0,.79-4.71,13,13,0,0,0-.79-4.59,11.19,11.19,0,0,0-2.22-3.69,10.45,10.45,0,0,0-3.47-2.47,11,11,0,0,0-4.5-.9,10.83,10.83,0,0,0-4.48.9,10.54,10.54,0,0,0-3.44,2.47,11.39,11.39,0,0,0-2.23,3.69A13.25,13.25,0,0,0,120.88,258.11Zm2.88-18.54a15.09,15.09,0,0,1,.51-2.11,6.37,6.37,0,0,1,.93-1.82,4.66,4.66,0,0,1,1.46-1.29,4.4,4.4,0,0,1,2.14-.49,8.23,8.23,0,0,1,1.82.22,11.34,11.34,0,0,1,1.73.59c.6.24,1.15.44,1.64.61a4.34,4.34,0,0,0,1.29.24,1.68,1.68,0,0,0,1.37-.56,3.6,3.6,0,0,0,.7-1.33h3a15.25,15.25,0,0,1-.52,2.12,6.35,6.35,0,0,1-.92,1.82,4.43,4.43,0,0,1-1.47,1.28,4.15,4.15,0,0,1-2.13.5,6.85,6.85,0,0,1-1.89-.27,15.87,15.87,0,0,1-1.8-.63c-.54-.24-1.05-.43-1.53-.59a4.28,4.28,0,0,0-1.26-.22,1.71,1.71,0,0,0-1.38.58,3.92,3.92,0,0,0-.69,1.35Z"/><path d="M154.45,242.27H162l14.81,23.85h.09V242.27h5.67v31.86h-7.2l-15.12-24.61h-.09v24.61h-5.67Z"/><path d="M217.45,272.47a24.48,24.48,0,0,1-5.34,1.82,30.31,30.31,0,0,1-6.68.65,19.49,19.49,0,0,1-7.06-1.23,16.17,16.17,0,0,1-5.49-3.47,15.56,15.56,0,0,1-3.58-5.31,18.75,18.75,0,0,1,0-13.72A15.38,15.38,0,0,1,193,246a16.3,16.3,0,0,1,5.47-3.33,19.49,19.49,0,0,1,6.84-1.17,21,21,0,0,1,7,1.11,14.16,14.16,0,0,1,5.11,2.9l-3.91,4.23a9.71,9.71,0,0,0-3.4-2.3,11.85,11.85,0,0,0-4.75-.94,11.26,11.26,0,0,0-4.57.9,10.39,10.39,0,0,0-3.48,2.47,11.22,11.22,0,0,0-2.23,3.69,13,13,0,0,0-.79,4.59,13.46,13.46,0,0,0,.79,4.71,10.83,10.83,0,0,0,2.25,3.71,10,10,0,0,0,3.55,2.45,12.12,12.12,0,0,0,4.75.88,16.44,16.44,0,0,0,6.35-1.13v-8.1h-6.71V256h12.2Z"/><path d="M235.58,242.27h11.3a25,25,0,0,1,6.25.81,16.29,16.29,0,0,1,5.67,2.68,14,14,0,0,1,4.1,4.91,16.24,16.24,0,0,1,1.57,7.53,15.34,15.34,0,0,1-1.57,7.2,14.56,14.56,0,0,1-4.1,5,17,17,0,0,1-5.67,2.86,22,22,0,0,1-6.25.92h-11.3ZM246,269.18a19.51,19.51,0,0,0,4.41-.51,11.53,11.53,0,0,0,4-1.76,9.33,9.33,0,0,0,2.9-3.35,11.35,11.35,0,0,0,1.13-5.36,12.09,12.09,0,0,0-1.13-5.58,9.07,9.07,0,0,0-2.9-3.37,10.84,10.84,0,0,0-4-1.67,22.76,22.76,0,0,0-4.41-.45h-4.73v22.05Z"/><path d="M278.87,242.27h4.91l13.72,31.86H291l-3-7.29H274.24l-2.88,7.29H265Zm7.2,19.71-4.9-13-5,13Z"/><path d="M311.09,242.27h5.67v26.82h13.55v5H311.09Z"/><path d="M331.21,258.11a17.71,17.71,0,0,1,1.28-6.9A15.14,15.14,0,0,1,336,246a16,16,0,0,1,5.4-3.33,19.34,19.34,0,0,1,6.82-1.17,19.66,19.66,0,0,1,6.89,1.17,16.07,16.07,0,0,1,5.44,3.33,15.07,15.07,0,0,1,3.58,5.25,17.9,17.9,0,0,1,1.28,6.9,17.63,17.63,0,0,1-1.28,6.82,15.7,15.7,0,0,1-3.58,5.31,16.24,16.24,0,0,1-5.44,3.47,18.8,18.8,0,0,1-6.89,1.23,18.5,18.5,0,0,1-6.82-1.23,16.16,16.16,0,0,1-5.4-3.47,15.77,15.77,0,0,1-3.55-5.31A17.45,17.45,0,0,1,331.21,258.11Zm6.16,0a13.46,13.46,0,0,0,.79,4.71,10.83,10.83,0,0,0,2.25,3.71,10.24,10.24,0,0,0,3.46,2.45,11.67,11.67,0,0,0,8.89,0,10.26,10.26,0,0,0,3.49-2.45,11.15,11.15,0,0,0,2.25-3.71,13.69,13.69,0,0,0,.79-4.71,13.25,13.25,0,0,0-.79-4.59,11.39,11.39,0,0,0-2.23-3.69,10.41,10.41,0,0,0-3.46-2.47,11,11,0,0,0-4.5-.9,10.8,10.8,0,0,0-4.48.9,10.43,10.43,0,0,0-3.44,2.47,11.22,11.22,0,0,0-2.23,3.69A13,13,0,0,0,337.37,258.11Zm14.22-18.36-3.1-4.05-3.11,4.05h-5l5.18-6.48h6.07l5.13,6.48Z"/><path d="M382.19,242.27h5.67v12.87h14.9V242.27h5.67v31.86h-5.67V260h-14.9v14.13h-5.67Z"/><path d="M413.92,258.11a17.71,17.71,0,0,1,1.28-6.9,15.14,15.14,0,0,1,3.55-5.25,16,16,0,0,1,5.4-3.33,19.34,19.34,0,0,1,6.82-1.17,19.66,19.66,0,0,1,6.89,1.17A16.07,16.07,0,0,1,443.3,246a15.07,15.07,0,0,1,3.58,5.25,17.9,17.9,0,0,1,1.28,6.9,17.63,17.63,0,0,1-1.28,6.82,15.7,15.7,0,0,1-3.58,5.31,16.24,16.24,0,0,1-5.44,3.47,18.8,18.8,0,0,1-6.89,1.23,18.5,18.5,0,0,1-6.82-1.23,16.16,16.16,0,0,1-5.4-3.47,15.77,15.77,0,0,1-3.55-5.31A17.45,17.45,0,0,1,413.92,258.11Zm6.16,0a13.46,13.46,0,0,0,.79,4.71,10.83,10.83,0,0,0,2.25,3.71,10.24,10.24,0,0,0,3.46,2.45,11.67,11.67,0,0,0,8.89,0,10.26,10.26,0,0,0,3.49-2.45,11.15,11.15,0,0,0,2.25-3.71,13.69,13.69,0,0,0,.79-4.71,13.25,13.25,0,0,0-.79-4.59,11.39,11.39,0,0,0-2.23-3.69,10.41,10.41,0,0,0-3.46-2.47,11,11,0,0,0-4.5-.9,10.8,10.8,0,0,0-4.48.9,10.43,10.43,0,0,0-3.44,2.47,11.22,11.22,0,0,0-2.23,3.69A13,13,0,0,0,420.08,258.11Zm14.22-18.36-3.1-4.05-3.11,4.05h-5l5.18-6.48h6.07l5.13,6.48Zm-6.48,41a3.08,3.08,0,0,1,1-2.27,3.29,3.29,0,0,1,2.45-1,3.61,3.61,0,0,1,2.5.92,3.17,3.17,0,0,1,0,4.64,3.61,3.61,0,0,1-2.5.92,3.29,3.29,0,0,1-2.45-1A3.08,3.08,0,0,1,427.82,280.75Z"/><path d="M453.65,242.27h5.67v31.86h-5.67Z"/><path d="M483,247.22h-9.77v-4.95h25.2v4.95h-9.76v26.91H483Z"/><path d="M527.45,262.43a13.1,13.1,0,0,1-1,5.2,11.61,11.61,0,0,1-2.7,3.94,12,12,0,0,1-4,2.5,15.3,15.3,0,0,1-10.17,0,12.15,12.15,0,0,1-4.07-2.5,11.08,11.08,0,0,1-2.7-3.94,13.28,13.28,0,0,1-1-5.2V242.27h5.67v19.94a10.91,10.91,0,0,0,.36,2.77,6.9,6.9,0,0,0,1.19,2.45,6.16,6.16,0,0,0,2.21,1.75,8.82,8.82,0,0,0,6.79,0,6.16,6.16,0,0,0,2.21-1.75,6.9,6.9,0,0,0,1.19-2.45,10.91,10.91,0,0,0,.36-2.77V242.27H525a3.54,3.54,0,0,0,2.81-.92,3.89,3.89,0,0,0,.79-2.59,5.42,5.42,0,0,0-.21-1.46,4.28,4.28,0,0,0-.56-1.28l4.64-1.17a7.16,7.16,0,0,1,.63,1.82,11,11,0,0,1,.18,2.09,6.47,6.47,0,0,1-1.56,4.73,6,6,0,0,1-4.25,1.66Z"/><path d="M569.21,240.38a6.51,6.51,0,0,1-1.55,4.68,6.09,6.09,0,0,1-4.39,1.71,15.92,15.92,0,0,1,3,5,17.68,17.68,0,0,1,1.08,6.34,17.45,17.45,0,0,1-1.29,6.82,15.53,15.53,0,0,1-3.57,5.31,16.28,16.28,0,0,1-5.45,3.47,18.74,18.74,0,0,1-6.88,1.23,18.46,18.46,0,0,1-6.82-1.23,16,16,0,0,1-5.4-3.47,15.8,15.8,0,0,1-3.56-5.31,17.63,17.63,0,0,1-1.28-6.82,17.9,17.9,0,0,1,1.28-6.9A15.16,15.16,0,0,1,538,246a15.8,15.8,0,0,1,5.4-3.33,19.3,19.3,0,0,1,6.82-1.17,19,19,0,0,1,4,.36,25,25,0,0,1,2.86.81l2.16.81a5.07,5.07,0,0,0,1.89.36,3.41,3.41,0,0,0,2.68-.87,3.9,3.9,0,0,0,.74-2.55,5.82,5.82,0,0,0-.2-1.46,4.55,4.55,0,0,0-.56-1.28l4.63-1.17a7.16,7.16,0,0,1,.63,1.82A11,11,0,0,1,569.21,240.38Zm-29.92,17.73a13.69,13.69,0,0,0,.78,4.71,11.15,11.15,0,0,0,2.25,3.71,10.28,10.28,0,0,0,3.47,2.45,10.82,10.82,0,0,0,4.43.88,11,11,0,0,0,4.46-.88,10.12,10.12,0,0,0,3.48-2.45,10.83,10.83,0,0,0,2.25-3.71,13.46,13.46,0,0,0,.79-4.71,13,13,0,0,0-.79-4.59,11.19,11.19,0,0,0-2.22-3.69,10.45,10.45,0,0,0-3.47-2.47,11,11,0,0,0-4.5-.9,10.83,10.83,0,0,0-4.48.9,10.54,10.54,0,0,0-3.44,2.47,11.39,11.39,0,0,0-2.23,3.69A13.25,13.25,0,0,0,539.29,258.11Z"/><path d="M572.86,242.27h5.67v31.86h-5.67Z"/><path d="M51.58,316.13H49.06V291.35H64v2.24H51.58v8.58H63.13v2.24H51.58Z"/><path d="M71.25,316.13H68.73V291.35H76a15.59,15.59,0,0,1,3.38.35,7.73,7.73,0,0,1,2.69,1.14,5.4,5.4,0,0,1,1.77,2.05,6.85,6.85,0,0,1,.63,3.08,6.1,6.1,0,0,1-1.82,4.43,6.38,6.38,0,0,1-2,1.31,8.48,8.48,0,0,1-2.52.63l7.24,11.79H82.31l-6.86-11.58h-4.2Zm0-13.75h4.38a8.45,8.45,0,0,0,4.69-1.1A3.74,3.74,0,0,0,82,298a4.34,4.34,0,0,0-.45-2.07,3.82,3.82,0,0,0-1.26-1.36,5.7,5.7,0,0,0-2-.77,12.56,12.56,0,0,0-2.56-.25H71.25Z"/><path d="M92.22,313.89h13.26v2.24H89.7V291.35h15.36v2.24H92.22v8.51h12v2.24h-12Z"/><path d="M122.42,295.34a6.09,6.09,0,0,0-2.06-1.8,6.81,6.81,0,0,0-4.9-.4,5.34,5.34,0,0,0-1.72.86,4.36,4.36,0,0,0-1.24,1.45,4.21,4.21,0,0,0-.47,2.06,3.82,3.82,0,0,0,.45,2,4.2,4.2,0,0,0,1.2,1.32,7.17,7.17,0,0,0,1.72.89c.64.23,1.3.47,2,.7.86.28,1.73.58,2.6.91a9.23,9.23,0,0,1,2.36,1.28,6.11,6.11,0,0,1,1.71,2,6.36,6.36,0,0,1,.66,3.06,6.73,6.73,0,0,1-.71,3.21,6.65,6.65,0,0,1-1.83,2.22,7.77,7.77,0,0,1-2.59,1.29,10.41,10.41,0,0,1-2.92.42,11.41,11.41,0,0,1-2.24-.22,9.48,9.48,0,0,1-2.13-.69,8.31,8.31,0,0,1-1.89-1.15,8.1,8.1,0,0,1-1.54-1.61l2.17-1.61a6.55,6.55,0,0,0,2.25,2.22,6.36,6.36,0,0,0,3.42.89,6.49,6.49,0,0,0,1.92-.29,5.51,5.51,0,0,0,1.77-.91,5,5,0,0,0,1.29-1.51,4.64,4.64,0,0,0,0-4.23,4.49,4.49,0,0,0-1.34-1.44,8.48,8.48,0,0,0-1.93-1c-.72-.26-1.48-.51-2.27-.77s-1.62-.55-2.42-.88a8.13,8.13,0,0,1-2.13-1.27,6.14,6.14,0,0,1-1.53-1.95,7.16,7.16,0,0,1,.14-5.91,6.58,6.58,0,0,1,1.88-2.14,7.91,7.91,0,0,1,2.55-1.22,10.29,10.29,0,0,1,2.77-.39,9.45,9.45,0,0,1,4.3.9,7.44,7.44,0,0,1,2.7,2.11Z"/><path d="M130.16,291.35h2.52V302.1h13.51V291.35h2.52v24.78h-2.52V304.41H132.68v11.72h-2.52Z"/><path d="M163.23,316.13h-2.76l10.71-24.78h2.45l10.64,24.78h-2.8l-2.73-6.51H165.93Zm3.64-8.82h10.92l-5.46-13.16Z"/><path d="M190.43,313.89H202v2.24H187.91V291.35h2.52Z"/><path d="M229.21,303.74a13.67,13.67,0,0,1-1,5.22,12.35,12.35,0,0,1-6.81,6.82,13.92,13.92,0,0,1-10.26,0,12.29,12.29,0,0,1-6.8-6.82,14.37,14.37,0,0,1,0-10.43,12.22,12.22,0,0,1,2.71-4.11,12.51,12.51,0,0,1,4.09-2.72,13.92,13.92,0,0,1,10.26,0,12.4,12.4,0,0,1,6.81,6.83A13.62,13.62,0,0,1,229.21,303.74Zm-2.66,0a12.29,12.29,0,0,0-.7-4.12,10.41,10.41,0,0,0-2-3.44,9.75,9.75,0,0,0-3.24-2.36,10.9,10.9,0,0,0-8.58,0,9.61,9.61,0,0,0-3.23,2.36,10.08,10.08,0,0,0-2,3.44,12.5,12.5,0,0,0,0,8.25,10,10,0,0,0,2,3.42,9.7,9.7,0,0,0,3.23,2.34,11,11,0,0,0,8.58,0,9.84,9.84,0,0,0,3.24-2.34,10.31,10.31,0,0,0,2-3.42A12.35,12.35,0,0,0,226.55,303.76Z"/><path d="M237,313.89h13.26v2.24H234.46V291.35h15.36v2.24H237v8.51h12v2.24H237Z"/><path d="M270.89,312.88H271L279,291.35h2.7l-9.49,24.78h-2.66l-9.45-24.78h2.73Z"/><path d="M287.62,313.89h13.27v2.24H285.1V291.35h15.37v2.24H287.62v8.51h12v2.24h-12Z"/><path d="M308.34,316.13h-2.52V291.35h7.28a15.66,15.66,0,0,1,3.38.35,7.81,7.81,0,0,1,2.69,1.14,5.4,5.4,0,0,1,1.77,2.05,6.85,6.85,0,0,1,.63,3.08,6,6,0,0,1-.49,2.48,6.19,6.19,0,0,1-1.33,1.95,6.38,6.38,0,0,1-2,1.31,8.48,8.48,0,0,1-2.52.63l7.24,11.79H319.4l-6.86-11.58h-4.2Zm0-13.75h4.38a8.45,8.45,0,0,0,4.69-1.1,3.74,3.74,0,0,0,1.64-3.31,4.34,4.34,0,0,0-.45-2.07,3.82,3.82,0,0,0-1.26-1.36,5.7,5.7,0,0,0-2-.77,12.63,12.63,0,0,0-2.56-.25h-4.48Z"/><path d="M326.61,316.13h-2.76l10.71-24.78H337l10.64,24.78h-2.8l-2.73-6.51H329.31Zm3.64-8.82h10.92l-5.46-13.16Z"/><path d="M366.51,316.13H364V293.59H355.7v-2.24h19.11v2.24h-8.3Z"/><path d="M402,303.74a13.67,13.67,0,0,1-1,5.22,12.35,12.35,0,0,1-6.81,6.82,13.92,13.92,0,0,1-10.26,0,12.29,12.29,0,0,1-6.8-6.82,14.37,14.37,0,0,1,0-10.43,12.22,12.22,0,0,1,2.71-4.11,12.51,12.51,0,0,1,4.09-2.72,13.92,13.92,0,0,1,10.26,0,12.4,12.4,0,0,1,6.81,6.83A13.62,13.62,0,0,1,402,303.74Zm-2.66,0a12.29,12.29,0,0,0-.7-4.12,10.41,10.41,0,0,0-2-3.44,9.75,9.75,0,0,0-3.24-2.36,10.9,10.9,0,0,0-8.58,0,9.61,9.61,0,0,0-3.23,2.36,10.08,10.08,0,0,0-2,3.44,12.5,12.5,0,0,0,0,8.25,10,10,0,0,0,2,3.42,9.7,9.7,0,0,0,3.23,2.34,11,11,0,0,0,8.58,0,9.84,9.84,0,0,0,3.24-2.34,10.31,10.31,0,0,0,2-3.42A12.35,12.35,0,0,0,399.31,303.76Z"/><path d="M424.79,312.46h.07V291.35h2.52v24.78h-3.15l-14.42-21.31h-.07v21.31h-2.52V291.35h3.15Z"/><path d="M436.48,313.89h13.26v2.24H434V291.35h15.36v2.24H436.48v8.51h12v2.24h-12Z"/><path d="M457.2,316.13h-2.52V291.35H462a15.56,15.56,0,0,1,3.37.35,7.86,7.86,0,0,1,2.7,1.14,5.4,5.4,0,0,1,1.77,2.05,6.85,6.85,0,0,1,.63,3.08,6.1,6.1,0,0,1-1.82,4.43,6.42,6.42,0,0,1-2,1.31,8.48,8.48,0,0,1-2.52.63l7.25,11.79h-3.08l-6.86-11.58h-4.2Zm0-13.75h4.37a8.45,8.45,0,0,0,4.69-1.1,3.72,3.72,0,0,0,1.65-3.31,4.34,4.34,0,0,0-.46-2.07,3.65,3.65,0,0,0-1.26-1.36,5.7,5.7,0,0,0-2-.77,12.53,12.53,0,0,0-2.55-.25H457.2Z"/><path d="M499.62,310.39l5.56,5.74h-3.5l-3.5-3.67a10.8,10.8,0,0,1-3.33,3.1,8.71,8.71,0,0,1-4.3,1,9.79,9.79,0,0,1-3-.45,7.39,7.39,0,0,1-2.47-1.31,6.18,6.18,0,0,1-1.66-2.14,6.75,6.75,0,0,1-.62-3,6.94,6.94,0,0,1,.44-2.52,7.09,7.09,0,0,1,1.21-2,9.08,9.08,0,0,1,1.82-1.59,13.79,13.79,0,0,1,2.28-1.23,14.66,14.66,0,0,1-1.11-1.22,10.66,10.66,0,0,1-1-1.38,7.51,7.51,0,0,1-.68-1.53,5.08,5.08,0,0,1-.27-1.64,6,6,0,0,1,.5-2.49,5.33,5.33,0,0,1,1.33-1.83,5.71,5.71,0,0,1,2-1.14,7.16,7.16,0,0,1,2.38-.39,7.35,7.35,0,0,1,2.31.37,5.68,5.68,0,0,1,1.9,1.09,5.17,5.17,0,0,1,1.3,1.75,5.68,5.68,0,0,1,.47,2.36,5,5,0,0,1-.47,2.2,6.49,6.49,0,0,1-1.26,1.77,9.55,9.55,0,0,1-1.79,1.4c-.66.41-1.34.79-2.05,1.14l5.78,5.95,3.43-6h2.84ZM490,304a9.41,9.41,0,0,0-3.4,2.4,5.09,5.09,0,0,0-1.15,3.38,4.49,4.49,0,0,0,.4,1.92,4.25,4.25,0,0,0,1.12,1.49,5.35,5.35,0,0,0,1.66,1,5.56,5.56,0,0,0,2,.35,5.88,5.88,0,0,0,3.38-.91,9.26,9.26,0,0,0,2.54-2.73Zm5.28-7.66a3.35,3.35,0,0,0-1-2.52,3.43,3.43,0,0,0-2.5-1,3.7,3.7,0,0,0-2.7,1,3.76,3.76,0,0,0-1,2.78,3.94,3.94,0,0,0,.27,1.39,7.14,7.14,0,0,0,.71,1.34,8.67,8.67,0,0,0,.89,1.16,6.57,6.57,0,0,0,.82.8,17,17,0,0,0,1.64-.85,8.45,8.45,0,0,0,1.46-1.07,5,5,0,0,0,1-1.37A3.59,3.59,0,0,0,495.24,296.29Z"/><path d="M520.3,313.89h13.26v2.24H517.78V291.35h15.36v2.24H520.3v8.51h12v2.24h-12Z"/><path d="M550.5,295.34a6.09,6.09,0,0,0-2.06-1.8,6.81,6.81,0,0,0-4.9-.4,5.45,5.45,0,0,0-1.72.86,4.47,4.47,0,0,0-1.24,1.45,4.32,4.32,0,0,0-.47,2.06,3.82,3.82,0,0,0,.45,2,4.35,4.35,0,0,0,1.21,1.32,6.91,6.91,0,0,0,1.71.89c.64.23,1.31.47,2,.7.87.28,1.73.58,2.6.91a9.23,9.23,0,0,1,2.36,1.28,6.11,6.11,0,0,1,1.71,2,6.36,6.36,0,0,1,.66,3.06,6.52,6.52,0,0,1-2.54,5.43,7.72,7.72,0,0,1-2.58,1.29,10.53,10.53,0,0,1-2.93.42,11.41,11.41,0,0,1-2.24-.22,9.82,9.82,0,0,1-2.13-.69,8.31,8.31,0,0,1-1.89-1.15,8.4,8.4,0,0,1-1.54-1.61l2.17-1.61a6.58,6.58,0,0,0,2.26,2.22,6.3,6.3,0,0,0,3.41.89,6.49,6.49,0,0,0,1.92-.29,5.31,5.31,0,0,0,1.77-.91,5,5,0,0,0,1.3-1.51,4.72,4.72,0,0,0,0-4.23,4.63,4.63,0,0,0-1.35-1.44,8.48,8.48,0,0,0-1.93-1c-.72-.26-1.48-.51-2.27-.77s-1.62-.55-2.42-.88a8.13,8.13,0,0,1-2.13-1.27,6,6,0,0,1-1.52-1.95,7.06,7.06,0,0,1,.14-5.91,6.55,6.55,0,0,1,1.87-2.14,7.91,7.91,0,0,1,2.55-1.22,10.34,10.34,0,0,1,2.77-.39,9.45,9.45,0,0,1,4.3.9,7.44,7.44,0,0,1,2.7,2.11Z"/><path d="M570.24,295.34a6.09,6.09,0,0,0-2.06-1.8,6.81,6.81,0,0,0-4.9-.4,5.45,5.45,0,0,0-1.72.86,4.47,4.47,0,0,0-1.24,1.45,4.32,4.32,0,0,0-.47,2.06,3.82,3.82,0,0,0,.45,2,4.23,4.23,0,0,0,1.21,1.32,6.91,6.91,0,0,0,1.71.89c.64.23,1.31.47,2,.7.87.28,1.73.58,2.6.91a9.23,9.23,0,0,1,2.36,1.28,6.11,6.11,0,0,1,1.71,2,6.36,6.36,0,0,1,.66,3.06,6.52,6.52,0,0,1-2.54,5.43,7.72,7.72,0,0,1-2.58,1.29,10.53,10.53,0,0,1-2.93.42,11.41,11.41,0,0,1-2.24-.22,9.82,9.82,0,0,1-2.13-.69,8.31,8.31,0,0,1-1.89-1.15,8.4,8.4,0,0,1-1.54-1.61l2.17-1.61a6.58,6.58,0,0,0,2.26,2.22,6.3,6.3,0,0,0,3.41.89,6.49,6.49,0,0,0,1.92-.29,5.31,5.31,0,0,0,1.77-.91,5,5,0,0,0,1.3-1.51,4.72,4.72,0,0,0,0-4.23,4.63,4.63,0,0,0-1.35-1.44,8.48,8.48,0,0,0-1.93-1c-.72-.26-1.48-.51-2.27-.77s-1.62-.55-2.42-.88a8.13,8.13,0,0,1-2.13-1.27,6,6,0,0,1-1.52-1.95,7.06,7.06,0,0,1,.14-5.91,6.44,6.44,0,0,1,1.87-2.14,7.91,7.91,0,0,1,2.55-1.22,10.34,10.34,0,0,1,2.77-.39,9.45,9.45,0,0,1,4.3.9,7.44,7.44,0,0,1,2.7,2.11Z"/><path d="M580.5,313.89h13.26v2.24H578V291.35h15.36v2.24H580.5v8.51h12v2.24h-12Z"/><path d="M616.27,312.46h.07V291.35h2.52v24.78h-3.15l-14.42-21.31h-.07v21.31H598.7V291.35h3.15Z"/><path d="M646.3,312.11a10.54,10.54,0,0,1-1.52,1.79,10.29,10.29,0,0,1-2.07,1.48,11.26,11.26,0,0,1-2.59,1,12.09,12.09,0,0,1-3.1.37,13.39,13.39,0,0,1-5.18-1,12.12,12.12,0,0,1-6.77-6.82,13.85,13.85,0,0,1-1-5.22,13.62,13.62,0,0,1,1-5.21,12.37,12.37,0,0,1,2.71-4.11,12.56,12.56,0,0,1,4.1-2.72,13.27,13.27,0,0,1,5.12-1,12.57,12.57,0,0,1,2.68.29,12.75,12.75,0,0,1,2.47.8,10.37,10.37,0,0,1,2.1,1.24,7.11,7.11,0,0,1,1.57,1.63l-2.1,1.54a6.07,6.07,0,0,0-1-1.19,6.82,6.82,0,0,0-1.52-1,10.11,10.11,0,0,0-1.91-.74,8.76,8.76,0,0,0-2.22-.28,10.29,10.29,0,0,0-4.32.88,9.53,9.53,0,0,0-3.24,2.35,10.34,10.34,0,0,0-2,3.44,12,12,0,0,0-.7,4.11,11.79,11.79,0,0,0,.72,4.12,10.53,10.53,0,0,0,2,3.44,9.72,9.72,0,0,0,3.24,2.35,10.21,10.21,0,0,0,4.29.87,9.78,9.78,0,0,0,4.06-.87,7.7,7.7,0,0,0,3.22-2.8Z"/><path d="M653.16,313.89h13.26v2.24H650.64V291.35H666v2.24H653.16v8.51h12v2.24h-12Z"/><g id="_Rectangle_" data-name="&lt;Rectangle&gt;"><rect class="cls-1" x="46" y="31.84" width="383" height="113.11"/></g><path class="cls-2" d="M89,108.23V99.46l17.33-15.67A16.71,16.71,0,0,0,109,80.6,6.81,6.81,0,0,0,110,77a5.17,5.17,0,0,0-1.51-3.85,6.06,6.06,0,0,0-8.32.38,8.39,8.39,0,0,0-2,4.86L88.09,77A15.63,15.63,0,0,1,98.86,63.58a19.33,19.33,0,0,1,6.18-1,21.93,21.93,0,0,1,6,.81,15.66,15.66,0,0,1,5.15,2.52,12.64,12.64,0,0,1,3.61,4.26,12.83,12.83,0,0,1,1.35,6,13.73,13.73,0,0,1-.63,4.3,14.36,14.36,0,0,1-1.73,3.54,20.25,20.25,0,0,1-2.51,3c-.94.94-1.91,1.87-2.92,2.79L103,99.06h18.14v9.17Z"/><path class="cls-2" d="M163,78.48a18.1,18.1,0,0,1-1.38,7.18,41.33,41.33,0,0,1-3.57,6.56l-10.73,16H134.62l11.06-15.32.12-.18a8.16,8.16,0,0,1-1.53.37,10.22,10.22,0,0,1-1.6.13,15.15,15.15,0,0,1-5.58-1,14,14,0,0,1-4.63-3,14.23,14.23,0,0,1-4.39-10.51A16.11,16.11,0,0,1,129.45,72a14.75,14.75,0,0,1,3.76-5.08,16.65,16.65,0,0,1,5.58-3.17,20.69,20.69,0,0,1,6.76-1.1,20.94,20.94,0,0,1,6.83,1.1,16.32,16.32,0,0,1,5.55,3.17,15.2,15.2,0,0,1,3.72,5A15.36,15.36,0,0,1,163,78.48Zm-10.48-.13a7.31,7.31,0,0,0-1.86-5,6.43,6.43,0,0,0-5.08-2.1,6.82,6.82,0,0,0-5.13,2,7.08,7.08,0,0,0-1.93,5.18,7,7,0,0,0,1.89,5,6.71,6.71,0,0,0,5.05,2,7,7,0,0,0,5.11-1.94A6.87,6.87,0,0,0,152.55,78.35Z"/><path class="cls-2" d="M202.38,93.54a16.05,16.05,0,0,1-1.44,7.06,14.12,14.12,0,0,1-3.86,4.93,16.66,16.66,0,0,1-5.49,2.92,21.35,21.35,0,0,1-12.08.19,18.64,18.64,0,0,1-5-2.23,15.06,15.06,0,0,1-3.83-3.55,14,14,0,0,1-2.35-4.74l9.6-3a7.48,7.48,0,0,0,2.6,3.83,7.57,7.57,0,0,0,9.23-.12,5.91,5.91,0,0,0,2-4.84,6,6,0,0,0-.82-3.26,6.2,6.2,0,0,0-2.1-2.1,8.59,8.59,0,0,0-2.92-1.1,17.21,17.21,0,0,0-3.26-.31,35.33,35.33,0,0,0-10.86,1.94l1.07-25.42h27.24v9H182.24l-.38,7a13.91,13.91,0,0,1,2.23-.35c.82-.06,1.56-.09,2.23-.09a21.69,21.69,0,0,1,6.27.88A14.13,14.13,0,0,1,197.71,83a12.8,12.8,0,0,1,3.42,4.42A14.13,14.13,0,0,1,202.38,93.54Z"/><path class="cls-2" d="M216.13,116h-8.47l4.7-17.82h9.86Z"/><path class="cls-2" d="M262.89,85.88a42.12,42.12,0,0,1-.94,9,22.92,22.92,0,0,1-3,7.5,14.92,14.92,0,0,1-13.37,7.06,15.93,15.93,0,0,1-8-1.91,15.75,15.75,0,0,1-5.43-5.15,22.51,22.51,0,0,1-3-7.5,41.49,41.49,0,0,1-.94-9,41,41,0,0,1,.94-8.94,22,22,0,0,1,3-7.41,15.74,15.74,0,0,1,5.43-5,18,18,0,0,1,16,0,15.62,15.62,0,0,1,5.36,5,22.42,22.42,0,0,1,3,7.41A41.61,41.61,0,0,1,262.89,85.88Zm-10.8,0a45.63,45.63,0,0,0-.25-4.58,23,23,0,0,0-.94-4.67,10,10,0,0,0-2-3.64,4.22,4.22,0,0,0-3.36-1.48A4.29,4.29,0,0,0,242.18,73a10.12,10.12,0,0,0-2,3.64,21.11,21.11,0,0,0-1,4.67,45.63,45.63,0,0,0-.25,4.58c0,1.43.08,3,.25,4.68a21.35,21.35,0,0,0,1,4.71,10.3,10.3,0,0,0,2,3.64,4.31,4.31,0,0,0,3.38,1.47,4.25,4.25,0,0,0,3.36-1.47,10.2,10.2,0,0,0,2-3.64,23.25,23.25,0,0,0,.94-4.71C252,88.87,252.09,87.31,252.09,85.88Z"/><path class="cls-2" d="M303.43,85.88a41.49,41.49,0,0,1-.94,9,22.91,22.91,0,0,1-3,7.5,15,15,0,0,1-13.37,7.06,15.15,15.15,0,0,1-13.46-7.06,22.32,22.32,0,0,1-3-7.5,42.12,42.12,0,0,1-.94-9,41.61,41.61,0,0,1,.94-8.94,21.83,21.83,0,0,1,3-7.41,15.74,15.74,0,0,1,5.43-5,16.08,16.08,0,0,1,8-1.88,15.91,15.91,0,0,1,8,1.88,15.56,15.56,0,0,1,5.37,5,22.4,22.4,0,0,1,3,7.41A41,41,0,0,1,303.43,85.88Zm-10.79,0c0-1.38-.09-2.9-.25-4.58a23,23,0,0,0-.94-4.67,10.34,10.34,0,0,0-2-3.64,4.24,4.24,0,0,0-3.36-1.48A4.33,4.33,0,0,0,282.72,73a10.12,10.12,0,0,0-2,3.64,21.11,21.11,0,0,0-1,4.67,45.63,45.63,0,0,0-.25,4.58c0,1.43.08,3,.25,4.68a21.36,21.36,0,0,0,1,4.71,10.3,10.3,0,0,0,2,3.64,4.35,4.35,0,0,0,3.39,1.47,4.26,4.26,0,0,0,3.36-1.47,10.52,10.52,0,0,0,2-3.64,23.25,23.25,0,0,0,.94-4.71C292.55,88.87,292.64,87.31,292.64,85.88Z"/><path class="cls-2" d="M344,85.88a42.12,42.12,0,0,1-.94,9,22.92,22.92,0,0,1-3,7.5,14.92,14.92,0,0,1-13.36,7.06,15.94,15.94,0,0,1-8-1.91,15.75,15.75,0,0,1-5.43-5.15,22.51,22.51,0,0,1-3-7.5,41.49,41.49,0,0,1-.94-9,41,41,0,0,1,.94-8.94,22,22,0,0,1,3-7.41,15.74,15.74,0,0,1,5.43-5,16.15,16.15,0,0,1,8-1.88,16,16,0,0,1,8,1.88,15.62,15.62,0,0,1,5.36,5,22.42,22.42,0,0,1,3,7.41A41.61,41.61,0,0,1,344,85.88Zm-10.8,0a45.63,45.63,0,0,0-.25-4.58,23,23,0,0,0-.94-4.67A10,10,0,0,0,330,73a4.22,4.22,0,0,0-3.35-1.48A4.3,4.3,0,0,0,323.27,73a10.12,10.12,0,0,0-2,3.64,21.11,21.11,0,0,0-1,4.67c-.16,1.68-.25,3.2-.25,4.58s.09,3,.25,4.68a21.35,21.35,0,0,0,1,4.71,10.3,10.3,0,0,0,2,3.64,4.32,4.32,0,0,0,3.39,1.47A4.24,4.24,0,0,0,330,98.91a10.2,10.2,0,0,0,2-3.64,23.25,23.25,0,0,0,.94-4.71C333.1,88.87,333.18,87.31,333.18,85.88Z"/><path class="cls-2" d="M374.54,108.23v-4.08h-.12a9.83,9.83,0,0,1-4.3,3.67,14.63,14.63,0,0,1-12.21-.09,14.32,14.32,0,0,1-4.67-3.68,16,16,0,0,1-2.92-5.3,19.72,19.72,0,0,1-1-6.28,18.92,18.92,0,0,1,1-6.24A16.11,16.11,0,0,1,353.3,81a13.74,13.74,0,0,1,10.76-4.9,11.92,11.92,0,0,1,5.84,1.32,12.91,12.91,0,0,1,3.7,2.89h.13V72.45h-9.35V66.87h9.35V60.78H384v6.09h2.89v5.58H384v35.78Zm-.37-15.69a8.7,8.7,0,0,0-2-5.53,7.58,7.58,0,0,0-2.36-1.82,6.89,6.89,0,0,0-3.13-.69,7.09,7.09,0,0,0-3.21.69,7.22,7.22,0,0,0-3.73,4.33,9.63,9.63,0,0,0-.47,3,9.93,9.93,0,0,0,.47,3,7.53,7.53,0,0,0,1.41,2.6,7.19,7.19,0,0,0,2.32,1.82,7.09,7.09,0,0,0,3.21.69,6.89,6.89,0,0,0,3.13-.69,7.58,7.58,0,0,0,2.36-1.82,8.16,8.16,0,0,0,1.5-2.57A8.41,8.41,0,0,0,374.17,92.54Z"/></svg>