<svg id="Layer_1" data-name="Layer 1" xmlns="http://www.w3.org/2000/svg" viewBox="0 0 2006 967.99"><defs><style>.cls-1{fill:#c90202;}.cls-2{fill:#fff;}</style></defs><title>Image convert 1 fix text</title><path d="M81.45,536.73c0-26.41,20.28-45.32,47.58-45.32,15.14,0,27.79,5.51,36.05,15.53l-13,12c-5.88-6.76-13.27-10.26-22-10.26-16.4,0-28,11.52-28,28s11.65,28,28.05,28c8.76,0,16.15-3.51,22-10.39l13,12c-8.26,10.15-20.91,15.65-36.18,15.65C101.73,582.05,81.45,563.15,81.45,536.73Z"/><path d="M171.34,536.73c0-26,20.28-45.32,47.95-45.32s48,19.16,48,45.32-20.41,45.32-48,45.32S171.34,562.77,171.34,536.73Zm75.37,0c0-16.65-11.77-28-27.42-28s-27.42,11.39-27.42,28,11.77,28,27.42,28S246.71,553.38,246.71,536.73Zm-36.06,61.72a8.64,8.64,0,1,1,17.28,0c0,5.14-3.76,8.39-8.64,8.39S210.65,603.59,210.65,598.45Z"/><path d="M402.2,492.91l-37.94,87.64h-20l-37.81-87.64h21.91L355,555.51l27-62.6Z"/><path d="M477.31,564.28v16.27H409.46V492.91h66.23v16.28H429.61v19H470.3V544H429.61v20.29Zm-48.82-79H418.6c.25-11.15,5.88-18.28,14.65-18.28s13,8,17.52,8c3.38,0,5.76-2.63,6-6.76h9.89c-.25,10.77-5.88,17.9-14.65,17.9s-13-7.89-17.52-7.89C431.12,478.26,428.74,480.77,428.49,485.28Z"/><path d="M523.38,536.73c0-26.41,20.29-45.32,47.58-45.32,15.15,0,27.79,5.51,36.06,15.53l-13,12c-5.88-6.76-13.27-10.26-22-10.26-16.4,0-28,11.52-28,28s11.64,28,28,28c8.76,0,16.15-3.51,22-10.39l13,12c-8.27,10.15-20.91,15.65-36.19,15.65C543.67,582.05,523.38,563.15,523.38,536.73Z"/><path d="M701,492.91v87.64H680.75V544.62H640.94v35.93H620.66V492.91h20.28v34.56h39.81V492.91Z"/><path d="M779.53,561.77H738.84l-7.76,18.78H710.3l39.06-87.64h20l39.19,87.64H787.29Zm-31-76H734.21l16.53-18H768l16.53,18H770.27l-10.89-9.52Zm24.67,60.59-13.9-33.55-13.9,33.55Z"/><path d="M898.09,492.91v87.64H881.44l-43.69-53.21v53.21h-20V492.91h16.78l43.57,53.21V492.91Z"/><path d="M1034.05,580.55l-.12-52.58-25.79,43.32H999L973.33,529.1v51.45h-19V492.91h16.78l32.8,54.46,32.3-54.46h16.65l.25,87.64Z"/><path d="M1131.58,561.77h-40.69l-7.76,18.78h-20.79l39.07-87.64h20l39.18,87.64h-21.28Zm-24-76-22.66-18h21l16.9,18Zm17.65,60.59-13.89-33.55-13.9,33.55Z"/><path d="M1206.44,549.5v31h-20.28v-31.3l-33.93-56.34h21.54l23.41,38.94,23.41-38.94h19.91Z"/><path d="M78.81,638.24c0-12.14,9.32-20.82,21.86-20.82,7,0,12.77,2.53,16.57,7.13l-6,5.52a13,13,0,0,0-10.13-4.71c-7.54,0-12.88,5.29-12.88,12.88s5.34,12.89,12.88,12.89a12.83,12.83,0,0,0,10.13-4.78l6,5.53c-3.8,4.66-9.61,7.19-16.63,7.19C88.13,659.07,78.81,650.38,78.81,638.24Z"/><path d="M149.22,649.75h-18.7L127,658.38h-9.55l18-40.27h9.2l18,40.27h-9.78Zm-2.93-7.08-6.39-15.42-6.38,15.42Z"/><path d="M173.09,625.7H160.2v-7.59h35.1v7.59H182.41v32.68h-9.32Z"/><path d="M237.23,618.11v40.27h-9.32V641.87H209.62v16.51H200.3V618.11h9.32V634h18.29V618.11Z"/><path d="M266.1,644.11v14.27h-9.31V644L241.2,618.11h9.89L261.85,636l10.75-17.89h9.15Z"/><path d="M301.94,618.11h18.29c13.18,0,22.21,7.94,22.21,20.13s-9,20.14-22.21,20.14H301.94Zm17.83,32.61c8,0,13.23-4.77,13.23-12.48s-5.23-12.48-13.23-12.48h-8.51v25Z"/><path d="M346.92,638.24c0-12,9.32-20.82,22-20.82s22,8.8,22,20.82-9.37,20.83-22,20.83S346.92,650.21,346.92,638.24Zm34.63,0c0-7.65-5.41-12.88-12.6-12.88s-12.6,5.23-12.6,12.88,5.41,12.89,12.6,12.89S381.55,645.89,381.55,638.24Z"/><path d="M398,618.11h9.32v32.67h20.19v7.6H398Z"/><path d="M432.74,618.11h9.32v32.67h20.19v7.6H432.74Z"/><path d="M509.42,658.38l-7.77-11.22h-8.57v11.22h-9.32V618.11h17.43c10.76,0,17.49,5.58,17.49,14.61a13.09,13.09,0,0,1-8.28,12.71l9,13Zm-8.74-32.68h-7.6v14h7.6c5.69,0,8.57-2.65,8.57-7S506.37,625.7,500.68,625.7Z"/><path d="M557.22,650.9v7.48H526V618.11h30.43v7.48H535.3v8.74H554v7.25H535.3v9.32Z"/><path d="M591.16,649.75h-18.7l-3.56,8.63h-9.55l17.94-40.27h9.21l18,40.27h-9.78Zm-2.94-7.08-6.38-15.42-6.39,15.42Z"/><path d="M608.7,618.11H618v32.67h20.19v7.6H608.7Z"/><path d="M696.65,647.39c0,7-5.52,11-16.1,11H659.72V618.11H679.4c10.06,0,15.24,4.2,15.24,10.47a9.69,9.69,0,0,1-5.35,8.86A9.93,9.93,0,0,1,696.65,647.39ZM669,625.13v9.49h9.26c4.55,0,7-1.61,7-4.78s-2.47-4.71-7-4.71Zm18.3,21.28c0-3.39-2.59-5-7.42-5H669v10h10.88C684.69,651.36,687.28,649.86,687.28,646.41Z"/><path d="M729.38,658.38l-7.76-11.22H713v11.22h-9.31V618.11h17.43c10.75,0,17.48,5.58,17.48,14.61a13.07,13.07,0,0,1-8.28,12.71l9,13Zm-8.74-32.68H713v14h7.6c5.69,0,8.57-2.65,8.57-7S726.33,625.7,720.64,625.7Z"/><path d="M743.47,638.24c0-12,9.32-20.82,22-20.82s22,8.8,22,20.82-9.38,20.83-22,20.83S743.47,650.21,743.47,638.24Zm34.63,0c0-7.65-5.4-12.88-12.6-12.88s-12.59,5.23-12.59,12.88,5.4,12.89,12.59,12.89S778.1,645.89,778.1,638.24Z"/><path d="M854.09,618.11l-13.17,40.27h-10l-8.86-27.27-9.15,27.27H803l-13.23-40.27h9.66l9.09,28.3,9.5-28.3h8.62l9.21,28.53,9.38-28.53Z"/><path d="M910.75,649.92h-6.56v8.46H895.1v-8.46H873.41v-6.27l19-25.54h9.78l-17.61,24.22h10.82v-7.54h8.8v7.54h6.56Z"/><path d="M916,618.11h18.29c13.17,0,22.21,7.94,22.21,20.13s-9,20.14-22.21,20.14H916Zm17.83,32.61c8,0,13.23-4.77,13.23-12.48s-5.23-12.48-13.23-12.48h-8.51v25Z"/><path d="M988.17,625.7H975.28v-7.59h35.1v7.59H997.49v32.68h-9.32Z"/><path d="M1015.38,618.11h9.32v40.27h-9.32Z"/><path d="M1071.18,618.11v40.27h-7.65l-20.08-24.45v24.45h-9.21V618.11H1042l20,24.45V618.11Z"/><path d="M1089.06,625.7h-12.88v-7.59h35.09v7.59h-12.89v32.68h-9.32Z"/><path d="M107.4,798.55h7.48v6.27h-8.23L105.5,814H99l1.15-9.2H91.7L90.55,814H84.1l1.15-9.2H77.72v-6.27H86l1.21-9.32H79.67V783H88l1.15-9.2h6.44L94.4,783h8.46l1.15-9.2h6.44L109.3,783h7.48l.06,6.27h-8.29Zm-6.5,0,1.21-9.32H93.65l-1.21,9.32Z"/><path d="M120.23,793.89c0-13.29,7.36-20.82,17.25-20.82s17.26,7.53,17.26,20.82-7.3,20.82-17.26,20.82S120.23,807.18,120.23,793.89Zm25.13,0c0-9.15-3.22-12.94-7.88-12.94s-7.82,3.79-7.82,12.94,3.22,12.94,7.82,12.94S145.36,803,145.36,793.89Z"/><path d="M174.47,773.76V814h-9.32V781.23H157.1v-7.47Z"/><path d="M200.3,773.76h9.32v32.67h20.19V814H200.3Z"/><path d="M235,773.76h9.32V814H235Z"/><path d="M281.12,793.26h8.51v16.33a27.77,27.77,0,0,1-16.28,5.12c-12.66,0-22-8.68-22-20.82s9.32-20.82,22.15-20.82c7.08,0,12.94,2.41,16.86,7l-6,5.52A13.6,13.6,0,0,0,274,781c-7.82,0-13.17,5.24-13.17,12.89s5.35,12.89,13.06,12.89a14.76,14.76,0,0,0,7.25-1.73Z"/><path d="M335.19,773.76V814h-9.32V797.51h-18.3V814h-9.32V773.76h9.32v15.87h18.3V773.76Z"/><path d="M353.07,781.35H340.19v-7.59h35.09v7.59H362.39V814h-9.32Z"/><path d="M433.49,803c0,7-5.52,11-16.11,11H396.56V773.76h19.67c10.07,0,15.25,4.2,15.25,10.47a9.67,9.67,0,0,1-5.35,8.85A10,10,0,0,1,433.49,803Zm-27.67-22.27v9.5h9.26c4.55,0,7-1.61,7-4.78s-2.47-4.72-7-4.72Zm18.29,21.29c0-3.4-2.58-5-7.42-5H405.82v10h10.87C421.53,807,424.11,805.51,424.11,802.06Z"/><path d="M466.22,814l-7.77-11.21h-8.57V814h-9.32V773.76H458c10.76,0,17.49,5.58,17.49,14.61a13.09,13.09,0,0,1-8.28,12.71l9,12.94Zm-8.74-32.67h-7.6v14h7.6c5.69,0,8.57-2.65,8.57-7S463.17,781.35,457.48,781.35Z"/><path d="M480.31,793.89c0-12,9.32-20.82,22-20.82s22,8.8,22,20.82-9.38,20.82-22,20.82S480.31,805.86,480.31,793.89Zm34.63,0c0-7.65-5.41-12.89-12.6-12.89s-12.59,5.24-12.59,12.89,5.4,12.89,12.59,12.89S514.94,801.54,514.94,793.89Z"/><path d="M590.93,773.76,577.76,814h-10l-8.86-27.26L549.74,814h-10l-13.23-40.26h9.66l9.09,28.3,9.49-28.3h8.63l9.21,28.53L582,773.76Z"/><path d="M633,773.76V814h-7.65l-20.07-24.44V814H596.1V773.76h7.71l20,24.44V773.76Z"/><path d="M686.41,806.43V814H656v-6l15.54-14.66c3.56-3.4,4.19-5.47,4.19-7.43,0-3.16-2.18-5-6.44-5a9.84,9.84,0,0,0-8.34,4l-6.79-4.38c3.11-4.54,8.75-7.47,16-7.47,9,0,15,4.6,15,11.9,0,3.92-1.09,7.48-6.73,12.72l-9.26,8.74Z"/><path d="M720,793.26h8.51v16.33a27.77,27.77,0,0,1-16.28,5.12c-12.66,0-22-8.68-22-20.82s9.31-20.82,22.14-20.82c7.08,0,13,2.41,16.86,7l-6,5.52A13.64,13.64,0,0,0,712.87,781c-7.82,0-13.17,5.24-13.17,12.89s5.35,12.89,13.06,12.89a14.76,14.76,0,0,0,7.25-1.73Z"/><g id="_Rectangle_" data-name="&lt;Rectangle&gt;"><rect class="cls-1" x="74" y="78.49" width="921" height="272"/></g><path class="cls-2" d="M209.1,262.19V183.71L189.18,199.1l-13.13-18,35.15-25.81h23.11V262.19Z"/><path class="cls-2" d="M352.63,231.7a30.14,30.14,0,0,1-12.12,25.13A38,38,0,0,1,327.7,263a57.46,57.46,0,0,1-30.35,0,39,39,0,0,1-12.73-6.11,30.36,30.36,0,0,1-8.81-10.34,31,31,0,0,1-3.32-14.72,26,26,0,0,1,1.51-9,25.44,25.44,0,0,1,4.15-7.39,28,28,0,0,1,6.11-5.59,27.67,27.67,0,0,1,7.4-3.54V206A26.44,26.44,0,0,1,280,197.67q-4.68-5.82-4.68-14.72a27.7,27.7,0,0,1,3-13.13,28.25,28.25,0,0,1,8.15-9.58,36.29,36.29,0,0,1,11.92-5.81,50.83,50.83,0,0,1,14.19-2,51.86,51.86,0,0,1,14.11,1.89A36.55,36.55,0,0,1,338.6,160a28.6,28.6,0,0,1,8.22,9.43,26.74,26.74,0,0,1,3.1,13.06q0,8.91-4.53,14.94a23.73,23.73,0,0,1-11.77,8.45v.46a26.76,26.76,0,0,1,7.48,3.54,26.12,26.12,0,0,1,6,5.59,26.4,26.4,0,0,1,4.05,7.39A26,26,0,0,1,352.63,231.7Zm-25.2-.9a14,14,0,0,0-4.15-10.34,14.41,14.41,0,0,0-10.64-4.15,14.71,14.71,0,0,0-10.79,4.07,14,14,0,0,0-4.15,10.42,13.39,13.39,0,0,0,4.15,10.33A15.2,15.2,0,0,0,312.64,245c4.42,0,8-1.28,10.71-3.85S327.43,235.12,327.43,230.8Zm-2-46.49a11.36,11.36,0,0,0-3.78-8.75,12.87,12.87,0,0,0-9.05-3.48,12.43,12.43,0,0,0-9.21,3.48,11.87,11.87,0,0,0-3.47,8.75,12.83,12.83,0,0,0,3.4,8.9,11.83,11.83,0,0,0,9.28,3.78,12.22,12.22,0,0,0,9.21-3.78A12.43,12.43,0,0,0,325.47,184.31Z"/><path class="cls-2" d="M452.1,190.65a43.61,43.61,0,0,1-3.32,17.28,100.66,100.66,0,0,1-8.6,15.77l-25.79,38.49H383.78l26.58-36.83.31-.45a19.09,19.09,0,0,1-3.7.9,25,25,0,0,1-3.84.31,36.3,36.3,0,0,1-13.41-2.49,34.06,34.06,0,0,1-11.15-7.1A34.26,34.26,0,0,1,368,191.25a38.76,38.76,0,0,1,3.31-16.3,35.54,35.54,0,0,1,9-12.22,40.23,40.23,0,0,1,13.41-7.63,51.92,51.92,0,0,1,32.69,0,39.28,39.28,0,0,1,13.33,7.63,36.4,36.4,0,0,1,9,12.07A37,37,0,0,1,452.1,190.65Zm-25.21-.3a17.52,17.52,0,0,0-4.47-12q-4.47-5.06-12.21-5.06t-12.35,4.76q-4.64,4.75-4.63,12.45a16.67,16.67,0,0,0,4.55,12q4.55,4.75,12.13,4.75t12.28-4.68Q426.89,197.89,426.89,190.35Z"/><path class="cls-2" d="M482.28,280.9H461.9L473.22,238h23.7Z"/><path class="cls-2" d="M594.72,208.46A100.55,100.55,0,0,1,592.46,230a55.19,55.19,0,0,1-7.25,18,37.52,37.52,0,0,1-12.9,12.37q-7.93,4.6-19.25,4.61t-19.32-4.61a38,38,0,0,1-13-12.37,54.2,54.2,0,0,1-7.32-18,99.92,99.92,0,0,1-2.27-21.58A98.86,98.86,0,0,1,513.37,187a52.52,52.52,0,0,1,7.32-17.81,37.81,37.81,0,0,1,13-12.15q8-4.53,19.32-4.53T572.31,157a37.35,37.35,0,0,1,12.9,12.15A53.47,53.47,0,0,1,592.46,187,99.49,99.49,0,0,1,594.72,208.46Zm-26,0q0-5-.6-11a55.24,55.24,0,0,0-2.27-11.24,24.48,24.48,0,0,0-4.75-8.76,10.24,10.24,0,0,0-8.08-3.54,10.45,10.45,0,0,0-8.15,3.54,24.57,24.57,0,0,0-4.9,8.76,51.45,51.45,0,0,0-2.34,11.24c-.4,4-.61,7.7-.61,11s.21,7.17.61,11.24A51.45,51.45,0,0,0,540,231a24.65,24.65,0,0,0,4.9,8.76,10.45,10.45,0,0,0,8.15,3.54,10.24,10.24,0,0,0,8.08-3.54,24.57,24.57,0,0,0,4.75-8.76,55.21,55.21,0,0,0,2.27-11.32Q568.76,213.6,568.76,208.46Z"/><path class="cls-2" d="M692.22,208.46A99.92,99.92,0,0,1,690,230a55.18,55.18,0,0,1-7.24,18,37.52,37.52,0,0,1-12.9,12.37q-7.93,4.6-19.25,4.61t-19.32-4.61a38,38,0,0,1-13-12.37,54.2,54.2,0,0,1-7.32-18,99.92,99.92,0,0,1-2.27-21.58A98.86,98.86,0,0,1,610.87,187a52.52,52.52,0,0,1,7.32-17.81,37.81,37.81,0,0,1,13-12.15q8-4.53,19.32-4.53T669.81,157a37.35,37.35,0,0,1,12.9,12.15A53.46,53.46,0,0,1,690,187,98.86,98.86,0,0,1,692.22,208.46Zm-26,0a109.5,109.5,0,0,0-.61-11,54.58,54.58,0,0,0-2.26-11.24,24.48,24.48,0,0,0-4.75-8.76,10.24,10.24,0,0,0-8.08-3.54,10.44,10.44,0,0,0-8.15,3.54,24.57,24.57,0,0,0-4.9,8.76,51.45,51.45,0,0,0-2.34,11.24,109.5,109.5,0,0,0-.61,11q0,5.13.61,11.24A51.45,51.45,0,0,0,637.51,231a24.65,24.65,0,0,0,4.9,8.76,10.44,10.44,0,0,0,8.15,3.54,10.24,10.24,0,0,0,8.08-3.54,24.57,24.57,0,0,0,4.75-8.76,54.56,54.56,0,0,0,2.26-11.32Q666.26,213.6,666.26,208.46Z"/><path class="cls-2" d="M789.72,208.46A99.92,99.92,0,0,1,787.45,230a55.18,55.18,0,0,1-7.24,18,37.46,37.46,0,0,1-12.91,12.37q-7.92,4.6-19.24,4.61t-19.32-4.61a38,38,0,0,1-13-12.37,54,54,0,0,1-7.32-18,99.92,99.92,0,0,1-2.27-21.58A98.86,98.86,0,0,1,708.37,187a52.32,52.32,0,0,1,7.32-17.81,37.81,37.81,0,0,1,13-12.15q8-4.53,19.32-4.53T767.3,157a37.29,37.29,0,0,1,12.91,12.15A53.46,53.46,0,0,1,787.45,187,98.86,98.86,0,0,1,789.72,208.46Zm-26,0a109.5,109.5,0,0,0-.61-11,54.58,54.58,0,0,0-2.26-11.24,24.48,24.48,0,0,0-4.75-8.76,10.24,10.24,0,0,0-8.08-3.54,10.44,10.44,0,0,0-8.15,3.54,24.57,24.57,0,0,0-4.9,8.76,51.45,51.45,0,0,0-2.34,11.24,109.5,109.5,0,0,0-.61,11q0,5.13.61,11.24A51.45,51.45,0,0,0,735,231a24.65,24.65,0,0,0,4.9,8.76,10.44,10.44,0,0,0,8.15,3.54,10.24,10.24,0,0,0,8.08-3.54,24.57,24.57,0,0,0,4.75-8.76,54.56,54.56,0,0,0,2.26-11.32Q763.76,213.6,763.76,208.46Z"/><path class="cls-2" d="M863.22,262.19v-9.81h-.3a23.57,23.57,0,0,1-10.34,8.83,33.73,33.73,0,0,1-14.27,3.09A33.35,33.35,0,0,1,823.22,261,34.49,34.49,0,0,1,812,252.15a38.74,38.74,0,0,1-7-12.75,47.41,47.41,0,0,1-2.42-15.09,45.18,45.18,0,0,1,2.5-15,39.09,39.09,0,0,1,7.09-12.6A33.07,33.07,0,0,1,838,184.91a28.71,28.71,0,0,1,14,3.17A31.17,31.17,0,0,1,861,195h.31V176.16H838.77V162.73h22.49V148.09H886v14.64H893v13.43H886v86Zm-.91-37.73a20.61,20.61,0,0,0-4.9-13.29,18.09,18.09,0,0,0-5.66-4.37,16.63,16.63,0,0,0-7.55-1.66,17,17,0,0,0-7.7,1.66,17.39,17.39,0,0,0-9,10.41,22.92,22.92,0,0,0-1.13,7.1,23.53,23.53,0,0,0,1.13,7.16,18.48,18.48,0,0,0,3.4,6.27,16.74,16.74,0,0,0,13.28,6,16.63,16.63,0,0,0,7.55-1.67,18,18,0,0,0,5.66-4.37,20.05,20.05,0,0,0,3.62-6.19A20.41,20.41,0,0,0,862.31,224.46Z"/></svg>