<svg id="Layer_1" data-name="Layer 1" xmlns="http://www.w3.org/2000/svg" viewBox="0 0 2006 1123.99"><defs><style>.cls-1{fill:#c90202;}.cls-2{fill:#fff;}</style></defs><title>Image convert 1 body care fix text</title><path d="M87,492.91h39.81c28.67,0,48.33,17.28,48.33,43.82s-19.66,43.82-48.33,43.82H87Zm38.81,71c17.4,0,28.8-10.39,28.8-27.17s-11.4-27.17-28.8-27.17H107.24V563.9Z"/><path d="M269,504.93V542c0,25.79-14.77,40.06-39.68,40.06S189.62,567.78,189.62,542V492.91H209.9v48.33c0,16.65,7.26,23.54,19.53,23.54S249,557.89,249,541.24V492.91h13c4.51,0,7.51-3.25,7.51-7.88a12.06,12.06,0,0,0-2.5-7.52l11.52-4.25a20.24,20.24,0,0,1,4,12.52C282.52,495.67,277.63,502.55,269,504.93Z"/><path d="M381,536.73c0,26.17-20.4,45.32-48,45.32s-47.95-19.28-47.95-45.32,20.41-45.32,48.83-45.32c9.39,0,16.65,1.75,22.91,1.75s10.27-2.88,10.27-8.26a13.44,13.44,0,0,0-2.51-7.51l11.52-4.26a21.63,21.63,0,0,1,4,12.52c0,9.39-5.14,15.53-13.9,18C375.28,511.32,381,523.09,381,536.73Zm-20.53,0c0-16.52-11.77-28-27.42-28s-27.42,11.39-27.42,28,11.9,28,27.42,28S360.51,553.26,360.51,536.73ZM319,485.28h-9.9c.25-11.15,5.89-18.28,14.65-18.28s13,8,17.53,8c3.38,0,5.76-2.63,6-6.76h9.89c-.25,10.77-5.88,17.9-14.65,17.9s-13-7.89-17.53-7.89C321.57,478.26,319.2,480.77,319,485.28Z"/><path d="M476.69,492.91v87.64H460l-43.69-53.21v53.21h-20V492.91h16.78l43.57,53.21V492.91Z"/><path d="M556.69,535.36h18.53v35.55c-9.64,7.26-22.91,11.14-35.43,11.14-27.54,0-47.83-18.9-47.83-45.32s20.29-45.32,48.2-45.32c15.4,0,28.17,5.26,36.69,15.15l-13,12a29.66,29.66,0,0,0-22.66-9.89c-17,0-28.67,11.39-28.67,28,0,16.4,11.64,28,28.42,28A32.14,32.14,0,0,0,556.69,561Z"/><path d="M647.58,509.44h-28V492.91h76.37v16.53h-28v71.11H647.58Z"/><path d="M787.17,492.91v87.64H766.89V544.62H727.08v35.93H706.8V492.91h20.28v34.56h39.81V492.91Z"/><path d="M875.81,564.28v16.27H808V492.91h66.23v16.28H828.11v19H868.8V544H828.11v20.29Zm-45.44-78.5H816l16.65-14.28h17l16.65,14.28H851.9l-10.77-7.14Zm23.16-21.66-3.26-6a19.25,19.25,0,0,1,10.39-2.76c7,0,11.52,3.88,11.52,9.89,0,5-3.88,9-8.76,10.9l-4.76-4.64c3.38-1.62,4.63-3.63,4.63-5.25,0-2.26-1.75-3.63-4.25-3.63A11.06,11.06,0,0,0,853.53,464.12Z"/><path d="M921.88,536.73c0-26.41,20.28-45.32,47.58-45.32,15.14,0,27.79,5.51,36,15.53l-13,12c-5.88-6.76-13.27-10.26-22-10.26-16.4,0-28.05,11.52-28.05,28s11.65,28,28.05,28c8.76,0,16.15-3.51,22-10.39l13,12c-8.26,10.15-20.91,15.65-36.18,15.65C942.16,582.05,921.88,563.15,921.88,536.73Z"/><path d="M1075.12,561.77h-40.69l-7.76,18.78h-20.78L1045,492.91h20l39.19,87.64h-21.29Zm-6.39-15.4-13.89-33.55-13.9,33.55Z"/><path d="M1127.08,509.44h-28V492.91h76.37v16.53h-28v71.11h-20.28Z"/><path d="M1266.67,492.91v87.64h-20.28V544.62h-39.82v35.93h-20.28V492.91h20.28v34.56h39.82V492.91Z"/><path d="M1329.52,549.5v31h-20.29v-31.3l-33.92-56.34h21.53l23.41,38.94,23.41-38.94h19.91Z"/><path d="M1407.51,492.91h39.81c28.67,0,48.33,17.28,48.33,43.82s-19.66,43.82-48.33,43.82h-39.81Zm38.81,71c17.4,0,28.8-10.39,28.8-27.17s-11.4-27.17-28.8-27.17h-18.53V563.9Z"/><path d="M1505.41,536.73c0-26,20.28-45.32,47.95-45.32s48,19.16,48,45.32-20.4,45.32-48,45.32S1505.41,562.77,1505.41,536.73Zm75.37,0c0-16.65-11.77-28-27.42-28s-27.42,11.39-27.42,28,11.77,28,27.42,28S1580.78,553.38,1580.78,536.73Z"/><path d="M1616.59,492.91h20.28V564h43.94v16.52h-64.22Z"/><path d="M1692.2,492.91h20.28V564h44v16.52H1692.2Z"/><path d="M126.29,693.35,113.6,675h-14v18.33H84.37V627.56h28.48c17.58,0,28.57,9.11,28.57,23.87,0,9.87-5,17.11-13.53,20.77l14.76,21.15ZM112,640H99.6V662.9H112c9.31,0,14-4.33,14-11.47S121.31,640,112,640Z"/><path d="M204.4,681.13v12.22H153.46V627.56h49.72v12.21H168.59v14.29h30.55v11.85H168.59v15.22Z"/><path d="M259.86,679.25H229.31l-5.82,14.1H207.88l29.33-65.79h15l29.42,65.79h-16Zm-4.79-11.56L244.63,642.5,234.2,667.69Z"/><path d="M288.53,627.56h29.89c21.53,0,36.29,13,36.29,32.89s-14.76,32.9-36.29,32.9H288.53Zm29.14,53.29c13.07,0,21.62-7.8,21.62-20.4s-8.55-20.39-21.62-20.39H303.76v40.79Z"/><path d="M394.94,670v23.31H379.71v-23.5l-25.47-42.29h16.17L388,656.79l17.58-29.23H420.5Z"/><path d="M498.52,680.94v12.41H448.8v-9.87l25.38-24C480,654,481,650.58,481,647.39c0-5.17-3.57-8.18-10.53-8.18-5.64,0-10.43,2.16-13.63,6.58l-11.09-7.14c5.08-7.43,14.29-12.22,26.13-12.22,14.67,0,24.44,7.52,24.44,19.45,0,6.4-1.78,12.22-11,20.78l-15.14,14.28Z"/><path d="M635,627.56l-21.53,65.79H597.13L582.65,648.8l-14.94,44.55H551.45l-21.62-65.79h15.79l14.85,46.24L576,627.56h14.1l15,46.62,15.32-46.62Z"/><path d="M703.82,627.56v65.79H688.59v-27H658.7v27H643.47V627.56H658.7V653.5h29.89V627.56Z"/><path d="M719.43,627.56h15.22v65.79H719.43Z"/><path d="M763.89,640H742.83v-12.4h57.34V640H779.11v53.39H763.89Z"/><path d="M859.29,681.13v12.22H808.35V627.56h49.72v12.21H823.48v14.29H854v11.85H823.48v15.22Z"/><path d="M997.47,627.56l-21.53,65.79H959.59L945.11,648.8l-14.94,44.55H913.91l-21.62-65.79h15.79l14.85,46.24,15.51-46.24h14.1l15,46.62,15.32-46.62Z"/><path d="M1066.28,627.56v65.79h-15.23v-27h-29.89v27h-15.23V627.56h15.23V653.5h29.89V627.56Z"/><path d="M1081.89,627.56h15.22v65.79h-15.22Z"/><path d="M1126.35,640h-21.06v-12.4h57.34V640h-21.06v53.39h-15.22Z"/><path d="M1221.75,681.13v12.22h-50.94V627.56h49.72v12.21h-34.59v14.29h30.55v11.85h-30.55v15.22Z"/><path d="M1294.23,627.56v65.79h-12.51l-32.8-40v40h-15V627.56h12.6l32.71,39.94V627.56Z"/><path d="M1360.78,681.13v12.22h-51V627.56h49.73v12.21H1325v14.29h30.54v11.85H1325v15.22Z"/><path d="M1414.83,693.35,1402.14,675h-14v18.33h-15.22V627.56h28.48c17.57,0,28.57,9.11,28.57,23.87,0,9.87-5,17.11-13.53,20.77l14.75,21.15ZM1400.54,640h-12.41V662.9h12.41c9.31,0,14-4.33,14-11.47S1409.85,640,1400.54,640Z"/><path d="M144.71,788.2c0,11.37-9,17.95-26.32,17.95h-34V740.36h32.14c16.45,0,24.91,6.86,24.91,17.1a15.82,15.82,0,0,1-8.74,14.48C140,774.29,144.71,779.93,144.71,788.2ZM99.5,751.82v15.51h15.13c7.43,0,11.47-2.63,11.47-7.8s-4-7.71-11.47-7.71Zm29.89,34.78c0-5.55-4.23-8.18-12.12-8.18H99.5v16.26h17.77C125.16,794.68,129.39,792.24,129.39,786.6Z"/><path d="M152.14,773.25c0-19.55,15.23-34,36-34s36,14.38,36,34-15.32,34-36,34S152.14,792.8,152.14,773.25Zm56.59,0c0-12.5-8.84-21-20.59-21s-20.58,8.55-20.58,21,8.83,21.06,20.58,21.06S208.73,785.75,208.73,773.25Z"/><path d="M235.61,740.36H265.5c21.53,0,36.29,13,36.29,32.89s-14.76,32.9-36.29,32.9H235.61Zm29.14,53.29c13.07,0,21.62-7.8,21.62-20.4s-8.55-20.39-21.62-20.39H250.84v40.79Z"/><path d="M342,782.84v23.31H326.79v-23.5l-25.47-42.29h16.17l17.57,29.23,17.58-29.23h14.95Z"/><path d="M400.58,740.36h15.23v53.38h33v12.41H400.58Z"/><path d="M452.09,773.25c0-19.55,15.23-34,36-34s36,14.38,36,34-15.32,34-36,34S452.09,792.8,452.09,773.25Zm56.59,0c0-12.5-8.84-21-20.59-21s-20.58,8.55-20.58,21,8.83,21.06,20.58,21.06S508.68,785.75,508.68,773.25Z"/><path d="M548.25,752.76h-21v-12.4h57.34v12.4H563.48v53.39H548.25Z"/><path d="M592.72,740.36h15.22v65.79H592.72Z"/><path d="M619.41,773.25c0-19.55,15.23-34,36-34s36,14.38,36,34-15.32,34-36,34S619.41,792.8,619.41,773.25Zm56.59,0c0-12.5-8.84-21-20.59-21s-20.58,8.55-20.58,21,8.83,21.06,20.58,21.06S676,785.75,676,773.25Z"/><path d="M763.23,740.36v65.79h-12.5L717.92,766.2v39.95h-15V740.36h12.6l32.71,39.94V740.36Z"/><path d="M105.61,966v65.79H90.38V978.17H77.23V966Z"/><path d="M166.8,1011.07c0,11.66-8.55,21.81-27.35,21.81-9.12,0-18.7-2.54-25.1-7.05l6-11.66a31.66,31.66,0,0,0,18.71,5.93c7.61,0,12.31-3.2,12.31-8.56,0-5.17-3.39-8.55-15.32-8.55H119.24l3.39-37h40.13v12.21H135.32l-1,12.51h5.36C159.1,990.68,166.8,999.42,166.8,1011.07Z"/><path d="M173,998.85c0-21.71,12-34,28.2-34s28.2,12.31,28.2,34-11.94,34-28.2,34S173,1020.57,173,998.85Zm41.07,0c0-14.94-5.26-21.15-12.87-21.15s-12.79,6.21-12.79,21.15,5.27,21.15,12.79,21.15S214.08,1013.8,214.08,998.85Z"/><path d="M300.84,1031.75l-.09-39.48-19.36,32.53h-6.86l-19.27-31.68v38.63H241V966h12.6l24.62,40.88L302.44,966h12.5l.19,65.79Z"/><path d="M330.74,966H346v53.38h33v12.41H330.74Z"/><g id="_Rectangle_" data-name="&lt;Rectangle&gt;"><rect class="cls-1" x="74" y="78.49" width="921" height="272"/></g><path class="cls-2" d="M250.7,239.6v20.46h-82V243.79l41.85-39.52c9.61-9.15,11.32-14.73,11.32-20,0-8.52-5.89-13.48-17.36-13.48-9.3,0-17.21,3.56-22.48,10.85l-18.29-11.78c8.37-12.25,23.56-20.15,43.09-20.15,24.18,0,40.3,12.4,40.3,32.08,0,10.54-2.94,20.15-18.13,34.26L204,239.6Z"/><path class="cls-2" d="M341.22,226.89c0,18.29-14.11,35-45,35-15.19,0-30.85-4.18-41.39-11.62l9.77-19.22c8.21,6.2,19.68,9.77,31,9.77,12.55,0,20.3-5.12,20.3-14,0-8.21-6-13.32-20.3-13.32H284.18V197l22.32-25.26H260.31V151.57h75.95v16.27l-24.49,27.9C331.3,198.84,341.22,210.93,341.22,226.89Z"/><path class="cls-2" d="M439.49,203.49c0,37.51-22.48,58.43-55.34,58.43-11.47,0-22.47-2.63-30.07-7.44l9.3-18.44c5.89,4,12.87,5.43,20.31,5.43,18,0,29.76-10.7,30.53-31.62-6.35,6.35-15.65,9.76-27,9.76-20.92,0-37.35-13.33-37.35-33.79,0-22.16,18.13-36.11,41.07-36.11C421,149.71,439.49,168.46,439.49,203.49Zm-28.06-18.91c0-9.3-7-16.12-18.91-16.12-10.69,0-18.13,6.2-18.13,16.12s7.28,16.28,18.44,16.28S411.43,194,411.43,184.58Z"/><path class="cls-2" d="M478.86,246.12c0,4-.62,7-4.19,15.49l-8.83,22.32H450.49l6.82-24.64c-5.11-2-8.37-6.82-8.37-13.17,0-9,6.51-14.88,15-14.88S478.86,237.28,478.86,246.12Z"/><path class="cls-2" d="M488.16,205.82c0-35.81,19.84-56.11,46.5-56.11,26.81,0,46.5,20.3,46.5,56.11s-19.69,56.1-46.5,56.1C508,261.92,488.16,241.62,488.16,205.82Zm67.73,0c0-24.65-8.68-34.88-21.23-34.88-12.4,0-21.08,10.23-21.08,34.88s8.68,34.87,21.08,34.87C547.21,240.69,555.89,230.46,555.89,205.82Z"/><path class="cls-2" d="M593.4,205.82c0-35.81,19.84-56.11,46.5-56.11,26.82,0,46.5,20.3,46.5,56.11s-19.68,56.1-46.5,56.1C613.24,261.92,593.4,241.62,593.4,205.82Zm67.74,0c0-24.65-8.68-34.88-21.24-34.88-12.4,0-21.08,10.23-21.08,34.88s8.68,34.87,21.08,34.87C652.46,240.69,661.14,230.46,661.14,205.82Z"/><path class="cls-2" d="M698.64,205.82c0-35.81,19.84-56.11,46.5-56.11,26.82,0,46.5,20.3,46.5,56.11s-19.68,56.1-46.5,56.1C718.48,261.92,698.64,241.62,698.64,205.82Zm67.74,0c0-24.65-8.68-34.88-21.24-34.88-12.4,0-21.08,10.23-21.08,34.88s8.68,34.87,21.08,34.87C757.7,240.69,766.38,230.46,766.38,205.82Z"/><path class="cls-2" d="M905.26,168.15H893.94v91.91H870.85v-9.61c-6.05,7.29-14.88,10.86-26,10.86-23.56,0-41.7-16.75-41.7-42.94s18.14-42.93,41.7-42.93c10.23,0,18.91,3.25,25,10.07V168.15H841.4v-14h28.36v-9.14h24.18v9.14h11.32Zm-35,50.22c0-14.41-9.3-23.09-21.24-23.09-12.09,0-21.39,8.68-21.39,23.09s9.3,23.1,21.39,23.1C860.93,241.47,870.23,232.79,870.23,218.37Z"/></svg>