<svg id="Layer_1" data-name="Layer 1" xmlns="http://www.w3.org/2000/svg" viewBox="0 0 2006 880.99"><defs><style>.cls-1{fill:#c90202;}.cls-2{fill:#fff;}</style></defs><title>Image convert 1 mua 6 tặng 1</title><g id="_Rectangle_" data-name="&lt;Rectangle&gt;"><rect class="cls-1" x="77" y="78.49" width="921" height="272"/></g><path class="cls-2" d="M264.4,262.19H235l43.31-85.13H227.72V155.33H305.3v20.23Z"/><path class="cls-2" d="M406.42,190.65a43.61,43.61,0,0,1-3.32,17.28,99.76,99.76,0,0,1-8.59,15.77l-25.79,38.49H338.11l26.58-36.83.3-.45a19.17,19.17,0,0,1-3.69.9,25.19,25.19,0,0,1-3.84.31,36.3,36.3,0,0,1-13.41-2.49,34,34,0,0,1-11.15-7.1,34.36,34.36,0,0,1-10.55-25.28,38.73,38.73,0,0,1,3.32-16.3,35.54,35.54,0,0,1,9-12.22,40,40,0,0,1,13.41-7.63,50,50,0,0,1,16.27-2.64,50.46,50.46,0,0,1,16.42,2.64,39.28,39.28,0,0,1,13.33,7.63,36.4,36.4,0,0,1,9,12.07A37.13,37.13,0,0,1,406.42,190.65Zm-25.2-.3a17.52,17.52,0,0,0-4.48-12q-4.47-5.06-12.2-5.06c-5.16,0-9.27,1.59-12.36,4.76s-4.62,7.32-4.62,12.45a16.63,16.63,0,0,0,4.55,12q4.54,4.75,12.13,4.75t12.28-4.68Q381.22,197.89,381.22,190.35Z"/><path class="cls-2" d="M436.61,280.9H416.23L427.55,238h23.7Z"/><path class="cls-2" d="M549,208.46A99.92,99.92,0,0,1,546.78,230a55.18,55.18,0,0,1-7.24,18,37.46,37.46,0,0,1-12.91,12.37q-7.92,4.6-19.24,4.61t-19.32-4.61A37.88,37.88,0,0,1,475,248.08a54,54,0,0,1-7.32-18,99.92,99.92,0,0,1-2.27-21.58A98.86,98.86,0,0,1,467.7,187,52.32,52.32,0,0,1,475,169.14,37.72,37.72,0,0,1,488.07,157q8-4.53,19.32-4.53T526.63,157a37.29,37.29,0,0,1,12.91,12.15A53.46,53.46,0,0,1,546.78,187,98.87,98.87,0,0,1,549,208.46Zm-25.95,0c0-3.32-.21-7-.61-11a55.25,55.25,0,0,0-2.26-11.24,24.34,24.34,0,0,0-4.76-8.76,10.2,10.2,0,0,0-8.07-3.54,10.44,10.44,0,0,0-8.15,3.54,24.73,24.73,0,0,0-4.91,8.76A52.64,52.64,0,0,0,492,197.44q-.6,6-.6,11,0,5.13.6,11.24A52.63,52.63,0,0,0,494.33,231a24.82,24.82,0,0,0,4.91,8.76,10.44,10.44,0,0,0,8.15,3.54,10.2,10.2,0,0,0,8.07-3.54,24.43,24.43,0,0,0,4.76-8.76,55.22,55.22,0,0,0,2.26-11.32C522.88,215.63,523.09,211.88,523.09,208.46Z"/><path class="cls-2" d="M646.54,208.46A99.92,99.92,0,0,1,644.28,230a55.18,55.18,0,0,1-7.24,18,37.63,37.63,0,0,1-12.91,12.37q-7.92,4.6-19.24,4.61t-19.32-4.61a37.91,37.91,0,0,1-13.06-12.37,54.2,54.2,0,0,1-7.32-18,99.92,99.92,0,0,1-2.26-21.58A98.87,98.87,0,0,1,565.19,187a52.52,52.52,0,0,1,7.32-17.81A37.75,37.75,0,0,1,585.57,157q8-4.53,19.32-4.53T624.13,157A37.47,37.47,0,0,1,637,169.14,53.46,53.46,0,0,1,644.28,187,98.87,98.87,0,0,1,646.54,208.46Zm-26,0q0-5-.6-11a55.25,55.25,0,0,0-2.26-11.24,24.5,24.5,0,0,0-4.76-8.76,10.2,10.2,0,0,0-8.07-3.54,10.44,10.44,0,0,0-8.15,3.54,24.58,24.58,0,0,0-4.91,8.76,51.45,51.45,0,0,0-2.34,11.24q-.6,6-.6,11,0,5.13.6,11.24A51.45,51.45,0,0,0,591.83,231a24.67,24.67,0,0,0,4.91,8.76,10.44,10.44,0,0,0,8.15,3.54,10.2,10.2,0,0,0,8.07-3.54,24.58,24.58,0,0,0,4.76-8.76A55.22,55.22,0,0,0,620,219.7Q620.58,213.6,620.58,208.46Z"/><path class="cls-2" d="M744,208.46A99.92,99.92,0,0,1,741.78,230a55.19,55.19,0,0,1-7.25,18,37.52,37.52,0,0,1-12.9,12.37q-7.92,4.6-19.24,4.61t-19.32-4.61A37.91,37.91,0,0,1,670,248.08a54.2,54.2,0,0,1-7.32-18,99.92,99.92,0,0,1-2.26-21.58A98.87,98.87,0,0,1,662.69,187,52.52,52.52,0,0,1,670,169.14,37.75,37.75,0,0,1,683.07,157q8-4.53,19.32-4.53T721.63,157a37.35,37.35,0,0,1,12.9,12.15A53.47,53.47,0,0,1,741.78,187,98.87,98.87,0,0,1,744,208.46Zm-26,0q0-5-.6-11a54.57,54.57,0,0,0-2.27-11.24,24.33,24.33,0,0,0-4.75-8.76,10.2,10.2,0,0,0-8.07-3.54,10.44,10.44,0,0,0-8.15,3.54,24.58,24.58,0,0,0-4.91,8.76A51.45,51.45,0,0,0,687,197.44q-.6,6-.6,11,0,5.13.6,11.24A51.45,51.45,0,0,0,689.33,231a24.67,24.67,0,0,0,4.91,8.76,10.44,10.44,0,0,0,8.15,3.54,10.2,10.2,0,0,0,8.07-3.54,24.41,24.41,0,0,0,4.75-8.76,54.55,54.55,0,0,0,2.27-11.32Q718.08,213.6,718.08,208.46Z"/><path class="cls-2" d="M817.54,262.19v-9.81h-.3a23.46,23.46,0,0,1-10.34,8.83,33.69,33.69,0,0,1-14.26,3.09A33.29,33.29,0,0,1,777.55,261a34.53,34.53,0,0,1-11.25-8.83,38.54,38.54,0,0,1-7-12.75,47.41,47.41,0,0,1-2.42-15.09,45.43,45.43,0,0,1,2.49-15,38.92,38.92,0,0,1,7.1-12.6,33,33,0,0,1,25.88-11.78,28.74,28.74,0,0,1,14,3.17,31.17,31.17,0,0,1,8.9,6.95h.3V176.16H793.09V162.73h22.49V148.09h24.75v14.64h6.95v13.43h-6.95v86Zm-.9-37.73a20.55,20.55,0,0,0-4.91-13.29,18,18,0,0,0-5.66-4.37,16.59,16.59,0,0,0-7.54-1.66,17,17,0,0,0-7.7,1.66,17.39,17.39,0,0,0-9,10.41,22.92,22.92,0,0,0-1.13,7.1,23.53,23.53,0,0,0,1.13,7.16,18.31,18.31,0,0,0,3.4,6.27,16.74,16.74,0,0,0,13.28,6,16.59,16.59,0,0,0,7.54-1.67,17.84,17.84,0,0,0,5.66-4.37,20.08,20.08,0,0,0,3.63-6.19A20.41,20.41,0,0,0,816.64,224.46Z"/><path d="M69.45,511.12c0-26.42,20.28-45.32,47.58-45.32,15.14,0,27.79,5.51,36.05,15.52l-13,12c-5.88-6.76-13.27-10.26-22-10.26-16.4,0-28,11.51-28,28s11.65,28,28.05,28c8.76,0,16.15-3.5,22-10.39l13,12c-8.26,10.14-20.91,15.65-36.18,15.65C89.73,556.44,69.45,537.54,69.45,511.12Z"/><path d="M247.1,467.3v87.64H226.82V519H187v35.93H166.73V467.3H187v34.56h39.81V467.3Z"/><path d="M251.48,442.14h21l16.9,18H274.14Zm16.4,25.16h20.29v87.64H267.88Z"/><path d="M376.3,520.51l-11.77,12.27v22.16H344.38V467.3h20.15v40.94l38.81-40.94h22.54l-36.31,39.06L428,554.94H404.34Z"/><path d="M504.88,538.66v16.28H437V467.3h66.23v16.28H457.18v19h40.69v15.77H457.18v20.28Zm-43.95-94.27-4-7.89a21.81,21.81,0,0,1,13.53-4.25c8.89,0,15,5.38,15,13.39,0,7.14-3.88,12.27-11.52,15.78l-6.13-6.51c4.88-2.26,6.38-4.76,6.38-7.64,0-3.13-2.38-5.26-5.88-5.26A13.21,13.21,0,0,0,460.93,444.39Z"/><path d="M636.2,554.94l-.12-52.58-25.79,43.32h-9.14l-25.67-42.2v51.46h-19V467.3h16.78L606,521.76l32.3-54.46H655l.25,87.64Z"/><path d="M733.73,536.16H693l-7.76,18.78H664.49l39.07-87.64h20l39.19,87.64H741.49Zm-24-76-22.66-18h21l16.9,18Zm17.65,60.6-13.89-33.55-13.9,33.55Z"/><path d="M808.59,523.89v31.05H788.31v-31.3L754.38,467.3h21.54l23.41,38.94,23.41-38.94h19.91Z"/><path d="M966.34,554.94l-.13-52.58-25.79,43.32h-9.13l-25.67-42.2v51.46h-19V467.3h16.78l32.8,54.46,32.3-54.46h16.65l.25,87.64Z"/><path d="M1006.15,467.3h20.28v87.64h-20.28Z"/><path d="M1127.59,467.3v87.64h-16.65l-43.7-53.21v53.21h-20V467.3H1064l43.57,53.21V467.3Z"/><path d="M1148.37,467.3h20.28v87.64h-20.28Z"/><path d="M113.35,619.72c0,8.28-6.28,13-18.49,13h-23v-48.3H93.48c11.11,0,17.32,4.7,17.32,12.49a11.45,11.45,0,0,1-6.49,10.77C109.76,609.24,113.35,613.31,113.35,619.72ZM78.71,590.05v15.46H92.86c7,0,11-2.62,11-7.73s-4-7.73-11-7.73Zm27.67,29.12c0-5.59-4.14-8.07-11.8-8.07H78.71v16.08H94.58C102.24,627.18,106.38,624.76,106.38,619.17Z"/><path d="M159.1,626.76v6H124v-48.3h34.09v6H131V605.3h24.21v5.87H131v15.59Z"/><path d="M201.05,620.69H175.38l-5.31,12.07H163l21.87-48.3h6.83l22,48.3h-7.25Zm-2.42-5.52L188.21,591.5l-10.42,23.67Z"/><path d="M219.33,611.93V584.46h6.9v27.19c0,10.7,4.9,15.53,13.6,15.53s13.66-4.83,13.66-15.53V584.46h6.69v27.47c0,14-7.66,21.39-20.42,21.39S219.33,625.93,219.33,611.93Z"/><path d="M283,590.47H266.46v-6h40v6H289.85v42.29H283Z"/><path d="M331.87,616.07v16.69H325V615.93l-19.18-31.47h7.38l15.46,25.47,15.52-25.47h6.83Z"/><path d="M386.17,590.47H369.61v-6h39.95v6H393v42.29h-6.83Z"/><path d="M412.46,608.61c0-14.14,10.9-24.7,25.74-24.7s25.6,10.49,25.6,24.7-10.9,24.71-25.6,24.71S412.46,622.76,412.46,608.61Zm44.44,0c0-10.69-8-18.56-18.7-18.56s-18.84,7.87-18.84,18.56,8,18.57,18.84,18.57S456.9,619.31,456.9,608.61Z"/><path d="M526.38,608.34H533v18.84c-4.83,4.07-11.52,6.14-18.28,6.14-14.84,0-25.74-10.42-25.74-24.71s10.9-24.7,25.88-24.7c7.66,0,14.14,2.56,18.56,7.45l-4.28,4.28a19.17,19.17,0,0,0-14-5.59c-11.17,0-19.25,7.8-19.25,18.56s8.08,18.57,19.18,18.57a20.42,20.42,0,0,0,11.32-3.11Z"/><path d="M542.25,608.61c0-14.14,10.9-24.7,25.74-24.7,14.69,0,25.6,10.49,25.6,24.7s-10.91,24.71-25.6,24.71C553.15,633.32,542.25,622.76,542.25,608.61Zm44.44,0c0-10.69-8-18.56-18.7-18.56-10.84,0-18.84,7.87-18.84,18.56s8,18.57,18.84,18.57C578.68,627.18,586.69,619.31,586.69,608.61Z"/><path d="M657.76,626.76v6H622.7v-48.3h34.09v6H629.6V605.3h24.22v5.87H629.6v15.59Z"/><path d="M664.79,608.61c0-14.28,10.91-24.7,25.6-24.7,7.46,0,13.94,2.56,18.36,7.52l-4.49,4.35a17.9,17.9,0,0,0-13.59-5.73c-10.9,0-19,7.87-19,18.56s8.08,18.57,19,18.57a18,18,0,0,0,13.59-5.8l4.49,4.35c-4.42,5-10.9,7.59-18.43,7.59C675.7,633.32,664.79,622.9,664.79,608.61Z"/><path d="M713.65,608.61c0-14.14,10.9-24.7,25.73-24.7S765,594.4,765,608.61s-10.9,24.71-25.6,24.71S713.65,622.76,713.65,608.61Zm44.43,0c0-10.69-8-18.56-18.7-18.56s-18.83,7.87-18.83,18.56,8,18.57,18.83,18.57S758.08,619.31,758.08,608.61Z"/><path d="M817.08,584.46v48.3h-5.66l-29-36v36h-6.9v-48.3h5.66l29,36v-36Z"/><path d="M827.63,608.61c0-14.14,10.91-24.7,25.74-24.7S879,594.4,879,608.61s-10.9,24.71-25.6,24.71S827.63,622.76,827.63,608.61Zm44.44,0c0-10.69-8-18.56-18.7-18.56s-18.84,7.87-18.84,18.56,8,18.57,18.84,18.57S872.07,619.31,872.07,608.61Z"/><path d="M934.31,632.76l-.07-35.19L916.78,626.9h-3.17l-17.46-29.12v35h-6.62v-48.3h5.65l20.15,33.95,19.88-33.95h5.65l.07,48.3Z"/><path d="M973.91,616.07v16.69h-6.83V615.93L947.9,584.46h7.38l15.46,25.47,15.52-25.47h6.83Z"/><path d="M1053.68,626.76v6h-35.06v-48.3h34.09v6h-27.19V605.3h24.22v5.87h-24.22v15.59Z"/><path d="M1082.79,616.07v16.69H1076V615.93l-19.18-31.47h7.38l15.46,25.47,15.52-25.47H1102Z"/><path d="M1143.17,626.76v6h-35.05v-48.3h34.08v6H1115V605.3h24.21v5.87H1115v15.59Z"/><path d="M1214.44,619.72c0,8.28-6.27,13-18.49,13h-23v-48.3h21.66c11.11,0,17.32,4.7,17.32,12.49a11.46,11.46,0,0,1-6.48,10.77C1210.86,609.24,1214.44,613.31,1214.44,619.72Zm-34.63-29.67v15.46H1194c7,0,11-2.62,11-7.73s-4-7.73-11-7.73Zm27.66,29.12c0-5.59-4.13-8.07-11.79-8.07h-15.87v16.08h15.87C1203.34,627.18,1207.47,624.76,1207.47,619.17Z"/><path d="M1257.43,632.76,1247,617.93c-1,.07-2,.14-3,.14H1232v14.69h-6.9v-48.3H1244c12.55,0,20.14,6.35,20.14,16.84,0,7.45-3.86,12.83-10.62,15.25L1265,632.76Zm-.21-31.46c0-6.9-4.62-10.83-13.45-10.83H1232V612.2h11.73C1252.6,612.2,1257.22,608.2,1257.22,601.3Z"/><path d="M1271.37,608.61c0-14.14,10.9-24.7,25.74-24.7s25.59,10.49,25.59,24.7-10.9,24.71-25.59,24.71S1271.37,622.76,1271.37,608.61Zm44.43,0c0-10.69-8-18.56-18.69-18.56s-18.84,7.87-18.84,18.56,8,18.57,18.84,18.57S1315.8,619.31,1315.8,608.61Z"/><path d="M1400,584.46l-16.14,48.3h-7.25l-13.18-38.57-13.17,38.57h-7.39l-16.14-48.3h7.1l13,39.27,13.6-39.27h6.35l13.31,39.47,13.32-39.47Z"/><path d="M1467,601.3c0,10.49-7.59,16.84-20.15,16.84H1434.9v14.62H1428v-48.3h18.83C1459.39,584.46,1467,590.81,1467,601.3Zm-6.9,0c0-6.9-4.62-10.83-13.45-10.83H1434.9v21.66h11.73C1455.46,612.13,1460.08,608.2,1460.08,601.3Z"/><path d="M1512.18,626.76v6h-35.06v-48.3h34.09v6H1484V605.3h24.21v5.87H1484v15.59Z"/><path d="M1564.89,584.46v48.3h-5.66l-29-36v36h-6.89v-48.3H1529l29,36v-36Z"/><path d="M1575.45,608.61c0-14.28,10.9-24.7,25.6-24.7,7.45,0,13.94,2.56,18.35,7.52l-4.48,4.35a17.92,17.92,0,0,0-13.6-5.73c-10.9,0-19,7.87-19,18.56s8.07,18.57,19,18.57a18,18,0,0,0,13.6-5.8l4.48,4.35c-4.41,5-10.9,7.59-18.42,7.59C1586.35,633.32,1575.45,622.9,1575.45,608.61Z"/><path d="M1629.27,584.46h6.9v48.3h-6.9Z"/><path d="M1650.66,584.46h6.9v42.3h26.15v6h-33Z"/></svg>