<?xml version="1.0" encoding="utf-8"?>
<!-- Generator: Adobe Illustrator 22.1.0, SVG Export Plug-In . SVG Version: 6.00 Build 0)  -->
<svg version="1.1" id="Layer_1" xmlns="http://www.w3.org/2000/svg" xmlns:xlink="http://www.w3.org/1999/xlink" x="0px" y="0px"
	 viewBox="0 0 987 426.4" style="enable-background:new 0 0 987 426.4;" xml:space="preserve">
<style type="text/css">
	.st0{fill:#C90202;}
	.st1{fill:#FFFFFF;}
	.st2{enable-background:new    ;}
</style>
<title>Image convert 3</title>
<path d="M88.5,222.7l-6.1,6.3v9.9h-7.2v-38.5h7.2v19.7l19-19.7h8l-16.1,17.2l17.2,21.3h-8.4L88.5,222.7z"/>
<path d="M144.2,232.8v6h-28.9v-38.5h28.1v6h-21v10H141v5.9h-18.6v10.6H144.2z"/>
<path d="M187.5,238.8l-0.1-25.5l-12.6,21.1h-3.2L159,213.6v25.2h-6.8v-38.5h5.9l15.3,25.5l15-25.5h5.9l0.1,38.5H187.5z"/>
<path d="M217.1,219.6c0-11.5,8.8-19.8,20.6-19.8c6.3,0,11.7,2.3,15.2,6.4l-4.6,4.3c-2.6-2.9-6.4-4.6-10.3-4.5
	c-8,0-13.8,5.6-13.8,13.5S230,233,238,233c3.9,0.1,7.7-1.6,10.3-4.6l4.6,4.4c-3.6,4.2-9,6.4-15.3,6.4
	C225.9,239.4,217.1,231.1,217.1,219.6z"/>
<path d="M294.1,200.3v38.5H287v-16.5h-20v16.5h-7.1v-38.5h7.1v15.9h19.9v-15.9H294.1z"/>
<path d="M343.1,219.6c0,11.4-8.8,19.8-20.7,19.8s-20.7-8.4-20.7-19.8s8.8-19.8,20.7-19.8S343.1,208.1,343.1,219.6z M335.9,219.6
	c0-7.5-6.1-13.5-13.5-13.5s-13.5,6.1-13.5,13.5s6.1,13.5,13.5,13.5l0,0c7.2,0.2,13.3-5.4,13.5-12.7
	C335.9,220.1,335.9,219.9,335.9,219.6z M317.6,197.2h-5.7l7.4-5.9h6.2l7.4,5.9h-5.7l-4.8-3L317.6,197.2z M333.7,192.1h-5.3l6.3-6.4
	h7.3L333.7,192.1z"/>
<path d="M384.9,200.3v38.5H379l-21.2-26.1v26.1h-7.1v-38.5h5.9l21.2,26.1v-26.1H384.9z"/>
<path d="M421.6,219.1h6.8v15.3c-4.3,3.3-9.6,5-15.1,4.9c-11.9,0-20.7-8.3-20.7-19.8s8.8-19.8,20.8-19.8c6.4,0,11.8,2.2,15.5,6.3
	l-4.5,4.4c-2.8-2.9-6.6-4.5-10.6-4.4c-8.2,0-14,5.6-14,13.5c0,7.8,5.8,13.5,13.9,13.5c2.8,0.1,5.5-0.6,7.9-2L421.6,219.1z"/>
<path d="M487.1,200.3v38.5h-5.9l-21.2-26v26.1h-7.1v-38.5h5.9l21.2,26.1v-26.1h7.1V200.3z"/>
<path d="M522.4,229.9h-19.2l-3.8,8.9H492l17.3-38.5h7l17.4,38.5h-7.5L522.4,229.9z M503.4,191.3h4.4c0.2,1.7,2.3,2.7,5.1,2.7
	s4.9-1.1,5.1-2.7h4.4c-0.4,3.9-4.2,6.3-9.5,6.3S503.7,195.2,503.4,191.3z M520.1,224.3l-7.3-16.8l-7.2,16.8H520.1z M513.9,189.8
	h-5.3l6.3-6.4h7.4L513.9,189.8z"/>
<path d="M572.9,200.3v38.5H567l-21.2-26.1v26.1h-7.1v-38.5h5.9l21.2,26.1v-26.1H572.9z"/>
<path d="M609.5,219.1h6.8v15.3c-4.3,3.3-9.6,5-15.1,4.9c-11.9,0-20.7-8.3-20.7-19.8s8.8-19.8,20.8-19.8c6.4,0,11.8,2.2,15.5,6.3
	l-4.5,4.4c-2.8-2.9-6.6-4.5-10.6-4.4c-8.2,0-14,5.6-14,13.5c0,7.8,5.8,13.5,13.9,13.5c2.8,0.1,5.5-0.6,7.9-2L609.5,219.1z"/>
<path d="M638.1,219.6c0-11.5,8.8-19.8,20.6-19.8c6.3,0,11.7,2.3,15.2,6.4l-4.6,4.3c-2.6-2.9-6.4-4.6-10.3-4.5
	c-8,0-13.8,5.6-13.8,13.5S651,233,659,233c3.9,0.1,7.7-1.6,10.3-4.6l4.6,4.4c-3.6,4.2-9,6.4-15.3,6.4
	C646.9,239.4,638.1,231.1,638.1,219.6z"/>
<path d="M705,229.9h-19.3l-3.8,8.9h-7.4l17.3-38.5h7l17.4,38.5h-7.5L705,229.9z M702.6,224.3l-7.3-16.8l-7.2,16.8H702.6z"/>
<path d="M727.1,206.4h-12.8v-6H747v6h-12.8v32.4H727L727.1,206.4z"/>
<path d="M786.6,200.3v38.5h-7.2v-16.5h-19.9v16.5h-7.2v-38.5h7.2v15.9h19.9v-15.9H786.6z"/>
<path d="M813.5,225.2v13.6h-7.2v-13.4l-15.1-25h7.6l11.3,18.8l11.4-18.8h7L813.5,225.2z"/>
<path d="M75.2,266.3H92c12.5,0,21,7.7,21,19.2s-8.5,19.2-21,19.2H75.2V266.3z M91.7,298.8c8.6,0,14.1-5.2,14.1-13.2
	s-5.6-13.2-14.1-13.2h-9.4v26.4L91.7,298.8z"/>
<path d="M117.9,285.6c0-11.4,8.8-19.8,20.7-19.8s20.7,8.4,20.7,19.8s-8.8,19.8-20.7,19.8S117.9,297,117.9,285.6z M152.2,285.6
	c0-7.5-6.1-13.5-13.5-13.5s-13.5,6.1-13.5,13.5s6.1,13.5,13.5,13.5l0,0c7.2,0.2,13.3-5.4,13.5-12.7
	C152.2,286.2,152.2,285.9,152.2,285.6z"/>
<path d="M167,266.3h7.1v32.4h20.1v6.1H167V266.3z"/>
<path d="M199.9,266.3h7.1v32.4h20.1v6.1h-27.3L199.9,266.3L199.9,266.3z"/>
<path d="M248,266.3h7.1v32.4h20.1v6.1H248V266.3z"/>
<path d="M278.6,286.7h15.1v5.7h-15.1V286.7z"/>
<path d="M328.4,285.1h6.8v15.3c-4.3,3.3-9.6,5-15.1,4.9c-11.9,0-20.7-8.3-20.7-19.8s8.8-19.8,20.8-19.8c6.4,0,11.8,2.1,15.5,6.3
	l-4.5,4.4c-2.8-2.9-6.6-4.5-10.6-4.4c-8.2,0-14,5.6-14,13.5c0,7.8,5.8,13.5,13.9,13.5c2.8,0.1,5.5-0.6,7.9-2L328.4,285.1z"/>
<path d="M344.6,266.3h7.1v32.4h20.1v6.1h-27.3L344.6,266.3L344.6,266.3z"/>
<path d="M376.7,288.1v-21.7h7.1v21.4c0,7.9,3.6,11.3,9.8,11.3s9.7-3.4,9.7-11.3v-21.4h7v21.7c0,11.2-6.3,17.3-16.8,17.3
	S376.7,299.3,376.7,288.1z"/>
<path d="M427.5,272.4h-12.8v-6.1h32.7v6.1h-12.8v32.4h-7.1L427.5,272.4L427.5,272.4z"/>
<path d="M475.8,295.9h-19.2l-3.8,8.9h-7.4l17.3-38.5h7l17.4,38.5h-7.5L475.8,295.9z M473.5,290.3l-7.3-16.8l-7.2,16.8H473.5z"/>
<path d="M498,272.4h-12.8v-6.1h32.7v6.1h-12.8v32.4H498V272.4z"/>
<path d="M557.5,266.3v38.5h-7.2v-16.5h-19.9v16.5h-7.2v-38.5h7.2v15.9h19.9v-15.9H557.5z"/>
<path d="M567.8,266.3h7.2v38.5h-7.2V266.3z"/>
<path d="M582.6,285.6c0-11.4,8.8-19.8,20.7-19.8s20.7,8.4,20.7,19.8s-8.8,19.8-20.7,19.8S582.6,297,582.6,285.6z M616.9,285.6
	c0-7.5-6.1-13.5-13.5-13.5c-7.5,0-13.5,6.1-13.5,13.5c0,7.5,6.1,13.5,13.5,13.5c7.2,0.2,13.3-5.4,13.5-12.7
	C616.9,286.2,616.9,285.9,616.9,285.6z"/>
<path d="M665.9,266.3v38.5H660l-21.2-26.1v26.1h-7.1v-38.5h5.9l21.2,26.1v-26.1H665.9z"/>
<path d="M705.1,298.8v6h-28.9v-38.5h28.1v6h-21v10H702v5.9h-18.6v10.6H705.1z"/>
<path d="M763.6,304.8l-0.1-25.5l-12.6,21.1h-3.2L735,279.6v25.2h-6.8v-38.5h5.9l15.3,25.5l15-25.5h5.9v38.5L763.6,304.8z"/>
<path d="M805.7,295.9h-19.2l-3.8,8.9h-7.4l17.3-38.5h7l17.4,38.5h-7.5L805.7,295.9z M803.4,290.3l-7.3-16.8l-7.2,16.8H803.4z"/>
<path d="M847.7,285.1h6.8v15.3c-4.3,3.3-9.6,5-15.1,4.9c-11.9,0-20.7-8.3-20.7-19.8s8.8-19.8,20.8-19.8c6.4,0,11.8,2.1,15.5,6.3
	l-4.5,4.4c-2.8-2.9-6.6-4.5-10.6-4.4c-8.2,0-14,5.6-14,13.5c0,7.8,5.8,13.5,13.9,13.5c2.8,0.1,5.5-0.6,7.9-2L847.7,285.1z"/>
<path d="M863.9,266.3h7.1v38.5h-7.2L863.9,266.3z"/>
<path d="M878.7,285.6c0-11.5,8.8-19.8,20.6-19.8c6.3,0,11.7,2.3,15.2,6.4l-4.6,4.3c-2.6-2.9-6.4-4.6-10.3-4.5
	c-8,0-13.8,5.6-13.8,13.5s5.8,13.5,13.8,13.5c3.9,0.1,7.7-1.6,10.3-4.6l4.6,4.4c-3.6,4.2-9,6.4-15.3,6.4
	C887.5,305.4,878.7,297.1,878.7,285.6z"/>
<path d="M72.5,351.6c0-11.5,8.8-19.8,20.6-19.8c6.3,0,11.7,2.3,15.2,6.4l-4.6,4.3c-2.6-2.9-6.4-4.6-10.3-4.5
	c-8,0-13.7,5.6-13.7,13.5S85.5,365,93.4,365c3.9,0.1,7.7-1.6,10.3-4.6l4.6,4.4c-3.6,4.2-9,6.4-15.3,6.4
	C81.3,371.4,72.5,363.1,72.5,351.6z"/>
<path d="M140.4,370.8l-7.9-11.3c-0.5,0-1,0.1-1.5,0.1h-8.7v11.2h-7.1v-38.5H131c10.1,0,16.4,5.2,16.4,13.7
	c0.2,5.4-3.1,10.3-8.2,12.2l8.9,12.6L140.4,370.8L140.4,370.8z M130.7,338.4h-8.4v15.3h8.4c6.3,0,9.5-2.9,9.5-7.7
	S137,338.4,130.7,338.4z"/>
<path d="M184.3,364.8v6h-28.9v-38.5h28.1v6h-21v10h18.6v5.9h-18.5v10.6H184.3z"/>
<path d="M217.2,361.9H198l-3.8,8.9h-7.4l17.3-38.5h7l17.4,38.5H221L217.2,361.9z M214.9,356.3l-7.3-16.8l-7.2,16.8H214.9z"/>
<path d="M268.8,370.8v-25.5l-12.7,21.1h-3.2l-12.6-20.8v25.2h-6.8v-38.5h5.9l15.3,25.5l15-25.5h5.9l0.1,38.5L268.8,370.8z"/>
<path d="M311.7,332.3v38.5h-7.1v-32.5h-8.1v-6H311.7z"/>
<path d="M346.7,359.3c0,6.5-4.9,12.1-15.2,12.1c-5.4,0-10.9-1.6-14.5-4.5l3.1-5.6c3.2,2.5,7.2,3.8,11.3,3.8c5.1,0,8.1-2.2,8.1-5.8
	c0-3.6-2.5-5.7-8.4-5.7h-3.5v-4.9l8.8-10.4h-17.5v-6h26.2v4.8l-9.4,11.1C343,349.2,346.7,353.5,346.7,359.3z"/>
<path d="M382.6,359.8c0,7.1-6.2,11.6-15.8,11.6s-15.7-4.5-15.7-11.6c0-4.2,2.2-7.4,6.2-9.2c-3-1.5-4.9-4.7-4.8-8.1
	c0-6.6,5.8-10.7,14.3-10.7s14.4,4.1,14.4,10.7c0.1,3.4-1.8,6.6-4.9,8.1C380.4,352.4,382.6,355.5,382.6,359.8z M375.4,359.6
	c0-3.8-3.3-6.2-8.6-6.2s-8.5,2.4-8.5,6.2s3.2,6.2,8.5,6.2S375.4,363.5,375.4,359.6z M359.6,342.8c0,3.3,2.8,5.4,7.2,5.4
	s7.4-2.1,7.4-5.4c0-3.5-3-5.5-7.4-5.5S359.6,339.4,359.6,342.8L359.6,342.8z"/>
<path d="M425.4,370.8v-25.5l-12.7,21.1h-3.2l-12.6-20.8v25.2H390v-38.5h5.9l15.3,25.5l15-25.5h5.9l0.1,38.5L425.4,370.8z"/>
<path d="M442.5,332.3h7.1v32.4h20.1v6.1h-27.3L442.5,332.3L442.5,332.3z"/>
<g id="_Rectangle_">
	<rect x="75.4" y="37.6" class="st0" width="383" height="113.1"/>
</g>
<g>
	<path class="st1" d="M244.4-194.2v-36.2l-9.2,7.1l-6-8.3l16.2-11.9H256v49.2L244.4-194.2L244.4-194.2z"/>
	<path class="st1" d="M311.4-227.1c0,2.9-0.5,5.6-1.5,8s-2.3,4.8-4,7.3L294-194.1h-14l12.2-17l0.1-0.2c-0.5,0.2-1.1,0.3-1.7,0.4
		c-0.6,0.1-1.2,0.1-1.8,0.1c-2.2,0-4.2-0.4-6.2-1.1s-3.7-1.9-5.1-3.3c-1.5-1.4-2.7-3.1-3.5-5.1c-0.9-2-1.3-4.2-1.3-6.6
		c0-2.8,0.5-5.3,1.5-7.5s2.4-4.1,4.2-5.6c1.8-1.5,3.8-2.7,6.2-3.5c2.4-0.8,4.9-1.2,7.5-1.2c2.7,0,5.2,0.4,7.6,1.2s4.4,2,6.1,3.5
		s3.1,3.4,4.1,5.6C310.9-232.2,311.4-229.8,311.4-227.1z M299.8-227.3c0-2.1-0.7-4-2.1-5.5c-1.4-1.6-3.2-2.3-5.6-2.3
		s-4.3,0.7-5.7,2.2c-1.4,1.5-2.1,3.4-2.1,5.7c0,2.2,0.7,4.1,2.1,5.5s3.3,2.2,5.6,2.2c2.3,0,4.2-0.7,5.7-2.2
		C299.1-223.1,299.8-224.9,299.8-227.3z"/>
	<path class="st1" d="M356.3-227.1c0,2.9-0.5,5.6-1.5,8s-2.3,4.8-4,7.3L339-194.2h-14.1l12.2-17l0.1-0.2c-0.5,0.2-1.1,0.3-1.7,0.4
		c-0.6,0.1-1.2,0.1-1.8,0.1c-2.2,0-4.2-0.4-6.2-1.1s-3.7-1.9-5.1-3.3c-1.5-1.4-2.7-3.1-3.5-5.1c-0.9-2-1.3-4.2-1.3-6.6
		c0-2.8,0.5-5.3,1.5-7.5s2.4-4.1,4.2-5.6c1.8-1.5,3.8-2.7,6.2-3.5c2.4-0.8,4.9-1.2,7.5-1.2c2.7,0,5.2,0.4,7.6,1.2s4.4,2,6.1,3.5
		s3.1,3.4,4.1,5.6C355.8-232.2,356.3-229.8,356.3-227.1z M344.7-227.3c0-2.1-0.7-4-2.1-5.5c-1.4-1.6-3.2-2.3-5.6-2.3
		s-4.3,0.7-5.7,2.2c-1.4,1.5-2.1,3.4-2.1,5.7c0,2.2,0.7,4.1,2.1,5.5s3.3,2.2,5.6,2.2c2.3,0,4.2-0.7,5.7-2.2
		C344-223.1,344.7-224.9,344.7-227.3z"/>
	<path class="st1" d="M370.2-185.6h-9.4l5.2-19.7h11L370.2-185.6z"/>
	<path class="st1" d="M422-218.9c0,3.5-0.3,6.8-1,9.9c-0.7,3.2-1.8,5.9-3.3,8.3c-1.5,2.4-3.5,4.3-5.9,5.7s-5.4,2.1-8.9,2.1
		s-6.4-0.7-8.9-2.1c-2.5-1.4-4.5-3.3-6-5.7c-1.6-2.4-2.7-5.2-3.4-8.3c-0.7-3.2-1-6.5-1-9.9s0.3-6.8,1-9.9s1.8-5.9,3.4-8.2
		s3.6-4.2,6-5.6c2.5-1.4,5.4-2.1,8.9-2.1s6.4,0.7,8.9,2.1c2.4,1.4,4.4,3.3,5.9,5.6s2.6,5.1,3.3,8.2C421.7-225.7,422-222.4,422-218.9
		z M410.1-218.9c0-1.5-0.1-3.2-0.3-5.1c-0.2-1.9-0.5-3.6-1-5.2c-0.5-1.6-1.2-2.9-2.2-4s-2.2-1.6-3.7-1.6s-2.8,0.5-3.8,1.6
		s-1.7,2.4-2.3,4c-0.5,1.6-0.9,3.3-1.1,5.2s-0.3,3.5-0.3,5.1s0.1,3.3,0.3,5.2c0.2,1.9,0.5,3.6,1.1,5.2c0.5,1.6,1.3,2.9,2.3,4
		s2.2,1.6,3.8,1.6s2.8-0.5,3.7-1.6c0.9-1.1,1.7-2.4,2.2-4s0.9-3.3,1-5.2C410-215.6,410.1-217.3,410.1-218.9z"/>
	<path class="st1" d="M466.9-218.9c0,3.5-0.3,6.8-1,9.9c-0.7,3.2-1.8,5.9-3.3,8.3c-1.5,2.4-3.5,4.3-5.9,5.7s-5.4,2.1-8.9,2.1
		s-6.4-0.7-8.9-2.1c-2.5-1.4-4.5-3.3-6-5.7c-1.6-2.4-2.7-5.2-3.4-8.3c-0.7-3.2-1-6.5-1-9.9s0.3-6.8,1-9.9s1.8-5.9,3.4-8.2
		s3.6-4.2,6-5.6c2.5-1.4,5.4-2.1,8.9-2.1s6.4,0.7,8.9,2.1c2.4,1.4,4.4,3.3,5.9,5.6s2.6,5.1,3.3,8.2
		C466.6-225.7,466.9-222.4,466.9-218.9z M455-218.9c0-1.5-0.1-3.2-0.3-5.1c-0.2-1.9-0.5-3.6-1-5.2c-0.5-1.6-1.2-2.9-2.2-4
		s-2.2-1.6-3.7-1.6s-2.8,0.5-3.8,1.6s-1.7,2.4-2.3,4c-0.5,1.6-0.9,3.3-1.1,5.2s-0.3,3.5-0.3,5.1s0.1,3.3,0.3,5.2
		c0.2,1.9,0.5,3.6,1.1,5.2c0.5,1.6,1.3,2.9,2.3,4s2.2,1.6,3.8,1.6s2.8-0.5,3.7-1.6c0.9-1.1,1.7-2.4,2.2-4s0.9-3.3,1-5.2
		C454.9-215.6,455-217.3,455-218.9z"/>
	<path class="st1" d="M511.9-218.9c0,3.5-0.3,6.8-1,9.9c-0.7,3.2-1.8,5.9-3.3,8.3c-1.5,2.4-3.5,4.3-5.9,5.7s-5.4,2.1-8.9,2.1
		s-6.4-0.7-8.9-2.1c-2.5-1.4-4.5-3.3-6-5.7c-1.6-2.4-2.7-5.2-3.4-8.3c-0.7-3.2-1-6.5-1-9.9s0.3-6.8,1-9.9s1.8-5.9,3.4-8.2
		s3.6-4.2,6-5.6c2.5-1.4,5.4-2.1,8.9-2.1s6.4,0.7,8.9,2.1c2.4,1.4,4.4,3.3,5.9,5.6s2.6,5.1,3.3,8.2
		C511.5-225.7,511.9-222.4,511.9-218.9z M499.9-218.9c0-1.5-0.1-3.2-0.3-5.1c-0.2-1.9-0.5-3.6-1-5.2c-0.5-1.6-1.2-2.9-2.2-4
		s-2.2-1.6-3.7-1.6s-2.8,0.5-3.8,1.6s-1.7,2.4-2.3,4c-0.5,1.6-0.9,3.3-1.1,5.2s-0.3,3.5-0.3,5.1s0.1,3.3,0.3,5.2
		c0.2,1.9,0.5,3.6,1.1,5.2c0.5,1.6,1.3,2.9,2.3,4s2.2,1.6,3.8,1.6s2.8-0.5,3.7-1.6c0.9-1.1,1.7-2.4,2.2-4s0.9-3.3,1-5.2
		C499.8-215.6,499.9-217.3,499.9-218.9z"/>
	<path class="st1" d="M545.7-194.2v-4.5h-0.1c-1.1,1.8-2.7,3.1-4.8,4.1c-2.1,0.9-4.3,1.4-6.6,1.4c-2.6,0-4.9-0.5-7-1.5
		c-2-1-3.8-2.4-5.2-4.1c-1.4-1.7-2.5-3.6-3.2-5.9c-0.7-2.2-1.1-4.5-1.1-7c0-2.4,0.4-4.7,1.1-6.9c0.8-2.2,1.9-4.1,3.3-5.8
		c1.4-1.7,3.1-3,5.1-4s4.3-1.5,6.8-1.5s4.7,0.5,6.5,1.5s3.1,2,4.1,3.2h0.1v-8.7h-10.4v-6.2h10.4v-6.7h11.4v6.7h3.2v6.2h-3.2v39.6
		L545.7-194.2L545.7-194.2z M545.3-211.6c0-1.1-0.2-2.2-0.6-3.3c-0.4-1.1-1-2-1.7-2.9c-0.7-0.8-1.6-1.5-2.6-2s-2.2-0.8-3.5-0.8
		s-2.5,0.3-3.5,0.8s-1.9,1.2-2.6,2c-0.7,0.8-1.2,1.8-1.6,2.8c-0.3,1.1-0.5,2.2-0.5,3.3s0.2,2.2,0.5,3.3s0.9,2.1,1.6,2.9
		c0.7,0.8,1.6,1.5,2.6,2s2.2,0.8,3.5,0.8s2.5-0.3,3.5-0.8s1.9-1.2,2.6-2c0.7-0.8,1.3-1.8,1.7-2.9
		C545.1-209.4,545.3-210.4,545.3-211.6z"/>
</g>
<g class="st2">
	<path class="st1" d="M117.1,116.2V80.1l-9.2,7.1l-6-8.3L118.1,67h10.6v49.2H117.1z"/>
	<path class="st1" d="M184.1,83.3c0,2.9-0.5,5.6-1.5,8c-1,2.4-2.3,4.8-4,7.3l-11.9,17.7h-14.1l12.2-17l0.1-0.2
		c-0.5,0.2-1.1,0.3-1.7,0.4c-0.6,0.1-1.2,0.1-1.8,0.1c-2.2,0-4.2-0.4-6.2-1.1s-3.7-1.9-5.1-3.3c-1.5-1.4-2.7-3.1-3.5-5.1
		c-0.9-2-1.3-4.2-1.3-6.6c0-2.8,0.5-5.3,1.5-7.5c1-2.2,2.4-4.1,4.2-5.6s3.8-2.7,6.2-3.5c2.4-0.8,4.9-1.2,7.5-1.2
		c2.7,0,5.2,0.4,7.6,1.2c2.4,0.8,4.4,2,6.1,3.5c1.7,1.5,3.1,3.4,4.1,5.6C183.6,78.2,184.1,80.6,184.1,83.3z M172.5,83.1
		c0-2.1-0.7-4-2.1-5.5s-3.2-2.3-5.6-2.3c-2.4,0-4.3,0.7-5.7,2.2c-1.4,1.5-2.1,3.4-2.1,5.7c0,2.2,0.7,4.1,2.1,5.5
		c1.4,1.5,3.3,2.2,5.6,2.2c2.3,0,4.2-0.7,5.7-2.2C171.8,87.3,172.5,85.5,172.5,83.1z"/>
	<path class="st1" d="M229,83.3c0,2.9-0.5,5.6-1.5,8c-1,2.4-2.3,4.8-4,7.3l-11.9,17.7h-14.1l12.2-17l0.1-0.2
		c-0.5,0.2-1.1,0.3-1.7,0.4c-0.6,0.1-1.2,0.1-1.8,0.1c-2.2,0-4.2-0.4-6.2-1.1s-3.7-1.9-5.1-3.3c-1.5-1.4-2.7-3.1-3.5-5.1
		c-0.9-2-1.3-4.2-1.3-6.6c0-2.8,0.5-5.3,1.5-7.5s2.4-4.1,4.2-5.6c1.8-1.5,3.8-2.7,6.2-3.5c2.4-0.8,4.9-1.2,7.5-1.2
		c2.7,0,5.2,0.4,7.6,1.2c2.4,0.8,4.4,2,6.1,3.5c1.7,1.5,3.1,3.4,4.1,5.6C228.5,78.2,229,80.6,229,83.3z M217.4,83.1
		c0-2.1-0.7-4-2.1-5.5c-1.4-1.6-3.2-2.3-5.6-2.3c-2.4,0-4.3,0.7-5.7,2.2c-1.4,1.5-2.1,3.4-2.1,5.7c0,2.2,0.7,4.1,2.1,5.5
		c1.4,1.5,3.3,2.2,5.6,2.2c2.3,0,4.2-0.7,5.7-2.2C216.7,87.3,217.4,85.5,217.4,83.1z"/>
	<path class="st1" d="M242.9,124.9h-9.4l5.2-19.7h10.9L242.9,124.9z"/>
	<path class="st1" d="M294.7,91.5c0,3.5-0.3,6.8-1,9.9c-0.7,3.2-1.8,5.9-3.3,8.3c-1.5,2.4-3.5,4.3-5.9,5.7c-2.4,1.4-5.4,2.1-8.9,2.1
		c-3.5,0-6.4-0.7-8.9-2.1c-2.5-1.4-4.5-3.3-6-5.7c-1.6-2.4-2.7-5.2-3.4-8.3c-0.7-3.2-1-6.5-1-9.9c0-3.5,0.3-6.8,1-9.9
		c0.7-3.1,1.8-5.9,3.4-8.2c1.6-2.3,3.6-4.2,6-5.6c2.5-1.4,5.4-2.1,8.9-2.1c3.5,0,6.4,0.7,8.9,2.1c2.4,1.4,4.4,3.3,5.9,5.6
		c1.5,2.3,2.6,5.1,3.3,8.2C294.4,84.7,294.7,88,294.7,91.5z M282.7,91.5c0-1.5-0.1-3.2-0.3-5.1c-0.2-1.9-0.5-3.6-1-5.2
		c-0.5-1.6-1.2-2.9-2.2-4s-2.2-1.6-3.7-1.6s-2.8,0.5-3.8,1.6c-1,1.1-1.7,2.4-2.3,4c-0.5,1.6-0.9,3.3-1.1,5.2
		c-0.2,1.9-0.3,3.5-0.3,5.1c0,1.6,0.1,3.3,0.3,5.2c0.2,1.9,0.5,3.6,1.1,5.2c0.5,1.6,1.3,2.9,2.3,4c1,1.1,2.2,1.6,3.8,1.6
		s2.8-0.5,3.7-1.6s1.7-2.4,2.2-4c0.5-1.6,0.9-3.3,1-5.2C282.7,94.8,282.7,93.1,282.7,91.5z"/>
	<path class="st1" d="M339.6,91.5c0,3.5-0.3,6.8-1,9.9c-0.7,3.2-1.8,5.9-3.3,8.3c-1.5,2.4-3.5,4.3-5.9,5.7c-2.4,1.4-5.4,2.1-8.9,2.1
		c-3.5,0-6.4-0.7-8.9-2.1c-2.5-1.4-4.5-3.3-6-5.7c-1.6-2.4-2.7-5.2-3.4-8.3c-0.7-3.2-1-6.5-1-9.9c0-3.5,0.3-6.8,1-9.9
		c0.7-3.1,1.8-5.9,3.4-8.2c1.6-2.3,3.6-4.2,6-5.6c2.5-1.4,5.4-2.1,8.9-2.1c3.5,0,6.4,0.7,8.9,2.1c2.4,1.4,4.4,3.3,5.9,5.6
		c1.5,2.3,2.6,5.1,3.3,8.2C339.3,84.7,339.6,88,339.6,91.5z M327.7,91.5c0-1.5-0.1-3.2-0.3-5.1c-0.2-1.9-0.5-3.6-1-5.2
		c-0.5-1.6-1.2-2.9-2.2-4c-1-1.1-2.2-1.6-3.7-1.6s-2.8,0.5-3.8,1.6s-1.7,2.4-2.3,4c-0.5,1.6-0.9,3.3-1.1,5.2
		c-0.2,1.9-0.3,3.5-0.3,5.1c0,1.6,0.1,3.3,0.3,5.2c0.2,1.9,0.5,3.6,1.1,5.2c0.5,1.6,1.3,2.9,2.3,4s2.2,1.6,3.8,1.6s2.8-0.5,3.7-1.6
		c0.9-1.1,1.7-2.4,2.2-4c0.5-1.6,0.9-3.3,1-5.2C327.6,94.8,327.7,93.1,327.7,91.5z"/>
	<path class="st1" d="M384.5,91.5c0,3.5-0.3,6.8-1,9.9c-0.7,3.2-1.8,5.9-3.3,8.3c-1.5,2.4-3.5,4.3-5.9,5.7c-2.4,1.4-5.4,2.1-8.9,2.1
		c-3.5,0-6.4-0.7-8.9-2.1c-2.5-1.4-4.5-3.3-6-5.7c-1.6-2.4-2.7-5.2-3.4-8.3c-0.7-3.2-1-6.5-1-9.9c0-3.5,0.3-6.8,1-9.9
		c0.7-3.1,1.8-5.9,3.4-8.2c1.6-2.3,3.6-4.2,6-5.6c2.5-1.4,5.4-2.1,8.9-2.1c3.5,0,6.4,0.7,8.9,2.1c2.4,1.4,4.4,3.3,5.9,5.6
		c1.5,2.3,2.6,5.1,3.3,8.2C384.2,84.7,384.5,88,384.5,91.5z M372.6,91.5c0-1.5-0.1-3.2-0.3-5.1c-0.2-1.9-0.5-3.6-1-5.2
		c-0.5-1.6-1.2-2.9-2.2-4s-2.2-1.6-3.7-1.6s-2.8,0.5-3.8,1.6c-1,1.1-1.7,2.4-2.3,4c-0.5,1.6-0.9,3.3-1.1,5.2
		c-0.2,1.9-0.3,3.5-0.3,5.1c0,1.6,0.1,3.3,0.3,5.2c0.2,1.9,0.5,3.6,1.1,5.2c0.5,1.6,1.3,2.9,2.3,4c1,1.1,2.2,1.6,3.8,1.6
		s2.8-0.5,3.7-1.6s1.7-2.4,2.2-4c0.5-1.6,0.9-3.3,1-5.2C372.5,94.8,372.6,93.1,372.6,91.5z"/>
	<path class="st1" d="M418.4,116.2v-4.5h-0.1c-1.1,1.8-2.7,3.1-4.8,4.1c-2.1,0.9-4.3,1.4-6.6,1.4c-2.6,0-4.9-0.5-7-1.5
		c-2-1-3.8-2.4-5.2-4.1c-1.4-1.7-2.5-3.6-3.2-5.9c-0.7-2.2-1.1-4.5-1.1-7c0-2.4,0.4-4.7,1.1-6.9c0.8-2.2,1.9-4.1,3.3-5.8
		c1.4-1.7,3.1-3,5.1-4c2-1,4.3-1.5,6.8-1.5c2.5,0,4.7,0.5,6.5,1.5c1.8,1,3.1,2,4.1,3.2h0.1v-8.7h-10.4v-6.2h10.4v-6.7h11.4v6.7h3.2
		v6.2h-3.2v39.6H418.4z M418,98.9c0-1.1-0.2-2.2-0.6-3.3c-0.4-1.1-1-2-1.7-2.9c-0.7-0.8-1.6-1.5-2.6-2c-1-0.5-2.2-0.8-3.5-0.8
		c-1.3,0-2.5,0.3-3.5,0.8c-1,0.5-1.9,1.2-2.6,2c-0.7,0.8-1.2,1.8-1.6,2.8c-0.3,1.1-0.5,2.2-0.5,3.3s0.2,2.2,0.5,3.3
		c0.3,1.1,0.9,2.1,1.6,2.9c0.7,0.8,1.6,1.5,2.6,2c1,0.5,2.2,0.8,3.5,0.8c1.3,0,2.5-0.3,3.5-0.8c1-0.5,1.9-1.2,2.6-2
		c0.7-0.8,1.3-1.8,1.7-2.8C417.8,101.1,418,100,418,98.9z"/>
</g>
</svg>
