<svg id="Layer_1" data-name="Layer 1" xmlns="http://www.w3.org/2000/svg" viewBox="0 0 996 360.41"><defs><style>.cls-1{fill:#c90202;}.cls-2{fill:#fff;}</style></defs><title>Image convert 4 (chăm sóc da mặt và tẩy trang) text fix</title><path d="M49.28,189.87H55v13.77h.14l13.32-13.77h7.65l-14.9,14.71,15.89,17.15h-8l-14-16H55v16H49.28Z"/><path d="M80.29,189.87h21.1v4.95H86v8.1h14.62v4.77H86v9H102.2v5H80.29Z"/><path d="M107.74,189.87h8.86l8.28,22.63H125l8.19-22.63h8.91v31.86h-5.63V196.12h-.09l-9.67,25.61h-4l-9.54-25.61h-.09v25.61h-5.4Z"/><path d="M158.86,205.71a17.73,17.73,0,0,1,1.28-6.91,15.1,15.1,0,0,1,3.55-5.24,15.84,15.84,0,0,1,5.4-3.33,19.34,19.34,0,0,1,6.82-1.17,19.66,19.66,0,0,1,6.89,1.17,15.92,15.92,0,0,1,5.44,3.33,15,15,0,0,1,3.58,5.24,17.91,17.91,0,0,1,1.28,6.91,17.62,17.62,0,0,1-1.28,6.81,15.7,15.7,0,0,1-3.58,5.31,16.24,16.24,0,0,1-5.44,3.47,18.8,18.8,0,0,1-6.89,1.24,18.5,18.5,0,0,1-6.82-1.24,16.16,16.16,0,0,1-5.4-3.47,15.77,15.77,0,0,1-3.55-5.31A17.43,17.43,0,0,1,158.86,205.71Zm6.16,0a13.4,13.4,0,0,0,.79,4.7,10.83,10.83,0,0,0,2.25,3.71,10.24,10.24,0,0,0,3.46,2.45,11.67,11.67,0,0,0,8.89,0,10.26,10.26,0,0,0,3.49-2.45,11.15,11.15,0,0,0,2.25-3.71,13.63,13.63,0,0,0,.79-4.7,13.17,13.17,0,0,0-.79-4.59,11.28,11.28,0,0,0-2.23-3.69,10.3,10.3,0,0,0-3.46-2.48,11,11,0,0,0-4.5-.9,10.8,10.8,0,0,0-4.48.9,10.32,10.32,0,0,0-3.44,2.48,11.11,11.11,0,0,0-2.23,3.69A12.94,12.94,0,0,0,165,205.71Zm14.22-17.91-3.1-4.05L173,187.8h-5l5.18-6.48h6.07l5.13,6.48Zm5.4-11.48h5.94l-5.31,6.21H181.4Z"/><path d="M221.59,197.34a7.24,7.24,0,0,0-3.29-2.5,10.78,10.78,0,0,0-4-.79,11,11,0,0,0-4.5.9,10.62,10.62,0,0,0-3.49,2.48,11.16,11.16,0,0,0-2.25,3.69,13.17,13.17,0,0,0-.78,4.59,14.21,14.21,0,0,0,.76,4.77,10.87,10.87,0,0,0,2.18,3.71,9.94,9.94,0,0,0,3.4,2.41,11.16,11.16,0,0,0,4.46.85,9.89,9.89,0,0,0,4.54-1,9,9,0,0,0,3.2-2.68l4.54,3.2a14.47,14.47,0,0,1-5.17,4.11,16.38,16.38,0,0,1-7.16,1.47,18.56,18.56,0,0,1-6.86-1.24,15.53,15.53,0,0,1-8.89-8.78,17.8,17.8,0,0,1-1.26-6.81,17.21,17.21,0,0,1,1.33-6.91,15.31,15.31,0,0,1,3.64-5.24,16.24,16.24,0,0,1,5.47-3.33,19.49,19.49,0,0,1,6.84-1.17,18,18,0,0,1,3.2.29,15.55,15.55,0,0,1,3.19.9,15.18,15.18,0,0,1,2.88,1.51,9.29,9.29,0,0,1,2.3,2.16Z"/><path d="M257.41,196.53a6.83,6.83,0,0,0-2.55-2,7.47,7.47,0,0,0-3.3-.79,7.9,7.9,0,0,0-2,.25,6,6,0,0,0-1.8.76,4.29,4.29,0,0,0-1.33,1.35,3.71,3.71,0,0,0-.52,2,3.56,3.56,0,0,0,.45,1.84,4.06,4.06,0,0,0,1.24,1.31,8.29,8.29,0,0,0,1.91.94c.75.27,1.58.54,2.48.81s2.07.71,3.17,1.13a12.24,12.24,0,0,1,3,1.66,8.13,8.13,0,0,1,2.25,2.61,7.92,7.92,0,0,1,.88,3.92,10,10,0,0,1-.94,4.47,9.22,9.22,0,0,1-2.52,3.18,10.75,10.75,0,0,1-3.69,1.89,15.56,15.56,0,0,1-4.46.63,16.81,16.81,0,0,1-6.07-1.15,11.78,11.78,0,0,1-4.86-3.4l4.05-3.78a8.16,8.16,0,0,0,3.12,2.57,8.82,8.82,0,0,0,3.85.94,8.48,8.48,0,0,0,2-.25,5.23,5.23,0,0,0,1.86-.83,4.59,4.59,0,0,0,1.35-1.46,4.19,4.19,0,0,0,.52-2.18,3.59,3.59,0,0,0-.58-2.1,5.38,5.38,0,0,0-1.58-1.44,11.58,11.58,0,0,0-2.34-1.05l-2.83-.95a28.09,28.09,0,0,1-2.88-1.08,9.47,9.47,0,0,1-2.59-1.66,8,8,0,0,1-1.87-2.55,8.65,8.65,0,0,1-.72-3.75,8.31,8.31,0,0,1,1-4.19,8.91,8.91,0,0,1,2.66-2.9,11.57,11.57,0,0,1,3.73-1.71,16.18,16.18,0,0,1,4.26-.56,15.07,15.07,0,0,1,4.92.85,12,12,0,0,1,4.35,2.57Z"/><path d="M267,189.87H288.1v4.95H272.66v8.1h14.63v4.77H272.66v9h16.25v5H267Zm13.82-2.52-3.11-4-3.1,4h-5l5.17-6.48h6.08l5.13,6.48Z"/><path d="M294.44,189.87H302l14.8,23.85h.09V189.87h5.67v31.86h-7.2L300.2,197.11h-.09v24.62h-5.67Z"/><path d="M346.15,194.82h-9.77v-4.95h25.2v4.95h-9.76v26.91h-5.67Z"/><path d="M365.27,189.87h5.67v31.86h-5.67Z"/><path d="M378,189.87h7.52l14.8,23.85h.09V189.87H406v31.86h-7.2l-15.12-24.62h-.09v24.62H378Z"/><path d="M413.06,189.87h5.67v12.87h14.9V189.87h5.67v31.86h-5.67V207.6h-14.9v14.13h-5.67Z"/><path d="M480.56,197.34a7.22,7.22,0,0,0-3.28-2.5,10.82,10.82,0,0,0-4-.79,11,11,0,0,0-4.5.9,10.52,10.52,0,0,0-3.49,2.48,10.84,10.84,0,0,0-2.25,3.69,12.94,12.94,0,0,0-.79,4.59,14.2,14.2,0,0,0,.77,4.77,10.71,10.71,0,0,0,2.18,3.71,9.84,9.84,0,0,0,3.4,2.41,11.11,11.11,0,0,0,4.45.85,9.93,9.93,0,0,0,4.55-1,8.92,8.92,0,0,0,3.19-2.68l4.55,3.2a14.5,14.5,0,0,1-5.18,4.11,16.33,16.33,0,0,1-7.15,1.47,18.65,18.65,0,0,1-6.87-1.24,15.84,15.84,0,0,1-5.37-3.47,15.68,15.68,0,0,1-3.51-5.31,17.8,17.8,0,0,1-1.26-6.81,17.38,17.38,0,0,1,1.32-6.91,15.34,15.34,0,0,1,3.65-5.24,16.15,16.15,0,0,1,5.47-3.33,19.49,19.49,0,0,1,6.84-1.17,18,18,0,0,1,3.19.29,15.64,15.64,0,0,1,3.2.9,15.18,15.18,0,0,1,2.88,1.51,9.25,9.25,0,0,1,2.29,2.16Z"/><path d="M488.89,189.87h5.67v12.87h14.89V189.87h5.67v31.86h-5.67V207.6H494.56v14.13h-5.67Z"/><path d="M532.13,189.87H537l13.72,31.86h-6.48l-3-7.29H527.5l-2.88,7.29h-6.35Zm5.54-2.07-3.11-4.05-3.1,4.05h-5l5.17-6.48h6.08l5.13,6.48Zm1.66,21.78-4.9-13-5,13Zm3.74-33.26H549l-5.31,6.21h-3.87Z"/><path d="M560.34,194.82h-9.76v-4.95h25.2v4.95H566v26.91h-5.68Z"/><path d="M584.87,189.87h6.35L600,214.39h.18L609,189.87h6.12l-12.78,31.86h-4.91Z"/><path d="M626.86,189.87h4.9l13.73,31.86H639l-3-7.29H622.22l-2.88,7.29H613Zm4.63-2.52h-4.23l-6.34-6.48H627Zm2.57,22.23-4.91-13-5,13Z"/><path d="M648.63,189.87h7.52L671,213.72H671V189.87h5.67v31.86h-7.19L654.4,197.11h-.09v24.62h-5.68Z"/><path d="M711.64,220.06a24.48,24.48,0,0,1-5.34,1.82,30.27,30.27,0,0,1-6.68.66,19.49,19.49,0,0,1-7.06-1.24,16.21,16.21,0,0,1-5.5-3.47,15.68,15.68,0,0,1-3.57-5.31,18.75,18.75,0,0,1,0-13.72,15.34,15.34,0,0,1,3.65-5.24,16,16,0,0,1,5.47-3.33,19.4,19.4,0,0,1,6.83-1.17,21.06,21.06,0,0,1,7,1.1,14.16,14.16,0,0,1,5.11,2.9l-3.91,4.23a9.7,9.7,0,0,0-3.4-2.29,11.85,11.85,0,0,0-4.75-.95,11.26,11.26,0,0,0-4.57.9,10.28,10.28,0,0,0-3.48,2.48,11,11,0,0,0-2.23,3.69,12.94,12.94,0,0,0-.79,4.59,13.4,13.4,0,0,0,.79,4.7,10.83,10.83,0,0,0,2.25,3.71,10,10,0,0,0,3.55,2.45,12.12,12.12,0,0,0,4.75.88,16.45,16.45,0,0,0,6.35-1.12v-8.1h-6.71v-4.68h12.2Z"/><path d="M72.28,251.34a7.24,7.24,0,0,0-3.29-2.5,10.78,10.78,0,0,0-4-.79,11,11,0,0,0-4.5.9A10.62,10.62,0,0,0,57,251.43a11.16,11.16,0,0,0-2.25,3.69,13.17,13.17,0,0,0-.78,4.59,14.21,14.21,0,0,0,.76,4.77A10.73,10.73,0,0,0,57,268.19a9.8,9.8,0,0,0,3.39,2.41,11.16,11.16,0,0,0,4.46.85,9.89,9.89,0,0,0,4.54-1,9,9,0,0,0,3.2-2.68l4.54,3.2a14.47,14.47,0,0,1-5.17,4.11,16.38,16.38,0,0,1-7.16,1.47,18.56,18.56,0,0,1-6.86-1.24A15.53,15.53,0,0,1,49,266.52a17.8,17.8,0,0,1-1.26-6.81,17.21,17.21,0,0,1,1.33-6.91,15.31,15.31,0,0,1,3.64-5.24,16.24,16.24,0,0,1,5.47-3.33A19.49,19.49,0,0,1,65,243.06a18,18,0,0,1,3.2.29,15.55,15.55,0,0,1,3.19.9,15.18,15.18,0,0,1,2.88,1.51,9.29,9.29,0,0,1,2.3,2.16Z"/><path d="M90.05,243.87H95l13.72,31.86H102.2l-3-7.29H85.42l-2.88,7.29H76.19Zm7.2,19.71-4.9-13-5,13Z"/><path d="M115.57,248.82H105.8v-4.95H131v4.95h-9.76v26.91h-5.67Z"/><path d="M134.69,243.87h5.67v12.87h14.9V243.87h5.67v31.86h-5.67V261.6h-14.9v14.13h-5.67Z"/><path d="M175.64,261.91l-12-18h6.93l8,13.41,8.1-13.41h6.57l-12,18v13.82h-5.67Z"/><path d="M206.11,243.87H217.4a25.08,25.08,0,0,1,6.26.81,16.27,16.27,0,0,1,5.67,2.67,14,14,0,0,1,4.09,4.91A16.25,16.25,0,0,1,235,259.8a15.36,15.36,0,0,1-1.58,7.2,14.73,14.73,0,0,1-4.09,4.95,17,17,0,0,1-5.67,2.85,22,22,0,0,1-6.26.93H206.11Zm10.39,26.91a19.53,19.53,0,0,0,4.41-.52,11.58,11.58,0,0,0,4-1.76,9.33,9.33,0,0,0,2.9-3.35,11.32,11.32,0,0,0,1.12-5.35,12.06,12.06,0,0,0-1.12-5.58,9.1,9.1,0,0,0-2.9-3.38,10.87,10.87,0,0,0-4-1.66,22,22,0,0,0-4.41-.45h-4.72v22Z"/><path d="M239,259.71a17.73,17.73,0,0,1,1.28-6.91,15.1,15.1,0,0,1,3.55-5.24,15.84,15.84,0,0,1,5.4-3.33,19.34,19.34,0,0,1,6.82-1.17,19.66,19.66,0,0,1,6.89,1.17,15.92,15.92,0,0,1,5.44,3.33,15,15,0,0,1,3.58,5.24,17.91,17.91,0,0,1,1.28,6.91,17.62,17.62,0,0,1-1.28,6.81,15.7,15.7,0,0,1-3.58,5.31,16.24,16.24,0,0,1-5.44,3.47,18.8,18.8,0,0,1-6.89,1.24,18.5,18.5,0,0,1-6.82-1.24,16.16,16.16,0,0,1-5.4-3.47,15.77,15.77,0,0,1-3.55-5.31A17.43,17.43,0,0,1,239,259.71Zm6.16,0a13.4,13.4,0,0,0,.79,4.7,10.83,10.83,0,0,0,2.25,3.71,10.24,10.24,0,0,0,3.46,2.45,11.67,11.67,0,0,0,8.89,0,10.26,10.26,0,0,0,3.49-2.45,11.15,11.15,0,0,0,2.25-3.71,13.63,13.63,0,0,0,.79-4.7,13.17,13.17,0,0,0-.79-4.59,11.28,11.28,0,0,0-2.23-3.69,10.3,10.3,0,0,0-3.46-2.48,11,11,0,0,0-4.5-.9,10.8,10.8,0,0,0-4.48.9,10.32,10.32,0,0,0-3.44,2.48,11.11,11.11,0,0,0-2.23,3.69A12.94,12.94,0,0,0,245.12,259.71Z"/><path d="M278.69,243.87h5.67v26.82h13.55v5H278.69Z"/><path d="M301.69,243.87h5.67v26.82H320.9v5H301.69Z"/><path d="M351.1,250.53a6.83,6.83,0,0,0-2.55-2,7.47,7.47,0,0,0-3.3-.79,7.9,7.9,0,0,0-2,.25,6,6,0,0,0-1.8.76,4.29,4.29,0,0,0-1.33,1.35,3.71,3.71,0,0,0-.52,2,3.56,3.56,0,0,0,.45,1.84,4.06,4.06,0,0,0,1.24,1.31,8.29,8.29,0,0,0,1.91.94c.75.27,1.58.54,2.48.81s2.07.71,3.17,1.13a12.24,12.24,0,0,1,3,1.66,8.13,8.13,0,0,1,2.25,2.61,7.92,7.92,0,0,1,.88,3.92,10,10,0,0,1-.94,4.47,9.22,9.22,0,0,1-2.52,3.18,10.75,10.75,0,0,1-3.69,1.89,15.56,15.56,0,0,1-4.46.63,16.81,16.81,0,0,1-6.07-1.15,11.78,11.78,0,0,1-4.86-3.4l4-3.78a8.16,8.16,0,0,0,3.12,2.57,8.82,8.82,0,0,0,3.85.94,8.48,8.48,0,0,0,2-.25,5.23,5.23,0,0,0,1.86-.83,4.59,4.59,0,0,0,1.35-1.46,4.19,4.19,0,0,0,.52-2.18,3.59,3.59,0,0,0-.58-2.1,5.38,5.38,0,0,0-1.58-1.44,11.58,11.58,0,0,0-2.34-1l-2.83-1a28.09,28.09,0,0,1-2.88-1.08,9.47,9.47,0,0,1-2.59-1.66,8,8,0,0,1-1.87-2.55,8.65,8.65,0,0,1-.72-3.75,8.31,8.31,0,0,1,1-4.19,8.91,8.91,0,0,1,2.66-2.9,11.57,11.57,0,0,1,3.73-1.71,16.18,16.18,0,0,1,4.26-.56,15.07,15.07,0,0,1,4.92.85,12,12,0,0,1,4.35,2.57Z"/><path d="M360.68,243.87h7.52L383,267.72h.09V243.87h5.67v31.86h-7.2l-15.12-24.62h-.09v24.62h-5.67Z"/><path d="M405.77,243.87h4.91l13.72,31.86h-6.48l-3-7.29H401.14l-2.88,7.29h-6.35Zm7.2,19.71-4.9-13-5,13Z"/><path d="M427.55,243.87h5.67v31.86h-5.67Z"/><path d="M440.24,243.87h5.67v26.82h13.55v5H440.24Z"/><path d="M501.31,274.06a24.48,24.48,0,0,1-5.34,1.82,30.27,30.27,0,0,1-6.68.66,19.49,19.49,0,0,1-7.06-1.24,16.17,16.17,0,0,1-5.49-3.47,15.56,15.56,0,0,1-3.58-5.31,18.75,18.75,0,0,1,0-13.72,15.34,15.34,0,0,1,3.65-5.24,16.15,16.15,0,0,1,5.47-3.33,19.49,19.49,0,0,1,6.84-1.17,21,21,0,0,1,7,1.1,14.16,14.16,0,0,1,5.11,2.9l-3.91,4.23A9.7,9.7,0,0,0,494,249a11.85,11.85,0,0,0-4.75-.95,11.26,11.26,0,0,0-4.57.9,10.28,10.28,0,0,0-3.48,2.48,11.11,11.11,0,0,0-2.23,3.69,12.94,12.94,0,0,0-.79,4.59,13.4,13.4,0,0,0,.79,4.7,10.83,10.83,0,0,0,2.25,3.71,10,10,0,0,0,3.55,2.45,12.12,12.12,0,0,0,4.75.88,16.45,16.45,0,0,0,6.35-1.12v-8.1h-6.71v-4.68h12.2Z"/><path d="M506.66,259.71a17.91,17.91,0,0,1,1.28-6.91,15.12,15.12,0,0,1,3.56-5.24,15.65,15.65,0,0,1,5.4-3.33,19.26,19.26,0,0,1,6.82-1.17,19.6,19.6,0,0,1,6.88,1.17,16,16,0,0,1,5.45,3.33,14.88,14.88,0,0,1,3.57,5.24,17.73,17.73,0,0,1,1.29,6.91,17.44,17.44,0,0,1-1.29,6.81,15.53,15.53,0,0,1-3.57,5.31,16.28,16.28,0,0,1-5.45,3.47,18.75,18.75,0,0,1-6.88,1.24,18.43,18.43,0,0,1-6.82-1.24,16,16,0,0,1-5.4-3.47,15.8,15.8,0,0,1-3.56-5.31A17.62,17.62,0,0,1,506.66,259.71Zm6.17,0a13.63,13.63,0,0,0,.78,4.7,11.15,11.15,0,0,0,2.25,3.71,10.28,10.28,0,0,0,3.47,2.45,10.82,10.82,0,0,0,4.43.88,11,11,0,0,0,4.46-.88,10.22,10.22,0,0,0,3.48-2.45,10.83,10.83,0,0,0,2.25-3.71,13.4,13.4,0,0,0,.79-4.7,12.94,12.94,0,0,0-.79-4.59,11.09,11.09,0,0,0-2.22-3.69,10.44,10.44,0,0,0-3.47-2.48,11,11,0,0,0-4.5-.9,10.83,10.83,0,0,0-4.48.9,10.42,10.42,0,0,0-3.44,2.48,11.28,11.28,0,0,0-2.23,3.69A13.17,13.17,0,0,0,512.83,259.71Z"/><path d="M546.4,243.87h5.67v26.82h13.54v5H546.4Z"/><path d="M569.39,243.87h11.3a25.06,25.06,0,0,1,6.25.81,16.27,16.27,0,0,1,5.67,2.67,14.15,14.15,0,0,1,4.1,4.91,16.38,16.38,0,0,1,1.57,7.54,15.49,15.49,0,0,1-1.57,7.2,14.87,14.87,0,0,1-4.1,4.95,17,17,0,0,1-5.67,2.85,22,22,0,0,1-6.25.93h-11.3Zm10.39,26.91a19.53,19.53,0,0,0,4.41-.52,11.58,11.58,0,0,0,4-1.76,9.33,9.33,0,0,0,2.9-3.35,11.31,11.31,0,0,0,1.13-5.35,12.06,12.06,0,0,0-1.13-5.58,9.1,9.1,0,0,0-2.9-3.38,10.87,10.87,0,0,0-4-1.66,22,22,0,0,0-4.41-.45h-4.72v22Z"/><path d="M61.07,296.94A6.14,6.14,0,0,0,59,295.13a6.81,6.81,0,0,0-4.9-.4,5.29,5.29,0,0,0-1.71.86,4.25,4.25,0,0,0-1.72,3.52,3.77,3.77,0,0,0,.46,2,4.27,4.27,0,0,0,1.2,1.31,6.91,6.91,0,0,0,1.71.89c.64.23,1.31.47,2,.7.86.28,1.72.58,2.6.91A9.17,9.17,0,0,1,61,306.16a6.11,6.11,0,0,1,1.71,2,6.26,6.26,0,0,1,.67,3.07,6.84,6.84,0,0,1-.71,3.2,6.56,6.56,0,0,1-1.84,2.22,7.65,7.65,0,0,1-2.58,1.3,10.47,10.47,0,0,1-2.92.42,11.28,11.28,0,0,1-2.24-.23,10.27,10.27,0,0,1-2.14-.68,9.23,9.23,0,0,1-1.89-1.16,8.71,8.71,0,0,1-1.54-1.61l2.17-1.61A6.58,6.58,0,0,0,52,315.29a6.36,6.36,0,0,0,3.41.9,6.62,6.62,0,0,0,1.93-.3,5.36,5.36,0,0,0,1.76-.91,5,5,0,0,0,1.3-1.51,4.64,4.64,0,0,0,0-4.23A4.63,4.63,0,0,0,59,307.8a8.61,8.61,0,0,0-1.92-1c-.73-.26-1.48-.51-2.28-.77s-1.62-.55-2.41-.87a8.33,8.33,0,0,1-2.14-1.28A6.07,6.07,0,0,1,48.73,302a7.09,7.09,0,0,1,.14-5.92,6.52,6.52,0,0,1,1.87-2.13,7.88,7.88,0,0,1,2.56-1.23,10.2,10.2,0,0,1,2.76-.38,9.5,9.5,0,0,1,4.31.89,7.23,7.23,0,0,1,2.69,2.12Z"/><path d="M86.37,314.05h.07V293H89v24.78H85.81L71.39,296.41h-.07v21.32H68.8V293H72Z"/><path d="M95.37,317.73H92.6L103.31,293h2.45l10.64,24.78h-2.8l-2.73-6.51H98.06ZM99,308.91h10.92l-5.46-13.16Z"/><path d="M122.56,317.73H120V293h2.52Z"/><path d="M131.66,315.49h11.55v2.24H129.14V293h2.52Z"/><path d="M157.42,317.73H154.9V293h14.95v2.24H157.42v8.57H169V306H157.42Z"/><path d="M177.09,317.73h-2.52V293h2.52Z"/><path d="M186.19,317.73h-2.52V293H191a15,15,0,0,1,3.38.35,7.53,7.53,0,0,1,2.69,1.13,5.4,5.4,0,0,1,1.77,2.05,6.85,6.85,0,0,1,.63,3.08,6.11,6.11,0,0,1-.49,2.49A6.26,6.26,0,0,1,197.6,304a6.38,6.38,0,0,1-2,1.31,8.48,8.48,0,0,1-2.52.63l7.24,11.8h-3.08l-6.86-11.59h-4.2Zm0-13.76h4.38a8.45,8.45,0,0,0,4.69-1.1,3.74,3.74,0,0,0,1.64-3.31,4.3,4.3,0,0,0-.45-2.06,3.85,3.85,0,0,0-1.26-1.37,5.7,5.7,0,0,0-2-.77,12.66,12.66,0,0,0-2.56-.24h-4.48Z"/><path d="M216.89,313.46h0l8.3-20.51h3.85v24.78h-2.52V296.2h-.07l-9,21.53h-1.33l-9-21.53h-.07v21.53h-2.52V293h3.85Z"/><path d="M238.17,317.73h-2.52V293h2.52Z"/><path d="M262.32,314.05h.07V293h2.52v24.78h-3.15l-14.42-21.32h-.07v21.32h-2.52V293h3.15Z"/><path d="M290.28,297.43a9,9,0,0,0-3.08-2.12,10.47,10.47,0,0,0-4.09-.75,10.21,10.21,0,0,0-4.29.87,9.75,9.75,0,0,0-3.24,2.36,10.56,10.56,0,0,0-2.05,3.44,12.34,12.34,0,0,0,0,8.25,10.36,10.36,0,0,0,2.05,3.42,9.84,9.84,0,0,0,3.24,2.34,10.06,10.06,0,0,0,4.29.88,15.45,15.45,0,0,0,3.85-.46,9.9,9.9,0,0,0,2.83-1.15V307H284v-2.24h8.29v11.19a16.06,16.06,0,0,1-4.37,1.83,19.63,19.63,0,0,1-4.87.6,13.54,13.54,0,0,1-5.18-1,12.17,12.17,0,0,1-6.77-6.83,13.8,13.8,0,0,1-1-5.21,13.48,13.48,0,0,1,1-5.22,12.29,12.29,0,0,1,6.8-6.82,13.17,13.17,0,0,1,5.13-1,13.67,13.67,0,0,1,5.18.89,11,11,0,0,1,3.78,2.47Z"/><path d="M328.36,313.7a10.54,10.54,0,0,1-1.52,1.79,10.29,10.29,0,0,1-2.07,1.48,11.26,11.26,0,0,1-2.59,1,12,12,0,0,1-3.09.38,13.5,13.5,0,0,1-5.18-1,12.15,12.15,0,0,1-6.78-6.83,14.5,14.5,0,0,1,0-10.43A12.26,12.26,0,0,1,314,293.3a13.1,13.1,0,0,1,5.13-1,12.47,12.47,0,0,1,2.67.28,12.75,12.75,0,0,1,2.47.8,10.37,10.37,0,0,1,2.1,1.24,7.16,7.16,0,0,1,1.58,1.63l-2.1,1.54a6.51,6.51,0,0,0-1-1.19,6.82,6.82,0,0,0-1.52-1.05,9.23,9.23,0,0,0-1.91-.73,8.33,8.33,0,0,0-2.22-.28,10.29,10.29,0,0,0-4.32.87,9.72,9.72,0,0,0-3.24,2.35,10.34,10.34,0,0,0-2,3.44,12,12,0,0,0-.7,4.12,11.77,11.77,0,0,0,.72,4.11,10.45,10.45,0,0,0,2.05,3.44,9.58,9.58,0,0,0,3.23,2.35,10.06,10.06,0,0,0,4.29.88,9.76,9.76,0,0,0,4.06-.88,7.7,7.7,0,0,0,3.22-2.8Z"/><path d="M335.22,317.73H332.7V293H340a15.05,15.05,0,0,1,3.38.35,7.61,7.61,0,0,1,2.69,1.13,5.4,5.4,0,0,1,1.77,2.05,6.85,6.85,0,0,1,.63,3.08,6.11,6.11,0,0,1-.49,2.49,6.26,6.26,0,0,1-1.33,1.94,6.38,6.38,0,0,1-2,1.31,8.48,8.48,0,0,1-2.52.63l7.24,11.8h-3.08l-6.86-11.59h-4.2Zm0-13.76h4.38a8.47,8.47,0,0,0,4.69-1.1,3.74,3.74,0,0,0,1.64-3.31,4.3,4.3,0,0,0-.45-2.06,3.79,3.79,0,0,0-1.27-1.37,5.54,5.54,0,0,0-2-.77,12.49,12.49,0,0,0-2.55-.24h-4.48Z"/><path d="M356.19,315.49h13.26v2.24H353.67V293H369v2.24H356.19v8.5h12v2.24h-12Z"/><path d="M374.21,317.73h-2.76L382.16,293h2.44l10.65,24.78h-2.8l-2.74-6.51h-12.8Zm3.64-8.82h10.92l-5.46-13.16Z"/><path d="M411.13,313.46h0L419.46,293h3.85v24.78h-2.52V296.2h-.07l-9,21.53h-1.32l-9-21.53h-.06v21.53h-2.53V293h3.85Z"/><path d="M441.16,317.73h-2.52V293h14.95v2.24H441.16v8.57h11.55V306H441.16Z"/><path d="M482.81,305.34a13.43,13.43,0,0,1-1,5.21,12.22,12.22,0,0,1-2.71,4.11,12.51,12.51,0,0,1-4.09,2.72,13.92,13.92,0,0,1-10.26,0,12.4,12.4,0,0,1-6.81-6.83,14.37,14.37,0,0,1,0-10.43,12.35,12.35,0,0,1,6.81-6.82,13.92,13.92,0,0,1,10.26,0,12.29,12.29,0,0,1,6.8,6.82A13.48,13.48,0,0,1,482.81,305.34Zm-2.66,0a12,12,0,0,0-.7-4.12,10.17,10.17,0,0,0-2-3.44,9.61,9.61,0,0,0-3.23-2.36,11,11,0,0,0-8.58,0,9.75,9.75,0,0,0-3.24,2.36,10.51,10.51,0,0,0-2,3.44,12.5,12.5,0,0,0,0,8.25,10.31,10.31,0,0,0,2,3.42,9.84,9.84,0,0,0,3.24,2.34,10.9,10.9,0,0,0,8.58,0,9.7,9.7,0,0,0,3.23-2.34,10,10,0,0,0,2-3.42A12.11,12.11,0,0,0,480.15,305.35Z"/><path d="M490.58,317.73h-2.52V293h7.28a15,15,0,0,1,3.38.35,7.66,7.66,0,0,1,2.7,1.13,5.46,5.46,0,0,1,1.76,2.05,6.85,6.85,0,0,1,.63,3.08A6.05,6.05,0,0,1,502,304a6.38,6.38,0,0,1-2,1.31,8.48,8.48,0,0,1-2.52.63l7.24,11.8h-3.08l-6.86-11.59h-4.2Zm0-13.76H495a8.45,8.45,0,0,0,4.69-1.1,3.72,3.72,0,0,0,1.64-3.31,4.3,4.3,0,0,0-.45-2.06,3.68,3.68,0,0,0-1.26-1.37,5.7,5.7,0,0,0-2-.77,12.59,12.59,0,0,0-2.56-.24h-4.48Z"/><path d="M523.34,314.26h.07l6.2-21.31h3l6.19,21.31h.07L544.94,293h2.66l-7.32,24.78h-2.94l-6.23-21.28H531l-6.23,21.28h-2.94L514.56,293h2.66Z"/><path d="M553.9,317.73h-2.52V293h7.28a15.05,15.05,0,0,1,3.38.35,7.69,7.69,0,0,1,2.69,1.13,5.4,5.4,0,0,1,1.77,2.05,6.85,6.85,0,0,1,.63,3.08,6.11,6.11,0,0,1-.49,2.49,6.26,6.26,0,0,1-1.33,1.94,6.42,6.42,0,0,1-2,1.31,8.48,8.48,0,0,1-2.52.63l7.25,11.8H565l-6.86-11.59h-4.2Zm0-13.76h4.37a8.42,8.42,0,0,0,4.69-1.1,3.72,3.72,0,0,0,1.65-3.31,4.18,4.18,0,0,0-.46-2.06,3.68,3.68,0,0,0-1.26-1.37,5.62,5.62,0,0,0-2-.77,12.56,12.56,0,0,0-2.55-.24H553.9Z"/><path d="M574.86,317.73h-2.52V293h2.52Z"/><path d="M599,314.05h.07V293h2.52v24.78h-3.15L584,296.41H584v21.32h-2.52V293h3.15Z"/><path d="M610.7,304.08h0L622.53,293h3.61l-12.5,11.23,13.2,13.55h-3.71l-12.39-13.2h0v13.2h-2.52V293h2.52Z"/><path d="M632.68,315.49h11.55v2.24H630.16V293h2.52Z"/><path d="M650.53,315.49H663.8v2.24H648V293h15.37v2.24H650.53v8.5h12v2.24h-12Z"/><path d="M689.49,296.94a6.14,6.14,0,0,0-2.07-1.81,6.81,6.81,0,0,0-4.9-.4,5.29,5.29,0,0,0-1.71.86,4.38,4.38,0,0,0-1.25,1.45,4.33,4.33,0,0,0-.47,2.07,3.77,3.77,0,0,0,.46,2,4.27,4.27,0,0,0,1.2,1.31,6.91,6.91,0,0,0,1.71.89c.64.23,1.31.47,2,.7.86.28,1.72.58,2.6.91a9.17,9.17,0,0,1,2.35,1.28,6.11,6.11,0,0,1,1.71,2,6.26,6.26,0,0,1,.67,3.07,6.84,6.84,0,0,1-.71,3.2,6.68,6.68,0,0,1-1.84,2.22,7.65,7.65,0,0,1-2.58,1.3,10.47,10.47,0,0,1-2.92.42,11.28,11.28,0,0,1-2.24-.23,10.27,10.27,0,0,1-2.14-.68,8.72,8.72,0,0,1-1.89-1.16,8.4,8.4,0,0,1-1.54-1.61l2.17-1.61a6.58,6.58,0,0,0,2.26,2.22,6.36,6.36,0,0,0,3.41.9,6.62,6.62,0,0,0,1.93-.3,5.36,5.36,0,0,0,1.76-.91,5,5,0,0,0,1.3-1.51,4.64,4.64,0,0,0,0-4.23,4.63,4.63,0,0,0-1.35-1.44,8.61,8.61,0,0,0-1.92-1c-.73-.26-1.49-.51-2.28-.77s-1.62-.55-2.41-.87a8.33,8.33,0,0,1-2.14-1.28,5.94,5.94,0,0,1-1.52-1.94,7.09,7.09,0,0,1,.14-5.92,6.52,6.52,0,0,1,1.87-2.13,7.88,7.88,0,0,1,2.56-1.23,10.2,10.2,0,0,1,2.76-.38,9.5,9.5,0,0,1,4.31.89,7.23,7.23,0,0,1,2.69,2.12Z"/><path d="M699.74,304.08h0L711.57,293h3.61l-12.5,11.23,13.2,13.55h-3.71l-12.39-13.2h0v13.2h-2.52V293h2.52Z"/><path d="M721.72,317.73H719.2V293h2.52Z"/><path d="M745.87,314.05h.07V293h2.52v24.78h-3.15l-14.42-21.32h-.07v21.32H728.3V293h3.15Z"/><g id="_Rectangle_" data-name="&lt;Rectangle&gt;"><rect class="cls-1" x="46" y="33.43" width="383" height="113.11"/></g><path class="cls-2" d="M122,96.91a12.87,12.87,0,0,1-1.48,6.3,13.29,13.29,0,0,1-3.86,4.39,17.1,17.1,0,0,1-5.37,2.57,22.14,22.14,0,0,1-6,.84,24.88,24.88,0,0,1-5.87-.69,18.6,18.6,0,0,1-5.21-2.1,15.13,15.13,0,0,1-4.11-3.64,15.33,15.33,0,0,1-2.64-5.37l9.79-2.57a7.92,7.92,0,0,0,2.58,3.86,7.34,7.34,0,0,0,5,1.66,8.76,8.76,0,0,0,2.29-.31,6.57,6.57,0,0,0,2.07-1,5.14,5.14,0,0,0,2.1-4.37,4.83,4.83,0,0,0-.78-2.82,5.66,5.66,0,0,0-2.08-1.79,10.15,10.15,0,0,0-2.91-.94,19,19,0,0,0-3.27-.28H99.36V83h3.07a17.93,17.93,0,0,0,2.89-.22A7.71,7.71,0,0,0,107.8,82a4.88,4.88,0,0,0,1.76-1.61,4.81,4.81,0,0,0,.66-2.66,4.3,4.3,0,0,0-1.7-3.66,6.36,6.36,0,0,0-3.89-1.26,6,6,0,0,0-3.92,1.35,6.25,6.25,0,0,0-2.17,3.61l-9.79-2.26a14.34,14.34,0,0,1,2.45-4.93,15,15,0,0,1,3.86-3.51,17.54,17.54,0,0,1,4.86-2.14,20.43,20.43,0,0,1,5.4-.72,22,22,0,0,1,5.74.75,15.47,15.47,0,0,1,5,2.33,12.26,12.26,0,0,1,3.55,3.93A11,11,0,0,1,121,76.76a9.53,9.53,0,0,1-2.1,6.26,10.26,10.26,0,0,1-5.37,3.42v.19A11.19,11.19,0,0,1,116.93,88a11,11,0,0,1,2.7,2.32,10.44,10.44,0,0,1,1.76,3A9.92,9.92,0,0,1,122,96.91Z"/><path class="cls-2" d="M162.5,95.13a15.91,15.91,0,0,1-1.45,7.06,14.12,14.12,0,0,1-3.86,4.93A16.66,16.66,0,0,1,151.7,110a21.35,21.35,0,0,1-12.08.19,18.78,18.78,0,0,1-5-2.23,15,15,0,0,1-3.83-3.55,14.22,14.22,0,0,1-2.35-4.74l9.6-2.95a7.44,7.44,0,0,0,2.61,3.83,7.56,7.56,0,0,0,9.22-.12,5.91,5.91,0,0,0,2-4.84,6,6,0,0,0-.82-3.26,6.2,6.2,0,0,0-2.1-2.1,8.81,8.81,0,0,0-2.92-1.1,17.06,17.06,0,0,0-3.26-.31,31.37,31.37,0,0,0-5.43.53,32.41,32.41,0,0,0-5.43,1.41L133,65.38h27.24v9H142.35l-.38,7a14.09,14.09,0,0,1,2.23-.35c.82-.06,1.56-.09,2.23-.09a21.76,21.76,0,0,1,6.28.88,14.32,14.32,0,0,1,5.11,2.67A12.56,12.56,0,0,1,161.24,89,14.13,14.13,0,0,1,162.5,95.13Z"/><path class="cls-2" d="M204.24,80.07a18.14,18.14,0,0,1-1.38,7.19,41.77,41.77,0,0,1-3.58,6.55l-10.72,16H175.83l11-15.32.13-.18a8.09,8.09,0,0,1-1.54.37,10,10,0,0,1-1.6.13,15.06,15.06,0,0,1-5.57-1,14.07,14.07,0,0,1-4.64-3,14.27,14.27,0,0,1-4.38-10.51,16.26,16.26,0,0,1,1.37-6.78,14.87,14.87,0,0,1,3.76-5.08A16.65,16.65,0,0,1,180,65.29a21.54,21.54,0,0,1,13.59,0,16.32,16.32,0,0,1,5.55,3.17,15.09,15.09,0,0,1,3.73,5A15.36,15.36,0,0,1,204.24,80.07Zm-10.49-.13a7.31,7.31,0,0,0-1.86-5,6.43,6.43,0,0,0-5.07-2.1,6.84,6.84,0,0,0-5.14,2A7.12,7.12,0,0,0,179.76,80a7,7,0,0,0,1.89,5,6.67,6.67,0,0,0,5,2,6.68,6.68,0,0,0,7.06-7Z"/><path class="cls-2" d="M216.79,117.6h-8.47L213,99.78h9.86Z"/><path class="cls-2" d="M263.55,87.48a41.39,41.39,0,0,1-.95,9,22.69,22.69,0,0,1-3,7.5A14.92,14.92,0,0,1,246.22,111a15.93,15.93,0,0,1-8-1.91,15.75,15.75,0,0,1-5.43-5.15,22.31,22.31,0,0,1-3-7.5,43.17,43.17,0,0,1,0-17.92,21.68,21.68,0,0,1,3-7.4,15.68,15.68,0,0,1,5.43-5.06,18,18,0,0,1,16,0,15.55,15.55,0,0,1,5.36,5.06,22.05,22.05,0,0,1,3,7.4A41.07,41.07,0,0,1,263.55,87.48Zm-10.8,0a45.66,45.66,0,0,0-.25-4.59,23,23,0,0,0-.94-4.67,10,10,0,0,0-2-3.64,4.24,4.24,0,0,0-3.36-1.48,4.33,4.33,0,0,0-3.39,1.48,10.27,10.27,0,0,0-2,3.64,21.7,21.7,0,0,0-1,4.67,45.66,45.66,0,0,0-.25,4.59c0,1.42.08,3,.25,4.67a21.82,21.82,0,0,0,1,4.71,10.36,10.36,0,0,0,2,3.64,4.35,4.35,0,0,0,3.39,1.47,4.26,4.26,0,0,0,3.36-1.47,10.11,10.11,0,0,0,2-3.64,23.11,23.11,0,0,0,.94-4.71C252.67,90.46,252.75,88.9,252.75,87.48Z"/><path class="cls-2" d="M304.09,87.48a41.39,41.39,0,0,1-.94,9,22.91,22.91,0,0,1-3,7.5,15.57,15.57,0,0,1-5.37,5.15A16,16,0,0,1,273.31,104a22.32,22.32,0,0,1-3.05-7.5,43.17,43.17,0,0,1,0-17.92,21.69,21.69,0,0,1,3.05-7.4,15.68,15.68,0,0,1,5.43-5.06,18,18,0,0,1,16,0,15.49,15.49,0,0,1,5.37,5.06,22.26,22.26,0,0,1,3,7.4A41.08,41.08,0,0,1,304.09,87.48Zm-10.79,0c0-1.39-.09-2.91-.25-4.59a23,23,0,0,0-.95-4.67,10.17,10.17,0,0,0-2-3.64,4.24,4.24,0,0,0-3.36-1.48,4.33,4.33,0,0,0-3.39,1.48,10.12,10.12,0,0,0-2,3.64,21.11,21.11,0,0,0-1,4.67,45.66,45.66,0,0,0-.25,4.59c0,1.42.08,3,.25,4.67a21.24,21.24,0,0,0,1,4.71,10.21,10.21,0,0,0,2,3.64,4.35,4.35,0,0,0,3.39,1.47,4.26,4.26,0,0,0,3.36-1.47,10.25,10.25,0,0,0,2-3.64,23.1,23.1,0,0,0,.95-4.71C293.21,90.46,293.3,88.9,293.3,87.48Z"/><path class="cls-2" d="M344.64,87.48a42,42,0,0,1-.94,9,22.92,22.92,0,0,1-3,7.5A14.92,14.92,0,0,1,327.31,111a15.93,15.93,0,0,1-8-1.91,15.75,15.75,0,0,1-5.43-5.15,22.31,22.31,0,0,1-3-7.5,43.17,43.17,0,0,1,0-17.92,21.68,21.68,0,0,1,3-7.4,15.68,15.68,0,0,1,5.43-5.06,18,18,0,0,1,16,0,15.55,15.55,0,0,1,5.36,5.06,22.27,22.27,0,0,1,3,7.4A41.7,41.7,0,0,1,344.64,87.48Zm-10.8,0a45.66,45.66,0,0,0-.25-4.59,23,23,0,0,0-.94-4.67,10,10,0,0,0-2-3.64,4.24,4.24,0,0,0-3.36-1.48,4.33,4.33,0,0,0-3.39,1.48,10.27,10.27,0,0,0-2,3.64,21.7,21.7,0,0,0-1,4.67,45.66,45.66,0,0,0-.25,4.59c0,1.42.08,3,.25,4.67a21.82,21.82,0,0,0,1,4.71,10.36,10.36,0,0,0,2,3.64,4.35,4.35,0,0,0,3.39,1.47,4.26,4.26,0,0,0,3.36-1.47,10.11,10.11,0,0,0,2-3.64,23.11,23.11,0,0,0,.94-4.71C333.76,90.46,333.84,88.9,333.84,87.48Z"/><path class="cls-2" d="M375.2,109.82v-4.08h-.12a9.83,9.83,0,0,1-4.3,3.67,14,14,0,0,1-5.93,1.29,13.84,13.84,0,0,1-6.28-1.38,14.57,14.57,0,0,1-4.68-3.67,16.1,16.1,0,0,1-2.91-5.31,19.7,19.7,0,0,1-1-6.27,18.93,18.93,0,0,1,1-6.25A16.22,16.22,0,0,1,354,82.58a13.74,13.74,0,0,1,10.76-4.9A11.92,11.92,0,0,1,370.56,79a12.91,12.91,0,0,1,3.7,2.89h.13V74H365V68.46h9.36V62.37h10.29v6.09h2.89V74h-2.89v35.78Zm-.37-15.69a8.65,8.65,0,0,0-2-5.52,7.61,7.61,0,0,0-2.36-1.83,7.07,7.07,0,0,0-3.14-.69,7.21,7.21,0,0,0-3.2.69,7.54,7.54,0,0,0-2.32,1.79,7.3,7.3,0,0,0-1.41,2.55,9.24,9.24,0,0,0-.47,2.95,9.61,9.61,0,0,0,.47,3,7.53,7.53,0,0,0,1.41,2.6,7.19,7.19,0,0,0,2.32,1.82,7.08,7.08,0,0,0,3.2.69,6.94,6.94,0,0,0,3.14-.69,7.58,7.58,0,0,0,2.36-1.82,8.65,8.65,0,0,0,2-5.52Z"/></svg>