<svg id="Layer_1" data-name="Layer 1" xmlns="http://www.w3.org/2000/svg" viewBox="0 0 2006 752.99"><defs><style>.cls-1{fill:#c90202;}.cls-2{fill:#fff;}</style></defs><title>Image convert 1 body care fix text</title><path d="M87,457.93h39.81c28.67,0,48.33,17.28,48.33,43.82s-19.66,43.82-48.33,43.82H87Zm38.81,71c17.4,0,28.8-10.4,28.8-27.17s-11.4-27.17-28.8-27.17H107.24v54.34Z"/><path d="M269,470V507c0,25.79-14.77,40.06-39.68,40.06S189.62,532.8,189.62,507V457.93H209.9v48.32c0,16.66,7.26,23.54,19.53,23.54S249,522.91,249,506.25V457.93h13c4.51,0,7.51-3.26,7.51-7.89a12.05,12.05,0,0,0-2.5-7.51l11.52-4.26a20.26,20.26,0,0,1,4,12.52C282.52,460.68,277.63,467.57,269,470Z"/><path d="M381,501.75c0,26.16-20.4,45.32-48,45.32s-47.95-19.28-47.95-45.32,20.41-45.32,48.83-45.32c9.39,0,16.65,1.75,22.91,1.75s10.27-2.88,10.27-8.26a13.5,13.5,0,0,0-2.51-7.52l11.52-4.25a21.6,21.6,0,0,1,4,12.52c0,9.39-5.14,15.52-13.9,18C375.28,476.33,381,488.1,381,501.75Zm-20.53,0c0-16.53-11.77-28.05-27.42-28.05s-27.42,11.4-27.42,28.05,11.9,28,27.42,28S360.51,518.27,360.51,501.75ZM319,450.29h-9.9c.25-11.14,5.89-18.28,14.65-18.28s13,8,17.53,8c3.38,0,5.76-2.63,6-6.77h9.89c-.25,10.77-5.88,17.91-14.65,17.91s-13-7.89-17.53-7.89C321.57,443.28,319.2,445.78,319,450.29Z"/><path d="M476.69,457.93v87.64H460l-43.69-53.21v53.21h-20V457.93h16.78l43.57,53.21V457.93Z"/><path d="M556.69,500.37h18.53v35.56c-9.64,7.26-22.91,11.14-35.43,11.14-27.54,0-47.83-18.91-47.83-45.32s20.29-45.32,48.2-45.32c15.4,0,28.17,5.25,36.69,15.15l-13,12a29.66,29.66,0,0,0-22.66-9.89c-17,0-28.67,11.4-28.67,28.05,0,16.4,11.64,28,28.42,28A32.23,32.23,0,0,0,556.69,526Z"/><path d="M647.58,474.45h-28V457.93h76.37v16.52h-28v71.12H647.58Z"/><path d="M787.17,457.93v87.64H766.89V509.64H727.08v35.93H706.8V457.93h20.28v34.55h39.81V457.93Z"/><path d="M875.81,529.29v16.28H808V457.93h66.23V474.2H828.11v19H868.8V509H828.11v20.28Zm-45.44-78.5H816l16.65-14.27h17l16.65,14.27H851.9l-10.77-7.13Zm23.16-21.66-3.26-6a19.25,19.25,0,0,1,10.39-2.75c7,0,11.52,3.88,11.52,9.89,0,5-3.88,9-8.76,10.89l-4.76-4.63c3.38-1.63,4.63-3.63,4.63-5.26,0-2.25-1.75-3.63-4.25-3.63A11.06,11.06,0,0,0,853.53,429.13Z"/><path d="M921.88,501.75c0-26.42,20.28-45.32,47.58-45.32,15.14,0,27.79,5.5,36,15.52l-13,12c-5.88-6.76-13.27-10.27-22-10.27-16.4,0-28.05,11.52-28.05,28.05s11.65,28,28.05,28c8.76,0,16.15-3.5,22-10.39l13,12c-8.26,10.14-20.91,15.65-36.18,15.65C942.16,547.07,921.88,528.16,921.88,501.75Z"/><path d="M1075.12,526.79h-40.69l-7.76,18.78h-20.78L1045,457.93h20l39.19,87.64h-21.29Zm-6.39-15.4-13.89-33.56-13.9,33.56Z"/><path d="M1127.08,474.45h-28V457.93h76.37v16.52h-28v71.12h-20.28Z"/><path d="M1266.67,457.93v87.64h-20.28V509.64h-39.82v35.93h-20.28V457.93h20.28v34.55h39.82V457.93Z"/><path d="M1329.52,514.52v31.05h-20.29v-31.3l-33.92-56.34h21.53l23.41,38.94,23.41-38.94h19.91Z"/><path d="M1407.51,457.93h39.81c28.67,0,48.33,17.28,48.33,43.82s-19.66,43.82-48.33,43.82h-39.81Zm38.81,71c17.4,0,28.8-10.4,28.8-27.17s-11.4-27.17-28.8-27.17h-18.53v54.34Z"/><path d="M1505.41,501.75c0-26,20.28-45.32,47.95-45.32s48,19.15,48,45.32-20.4,45.32-48,45.32S1505.41,527.79,1505.41,501.75Zm75.37,0c0-16.65-11.77-28.05-27.42-28.05s-27.42,11.4-27.42,28.05,11.77,28,27.42,28S1580.78,518.4,1580.78,501.75Z"/><path d="M1616.59,457.93h20.28V529h43.94v16.53h-64.22Z"/><path d="M1692.2,457.93h20.28V529h44v16.53H1692.2Z"/><path d="M150.74,577.89l-14.89,45.5H124.54l-10-30.81-10.34,30.81H93l-15-45.5H88.92l10.27,32,10.72-32h9.75l10.4,32.24,10.6-32.24Z"/><path d="M198.31,577.89v45.5H187.78V604.74H167.11v18.65H156.58v-45.5h10.53v17.94h20.67V577.89Z"/><path d="M209.1,577.89h10.53v45.5H209.1Z"/><path d="M239.85,586.47H225.29v-8.58h39.65v8.58H250.38v36.92H239.85Z"/><path d="M305.82,614.94v8.45H270.59v-45.5H305v8.45H281.06v9.88h21.12v8.19H281.06v10.53Z"/><path d="M374,623.39l-.07-27.3-13.39,22.49h-4.74l-13.33-21.9v26.71H332.6v-45.5h8.71l17,28.28,16.77-28.28h8.65l.13,45.5Z"/><path d="M394.67,577.89H405.2v45.5H394.67Z"/><path d="M416,577.89h10.53v36.92h22.82v8.58H416Z"/><path d="M471.83,605.52l-6.11,6.37v11.5H455.25v-45.5h10.47v21.26l20.15-21.26h11.7l-18.85,20.28,19.95,25.22H486.39Z"/><path d="M518.17,618.91l3.58-7.93a26.77,26.77,0,0,0,15,4.74c6.24,0,8.78-2.08,8.78-4.87,0-8.52-26.46-2.67-26.46-19.57,0-7.74,6.24-14.17,19.18-14.17,5.72,0,11.57,1.36,15.79,4l-3.25,8a25.64,25.64,0,0,0-12.61-3.58c-6.24,0-8.64,2.34-8.64,5.2,0,8.39,26.45,2.6,26.45,19.31,0,7.6-6.3,14.1-19.3,14.1C529.48,624.17,522.2,622,518.17,618.91Z"/><path d="M605,577.89v45.5H594.42V604.74H573.75v18.65H563.21v-45.5h10.54v17.94h20.67V577.89Z"/><path d="M615.73,577.89h10.54v45.5H615.73Z"/><path d="M678.79,577.89v45.5h-8.65l-22.69-27.62v27.62h-10.4v-45.5h8.71l22.63,27.63V577.89Z"/><path d="M724.81,614.94v8.45H689.57v-45.5H724v8.45H700v9.88h21.13v8.19H700v10.53Z"/><path d="M793.31,611c0,7.86-6.24,12.41-18.2,12.41H751.58v-45.5h22.23c11.38,0,17.23,4.74,17.23,11.83a10.93,10.93,0,0,1-6,10C790.06,601.36,793.31,605.26,793.31,611Zm-31.26-25.16v10.73h10.46c5.14,0,7.93-1.82,7.93-5.4s-2.79-5.33-7.93-5.33Zm20.67,24c0-3.83-2.93-5.65-8.39-5.65H762.05v11.24h12.28C779.79,615.46,782.72,613.77,782.72,609.87Z"/><path d="M798.45,600.64c0-13.52,10.53-23.53,24.89-23.53s24.9,9.95,24.9,23.53-10.6,23.53-24.9,23.53S798.45,614.16,798.45,600.64Zm39.13,0c0-8.65-6.11-14.56-14.24-14.56s-14.23,5.91-14.23,14.56,6.11,14.56,14.23,14.56S837.58,609.29,837.58,600.64Z"/><path d="M856.17,577.89h20.67c14.88,0,25.09,9,25.09,22.75s-10.21,22.75-25.09,22.75H856.17Zm20.15,36.86c9,0,14.95-5.4,14.95-14.11s-5.92-14.1-14.95-14.1H866.7v28.21Z"/><path d="M929.75,607.27v16.12H919.22V607.14L901.6,577.89h11.18l12.16,20.22,12.15-20.22h10.34Z"/><path d="M970.24,577.89h10.53v36.92h22.82v8.58H970.24Z"/><path d="M1005.86,600.64c0-13.52,10.53-23.53,24.9-23.53s24.89,9.95,24.89,23.53-10.59,23.53-24.89,23.53S1005.86,614.16,1005.86,600.64Zm39.13,0c0-8.65-6.11-14.56-14.23-14.56s-14.24,5.91-14.24,14.56,6.11,14.56,14.24,14.56S1045,609.29,1045,600.64Z"/><path d="M1072.36,586.47h-14.57v-8.58h39.66v8.58h-14.56v36.92h-10.53Z"/><path d="M1103.1,577.89h10.53v45.5H1103.1Z"/><path d="M1121.56,600.64c0-13.52,10.53-23.53,24.9-23.53s24.89,9.95,24.89,23.53-10.59,23.53-24.89,23.53S1121.56,614.16,1121.56,600.64Zm39.13,0c0-8.65-6.11-14.56-14.23-14.56s-14.24,5.91-14.24,14.56,6.11,14.56,14.24,14.56S1160.69,609.29,1160.69,600.64Z"/><path d="M1221,577.89v45.5h-8.64l-22.69-27.62v27.62h-10.4v-45.5H1188l22.62,27.63V577.89Z"/><path d="M1289,613.84h-7.41v9.55h-10.27v-9.55h-24.51v-7.09l21.45-28.86h11l-19.89,27.37h12.22v-8.52h9.95v8.52H1289Z"/><path d="M1326.37,609.09c0,8.06-5.91,15.08-18.91,15.08-6.31,0-12.94-1.75-17.36-4.87l4.16-8.06a21.91,21.91,0,0,0,12.94,4.09c5.26,0,8.51-2.21,8.51-5.91s-2.34-5.92-10.59-5.92h-11.64l2.34-25.61h27.76v8.45h-19l-.72,8.65h3.71C1321,595,1326.37,601,1326.37,609.09Z"/><path d="M1330.66,600.64c0-15,8.32-23.53,19.5-23.53s19.5,8.51,19.5,23.53-8.25,23.53-19.5,23.53S1330.66,615.66,1330.66,600.64Zm28.41,0c0-10.33-3.64-14.62-8.91-14.62s-8.84,4.29-8.84,14.62,3.64,14.63,8.84,14.63S1359.07,611,1359.07,600.64Z"/><path d="M1419.06,623.39l-.06-27.3-13.39,22.49h-4.75l-13.32-21.9v26.71h-9.88v-45.5h8.71l17,28.28,16.77-28.28h8.64l.13,45.5Z"/><path d="M1439.73,577.89h10.53v36.92h22.82v8.58h-33.35Z"/><g id="_Rectangle_" data-name="&lt;Rectangle&gt;"><rect class="cls-1" x="77" y="68.49" width="921" height="272"/></g><path class="cls-2" d="M222.16,141.57V250.06H197.05V161.72h-21.7V141.57Z"/><path class="cls-2" d="M340.42,227.28H322.75v22.78H298.26V227.28H239.83V210.39L291,141.57h26.35l-47.43,65.25H299v-20.3h23.72v20.3h17.67Z"/><path class="cls-2" d="M433.88,193.49c0,37.51-22.47,58.43-55.33,58.43-11.47,0-22.48-2.63-30.07-7.44l9.3-18.44c5.89,4,12.86,5.43,20.3,5.43,18,0,29.76-10.7,30.54-31.62-6.36,6.35-15.66,9.76-27,9.76-20.93,0-37.35-13.33-37.35-33.79,0-22.16,18.13-36.11,41.07-36.11C415.44,139.71,433.88,158.46,433.88,193.49Zm-28.05-18.91c0-9.3-7-16.12-18.91-16.12-10.7,0-18.14,6.2-18.14,16.12s7.29,16.28,18.45,16.28C398.23,190.86,405.83,184,405.83,174.58Z"/><path class="cls-2" d="M473.26,236.12c0,4-.62,7-4.19,15.49l-8.83,22.32H444.89l6.82-24.64c-5.11-2-8.37-6.82-8.37-13.17,0-9,6.51-14.88,15-14.88C467.06,221.24,473.26,227.28,473.26,236.12Z"/><path class="cls-2" d="M482.56,195.82c0-35.81,19.84-56.11,46.5-56.11,26.81,0,46.5,20.3,46.5,56.11s-19.69,56.1-46.5,56.1C502.4,251.92,482.56,231.62,482.56,195.82Zm67.73,0c0-24.65-8.68-34.88-21.23-34.88-12.4,0-21.08,10.23-21.08,34.88s8.68,34.87,21.08,34.87C541.61,230.69,550.29,220.46,550.29,195.82Z"/><path class="cls-2" d="M587.8,195.82c0-35.81,19.84-56.11,46.5-56.11,26.81,0,46.5,20.3,46.5,56.11s-19.69,56.1-46.5,56.1C607.64,251.92,587.8,231.62,587.8,195.82Zm67.73,0c0-24.65-8.68-34.88-21.23-34.88-12.4,0-21.08,10.23-21.08,34.88s8.68,34.87,21.08,34.87C646.85,230.69,655.53,220.46,655.53,195.82Z"/><path class="cls-2" d="M693,195.82c0-35.81,19.84-56.11,46.5-56.11,26.82,0,46.5,20.3,46.5,56.11s-19.68,56.1-46.5,56.1C712.88,251.92,693,231.62,693,195.82Zm67.74,0c0-24.65-8.68-34.88-21.24-34.88-12.4,0-21.08,10.23-21.08,34.88s8.68,34.87,21.08,34.87C752.1,230.69,760.78,220.46,760.78,195.82Z"/><path class="cls-2" d="M899.65,158.15H888.34v91.91h-23.1v-9.61c-6,7.29-14.88,10.86-26,10.86-23.56,0-41.7-16.75-41.7-42.94s18.14-42.93,41.7-42.93c10.22,0,18.9,3.25,24.95,10.07V158.15H835.8v-14h28.36v-9.14h24.18v9.14h11.31Zm-35,50.22c0-14.41-9.3-23.09-21.23-23.09C831.3,185.28,822,194,822,208.37s9.3,23.1,21.39,23.1C855.32,231.47,864.62,222.79,864.62,208.37Z"/></svg>