<?xml version="1.0" encoding="utf-8"?>
<!-- Generator: Adobe Illustrator 22.1.0, SVG Export Plug-In . SVG Version: 6.00 Build 0)  -->
<svg version="1.1" id="Layer_1" xmlns="http://www.w3.org/2000/svg" xmlns:xlink="http://www.w3.org/1999/xlink" x="0px" y="0px"
	 viewBox="0 0 987 430" style="enable-background:new 0 0 987 430;" xml:space="preserve">
<style type="text/css">
	.st0{fill:#C90202;}
	.st1{enable-background:new    ;}
	.st2{fill:#FFFFFF;}
</style>
<title>Image convert 3</title>
<path d="M74.9,211.9c0,8.5-6.3,13.7-16.4,13.7h-8.7v11.1h-7.2v-38.5h15.8C68.6,198.2,74.9,203.4,74.9,211.9z M67.7,211.9
	c0-4.8-3.2-7.7-9.5-7.7h-8.4v15.3h8.4C64.4,219.5,67.7,216.7,67.7,211.9z"/>
<path d="M116.3,198.2v38.5h-7.2v-16.5H89.2v16.5h-7.1v-38.5h7.1v15.9h19.9v-15.9H116.3z"/>
<path d="M151.6,227.8h-19.2l-3.8,8.9h-7.4l17.3-38.5h7l17.4,38.5h-7.5L151.6,227.8z M137.2,195.1h-5.7l7.4-5.9h6.2l7.4,5.9h-5.7
	L142,192L137.2,195.1z M149.2,222.2l-7.3-16.8l-7.2,16.8H149.2z M153.3,190H148l6.3-6.4h7.4L153.3,190z"/>
<path d="M202,198.2v38.5h-5.9l-21.2-26.1v26.1h-7.1v-38.5h5.9l21.2,26.1v-26.1H202z"/>
<path d="M259.8,211.9c0,8.5-6.3,13.7-16.4,13.7h-8.7v11.1h-7.1v-38.5h15.8C253.5,198.2,259.8,203.4,259.8,211.9z M252.6,211.9
	c0-4.8-3.2-7.7-9.5-7.7h-8.4v15.3h8.3C249.3,219.5,252.6,216.7,252.6,211.9z"/>
<path d="M301.1,198.2v38.5H294v-16.5h-20v16.5h-7.1v-38.5h7.1v15.9h20v-15.9H301.1z"/>
<path d="M311.1,219.9v-21.7h7.1v21.4c0,7.9,3.6,11.3,9.8,11.3s9.7-3.4,9.7-11.3v-21.4h7v21.7c0,11.2-6.3,17.3-16.8,17.3
	S311.1,231.1,311.1,219.9z M327.2,193.1c2.1-1,3-2.1,3-3.5s-1.2-2.5-2.6-2.4c-0.1,0-0.1,0-0.2,0c-1.2,0-2.3,0.3-3.3,1l-1.5-3
	c1.6-1.1,3.5-1.7,5.5-1.7c3.5,0,6,2.2,6,5.5c0,3-1.5,5.2-4.7,6.6L327.2,193.1z"/>
<path d="M377.8,204.2H365v-6h32.7v6H385v32.5h-7.1L377.8,204.2z"/>
<path d="M428.3,236.7l-7.9-11.3c-0.5,0-1,0-1.5,0h-8.7v11.2h-7.1v-38.4H419c10.1,0,16.4,5.2,16.4,13.7c0.2,5.4-3.1,10.3-8.2,12.1
	l8.8,12.7L428.3,236.7L428.3,236.7z M418.6,204.2h-8.4v15.3h8.4c6.3,0,9.5-2.9,9.5-7.7S424.9,204.2,418.6,204.2z"/>
<path d="M468.3,227.8h-19.2l-3.8,8.9h-7.4l17.3-38.5h7l17.4,38.5h-7.5L468.3,227.8z M465.9,222.2l-7.3-16.8l-7.2,16.8H465.9z"/>
<path d="M518.7,198.2v38.5h-5.9l-21.2-26.1v26.1h-7.1v-38.5h5.9l21.2,26.1v-26.1H518.7z"/>
<path d="M555.4,217h6.8v15.4c-4.3,3.3-9.6,5-15.1,4.9c-11.9,0-20.7-8.3-20.7-19.8s8.8-19.8,20.8-19.8c6.4,0,11.8,2.2,15.5,6.3
	l-4.5,4.4c-2.8-2.9-6.6-4.5-10.6-4.4c-8.2,0-14,5.6-14,13.5c0,7.8,5.8,13.5,13.9,13.5c2.8,0.1,5.5-0.6,7.9-2L555.4,217z"/>
<path d="M625.1,217.4c0,11.6-8.5,19.2-21,19.2h-16.8v-16.9h-5.4v-5.3h5.4v-16.3h16.8C616.6,198.2,625.1,205.9,625.1,217.4z
	 M617.9,217.4c0-8-5.6-13.2-14.1-13.2h-9.3v10.2h10.3v5.3h-10.3v10.9h9.3C612.3,230.6,617.9,225.4,617.9,217.4z"/>
<path d="M632.7,198.2h7.2v38.5h-7.2V198.2z"/>
<path d="M679.1,230.7v6h-28.9v-38.5h28.1v6h-21v10H676v5.9h-18.6v10.6H679.1z M659.6,195.1h-5.7l7.4-5.9h6.2l7.4,5.9h-5.7l-4.8-3
	L659.6,195.1z M669.2,185.7l-1.2-2.3c1.3-0.8,2.7-1.2,4.2-1.1c2.8,0,4.6,1.6,4.6,4.1c-0.1,2.2-1.5,4-3.6,4.7l-1.8-1.9
	c1.5-0.7,2.1-1.6,2.1-2.4c0-1-0.8-1.7-1.8-1.7c-0.1,0-0.1,0-0.2,0C670.8,185.1,669.9,185.3,669.2,185.7z"/>
<path d="M722.5,236.7l-0.1-25.5l-12.6,21.1h-3.2l-12.7-20.8v25.2h-6.8v-38.5h5.9l15.3,25.5l15-25.5h5.9v38.5H722.5z"/>
<path d="M790.2,236.7v-25.5l-12.7,21.1h-3.2l-12.7-20.8v25.2h-6.8v-38.5h5.9l15.3,25.5l15-25.5h5.9l0.1,38.5H790.2z"/>
<path d="M836.1,236.7l-3.8-8.9H813l-3.8,8.9h-7.4l17.3-38.5h7l17.4,38.5H836.1z M813.2,187.5h4.5c0.1,2.5,2.2,4.1,5,4.1
	s4.9-1.6,5-4.1h4.5c-0.2,4.9-4.2,7.9-9.5,7.9S813.4,192.4,813.2,187.5z M829.9,222.2l-7.3-16.8l-7.2,16.8H829.9z M826,244.6
	c0,1.8-1.5,3.3-3.3,3.3s-3.3-1.5-3.3-3.3s1.5-3.3,3.3-3.3S826,242.8,826,244.6L826,244.6z"/>
<path d="M854.4,204.2h-12.8v-6h32.7v6h-12.8v32.5h-7.1L854.4,204.2L854.4,204.2z"/>
<path d="M39.9,283.4c0-11.5,8.8-19.8,20.6-19.8c6.3,0,11.7,2.3,15.2,6.4l-4.6,4.3c-2.6-2.9-6.4-4.6-10.3-4.5
	c-8,0-13.7,5.6-13.7,13.5S52.9,297,60.9,297c3.9,0.1,7.7-1.6,10.3-4.6l4.6,4.4c-3.6,4.2-9,6.4-15.3,6.4
	C48.7,303.2,39.9,294.9,39.9,283.4z"/>
<path d="M106.8,293.8H87.6l-3.8,8.9h-7.4l17.3-38.5h7l17.4,38.5h-7.5L106.8,293.8z M104.4,288.2l-7.3-16.8L90,288.2H104.4z"/>
<path d="M128.9,270.2h-12.8v-6h32.7v6H136v32.5h-7.1L128.9,270.2L128.9,270.2z"/>
<path d="M188.4,264.2v38.5h-7.1v-16.5h-19.9v16.5h-7.1v-38.5h7.1v15.9h19.9v-15.9H188.4z"/>
<path d="M215.4,289.1v13.6h-7.1v-13.5l-15.1-25h7.6L212,283l11.4-18.8h7L215.4,289.1z"/>
<path d="M250.3,264.2h16.8c12.5,0,21,7.7,21,19.2s-8.5,19.2-21,19.2h-16.8V264.2z M266.8,296.6c8.6,0,14.1-5.2,14.1-13.2
	s-5.6-13.2-14.1-13.2h-9.4v26.4L266.8,296.6L266.8,296.6z"/>
<path d="M293,283.4c0-11.4,8.8-19.8,20.7-19.8s20.7,8.4,20.7,19.8s-8.8,19.8-20.7,19.8S293,294.8,293,283.4z M327.3,283.4
	c0-7.5-6.1-13.5-13.6-13.5s-13.5,6.1-13.5,13.6s6.1,13.5,13.5,13.5c7.2,0.2,13.3-5.5,13.5-12.7C327.2,284,327.2,283.7,327.3,283.4
	L327.3,283.4z"/>
<path d="M342,264.2h7.1v32.5h20.1v6H342V264.2z"/>
<path d="M375,264.2h7.1v32.5h20.1v6H375V264.2z"/>
<path d="M420.4,283.4c0-11.5,8.8-19.8,20.6-19.8c6.3,0,11.7,2.3,15.2,6.4l-4.6,4.3c-2.6-2.9-6.4-4.6-10.3-4.5
	c-8,0-13.7,5.6-13.7,13.5s5.8,13.6,13.7,13.6c3.9,0.1,7.7-1.6,10.3-4.6l4.6,4.4c-3.6,4.2-9,6.4-15.3,6.4
	C429.1,303.2,420.4,294.9,420.4,283.4z"/>
<path d="M459.5,283.4c0-11.5,8.8-19.8,20.6-19.8c6.3,0,11.7,2.3,15.2,6.4l-4.6,4.3c-2.6-2.9-6.4-4.6-10.3-4.5
	c-8,0-13.7,5.6-13.7,13.5s5.8,13.6,13.7,13.6c3.9,0.1,7.7-1.6,10.3-4.6l4.6,4.4c-3.6,4.2-9,6.4-15.3,6.4
	C468.3,303.2,459.5,294.9,459.5,283.4z"/>
<path d="M549.7,277.9c0,8.5-6.3,13.7-16.4,13.7h-8.7v11.1h-7.1v-38.5h15.8C543.4,264.2,549.7,269.4,549.7,277.9z M542.5,277.9
	c0-4.8-3.2-7.7-9.5-7.7h-8.4v15.3h8.4C539.2,285.5,542.5,282.7,542.5,277.9z"/>
<path d="M554.6,283.4c0-11.4,8.8-19.8,20.7-19.8S596,272,596,283.4s-8.8,19.8-20.7,19.8S554.6,294.8,554.6,283.4z M588.9,283.4
	c0-7.5-6.1-13.5-13.6-13.5s-13.5,6.1-13.5,13.6s6.1,13.5,13.5,13.5c7.2,0.2,13.3-5.5,13.5-12.7C588.9,284,588.9,283.7,588.9,283.4z"
	/>
<path d="M658.7,264.2L646,302.7h-7.6l-9.5-28.5l-9.7,28.5h-7.6l-12.8-38.5h7.4l9.6,29.3l10-29.3h6.6l9.7,29.4l9.8-29.4H658.7z"/>
<path d="M664.5,264.2h16.8c12.5,0,21,7.7,21,19.2s-8.5,19.2-21,19.2h-16.8V264.2z M681,296.6c8.6,0,14.1-5.2,14.1-13.2
	s-5.5-13.2-14.1-13.2h-9.3v26.4L681,296.6L681,296.6z"/>
<path d="M738.8,296.7v6H710v-38.5h28.1v6h-21v10h18.6v5.9h-18.6v10.6H738.8z"/>
<path d="M772,302.7l-7.9-11.3c-0.5,0-1,0.1-1.5,0.1H754v11.2h-7.2v-38.5h15.8c10.1,0,16.4,5.2,16.4,13.7c0,5.8-3,10.1-8.2,12.1
	l8.8,12.7L772,302.7L772,302.7z M762.3,270.2H754v15.4h8.4c6.3,0,9.5-2.9,9.5-7.7S768.6,270.2,762.3,270.2L762.3,270.2z"/>
<path d="M834.4,277.9c0,8.5-6.3,13.7-16.4,13.7h-8.7v11.1h-7.2v-38.5H818C828.2,264.2,834.4,269.4,834.4,277.9z M827.2,277.9
	c0-4.8-3.2-7.7-9.5-7.7h-8.4v15.3h8.4C824,285.5,827.2,282.7,827.2,277.9z"/>
<path d="M864.6,293.8h-19.2l-3.8,8.9h-7.4l17.3-38.5h7l17.4,38.5h-7.5L864.6,293.8z M862.3,288.2l-7.3-16.8l-7.2,16.8H862.3z"/>
<path d="M877.6,283.4c0-11.5,8.8-19.8,20.6-19.8c6.3,0,11.7,2.3,15.2,6.4l-4.6,4.3c-2.6-2.9-6.4-4.6-10.3-4.5
	c-8,0-13.7,5.6-13.7,13.5s5.8,13.6,13.7,13.6c3.9,0.1,7.7-1.6,10.3-4.6l4.6,4.4c-3.6,4.2-9,6.4-15.3,6.4
	C886.4,303.2,877.6,294.9,877.6,283.4z"/>
<path d="M927.7,270.2h-12.8v-6h32.7v6h-12.7v32.5h-7.2V270.2z"/>
<path d="M39.4,364.6l2.5-5.5c3.7,2.7,8.1,4.2,12.7,4.2c6,0,8.5-2.1,8.5-5c0-8.3-22.9-2.9-22.9-17.2c0-6.2,5-11.5,15.5-11.5
	c4.5-0.1,8.9,1.1,12.8,3.4l-2.2,5.6c-3.2-1.9-6.9-2.9-10.6-3c-5.9,0-8.4,2.3-8.4,5.2c0,8.2,22.8,2.9,22.8,17c0,6.2-5,11.4-15.6,11.4
	C48.6,369.2,42.6,367.4,39.4,364.6z"/>
<path d="M109.5,343.9c0,8.5-6.3,13.7-16.4,13.7h-8.7v11.1h-7.1v-38.5h15.8C103.2,330.2,109.5,335.4,109.5,343.9z M102.3,343.9
	c0-4.8-3.2-7.7-9.5-7.7h-8.4v15.3h8.4C99,351.5,102.3,348.7,102.3,343.9z"/>
<path d="M123.8,336.2v11.7h18.6v6h-18.6v14.7h-7.1v-38.5h28.1v6L123.8,336.2z"/>
<path d="M180.8,360H174v8.7h-7V360h-21.1v-5l19-24.8h7.6l-17.9,23.7h12.6v-7.8h6.8v7.8h6.8L180.8,360z"/>
<path d="M183.8,349.4c0-12.6,6.9-19.8,16.1-19.8s16.1,7.1,16.1,19.8s-6.9,19.8-16.1,19.8S183.8,362.1,183.8,349.4z M208.8,349.4
	c0-9.3-3.6-13.6-8.9-13.6s-8.9,4.3-8.9,13.6s3.6,13.6,8.9,13.6S208.8,358.7,208.8,349.4L208.8,349.4z"/>
<path d="M271,343.9c0,8.5-6.3,13.7-16.4,13.7h-8.7v11.1h-7.1v-38.5h15.8C264.7,330.2,271,335.4,271,343.9z M263.8,343.9
	c0-4.8-3.2-7.7-9.5-7.7h-8.4v15.3h8.4C260.5,351.5,263.8,348.7,263.8,343.9L263.8,343.9z"/>
<path d="M301.2,359.8H282l-3.8,8.9h-7.4l17.3-38.5h7l17.4,38.5H305L301.2,359.8z M298.8,354.2l-7.3-16.8l-7.2,16.8H298.8z"/>
<path d="M340,352.2h-9.7v9.6h-5.9v-9.6h-9.7v-5.5h9.7v-9.6h5.9v9.6h9.7V352.2z"/>
<path d="M372.8,352.2H363v9.6h-5.9v-9.6h-9.7v-5.5h9.7v-9.6h5.9v9.6h9.7L372.8,352.2z"/>
<path d="M405.5,352.2h-9.7v9.6h-5.9v-9.6h-9.7v-5.5h9.7v-9.6h5.9v9.6h9.7V352.2z"/>
<path d="M463.6,330.2v38.5h-5.9l-21.2-26.1v26.1h-7.1v-38.5h5.9l21.2,26.1v-26.1H463.6z"/>
<path d="M497.8,351.5v17.2h-6.5v-3.6c-1.6,2.5-4.8,4-9.2,4c-6.7,0-10.9-3.7-10.9-8.8c0-4.9,3.3-8.8,12.2-8.8h7.6v-0.4
	c0-4-2.4-6.4-7.3-6.4c-3.2,0-6.3,1-8.9,2.9l-2.7-5c3.1-2.4,7.7-3.6,12.4-3.6C493,339,497.8,343,497.8,351.5z M491,359.5v-3.4h-7.1
	c-4.7,0-5.9,1.8-5.9,3.9c0,2.5,2.1,4.1,5.6,4.1C486.9,364.1,489.8,362.5,491,359.5L491,359.5z"/>
<path d="M524.3,367.1c-1.9,1.4-4.2,2.1-6.6,2c-6.4,0-10.1-3.4-10.1-9.9V345h-4.8v-5.5h4.8v-6.7h6.9v6.7h7.9v5.5h-7.9v14
	c0,2.9,1.4,4.4,4.1,4.4c1.4,0,2.7-0.4,3.8-1.2L524.3,367.1z"/>
<path d="M558.4,339.3v29.4h-6.5V365c-2.4,2.7-5.8,4.2-9.5,4.1c-7.5,0-12.6-4.1-12.6-13v-16.8h6.9v15.8c0,5.3,2.5,7.9,6.9,7.9
	c4.8,0,8-3,8-8.9v-14.8L558.4,339.3L558.4,339.3z"/>
<path d="M584.4,339v6.5c-0.5-0.1-1.1-0.2-1.6-0.2c-5.2,0-8.5,3.1-8.5,9.1v14.2h-6.9v-29.4h6.6v4.3C575.9,340.5,579.5,339,584.4,339z
	"/>
<path d="M614.7,351.5v17.2h-6.5v-3.6c-1.7,2.5-4.8,4-9.2,4c-6.7,0-10.9-3.7-10.9-8.8c0-4.9,3.3-8.8,12.2-8.8h7.6v-0.4
	c0-4-2.4-6.4-7.3-6.4c-3.2,0-6.3,1-8.9,2.9l-2.7-5c3.1-2.4,7.7-3.6,12.4-3.6C609.8,339,614.7,343,614.7,351.5z M607.8,359.5v-3.4
	h-7.1c-4.7,0-5.9,1.8-5.9,3.9c0,2.5,2.1,4.1,5.6,4.1C603.7,364.1,606.6,362.5,607.8,359.5L607.8,359.5z"/>
<path d="M623.5,327.9h6.9v40.8h-6.9V327.9z"/>
<path d="M689.4,358.2c0,6.6-5.2,10.5-15.1,10.5h-19.1v-38.5h18c9.2,0,14.2,3.9,14.2,10c0.1,3.5-1.8,6.8-5,8.5
	C686.7,349.8,689.6,353.8,689.4,358.2z M662.4,335.8v10.6h10.1c5,0,7.8-1.8,7.8-5.3s-2.8-5.3-7.8-5.3L662.4,335.8L662.4,335.8z
	 M682.2,357.5c0-3.9-2.9-5.6-8.3-5.6h-11.6V363h11.6C679.3,363.1,682.2,361.4,682.2,357.5L682.2,357.5z"/>
<path d="M723.9,356.2h-23c0.8,4.3,4.4,7,9.5,7c3,0.1,5.9-1,8-3.2l3.7,4.2c-2.6,3.1-6.8,4.8-11.8,4.8c-9.8,0-16.2-6.3-16.2-15.1
	s6.4-15,15.2-15c8.6,0,14.8,6,14.8,15.2C724,354.7,723.9,355.5,723.9,356.2z M700.8,351.6h16.7c-0.4-4.2-4.1-7.3-8.3-7.2
	C704.9,344.3,701.3,347.4,700.8,351.6L700.8,351.6z"/>
<path d="M729.7,330.4c0-2.3,1.9-4.2,4.2-4.1c0.1,0,0.1,0,0.2,0c2.3-0.2,4.2,1.5,4.4,3.8c0,0.1,0,0.1,0,0.2c-0.1,2.4-2.2,4.3-4.6,4.2
	C731.7,334.3,729.9,332.6,729.7,330.4L729.7,330.4z M730.6,339.4h6.9v29.4h-6.9V339.4z"/>
<path d="M775.6,339.3v24.9c0,10.7-5.5,15.5-15.8,15.5c-5.5,0-10.9-1.4-14.3-4.2l3.1-5.2c3.1,2.3,6.9,3.6,10.8,3.5
	c6.5,0,9.3-3,9.3-8.9v-1.5c-2.6,2.6-6.2,4.1-9.8,3.9c-8.4,0-14.8-5.7-14.8-14.2s6.4-14.1,14.8-14.1c4.1,0,7.8,1.3,10.2,4.2v-3.9
	L775.6,339.3z M768.9,353.1c0-5-3.7-8.3-8.9-8.3s-9,3.4-9,8.3s3.7,8.4,9,8.4S768.9,358.1,768.9,353.1z"/>
<path d="M812.2,356.2h-23c0.8,4.3,4.4,7,9.5,7c3,0.1,5.9-1,8-3.2l3.7,4.2c-2.6,3.1-6.8,4.8-11.8,4.8c-9.8,0-16.2-6.3-16.2-15.1
	s6.4-15,15.2-15c8.6,0,14.8,6,14.8,15.2C812.3,354.7,812.2,355.5,812.2,356.2z M789.1,351.6h16.7c-0.4-4.2-4.1-7.3-8.3-7.2
	C793.2,344.3,789.6,347.4,789.1,351.6z"/>
<g id="_Rectangle_">
	<rect x="43.2" y="35.2" class="st0" width="383" height="113.1"/>
</g>
<g class="st1">
	<path class="st2" d="M84.9,113.8V77.7l-9.2,7.1l-6-8.3l16.2-11.9h10.6v49.2H84.9z"/>
	<path class="st2" d="M151.9,80.9c0,2.9-0.5,5.6-1.5,8c-1,2.4-2.3,4.8-4,7.3l-11.9,17.7h-14.1l12.2-17l0.1-0.2
		c-0.5,0.2-1.1,0.3-1.7,0.4s-1.2,0.1-1.8,0.1c-2.2,0-4.2-0.4-6.2-1.1s-3.7-1.9-5.1-3.3c-1.5-1.4-2.7-3.1-3.5-5.1
		c-0.9-2-1.3-4.2-1.3-6.6c0-2.8,0.5-5.3,1.5-7.5c1-2.2,2.4-4.1,4.2-5.6c1.8-1.5,3.8-2.7,6.2-3.5c2.4-0.8,4.9-1.2,7.5-1.2
		c2.7,0,5.2,0.4,7.6,1.2c2.4,0.8,4.4,2,6.1,3.5s3.1,3.4,4.1,5.6C151.4,75.8,151.9,78.2,151.9,80.9z M140.3,80.7c0-2.1-0.7-4-2.1-5.5
		c-1.4-1.6-3.2-2.3-5.6-2.3s-4.3,0.7-5.7,2.2c-1.4,1.5-2.1,3.4-2.1,5.7c0,2.2,0.7,4.1,2.1,5.5s3.3,2.2,5.6,2.2
		c2.3,0,4.2-0.7,5.7-2.2C139.6,84.9,140.3,83.1,140.3,80.7z"/>
	<path class="st2" d="M196.8,80.9c0,2.9-0.5,5.6-1.5,8c-1,2.4-2.3,4.8-4,7.3l-11.9,17.7h-14.1l12.2-17l0.1-0.2
		c-0.5,0.2-1.1,0.3-1.7,0.4s-1.2,0.1-1.8,0.1c-2.2,0-4.2-0.4-6.2-1.1s-3.7-1.9-5.1-3.3c-1.5-1.4-2.7-3.1-3.5-5.1
		c-0.9-2-1.3-4.2-1.3-6.6c0-2.8,0.5-5.3,1.5-7.5c1-2.2,2.4-4.1,4.2-5.6c1.8-1.5,3.8-2.7,6.2-3.5c2.4-0.8,4.9-1.2,7.5-1.2
		c2.7,0,5.2,0.4,7.6,1.2c2.4,0.8,4.4,2,6.1,3.5s3.1,3.4,4.1,5.6C196.3,75.8,196.8,78.2,196.8,80.9z M185.2,80.7c0-2.1-0.7-4-2.1-5.5
		c-1.4-1.6-3.2-2.3-5.6-2.3s-4.3,0.7-5.7,2.2c-1.4,1.5-2.1,3.4-2.1,5.7c0,2.2,0.7,4.1,2.1,5.5s3.3,2.2,5.6,2.2
		c2.3,0,4.2-0.7,5.7-2.2C184.5,84.9,185.2,83.1,185.2,80.7z"/>
	<path class="st2" d="M210.7,122.5h-9.4l5.2-19.7h10.9L210.7,122.5z"/>
	<path class="st2" d="M262.5,89.1c0,3.5-0.3,6.8-1,9.9c-0.7,3.2-1.8,5.9-3.3,8.3c-1.5,2.4-3.5,4.3-5.9,5.7s-5.4,2.1-8.9,2.1
		s-6.4-0.7-8.9-2.1c-2.5-1.4-4.5-3.3-6-5.7c-1.6-2.4-2.7-5.2-3.4-8.3c-0.7-3.2-1-6.5-1-9.9c0-3.5,0.3-6.8,1-9.9
		c0.7-3.1,1.8-5.9,3.4-8.2c1.6-2.3,3.6-4.2,6-5.6c2.5-1.4,5.4-2.1,8.9-2.1s6.4,0.7,8.9,2.1c2.4,1.4,4.4,3.3,5.9,5.6
		c1.5,2.3,2.6,5.1,3.3,8.2C262.2,82.3,262.5,85.6,262.5,89.1z M250.6,89.1c0-1.5-0.1-3.2-0.3-5.1c-0.2-1.9-0.5-3.6-1-5.2
		c-0.5-1.6-1.2-2.9-2.2-4c-1-1.1-2.2-1.6-3.7-1.6s-2.8,0.5-3.8,1.6c-1,1.1-1.7,2.4-2.3,4c-0.5,1.6-0.9,3.3-1.1,5.2
		c-0.2,1.9-0.3,3.5-0.3,5.1c0,1.6,0.1,3.3,0.3,5.2c0.2,1.9,0.5,3.6,1.1,5.2c0.5,1.6,1.3,2.9,2.3,4c1,1.1,2.2,1.6,3.8,1.6
		s2.8-0.5,3.7-1.6c0.9-1.1,1.7-2.4,2.2-4c0.5-1.6,0.9-3.3,1-5.2C250.5,92.4,250.6,90.7,250.6,89.1z"/>
	<path class="st2" d="M307.4,89.1c0,3.5-0.3,6.8-1,9.9c-0.7,3.2-1.8,5.9-3.3,8.3c-1.5,2.4-3.5,4.3-5.9,5.7s-5.4,2.1-8.9,2.1
		s-6.4-0.7-8.9-2.1c-2.5-1.4-4.5-3.3-6-5.7c-1.6-2.4-2.7-5.2-3.4-8.3c-0.7-3.2-1-6.5-1-9.9c0-3.5,0.3-6.8,1-9.9
		c0.7-3.1,1.8-5.9,3.4-8.2c1.6-2.3,3.6-4.2,6-5.6c2.5-1.4,5.4-2.1,8.9-2.1s6.4,0.7,8.9,2.1c2.4,1.4,4.4,3.3,5.9,5.6
		c1.5,2.3,2.6,5.1,3.3,8.2C307.1,82.3,307.4,85.6,307.4,89.1z M295.5,89.1c0-1.5-0.1-3.2-0.3-5.1c-0.2-1.9-0.5-3.6-1-5.2
		c-0.5-1.6-1.2-2.9-2.2-4c-1-1.1-2.2-1.6-3.7-1.6s-2.8,0.5-3.8,1.6c-1,1.1-1.7,2.4-2.3,4c-0.5,1.6-0.9,3.3-1.1,5.2
		c-0.2,1.9-0.3,3.5-0.3,5.1c0,1.6,0.1,3.3,0.3,5.2c0.2,1.9,0.5,3.6,1.1,5.2c0.5,1.6,1.3,2.9,2.3,4c1,1.1,2.2,1.6,3.8,1.6
		s2.8-0.5,3.7-1.6c0.9-1.1,1.7-2.4,2.2-4c0.5-1.6,0.9-3.3,1-5.2C295.4,92.4,295.5,90.7,295.5,89.1z"/>
	<path class="st2" d="M352.3,89.1c0,3.5-0.3,6.8-1,9.9c-0.7,3.2-1.8,5.9-3.3,8.3c-1.5,2.4-3.5,4.3-5.9,5.7s-5.4,2.1-8.9,2.1
		s-6.4-0.7-8.9-2.1c-2.5-1.4-4.5-3.3-6-5.7c-1.6-2.4-2.7-5.2-3.4-8.3c-0.7-3.2-1-6.5-1-9.9c0-3.5,0.3-6.8,1-9.9
		c0.7-3.1,1.8-5.9,3.4-8.2c1.6-2.3,3.6-4.2,6-5.6c2.5-1.4,5.4-2.1,8.9-2.1s6.4,0.7,8.9,2.1c2.4,1.4,4.4,3.3,5.9,5.6
		c1.5,2.3,2.6,5.1,3.3,8.2C352,82.3,352.3,85.6,352.3,89.1z M340.4,89.1c0-1.5-0.1-3.2-0.3-5.1c-0.2-1.9-0.5-3.6-1-5.2
		c-0.5-1.6-1.2-2.9-2.2-4c-1-1.1-2.2-1.6-3.7-1.6s-2.8,0.5-3.8,1.6c-1,1.1-1.7,2.4-2.3,4c-0.5,1.6-0.9,3.3-1.1,5.2
		c-0.2,1.9-0.3,3.5-0.3,5.1c0,1.6,0.1,3.3,0.3,5.2c0.2,1.9,0.5,3.6,1.1,5.2c0.5,1.6,1.3,2.9,2.3,4c1,1.1,2.2,1.6,3.8,1.6
		s2.8-0.5,3.7-1.6c0.9-1.1,1.7-2.4,2.2-4c0.5-1.6,0.9-3.3,1-5.2C340.3,92.4,340.4,90.7,340.4,89.1z"/>
	<path class="st2" d="M386.2,113.8v-4.5h-0.1c-1.1,1.8-2.7,3.1-4.8,4.1c-2.1,0.9-4.3,1.4-6.6,1.4c-2.6,0-4.9-0.5-7-1.5
		c-2-1-3.8-2.4-5.2-4.1c-1.4-1.7-2.5-3.6-3.2-5.9c-0.7-2.2-1.1-4.5-1.1-7c0-2.4,0.4-4.7,1.1-6.9c0.8-2.2,1.9-4.1,3.3-5.8
		c1.4-1.7,3.1-3,5.1-4c2-1,4.3-1.5,6.8-1.5c2.5,0,4.7,0.5,6.5,1.5c1.8,1,3.1,2,4.1,3.2h0.1v-8.7h-10.4V68h10.4v-6.7h11.4V68h3.2v6.2
		h-3.2v39.6H386.2z M385.8,96.5c0-1.1-0.2-2.2-0.6-3.3c-0.4-1.1-1-2-1.7-2.9c-0.7-0.8-1.6-1.5-2.6-2c-1-0.5-2.2-0.8-3.5-0.8
		c-1.3,0-2.5,0.3-3.5,0.8c-1,0.5-1.9,1.2-2.6,2c-0.7,0.8-1.2,1.8-1.6,2.8c-0.3,1.1-0.5,2.2-0.5,3.3s0.2,2.2,0.5,3.3
		c0.3,1.1,0.9,2.1,1.6,2.9c0.7,0.8,1.6,1.5,2.6,2c1,0.5,2.2,0.8,3.5,0.8c1.3,0,2.5-0.3,3.5-0.8c1-0.5,1.9-1.2,2.6-2
		c0.7-0.8,1.3-1.8,1.7-2.8C385.6,98.7,385.8,97.6,385.8,96.5z"/>
</g>
</svg>
