<svg id="Layer_1" data-name="Layer 1" xmlns="http://www.w3.org/2000/svg" viewBox="0 0 996 360.41"><defs><style>.cls-1{fill:#c90202;}.cls-2{fill:#fff;}</style></defs><title>Image convert 4 (chăm sóc da mặt và tẩy trang) text fix</title><path d="M55.72,193.22H46v-4.95h25.2v4.95H61.39v26.91H55.72Z"/><path d="M74.84,188.27h5.67v31.86H74.84Z"/><path d="M87.53,188.27h7.52l14.8,23.85h.09V188.27h5.67v31.86h-7.2L93.29,195.52H93.2v24.61H87.53Z"/><path d="M122.63,188.27h5.67v12.87h14.9V188.27h5.67v31.86H143.2V206H128.3v14.13h-5.67Z"/><path d="M190.13,195.74a7.27,7.27,0,0,0-3.28-2.49,10.78,10.78,0,0,0-4-.79,11,11,0,0,0-4.5.9,10.64,10.64,0,0,0-3.49,2.47,11,11,0,0,0-2.25,3.69,13,13,0,0,0-.79,4.59,14.16,14.16,0,0,0,.77,4.77,10.75,10.75,0,0,0,2.18,3.72,9.69,9.69,0,0,0,3.4,2.4,10.94,10.94,0,0,0,4.45.86,9.93,9.93,0,0,0,4.55-1,8.92,8.92,0,0,0,3.19-2.68l4.55,3.19a14.42,14.42,0,0,1-5.18,4.12,16.33,16.33,0,0,1-7.15,1.46,18.65,18.65,0,0,1-6.87-1.23,15.84,15.84,0,0,1-5.37-3.47,15.68,15.68,0,0,1-3.51-5.31,17.82,17.82,0,0,1-1.26-6.82,17.36,17.36,0,0,1,1.32-6.9,15.38,15.38,0,0,1,3.65-5.25,16.3,16.3,0,0,1,5.47-3.33,19.73,19.73,0,0,1,6.84-1.17,18,18,0,0,1,3.19.3,16,16,0,0,1,6.08,2.4,9.63,9.63,0,0,1,2.29,2.16Z"/><path d="M198.46,188.27h5.67v12.87H219V188.27h5.67v31.86H219V206H204.13v14.13h-5.67Z"/><path d="M241.7,188.27h4.91l13.72,31.86h-6.48l-3-7.29H237.07l-2.88,7.29h-6.35Zm5.54-2.07-3.11-4-3.1,4h-5l5.17-6.48h6.08l5.13,6.48ZM248.9,208,244,195l-5,13Zm3.74-33.25h5.94l-5.31,6.21H249.4Z"/><path d="M269.92,193.22h-9.77v-4.95h25.2v4.95h-9.76v26.91h-5.67Z"/><path d="M299.21,188.27h11.3a25,25,0,0,1,6.25.81,16.29,16.29,0,0,1,5.67,2.68,14,14,0,0,1,4.1,4.91,16.24,16.24,0,0,1,1.57,7.53,15.34,15.34,0,0,1-1.57,7.2,14.56,14.56,0,0,1-4.1,4.95,16.84,16.84,0,0,1-5.67,2.86,22,22,0,0,1-6.25.92h-11.3Zm10.4,26.91a19.51,19.51,0,0,0,4.41-.51,11.53,11.53,0,0,0,4-1.76,9.33,9.33,0,0,0,2.9-3.35A11.35,11.35,0,0,0,322,204.2a12.09,12.09,0,0,0-1.13-5.58,9.07,9.07,0,0,0-2.9-3.37,11,11,0,0,0-4-1.67,22.76,22.76,0,0,0-4.41-.45h-4.73v22.05Z"/><path d="M359,208.43a13.07,13.07,0,0,1-1,5.2,11.61,11.61,0,0,1-2.7,3.94,12,12,0,0,1-4,2.5,15.3,15.3,0,0,1-10.17,0,12.15,12.15,0,0,1-4.07-2.5,11.08,11.08,0,0,1-2.7-3.94,13.24,13.24,0,0,1-1-5.2V188.27H339v19.94a10.91,10.91,0,0,0,.36,2.77,6.9,6.9,0,0,0,1.19,2.45,6.16,6.16,0,0,0,2.21,1.75,8.82,8.82,0,0,0,6.79,0,6.16,6.16,0,0,0,2.21-1.75,6.9,6.9,0,0,0,1.19-2.45,10.91,10.91,0,0,0,.36-2.77V188.27h3.2a3.54,3.54,0,0,0,2.81-.92,3.87,3.87,0,0,0,.79-2.59,5.42,5.42,0,0,0-.21-1.46,4.28,4.28,0,0,0-.56-1.28l4.64-1.17a7.16,7.16,0,0,1,.63,1.82,11.07,11.07,0,0,1,.18,2.09,6.45,6.45,0,0,1-1.56,4.73,5.94,5.94,0,0,1-4.25,1.66Z"/><path d="M400.73,186.38a6.51,6.51,0,0,1-1.55,4.68,6,6,0,0,1-4.39,1.71,15.92,15.92,0,0,1,3,5,17.68,17.68,0,0,1,1.08,6.34,17.45,17.45,0,0,1-1.29,6.82,15.53,15.53,0,0,1-3.57,5.31,16.28,16.28,0,0,1-5.45,3.47,18.74,18.74,0,0,1-6.88,1.23,18.46,18.46,0,0,1-6.82-1.23,16,16,0,0,1-5.4-3.47,15.8,15.8,0,0,1-3.56-5.31,17.63,17.63,0,0,1-1.28-6.82,17.9,17.9,0,0,1,1.28-6.9,15.16,15.16,0,0,1,3.56-5.25,15.8,15.8,0,0,1,5.4-3.33,19.53,19.53,0,0,1,6.82-1.17,19.74,19.74,0,0,1,4,.36,25,25,0,0,1,2.86.81l2.16.81a5.07,5.07,0,0,0,1.89.36,3.41,3.41,0,0,0,2.68-.87,3.88,3.88,0,0,0,.74-2.55,5.82,5.82,0,0,0-.2-1.46,4.55,4.55,0,0,0-.56-1.28l4.63-1.17a7.16,7.16,0,0,1,.63,1.82A11.07,11.07,0,0,1,400.73,186.38Zm-29.92,17.73a13.69,13.69,0,0,0,.78,4.71,11.15,11.15,0,0,0,2.25,3.71,10.28,10.28,0,0,0,3.47,2.45,10.82,10.82,0,0,0,4.43.88,11,11,0,0,0,4.46-.88,10.12,10.12,0,0,0,3.48-2.45,10.83,10.83,0,0,0,2.25-3.71,13.46,13.46,0,0,0,.79-4.71,13,13,0,0,0-.79-4.59,11.29,11.29,0,0,0-2.22-3.69,10.45,10.45,0,0,0-3.47-2.47,11,11,0,0,0-4.5-.9,10.83,10.83,0,0,0-4.48.9,10.54,10.54,0,0,0-3.44,2.47,11.49,11.49,0,0,0-2.23,3.69A13.25,13.25,0,0,0,370.81,204.11Zm2.88-18.54a15.09,15.09,0,0,1,.51-2.11,6.37,6.37,0,0,1,.93-1.82,4.66,4.66,0,0,1,1.46-1.29,4.4,4.4,0,0,1,2.14-.49,8.23,8.23,0,0,1,1.82.22,11.34,11.34,0,0,1,1.73.59c.6.24,1.15.44,1.64.61a4.34,4.34,0,0,0,1.29.24,1.68,1.68,0,0,0,1.37-.56,3.6,3.6,0,0,0,.7-1.33h3a15.25,15.25,0,0,1-.52,2.12,6.35,6.35,0,0,1-.92,1.82,4.43,4.43,0,0,1-1.47,1.28,4.15,4.15,0,0,1-2.13.5,6.85,6.85,0,0,1-1.89-.27,15.87,15.87,0,0,1-1.8-.63c-.54-.24-1-.43-1.53-.59a4.64,4.64,0,0,0-1.26-.22,1.71,1.71,0,0,0-1.38.58,4.11,4.11,0,0,0-.69,1.35Z"/><path d="M404.38,188.27h7.51l14.81,23.85h.09V188.27h5.67v31.86h-7.2l-15.12-24.61h-.09v24.61h-5.67Z"/><path d="M467.38,218.47a24.48,24.48,0,0,1-5.34,1.82,30.31,30.31,0,0,1-6.68.65,19.49,19.49,0,0,1-7.06-1.23,16.17,16.17,0,0,1-5.49-3.47,15.56,15.56,0,0,1-3.58-5.31,18.75,18.75,0,0,1,0-13.72,15.38,15.38,0,0,1,3.65-5.25,16.3,16.3,0,0,1,5.47-3.33,19.73,19.73,0,0,1,6.84-1.17,21,21,0,0,1,7,1.11,14.16,14.16,0,0,1,5.11,2.9l-3.91,4.23a9.71,9.71,0,0,0-3.4-2.3,11.85,11.85,0,0,0-4.75-.94,11.26,11.26,0,0,0-4.57.9,10.39,10.39,0,0,0-3.48,2.47,11.32,11.32,0,0,0-2.23,3.69,13,13,0,0,0-.79,4.59,13.46,13.46,0,0,0,.79,4.71,10.83,10.83,0,0,0,2.25,3.71,10,10,0,0,0,3.55,2.45,12.12,12.12,0,0,0,4.75.88,16.26,16.26,0,0,0,6.35-1.13v-8.1h-6.71V202h12.2Z"/><path d="M490.87,193.22H481.1v-4.95h25.2v4.95h-9.76v26.91h-5.67Z"/><path d="M510,188.27h11.07a19.71,19.71,0,0,1,4.37.48,11,11,0,0,1,3.75,1.55,8.06,8.06,0,0,1,2.64,2.83,8.6,8.6,0,0,1,1,4.28,8.18,8.18,0,0,1-2,5.65,9.83,9.83,0,0,1-5.33,2.94l8.5,14.13h-6.84l-7.38-13.5h-4.14v13.5H510ZM520.3,202a16.56,16.56,0,0,0,2.43-.18,6.79,6.79,0,0,0,2.18-.68,4.24,4.24,0,0,0,1.6-1.41,4.12,4.12,0,0,0,.63-2.37,3.62,3.62,0,0,0-.59-2.13,4.3,4.3,0,0,0-1.48-1.33,6.51,6.51,0,0,0-2.05-.68,15.81,15.81,0,0,0-2.23-.18h-5.13v9Z"/><path d="M548.29,188.27h4.9l13.73,31.86h-6.48l-3-7.29H543.65l-2.88,7.29h-6.34ZM546.13,180a3,3,0,0,0,1.62,2.34,6.7,6.7,0,0,0,3,.63,7.17,7.17,0,0,0,3.06-.54,3.46,3.46,0,0,0,1.62-2.43h3A6.75,6.75,0,0,1,556,184.9a8.39,8.39,0,0,1-5.28,1.57,8.58,8.58,0,0,1-5.31-1.55,6.32,6.32,0,0,1-2.3-4.93Zm9.36,28-4.91-13-5,13Zm-4.59-33.07h5.76l-4.82,5.62H548Z"/><path d="M570.07,188.27h7.51l14.81,23.85h.09V188.27h5.67v31.86H591l-15.12-24.61h-.09v24.61h-5.67Z"/><path d="M633.07,218.47a24.48,24.48,0,0,1-5.34,1.82,30.31,30.31,0,0,1-6.68.65,19.49,19.49,0,0,1-7.06-1.23,16.17,16.17,0,0,1-5.49-3.47,15.56,15.56,0,0,1-3.58-5.31,18.75,18.75,0,0,1,0-13.72,15.38,15.38,0,0,1,3.65-5.25,16.3,16.3,0,0,1,5.47-3.33,19.73,19.73,0,0,1,6.84-1.17,21,21,0,0,1,7,1.11,14.16,14.16,0,0,1,5.11,2.9l-3.91,4.23a9.71,9.71,0,0,0-3.4-2.3,11.85,11.85,0,0,0-4.75-.94,11.26,11.26,0,0,0-4.57.9,10.39,10.39,0,0,0-3.48,2.47,11.32,11.32,0,0,0-2.23,3.69,13,13,0,0,0-.79,4.59,13.46,13.46,0,0,0,.79,4.71,10.83,10.83,0,0,0,2.25,3.71,10,10,0,0,0,3.55,2.45,12.12,12.12,0,0,0,4.75.88,16.26,16.26,0,0,0,6.35-1.13v-8.1h-6.71V202h12.2Z"/><path d="M651.2,188.27h11.3a25,25,0,0,1,6.25.81,16.29,16.29,0,0,1,5.67,2.68,14.15,14.15,0,0,1,4.1,4.91,16.24,16.24,0,0,1,1.57,7.53,15.34,15.34,0,0,1-1.57,7.2,14.68,14.68,0,0,1-4.1,4.95,16.84,16.84,0,0,1-5.67,2.86,22,22,0,0,1-6.25.92H651.2Zm10.4,26.91a19.58,19.58,0,0,0,4.41-.51,11.53,11.53,0,0,0,4-1.76,9.33,9.33,0,0,0,2.9-3.35A11.35,11.35,0,0,0,674,204.2a12.09,12.09,0,0,0-1.13-5.58,9.07,9.07,0,0,0-2.9-3.37,11,11,0,0,0-4-1.67,22.84,22.84,0,0,0-4.41-.45h-4.73v22.05Z"/><path d="M694.49,188.27h4.91l13.72,31.86h-6.48l-3-7.29H689.86L687,220.13h-6.35Zm7.2,19.71-4.9-13-5,13Z"/><path d="M49.06,237.35h7a13.44,13.44,0,0,1,3.43.41A7.48,7.48,0,0,1,62.13,239a5.42,5.42,0,0,1,1.7,2.07,6.65,6.65,0,0,1,.6,2.92,6.51,6.51,0,0,1-.62,2.92A5.63,5.63,0,0,1,62.1,249a7.7,7.7,0,0,1-2.66,1.24,13.26,13.26,0,0,1-3.45.42H51.58v11.51H49.06Zm2.52,11.13h4.27a7.46,7.46,0,0,0,4.52-1.15A4,4,0,0,0,61.91,244a3.76,3.76,0,0,0-1.6-3.38,8,8,0,0,0-4.46-1.07H51.58Z"/><path d="M93.86,249.74a13.48,13.48,0,0,1-1,5.22,12.26,12.26,0,0,1-6.81,6.82,13.89,13.89,0,0,1-10.25,0,12.38,12.38,0,0,1-4.1-2.71A12.52,12.52,0,0,1,69,255a14.37,14.37,0,0,1,0-10.43,12.32,12.32,0,0,1,6.81-6.83,13.89,13.89,0,0,1,10.25,0,12.56,12.56,0,0,1,4.1,2.72,12.37,12.37,0,0,1,2.71,4.11A13.43,13.43,0,0,1,93.86,249.74Zm-2.66,0a12,12,0,0,0-.7-4.12,10.08,10.08,0,0,0-2-3.44,9.65,9.65,0,0,0-3.24-2.36,10.87,10.87,0,0,0-8.57,0,9.75,9.75,0,0,0-3.24,2.36,10.41,10.41,0,0,0-2,3.44,12.5,12.5,0,0,0,0,8.25,10.31,10.31,0,0,0,2,3.42,9.84,9.84,0,0,0,3.24,2.34,11,11,0,0,0,8.57,0,9.74,9.74,0,0,0,3.24-2.34,10,10,0,0,0,2-3.42A12.11,12.11,0,0,0,91.2,249.76Z"/><path d="M105.1,258.67h.07l6.19-21.32h3l6.2,21.32h.07l6-21.32h2.66L122,262.13H119.1l-6.23-21.28h-.07l-6.23,21.28h-2.94l-7.32-24.78H99Z"/><path d="M135.65,259.89h13.27v2.24H133.13V237.35H148.5v2.24H135.65v8.51h12v2.24h-12Z"/><path d="M156.37,262.13h-2.52V237.35h7.28a15.66,15.66,0,0,1,3.38.35,7.73,7.73,0,0,1,2.69,1.14,5.4,5.4,0,0,1,1.77,2,6.85,6.85,0,0,1,.63,3.08,6,6,0,0,1-.49,2.48,6.19,6.19,0,0,1-1.33,2,6.38,6.38,0,0,1-2,1.31,8.48,8.48,0,0,1-2.52.63l7.24,11.79h-3.08l-6.86-11.58h-4.2Zm0-13.75h4.38a8.45,8.45,0,0,0,4.69-1.1,3.74,3.74,0,0,0,1.64-3.31,4.34,4.34,0,0,0-.45-2.07,3.82,3.82,0,0,0-1.26-1.36,5.7,5.7,0,0,0-2-.77,12.63,12.63,0,0,0-2.56-.25h-4.48Z"/><path d="M208.07,249.74a13.67,13.67,0,0,1-1,5.22,12.35,12.35,0,0,1-6.81,6.82,13.92,13.92,0,0,1-10.26,0,12.29,12.29,0,0,1-6.8-6.82,14.37,14.37,0,0,1,0-10.43,12.22,12.22,0,0,1,2.71-4.11A12.51,12.51,0,0,1,190,237.7a13.92,13.92,0,0,1,10.26,0,12.4,12.4,0,0,1,6.81,6.83A13.62,13.62,0,0,1,208.07,249.74Zm-2.66,0a12.29,12.29,0,0,0-.7-4.12,10.41,10.41,0,0,0-2-3.44,9.75,9.75,0,0,0-3.24-2.36,10.9,10.9,0,0,0-8.58,0,9.61,9.61,0,0,0-3.23,2.36,10.08,10.08,0,0,0-2,3.44,12.5,12.5,0,0,0,0,8.25,10,10,0,0,0,2,3.42,9.7,9.7,0,0,0,3.23,2.34,11,11,0,0,0,8.58,0,9.84,9.84,0,0,0,3.24-2.34,10.31,10.31,0,0,0,2-3.42A12.35,12.35,0,0,0,205.41,249.76Z"/><path d="M230.89,258.46H231V237.35h2.52v24.78h-3.15l-14.42-21.31h-.07v21.31h-2.52V237.35h3.15Z"/><path d="M251.33,259.89h11.55v2.24H248.81V237.35h2.52Z"/><path d="M271.63,254.64h-7.84v-2h7.84Z"/><path d="M295.39,241.83a9,9,0,0,0-3.08-2.11,10.52,10.52,0,0,0-4.1-.76,10.2,10.2,0,0,0-4.28.88,9.75,9.75,0,0,0-3.24,2.36,10.45,10.45,0,0,0-2.05,3.44,12.34,12.34,0,0,0,0,8.25,10.36,10.36,0,0,0,2.05,3.42,9.84,9.84,0,0,0,3.24,2.34,10.2,10.2,0,0,0,4.28.87,15.49,15.49,0,0,0,3.86-.45,9.61,9.61,0,0,0,2.83-1.16v-7.52h-5.78v-2.24h8.3v11.19a16,16,0,0,1-4.38,1.83,19.49,19.49,0,0,1-4.86.59,13.35,13.35,0,0,1-5.18-1,12.12,12.12,0,0,1-6.77-6.82,13.85,13.85,0,0,1-1-5.22,13.43,13.43,0,0,1,1-5.21,12.22,12.22,0,0,1,2.71-4.11,12.51,12.51,0,0,1,4.09-2.72,13.35,13.35,0,0,1,5.13-1,13.87,13.87,0,0,1,5.18.89,11.32,11.32,0,0,1,3.78,2.47Z"/><path d="M306.38,259.89h11.55v2.24H303.86V237.35h2.52Z"/><path d="M330,262.76a9.63,9.63,0,0,1-4.58-1,8.26,8.26,0,0,1-2.84-2.43,9,9,0,0,1-1.45-3.2,14.45,14.45,0,0,1-.4-3.28V237.35h2.52v15.26a12.37,12.37,0,0,0,.35,2.93,7.23,7.23,0,0,0,1.14,2.52,5.84,5.84,0,0,0,2.08,1.78,7.8,7.8,0,0,0,6.37,0,5.84,5.84,0,0,0,2.08-1.78,7.23,7.23,0,0,0,1.14-2.52,12.37,12.37,0,0,0,.35-2.93V237.35h2.52v15.54a14.45,14.45,0,0,1-.4,3.28,9,9,0,0,1-1.46,3.2,8,8,0,0,1-2.85,2.43A9.65,9.65,0,0,1,330,262.76Z"/><path d="M353.67,262.13h-2.53V239.59h-8.29v-2.24H362v2.24h-8.29Z"/><path d="M363.39,262.13h-2.76l10.71-24.78h2.45l10.64,24.78h-2.8l-2.73-6.51H366.09Zm3.64-8.82H378l-5.46-13.16Z"/><path d="M393.91,262.13h-2.52V239.59H383.1v-2.24h19.11v2.24h-8.3Z"/><path d="M405.92,237.35h2.52V248.1H422V237.35h2.52v24.78H422V250.41H408.44v11.72h-2.52Z"/><path d="M433.57,262.13h-2.52V237.35h2.52Z"/><path d="M464.65,249.74a13.67,13.67,0,0,1-1,5.22,12.26,12.26,0,0,1-6.81,6.82,13.89,13.89,0,0,1-10.25,0A12.26,12.26,0,0,1,439.8,255a14.37,14.37,0,0,1,0-10.43,12.37,12.37,0,0,1,2.71-4.11,12.56,12.56,0,0,1,4.1-2.72,13.89,13.89,0,0,1,10.25,0,12.56,12.56,0,0,1,4.1,2.72,12.37,12.37,0,0,1,2.71,4.11A13.62,13.62,0,0,1,464.65,249.74Zm-2.66,0a12,12,0,0,0-.7-4.12,10.24,10.24,0,0,0-2-3.44,9.75,9.75,0,0,0-3.24-2.36,10.87,10.87,0,0,0-8.57,0,9.65,9.65,0,0,0-3.24,2.36,10.24,10.24,0,0,0-2,3.44,12.5,12.5,0,0,0,0,8.25,10.15,10.15,0,0,0,2,3.42,9.74,9.74,0,0,0,3.24,2.34,11,11,0,0,0,8.57,0,9.84,9.84,0,0,0,3.24-2.34,10.15,10.15,0,0,0,2-3.42A12.11,12.11,0,0,0,462,249.76Z"/><path d="M487.47,258.46h.07V237.35h2.52v24.78h-3.15l-14.42-21.31h-.07v21.31H469.9V237.35h3.15Z"/><path d="M499.16,259.89h13.26v2.24H496.64V237.35H512v2.24H499.16v8.51h12v2.24h-12Z"/><path d="M525.3,262.13h-2.76l10.71-24.78h2.45l10.64,24.78h-2.8l-2.73-6.51H528Zm3.64-8.82h10.92l-5.46-13.16Z"/><path d="M562.23,257.86h0l8.3-20.51h3.85v24.78h-2.52V240.61h-.07l-9,21.52h-1.33l-9-21.52h-.07v21.52H550V237.35h3.85Z"/><path d="M581,237.35h7a13.5,13.5,0,0,1,3.43.41,7.56,7.56,0,0,1,2.64,1.22,5.51,5.51,0,0,1,1.7,2.07,6.79,6.79,0,0,1,.59,2.92,6.51,6.51,0,0,1-.61,2.92A5.73,5.73,0,0,1,594,249a7.88,7.88,0,0,1-2.66,1.24,13.26,13.26,0,0,1-3.45.42h-4.41v11.51H581Zm2.52,11.13h4.27a7.43,7.43,0,0,0,4.51-1.15,3.93,3.93,0,0,0,1.54-3.36,3.78,3.78,0,0,0-1.59-3.38,8,8,0,0,0-4.46-1.07h-4.27Z"/><path d="M625.79,249.74a13.67,13.67,0,0,1-1,5.22,12.35,12.35,0,0,1-6.81,6.82,13.92,13.92,0,0,1-10.26,0,12.29,12.29,0,0,1-6.8-6.82,14.37,14.37,0,0,1,0-10.43,12.22,12.22,0,0,1,2.71-4.11,12.51,12.51,0,0,1,4.09-2.72,13.92,13.92,0,0,1,10.26,0,12.4,12.4,0,0,1,6.81,6.83A13.62,13.62,0,0,1,625.79,249.74Zm-2.66,0a12.29,12.29,0,0,0-.7-4.12,10.41,10.41,0,0,0-2-3.44,9.75,9.75,0,0,0-3.24-2.36,10.9,10.9,0,0,0-8.58,0,9.61,9.61,0,0,0-3.23,2.36,10.08,10.08,0,0,0-2,3.44,12.5,12.5,0,0,0,0,8.25,10,10,0,0,0,2,3.42,9.7,9.7,0,0,0,3.23,2.34,11,11,0,0,0,8.58,0,9.84,9.84,0,0,0,3.24-2.34,10.31,10.31,0,0,0,2-3.42A12.35,12.35,0,0,0,623.13,249.76Z"/><path d="M640.17,262.76a9.61,9.61,0,0,1-4.58-1,8.17,8.17,0,0,1-2.84-2.43,9,9,0,0,1-1.45-3.2,14.45,14.45,0,0,1-.4-3.28V237.35h2.52v15.26a11.87,11.87,0,0,0,.35,2.93,7.4,7.4,0,0,0,1.13,2.52,5.87,5.87,0,0,0,2.09,1.78,6.68,6.68,0,0,0,3.18.68,6.75,6.75,0,0,0,3.19-.68,5.92,5.92,0,0,0,2.08-1.78,7.62,7.62,0,0,0,1.14-2.52,12.37,12.37,0,0,0,.35-2.93V237.35h2.52v15.54a14.49,14.49,0,0,1-.41,3.28,8.82,8.82,0,0,1-1.45,3.2,8.12,8.12,0,0,1-2.85,2.43A9.67,9.67,0,0,1,640.17,262.76Z"/><path d="M658.41,259.89H670v2.24H655.89V237.35h2.52Z"/><path d="M676.26,259.89h13.26v2.24H673.74V237.35H689.1v2.24H676.26v8.51h12v2.24h-12Z"/><g id="_Rectangle_" data-name="&lt;Rectangle&gt;"><rect class="cls-1" x="46" y="31.84" width="383" height="113.11"/></g><path class="cls-2" d="M141.82,95.55a12.54,12.54,0,0,1-5,10.45,15.58,15.58,0,0,1-5.32,2.57,23.85,23.85,0,0,1-12.62,0,16.09,16.09,0,0,1-5.3-2.54,12.63,12.63,0,0,1-3.66-4.3,12.86,12.86,0,0,1-1.38-6.12,10.78,10.78,0,0,1,.63-3.73,10.64,10.64,0,0,1,1.72-3.08,11.73,11.73,0,0,1,2.55-2.32A11.27,11.27,0,0,1,116.46,85v-.13a11,11,0,0,1-4.83-3.48,9.43,9.43,0,0,1-1.95-6.12,11.51,11.51,0,0,1,1.26-5.46,11.66,11.66,0,0,1,3.39-4,15.19,15.19,0,0,1,5-2.42,21.23,21.23,0,0,1,5.9-.81,21.7,21.7,0,0,1,5.86.78A15.13,15.13,0,0,1,136,65.74a11.85,11.85,0,0,1,3.42,3.92,11.12,11.12,0,0,1,1.29,5.43,10.07,10.07,0,0,1-1.88,6.21,9.88,9.88,0,0,1-4.9,3.52V85A11,11,0,0,1,137,86.48a10.8,10.8,0,0,1,4.17,5.4A10.6,10.6,0,0,1,141.82,95.55Zm-10.48-.38a5.87,5.87,0,0,0-1.73-4.3,6,6,0,0,0-4.42-1.72,6.12,6.12,0,0,0-4.49,1.69A5.82,5.82,0,0,0,119,95.17a5.58,5.58,0,0,0,1.73,4.3,6.31,6.31,0,0,0,4.49,1.6,6.2,6.2,0,0,0,4.45-1.6A5.63,5.63,0,0,0,131.34,95.17Zm-.82-19.33A4.72,4.72,0,0,0,129,72.2a5.38,5.38,0,0,0-3.76-1.44,5.17,5.17,0,0,0-3.83,1.44,4.91,4.91,0,0,0-1.45,3.64,5.35,5.35,0,0,0,1.42,3.71,4.93,4.93,0,0,0,3.86,1.56A5.08,5.08,0,0,0,129,79.55,5.18,5.18,0,0,0,130.52,75.84Z"/><path class="cls-2" d="M183.18,78.48a18.1,18.1,0,0,1-1.38,7.18,40.62,40.62,0,0,1-3.58,6.56l-10.72,16H154.77l11-15.32.13-.18a8.09,8.09,0,0,1-1.54.37,10,10,0,0,1-1.59.13,15.12,15.12,0,0,1-5.58-1,14.08,14.08,0,0,1-7.83-7.53,14.44,14.44,0,0,1-1.19-5.93A16.11,16.11,0,0,1,149.6,72a14.75,14.75,0,0,1,3.76-5.08,16.51,16.51,0,0,1,5.57-3.17,21.57,21.57,0,0,1,13.6,0,16.18,16.18,0,0,1,5.54,3.17,15.09,15.09,0,0,1,3.73,5A15.36,15.36,0,0,1,183.18,78.48Zm-10.48-.13a7.31,7.31,0,0,0-1.86-5,6.43,6.43,0,0,0-5.08-2.1,6.86,6.86,0,0,0-5.14,2,7.12,7.12,0,0,0-1.92,5.18,7,7,0,0,0,1.89,5,6.68,6.68,0,0,0,5,2,6.69,6.69,0,0,0,7.06-7Z"/><path class="cls-2" d="M195.73,116h-8.47L192,98.19h9.85Z"/><path class="cls-2" d="M242.49,85.88a41.49,41.49,0,0,1-.94,9,22.91,22.91,0,0,1-3,7.5,15,15,0,0,1-13.37,7.06,15.94,15.94,0,0,1-8-1.91,15.75,15.75,0,0,1-5.43-5.15,22.51,22.51,0,0,1-3-7.5,41.49,41.49,0,0,1-.94-9,41,41,0,0,1,.94-8.94,22,22,0,0,1,3-7.41,15.74,15.74,0,0,1,5.43-5,16.15,16.15,0,0,1,8-1.88,16,16,0,0,1,8,1.88,15.65,15.65,0,0,1,5.37,5,22.4,22.4,0,0,1,3,7.41A41,41,0,0,1,242.49,85.88Zm-10.8,0a45.63,45.63,0,0,0-.25-4.58,22.33,22.33,0,0,0-.94-4.67,10,10,0,0,0-2-3.64,4.2,4.2,0,0,0-3.35-1.48A4.33,4.33,0,0,0,221.78,73a10.12,10.12,0,0,0-2,3.64,21.7,21.7,0,0,0-1,4.67c-.16,1.68-.25,3.2-.25,4.58s.09,3,.25,4.68a21.94,21.94,0,0,0,1,4.71,10.3,10.3,0,0,0,2,3.64,4.35,4.35,0,0,0,3.39,1.47,4.22,4.22,0,0,0,3.35-1.47,10.2,10.2,0,0,0,2-3.64,22.58,22.58,0,0,0,.94-4.71C231.61,88.87,231.69,87.31,231.69,85.88Z"/><path class="cls-2" d="M283,85.88a41.49,41.49,0,0,1-.94,9,22.91,22.91,0,0,1-3,7.5,15,15,0,0,1-13.37,7.06,15.15,15.15,0,0,1-13.46-7.06,22.52,22.52,0,0,1-3.05-7.5,42.12,42.12,0,0,1-.94-9,41.61,41.61,0,0,1,.94-8.94,22,22,0,0,1,3.05-7.41,15.74,15.74,0,0,1,5.43-5,16.11,16.11,0,0,1,8-1.88,15.91,15.91,0,0,1,8,1.88,15.56,15.56,0,0,1,5.37,5,22.4,22.4,0,0,1,3,7.41A41,41,0,0,1,283,85.88Zm-10.79,0c0-1.38-.09-2.9-.25-4.58a23,23,0,0,0-.94-4.67,10,10,0,0,0-2-3.64,4.24,4.24,0,0,0-3.36-1.48A4.33,4.33,0,0,0,262.32,73a10.12,10.12,0,0,0-2,3.64,21.7,21.7,0,0,0-1,4.67,45.63,45.63,0,0,0-.25,4.58c0,1.43.08,3,.25,4.68a22,22,0,0,0,1,4.71,10.3,10.3,0,0,0,2,3.64,4.35,4.35,0,0,0,3.39,1.47,4.26,4.26,0,0,0,3.36-1.47,10.2,10.2,0,0,0,2-3.64,23.25,23.25,0,0,0,.94-4.71C272.15,88.87,272.24,87.31,272.24,85.88Z"/><path class="cls-2" d="M323.58,85.88a41.49,41.49,0,0,1-.94,9,22.91,22.91,0,0,1-3,7.5,15,15,0,0,1-13.37,7.06,15.15,15.15,0,0,1-13.47-7.06,22.51,22.51,0,0,1-3-7.5,41.49,41.49,0,0,1-.94-9,41,41,0,0,1,.94-8.94,22,22,0,0,1,3-7.41,15.83,15.83,0,0,1,5.43-5,16.15,16.15,0,0,1,8-1.88,15.94,15.94,0,0,1,8,1.88,15.65,15.65,0,0,1,5.37,5,22.4,22.4,0,0,1,3,7.41A41,41,0,0,1,323.58,85.88Zm-10.8,0a45.63,45.63,0,0,0-.25-4.58,22.33,22.33,0,0,0-.94-4.67,10,10,0,0,0-2-3.64,4.2,4.2,0,0,0-3.35-1.48A4.33,4.33,0,0,0,302.87,73a10.12,10.12,0,0,0-2,3.64,21.7,21.7,0,0,0-1,4.67c-.16,1.68-.25,3.2-.25,4.58s.09,3,.25,4.68a21.94,21.94,0,0,0,1,4.71,10.3,10.3,0,0,0,2,3.64,4.35,4.35,0,0,0,3.39,1.47,4.22,4.22,0,0,0,3.35-1.47,10.2,10.2,0,0,0,2-3.64,22.58,22.58,0,0,0,.94-4.71C312.7,88.87,312.78,87.31,312.78,85.88Z"/><path class="cls-2" d="M354.15,108.23v-4.08H354a9.77,9.77,0,0,1-4.3,3.67,14.63,14.63,0,0,1-12.21-.09,14.32,14.32,0,0,1-4.67-3.68,16,16,0,0,1-2.92-5.3,19.72,19.72,0,0,1-1-6.28,18.92,18.92,0,0,1,1-6.24A16.11,16.11,0,0,1,332.9,81a13.74,13.74,0,0,1,10.76-4.9,11.92,11.92,0,0,1,5.84,1.32,12.91,12.91,0,0,1,3.7,2.89h.13V72.45H344V66.87h9.35V60.78h10.29v6.09h2.89v5.58h-2.89v35.78Zm-.38-15.69a8.7,8.7,0,0,0-2-5.53,7.65,7.65,0,0,0-2.35-1.82,7,7,0,0,0-3.14-.69,7,7,0,0,0-3.2.69A7.44,7.44,0,0,0,340.71,87a7.69,7.69,0,0,0-1.41,2.54,9.63,9.63,0,0,0-.47,3,9.93,9.93,0,0,0,.47,3,7.88,7.88,0,0,0,1.41,2.6A7.23,7.23,0,0,0,343,99.88a7,7,0,0,0,3.2.69,7,7,0,0,0,3.14-.69,7.65,7.65,0,0,0,2.35-1.82,8.16,8.16,0,0,0,1.5-2.57A8.41,8.41,0,0,0,353.77,92.54Z"/></svg>