<svg id="Layer_1" data-name="Layer 1" xmlns="http://www.w3.org/2000/svg" viewBox="0 0 2006 967.99"><defs><style>.cls-1{fill:#c90202;}.cls-2{fill:#fff;}</style></defs><title>Image convert 1 fix text</title><path d="M81.45,545.87c0-26.42,20.28-45.32,47.58-45.32,15.14,0,27.79,5.51,36.05,15.53l-13,12c-5.88-6.76-13.27-10.26-22-10.26-16.4,0-28,11.52-28,28s11.65,28,28.05,28c8.76,0,16.15-3.51,22-10.39l13,12c-8.26,10.15-20.91,15.65-36.18,15.65C101.73,591.19,81.45,572.29,81.45,545.87Z"/><path d="M259.1,502.05v87.64H238.82V553.76H199v35.93H178.73V502.05H199v34.56h39.81V502.05Z"/><path d="M263.48,476.89h21l16.9,18H286.14Zm16.4,25.16h20.29v87.64H279.88Z"/><path d="M388.3,555.26l-11.77,12.27v22.16H356.38V502.05h20.15V543l38.81-40.94h22.54l-36.31,39.06L440,589.69H416.34Z"/><path d="M516.88,573.42v16.27H449V502.05h66.23v16.28H469.18v19h40.68v15.77H469.18v20.29Zm-43.95-94.28-4-7.89A21.81,21.81,0,0,1,482.45,467c8.89,0,15,5.38,15,13.39,0,7.14-3.88,12.27-11.52,15.78l-6.13-6.51c4.88-2.26,6.38-4.76,6.38-7.64,0-3.13-2.38-5.26-5.88-5.26A13.21,13.21,0,0,0,472.93,479.14Z"/><path d="M562.94,545.87c0-26.42,20.29-45.32,47.58-45.32,15.15,0,27.79,5.51,36.06,15.53l-13,12c-5.89-6.76-13.28-10.26-22-10.26-16.4,0-28,11.52-28,28s11.64,28,28,28c8.76,0,16.15-3.51,22-10.39l13,12c-8.27,10.15-20.91,15.65-36.19,15.65C583.23,591.19,562.94,572.29,562.94,545.87Z"/><path d="M740.6,502.05v87.64H720.31V553.76H680.5v35.93H660.22V502.05H680.5v34.56h39.81V502.05Z"/><path d="M819.09,570.91H778.4l-7.76,18.78H749.86l39.06-87.64h20l39.19,87.64H826.86Zm-31.05-76H773.77l16.53-18h17.28l16.52,18H809.83l-10.89-9.52Zm24.67,60.59L798.81,522l-13.9,33.55Z"/><path d="M937.65,502.05v87.64H921l-43.69-53.21v53.21h-20V502.05h16.77l43.57,53.21V502.05Z"/><path d="M1073.61,589.69l-.12-52.58-25.79,43.32h-9.14l-25.67-42.19v51.45h-19V502.05h16.78l32.8,54.46,32.3-54.46h16.65l.25,87.64Z"/><path d="M1171.14,570.91h-40.69l-7.76,18.78H1101.9L1141,502.05h20l39.19,87.64H1178.9Zm-24-76-22.66-18h21l16.91,18Zm17.65,60.59L1150.86,522,1137,555.51Z"/><path d="M1246,558.64v31.05h-20.28v-31.3l-33.93-56.34h21.54L1236.74,541l23.41-38.94h19.91Z"/><path d="M78.18,663.55l3.16-7a23.74,23.74,0,0,0,13.29,4.2c5.52,0,7.77-1.84,7.77-4.32,0-7.53-23.42-2.36-23.42-17.31,0-6.85,5.53-12.54,17-12.54a27.08,27.08,0,0,1,14,3.56l-2.87,7.08A22.74,22.74,0,0,0,95.9,634c-5.53,0-7.65,2.07-7.65,4.6,0,7.42,23.41,2.3,23.41,17.08,0,6.73-5.58,12.49-17.09,12.49C88.19,668.21,81.74,666.31,78.18,663.55Z"/><path d="M115.51,647.38c0-12,9.32-20.82,22-20.82s22,8.8,22,20.82-9.37,20.83-22,20.83S115.51,659.35,115.51,647.38Zm34.63,0c0-7.65-5.41-12.88-12.6-12.88s-12.6,5.23-12.6,12.88,5.41,12.89,12.6,12.89S150.14,655,150.14,647.38Z"/><path d="M175.91,634.73v10.64h18.64v7.48H175.91v14.67h-9.32V627.25H197v7.48Z"/><path d="M212,634.84H199.09v-7.59h35.09v7.59H221.29v32.68H212Z"/><path d="M292.39,656.53c0,7-5.52,11-16.11,11H255.46V627.25h19.67c10.07,0,15.25,4.2,15.25,10.47a9.69,9.69,0,0,1-5.35,8.86A9.94,9.94,0,0,1,292.39,656.53Zm-27.67-22.26v9.49H274c4.55,0,7-1.61,7-4.78s-2.47-4.71-7-4.71ZM283,655.55c0-3.39-2.58-5-7.42-5H264.72v10h10.87C280.43,660.5,283,659,283,655.55Z"/><path d="M325.12,667.52l-7.77-11.22h-8.57v11.22h-9.32V627.25h17.43c10.76,0,17.49,5.58,17.49,14.61a13.09,13.09,0,0,1-8.28,12.71l9,12.95Zm-8.74-32.68h-7.6v14h7.6c5.69,0,8.57-2.65,8.57-7S322.07,634.84,316.38,634.84Z"/><path d="M339.21,647.38c0-12,9.32-20.82,22-20.82s22,8.8,22,20.82-9.37,20.83-22,20.83S339.21,659.35,339.21,647.38Zm34.63,0c0-7.65-5.41-12.88-12.6-12.88s-12.6,5.23-12.6,12.88,5.41,12.89,12.6,12.89S373.84,655,373.84,647.38Z"/><path d="M449.83,627.25l-13.17,40.27h-10l-8.86-27.27-9.15,27.27h-9.95l-13.23-40.27h9.66l9.09,28.3,9.49-28.3h8.63l9.21,28.53,9.37-28.53Z"/><path d="M507.06,641.86c0,9-6.73,14.55-17.49,14.55h-8.11v11.11h-9.32V627.25h17.43C500.33,627.25,507.06,632.83,507.06,641.86Zm-9.43,0c0-4.43-2.88-7-8.57-7h-7.6v14h7.6C494.75,648.82,497.63,646.23,497.63,641.86Z"/><path d="M544.85,660v7.48H513.67V627.25h30.44v7.48H522.94v8.74h18.69v7.25H522.94V660Z"/><path d="M589.2,627.25v40.27h-7.65l-20.07-24.45v24.45h-9.21V627.25H560l20,24.45V627.25Z"/><path d="M596.22,647.38c0-12.14,9.32-20.82,21.86-20.82,7,0,12.77,2.53,16.57,7.13l-6,5.52a13,13,0,0,0-10.12-4.71c-7.54,0-12.89,5.29-12.89,12.88s5.35,12.89,12.89,12.89a12.8,12.8,0,0,0,10.12-4.78l6,5.53c-3.8,4.65-9.61,7.19-16.63,7.19C605.54,668.21,596.22,659.52,596.22,647.38Z"/><path d="M640.91,627.25h9.32v40.27h-9.32Z"/><path d="M659.78,627.25h9.32v32.67h20.19v7.6H659.78Z"/><path d="M741.75,668.21l-4.83-4.49a21.56,21.56,0,0,1-13.46,4.49c-8.86,0-15.36-4.61-15.36-11.05,0-5.06,2.7-8.57,8.86-12-2.94-3-4.15-5.64-4.15-8.52,0-5.86,5-9.89,12.54-9.89,7,0,11.57,3.57,11.57,9.26,0,4.14-2.42,7.19-7.88,10.18L736.4,653a25.94,25.94,0,0,0,2-6.27L745.6,649a26.56,26.56,0,0,1-3.68,9.15l4.72,4.37Zm-10.13-9.38-9.72-9.09c-3.68,2.13-5,4-5,6.44,0,2.94,2.76,5,7.19,5A12.87,12.87,0,0,0,731.62,658.83ZM721,636.51c0,1.55.63,2.7,3.11,5.12,4-2.13,5.23-3.63,5.23-5.47s-1.38-3.33-4-3.33C722.59,632.83,721,634.38,721,636.51Z"/><path d="M765.79,663.55l3.16-7a23.74,23.74,0,0,0,13.29,4.2c5.53,0,7.77-1.84,7.77-4.32,0-7.53-23.41-2.36-23.41-17.31,0-6.85,5.52-12.54,17-12.54,5.06,0,10.24,1.21,14,3.56l-2.87,7.08A22.74,22.74,0,0,0,783.51,634c-5.52,0-7.65,2.07-7.65,4.6,0,7.42,23.41,2.3,23.41,17.08,0,6.73-5.58,12.49-17.08,12.49C775.8,668.21,769.36,666.31,765.79,663.55Z"/><path d="M840.57,641.86c0,9-6.73,14.55-17.49,14.55H815v11.11h-9.32V627.25h17.43C833.84,627.25,840.57,632.83,840.57,641.86Zm-9.43,0c0-4.43-2.88-7-8.58-7H815v14h7.59C828.26,648.82,831.14,646.23,831.14,641.86Z"/><path d="M845.23,647.38c0-12,9.32-20.82,22-20.82s22,8.8,22,20.82-9.37,20.83-22,20.83S845.23,659.35,845.23,647.38Zm34.63,0c0-7.65-5.41-12.88-12.6-12.88s-12.6,5.23-12.6,12.88,5.41,12.89,12.6,12.89S879.86,655,879.86,647.38Z"/><path d="M893.78,647.38c0-12,9.32-20.82,22-20.82s22,8.8,22,20.82-9.38,20.83-22,20.83S893.78,659.35,893.78,647.38Zm34.63,0c0-7.65-5.41-12.88-12.6-12.88s-12.6,5.23-12.6,12.88,5.41,12.89,12.6,12.89S928.41,655,928.41,647.38Z"/><path d="M981.79,627.25v40.27h-7.65l-20.08-24.45v24.45h-9.2V627.25h7.7l20,24.45V627.25Z"/><path d="M1044.54,656.53c0,7-5.52,11-16.1,11h-20.83V627.25h19.68c10.06,0,15.24,4.2,15.24,10.47a9.69,9.69,0,0,1-5.35,8.86A9.93,9.93,0,0,1,1044.54,656.53Zm-27.67-22.26v9.49h9.26c4.55,0,7-1.61,7-4.78s-2.47-4.71-7-4.71Zm18.3,21.28c0-3.39-2.59-5-7.42-5h-10.88v10h10.88C1032.58,660.5,1035.17,659,1035.17,655.55Z"/><path d="M1077.27,667.52l-7.76-11.22h-8.57v11.22h-9.32V627.25h17.43c10.75,0,17.49,5.58,17.49,14.61a13.08,13.08,0,0,1-8.29,12.71l9,12.95Zm-8.74-32.68h-7.59v14h7.59c5.69,0,8.57-2.65,8.57-7S1074.22,634.84,1068.53,634.84Z"/><path d="M1093.55,649.8V627.25h9.32v22.2c0,7.65,3.34,10.82,9,10.82s9-3.17,9-10.82v-22.2h9.2V649.8c0,11.85-6.79,18.41-18.23,18.41S1093.55,661.65,1093.55,649.8Z"/><path d="M1136.06,663.55l3.16-7a23.74,23.74,0,0,0,13.29,4.2c5.52,0,7.77-1.84,7.77-4.32,0-7.53-23.42-2.36-23.42-17.31,0-6.85,5.53-12.54,17-12.54a27.08,27.08,0,0,1,14,3.56l-2.87,7.08a22.74,22.74,0,0,0-11.16-3.16c-5.53,0-7.66,2.07-7.66,4.6,0,7.42,23.42,2.3,23.42,17.08,0,6.73-5.58,12.49-17.09,12.49C1146.07,668.21,1139.62,666.31,1136.06,663.55Z"/><path d="M1212.85,627.25v40.27h-9.32V651h-18.29v16.51h-9.32V627.25h9.32v15.87h18.29V627.25Z"/><path d="M1236.14,647.38c0-12.14,9.32-20.82,21.86-20.82,7,0,12.78,2.53,16.57,7.13l-6,5.52a13,13,0,0,0-10.13-4.71c-7.53,0-12.88,5.29-12.88,12.88s5.35,12.89,12.88,12.89a12.82,12.82,0,0,0,10.13-4.78l6,5.53c-3.79,4.65-9.61,7.19-16.62,7.19C1245.46,668.21,1236.14,659.52,1236.14,647.38Z"/><path d="M1306.55,658.89h-18.69l-3.57,8.63h-9.55l18-40.27h9.2l18,40.27h-9.78Zm-2.93-7.08-6.39-15.42-6.38,15.42Z"/><path d="M1330.42,634.84h-12.88v-7.59h35.09v7.59h-12.89v32.68h-9.32Z"/><path d="M1394.56,627.25v40.27h-9.32V651H1367v16.51h-9.32V627.25H1367v15.87h18.29V627.25Z"/><path d="M1423.44,653.25v14.27h-9.32V653.13l-15.59-25.88h9.89l10.76,17.89,10.76-17.89h9.14Z"/><path d="M1459.27,627.25h18.3c13.17,0,22.2,7.94,22.2,20.13s-9,20.14-22.2,20.14h-18.3Zm17.84,32.61c8,0,13.23-4.77,13.23-12.48s-5.24-12.48-13.23-12.48h-8.52v25Z"/><path d="M1504.25,647.38c0-12,9.32-20.82,22-20.82s22,8.8,22,20.82-9.38,20.83-22,20.83S1504.25,659.35,1504.25,647.38Zm34.63,0c0-7.65-5.4-12.88-12.59-12.88s-12.6,5.23-12.6,12.88,5.41,12.89,12.6,12.89S1538.88,655,1538.88,647.38Z"/><path d="M1555.33,627.25h9.32v32.67h20.19v7.6h-29.51Z"/><path d="M1590.08,627.25h9.32v32.67h20.19v7.6h-29.51Z"/><path d="M1640.52,651.75c0-10.58,2.59-20.07,7.19-26.92h8.58a55.49,55.49,0,0,0,0,53.85h-8.58C1643.11,671.71,1640.52,662.34,1640.52,651.75Z"/><path d="M1698.28,667.52l-.06-24.17-11.85,19.91h-4.2l-11.79-19.39v23.65h-8.75V627.25h7.71l15.07,25,14.84-25h7.66l.11,40.27Z"/><path d="M1712.37,678.68a55.21,55.21,0,0,0,0-53.85h8.57c4.72,6.85,7.25,16.34,7.25,26.92s-2.53,20-7.25,26.93Z"/><path d="M107.4,807.69h7.48V814h-8.23l-1.15,9.2H99l1.15-9.2H91.7l-1.15,9.2H84.1l1.15-9.2H77.72v-6.27H86l1.21-9.32H79.67V792.1H88l1.15-9.2h6.44l-1.15,9.2h8.46l1.15-9.2h6.44l-1.15,9.2h7.48l.06,6.27h-8.29Zm-6.5,0,1.21-9.32H93.65l-1.21,9.32Z"/><path d="M120.23,803c0-13.29,7.36-20.82,17.25-20.82s17.26,7.53,17.26,20.82-7.3,20.82-17.26,20.82S120.23,816.32,120.23,803Zm25.13,0c0-9.15-3.22-12.94-7.88-12.94s-7.82,3.79-7.82,12.94S132.88,816,137.48,816,145.36,812.18,145.36,803Z"/><path d="M188.45,810.85c0,6.79-5.24,13-16.68,13-5.64,0-11.45-1.55-15.36-4.31l3.62-7.13A19.58,19.58,0,0,0,171.54,816c4.66,0,7.53-1.9,7.53-5.18,0-3.05-2.24-4.94-7.53-4.94h-4.26v-6.16l8.28-9.38H158.42V782.9h28.19v6l-9.09,10.35C184.77,800.44,188.45,804.93,188.45,810.85Z"/><path d="M248.5,782.9v40.26h-9.32V806.65H220.89v16.51h-9.32V782.9h9.32v15.87h18.29V782.9Z"/><path d="M255.52,803c0-12,9.32-20.82,22-20.82s22,8.8,22,20.82-9.37,20.82-22,20.82S255.52,815,255.52,803Zm34.63,0c0-7.65-5.41-12.89-12.6-12.89S265,795.38,265,803s5.41,12.89,12.6,12.89S290.15,810.68,290.15,803Z"/><path d="M314.36,790.49H301.48V782.9h35.09v7.59H323.68v32.67h-9.32Z"/><path d="M355.32,803c0-12.14,9.32-20.82,21.86-20.82,7,0,12.77,2.53,16.56,7.13l-6,5.52a12.94,12.94,0,0,0-10.12-4.72c-7.54,0-12.89,5.3-12.89,12.89s5.35,12.89,12.89,12.89a12.85,12.85,0,0,0,10.12-4.78l6,5.52c-3.79,4.66-9.6,7.19-16.62,7.19C364.64,823.85,355.32,815.17,355.32,803Z"/><path d="M425.73,814.54H407l-3.57,8.62h-9.55l17.95-40.26h9.21l18,40.26h-9.78Zm-2.94-7.08L416.41,792,410,807.46Z"/><path d="M468.92,823.16,461.16,812h-8.57v11.21h-9.32V782.9H460.7c10.76,0,17.49,5.58,17.49,14.61a13.08,13.08,0,0,1-8.29,12.71l9,12.94Zm-8.74-32.67h-7.59v14h7.59c5.7,0,8.57-2.65,8.57-7S465.88,790.49,460.18,790.49Z"/><path d="M512.07,814.54h-18.7l-3.57,8.62h-9.55L498.2,782.9h9.21l18,40.26h-9.78Zm-2.94-7.08L502.75,792l-6.39,15.42Z"/><path d="M566.25,823.16,566.19,799l-11.85,19.91h-4.2l-11.79-19.39v23.64h-8.74V782.9h7.71l15.07,25,14.84-25h7.65l.12,40.26Z"/><path d="M615.72,815.69v7.47H584.54V782.9H615v7.47H593.8v8.75h18.7v7.25H593.8v9.32Z"/><path d="M623.14,782.9h9.32v32.67h20.19v7.59H623.14Z"/><path d="M711.09,812.18c0,7-5.52,11-16.11,11H674.16V782.9h19.67c10.07,0,15.25,4.2,15.25,10.47a9.67,9.67,0,0,1-5.35,8.85A10,10,0,0,1,711.09,812.18Zm-27.67-22.27v9.5h9.26c4.55,0,7-1.62,7-4.78s-2.47-4.72-7-4.72Zm18.29,21.29c0-3.4-2.59-5-7.42-5H683.42v10h10.87C699.12,816.15,701.71,814.65,701.71,811.2Z"/><path d="M743.82,823.16,736.05,812h-8.57v11.21h-9.32V782.9h17.43c10.76,0,17.49,5.58,17.49,14.61a13.09,13.09,0,0,1-8.28,12.71l9,12.94Zm-8.74-32.67h-7.6v14h7.6c5.69,0,8.57-2.65,8.57-7S740.77,790.49,735.08,790.49Z"/><path d="M757.91,803c0-12,9.32-20.82,22-20.82S802,791,802,803s-9.38,20.82-22,20.82S757.91,815,757.91,803Zm34.63,0c0-7.65-5.41-12.89-12.6-12.89s-12.6,5.24-12.6,12.89,5.41,12.89,12.6,12.89S792.54,810.68,792.54,803Z"/><path d="M868.53,782.9l-13.17,40.26h-10l-8.86-27.26-9.15,27.26h-10L804.16,782.9h9.66l9.09,28.3,9.49-28.3H841l9.21,28.53,9.37-28.53Z"/><path d="M910.63,782.9v40.26H903l-20.07-24.44v24.44H873.7V782.9h7.71l20,24.44V782.9Z"/><path d="M95.09,880.85c0-13.28,7.36-20.82,17.26-20.82s17.25,7.54,17.25,20.82-7.3,20.83-17.25,20.83S95.09,894.14,95.09,880.85Zm25.14,0c0-9.14-3.22-12.94-7.88-12.94s-7.83,3.8-7.83,12.94,3.22,12.95,7.83,12.95S120.23,890,120.23,880.85Z"/><path d="M133.11,895.81a5.58,5.58,0,0,1,11.16,0,5.58,5.58,0,1,1-11.16,0Z"/><path d="M179.13,893.39V901H148.7v-6l15.53-14.67c3.57-3.4,4.2-5.47,4.2-7.42,0-3.17-2.19-5-6.44-5a9.85,9.85,0,0,0-8.34,4l-6.79-4.37c3.1-4.55,8.74-7.48,16-7.48,9,0,15,4.6,15,11.91,0,3.91-1.1,7.48-6.73,12.71l-9.27,8.74Z"/><path d="M216.69,889.31c0,7.59-6.79,12.37-17,12.37s-16.91-4.78-16.91-12.37c0-4.31,2.25-7.54,6.1-9.49a9.3,9.3,0,0,1-4.66-8.28c0-7.08,6.33-11.51,15.47-11.51s15.59,4.43,15.59,11.51a9.35,9.35,0,0,1-4.71,8.28C214.45,881.77,216.69,885,216.69,889.31Zm-9.43-.29c0-3.56-2.94-5.75-7.6-5.75s-7.47,2.19-7.47,5.75,2.87,5.81,7.47,5.81S207.26,892.59,207.26,889Zm-13.81-17.08c0,3,2.42,4.94,6.21,4.94S206,875,206,871.94s-2.53-5.06-6.33-5.06S193.45,868.77,193.45,871.94Z"/><path d="M250.69,880.22h8.51v16.34a27.77,27.77,0,0,1-16.28,5.12c-12.65,0-22-8.69-22-20.83S230.27,860,243.09,860c7.08,0,13,2.42,16.86,7l-6,5.52A13.66,13.66,0,0,0,243.55,868c-7.82,0-13.17,5.23-13.17,12.88s5.35,12.89,13.06,12.89a14.76,14.76,0,0,0,7.25-1.73Z"/><g id="_Rectangle_" data-name="&lt;Rectangle&gt;"><rect class="cls-1" x="77" y="78.49" width="921" height="272"/></g><path class="cls-2" d="M212.1,262.19V183.71L192.18,199.1l-13.13-18,35.15-25.81h23.11V262.19Z"/><path class="cls-2" d="M357.45,226.27a38.76,38.76,0,0,1-3.32,16.3,35.54,35.54,0,0,1-9,12.22,39.87,39.87,0,0,1-13.41,7.62,51.52,51.52,0,0,1-32.62,0,40,40,0,0,1-13.33-7.62,36.05,36.05,0,0,1-9-12.07,37,37,0,0,1-3.31-15.85,43.43,43.43,0,0,1,3.32-17.28,99.76,99.76,0,0,1,8.59-15.77l25.79-38.49h30.61l-26.28,36.53-.45.75a16.36,16.36,0,0,1,3.61-.91,28.08,28.08,0,0,1,3.92-.3,36.42,36.42,0,0,1,13.33,2.49A33,33,0,0,1,347,201a35.05,35.05,0,0,1,7.61,11A34.64,34.64,0,0,1,357.45,226.27Zm-25.21.6a16.67,16.67,0,0,0-4.55-12q-4.54-4.76-12.13-4.75t-12.28,4.68q-4.69,4.68-4.7,12.22A17.11,17.11,0,0,0,303.13,239q4.55,5,12.28,5,7.57,0,12.21-4.68T332.24,226.87Z"/><path class="cls-2" d="M455.09,190.65a43.6,43.6,0,0,1-3.31,17.28,99.85,99.85,0,0,1-8.6,15.77l-25.79,38.49H386.78l26.58-36.83.31-.45a19.09,19.09,0,0,1-3.7.9,25,25,0,0,1-3.84.31,36.3,36.3,0,0,1-13.41-2.49,34.06,34.06,0,0,1-11.15-7.1A34.3,34.3,0,0,1,371,191.25a38.73,38.73,0,0,1,3.31-16.3,35.66,35.66,0,0,1,9-12.22,40.23,40.23,0,0,1,13.41-7.63,51.92,51.92,0,0,1,32.69,0,39.42,39.42,0,0,1,13.34,7.63,36.51,36.51,0,0,1,9,12.07A37,37,0,0,1,455.09,190.65Zm-25.2-.3a17.52,17.52,0,0,0-4.47-12q-4.47-5.06-12.21-5.06t-12.35,4.76q-4.64,4.75-4.63,12.45a16.67,16.67,0,0,0,4.55,12q4.55,4.75,12.13,4.75t12.28-4.68Q429.89,197.89,429.89,190.35Z"/><path class="cls-2" d="M485.28,280.9H464.9L476.22,238h23.7Z"/><path class="cls-2" d="M597.72,208.46A99.92,99.92,0,0,1,595.46,230a55.19,55.19,0,0,1-7.25,18,37.52,37.52,0,0,1-12.9,12.37q-7.93,4.6-19.25,4.61t-19.32-4.61a38,38,0,0,1-13-12.37,54.2,54.2,0,0,1-7.32-18,99.92,99.92,0,0,1-2.26-21.58A98.87,98.87,0,0,1,516.37,187a52.52,52.52,0,0,1,7.32-17.81,37.81,37.81,0,0,1,13-12.15q8-4.53,19.32-4.53T575.31,157a37.35,37.35,0,0,1,12.9,12.15A53.47,53.47,0,0,1,595.46,187,98.87,98.87,0,0,1,597.72,208.46Zm-26,0q0-5-.6-11a55.24,55.24,0,0,0-2.27-11.24,24.48,24.48,0,0,0-4.75-8.76,10.24,10.24,0,0,0-8.08-3.54,10.45,10.45,0,0,0-8.15,3.54,24.57,24.57,0,0,0-4.9,8.76,51.45,51.45,0,0,0-2.34,11.24q-.6,6-.6,11,0,5.13.6,11.24A51.45,51.45,0,0,0,543,231a24.65,24.65,0,0,0,4.9,8.76,10.45,10.45,0,0,0,8.15,3.54,10.24,10.24,0,0,0,8.08-3.54,24.57,24.57,0,0,0,4.75-8.76,55.21,55.21,0,0,0,2.27-11.32Q571.76,213.6,571.76,208.46Z"/><path class="cls-2" d="M695.22,208.46A99.92,99.92,0,0,1,693,230a55,55,0,0,1-7.24,18,37.52,37.52,0,0,1-12.9,12.37q-7.93,4.6-19.25,4.61t-19.32-4.61a38,38,0,0,1-13-12.37,54.2,54.2,0,0,1-7.32-18,99.92,99.92,0,0,1-2.27-21.58A98.86,98.86,0,0,1,613.87,187a52.52,52.52,0,0,1,7.32-17.81,37.81,37.81,0,0,1,13-12.15q8-4.53,19.32-4.53T672.81,157a37.35,37.35,0,0,1,12.9,12.15A53.25,53.25,0,0,1,693,187,98.86,98.86,0,0,1,695.22,208.46Zm-26,0a109.5,109.5,0,0,0-.61-11,54.58,54.58,0,0,0-2.26-11.24,24.48,24.48,0,0,0-4.75-8.76,10.24,10.24,0,0,0-8.08-3.54,10.44,10.44,0,0,0-8.15,3.54,24.57,24.57,0,0,0-4.9,8.76,51.45,51.45,0,0,0-2.34,11.24,109.5,109.5,0,0,0-.61,11q0,5.13.61,11.24A51.45,51.45,0,0,0,640.51,231a24.65,24.65,0,0,0,4.9,8.76,10.44,10.44,0,0,0,8.15,3.54,10.24,10.24,0,0,0,8.08-3.54,24.57,24.57,0,0,0,4.75-8.76,54.56,54.56,0,0,0,2.26-11.32Q669.26,213.6,669.26,208.46Z"/><path class="cls-2" d="M792.72,208.46A99.92,99.92,0,0,1,790.45,230a55.18,55.18,0,0,1-7.24,18,37.46,37.46,0,0,1-12.91,12.37q-7.92,4.6-19.24,4.61t-19.32-4.61a38,38,0,0,1-13-12.37,54,54,0,0,1-7.32-18,99.92,99.92,0,0,1-2.27-21.58A98.86,98.86,0,0,1,711.37,187a52.32,52.32,0,0,1,7.32-17.81,37.81,37.81,0,0,1,13-12.15q8-4.53,19.32-4.53T770.3,157a37.29,37.29,0,0,1,12.91,12.15A53.46,53.46,0,0,1,790.45,187,98.86,98.86,0,0,1,792.72,208.46Zm-26,0c0-3.32-.21-7-.61-11a54.58,54.58,0,0,0-2.26-11.24,24.48,24.48,0,0,0-4.75-8.76,10.24,10.24,0,0,0-8.08-3.54,10.44,10.44,0,0,0-8.15,3.54,24.57,24.57,0,0,0-4.9,8.76,51.45,51.45,0,0,0-2.34,11.24,109.5,109.5,0,0,0-.61,11q0,5.13.61,11.24A51.45,51.45,0,0,0,738,231a24.65,24.65,0,0,0,4.9,8.76,10.44,10.44,0,0,0,8.15,3.54,10.24,10.24,0,0,0,8.08-3.54,24.57,24.57,0,0,0,4.75-8.76,54.56,54.56,0,0,0,2.26-11.32C766.55,215.63,766.76,211.88,766.76,208.46Z"/><path class="cls-2" d="M866.22,262.19v-9.81h-.3a23.57,23.57,0,0,1-10.34,8.83,33.72,33.72,0,0,1-14.26,3.09,33.36,33.36,0,0,1-15.1-3.32A34.49,34.49,0,0,1,815,252.15a38.74,38.74,0,0,1-7-12.75,47.41,47.41,0,0,1-2.42-15.09,45.43,45.43,0,0,1,2.49-15,39.29,39.29,0,0,1,7.1-12.6A33.07,33.07,0,0,1,841,184.91a28.71,28.71,0,0,1,14,3.17A31.17,31.17,0,0,1,864,195h.31V176.16H841.77V162.73h22.49V148.09H889v14.64H896v13.43H889v86Zm-.91-37.73a20.61,20.61,0,0,0-4.9-13.29,18.09,18.09,0,0,0-5.66-4.37,16.63,16.63,0,0,0-7.55-1.66,17,17,0,0,0-7.7,1.66,17.39,17.39,0,0,0-9,10.41,22.92,22.92,0,0,0-1.13,7.1,23.53,23.53,0,0,0,1.13,7.16,18.48,18.48,0,0,0,3.4,6.27,16.74,16.74,0,0,0,13.28,6,16.63,16.63,0,0,0,7.55-1.67,18,18,0,0,0,5.66-4.37,20.05,20.05,0,0,0,3.62-6.19A20.41,20.41,0,0,0,865.31,224.46Z"/></svg>