<svg id="Layer_1" data-name="Layer 1" xmlns="http://www.w3.org/2000/svg" viewBox="0 0 2006 752.99"><defs><style>.cls-1{fill:#c90202;}.cls-2{fill:#fff;}</style></defs><title>Image convert 1 body care fix text</title><path d="M118.82,511.5l-11.75,12.25v22.12H86.94v-87.5h20.13v40.88l38.75-40.88h22.5l-36.25,39,38.37,48.5H146.82Z"/><path d="M247.19,529.62v16.25H179.44v-87.5h66.13v16.25h-46v19h40.62v15.75H199.57v20.25Z"/><path d="M342.94,545.87l-.13-52.5-25.75,43.25h-9.12L282.31,494.5v51.37h-19v-87.5h16.75l32.75,54.38,32.25-54.38h16.63l.25,87.5Z"/><path d="M497.69,545.87l-.13-52.5-25.75,43.25h-9.12L437.06,494.5v51.37h-19v-87.5h16.75l32.75,54.38,32.25-54.38h16.63l.25,87.5Z"/><path d="M595.06,527.12H554.44l-7.75,18.75H525.94l39-87.5h20l39.12,87.5H602.81Zm-6.37-15.37-13.88-33.5-13.87,33.5Z"/><path d="M626.31,537.25,633.18,522a51.53,51.53,0,0,0,28.88,9.12c12,0,16.87-4,16.87-9.37,0-16.38-50.87-5.13-50.87-37.63,0-14.87,12-27.25,36.87-27.25,11,0,22.25,2.63,30.38,7.75L689.06,480a49.39,49.39,0,0,0-24.25-6.88c-12,0-16.63,4.5-16.63,10,0,16.13,50.88,5,50.88,37.13,0,14.62-12.13,27.12-37.13,27.12C648.06,547.37,634.06,543.25,626.31,537.25Z"/><path d="M706.06,537.25,712.93,522a51.53,51.53,0,0,0,28.88,9.12c12,0,16.87-4,16.87-9.37,0-16.38-50.87-5.13-50.87-37.63,0-14.87,12-27.25,36.87-27.25,11,0,22.25,2.63,30.38,7.75L768.81,480a49.39,49.39,0,0,0-24.25-6.88c-12,0-16.63,4.5-16.63,10,0,16.13,50.88,5,50.88,37.13,0,14.62-12.13,27.12-37.13,27.12C727.81,547.37,713.81,543.25,706.06,537.25Z"/><path d="M850.31,527.12H809.68l-7.75,18.75H781.18l39-87.5h20l39.13,87.5H858.06Zm-6.38-15.37-13.87-33.5-13.88,33.5Z"/><path d="M946.3,500.75h18.5v35.5c-9.62,7.25-22.87,11.12-35.37,11.12-27.5,0-47.75-18.87-47.75-45.25s20.25-45.25,48.12-45.25c15.38,0,28.13,5.25,36.63,15.13l-13,12a29.63,29.63,0,0,0-22.63-9.88c-17,0-28.62,11.38-28.62,28,0,16.38,11.62,28,28.37,28a32.13,32.13,0,0,0,15.75-3.75Z"/><path d="M1051.3,529.62v16.25H983.55v-87.5h66.13v16.25h-46v19h40.62v15.75h-40.62v20.25Z"/><path d="M1183.05,458.37v87.5h-16.62l-43.63-53.12v53.12h-20v-87.5h16.75l43.5,53.13V458.37Z"/><path d="M1262.93,500.75h18.5v35.5c-9.63,7.25-22.88,11.12-35.38,11.12-27.5,0-47.75-18.87-47.75-45.25s20.25-45.25,48.13-45.25c15.37,0,28.12,5.25,36.62,15.13l-13,12a29.6,29.6,0,0,0-22.62-9.88c-17,0-28.63,11.38-28.63,28,0,16.38,11.63,28,28.38,28a32.16,32.16,0,0,0,15.75-3.75Z"/><path d="M1378.68,470.37v37c0,25.75-14.75,40-39.63,40s-39.62-14.25-39.62-40v-49h20.25v48.25c0,16.63,7.25,23.5,19.5,23.5s19.5-6.87,19.5-23.5V458.37h13c4.5,0,7.5-3.25,7.5-7.87a12,12,0,0,0-2.5-7.5l11.5-4.25a20.2,20.2,0,0,1,4,12.5C1392.18,461.12,1387.3,468,1378.68,470.37Zm-30.88,93.38c0,5.12-3.75,8.37-8.62,8.37s-8.63-3.25-8.63-8.37a8.63,8.63,0,1,1,17.25,0Z"/><path d="M1394.8,502.12c0-26.37,20.25-45.25,47.5-45.25,15.13,0,27.75,5.5,36,15.5l-13,12c-5.87-6.75-13.25-10.25-22-10.25-16.37,0-28,11.5-28,28s11.63,28,28,28c8.75,0,16.13-3.5,22-10.37l13,12c-8.25,10.12-20.87,15.62-36.12,15.62C1415.05,547.37,1394.8,528.5,1394.8,502.12Z"/><path d="M79.1,600.94c0-13.71,10.53-23.53,24.7-23.53,7.87,0,14.43,2.86,18.72,8.06l-6.76,6.24a14.63,14.63,0,0,0-11.44-5.33c-8.51,0-14.56,6-14.56,14.56s6,14.56,14.56,14.56a14.5,14.5,0,0,0,11.44-5.39l6.76,6.24c-4.29,5.27-10.85,8.13-18.78,8.13C89.63,624.48,79.1,614.66,79.1,600.94Z"/><path d="M158.66,614H137.54l-4,9.75H122.72L143,578.19h10.4l20.34,45.51H162.69Zm-3.31-8-7.22-17.42L140.92,606Z"/><path d="M185.64,586.77H171.08v-8.58h39.65v8.58H196.17V623.7H185.64Z"/><path d="M258.11,578.19V623.7H247.58V605H226.91V623.7H216.38V578.19h10.53v17.94h20.67V578.19Z"/><path d="M290.74,607.57V623.7H280.21V607.44L262.6,578.19h11.18l12.15,20.22,12.16-20.22h10.33Z"/><path d="M331.24,578.19h20.67c14.88,0,25.09,9,25.09,22.75s-10.21,22.76-25.09,22.76H331.24Zm20.15,36.86c9,0,14.95-5.4,14.95-14.11s-5.92-14.1-14.95-14.1h-9.62v28.21Z"/><path d="M382.07,600.94c0-13.52,10.53-23.53,24.89-23.53s24.9,10,24.9,23.53-10.6,23.54-24.9,23.54S382.07,614.46,382.07,600.94Zm39.13,0c0-8.64-6.11-14.56-14.24-14.56s-14.23,5.92-14.23,14.56S398.84,615.5,407,615.5,421.2,609.59,421.2,600.94Z"/><path d="M439.78,578.19h10.54v36.93h22.81v8.58H439.78Z"/><path d="M479,578.19h10.53v36.93h22.82v8.58H479Z"/><path d="M533.12,619.21l3.58-7.93a26.7,26.7,0,0,0,15,4.75c6.24,0,8.78-2.08,8.78-4.88,0-8.52-26.46-2.67-26.46-19.57,0-7.73,6.24-14.17,19.18-14.17,5.72,0,11.57,1.37,15.79,4l-3.25,8a25.64,25.64,0,0,0-12.61-3.58c-6.24,0-8.64,2.34-8.64,5.2,0,8.39,26.45,2.6,26.45,19.31,0,7.6-6.3,14.11-19.3,14.11C544.43,624.48,537.15,622.33,533.12,619.21Z"/><path d="M613.4,615.24v8.46H578.17V578.19h34.38v8.45H588.63v9.88h21.13v8.19H588.63v10.53Z"/><path d="M650,623.7l-11-15.8-10.79,15.8H616.13L633,600.55l-16-22.36h12L639.4,593l10.27-14.76H661l-15.86,22,17,23.54Z"/><path d="M687.63,607.57V623.7H677.1V607.44l-17.62-29.25h11.18l12.16,20.22L695,578.19h10.34Z"/><path d="M724.54,619.21l3.58-7.93a26.76,26.76,0,0,0,15,4.75c6.24,0,8.77-2.08,8.77-4.88,0-8.52-26.45-2.67-26.45-19.57,0-7.73,6.24-14.17,19.17-14.17,5.72,0,11.57,1.37,15.8,4l-3.25,8a25.67,25.67,0,0,0-12.61-3.58c-6.24,0-8.65,2.34-8.65,5.2,0,8.39,26.46,2.6,26.46,19.31,0,7.6-6.31,14.11-19.31,14.11C735.86,624.48,728.58,622.33,724.54,619.21Z"/><path d="M766.73,600.94c0-13.52,10.53-23.53,24.89-23.53s24.9,10,24.9,23.53-10.59,23.54-24.9,23.54S766.73,614.46,766.73,600.94Zm39.13,0c0-8.64-6.11-14.56-14.24-14.56s-14.23,5.92-14.23,14.56,6.11,14.56,14.23,14.56S805.86,609.59,805.86,600.94Z"/><path d="M821.59,600.94c0-13.52,10.53-23.53,24.89-23.53s24.9,10,24.9,23.53-10.59,23.54-24.9,23.54S821.59,614.46,821.59,600.94Zm39.13,0c0-8.64-6.11-14.56-14.24-14.56s-14.23,5.92-14.23,14.56,6.11,14.56,14.23,14.56S860.72,609.59,860.72,600.94Z"/><path d="M921,578.19V623.7h-8.65l-22.68-27.63V623.7h-10.4V578.19H888l22.62,27.63V578.19Z"/><path d="M992,611.28c0,7.87-6.25,12.42-18.21,12.42H950.22V578.19h22.23c11.38,0,17.23,4.75,17.23,11.83a10.93,10.93,0,0,1-6,10C988.7,601.66,992,605.56,992,611.28Zm-31.27-25.16v10.73h10.46c5.14,0,7.93-1.82,7.93-5.4s-2.79-5.33-7.93-5.33Zm20.67,24c0-3.83-2.93-5.65-8.39-5.65H960.69v11.24H973C978.43,615.76,981.36,614.08,981.36,610.17Z"/><path d="M1028.94,623.7,1020.16,611h-9.68V623.7H1000V578.19h19.69c12.16,0,19.76,6.31,19.76,16.51,0,6.83-3.44,11.84-9.36,14.37l10.21,14.63Zm-9.88-36.93h-8.58v15.86h8.58c6.43,0,9.68-3,9.68-7.93S1025.49,586.77,1019.06,586.77Z"/><path d="M1083,615.24v8.46h-35.23V578.19h34.39v8.45h-23.92v9.88h21.12v8.19h-21.12v10.53Z"/><path d="M1121.3,614h-21.12l-4,9.75h-10.79l20.28-45.51H1116l20.34,45.51h-11.05Zm-3.31-8-7.22-17.42L1103.56,606Z"/><path d="M1137.55,619.21l3.57-7.93a26.76,26.76,0,0,0,15,4.75c6.24,0,8.78-2.08,8.78-4.88,0-8.52-26.46-2.67-26.46-19.57,0-7.73,6.24-14.17,19.18-14.17,5.72,0,11.57,1.37,15.79,4l-3.25,8a25.64,25.64,0,0,0-12.61-3.58c-6.24,0-8.64,2.34-8.64,5.2,0,8.39,26.45,2.6,26.45,19.31,0,7.6-6.3,14.11-19.3,14.11C1148.86,624.48,1141.58,622.33,1137.55,619.21Z"/><path d="M1191.37,586.77h-14.56v-8.58h39.65v8.58H1201.9V623.7h-10.53Z"/><path d="M1237.65,600.94c0-13.71,10.53-23.53,24.7-23.53,7.86,0,14.43,2.86,18.72,8.06l-6.76,6.24a14.65,14.65,0,0,0-11.44-5.33c-8.52,0-14.56,6-14.56,14.56s6,14.56,14.56,14.56a14.52,14.52,0,0,0,11.44-5.39l6.76,6.24c-4.29,5.27-10.86,8.13-18.78,8.13C1248.18,624.48,1237.65,614.66,1237.65,600.94Z"/><path d="M1317.14,623.7,1308.37,611h-9.69V623.7h-10.53V578.19h19.7c12.15,0,19.76,6.31,19.76,16.51,0,6.83-3.45,11.84-9.36,14.37l10.21,14.63Zm-9.88-36.93h-8.58v15.86h8.58c6.44,0,9.69-3,9.69-7.93S1313.7,586.77,1307.26,586.77Z"/><path d="M1371.16,615.24v8.46h-35.23V578.19h34.38v8.45h-23.92v9.88h21.13v8.19h-21.13v10.53Z"/><path d="M1409.51,614h-21.13l-4,9.75h-10.79l20.28-45.51h10.4l20.35,45.51h-11Zm-3.32-8L1399,588.53,1391.76,606Z"/><path d="M1470.74,623.7l-.07-27.31-13.39,22.49h-4.74L1439.21,597V623.7h-9.88V578.19H1438l17,28.28,16.77-28.28h8.65l.13,45.51Z"/><path d="M1542.56,578.19V585l-16.9,38.68h-11.44l16.32-36.93h-15.08v7.41h-9.37v-16Z"/><path d="M1580.52,609.39c0,8.06-5.91,15.09-18.91,15.09-6.31,0-12.94-1.76-17.36-4.88l4.16-8.06a21.88,21.88,0,0,0,12.93,4.09c5.27,0,8.52-2.21,8.52-5.91s-2.34-5.92-10.6-5.92h-11.63l2.34-25.61h27.76v8.45h-19l-.71,8.65h3.7C1575.19,595.29,1580.52,601.33,1580.52,609.39Z"/><path d="M1618.42,600.23H1628v18.46a31.43,31.43,0,0,1-18.4,5.79c-14.3,0-24.83-9.82-24.83-23.54s10.53-23.53,25-23.53c8,0,14.63,2.73,19.05,7.87l-6.76,6.24a15.41,15.41,0,0,0-11.77-5.14c-8.84,0-14.88,5.92-14.88,14.56s6,14.56,14.75,14.56a16.66,16.66,0,0,0,8.2-2Z"/><g id="_Rectangle_" data-name="&lt;Rectangle&gt;"><rect class="cls-1" x="80" y="68.49" width="921" height="272"/></g><path class="cls-2" d="M227.09,141.57V250.06H202V161.72h-21.7V141.57Z"/><path class="cls-2" d="M336.83,218.6c0,20.46-18.29,33.32-45.88,33.32-27.43,0-45.57-12.86-45.57-33.32,0-11.63,6.05-20.3,16.43-25.57-8.06-5-12.55-12.56-12.55-22.32,0-19.07,17.05-31,41.69-31,25,0,42,11.93,42,31,0,9.76-4.65,17.36-12.71,22.32C330.79,198.3,336.83,207,336.83,218.6Zm-25.42-.77c0-9.61-7.9-15.5-20.46-15.5-12.4,0-20.15,5.89-20.15,15.5s7.75,15.65,20.15,15.65C303.51,233.48,311.41,227.43,311.41,217.83Zm-37.2-46c0,8.22,6.51,13.33,16.74,13.33,10.39,0,17.05-5.11,17.05-13.33,0-8.52-6.82-13.64-17.05-13.64C280.88,158.15,274.21,163.27,274.21,171.79Z"/><path class="cls-2" d="M435,193.49c0,37.51-22.48,58.43-55.34,58.43-11.47,0-22.47-2.63-30.07-7.44l9.3-18.44c5.89,4,12.87,5.43,20.31,5.43,18,0,29.76-10.7,30.53-31.62-6.35,6.35-15.65,9.76-27,9.76-20.92,0-37.35-13.33-37.35-33.79,0-22.16,18.13-36.11,41.07-36.11C416.5,139.71,435,158.46,435,193.49Zm-28.06-18.91c0-9.3-7-16.12-18.91-16.12-10.69,0-18.13,6.2-18.13,16.12s7.28,16.28,18.44,16.28C399.3,190.86,406.89,184,406.89,174.58Z"/><path class="cls-2" d="M474.32,236.12c0,4-.62,7-4.19,15.49l-8.83,22.32H446l6.82-24.64c-5.11-2-8.37-6.82-8.37-13.17,0-9,6.51-14.88,15-14.88C468.12,221.24,474.32,227.28,474.32,236.12Z"/><path class="cls-2" d="M483.62,195.82c0-35.81,19.84-56.11,46.5-56.11s46.5,20.3,46.5,56.11-19.69,56.1-46.5,56.1S483.62,231.62,483.62,195.82Zm67.73,0c0-24.65-8.68-34.88-21.23-34.88S509,171.17,509,195.82s8.68,34.87,21.08,34.87S551.35,220.46,551.35,195.82Z"/><path class="cls-2" d="M588.86,195.82c0-35.81,19.84-56.11,46.5-56.11,26.82,0,46.5,20.3,46.5,56.11s-19.68,56.1-46.5,56.1C608.7,251.92,588.86,231.62,588.86,195.82Zm67.74,0c0-24.65-8.68-34.88-21.24-34.88-12.4,0-21.08,10.23-21.08,34.88s8.68,34.87,21.08,34.87C647.92,230.69,656.6,220.46,656.6,195.82Z"/><path class="cls-2" d="M694.1,195.82c0-35.81,19.84-56.11,46.5-56.11,26.82,0,46.5,20.3,46.5,56.11s-19.68,56.1-46.5,56.1C713.94,251.92,694.1,231.62,694.1,195.82Zm67.74,0c0-24.65-8.68-34.88-21.24-34.88-12.4,0-21.08,10.23-21.08,34.88s8.68,34.87,21.08,34.87C753.16,230.69,761.84,220.46,761.84,195.82Z"/><path class="cls-2" d="M900.72,158.15H889.4v91.91H866.31v-9.61c-6,7.29-14.88,10.86-26,10.86-23.56,0-41.7-16.75-41.7-42.94s18.14-42.93,41.7-42.93c10.23,0,18.91,3.25,25,10.07V158.15H836.86v-14h28.36v-9.14H889.4v9.14h11.32Zm-35,50.22c0-14.41-9.3-23.09-21.24-23.09-12.09,0-21.39,8.68-21.39,23.09s9.3,23.1,21.39,23.1C856.39,231.47,865.69,222.79,865.69,208.37Z"/></svg>