<?xml version="1.0" encoding="utf-8"?>
<!-- Generator: Adobe Illustrator 22.1.0, SVG Export Plug-In . SVG Version: 6.00 Build 0)  -->
<svg version="1.1" id="Layer_1" xmlns="http://www.w3.org/2000/svg" xmlns:xlink="http://www.w3.org/1999/xlink" x="0px" y="0px"
	 viewBox="0 0 987 430.9" style="enable-background:new 0 0 987 430.9;" xml:space="preserve">
<style type="text/css">
	.st0{fill:#C90202;}
	.st1{enable-background:new    ;}
	.st2{fill:#FFFFFF;}
</style>
<title>Image convert 3</title>
<path d="M90.7,212.8c0,8.5-6.3,13.7-16.4,13.7h-8.7v11.1h-7.2v-38.5h15.8C84.4,199.1,90.7,204.3,90.7,212.8z M83.5,212.8
	c0-4.8-3.2-7.7-9.5-7.7h-8.4v15.3H74C80.2,220.4,83.4,217.6,83.5,212.8z"/>
<path d="M132,199.1v38.5h-7.2v-16.5H105v16.5h-7.2v-38.5h7.2V215h19.9v-15.9H132z"/>
<path d="M167.3,228.7h-19.2l-3.8,8.9h-7.4l17.3-38.5h7l17.4,38.5h-7.5L167.3,228.7z M153,196h-5.7l7.4-5.9h6.2l7.4,5.9h-5.7l-4.8-3
	L153,196z M165,223.1l-7.3-16.8l-7.2,16.8H165z M169,190.9h-5.3l6.3-6.4h7.4L169,190.9z"/>
<path d="M217.8,199.1v38.5h-5.9l-21.2-26.1v26.1h-7.1v-38.5h5.9l21.2,26.1v-26.1H217.8z"/>
<path d="M275.5,212.8c0,8.5-6.3,13.7-16.4,13.7h-8.7v11.1h-7.1v-38.5h15.8C269.2,199.1,275.5,204.3,275.5,212.8z M268.3,212.8
	c0-4.8-3.2-7.7-9.5-7.7h-8.4v15.3h8.4C265.1,220.4,268.3,217.6,268.3,212.8z"/>
<path d="M316.9,199.1v38.5h-7.1v-16.5h-19.9v16.5h-7.1v-38.5h7.1V215h19.9v-15.9H316.9z"/>
<path d="M326.9,220.8v-21.7h7.1v21.4c0,7.9,3.6,11.3,9.8,11.3s9.7-3.4,9.7-11.3v-21.4h7v21.7c0,11.2-6.3,17.3-16.8,17.3
	S326.9,232,326.9,220.8z M342.9,194c2.1-1,3-2.1,3-3.5s-1.2-2.5-2.6-2.4c-0.1,0-0.1,0-0.2,0c-1.2,0-2.3,0.3-3.3,1l-1.5-3
	c1.6-1.1,3.5-1.7,5.5-1.7c3.5,0,6,2.2,6,5.5c0,3-1.5,5.2-4.7,6.7L342.9,194z"/>
<path d="M393.6,205.1h-12.8v-6h32.7v6h-12.8v32.5h-7.1L393.6,205.1L393.6,205.1z"/>
<path d="M444.1,237.6l-7.9-11.3c-0.5,0-1,0-1.5,0H426v11.2h-7.2v-38.4h15.8c10.1,0,16.4,5.2,16.4,13.7c0.2,5.4-3.1,10.3-8.2,12.1
	l8.9,12.6L444.1,237.6z M434.4,205.1H426v15.4h8.4c6.3,0,9.5-2.9,9.5-7.7S440.7,205.1,434.4,205.1z"/>
<path d="M484.1,228.7h-19.2l-3.8,8.9h-7.4l17.4-38.5h7l17.4,38.5H488L484.1,228.7z M481.7,223.1l-7.3-16.8l-7.2,16.8H481.7z"/>
<path d="M534.5,199.1v38.5h-5.9l-21.2-26.1v26.1h-7.1v-38.5h5.9l21.2,26.1v-26.1H534.5z"/>
<path d="M571.1,217.9h6.8v15.3c-4.3,3.3-9.6,5-15.1,4.9c-11.9,0-20.7-8.3-20.7-19.8s8.8-19.8,20.8-19.8c6.4,0,11.8,2.1,15.5,6.3
	l-4.5,4.4c-2.8-2.9-6.6-4.5-10.6-4.4c-8.2,0-14,5.6-14,13.5c0,7.8,5.8,13.5,13.9,13.5c2.8,0.1,5.5-0.6,7.9-2L571.1,217.9z"/>
<path d="M640.9,218.3c0,11.6-8.5,19.2-21,19.2H603v-16.9h-5.4v-5.3h5.4V199h16.8C632.3,199.1,640.9,206.8,640.9,218.3z M633.7,218.3
	c0-8-5.6-13.2-14.1-13.2h-9.3v10.2h10.3v5.3h-10.3v10.9h9.3C628.1,231.5,633.7,226.3,633.7,218.3z"/>
<path d="M648.5,199.1h7.2v38.5h-7.2V199.1z"/>
<path d="M694.9,231.6v6H666v-38.5h28.1v6h-21v10h18.6v5.9h-18.5v10.6H694.9z M675.4,196h-5.7l7.4-5.9h6.2l7.4,5.9H685l-4.8-3
	L675.4,196z M685,186.6l-1.2-2.3c1.3-0.8,2.7-1.2,4.2-1.1c2.9,0,4.6,1.6,4.6,4.1c-0.1,2.2-1.5,4-3.6,4.7l-1.8-1.9
	c1.5-0.7,2.1-1.6,2.1-2.4c0-1-0.8-1.7-1.8-1.7c-0.1,0-0.1,0-0.2,0C686.5,186,685.7,186.2,685,186.6z"/>
<path d="M738.2,237.6l-0.1-25.5l-12.6,21.1h-3.2l-12.6-20.8v25.2h-6.8v-38.5h5.9l15.3,25.5l15-25.5h5.9v38.5H738.2z"/>
<path d="M805.9,237.6v-25.5l-12.7,21.1H790l-12.6-20.8v25.2h-6.8v-38.5h5.9l15.3,25.5l15-25.5h5.9l0.1,38.5H805.9z"/>
<path d="M851.9,237.6l-3.8-8.9h-19.2l-3.8,8.9h-7.4l17.4-38.5h7l17.4,38.5H851.9z M829,188.4h4.5c0.1,2.5,2.2,4.1,5,4.1
	s4.9-1.6,5-4.1h4.5c-0.2,4.9-4.2,7.9-9.5,7.9S829.2,193.3,829,188.4z M845.7,223.1l-7.3-16.8l-7.2,16.8H845.7z M841.8,245.5
	c0,1.8-1.5,3.3-3.3,3.3s-3.3-1.5-3.3-3.3s1.5-3.3,3.3-3.3S841.8,243.7,841.8,245.5L841.8,245.5z"/>
<path d="M870.2,205.1h-12.8v-6h32.7v6h-12.8v32.5h-7.1L870.2,205.1L870.2,205.1z"/>
<path d="M55.7,284.3c0-11.5,8.8-19.8,20.6-19.8c6.3,0,11.7,2.3,15.2,6.4l-4.6,4.3c-2.6-2.9-6.4-4.6-10.3-4.5
	c-8,0-13.8,5.6-13.8,13.5s5.8,13.6,13.8,13.6c3.9,0.1,7.7-1.6,10.3-4.6l4.6,4.4c-3.6,4.2-9,6.4-15.3,6.4
	C64.5,304.1,55.7,295.8,55.7,284.3z"/>
<path d="M122.6,294.7h-19.2l-3.8,8.9h-7.4l17.3-38.5h7l17.4,38.5h-7.5L122.6,294.7z M120.2,289.1l-7.3-16.8l-7.2,16.8H120.2z"/>
<path d="M144.7,271.1h-12.8V265h32.7v6.1h-12.8v32.4h-7.1L144.7,271.1z"/>
<path d="M204.2,265.1v38.5H197v-16.5h-19.9v16.5H170v-38.5h7.1V281H197v-15.9H204.2z"/>
<path d="M231.1,290v13.6H224v-13.5l-15.1-25h7.6l11.2,18.8l11.4-18.8h7L231.1,290z"/>
<path d="M266,265.1h16.8c12.5,0,21,7.7,21,19.2c0,11.6-8.5,19.2-21,19.2H266V265.1z M282.5,297.5c8.6,0,14.1-5.2,14.1-13.2
	s-5.6-13.2-14.1-13.2h-9.3v26.4L282.5,297.5L282.5,297.5z"/>
<path d="M308.7,284.3c0-11.4,8.8-19.8,20.7-19.8s20.7,8.4,20.7,19.8s-8.8,19.8-20.7,19.8S308.7,295.7,308.7,284.3z M343,284.3
	c0-7.5-6.1-13.5-13.6-13.5s-13.5,6.1-13.5,13.6s6.1,13.5,13.5,13.5c7.2,0.2,13.3-5.5,13.5-12.7C343,284.9,343,284.6,343,284.3
	L343,284.3z"/>
<path d="M357.8,265.1h7.1v32.5H385v6h-27.3L357.8,265.1L357.8,265.1z"/>
<path d="M390.7,265.1h7.1v32.5H418v6h-27.3V265.1z"/>
<path d="M436.1,284.3c0-11.5,8.8-19.8,20.6-19.8c6.3,0,11.7,2.3,15.2,6.4l-4.6,4.3c-2.6-2.9-6.4-4.6-10.3-4.5
	c-8,0-13.7,5.6-13.7,13.5s5.8,13.6,13.7,13.6c3.9,0.1,7.7-1.6,10.3-4.6l4.6,4.4c-3.6,4.2-9,6.4-15.3,6.4
	C444.9,304.1,436.1,295.8,436.1,284.3z"/>
<path d="M475.3,284.3c0-11.5,8.8-19.8,20.6-19.8c6.3,0,11.7,2.3,15.2,6.4l-4.6,4.3c-2.6-2.9-6.4-4.6-10.3-4.5
	c-8,0-13.7,5.6-13.7,13.5s5.8,13.6,13.7,13.6c3.9,0.1,7.7-1.6,10.3-4.6l4.6,4.4c-3.6,4.2-9,6.4-15.3,6.4
	C484.1,304.1,475.3,295.8,475.3,284.3z"/>
<path d="M565.4,278.8c0,8.5-6.3,13.7-16.4,13.7h-8.7v11.1h-7.1v-38.5H549C559.1,265.1,565.4,270.3,565.4,278.8z M558.2,278.8
	c0-4.8-3.2-7.6-9.5-7.6h-8.4v15.3h8.4C555,286.4,558.2,283.6,558.2,278.8L558.2,278.8z"/>
<path d="M570.4,284.3c0-11.4,8.8-19.8,20.7-19.8s20.7,8.4,20.7,19.8s-8.8,19.8-20.7,19.8S570.4,295.7,570.4,284.3z M604.6,284.3
	c0-7.5-6.1-13.5-13.6-13.5s-13.5,6.1-13.5,13.6s6.1,13.5,13.5,13.5c7.2,0.2,13.3-5.5,13.5-12.7C604.6,284.9,604.6,284.6,604.6,284.3
	z"/>
<path d="M674.5,265.1l-12.8,38.5h-7.6l-9.5-28.5l-9.7,28.5h-7.6l-12.8-38.5h7.5l9.6,29.3l10-29.3h6.6l9.7,29.4l9.8-29.4H674.5z"/>
<path d="M680.3,265.1h16.8c12.5,0,21,7.7,21,19.2c0,11.6-8.5,19.2-21,19.2h-16.8V265.1z M696.8,297.5c8.6,0,14.1-5.2,14.1-13.2
	s-5.5-13.2-14.1-13.2h-9.3v26.4L696.8,297.5L696.8,297.5z"/>
<path d="M754.6,297.6v6h-28.9v-38.5h28.1v6h-21v10h18.6v5.9h-18.5v10.6H754.6z"/>
<path d="M787.8,303.6l-7.9-11.3c-0.5,0-1,0.1-1.5,0h-8.7v11.2h-7.2V265h15.8c10.1,0,16.4,5.2,16.4,13.7c0,5.8-3,10.1-8.2,12.1
	l8.8,12.6h-7.5V303.6z M778.1,271.1h-8.4v15.4h8.4c6.3,0,9.5-2.9,9.5-7.7S784.4,271.1,778.1,271.1L778.1,271.1z"/>
<path d="M90.7,344.8c0,8.5-6.3,13.7-16.4,13.7h-8.7v11.1h-7.2v-38.5h15.8C84.4,331.1,90.7,336.3,90.7,344.8z M83.5,344.8
	c0-4.8-3.2-7.6-9.5-7.6h-8.4v15.3H74C80.2,352.4,83.4,349.6,83.5,344.8z"/>
<path d="M120.8,360.7h-19.2l-3.8,8.9h-7.4l17.3-38.5h7l17.4,38.5h-7.4L120.8,360.7z M118.5,355.1l-7.3-16.8l-7.2,16.8H118.5z"/>
<path d="M133.8,350.3c0-11.5,8.8-19.8,20.6-19.8c6.3,0,11.7,2.3,15.2,6.4l-4.6,4.3c-2.6-2.9-6.4-4.6-10.3-4.5
	c-8,0-13.7,5.6-13.7,13.5s5.8,13.6,13.8,13.6c3.9,0.1,7.7-1.6,10.3-4.6l4.6,4.4c-3.6,4.2-9,6.4-15.3,6.4
	C142.6,370.1,133.8,361.8,133.8,350.3z"/>
<path d="M183.9,337.1h-12.8V331h32.7v6.1H191v32.4h-7.1V337.1z"/>
<path d="M221.1,365.5l2.5-5.5c3.7,2.7,8.1,4.2,12.7,4.2c6,0,8.5-2.1,8.5-5c0-8.3-22.9-2.9-22.9-17.2c0-6.2,4.9-11.5,15.5-11.5
	c4.5-0.1,8.9,1.1,12.8,3.4l-2.3,5.6c-3.2-1.9-6.9-2.9-10.6-3c-5.9,0-8.4,2.3-8.4,5.2c0,8.2,22.8,2.9,22.8,17c0,6.2-5,11.4-15.6,11.4
	C230.3,370.1,224.3,368.3,221.1,365.5z"/>
<path d="M291.2,344.8c0,8.5-6.3,13.7-16.4,13.7h-8.7v11.1H259v-38.5h15.8C284.9,331.1,291.2,336.3,291.2,344.8z M284,344.8
	c0-4.8-3.2-7.6-9.5-7.6h-8.4v15.3h8.4C280.7,352.4,284,349.6,284,344.8L284,344.8z"/>
<path d="M305.5,337.1v11.7h18.6v6h-18.6v14.7h-7.1V331h28.1v6L305.5,337.1z"/>
<path d="M362.5,360.9h-6.8v8.7h-6.9v-8.7h-21.1v-5l19-24.8h7.6l-17.9,23.7H349V347h6.7v7.8h6.8L362.5,360.9L362.5,360.9z"/>
<path d="M365.5,350.3c0-12.6,6.9-19.8,16.1-19.8s16.1,7.1,16.1,19.8c0,12.7-6.9,19.8-16.1,19.8S365.5,363,365.5,350.3z M390.5,350.3
	c0-9.3-3.6-13.6-8.9-13.6s-8.9,4.3-8.9,13.6s3.6,13.6,8.8,13.6S390.5,359.6,390.5,350.3L390.5,350.3z"/>
<path d="M452.7,344.8c0,8.5-6.3,13.7-16.4,13.7h-8.7v11.1h-7.1v-38.5h15.8C446.4,331.1,452.7,336.3,452.7,344.8z M445.5,344.8
	c0-4.8-3.2-7.6-9.5-7.6h-8.4v15.3h8.4C442.2,352.4,445.5,349.6,445.5,344.8z"/>
<path d="M482.9,360.7h-19.2l-3.8,8.9h-7.4l17.3-38.5h7l17.4,38.5h-7.5L482.9,360.7z M480.5,355.1l-7.3-16.8l-7.2,16.8H480.5z"/>
<path d="M521.7,353.1H512v9.6h-5.9v-9.6h-9.7v-5.5h9.7V338h5.9v9.6h9.7V353.1z"/>
<path d="M554.5,353.1h-9.7v9.6h-5.9v-9.6h-9.7v-5.5h9.7V338h5.9v9.6h9.7V353.1z"/>
<path d="M587.2,353.1h-9.7v9.6h-5.9v-9.6h-9.7v-5.5h9.7V338h5.9v9.6h9.7V353.1z"/>
<path d="M611.1,331.1h7.2v32.5h20.1v6h-27.3V331.1z"/>
<path d="M642.4,331.3c0-2.3,1.9-4.2,4.2-4.1c0.1,0,0.1,0,0.2,0c2.3-0.2,4.2,1.5,4.4,3.8c0,0.1,0,0.1,0,0.2c-0.1,2.4-2.2,4.3-4.6,4.2
	C644.4,335.2,642.6,333.5,642.4,331.3L642.4,331.3z M643.3,340.3h6.9v29.4h-6.9V340.3z"/>
<path d="M688.4,340.2v24.9c0,10.7-5.6,15.5-15.8,15.5c-5.5,0-10.9-1.4-14.3-4.2l3.1-5.2c3.1,2.3,6.9,3.6,10.8,3.5
	c6.5,0,9.3-3,9.3-8.9v-1.5c-2.6,2.6-6.2,4.1-9.8,3.9c-8.4,0-14.8-5.7-14.8-14.2s6.4-14.1,14.8-14.1c4.1,0,7.8,1.3,10.2,4.2v-3.9
	L688.4,340.2z M681.6,354c0-4.9-3.7-8.3-8.9-8.3s-9,3.4-9,8.3c0,5,3.7,8.4,9,8.4S681.6,359,681.6,354z"/>
<path d="M726.3,352.8v16.8h-6.9v-15.9c0-5.2-2.6-7.8-7-7.8c-4.9,0-8.2,3-8.2,8.9v14.9h-6.9v-40.8h6.9v14.8c2.2-2.4,5.7-3.7,9.8-3.7
	C721.1,339.9,726.3,343.9,726.3,352.8z"/>
<path d="M752.7,368c-1.9,1.4-4.2,2.1-6.6,2c-6.4,0-10.1-3.4-10.1-9.9v-14.2h-4.8v-5.5h4.8v-6.7h6.9v6.7h7.9v5.5H743v14
	c0,2.9,1.4,4.4,4.1,4.4c1.4,0,2.7-0.4,3.8-1.2L752.7,368z"/>
<path d="M808.5,359.1c0,6.6-5.2,10.4-15.1,10.4h-19.1V331h18c9.2,0,14.2,3.9,14.2,10c0.1,3.6-1.8,6.8-5,8.5
	C805.7,350.7,808.6,354.7,808.5,359.1z M781.4,336.7v10.6h10.1c5,0,7.8-1.8,7.8-5.3s-2.8-5.3-7.8-5.3L781.4,336.7L781.4,336.7z
	 M801.2,358.4c0-3.9-2.9-5.6-8.3-5.6h-11.5V364h11.5C798.3,364,801.2,362.3,801.2,358.4z"/>
<path d="M842.9,357.1h-23c0.8,4.3,4.4,7,9.5,7c3,0.1,5.9-1,8-3.2l3.7,4.2c-2.6,3.1-6.8,4.8-11.8,4.8c-9.8,0-16.2-6.3-16.2-15.1
	s6.4-15,15.2-15c8.6,0,14.8,6,14.8,15.2C843,355.6,843,356.4,842.9,357.1z M819.8,352.5h16.7c-0.4-4.2-4.1-7.3-8.3-7.1
	C824,345.2,820.3,348.3,819.8,352.5z"/>
<path d="M848.7,331.3c0-2.3,1.9-4.2,4.2-4.1c0.1,0,0.1,0,0.2,0c2.3-0.2,4.2,1.5,4.4,3.8c0,0.1,0,0.1,0,0.2c-0.1,2.4-2.2,4.3-4.6,4.2
	C850.7,335.2,848.9,333.5,848.7,331.3L848.7,331.3z M849.7,340.3h6.9v29.4h-6.9V340.3z"/>
<path d="M894.7,340.2v24.9c0,10.7-5.6,15.5-15.8,15.5c-5.5,0-10.9-1.4-14.3-4.2l3.1-5.2c3.1,2.3,6.9,3.6,10.8,3.5
	c6.5,0,9.3-3,9.3-8.9v-1.5c-2.6,2.6-6.2,4.1-9.8,3.9c-8.4,0-14.8-5.7-14.8-14.2s6.4-14.1,14.9-14.1c4.1,0,7.8,1.3,10.2,4.2v-3.9
	L894.7,340.2z M887.9,354c0-4.9-3.7-8.3-8.9-8.3s-9,3.4-9,8.3c0,5,3.7,8.4,9,8.4S887.9,359,887.9,354z"/>
<path d="M931.2,357.1h-23c0.8,4.3,4.4,7,9.5,7c3,0.1,5.9-1,8-3.2l3.7,4.2c-2.6,3.1-6.8,4.8-11.8,4.8c-9.8,0-16.2-6.3-16.2-15.1
	s6.4-15,15.2-15c8.6,0,14.8,6,14.8,15.2C931.3,355.6,931.3,356.4,931.2,357.1z M908.1,352.5h16.7c-0.4-4.2-4.1-7.3-8.3-7.1
	C912.2,345.2,908.6,348.3,908.1,352.5L908.1,352.5z"/>
<g id="_Rectangle_">
	<rect x="54.7" y="44.8" class="st0" width="383" height="113.1"/>
</g>
<g class="st1">
	<path class="st2" d="M96.4,123.5V87.3l-9.2,7.1l-6-8.3l16.2-11.9H108v49.2H96.4z"/>
	<path class="st2" d="M163.4,90.5c0,2.9-0.5,5.6-1.5,8c-1,2.4-2.3,4.8-4,7.3L146,123.5h-14.1l12.2-17l0.1-0.2
		c-0.5,0.2-1.1,0.3-1.7,0.4s-1.2,0.1-1.8,0.1c-2.2,0-4.2-0.4-6.2-1.1s-3.7-1.9-5.1-3.3c-1.5-1.4-2.7-3.1-3.5-5.1
		c-0.9-2-1.3-4.2-1.3-6.6c0-2.8,0.5-5.3,1.5-7.5c1-2.2,2.4-4.1,4.2-5.6c1.8-1.5,3.8-2.7,6.2-3.5c2.4-0.8,4.9-1.2,7.5-1.2
		c2.7,0,5.2,0.4,7.6,1.2c2.4,0.8,4.4,2,6.1,3.5s3.1,3.4,4.1,5.6C162.9,85.4,163.4,87.9,163.4,90.5z M151.8,90.4c0-2.1-0.7-4-2.1-5.5
		c-1.4-1.6-3.2-2.3-5.6-2.3s-4.3,0.7-5.7,2.2c-1.4,1.5-2.1,3.4-2.1,5.7c0,2.2,0.7,4.1,2.1,5.5s3.3,2.2,5.6,2.2
		c2.3,0,4.2-0.7,5.7-2.2C151.1,94.6,151.8,92.7,151.8,90.4z"/>
	<path class="st2" d="M208.3,90.5c0,2.9-0.5,5.6-1.5,8c-1,2.4-2.3,4.8-4,7.3L191,123.5h-14.1l12.2-17l0.1-0.2
		c-0.5,0.2-1.1,0.3-1.7,0.4s-1.2,0.1-1.8,0.1c-2.2,0-4.2-0.4-6.2-1.1s-3.7-1.9-5.1-3.3c-1.5-1.4-2.7-3.1-3.5-5.1
		c-0.9-2-1.3-4.2-1.3-6.6c0-2.8,0.5-5.3,1.5-7.5c1-2.2,2.4-4.1,4.2-5.6c1.8-1.5,3.8-2.7,6.2-3.5c2.4-0.8,4.9-1.2,7.5-1.2
		c2.7,0,5.2,0.4,7.6,1.2c2.4,0.8,4.4,2,6.1,3.5s3.1,3.4,4.1,5.6C207.8,85.4,208.3,87.9,208.3,90.5z M196.7,90.4c0-2.1-0.7-4-2.1-5.5
		c-1.4-1.6-3.2-2.3-5.6-2.3s-4.3,0.7-5.7,2.2c-1.4,1.5-2.1,3.4-2.1,5.7c0,2.2,0.7,4.1,2.1,5.5s3.3,2.2,5.6,2.2
		c2.3,0,4.2-0.7,5.7-2.2C196,94.6,196.7,92.7,196.7,90.4z"/>
	<path class="st2" d="M222.2,132.1h-9.4l5.2-19.7H229L222.2,132.1z"/>
	<path class="st2" d="M274,98.7c0,3.5-0.3,6.8-1,9.9c-0.7,3.2-1.8,5.9-3.3,8.3c-1.5,2.4-3.5,4.3-5.9,5.7s-5.4,2.1-8.9,2.1
		s-6.4-0.7-8.9-2.1c-2.5-1.4-4.5-3.3-6-5.7c-1.6-2.4-2.7-5.2-3.4-8.3c-0.7-3.2-1-6.5-1-9.9c0-3.5,0.3-6.8,1-9.9
		c0.7-3.1,1.8-5.9,3.4-8.2c1.6-2.3,3.6-4.2,6-5.6c2.5-1.4,5.4-2.1,8.9-2.1s6.4,0.7,8.9,2.1c2.4,1.4,4.4,3.3,5.9,5.6
		c1.5,2.3,2.6,5.1,3.3,8.2C273.7,92,274,95.3,274,98.7z M262.1,98.7c0-1.5-0.1-3.2-0.3-5.1c-0.2-1.9-0.5-3.6-1-5.2
		c-0.5-1.6-1.2-2.9-2.2-4c-1-1.1-2.2-1.6-3.7-1.6s-2.8,0.5-3.8,1.6c-1,1.1-1.7,2.4-2.3,4c-0.5,1.6-0.9,3.3-1.1,5.2
		c-0.2,1.9-0.3,3.5-0.3,5.1c0,1.6,0.1,3.3,0.3,5.2c0.2,1.9,0.5,3.6,1.1,5.2c0.5,1.6,1.3,2.9,2.3,4c1,1.1,2.2,1.6,3.8,1.6
		s2.8-0.5,3.7-1.6c0.9-1.1,1.7-2.4,2.2-4c0.5-1.6,0.9-3.3,1-5.2C262,102,262.1,100.3,262.1,98.7z"/>
	<path class="st2" d="M318.9,98.7c0,3.5-0.3,6.8-1,9.9c-0.7,3.2-1.8,5.9-3.3,8.3c-1.5,2.4-3.5,4.3-5.9,5.7s-5.4,2.1-8.9,2.1
		s-6.4-0.7-8.9-2.1c-2.5-1.4-4.5-3.3-6-5.7c-1.6-2.4-2.7-5.2-3.4-8.3c-0.7-3.2-1-6.5-1-9.9c0-3.5,0.3-6.8,1-9.9
		c0.7-3.1,1.8-5.9,3.4-8.2c1.6-2.3,3.6-4.2,6-5.6c2.5-1.4,5.4-2.1,8.9-2.1s6.4,0.7,8.9,2.1c2.4,1.4,4.4,3.3,5.9,5.6
		c1.5,2.3,2.6,5.1,3.3,8.2C318.6,92,318.9,95.3,318.9,98.7z M307,98.7c0-1.5-0.1-3.2-0.3-5.1c-0.2-1.9-0.5-3.6-1-5.2
		c-0.5-1.6-1.2-2.9-2.2-4c-1-1.1-2.2-1.6-3.7-1.6s-2.8,0.5-3.8,1.6c-1,1.1-1.7,2.4-2.3,4c-0.5,1.6-0.9,3.3-1.1,5.2
		c-0.2,1.9-0.3,3.5-0.3,5.1c0,1.6,0.1,3.3,0.3,5.2c0.2,1.9,0.5,3.6,1.1,5.2c0.5,1.6,1.3,2.9,2.3,4c1,1.1,2.2,1.6,3.8,1.6
		s2.8-0.5,3.7-1.6c0.9-1.1,1.7-2.4,2.2-4c0.5-1.6,0.9-3.3,1-5.2C306.9,102,307,100.3,307,98.7z"/>
	<path class="st2" d="M363.8,98.7c0,3.5-0.3,6.8-1,9.9c-0.7,3.2-1.8,5.9-3.3,8.3c-1.5,2.4-3.5,4.3-5.9,5.7s-5.4,2.1-8.9,2.1
		s-6.4-0.7-8.9-2.1c-2.5-1.4-4.5-3.3-6-5.7c-1.6-2.4-2.7-5.2-3.4-8.3c-0.7-3.2-1-6.5-1-9.9c0-3.5,0.3-6.8,1-9.9
		c0.7-3.1,1.8-5.9,3.4-8.2c1.6-2.3,3.6-4.2,6-5.6c2.5-1.4,5.4-2.1,8.9-2.1s6.4,0.7,8.9,2.1c2.4,1.4,4.4,3.3,5.9,5.6
		c1.5,2.3,2.6,5.1,3.3,8.2C363.5,92,363.8,95.3,363.8,98.7z M351.9,98.7c0-1.5-0.1-3.2-0.3-5.1c-0.2-1.9-0.5-3.6-1-5.2
		c-0.5-1.6-1.2-2.9-2.2-4c-1-1.1-2.2-1.6-3.7-1.6s-2.8,0.5-3.8,1.6c-1,1.1-1.7,2.4-2.3,4c-0.5,1.6-0.9,3.3-1.1,5.2
		c-0.2,1.9-0.3,3.5-0.3,5.1c0,1.6,0.1,3.3,0.3,5.2c0.2,1.9,0.5,3.6,1.1,5.2c0.5,1.6,1.3,2.9,2.3,4c1,1.1,2.2,1.6,3.8,1.6
		s2.8-0.5,3.7-1.6c0.9-1.1,1.7-2.4,2.2-4c0.5-1.6,0.9-3.3,1-5.2C351.8,102,351.9,100.3,351.9,98.7z"/>
	<path class="st2" d="M397.7,123.5V119h-0.1c-1.1,1.8-2.7,3.1-4.8,4.1c-2.1,0.9-4.3,1.4-6.6,1.4c-2.6,0-4.9-0.5-7-1.5
		c-2-1-3.8-2.4-5.2-4.1c-1.4-1.7-2.5-3.6-3.2-5.9c-0.7-2.2-1.1-4.5-1.1-7c0-2.4,0.4-4.7,1.1-6.9c0.8-2.2,1.9-4.1,3.3-5.8
		c1.4-1.7,3.1-3,5.1-4c2-1,4.3-1.5,6.8-1.5c2.5,0,4.7,0.5,6.5,1.5c1.8,1,3.1,2,4.1,3.2h0.1v-8.7h-10.4v-6.2h10.4v-6.7h11.4v6.7h3.2
		v6.2h-3.2v39.6H397.7z M397.3,106.1c0-1.1-0.2-2.2-0.6-3.3c-0.4-1.1-1-2-1.7-2.9c-0.7-0.8-1.6-1.5-2.6-2c-1-0.5-2.2-0.8-3.5-0.8
		c-1.3,0-2.5,0.3-3.5,0.8c-1,0.5-1.9,1.2-2.6,2c-0.7,0.8-1.2,1.8-1.6,2.8c-0.3,1.1-0.5,2.2-0.5,3.3s0.2,2.2,0.5,3.3
		c0.3,1.1,0.9,2.1,1.6,2.9c0.7,0.8,1.6,1.5,2.6,2c1,0.5,2.2,0.8,3.5,0.8c1.3,0,2.5-0.3,3.5-0.8c1-0.5,1.9-1.2,2.6-2
		c0.7-0.8,1.3-1.8,1.7-2.8C397.1,108.3,397.3,107.2,397.3,106.1z"/>
</g>
</svg>
