<?xml version="1.0" encoding="utf-8"?>
<!-- Generator: Adobe Illustrator 22.1.0, SVG Export Plug-In . SVG Version: 6.00 Build 0)  -->
<svg version="1.1" id="Layer_1" xmlns="http://www.w3.org/2000/svg" xmlns:xlink="http://www.w3.org/1999/xlink" x="0px" y="0px"
	 viewBox="0 0 996 384" style="enable-background:new 0 0 996 384;" xml:space="preserve">
<style type="text/css">
	.st0{fill:#C90202;}
	.st1{enable-background:new    ;}
	.st2{fill:#FFFFFF;}
</style>
<title>Image convert 4 (chăm sóc da mặt và tẩy trang) text fix</title>
<path d="M49.3,191.6h7.5l14.8,23.9h0.1v-23.9h5.7v31.9h-7.2L55,198.8l0,0v24.6h-5.7V191.6z"/>
<path d="M109.8,211.7c0,1.8-0.3,3.6-1,5.2c-0.6,1.5-1.5,2.8-2.7,3.9c-1.2,1.1-2.5,1.9-4,2.5c-3.3,1.2-6.9,1.2-10.2,0
	c-1.5-0.5-2.9-1.4-4.1-2.5s-2.1-2.4-2.7-3.9c-0.7-1.6-1-3.4-1-5.2v-20.2h5.7v19.9c0,0.9,0.1,1.9,0.4,2.8c0.2,0.9,0.6,1.7,1.2,2.5
	c0.6,0.7,1.3,1.3,2.2,1.8c2.2,0.9,4.6,0.9,6.8,0c0.9-0.4,1.6-1,2.2-1.8c0.6-0.7,1-1.6,1.2-2.5s0.4-1.8,0.4-2.8v-19.9h3.2
	c1,0.1,2-0.2,2.8-0.9c0.6-0.7,0.8-1.7,0.8-2.6c0-0.5-0.1-1-0.2-1.5s-0.3-0.9-0.6-1.3l4.6-1.2c0.3,0.6,0.5,1.2,0.6,1.8
	c0.1,0.7,0.2,1.4,0.2,2.1c0.1,1.7-0.4,3.4-1.6,4.7c-1.1,1.1-2.7,1.7-4.3,1.7L109.8,211.7z"/>
<path d="M151.5,189.7c0.1,1.7-0.4,3.4-1.6,4.7c-1.2,1.1-2.8,1.8-4.4,1.7c1.3,1.5,2.3,3.2,3,5c1.5,4.3,1.4,8.9-0.2,13.2
	c-0.8,2-2,3.8-3.6,5.3s-3.4,2.7-5.4,3.5c-2.2,0.8-4.5,1.3-6.9,1.2c-2.3,0-4.6-0.4-6.8-1.2c-4.1-1.5-7.4-4.7-9-8.8
	c-0.9-2.2-1.3-4.5-1.3-6.8c0-2.4,0.4-4.7,1.3-6.9c0.8-2,2-3.8,3.6-5.2c1.6-1.5,3.4-2.6,5.4-3.3c3.5-1.2,7.2-1.5,10.9-0.8
	c1,0.2,1.9,0.5,2.9,0.8l2.2,0.8c0.6,0.2,1.2,0.4,1.9,0.4c1,0.1,2-0.2,2.7-0.9c0.5-0.7,0.8-1.6,0.7-2.5c0-0.5-0.1-1-0.2-1.5
	c-0.1-0.5-0.3-0.9-0.6-1.3l4.6-1.2c0.3,0.6,0.5,1.2,0.6,1.8S151.5,189,151.5,189.7z M121.6,207.4c0,1.6,0.2,3.2,0.8,4.7
	c0.5,1.4,1.3,2.6,2.2,3.7c1,1,2.2,1.9,3.5,2.4c1.4,0.6,2.9,0.9,4.4,0.9s3-0.3,4.5-0.9c1.3-0.6,2.5-1.4,3.5-2.4
	c1-1.1,1.8-2.3,2.2-3.7c0.5-1.5,0.8-3.1,0.8-4.7c0-1.6-0.2-3.1-0.8-4.6c-0.5-1.4-1.3-2.6-2.2-3.7c-1-1.1-2.2-1.9-3.5-2.5
	c-1.4-0.6-3-0.9-4.5-0.9s-3.1,0.3-4.5,0.9c-1.3,0.6-2.5,1.4-3.4,2.5c-1,1.1-1.7,2.3-2.2,3.7C121.9,204.3,121.6,205.8,121.6,207.4z
	 M134.1,182.6h6.1l-6.3,6.5h-4.2L134.1,182.6z"/>
<path d="M178.2,199c-0.8-1.1-2-2-3.3-2.5c-2.7-1.1-5.8-1-8.5,0.1c-1.3,0.6-2.5,1.4-3.5,2.5s-1.7,2.3-2.2,3.7c-0.5,1.5-0.8,3-0.8,4.6
	s0.2,3.2,0.8,4.8c0.5,1.4,1.2,2.6,2.2,3.7c0.9,1,2.1,1.9,3.4,2.4c1.4,0.6,2.9,0.9,4.4,0.9c1.6,0,3.1-0.3,4.6-1
	c1.3-0.6,2.4-1.5,3.2-2.7l4.6,3.2c-1.4,1.8-3.2,3.2-5.2,4.1c-2.2,1-4.7,1.5-7.1,1.5c-2.3,0-4.7-0.4-6.9-1.2
	c-4.1-1.5-7.3-4.7-8.9-8.8c-0.9-2.2-1.3-4.5-1.3-6.8c0-2.4,0.4-4.7,1.4-6.9c0.8-2,2.1-3.8,3.6-5.2c1.6-1.5,3.4-2.6,5.5-3.3
	c2.2-0.8,4.5-1.2,6.8-1.2c1.1,0,2.1,0.1,3.2,0.3c1.1,0.2,2.2,0.5,3.2,0.9s2,0.9,2.9,1.5s1.7,1.3,2.3,2.2L178.2,199z"/>
<path d="M203.1,196.5h-9.8v-5h25.2v5h-9.8v26.9H203v-26.9H203.1z"/>
<path d="M232.2,191.6h4.9l13.7,31.9h-6.5l-3-7.3h-13.8l-2.9,7.3h-6.3L232.2,191.6z M237.7,189.5l-3.1-4.1l-3.1,4.1h-5l5.2-6.5h6.1
	l5.1,6.5H237.7z M239.4,211.3l-4.9-13l-5,13H239.4z M241.3,185.1c0-0.6,0.1-1.2,0.3-1.7c0.3-0.6,0.8-1.1,1.4-1.4
	c0.3-0.1,0.5-0.3,0.7-0.5s0.2-0.4,0.2-0.7s-0.1-0.5-0.3-0.7s-0.5-0.3-0.8-0.3c-0.8,0-1.3,0.5-1.5,1.5l-3.1-0.4c0.1-1,0.7-2,1.5-2.6
	c0.9-0.6,2-0.9,3.1-0.9c1.1-0.1,2.2,0.3,3.1,0.9c0.7,0.5,1.1,1.3,1.1,2.2c0,0.6-0.1,1.3-0.5,1.8s-0.9,0.9-1.6,1.2
	c-0.3,0.1-0.6,0.4-0.9,0.6c-0.1,0.2-0.2,0.5-0.2,0.8L241.3,185.1z"/>
<path d="M261.7,209.6l-12-18.1h6.9l8,13.4l8.1-13.4h6.6l-12,18.1v13.8h-5.7L261.7,209.6z"/>
<path d="M297.5,196.5h-9.8v-5h25.2v5h-9.8v26.9h-5.7L297.5,196.5L297.5,196.5z"/>
<path d="M316.6,191.6h11.1c1.5,0,2.9,0.2,4.4,0.5c1.3,0.3,2.6,0.8,3.8,1.6c1.1,0.7,2,1.7,2.6,2.8c0.7,1.3,1,2.8,1,4.3
	c0.1,2.1-0.6,4.1-2,5.6s-3.3,2.6-5.3,3l8.5,14.1h-6.8l-7.4-13.5h-4.2v13.5h-5.7V191.6z M326.9,205.3c0.8,0,1.6-0.1,2.4-0.2
	c0.8-0.1,1.5-0.3,2.2-0.7c0.6-0.3,1.2-0.8,1.6-1.4c0.4-0.7,0.7-1.5,0.6-2.4c0-0.8-0.2-1.5-0.6-2.1c-0.4-0.5-0.9-1-1.5-1.3
	s-1.3-0.6-2-0.7c-0.7-0.1-1.5-0.2-2.2-0.2h-5.2v9L326.9,205.3z"/>
<path d="M354.9,191.6h4.9l13.7,31.9H367l-3-7.3h-13.8l-2.9,7.3h-6.4L354.9,191.6z M362.1,211.3l-4.9-13l-5,13H362.1z"/>
<path d="M376.7,191.6h7.5l14.8,23.8h0.1v-23.8h5.7v31.9h-7.2l-15.1-24.6h-0.1v24.6h-5.6L376.7,191.6L376.7,191.6z"/>
<path d="M439.7,221.8c-1.7,0.8-3.5,1.4-5.3,1.8c-2.2,0.5-4.4,0.7-6.7,0.6c-2.4,0-4.8-0.4-7.1-1.2c-2-0.8-3.9-1.9-5.5-3.5
	c-1.5-1.5-2.8-3.3-3.6-5.3c-1.7-4.4-1.7-9.3,0-13.7c0.8-2,2.1-3.8,3.6-5.2c1.6-1.5,3.4-2.6,5.5-3.3c2.2-0.8,4.5-1.2,6.8-1.2
	c2.4,0,4.7,0.3,7,1.1c1.9,0.6,3.6,1.6,5.1,2.9l-3.9,4.2c-1-1-2.1-1.8-3.4-2.3c-1.5-0.6-3.1-1-4.8-0.9c-1.6,0-3.1,0.3-4.6,0.9
	c-1.3,0.6-2.5,1.4-3.5,2.5s-1.7,2.3-2.2,3.7c-0.5,1.5-0.8,3-0.8,4.6s0.2,3.2,0.8,4.7c0.5,1.4,1.3,2.6,2.2,3.7c1,1.1,2.2,1.9,3.5,2.4
	c1.5,0.6,3.1,0.9,4.8,0.9c2.2,0,4.3-0.3,6.3-1.1V210h-6.7v-4.7h12.2v16.5H439.7z"/>
<path d="M474.1,198.2c-0.7-0.9-1.5-1.5-2.5-2s-2.2-0.8-3.3-0.8c-0.7,0-1.3,0.1-2,0.2c-0.6,0.2-1.2,0.4-1.8,0.8
	c-0.5,0.3-1,0.8-1.3,1.4c-0.4,0.6-0.5,1.3-0.5,2c0,0.6,0.1,1.3,0.5,1.9c0.3,0.5,0.7,1,1.2,1.3c0.6,0.4,1.2,0.7,1.9,0.9
	c0.8,0.3,1.6,0.5,2.5,0.8s2.1,0.7,3.2,1.1c1.1,0.4,2.1,1,3,1.7s1.7,1.6,2.2,2.6c0.6,1.2,0.9,2.6,0.9,3.9c0,1.5-0.3,3.1-1,4.5
	c-0.6,1.2-1.5,2.3-2.5,3.2c-1.1,0.9-2.3,1.5-3.7,1.9c-1.4,0.4-2.9,0.6-4.5,0.6c-2.1,0-4.1-0.4-6.1-1.1c-1.9-0.7-3.6-1.9-4.9-3.4
	l4-3.8c0.8,1.1,1.9,2,3.1,2.6c1.8,0.9,3.9,1.2,5.9,0.7c0.7-0.2,1.3-0.4,1.9-0.8c0.6-0.4,1-0.9,1.4-1.5c0.4-0.7,0.5-1.4,0.5-2.2
	c0-0.7-0.2-1.5-0.6-2.1s-1-1.1-1.6-1.4c-0.7-0.4-1.5-0.8-2.3-1.1l-2.8-0.9c-1-0.3-1.9-0.7-2.9-1.1c-0.9-0.4-1.8-1-2.6-1.7
	c-0.8-0.7-1.4-1.6-1.9-2.5c-0.5-1.2-0.8-2.5-0.7-3.8c0-1.5,0.3-2.9,1-4.2c0.7-1.2,1.6-2.1,2.7-2.9c1.1-0.8,2.4-1.4,3.7-1.7
	c1.4-0.4,2.8-0.6,4.2-0.6c1.7,0,3.3,0.3,4.9,0.9c1.6,0.5,3.1,1.4,4.3,2.6L474.1,198.2z"/>
<path d="M493.7,191.6h4.9l13.7,31.9h-6.5l-3-7.3H489l-2.9,7.3h-6.3L493.7,191.6z M500.9,211.3l-4.9-13l-5,13H500.9z M498.2,182.6
	h6.1l-6.4,6.5h-4.2L498.2,182.6z"/>
<path d="M515.4,191.6h7.6l14.8,23.9h0.1v-23.9h5.7v31.9h-7.2l-15.2-24.6h-0.1v24.6h-5.7L515.4,191.6L515.4,191.6z"/>
<path d="M578.4,221.8c-1.7,0.8-3.5,1.4-5.3,1.8c-2.2,0.5-4.4,0.7-6.7,0.6c-2.4,0-4.8-0.4-7.1-1.2c-2-0.8-3.9-1.9-5.5-3.5
	c-1.5-1.5-2.8-3.3-3.6-5.3c-1.7-4.4-1.7-9.3,0-13.7c0.8-2,2.1-3.8,3.7-5.2c1.6-1.5,3.4-2.6,5.5-3.3c2.2-0.8,4.5-1.2,6.8-1.2
	c2.4,0,4.7,0.3,7,1.1c1.9,0.6,3.6,1.6,5.1,2.9l-3.9,4.2c-1-1-2.1-1.8-3.4-2.3c-1.5-0.6-3.1-1-4.8-0.9c-1.6,0-3.1,0.3-4.6,0.9
	c-1.3,0.6-2.5,1.4-3.5,2.5s-1.7,2.3-2.2,3.7c-0.5,1.5-0.8,3-0.8,4.6s0.2,3.2,0.8,4.7c0.5,1.4,1.3,2.6,2.2,3.7c1,1.1,2.2,1.9,3.5,2.4
	c1.5,0.6,3.1,0.9,4.8,0.9c2.2,0,4.4-0.4,6.4-1.2v-8.1h-6.7v-4.7h12.2L578.4,221.8z"/>
<path d="M596.6,191.6h11.3c2.1,0,4.2,0.3,6.2,0.8s4,1.4,5.7,2.7s3.1,3,4.1,4.9c1.1,2.4,1.7,4.9,1.6,7.5c0.1,2.5-0.5,5-1.6,7.2
	c-1,1.9-2.4,3.7-4.1,5c-1.7,1.3-3.6,2.3-5.7,2.9c-2,0.6-4.1,0.9-6.2,0.9h-11.3V191.6z M607,218.5c1.5,0,3-0.2,4.4-0.5s2.8-0.9,4-1.8
	c1.2-0.9,2.2-2,2.9-3.4c0.8-1.7,1.2-3.5,1.1-5.4c0.1-1.9-0.3-3.8-1.1-5.6c-0.7-1.3-1.7-2.5-2.9-3.4c-1.2-0.8-2.6-1.4-4-1.7
	c-1.5-0.3-2.9-0.4-4.4-0.4h-4.7v22L607,218.5z"/>
<path d="M639.9,191.6h4.9l13.7,31.9H652l-3-7.3h-13.8l-2.9,7.3H626L639.9,191.6z M647.1,211.3l-4.9-13l-5,13H647.1z"/>
<path d="M69.9,261.4c-0.9,1.4-2.1,2.5-3.6,3.3c-1.7,0.9-3.7,1.4-5.7,1.4c-1.8,0-3.5-0.3-5.2-1c-1.5-0.6-2.9-1.5-4.1-2.7
	c-1.2-1.2-2.1-2.6-2.7-4.1c-1.3-3.4-1.3-7.1,0-10.4c1.3-3.1,3.7-5.6,6.8-6.8c1.6-0.7,3.4-1,5.1-1c0.9,0,1.8,0.1,2.7,0.3
	c0.8,0.2,1.7,0.4,2.5,0.8c0.7,0.3,1.5,0.7,2.1,1.2s1.1,1,1.6,1.7l-2.1,1.5c-0.3-0.4-0.6-0.8-1-1.2c-0.5-0.4-1-0.8-1.5-1.1
	c-0.6-0.3-1.2-0.6-1.9-0.7c-0.7-0.2-1.5-0.3-2.2-0.3c-1.5,0-3,0.3-4.3,0.9c-1.2,0.6-2.3,1.4-3.2,2.4s-1.6,2.2-2,3.4
	c-0.5,1.3-0.7,2.7-0.7,4.1c0,1.4,0.2,2.8,0.7,4.1c0.4,1.3,1.1,2.4,2,3.4s2,1.8,3.2,2.4c1.3,0.6,2.8,0.9,4.3,0.9
	c1.4,0,2.8-0.3,4.1-0.9s2.4-1.6,3.2-2.8L69.9,261.4z"/>
<path d="M73.7,265.4h-2.8l10.7-24.8H84l10.6,24.8h-2.8l-2.7-6.5H76.4L73.7,265.4z M77.3,256.6h10.9l-5.5-13.2L77.3,256.6z"/>
<path d="M104.2,265.4h-2.5v-22.5h-8.3v-2.2h19.1v2.2h-8.3C104.2,242.9,104.2,265.4,104.2,265.4z"/>
<path d="M116.2,240.6h2.5v10.8h13.5v-10.8h2.5v24.8h-2.5v-11.7h-13.5v11.7h-2.5V240.6z"/>
<path d="M149.8,265.4h-2.5v-10.7l-9.3-14.1h3.1l7.5,12l7.5-12h2.9l-9.3,14.1L149.8,265.4z"/>
<path d="M170.3,240.6h8.2c1.6,0,3.1,0.3,4.6,0.8s3,1.3,4.2,2.3c1.3,1.1,2.3,2.4,3,3.9c1.5,3.4,1.5,7.4,0,10.8
	c-0.7,1.5-1.7,2.8-3,3.9c-1.2,1-2.7,1.8-4.2,2.3s-3.1,0.8-4.6,0.8h-8.2V240.6z M172.8,263.2h5c1.7,0,3.3-0.3,4.9-0.9
	c1.3-0.5,2.5-1.3,3.4-2.3c0.9-0.9,1.6-2,2-3.2c0.9-2.4,0.9-5.1,0-7.5c-0.4-1.2-1.1-2.3-2-3.2c-1-1-2.2-1.8-3.4-2.3
	c-1.6-0.6-3.2-0.9-4.9-0.9h-5V263.2z"/>
<path d="M221.3,253c0,1.8-0.3,3.6-1,5.2c-1.3,3.1-3.7,5.6-6.8,6.8c-3.3,1.3-7,1.3-10.3,0c-3.1-1.3-5.6-3.7-6.8-6.8
	c-1.3-3.4-1.3-7.1,0-10.4c0.6-1.5,1.5-2.9,2.7-4.1c1.2-1.2,2.6-2.1,4.1-2.7c3.3-1.3,7-1.3,10.3,0c3.1,1.3,5.6,3.7,6.8,6.8
	C221,249.4,221.3,251.2,221.3,253z M218.6,253c0-1.4-0.2-2.8-0.7-4.1c-0.4-1.3-1.1-2.4-2-3.4s-2-1.8-3.2-2.4c-2.7-1.2-5.8-1.2-8.6,0
	c-1.2,0.5-2.3,1.3-3.2,2.4c-0.9,1-1.6,2.2-2,3.4c-0.9,2.7-0.9,5.6,0,8.2c0.4,1.3,1.1,2.4,2,3.4s2,1.8,3.2,2.3c2.7,1.2,5.8,1.2,8.6,0
	c1.2-0.6,2.3-1.3,3.2-2.3s1.6-2.2,2-3.4C218.4,255.8,218.6,254.4,218.6,253L218.6,253z"/>
<path d="M229.1,263.2h11.6v2.2h-14.1v-24.8h2.5V263.2z"/>
<path d="M246.9,263.2h11.6v2.2h-14.1v-24.8h2.5V263.2z"/>
<path d="M270.2,240.6h7.4c1,0,1.9,0.1,2.8,0.3s1.8,0.5,2.6,1c0.8,0.5,1.4,1.2,1.9,1.9c0.5,0.9,0.8,2,0.7,3.1c0,1.2-0.4,2.4-1.2,3.4
	c-0.8,1-2,1.7-3.2,1.9v0.1c1.5,0.1,2.9,0.8,4,1.9c1.1,1.2,1.7,2.7,1.6,4.3c0,1-0.2,1.9-0.6,2.8s-1.1,1.6-1.8,2.2
	c-0.9,0.6-1.9,1.1-2.9,1.4c-1.3,0.3-2.5,0.5-3.8,0.5h-7.3L270.2,240.6z M272.7,251.5h5.1c0.6,0,1.2-0.1,1.8-0.2
	c0.6-0.1,1.2-0.4,1.7-0.7s0.9-0.8,1.2-1.3c0.3-0.6,0.5-1.4,0.5-2.1c0-0.7-0.1-1.4-0.5-2c-0.3-0.5-0.8-1-1.3-1.4
	c-0.6-0.4-1.2-0.6-1.9-0.8c-0.8-0.2-1.5-0.2-2.3-0.2h-4.4L272.7,251.5L272.7,251.5z M272.7,263.3h4.7c0.9,0,1.8-0.1,2.6-0.3
	c0.8-0.2,1.5-0.4,2.2-0.8c0.6-0.4,1.1-0.9,1.5-1.5c1-2,0.6-4.4-1.1-5.9c-1.4-0.9-3.1-1.3-4.7-1.2h-5.1L272.7,263.3z"/>
<path d="M294.9,265.4h-2.5v-24.8h7.3c1.1,0,2.3,0.1,3.4,0.4c1,0.2,1.9,0.6,2.7,1.1c0.8,0.5,1.4,1.2,1.8,2.1c0.4,1,0.7,2,0.6,3.1
	c0,0.9-0.2,1.7-0.5,2.5c-0.3,0.7-0.8,1.4-1.3,1.9c-0.6,0.6-1.3,1-2,1.3c-0.8,0.3-1.7,0.5-2.5,0.6l7.2,11.8H306l-6.9-11.6h-4.2V265.4
	z M294.9,251.7h4.4c1.6,0.1,3.3-0.3,4.7-1.1c1.1-0.7,1.7-2,1.6-3.3c0-0.7-0.1-1.4-0.5-2.1c-0.3-0.6-0.7-1-1.3-1.4
	c-0.6-0.4-1.3-0.6-2-0.8c-0.8-0.2-1.7-0.3-2.5-0.2h-4.5L294.9,251.7z"/>
<path d="M315.9,265.4h-2.5v-24.8h2.5V265.4z"/>
<path d="M341.3,245.1c-0.9-0.9-1.9-1.6-3.1-2.1c-1.3-0.5-2.7-0.8-4.1-0.8c-1.5,0-2.9,0.3-4.3,0.9c-1.2,0.5-2.3,1.3-3.2,2.4
	c-0.9,1-1.6,2.2-2,3.4c-1,2.7-1,5.6,0,8.2c0.5,1.3,1.1,2.4,2,3.4s2,1.8,3.2,2.3c1.4,0.6,2.8,0.9,4.3,0.9c1.3,0,2.6-0.1,3.9-0.5
	c1-0.2,2-0.6,2.8-1.2v-7.5H335v-2.2h8.3v11.2c-1.4,0.8-2.8,1.4-4.4,1.8s-3.2,0.6-4.9,0.6c-1.8,0-3.5-0.3-5.2-1
	c-1.5-0.6-2.9-1.5-4.1-2.7s-2.1-2.6-2.7-4.1c-0.7-1.7-1-3.4-1-5.2s0.3-3.6,1-5.2c0.6-1.5,1.5-2.9,2.7-4.1c1.2-1.2,2.6-2.1,4.1-2.7
	c1.6-0.7,3.4-1,5.1-1c1.8,0,3.5,0.3,5.2,0.9c1.4,0.6,2.7,1.4,3.8,2.5L341.3,245.1z"/>
<path d="M349.8,240.6h2.5v10.8h13.5v-10.8h2.5v24.8h-2.5v-11.7h-13.5v11.7h-2.5V240.6z"/>
<path d="M382.8,265.4h-2.5v-22.5H372v-2.2h19.1v2.2h-8.3L382.8,265.4z"/>
<path d="M411.9,266.1c-1.6,0-3.2-0.3-4.6-1c-1.1-0.6-2.1-1.4-2.8-2.4c-0.7-1-1.2-2.1-1.5-3.2s-0.4-2.2-0.4-3.3v-15.5h2.5V256
	c0,1,0.1,2,0.4,2.9c0.2,0.9,0.6,1.8,1.1,2.5c0.5,0.8,1.3,1.4,2.1,1.8c1,0.5,2.1,0.7,3.2,0.7s2.2-0.2,3.2-0.7c0.8-0.4,1.5-1,2.1-1.8
	c0.5-0.8,0.9-1.6,1.1-2.5c0.2-1,0.4-1.9,0.4-2.9v-15.3h2.5v15.5c0,1.1-0.1,2.2-0.4,3.3c-0.3,1.2-0.8,2.2-1.5,3.2s-1.7,1.9-2.9,2.4
	C415,265.8,413.4,266.1,411.9,266.1z"/>
<path d="M427.6,240.6h7c1.2,0,2.3,0.1,3.4,0.4c1,0.2,1.9,0.7,2.6,1.2s1.3,1.2,1.7,2.1c0.4,0.9,0.6,1.9,0.6,2.9s-0.2,2-0.6,2.9
	c-0.4,0.8-1,1.5-1.7,2.1c-0.8,0.6-1.7,1-2.6,1.3c-1.1,0.3-2.3,0.4-3.5,0.4h-4.4v11.5h-2.5V240.6z M430.1,251.8h4.3
	c1.6,0.1,3.2-0.3,4.5-1.1c1-0.8,1.6-2.1,1.5-3.4c0.1-1.3-0.5-2.6-1.6-3.4c-1.4-0.8-2.9-1.2-4.5-1.1H430L430.1,251.8z"/>
<path d="M477.5,261.4c-0.9,1.4-2.1,2.5-3.6,3.3c-1.7,0.9-3.7,1.4-5.7,1.4c-1.8,0-3.5-0.3-5.2-1c-1.5-0.6-2.9-1.5-4.1-2.7
	s-2.1-2.6-2.7-4.1c-1.3-3.4-1.3-7.1,0-10.4c1.2-3.1,3.7-5.6,6.8-6.8c1.6-0.7,3.4-1,5.1-1c0.9,0,1.8,0.1,2.7,0.3
	c0.8,0.2,1.7,0.4,2.5,0.8c0.7,0.3,1.5,0.7,2.1,1.2s1.1,1.1,1.6,1.7l-2.1,1.5c-0.3-0.4-0.6-0.8-1-1.2c-0.5-0.4-1-0.8-1.5-1.1
	c-0.6-0.3-1.2-0.6-1.9-0.7c-0.7-0.2-1.5-0.3-2.2-0.3c-1.5,0-3,0.3-4.3,0.9c-1.2,0.6-2.3,1.4-3.2,2.4c-0.9,1-1.6,2.2-2,3.4
	c-0.5,1.3-0.7,2.7-0.7,4.1c0,1.4,0.2,2.8,0.7,4.1c0.5,1.3,1.2,2.4,2,3.4c0.9,1,2,1.9,3.2,2.5c1.3,0.6,2.8,0.9,4.3,0.9
	c1.4,0,2.8-0.3,4.1-0.9c1.3-0.6,2.4-1.6,3.2-2.8L477.5,261.4z"/>
<path d="M484.4,263.2h11.5v2.2h-14.1v-24.8h2.5L484.4,263.2z"/>
<path d="M502.2,263.2h13.3v2.2h-15.8v-24.8H515v2.2h-12.8v8.5h12v2.2h-12V263.2z"/>
<path d="M520.2,265.4h-2.8l10.7-24.8h2.5l10.6,24.8h-2.8l-2.7-6.5h-12.8L520.2,265.4z M523.9,256.6h10.9l-5.5-13.2L523.9,256.6z"/>
<path d="M562.5,261.8L562.5,261.8l0.1-21.1h2.5v24.8h-3.2l-14.4-21.3h-0.1v21.3h-2.5v-24.8h3.2L562.5,261.8z"/>
<path d="M583.7,244.6c-0.5-0.7-1.3-1.4-2.1-1.8c-0.9-0.5-2-0.7-3-0.7c-0.6,0-1.3,0.1-1.9,0.3c-0.6,0.2-1.2,0.5-1.7,0.9
	s-0.9,0.9-1.2,1.5s-0.5,1.3-0.5,2.1c0,0.7,0.1,1.4,0.5,2c0.3,0.5,0.7,1,1.2,1.3c0.5,0.4,1.1,0.7,1.7,0.9l2,0.7
	c0.9,0.3,1.7,0.6,2.6,0.9c0.8,0.3,1.6,0.7,2.3,1.3c0.7,0.5,1.3,1.2,1.7,2c0.5,0.9,0.7,2,0.7,3.1s-0.2,2.2-0.7,3.2
	c-0.4,0.9-1.1,1.6-1.8,2.2c-0.8,0.6-1.6,1-2.6,1.3c-0.9,0.3-1.9,0.4-2.9,0.4c-0.8,0-1.5-0.1-2.2-0.2s-1.5-0.4-2.1-0.7
	c-0.7-0.3-1.3-0.7-1.9-1.1c-0.6-0.5-1.1-1-1.5-1.6l2.2-1.6c0.6,0.9,1.3,1.7,2.3,2.2c1,0.6,2.2,0.9,3.4,0.9c0.7,0,1.3-0.1,1.9-0.3
	c0.6-0.2,1.2-0.5,1.8-0.9c0.5-0.4,1-0.9,1.3-1.5s0.5-1.4,0.5-2.1c0-0.8-0.1-1.5-0.5-2.2c-0.3-0.6-0.8-1.1-1.3-1.4
	c-0.6-0.4-1.2-0.8-1.9-1c-0.7-0.3-1.5-0.5-2.3-0.8s-1.6-0.6-2.4-0.9c-0.8-0.3-1.5-0.7-2.1-1.3c-0.6-0.5-1.2-1.2-1.5-1.9
	c-0.4-0.9-0.6-1.9-0.6-2.8c0-1.1,0.2-2.1,0.7-3.1c0.5-0.8,1.1-1.6,1.9-2.1c0.8-0.6,1.6-1,2.6-1.2c0.9-0.3,1.8-0.4,2.8-0.4
	c1.5,0,3,0.3,4.3,0.9c1,0.5,2,1.2,2.7,2.1L583.7,244.6z"/>
<path d="M593.9,265.4h-2.5v-24.8h2.5V265.4z"/>
<path d="M618,261.8L618,261.8l0.1-21.1h2.5v24.8h-3.2L603,244.2h0v21.3h-2.5v-24.8h3.2L618,261.8z"/>
<path d="M646,245.1c-0.9-0.9-1.9-1.6-3.1-2.1c-1.3-0.5-2.7-0.8-4.1-0.8c-1.5,0-2.9,0.3-4.3,0.9c-1.2,0.5-2.3,1.3-3.2,2.4
	c-0.9,1-1.6,2.2-2,3.4c-1,2.7-1,5.6,0,8.2c0.5,1.3,1.1,2.4,2,3.4s2,1.8,3.2,2.3c1.4,0.6,2.8,0.9,4.3,0.9c1.3,0,2.6-0.1,3.8-0.5
	c1-0.2,2-0.6,2.8-1.2v-7.5h-5.8v-2.2h8.3v11.2c-1.4,0.8-2.8,1.4-4.4,1.8c-1.6,0.4-3.2,0.6-4.9,0.6c-1.8,0-3.5-0.3-5.2-1
	c-1.5-0.6-2.9-1.5-4.1-2.7c-1.2-1.2-2.1-2.6-2.7-4.1c-0.7-1.7-1-3.4-1-5.2s0.3-3.6,1-5.2c0.6-1.5,1.5-2.9,2.7-4.1
	c1.2-1.2,2.6-2.1,4.1-2.7c1.6-0.7,3.4-1,5.1-1c1.8,0,3.5,0.3,5.2,0.9c1.4,0.6,2.7,1.4,3.8,2.5L646,245.1z"/>
<path d="M668.8,262L668.8,262l6.3-21.3h3l6.2,21.3h0.1l6.1-21.3h2.7l-7.3,24.8H683l-6.2-21.3h-0.1l-6.2,21.3h-2.9l-7.3-24.8h2.7
	L668.8,262z"/>
<path d="M696.2,265.4h-2.8l10.7-24.8h2.5l10.6,24.8h-2.8l-2.7-6.5h-12.8L696.2,265.4z M699.9,256.6h10.9l-5.5-13.2L699.9,256.6z"/>
<path d="M726.8,265.4h-2.5v-22.5H716v-2.2h19.1v2.2h-8.3V265.4z"/>
<path d="M741.3,263.2h13.3v2.2h-15.8v-24.8h15.4v2.2h-12.8v8.5h12v2.2h-12v9.7H741.3z"/>
<path d="M762,265.4h-2.5v-24.8h7.3c1.1,0,2.3,0.1,3.4,0.4c1,0.2,1.9,0.6,2.7,1.1s1.4,1.2,1.8,2.1c0.4,1,0.7,2,0.6,3.1
	c0,0.9-0.2,1.7-0.5,2.5c-0.3,0.7-0.8,1.4-1.3,1.9c-0.6,0.6-1.3,1-2,1.3c-0.8,0.3-1.7,0.5-2.5,0.6l7.2,11.8h-3.1l-6.9-11.6H762V265.4
	z M762,251.7h4.4c1.6,0.1,3.3-0.3,4.7-1.1c1.1-0.7,1.7-2,1.7-3.3c0-0.7-0.1-1.4-0.5-2.1c-0.3-0.6-0.7-1-1.3-1.4s-1.3-0.6-2-0.8
	c-0.8-0.2-1.7-0.3-2.5-0.2H762V251.7z"/>
<path d="M53.2,334.8h1.1c0.6,0,1.3-0.1,1.9-0.2c0.6-0.1,1.2-0.3,1.7-0.6c0.5-0.3,0.9-0.6,1.3-1.1c0.3-0.6,0.5-1.2,0.5-1.9
	c0-0.5-0.1-1-0.3-1.5c-0.2-0.4-0.5-0.8-0.8-1.1c-0.4-0.3-0.8-0.5-1.3-0.7s-1-0.3-1.5-0.2c-0.9,0-1.8,0.3-2.6,0.9
	c-0.7,0.6-1.2,1.4-1.4,2.3l-4-1c0.2-0.8,0.6-1.6,1.1-2.3c0.5-0.7,1.1-1.3,1.8-1.8s1.5-0.9,2.4-1.2c0.9-0.3,1.9-0.4,2.8-0.4
	c1,0,2.1,0.1,3.1,0.4c0.9,0.3,1.8,0.7,2.5,1.3c0.7,0.6,1.3,1.3,1.7,2.1c0.4,0.9,0.7,1.9,0.6,2.9c0,2.7-1.8,5-4.5,5.6v0.1
	c1.4,0.2,2.7,0.9,3.7,2c0.9,1.1,1.4,2.5,1.4,3.9c0,1.2-0.2,2.3-0.7,3.4c-0.5,0.9-1.2,1.7-2,2.4c-0.8,0.6-1.7,1.1-2.7,1.4
	s-2.1,0.5-3.1,0.5s-2-0.1-3-0.3c-0.9-0.2-1.8-0.5-2.6-1s-1.5-1.1-2.1-1.8c-0.6-0.8-1.1-1.7-1.4-2.7l3.9-1.2c0.3,1,0.9,1.8,1.7,2.5
	c0.9,0.7,2.1,1.1,3.2,1c0.6,0,1.1-0.1,1.6-0.2s1-0.4,1.5-0.7c0.4-0.3,0.8-0.8,1-1.3c0.3-0.6,0.4-1.2,0.4-1.9c0-0.7-0.2-1.4-0.6-2
	c-0.4-0.5-0.9-1-1.5-1.3s-1.3-0.6-1.9-0.7c-0.7-0.1-1.3-0.2-2-0.2H53v-3.4H53.2z"/>
<path d="M86.6,337c0,1.8-0.2,3.6-0.6,5.4c-0.3,1.4-0.9,2.8-1.7,4.1c-0.7,1.1-1.6,2-2.7,2.6c-2.3,1.2-5.1,1.2-7.5,0
	c-1.1-0.6-2.1-1.5-2.8-2.6c-0.8-1.3-1.4-2.6-1.7-4.1c-0.8-3.6-0.8-7.3,0-10.9c0.3-1.5,0.9-2.8,1.7-4.1c0.7-1.1,1.7-2,2.8-2.6
	c2.3-1.2,5.1-1.2,7.5,0c1.1,0.6,2,1.5,2.7,2.6c0.8,1.3,1.4,2.6,1.7,4.1C86.4,333.4,86.6,335.2,86.6,337z M82.2,337
	c0-0.9,0-1.8-0.2-2.9c-0.1-1.1-0.3-2.1-0.6-3.1c-0.3-0.9-0.7-1.7-1.3-2.5c-0.6-0.7-1.4-1-2.3-1s-1.7,0.3-2.3,1
	c-0.6,0.7-1.1,1.6-1.4,2.5c-0.3,1-0.5,2.1-0.6,3.1s-0.2,2-0.2,2.9c0,1,0.1,2,0.2,2.9c0.1,1,0.3,2.1,0.6,3.1c0.3,0.9,0.7,1.7,1.3,2.4
	c0.6,0.7,1.4,1,2.3,1s1.7-0.3,2.3-1c0.6-0.7,1.1-1.5,1.3-2.4c0.3-1,0.5-2,0.6-3.1C82.2,339,82.2,338,82.2,337z"/>
<path d="M91.2,324.6h6.9l6.4,17.6h0.1l6.4-17.6h6.9v24.8h-4.4v-19.9h-0.1l-7.5,19.9h-3.1l-7.4-19.9h-0.1v19.9h-4.2L91.2,324.6
	L91.2,324.6z"/>
<path d="M123.4,324.6h4.4v20.9h10.5v3.9h-14.9V324.6z"/>
<g id="_Rectangle__1_">
	<rect x="46.8" y="31.7" class="st0" width="383" height="113.1"/>
</g>
<g class="st1">
	<path class="st2" d="M73.6,110.4v-9.7l19.2-17.3c1.2-1.2,2.2-2.3,2.9-3.5c0.7-1.2,1.1-2.5,1.1-4c0-1.8-0.6-3.2-1.7-4.3
		c-1.1-1.1-2.6-1.6-4.4-1.6c-1.9,0-3.5,0.7-4.8,2.1c-1.2,1.4-2,3.2-2.2,5.4l-11.2-1.5c0.3-2.5,1-4.7,2.1-6.7s2.5-3.6,4.1-5
		c1.7-1.4,3.6-2.4,5.7-3.2s4.4-1.1,6.8-1.1c2.3,0,4.5,0.3,6.6,0.9c2.1,0.6,4,1.5,5.7,2.8c1.7,1.3,3,2.8,4,4.7c1,1.9,1.5,4.1,1.5,6.7
		c0,1.8-0.2,3.3-0.7,4.8c-0.5,1.4-1.1,2.7-1.9,3.9c-0.8,1.2-1.7,2.3-2.8,3.4s-2.1,2.1-3.2,3.1l-11.4,10.1h20.1v10.2H73.6z"/>
	<path class="st2" d="M155.5,93.9c0,2.8-0.5,5.3-1.5,7.5c-1,2.2-2.4,4.1-4.2,5.6c-1.8,1.5-3.8,2.7-6.2,3.5s-4.9,1.2-7.5,1.2
		c-2.7,0-5.2-0.4-7.5-1.2c-2.3-0.8-4.4-2-6.1-3.5s-3.1-3.4-4.2-5.6c-1-2.2-1.5-4.6-1.5-7.3c0-2.9,0.5-5.6,1.5-8c1-2.4,2.3-4.8,4-7.3
		l11.9-17.7h14.1L136.2,78l-0.2,0.3c0.5-0.2,1-0.3,1.7-0.4c0.6-0.1,1.2-0.1,1.8-0.1c2.1,0,4.2,0.4,6.1,1.1s3.7,1.9,5.1,3.3
		c1.5,1.4,2.6,3.1,3.5,5.1C155.1,89.3,155.5,91.5,155.5,93.9z M143.9,94.1c0-2.2-0.7-4.1-2.1-5.5c-1.4-1.5-3.3-2.2-5.6-2.2
		s-4.2,0.7-5.7,2.2c-1.4,1.4-2.2,3.3-2.2,5.6c0,2.1,0.7,4,2.1,5.5c1.4,1.5,3.3,2.3,5.7,2.3c2.3,0,4.2-0.7,5.6-2.2
		C143.2,98.4,143.9,96.5,143.9,94.1z"/>
	<path class="st2" d="M200.5,77.5c0,2.9-0.5,5.6-1.5,8c-1,2.4-2.3,4.8-4,7.3l-11.9,17.7H169l12.2-17l0.1-0.2
		c-0.5,0.2-1.1,0.3-1.7,0.4c-0.6,0.1-1.2,0.1-1.8,0.1c-2.2,0-4.2-0.4-6.2-1.1s-3.7-1.9-5.1-3.3c-1.5-1.4-2.7-3.1-3.5-5.1
		c-0.9-2-1.3-4.2-1.3-6.6c0-2.8,0.5-5.3,1.5-7.5c1-2.2,2.4-4.1,4.2-5.6s3.8-2.7,6.2-3.5c2.4-0.8,4.9-1.2,7.5-1.2
		c2.7,0,5.2,0.4,7.6,1.2c2.4,0.8,4.4,2,6.1,3.5c1.7,1.5,3.1,3.4,4.1,5.6C200,72.3,200.5,74.8,200.5,77.5z M188.9,77.3
		c0-2.1-0.7-4-2.1-5.5s-3.2-2.3-5.6-2.3c-2.4,0-4.3,0.7-5.7,2.2c-1.4,1.5-2.1,3.4-2.1,5.7c0,2.2,0.7,4.1,2.1,5.5
		c1.4,1.5,3.3,2.2,5.6,2.2c2.3,0,4.2-0.7,5.7-2.2C188.2,81.5,188.9,79.6,188.9,77.3z"/>
	<path class="st2" d="M214.4,119H205l5.2-19.7h10.9L214.4,119z"/>
	<path class="st2" d="M266.2,85.7c0,3.5-0.3,6.8-1,9.9c-0.7,3.2-1.8,5.9-3.3,8.3c-1.5,2.4-3.5,4.3-5.9,5.7c-2.4,1.4-5.4,2.1-8.9,2.1
		c-3.5,0-6.4-0.7-8.9-2.1c-2.5-1.4-4.5-3.3-6-5.7c-1.6-2.4-2.7-5.2-3.4-8.3c-0.7-3.2-1-6.5-1-9.9c0-3.5,0.3-6.8,1-9.9
		c0.7-3.1,1.8-5.9,3.4-8.2c1.6-2.3,3.6-4.2,6-5.6c2.5-1.4,5.4-2.1,8.9-2.1c3.5,0,6.4,0.7,8.9,2.1c2.4,1.4,4.4,3.3,5.9,5.6
		c1.5,2.3,2.6,5.1,3.3,8.2C265.8,78.9,266.2,82.2,266.2,85.7z M254.2,85.7c0-1.5-0.1-3.2-0.3-5.1c-0.2-1.9-0.5-3.6-1-5.2
		c-0.5-1.6-1.2-2.9-2.2-4c-1-1.1-2.2-1.6-3.7-1.6s-2.8,0.5-3.8,1.6s-1.7,2.4-2.3,4c-0.5,1.6-0.9,3.3-1.1,5.2
		c-0.2,1.9-0.3,3.5-0.3,5.1c0,1.6,0.1,3.3,0.3,5.2c0.2,1.9,0.5,3.6,1.1,5.2c0.5,1.6,1.3,2.9,2.3,4s2.2,1.6,3.8,1.6s2.8-0.5,3.7-1.6
		c0.9-1.1,1.7-2.4,2.2-4c0.5-1.6,0.9-3.3,1-5.2C254.1,89,254.2,87.2,254.2,85.7z"/>
	<path class="st2" d="M311.1,85.7c0,3.5-0.3,6.8-1,9.9c-0.7,3.2-1.8,5.9-3.3,8.3c-1.5,2.4-3.5,4.3-5.9,5.7c-2.4,1.4-5.4,2.1-8.9,2.1
		c-3.5,0-6.4-0.7-8.9-2.1c-2.5-1.4-4.5-3.3-6-5.7c-1.6-2.4-2.7-5.2-3.4-8.3c-0.7-3.2-1-6.5-1-9.9c0-3.5,0.3-6.8,1-9.9
		c0.7-3.1,1.8-5.9,3.4-8.2c1.6-2.3,3.6-4.2,6-5.6c2.5-1.4,5.4-2.1,8.9-2.1c3.5,0,6.4,0.7,8.9,2.1c2.4,1.4,4.4,3.3,5.9,5.6
		c1.5,2.3,2.6,5.1,3.3,8.2C310.7,78.9,311.1,82.2,311.1,85.7z M299.1,85.7c0-1.5-0.1-3.2-0.3-5.1c-0.2-1.9-0.5-3.6-1-5.2
		c-0.5-1.6-1.2-2.9-2.2-4s-2.2-1.6-3.7-1.6s-2.8,0.5-3.8,1.6c-1,1.1-1.7,2.4-2.3,4c-0.5,1.6-0.9,3.3-1.1,5.2
		c-0.2,1.9-0.3,3.5-0.3,5.1c0,1.6,0.1,3.3,0.3,5.2c0.2,1.9,0.5,3.6,1.1,5.2c0.5,1.6,1.3,2.9,2.3,4c1,1.1,2.2,1.6,3.8,1.6
		s2.8-0.5,3.7-1.6s1.7-2.4,2.2-4c0.5-1.6,0.9-3.3,1-5.2C299,89,299.1,87.2,299.1,85.7z"/>
	<path class="st2" d="M356,85.7c0,3.5-0.3,6.8-1,9.9c-0.7,3.2-1.8,5.9-3.3,8.3c-1.5,2.4-3.5,4.3-5.9,5.7c-2.4,1.4-5.4,2.1-8.9,2.1
		c-3.5,0-6.4-0.7-8.9-2.1c-2.5-1.4-4.5-3.3-6-5.7c-1.6-2.4-2.7-5.2-3.4-8.3c-0.7-3.2-1-6.5-1-9.9c0-3.5,0.3-6.8,1-9.9
		c0.7-3.1,1.8-5.9,3.4-8.2c1.6-2.3,3.6-4.2,6-5.6c2.5-1.4,5.4-2.1,8.9-2.1c3.5,0,6.4,0.7,8.9,2.1c2.4,1.4,4.4,3.3,5.9,5.6
		c1.5,2.3,2.6,5.1,3.3,8.2C355.7,78.9,356,82.2,356,85.7z M344,85.7c0-1.5-0.1-3.2-0.3-5.1c-0.2-1.9-0.5-3.6-1-5.2
		c-0.5-1.6-1.2-2.9-2.2-4c-1-1.1-2.2-1.6-3.7-1.6s-2.8,0.5-3.8,1.6s-1.7,2.4-2.3,4c-0.5,1.6-0.9,3.3-1.1,5.2
		c-0.2,1.9-0.3,3.5-0.3,5.1c0,1.6,0.1,3.3,0.3,5.2c0.2,1.9,0.5,3.6,1.1,5.2c0.5,1.6,1.3,2.9,2.3,4s2.2,1.6,3.8,1.6s2.8-0.5,3.7-1.6
		c0.9-1.1,1.7-2.4,2.2-4c0.5-1.6,0.9-3.3,1-5.2C344,89,344,87.2,344,85.7z"/>
	<path class="st2" d="M389.9,110.4v-4.5h-0.1c-1.1,1.8-2.7,3.1-4.8,4.1c-2.1,0.9-4.3,1.4-6.6,1.4c-2.6,0-4.9-0.5-7-1.5
		c-2-1-3.8-2.4-5.2-4.1c-1.4-1.7-2.5-3.6-3.2-5.9c-0.7-2.2-1.1-4.5-1.1-7c0-2.4,0.4-4.7,1.1-6.9c0.8-2.2,1.9-4.1,3.3-5.8
		c1.4-1.7,3.1-3,5.1-4c2-1,4.3-1.5,6.8-1.5c2.5,0,4.7,0.5,6.5,1.5c1.8,1,3.1,2,4.1,3.2h0.1v-8.7h-10.4v-6.2H389v-6.7h11.4v6.7h3.2
		v6.2h-3.2v39.6H389.9z M389.4,93c0-1.1-0.2-2.2-0.6-3.3c-0.4-1.1-1-2-1.7-2.9c-0.7-0.8-1.6-1.5-2.6-2c-1-0.5-2.2-0.8-3.5-0.8
		c-1.3,0-2.5,0.3-3.5,0.8c-1,0.5-1.9,1.2-2.6,2c-0.7,0.8-1.2,1.8-1.6,2.8c-0.3,1.1-0.5,2.2-0.5,3.3s0.2,2.2,0.5,3.3
		c0.3,1.1,0.9,2.1,1.6,2.9c0.7,0.8,1.6,1.5,2.6,2c1,0.5,2.2,0.8,3.5,0.8c1.3,0,2.5-0.3,3.5-0.8c1-0.5,1.9-1.2,2.6-2
		c0.7-0.8,1.3-1.8,1.7-2.8C389.2,95.2,389.4,94.1,389.4,93z"/>
</g>
</svg>
