<?xml version="1.0" encoding="utf-8"?>
<!-- Generator: Adobe Illustrator 22.1.0, SVG Export Plug-In . SVG Version: 6.00 Build 0)  -->
<svg version="1.1" id="Layer_1" xmlns="http://www.w3.org/2000/svg" xmlns:xlink="http://www.w3.org/1999/xlink" x="0px" y="0px"
	 viewBox="0 0 2006 968" style="enable-background:new 0 0 2006 968;" xml:space="preserve">
<style type="text/css">
	.st0{fill:#C90202;}
	.st1{fill:#FFFFFF;}
</style>
<title>Image convert 1 fix text</title>
<path d="M163,534.1c0,19.5-14.6,31.7-38.1,31.7h-17.7v24.2H87v-87.6h37.9C148.3,502.3,163,514.5,163,534.1z M142.5,534.1
	c0-9.6-6.3-15.3-18.7-15.3h-16.6v30.4h16.5C136.2,549.2,142.4,543.6,142.5,534.1L142.5,534.1z"/>
<path d="M257.7,502.3v87.6h-20.3V554h-39.8v35.9h-20.3v-87.6h20.3v34.6h39.8v-34.6H257.7z"/>
<path d="M336.2,571.2h-40.7l-7.8,18.8H267l39.1-87.6h20l39.2,87.6H344L336.2,571.2z M305.3,495.2h-14.4l16.6-14.3h17l16.6,14.3
	h-14.4l-10.7-7.2L305.3,495.2z M329.8,555.8l-13.9-33.5L302,555.8L329.8,555.8z M345.2,483.1h-14.1L345,468h19.9L345.2,483.1z"/>
<path d="M454.8,502.3v87.6h-16.6l-43.7-53.2v53.2h-20v-87.6h16.8l43.6,53.2v-53.2H454.8z"/>
<path d="M590.8,589.9l-0.1-52.6l-25.8,43.3h-9.1L530,538.5v51.5h-19v-87.6h16.8l32.8,54.5l32.3-54.5h16.7l0.3,87.6H590.8z"/>
<path d="M688.3,571.2h-40.7l-7.8,18.8H619l39.1-87.6h20l39.2,87.6H696L688.3,571.2z M681.9,555.8L668,522.2l-13.9,33.5L681.9,555.8z
	 M672,495.2h-15.3l16.9-18h21L672,495.2z"/>
<path d="M842.3,502.3v87.6H822V554h-39.8v35.9h-20.3v-87.6h20.3v34.6H822v-34.6H842.3z"/>
<path d="M953.4,546.1c0,26.2-20.4,45.3-48,45.3s-48-19.3-48-45.3s20.3-45.3,48-45.3S953.4,520,953.4,546.1z M932.9,546.1
	c0-16.7-11.8-28-27.4-28s-27.4,11.4-27.4,28s11.8,28,27.4,28S932.9,562.8,932.9,546.1L932.9,546.1z M894.7,495.1h-14.4l16.7-14.2h17
	l16.7,14.3h-14.4l-10.8-7.2L894.7,495.1z M928,483.1L908.4,468h19.9l13.7,15.1L928,483.1z"/>
<path d="M1049.1,502.3v87.6h-16.7l-43.7-53.2v53.2h-20v-87.6h16.8l43.6,53.2v-53.2H1049.1z"/>
<path d="M1129.1,544.7h18.5v35.6c-9.6,7.3-22.9,11.1-35.4,11.1c-27.6,0-47.8-18.9-47.8-45.3s20.3-45.3,48.2-45.3
	c15.4,0,28.2,5.3,36.7,15.1l-13,12c-5.8-6.4-14-10-22.7-9.9c-17,0-28.7,11.4-28.7,28c0,16.4,11.7,28,28.4,28
	c5.5,0.1,10.9-1.2,15.8-3.8L1129.1,544.7z"/>
<path d="M78.8,647.6c0-12.1,9.3-20.8,21.9-20.8c7,0,12.8,2.5,16.6,7.1l-6,5.5c-2.5-3-6.2-4.8-10.1-4.7c-7.5,0-12.9,5.3-12.9,12.9
	s5.3,12.9,12.9,12.9c3.9,0,7.7-1.7,10.1-4.8l6,5.5c-3.8,4.7-9.6,7.2-16.6,7.2C88.1,668.5,78.8,659.8,78.8,647.6z"/>
<path d="M149.2,659.1h-18.7l-3.5,8.6h-9.6l18-40.3h9.2l18,40.3h-9.8L149.2,659.1z M146.3,652.1l-6.4-15.4l-6.4,15.4H146.3z"/>
<path d="M173.1,635.1h-12.9v-7.6h35.1v7.6h-12.9v32.7h-9.3V635.1z"/>
<path d="M237.2,627.5v40.3h-9.3v-16.5h-18.3v16.5h-9.3v-40.3h9.3v15.9h18.3v-15.9H237.2z"/>
<path d="M266.1,653.5v14.3h-9.3v-14.4l-15.6-25.9h9.9l10.8,17.9l10.8-17.9h9.1L266.1,653.5z"/>
<path d="M301.9,627.5h18.3c13.2,0,22.2,7.9,22.2,20.1s-9,20.1-22.2,20.1h-18.3V627.5z M319.8,660.1c8,0,13.2-4.8,13.2-12.5
	s-5.2-12.5-13.2-12.5h-8.5v25L319.8,660.1z"/>
<path d="M346.9,647.6c0-12,9.3-20.8,22-20.8s22,8.8,22,20.8s-9.4,20.8-22,20.8S346.9,659.6,346.9,647.6z M381.6,647.6
	c0-7.7-5.4-12.9-12.6-12.9s-12.6,5.2-12.6,12.9s5.4,12.9,12.6,12.9S381.5,655.3,381.6,647.6L381.6,647.6z"/>
<path d="M398,627.5h9.3v32.7h20.2v7.6H398V627.5z"/>
<path d="M432.7,627.5h9.3v32.7h20.2v7.6h-29.5V627.5z"/>
<path d="M520.4,667.8l-0.1-24.2l-11.8,19.9h-4.2l-11.8-19.4v23.6h-8.8v-40.3h7.7l15.1,25l14.8-25h7.6l0.1,40.3H520.4z"/>
<path d="M565.2,659.1h-18.7l-3.5,8.6h-9.6l18-40.3h9.2l18,40.3h-9.8L565.2,659.1z M562.3,652.1l-6.4-15.4l-6.4,15.4H562.3z"/>
<path d="M582.8,627.5h9.3v32.7h20.2v7.6h-29.5V627.5z"/>
<path d="M617.5,627.5h9.3v40.3h-9.3V627.5z"/>
<path d="M673.3,656.8c0,7-5.5,11-16.1,11h-20.8v-40.3H656c10.1,0,15.2,4.2,15.2,10.5c0.1,3.7-2,7.2-5.3,8.9
	C670.4,648,673.5,652.1,673.3,656.8z M645.6,634.5v9.5h9.3c4.5,0,7-1.6,7-4.8s-2.5-4.7-7-4.7L645.6,634.5z M663.9,655.8
	c0-3.4-2.6-5-7.4-5h-10.9v10h10.9C661.3,660.8,663.9,659.2,663.9,655.8z"/>
<path d="M680,650v-22.5h9.3v22.2c0,7.7,3.3,10.8,9,10.8s9-3.2,9-10.8v-22.2h9.2V650c0,11.8-6.8,18.4-18.2,18.4S680,661.9,680,650z"
	/>
<path d="M738.8,663.8l3.2-7c3.9,2.7,8.5,4.2,13.3,4.2c5.5,0,7.8-1.8,7.8-4.3c0-7.5-23.4-2.4-23.4-17.3c0-6.8,5.5-12.5,17-12.5
	c5.1,0,10.2,1.2,14,3.6l-2.9,7.1c-3.4-2-7.2-3.1-11.2-3.2c-5.5,0-7.7,2.1-7.7,4.6c0,7.4,23.4,2.3,23.4,17.1
	c0,6.7-5.6,12.5-17.1,12.5C748.8,668.5,742.4,666.6,738.8,663.8z"/>
<path d="M778.3,650v-22.5h9.3v22.2c0,7.7,3.3,10.8,9,10.8s9-3.2,9-10.8v-22.2h9.2V650c0,11.8-6.8,18.4-18.2,18.4
	S778.3,661.9,778.3,650z"/>
<path d="M860.9,627.5v40.3h-7.7l-20.1-24.4v24.4H824v-40.3h7.7l20,24.5v-24.5H860.9z"/>
<path d="M867.3,663.8l3.2-7c3.9,2.7,8.5,4.2,13.3,4.2c5.5,0,7.8-1.8,7.8-4.3c0-7.5-23.4-2.4-23.4-17.3c0-6.8,5.5-12.5,17-12.5
	c5.1,0,10.2,1.2,14,3.6l-2.9,7.1c-3.4-2-7.3-3.1-11.2-3.2c-5.5,0-7.7,2.1-7.7,4.6c0,7.4,23.4,2.3,23.4,17.1
	c0,6.7-5.6,12.5-17.1,12.5C877.3,668.5,870.9,666.6,867.3,663.8z"/>
<path d="M938.4,660.3v7.5h-31.2v-40.3h30.4v7.5h-21.2v8.8h18.7v7.2h-18.7v9.3L938.4,660.3z"/>
<path d="M954.1,635.1h-12.9v-7.6h35.1v7.6h-12.9v32.7h-9.3V635.1z"/>
<path d="M1034.5,656.8c0,7-5.5,11-16.1,11h-20.8v-40.3h19.7c10.1,0,15.2,4.2,15.2,10.5c0.1,3.7-2,7.2-5.3,8.9
	C1031.6,648,1034.7,652.2,1034.5,656.8z M1006.9,634.5v9.5h9.3c4.5,0,7-1.6,7-4.8s-2.5-4.7-7-4.7L1006.9,634.5z M1025.2,655.8
	c0-3.4-2.6-5-7.4-5h-10.9v10h10.9C1022.6,660.8,1025.2,659.2,1025.2,655.8z"/>
<path d="M1041.6,627.5h9.3v32.7h20.2v7.6h-29.5L1041.6,627.5z"/>
<path d="M1075.5,650v-22.5h9.3v22.2c0,7.7,3.3,10.8,9,10.8s9-3.2,9-10.8v-22.2h9.2V650c0,11.8-6.8,18.4-18.2,18.4
	S1075.5,661.9,1075.5,650z"/>
<path d="M1118,663.8l3.2-7c3.9,2.7,8.5,4.2,13.3,4.2c5.5,0,7.8-1.8,7.8-4.3c0-7.5-23.4-2.4-23.4-17.3c0-6.8,5.5-12.5,17-12.5
	c5.1,0,10.2,1.2,14,3.6l-2.9,7.1c-3.4-2-7.2-3.1-11.2-3.2c-5.5,0-7.7,2.1-7.7,4.6c0,7.4,23.4,2.3,23.4,17.1
	c0,6.7-5.6,12.5-17.1,12.5C1128,668.5,1121.6,666.6,1118,663.8z"/>
<path d="M1194.8,627.5v40.3h-9.3v-16.5h-18.3v16.5h-9.3v-40.3h9.3v15.9h18.3v-15.9H1194.8z"/>
<path d="M1235.5,660.3v7.5h-31.2v-40.3h30.4v7.5h-21.2v8.8h18.7v7.2h-18.7v9.3L1235.5,660.3z"/>
<path d="M1268.6,667.8l-7.8-11.2h-8.6v11.2h-9.3v-40.3h17.4c10.8,0,17.5,5.6,17.5,14.6c0.2,5.6-3.1,10.7-8.3,12.7l9,12.9H1268.6z
	 M1259.8,635.1h-7.6v14h7.6c5.7,0,8.6-2.7,8.6-7S1265.5,635.1,1259.8,635.1z"/>
<g id="_Rectangle_">
	<rect x="77" y="78.5" class="st0" width="921" height="272"/>
</g>
<path class="st1" d="M212.2,262.5V184l-20,15.4l-13.1-17.9l35.1-25.8h23.1l0.1,106.9H212.2z"/>
<path class="st1" d="M355.7,231.9c0.3,9.9-4.2,19.2-12.1,25.1c-3.8,2.9-8.2,5-12.8,6.2c-4.9,1.4-10,2.1-15.1,2
	c-5.1,0-10.3-0.6-15.2-2c-4.6-1.2-8.9-3.3-12.7-6.1c-3.7-2.7-6.7-6.3-8.8-10.3c-2.3-4.6-3.4-9.6-3.3-14.7c0-3.1,0.5-6.1,1.5-9
	c1-2.7,2.4-5.2,4.1-7.4c1.7-2.2,3.8-4,6.1-5.6c2.3-1.5,4.8-2.7,7.4-3.6v-0.3c-4.6-1.7-8.6-4.5-11.6-8.3c-3.1-3.9-4.7-8.8-4.7-14.7
	c-0.1-4.6,0.9-9.1,3-13.1c2-3.8,4.7-7,8.1-9.6c3.6-2.7,7.6-4.6,11.9-5.8c4.6-1.3,9.4-2,14.2-2c4.8,0,9.5,0.6,14.1,1.9
	c4.3,1.2,8.3,3.1,11.9,5.6c3.4,2.5,6.2,5.7,8.2,9.4c2.1,4,3.2,8.5,3.1,13c0,5.9-1.5,10.9-4.5,15c-2.9,4-7.1,6.9-11.8,8.5v0.4
	c2.7,0.8,5.2,2,7.5,3.5c4.6,3.1,8.2,7.7,10,13C355.1,226,355.7,228.9,355.7,231.9z M330.5,231.1c0.1-3.9-1.4-7.6-4.2-10.3
	c-2.8-2.8-6.7-4.3-10.6-4.1c-4-0.2-7.9,1.3-10.8,4.1c-2.8,2.7-4.3,6.5-4.1,10.4c0,4.3,1.4,7.8,4.2,10.3c3,2.6,6.8,4,10.8,3.9
	c4.4,0,8-1.3,10.7-3.9S330.5,235.4,330.5,231.1L330.5,231.1z M328.5,184.6c0.1-3.3-1.3-6.5-3.8-8.8c-2.5-2.3-5.7-3.5-9.1-3.5
	c-3.4-0.2-6.7,1.1-9.2,3.5c-2.3,2.3-3.6,5.5-3.5,8.8c0,3.3,1.2,6.5,3.4,8.9c2.4,2.6,5.8,3.9,9.3,3.8c3.5,0.1,6.8-1.3,9.2-3.8
	C327.2,191.1,328.5,187.9,328.5,184.6L328.5,184.6z"/>
<path class="st1" d="M455.1,190.8c0.1,5.9-1,11.8-3.3,17.3c-2.4,5.5-5.3,10.8-8.6,15.8l-25.8,38.5h-30.6l26.6-36.9l0.3-0.4
	c-1.2,0.4-2.4,0.7-3.7,0.9c-1.3,0.2-2.6,0.3-3.8,0.3c-4.6,0-9.1-0.8-13.4-2.5c-4.1-1.6-7.9-4-11.1-7.1c-6.9-6.6-10.7-15.7-10.6-25.3
	c-0.1-5.6,1-11.2,3.3-16.3c2.1-4.7,5.2-8.8,9-12.2c3.9-3.4,8.5-6,13.4-7.6c10.6-3.5,22.1-3.5,32.7,0c4.9,1.6,9.4,4.2,13.3,7.6
	c3.8,3.4,6.9,7.5,9,12.1C454,180,455.2,185.4,455.1,190.8z M429.9,190.5c0.1-4.4-1.5-8.7-4.5-12c-3-3.4-7.1-5.1-12.2-5.1
	c-5.1,0-9.3,1.6-12.4,4.8c-3.1,3.2-4.6,7.3-4.6,12.4c-0.1,4.4,1.5,8.8,4.6,12c3,3.2,7.1,4.8,12.1,4.7s9.1-1.6,12.3-4.7
	S429.9,195.6,429.9,190.5z"/>
<path class="st1" d="M485.4,281H465l11.3-42.9H500L485.4,281z"/>
<path class="st1" d="M597.7,208.5c0,7.3-0.7,14.5-2.2,21.6c-1.3,6.4-3.8,12.5-7.2,18c-3.2,5.1-7.7,9.4-12.9,12.4
	c-5.3,3.1-11.7,4.6-19.2,4.6s-14-1.5-19.3-4.6c-5.3-3-9.8-7.3-13.1-12.4c-3.5-5.5-6-11.6-7.3-18c-1.5-7.1-2.3-14.3-2.3-21.6
	c0-7.2,0.7-14.4,2.2-21.5c1.3-6.3,3.8-12.4,7.3-17.8c3.3-5,7.8-9.2,13-12.2c5.3-3,11.8-4.5,19.3-4.5c7.5,0,14,1.5,19.2,4.5
	c5.2,2.9,9.6,7.1,12.9,12.1c3.5,5.4,5.9,11.5,7.3,17.8C597,194.1,597.8,201.3,597.7,208.5z M571.7,208.5c0-3.3-0.2-7-0.6-11
	c-0.4-3.8-1.1-7.6-2.3-11.2c-1-3.2-2.6-6.2-4.8-8.8c-2-2.3-5-3.6-8.1-3.5c-3.1-0.1-6.1,1.2-8.2,3.6c-2.2,2.6-3.9,5.5-4.9,8.8
	c-1.2,3.7-2,7.4-2.3,11.2c-0.4,3.7-0.6,7.3-0.6,11c0,3.4,0.2,7.2,0.6,11.2c0.4,3.8,1.1,7.6,2.3,11.3c1,3.2,2.7,6.2,4.9,8.8
	c2.1,2.3,5,3.6,8.2,3.5c3.1,0.1,6.1-1.2,8.1-3.6c2.2-2.6,3.8-5.5,4.8-8.8c1.1-3.7,1.9-7.5,2.3-11.3
	C571.6,215.7,571.8,212,571.7,208.5L571.7,208.5z"/>
<path class="st1" d="M695.2,208.4c0,7.2-0.7,14.5-2.2,21.6c-1.3,6.4-3.8,12.5-7.2,18c-3.2,5.1-7.7,9.4-12.9,12.4
	c-5.3,3.1-11.7,4.6-19.2,4.6s-14-1.5-19.3-4.6c-5.3-3-9.8-7.3-13.1-12.4c-3.5-5.5-6-11.6-7.3-18c-3-14.2-3-28.9,0-43.1
	c1.3-6.3,3.8-12.4,7.3-17.8c3.3-5,7.8-9.2,13-12.1c5.3-3,11.8-4.5,19.3-4.5c7.5,0,14,1.5,19.2,4.5c5.2,3,9.6,7.1,12.9,12.1
	c3.5,5.4,6,11.5,7.3,17.8C694.5,194,695.3,201.2,695.2,208.4z M669.2,208.4c0-3.3-0.2-7-0.6-11c-0.4-3.8-1.1-7.6-2.3-11.2
	c-1-3.2-2.6-6.2-4.8-8.8c-2-2.3-5-3.6-8.1-3.5c-3.1-0.1-6.1,1.2-8.2,3.6c-2.2,2.6-3.9,5.5-4.9,8.8c-1.2,3.7-2,7.4-2.3,11.2
	c-0.4,3.7-0.6,7.3-0.6,11c0,3.4,0.2,7.2,0.6,11.2c0.4,3.9,1.1,7.6,2.3,11.3c1,3.2,2.7,6.2,4.9,8.8c2.1,2.3,5,3.6,8.2,3.5
	c3.1,0.1,6.1-1.2,8.1-3.6c2.2-2.6,3.8-5.5,4.8-8.8c1.1-3.7,1.9-7.5,2.2-11.3C669.1,215.6,669.3,211.9,669.2,208.4L669.2,208.4z"/>
<path class="st1" d="M792.7,208.4c0,7.3-0.7,14.5-2.2,21.6c-1.3,6.4-3.8,12.5-7.2,18c-3.2,5.1-7.7,9.4-12.9,12.4
	c-5.3,3.1-11.7,4.6-19.2,4.6s-14-1.5-19.3-4.6c-5.3-3-9.8-7.2-13.1-12.4c-3.5-5.5-6-11.6-7.3-18c-3-14.2-3-28.9,0-43.1
	c1.3-6.3,3.8-12.4,7.3-17.8c3.3-5,7.8-9.2,13-12.1c5.3-3,11.8-4.5,19.3-4.5c7.5,0,14,1.5,19.2,4.5c5.2,3,9.6,7.1,12.9,12.1
	c3.5,5.4,5.9,11.5,7.3,17.8C792,194,792.8,201.2,792.7,208.4z M766.7,208.4c0-3.3-0.2-7-0.6-11c-0.4-3.8-1.1-7.6-2.3-11.2
	c-1-3.2-2.6-6.2-4.8-8.8c-2-2.3-5-3.6-8.1-3.5c-3.1-0.1-6.1,1.2-8.2,3.6c-2.2,2.6-3.9,5.5-4.9,8.8c-1.2,3.7-2,7.4-2.3,11.2
	c-0.4,4-0.6,7.7-0.6,11s0.2,7.2,0.6,11.2c0.3,3.9,1.1,7.7,2.3,11.4c1,3.2,2.7,6.2,4.9,8.8c2.1,2.3,5,3.6,8.2,3.5
	c3.1,0.1,6.1-1.2,8.1-3.6c2.2-2.6,3.8-5.5,4.8-8.8c1.1-3.7,1.9-7.5,2.2-11.3C766.6,215.6,766.8,211.8,766.7,208.4L766.7,208.4z"/>
<path class="st1" d="M866.3,262.1v-9.8H866c-2.5,3.9-6.1,7-10.3,8.8c-4.5,2.1-9.3,3.1-14.3,3.1c-5.2,0.1-10.4-1-15.1-3.3
	c-4.3-2.1-8.2-5.1-11.3-8.8c-3.1-3.8-5.5-8.1-7-12.8c-1.6-4.9-2.4-10-2.4-15.1c0-5.1,0.8-10.2,2.5-15c1.6-4.6,4-8.9,7.1-12.6
	c6.4-7.6,15.9-12,25.9-11.8c4.9-0.1,9.7,0.9,14,3.2c3.4,1.8,6.4,4.1,8.9,6.9h0.3V176h-22.5v-13.4h22.5V148H889v14.6h6.9V176H889
	l0.1,86L866.3,262.1z M865.4,224.3c0-2.4-0.4-4.8-1.3-7.1c-0.8-2.3-2.1-4.4-3.6-6.2c-1.6-1.8-3.5-3.3-5.7-4.4
	c-2.4-1.1-4.9-1.7-7.5-1.7c-2.7-0.1-5.3,0.5-7.7,1.7c-4.3,2.1-7.6,5.9-9,10.4c-0.7,2.3-1.1,4.7-1.1,7.1c0,2.4,0.4,4.9,1.1,7.2
	c0.7,2.3,1.9,4.4,3.4,6.3c3.3,3.9,8.2,6.1,13.3,6c2.6,0,5.2-0.5,7.5-1.7c2.2-1.1,4.1-2.6,5.7-4.4c1.6-1.8,2.8-3.9,3.6-6.2
	C864.9,229.1,865.3,226.7,865.4,224.3L865.4,224.3z"/>
</svg>
