<svg id="Layer_1" data-name="Layer 1" xmlns="http://www.w3.org/2000/svg" viewBox="0 0 2013.47 877.59"><defs><style>.cls-1{fill:#c90202;}.cls-2{fill:#fff;}</style></defs><title>Image convert 1 mua 6 tặng 1</title><path d="M72,575.52l6.89-15.28a51.5,51.5,0,0,0,28.92,9.14c12,0,16.9-4,16.9-9.39,0-16.4-50.95-5.13-50.95-37.68,0-14.9,12-27.3,36.93-27.3,11,0,22.29,2.63,30.42,7.77l-6.26,15.39a49.47,49.47,0,0,0-24.29-6.88c-12,0-16.65,4.51-16.65,10,0,16.16,51,5,51,37.19,0,14.65-12.15,27.17-37.18,27.17C93.82,585.66,79.8,581.53,72,575.52Z"/><path d="M153.28,540.34c0-26.05,20.29-45.33,47.95-45.33s48,19.16,48,45.33-20.41,45.32-48,45.32S153.28,566.38,153.28,540.34Zm75.37,0c0-16.66-11.77-28.05-27.42-28.05s-27.41,11.39-27.41,28.05,11.77,28,27.41,28S228.65,557,228.65,540.34Z"/><path d="M344.83,496.52v87.63H328.18L284.49,531v53.2h-20V496.52h16.77l43.57,53.2v-53.2Z"/><path d="M433,549.72,421.2,562v22.16H401V496.52H421.2v40.94L460,496.52h22.54l-36.31,39.06,38.44,48.57H461Z"/><path d="M561.54,567.88v16.27H493.69V496.52h66.23v16.27H513.84v19h40.69V547.6H513.84v20.28Z"/><path d="M657.44,584.15l-.12-52.58-25.79,43.32h-9.14L596.72,532.7v51.45h-19V496.52h16.78L627.27,551l32.3-54.46h16.65l.25,87.63Z"/><path d="M812.43,584.15l-.12-52.58-25.79,43.32h-9.14L751.71,532.7v51.45h-19V496.52h16.78L782.26,551l32.3-54.46h16.65l.25,87.63Z"/><path d="M910,565.38H869.27l-7.76,18.77H840.72l39.06-87.63h20L939,584.15H917.72ZM903.57,550l-13.89-33.56L875.78,550Zm-9.89-60.6H878.41l16.9-18h21Z"/><path d="M1064,496.52v87.63h-20.29V548.22h-39.81v35.93H983.57V496.52h20.28v34.55h39.81V496.52Z"/><path d="M1175.12,540.34c0,26.16-20.41,45.32-47.95,45.32s-48-19.28-48-45.32,20.28-45.33,48-45.33S1175.12,514.17,1175.12,540.34Zm-20.53,0c0-16.66-11.77-28.05-27.42-28.05s-27.42,11.39-27.42,28.05,11.77,28,27.42,28S1154.59,557,1154.59,540.34Zm-38.19-51H1102l16.66-14.27h17l16.65,14.27h-14.39l-10.77-7.14Zm33.31-12-19.66-15.15H1150l13.77,15.15Z"/><path d="M1270.77,496.52v87.63h-16.65l-43.7-53.2v53.2h-20V496.52h16.78l43.57,53.2v-53.2Z"/><path d="M1350.77,539h18.53v35.55c-9.64,7.27-22.91,11.15-35.43,11.15-27.55,0-47.83-18.91-47.83-45.32s20.28-45.33,48.2-45.33c15.4,0,28.17,5.26,36.69,15.15l-13,12a29.65,29.65,0,0,0-22.66-9.89c-17,0-28.67,11.39-28.67,28.05,0,16.4,11.65,28,28.42,28a32.17,32.17,0,0,0,15.78-3.76Z"/><path d="M1503.25,584.15l-.12-52.58-25.79,43.32h-9.14l-25.67-42.19v51.45h-19V496.52h16.78l32.8,54.46,32.3-54.46H1522l.25,87.63Z"/><path d="M1543.06,496.52h20.29v87.63h-20.29Z"/><path d="M1664.5,496.52v87.63h-16.65L1604.16,531v53.2h-20V496.52h16.77l43.57,53.2v-53.2Z"/><path d="M1685.28,496.52h20.29v87.63h-20.29Z"/><path d="M71.55,637.7c0-13,10-22.55,23.38-22.55,6.8,0,12.72,2.33,16.76,6.86l-4.1,4a16.34,16.34,0,0,0-12.41-5.23c-10,0-17.33,7.19-17.33,17s7.37,16.95,17.33,16.95a16.4,16.4,0,0,0,12.41-5.29l4.1,4c-4,4.53-10,6.93-16.83,6.93C81.51,660.26,71.55,650.74,71.55,637.7Z"/><path d="M147.72,648.73H124.28l-4.85,11h-6.49l20-44.1h6.24l20,44.1h-6.62Zm-2.2-5L136,622.08l-9.51,21.61Z"/><path d="M172.29,621.13H157.17v-5.48h36.48v5.48H178.53v38.62h-6.24Z"/><path d="M238.44,615.65v44.1h-6.3V640.1H206.81v19.65h-6.3v-44.1h6.3v19h25.33v-19Z"/><path d="M268.55,644.51v15.24h-6.23V644.38L244.8,615.65h6.74l14.12,23.25,14.17-23.25h6.24Z"/><path d="M309.38,615.65H328c14.18,0,23.82,9,23.82,22.05s-9.64,22-23.82,22H309.38Zm18.2,38.62c10.9,0,17.9-6.68,17.9-16.57s-7-16.57-17.9-16.57h-11.9v33.14Z"/><path d="M357.82,637.7c0-12.91,10-22.55,23.5-22.55s23.38,9.57,23.38,22.55-10,22.56-23.38,22.56S357.82,650.62,357.82,637.7Zm40.58,0c0-9.76-7.31-17-17.08-17s-17.2,7.19-17.2,17,7.31,16.95,17.2,16.95S398.4,647.47,398.4,637.7Z"/><path d="M414.33,615.65h6.3v38.62h23.88v5.48H414.33Z"/><path d="M451.75,615.65h6.3v38.62h23.88v5.48H451.75Z"/><path d="M544.05,647.85c0,7.56-5.73,11.9-16.88,11.9h-21v-44.1h19.79c10.14,0,15.81,4.29,15.81,11.4a10.46,10.46,0,0,1-5.92,9.83C540.77,638.27,544.05,642,544.05,647.85Zm-31.63-27.1v14.12h12.92c6.43,0,10.08-2.4,10.08-7.06s-3.65-7.06-10.08-7.06Zm25.27,26.59c0-5.1-3.78-7.37-10.78-7.37H512.42v14.68h14.49C533.91,654.65,537.69,652.45,537.69,647.34Z"/><path d="M585.82,654.27v5.48h-32v-44.1h31.13v5.48H560.11v13.55h22.12V640H560.11v14.24Z"/><path d="M624.12,648.73H600.69l-4.86,11h-6.49l20-44.1h6.23l20,44.1H629Zm-2.2-5-9.52-21.61-9.51,21.61Z"/><path d="M640.82,640.73V615.65h6.3v24.82c0,9.77,4.47,14.18,12.41,14.18S672,650.24,672,640.47V615.65h6.11v25.08c0,12.79-7,19.53-18.65,19.53S640.82,653.52,640.82,640.73Z"/><path d="M699,621.13H683.84v-5.48h36.48v5.48H705.2v38.62H699Z"/><path d="M743.57,644.51v15.24h-6.24V644.38l-17.51-28.73h6.74l14.11,23.25,14.18-23.25h6.23Z"/><path d="M793.15,621.13H778v-5.48h36.48v5.48H799.39v38.62h-6.24Z"/><path d="M817.15,637.7c0-12.91,10-22.55,23.5-22.55S864,624.72,864,637.7s-10,22.56-23.38,22.56S817.15,650.62,817.15,637.7Zm40.58,0c0-9.76-7.31-17-17.08-17s-17.2,7.19-17.2,17,7.31,16.95,17.2,16.95S857.73,647.47,857.73,637.7Z"/><path d="M921.17,637.45h6v17.2c-4.41,3.72-10.52,5.61-16.69,5.61-13.55,0-23.5-9.52-23.5-22.56s10-22.55,23.62-22.55c7,0,12.92,2.33,17,6.8l-3.9,3.91a17.5,17.5,0,0,0-12.79-5.11c-10.21,0-17.58,7.12-17.58,17s7.37,16.95,17.51,16.95a18.73,18.73,0,0,0,10.34-2.83Z"/><path d="M935.65,637.7c0-12.91,10-22.55,23.5-22.55s23.38,9.57,23.38,22.55-10,22.56-23.38,22.56S935.65,650.62,935.65,637.7Zm40.58,0c0-9.76-7.31-17-17.08-17s-17.2,7.19-17.2,17,7.31,16.95,17.2,16.95S976.23,647.47,976.23,637.7Z"/><path d="M1009.11,615.65h6.3v38.62h23.88v5.48h-30.18Z"/><path d="M1046.53,615.65h6.3v44.1h-6.3Z"/><path d="M1101.66,631c0,9.58-6.93,15.38-18.4,15.38h-10.9v13.35h-6.3v-44.1h17.2C1094.73,615.65,1101.66,621.45,1101.66,631Zm-6.3,0c0-6.3-4.22-9.89-12.29-9.89h-10.71v19.79h10.71C1091.14,640.92,1095.36,637.32,1095.36,631Z"/><path d="M1160.75,660.45l-5.86-5.86a20.62,20.62,0,0,1-14.74,5.67c-9,0-15.44-4.73-15.44-11.47,0-5.42,3.09-9.2,10.71-13.54-4-4-5.29-6.81-5.29-10.08,0-5.93,4.66-9.9,11.91-9.9,6.68,0,11,3.47,11,9.2,0,4.48-2.64,7.69-9.39,11.53l10.9,10.84a27.55,27.55,0,0,0,2.71-8l4.85,1.57a28.73,28.73,0,0,1-3.84,10.08l5.92,5.93Zm-9.45-9.39-12.54-12.47c-6.17,3.46-8.12,6-8.12,9.57,0,4.22,4,7.06,9.89,7.06A15,15,0,0,0,1151.3,651.06Zm-15.56-26c0,2.27.88,3.91,4.47,7.56,5.8-3.28,7.69-5.29,7.69-8.06s-2.08-4.86-5.86-4.86C1138.07,619.68,1135.74,621.89,1135.74,625Z"/><path d="M1185.07,637.7c0-13,10-22.55,23.37-22.55,6.81,0,12.73,2.33,16.76,6.86l-4.1,4a16.34,16.34,0,0,0-12.41-5.23c-10,0-17.32,7.19-17.32,17s7.37,16.95,17.32,16.95a16.4,16.4,0,0,0,12.41-5.29l4.1,4c-4,4.53-10,6.93-16.82,6.93C1195,660.26,1185.07,650.74,1185.07,637.7Z"/><path d="M1272.13,615.65v44.1h-6.3V640.1h-25.32v19.65h-6.3v-44.1h6.3v19h25.32v-19Z"/><path d="M1317.37,654.27v5.48h-32v-44.1h31.13v5.48h-24.83v13.55h22.12V640h-22.12v14.24Z"/><path d="M1359.58,654.27v5.48h-32v-44.1h31.13v5.48h-24.83v13.55H1356V640h-22.12v14.24Z"/><path d="M1384.15,640.16l-8.07,8.19v11.4h-6.3v-44.1h6.3v24.64L1400,615.65h7.19l-18.84,19.85,20,24.25H1401Z"/><path d="M1428.43,637.7c0-13,10-22.55,23.38-22.55,6.8,0,12.72,2.33,16.76,6.86l-4.1,4a16.34,16.34,0,0,0-12.41-5.23c-10,0-17.33,7.19-17.33,17s7.38,16.95,17.33,16.95a16.4,16.4,0,0,0,12.41-5.29l4.1,4c-4,4.53-10,6.93-16.82,6.93C1438.39,660.26,1428.43,650.74,1428.43,637.7Z"/><path d="M1507.06,659.75l-9.51-13.54c-.89.06-1.83.12-2.78.12h-10.9v13.42h-6.3v-44.1h17.2c11.47,0,18.4,5.8,18.4,15.37,0,6.81-3.53,11.72-9.7,13.93l10.46,14.8Zm-.19-28.73c0-6.3-4.22-9.89-12.29-9.89h-10.71V641h10.71C1502.65,641,1506.87,637.32,1506.87,631Z"/><path d="M1555.38,654.27v5.48h-32v-44.1h31.13v5.48h-24.83v13.55h22.12V640h-22.12v14.24Z"/><path d="M1593.68,648.73h-23.43l-4.86,11h-6.48l20-44.1h6.23l20,44.1h-6.62Zm-2.2-5L1582,622.08l-9.51,21.61Z"/><path d="M1652.59,659.75l-.06-32.13-15.94,26.78h-2.9l-15.94-26.59v31.94h-6v-44.1h5.17l18.39,31,18.15-31h5.16l.07,44.1Z"/><path d="M1688.75,644.51v15.24h-6.24V644.38L1665,615.65h6.74l14.11,23.25L1700,615.65h6.23Z"/><path d="M1770.46,659.75l-.06-32.13-15.94,26.78h-2.9l-15.94-26.59v31.94h-6v-44.1h5.17l18.39,31,18.15-31h5.17l.06,44.1Z"/><path d="M1817.83,648.73H1794.4l-4.85,11h-6.49l20-44.1h6.24l20,44.1h-6.61Zm-2.2-5-9.51-21.61-9.52,21.61Z"/><path d="M1842.4,621.13h-15.12v-5.48h36.48v5.48h-15.12v38.62h-6.24Z"/><path d="M1880,621.13h-15.12v-5.48h36.48v5.48h-15.12v38.62H1880Z"/><path d="M1940.24,654.27v5.48h-32v-44.1h31.12v5.48h-24.82v13.55h22.11V640h-22.11v14.24Z"/><g id="_Rectangle_" data-name="&lt;Rectangle&gt;"><rect class="cls-1" x="65.96" y="82.1" width="921" height="272"/></g><path class="cls-2" d="M299.24,229.87a38.88,38.88,0,0,1-3.31,16.3,35.7,35.7,0,0,1-9,12.23A40,40,0,0,1,273.48,266a51.7,51.7,0,0,1-32.62,0,40.06,40.06,0,0,1-13.33-7.62,36,36,0,0,1-9-12.08,37,37,0,0,1-3.32-15.85,43.64,43.64,0,0,1,3.32-17.28,99.85,99.85,0,0,1,8.6-15.77l25.79-38.49h30.61l-26.28,36.53-.46.75a15.94,15.94,0,0,1,3.62-.9,28,28,0,0,1,3.92-.3,36.46,36.46,0,0,1,13.33,2.49,33,33,0,0,1,11.15,7.09,35.15,35.15,0,0,1,7.61,11A34.59,34.59,0,0,1,299.24,229.87Zm-25.2.6a16.63,16.63,0,0,0-4.55-12q-4.56-4.75-12.13-4.76t-12.28,4.68q-4.7,4.68-4.7,12.23a17,17,0,0,0,4.55,11.92q4.55,5,12.28,5,7.57,0,12.2-4.68T274,230.47Z"/><path class="cls-2" d="M396.89,194.25a43.61,43.61,0,0,1-3.32,17.28A99.32,99.32,0,0,1,385,227.3l-25.79,38.49H328.58L355.16,229l.3-.45a18.28,18.28,0,0,1-3.69.91,26.46,26.46,0,0,1-3.84.3,36.3,36.3,0,0,1-13.41-2.49,33.93,33.93,0,0,1-11.15-7.09,34.36,34.36,0,0,1-10.55-25.29,38.76,38.76,0,0,1,3.32-16.3,35.63,35.63,0,0,1,9-12.22,39.85,39.85,0,0,1,13.41-7.62,49.69,49.69,0,0,1,16.27-2.64,50.2,50.2,0,0,1,16.42,2.64,39.09,39.09,0,0,1,13.33,7.62,36.34,36.34,0,0,1,9,12.07A37,37,0,0,1,396.89,194.25Zm-25.2-.3a17.52,17.52,0,0,0-4.48-12q-4.47-5.05-12.2-5.06c-5.16,0-9.27,1.59-12.36,4.76S338,189,338,194.1a16.63,16.63,0,0,0,4.55,12q4.55,4.76,12.13,4.75T367,206.17Q371.69,201.51,371.69,194Z"/><path class="cls-2" d="M427.07,284.51H406.7L418,241.64h23.7Z"/><path class="cls-2" d="M539.52,212.06a99.85,99.85,0,0,1-2.27,21.58,55.09,55.09,0,0,1-7.24,18,37.49,37.49,0,0,1-12.91,12.38q-7.92,4.59-19.24,4.6t-19.32-4.6a38,38,0,0,1-13.05-12.38,53.7,53.7,0,0,1-7.32-18,103.38,103.38,0,0,1,0-43.09,52.21,52.21,0,0,1,7.32-17.81,37.81,37.81,0,0,1,13.05-12.15q8-4.51,19.32-4.52t19.24,4.52A37.29,37.29,0,0,1,530,172.74a53.55,53.55,0,0,1,7.24,17.81A98.86,98.86,0,0,1,539.52,212.06Zm-26,0c0-3.32-.21-7-.61-11a55.25,55.25,0,0,0-2.26-11.24,24.45,24.45,0,0,0-4.76-8.75,10.18,10.18,0,0,0-8.07-3.55,10.41,10.41,0,0,0-8.15,3.55,24.69,24.69,0,0,0-4.91,8.75A52.64,52.64,0,0,0,482.46,201q-.6,6-.6,11,0,5.13.6,11.24a52.63,52.63,0,0,0,2.34,11.32,24.65,24.65,0,0,0,4.91,8.76,10.44,10.44,0,0,0,8.15,3.54,10.2,10.2,0,0,0,8.07-3.54,24.41,24.41,0,0,0,4.76-8.76A55.22,55.22,0,0,0,513,223.3C513.35,219.23,513.56,215.48,513.56,212.06Z"/><path class="cls-2" d="M637,212.06a99.85,99.85,0,0,1-2.26,21.58,55.1,55.1,0,0,1-7.25,18,37.55,37.55,0,0,1-12.9,12.38q-7.92,4.59-19.24,4.6T576,264.06A37.94,37.94,0,0,1,563,251.68a54.11,54.11,0,0,1-7.32-18,103.83,103.83,0,0,1,0-43.09A52.61,52.61,0,0,1,563,172.74,37.75,37.75,0,0,1,576,160.59q8-4.51,19.32-4.52t19.24,4.52a37.35,37.35,0,0,1,12.9,12.15,53.56,53.56,0,0,1,7.25,17.81A98.87,98.87,0,0,1,637,212.06Zm-26,0q0-5-.6-11a55.25,55.25,0,0,0-2.26-11.24,24.45,24.45,0,0,0-4.76-8.75,10.18,10.18,0,0,0-8.07-3.55,10.41,10.41,0,0,0-8.15,3.55,24.54,24.54,0,0,0-4.91,8.75A51.45,51.45,0,0,0,580,201q-.6,6-.6,11,0,5.13.6,11.24a51.45,51.45,0,0,0,2.34,11.32,24.5,24.5,0,0,0,4.91,8.76,10.44,10.44,0,0,0,8.15,3.54,10.2,10.2,0,0,0,8.07-3.54,24.41,24.41,0,0,0,4.76-8.76,55.22,55.22,0,0,0,2.26-11.32Q611.05,217.2,611.05,212.06Z"/><path class="cls-2" d="M734.51,212.06a99.85,99.85,0,0,1-2.26,21.58,55.1,55.1,0,0,1-7.25,18,37.55,37.55,0,0,1-12.9,12.38q-7.92,4.59-19.24,4.6t-19.32-4.6a37.94,37.94,0,0,1-13.06-12.38,54.11,54.11,0,0,1-7.32-18,103.83,103.83,0,0,1,0-43.09,52.61,52.61,0,0,1,7.32-17.81,37.75,37.75,0,0,1,13.06-12.15q8-4.51,19.32-4.52t19.24,4.52A37.35,37.35,0,0,1,725,172.74a53.56,53.56,0,0,1,7.25,17.81A98.87,98.87,0,0,1,734.51,212.06Zm-26,0q0-5-.6-11a55.25,55.25,0,0,0-2.26-11.24,24.45,24.45,0,0,0-4.76-8.75,10.18,10.18,0,0,0-8.07-3.55,10.41,10.41,0,0,0-8.15,3.55,24.54,24.54,0,0,0-4.91,8.75A51.45,51.45,0,0,0,677.46,201q-.6,6-.6,11,0,5.13.6,11.24a51.45,51.45,0,0,0,2.34,11.32,24.5,24.5,0,0,0,4.91,8.76,10.44,10.44,0,0,0,8.15,3.54,10.2,10.2,0,0,0,8.07-3.54,24.41,24.41,0,0,0,4.76-8.76A55.22,55.22,0,0,0,708,223.3Q708.55,217.2,708.55,212.06Z"/><path class="cls-2" d="M808,265.79V256h-.3a23.4,23.4,0,0,1-10.34,8.83,33.69,33.69,0,0,1-14.26,3.09A33.16,33.16,0,0,1,768,264.58a34.53,34.53,0,0,1-11.25-8.83,38.54,38.54,0,0,1-7-12.75,47.41,47.41,0,0,1-2.42-15.09,45.47,45.47,0,0,1,2.49-15,39.09,39.09,0,0,1,7.09-12.6,33.1,33.1,0,0,1,25.89-11.77,28.63,28.63,0,0,1,14,3.17,31,31,0,0,1,8.9,6.94h.3V179.76H783.56V166.33h22.49V151.69H830.8v14.64h7v13.43h-7v86Zm-.9-37.73a20.37,20.37,0,0,0-1.28-7.09,20.08,20.08,0,0,0-3.63-6.19,18,18,0,0,0-5.66-4.38,16.59,16.59,0,0,0-7.54-1.66,17,17,0,0,0-7.7,1.66,17.39,17.39,0,0,0-9,10.41,22.92,22.92,0,0,0-1.13,7.1,23.65,23.65,0,0,0,1.13,7.17,18.35,18.35,0,0,0,3.4,6.26,17.14,17.14,0,0,0,5.58,4.38,17,17,0,0,0,7.7,1.66,16.59,16.59,0,0,0,7.54-1.66,18,18,0,0,0,5.66-4.38,20.08,20.08,0,0,0,3.63-6.19A20.41,20.41,0,0,0,807.11,228.06Z"/></svg>