<?xml version="1.0" encoding="utf-8"?>
<!-- Generator: Adobe Illustrator 22.1.0, SVG Export Plug-In . SVG Version: 6.00 Build 0)  -->
<svg version="1.1" id="Layer_1" xmlns="http://www.w3.org/2000/svg" xmlns:xlink="http://www.w3.org/1999/xlink" x="0px" y="0px"
	 viewBox="0 0 987 441" style="enable-background:new 0 0 987 441;" xml:space="preserve">
<style type="text/css">
	.st0{fill:#C90202;}
	.st1{fill:#FFFFFF;}
</style>
<title>Image convert 3</title>
<path d="M82.7,231.4l-6.1,6.3v9.9h-7.1v-38.5h7.2v19.7l19-19.7h8l-16.1,17.2l17.2,21.3h-8.4L82.7,231.4z"/>
<path d="M138.4,241.6v6h-28.9v-38.5h28.1v6h-21v10h18.6v5.9h-18.5v10.6L138.4,241.6z"/>
<path d="M181.8,247.6l-0.1-25.6l-12.6,21.1h-3.2l-12.6-20.8v25.2h-6.8v-38.5h5.9l15.3,25.5l15-25.5h5.9l0.1,38.5H181.8z"/>
<path d="M248.3,209.1v38.5h-5.9l-21.2-26.1v26.1h-7.1v-38.5h5.9l21.2,26.1v-26.1H248.3z"/>
<path d="M287.5,241.6v6h-28.9v-38.5h28.1v6h-21v10h18.6v5.9h-18.6v10.6L287.5,241.6z M268,205.9h-5.7l7.5-5.9h6.2l7.4,5.9h-5.7
	l-4.8-3L268,205.9z M282,200.9l-8.4-6.4h7.4l6.3,6.4H282z"/>
<path d="M329.7,209.1v38.5h-5.9l-21.2-26.1v26.1h-7.1v-38.5h5.9l21.2,26.1v-26.1H329.7z"/>
<path d="M352.5,228.3c0-11.5,8.8-19.8,20.6-19.8c6.3,0,11.7,2.3,15.2,6.4l-4.6,4.3c-2.6-2.9-6.4-4.6-10.3-4.5
	c-8,0-13.8,5.6-13.8,13.5c0,7.9,5.8,13.5,13.8,13.5c3.9,0.1,7.7-1.6,10.3-4.6l4.6,4.4c-3.6,4.2-9,6.4-15.3,6.4
	C361.3,248.1,352.5,239.8,352.5,228.3z"/>
<path d="M419.4,238.6h-19.2l-3.8,8.9H389l17.3-38.5h7l17.4,38.5h-7.5L419.4,238.6z M417,233l-7.3-16.8l-7.2,16.8H417z"/>
<path d="M441.5,215.1h-12.8v-6h32.7v6h-12.8v32.4h-7.1V215.1z"/>
<path d="M501,209.1v38.5h-7.1v-16.5H474v16.5h-7.2v-38.5h7.2V225h19.9v-15.9H501z"/>
<path d="M528,234v13.6h-7.2v-13.5l-15.1-25h7.7l11.2,18.7l11.4-18.8h7L528,234z"/>
<path d="M562.9,209.1h16.8c12.5,0,21,7.7,21,19.2s-8.5,19.2-21,19.2h-16.8V209.1z M579.4,241.5c8.6,0,14.1-5.2,14.1-13.2
	s-5.5-13.2-14.1-13.2H570v26.4L579.4,241.5z"/>
<path d="M605.6,228.3c0-11.4,8.8-19.8,20.7-19.8s20.7,8.4,20.7,19.8s-8.8,19.8-20.7,19.8S605.6,239.7,605.6,228.3z M639.8,228.3
	c0-7.5-6.1-13.5-13.5-13.5c-7.5,0-13.5,6.1-13.5,13.5c0,7.5,6.1,13.5,13.5,13.5c7.2,0.2,13.3-5.5,13.5-12.7
	C639.8,228.9,639.8,228.6,639.8,228.3z"/>
<path d="M654.6,209.1h7.2v32.4h20.1v6h-27.3V209.1z"/>
<path d="M687.6,209.1h7.2v32.4h20.1v6h-27.3V209.1z"/>
<path d="M732.5,243.5l2.5-5.6c3.7,2.7,8.1,4.2,12.7,4.2c6,0,8.5-2.2,8.5-5c0-8.3-22.9-2.9-22.9-17.2c0-6.2,5-11.5,15.5-11.5
	c4.5-0.1,8.9,1.1,12.8,3.4l-2.2,5.6c-3.2-1.9-6.9-2.9-10.6-3c-5.9,0-8.3,2.3-8.3,5.2c0,8.2,22.8,2.9,22.8,17c0,6.2-5,11.4-15.6,11.4
	C741.6,248.1,735.6,246.2,732.5,243.5z"/>
<path d="M802.5,222.8c0,8.5-6.3,13.7-16.4,13.7h-8.7v11.1h-7.1v-38.5h15.8C796.2,209.1,802.5,214.2,802.5,222.8z M795.3,222.8
	c0-4.8-3.2-7.6-9.5-7.6h-8.4v15.3h8.4C792.1,230.4,795.3,227.6,795.3,222.8z"/>
<path d="M838.5,241.6v6h-28.9v-38.5h28.1v6h-21v10h18.6v5.9h-18.6v10.6L838.5,241.6z"/>
<path d="M875.4,241.6v6h-28.9v-38.5h28.1v6h-21v10h18.6v5.9h-18.5v10.6L875.4,241.6z"/>
<path d="M883.4,209.1h16.8c12.5,0,21,7.7,21,19.2s-8.5,19.2-21,19.2h-16.8V209.1z M899.9,241.5c8.6,0,14.1-5.2,14.1-13.2
	s-5.6-13.2-14.1-13.2h-9.3v26.4L899.9,241.5z"/>
<path d="M125.7,275.1L113,313.6h-7.6l-9.5-28.5l-9.7,28.5h-7.6l-12.8-38.5h7.4l9.6,29.3l10-29.3h6.6l9.7,29.4l9.8-29.4H125.7z"/>
<path d="M165.8,275.1v38.5h-7.1v-16.5h-19.9v16.5h-7.1v-38.5h7.1V291h19.9v-15.9H165.8z"/>
<path d="M176.1,275.1h7.1v38.5h-7.1V275.1z"/>
<path d="M201.5,281.1h-12.8v-6h32.7v6h-12.8v32.5h-7.1L201.5,281.1z"/>
<path d="M255.6,307.6v6h-28.9v-38.5h28.1v6h-21v10h18.6v5.9h-18.6v10.6L255.6,307.6z"/>
<path d="M276.1,294.3c0-11.5,8.8-19.8,20.6-19.8c6.3,0,11.7,2.3,15.2,6.4l-4.6,4.3c-2.6-2.9-6.4-4.6-10.3-4.5
	c-8,0-13.8,5.6-13.8,13.5s5.8,13.5,13.8,13.5c3.9,0.1,7.7-1.6,10.3-4.6l4.6,4.4c-3.6,4.2-9,6.4-15.3,6.4
	C284.9,314.1,276.1,305.8,276.1,294.3z"/>
<path d="M315.2,294.3c0-11.5,8.8-19.8,20.6-19.8c6.3,0,11.7,2.3,15.2,6.4l-4.6,4.3c-2.6-2.9-6.4-4.6-10.3-4.5
	c-8,0-13.8,5.6-13.8,13.5s5.8,13.5,13.8,13.5c3.9,0.1,7.7-1.6,10.3-4.6l4.6,4.4c-3.6,4.2-9,6.4-15.3,6.4
	C324,314.1,315.2,305.8,315.2,294.3z"/>
<path d="M370.4,294.3c0-11.5,8.8-19.8,20.6-19.8c6.3,0,11.6,2.3,15.2,6.4l-4.6,4.3c-2.6-2.9-6.4-4.6-10.3-4.5
	c-8,0-13.8,5.6-13.8,13.5s5.8,13.5,13.8,13.5c3.9,0.1,7.7-1.6,10.3-4.6l4.6,4.4c-3.6,4.2-9,6.4-15.3,6.4
	C379.2,314.1,370.4,305.8,370.4,294.3z"/>
<path d="M438.3,313.6l-7.9-11.3c-0.5,0-1,0.1-1.5,0.1h-8.7v11.2h-7.1v-38.5H429c10.1,0,16.4,5.2,16.4,13.7
	c0.2,5.4-3.1,10.3-8.2,12.2l8.8,12.6H438.3z M428.6,281.1h-8.4v15.3h8.4c6.3,0,9.5-2.9,9.5-7.7S434.9,281.1,428.6,281.1L428.6,281.1
	z"/>
<path d="M482.2,307.6v6h-28.9v-38.5h28.1v6h-21v10h18.6v5.9h-18.6v10.6L482.2,307.6z"/>
<path d="M515.1,304.6h-19.2l-3.8,8.9h-7.4l17.3-38.5h7l17.4,38.5H519L515.1,304.6z M512.8,299l-7.2-16.8l-7.2,16.8H512.8z"/>
<path d="M566.7,313.6l-0.1-25.6L554,309.2h-3.2l-12.6-20.8v25.2h-6.8v-38.5h5.9l15.3,25.5l15-25.5h5.9v38.5H566.7z"/>
<path d="M595.8,309.5l2.5-5.6c3.7,2.7,8.1,4.2,12.7,4.2c6,0,8.5-2.1,8.5-5c0-8.3-22.9-2.9-22.9-17.1c0-6.2,5-11.5,15.5-11.5
	c4.5-0.1,9,1.1,12.8,3.4l-2.2,5.6c-3.2-1.9-6.9-2.9-10.6-3c-5.9,0-8.3,2.3-8.3,5.2c0,8.2,22.8,2.9,22.8,17c0,6.2-5,11.4-15.6,11.4
	C605,314.1,599,312.2,595.8,309.5z"/>
<path d="M665.9,288.8c0,8.5-6.3,13.7-16.4,13.7h-8.7v11.1h-7.1v-38.5h15.8C659.6,275.1,665.9,280.2,665.9,288.8z M658.7,288.8
	c0-4.8-3.2-7.6-9.5-7.6h-8.4v15.3h8.4C655.4,296.4,658.7,293.6,658.7,288.8z"/>
<path d="M680.2,281.1v11.7h18.6v6h-18.6v14.7H673V275h28.1v6L680.2,281.1z"/>
<path d="M748.5,301.7c0,6.8-4.9,12.4-15.2,12.4c-5.5,0-11-1.6-14.5-4.5l3-5.6c3.2,2.5,7.2,3.8,11.3,3.8c5.1,0,8.1-2.2,8.1-5.9
	s-2.4-6-10.3-6h-9.3l2-20.9h22.6v6h-16.6l-0.8,8.9h3.7C743.9,290,748.5,294.9,748.5,301.7z"/>
<path d="M752.6,294.3c0-12.6,6.9-19.8,16.1-19.8s16.1,7.1,16.1,19.8s-6.9,19.8-16.1,19.8S752.6,307,752.6,294.3z M777.6,294.3
	c0-9.3-3.6-13.6-8.9-13.6s-8.9,4.3-8.9,13.6s3.6,13.6,8.9,13.6S777.6,303.6,777.6,294.3L777.6,294.3z"/>
<path d="M101.7,354.8c0,8.5-6.3,13.7-16.4,13.7h-8.7v11.1h-7.1v-38.5h15.8C95.4,341.1,101.7,346.2,101.7,354.8z M94.5,354.8
	c0-4.8-3.2-7.6-9.5-7.6h-8.4v15.3H85C91.3,362.4,94.5,359.6,94.5,354.8z"/>
<path d="M131.9,370.6h-19.2l-3.8,8.9h-7.4l17.3-38.5h7l17.4,38.5h-7.5L131.9,370.6z M129.5,365l-7.3-16.8l-7.2,16.8H129.5z"/>
<path d="M170.8,363.1h-9.7v9.6h-5.9v-9.6h-9.7v-5.5h9.7v-9.6h5.9v9.6h9.7V363.1z"/>
<path d="M203.5,363.1h-9.7v9.6h-5.9v-9.6h-9.7v-5.5h9.7v-9.6h5.9v9.6h9.7V363.1z"/>
<path d="M236.2,363.1h-9.7v9.6h-5.9v-9.6h-9.7v-5.5h9.7v-9.6h5.9v9.6h9.7V363.1z"/>
<g id="_Rectangle_">
	<rect x="67.2" y="34.8" class="st0" width="383" height="113.1"/>
</g>
<g>
	<path class="st1" d="M108.8,113.4V77.2l-9.2,7.1l-6-8.3l16.2-11.9h10.6v49.2H108.8z"/>
	<path class="st1" d="M175.8,80.4c0,2.9-0.5,5.6-1.5,8c-1,2.4-2.3,4.8-4,7.3l-11.9,17.7h-14.1l12.2-17l0.1-0.2
		c-0.5,0.2-1.1,0.3-1.7,0.4c-0.6,0.1-1.2,0.1-1.8,0.1c-2.2,0-4.2-0.4-6.2-1.1s-3.7-1.9-5.1-3.3c-1.5-1.4-2.7-3.1-3.5-5.1
		c-0.9-2-1.3-4.2-1.3-6.6c0-2.8,0.5-5.3,1.5-7.5c1-2.2,2.4-4.1,4.2-5.6c1.8-1.5,3.8-2.7,6.2-3.5c2.4-0.8,4.9-1.2,7.5-1.2
		c2.7,0,5.2,0.4,7.6,1.2c2.4,0.8,4.4,2,6.1,3.5c1.7,1.5,3.1,3.4,4.1,5.6C175.3,75.3,175.8,77.7,175.8,80.4z M164.2,80.3
		c0-2.1-0.7-4-2.1-5.5c-1.4-1.6-3.2-2.3-5.6-2.3s-4.3,0.7-5.7,2.2c-1.4,1.5-2.1,3.4-2.1,5.7c0,2.2,0.7,4.1,2.1,5.5s3.3,2.2,5.6,2.2
		c2.3,0,4.2-0.7,5.7-2.2C163.5,84.5,164.2,82.6,164.2,80.3z"/>
	<path class="st1" d="M220.7,80.4c0,2.9-0.5,5.6-1.5,8c-1,2.4-2.3,4.8-4,7.3l-11.9,17.7h-14.1l12.2-17l0.1-0.2
		c-0.5,0.2-1.1,0.3-1.7,0.4c-0.6,0.1-1.2,0.1-1.8,0.1c-2.2,0-4.2-0.4-6.2-1.1s-3.7-1.9-5.1-3.3c-1.5-1.4-2.7-3.1-3.5-5.1
		c-0.9-2-1.3-4.2-1.3-6.6c0-2.8,0.5-5.3,1.5-7.5c1-2.2,2.4-4.1,4.2-5.6c1.8-1.5,3.8-2.7,6.2-3.5c2.4-0.8,4.9-1.2,7.5-1.2
		c2.7,0,5.2,0.4,7.6,1.2c2.4,0.8,4.4,2,6.1,3.5c1.7,1.5,3.1,3.4,4.1,5.6C220.2,75.3,220.7,77.7,220.7,80.4z M209.1,80.3
		c0-2.1-0.7-4-2.1-5.5c-1.4-1.6-3.2-2.3-5.6-2.3s-4.3,0.7-5.7,2.2c-1.4,1.5-2.1,3.4-2.1,5.7c0,2.2,0.7,4.1,2.1,5.5s3.3,2.2,5.6,2.2
		c2.3,0,4.2-0.7,5.7-2.2C208.4,84.5,209.1,82.6,209.1,80.3z"/>
	<path class="st1" d="M234.6,122h-9.4l5.2-19.7h10.9L234.6,122z"/>
	<path class="st1" d="M286.4,88.6c0,3.5-0.3,6.8-1,9.9c-0.7,3.2-1.8,5.9-3.3,8.3c-1.5,2.4-3.5,4.3-5.9,5.7c-2.4,1.4-5.4,2.1-8.9,2.1
		s-6.4-0.7-8.9-2.1c-2.5-1.4-4.5-3.3-6-5.7c-1.6-2.4-2.7-5.2-3.4-8.3c-0.7-3.2-1-6.5-1-9.9s0.3-6.8,1-9.9s1.8-5.9,3.4-8.2
		c1.6-2.3,3.6-4.2,6-5.6c2.5-1.4,5.4-2.1,8.9-2.1s6.4,0.7,8.9,2.1c2.4,1.4,4.4,3.3,5.9,5.6c1.5,2.3,2.6,5.1,3.3,8.2
		C286.1,81.8,286.4,85.1,286.4,88.6z M274.5,88.6c0-1.5-0.1-3.2-0.3-5.1c-0.2-1.9-0.5-3.6-1-5.2c-0.5-1.6-1.2-2.9-2.2-4
		c-1-1.1-2.2-1.6-3.7-1.6s-2.8,0.5-3.8,1.6c-1,1.1-1.7,2.4-2.3,4c-0.5,1.6-0.9,3.3-1.1,5.2c-0.2,1.9-0.3,3.5-0.3,5.1
		c0,1.6,0.1,3.3,0.3,5.2c0.2,1.9,0.5,3.6,1.1,5.2c0.5,1.6,1.3,2.9,2.3,4c1,1.1,2.2,1.6,3.8,1.6s2.8-0.5,3.7-1.6
		c0.9-1.1,1.7-2.4,2.2-4c0.5-1.6,0.9-3.3,1-5.2C274.4,91.9,274.5,90.2,274.5,88.6z"/>
	<path class="st1" d="M331.3,88.6c0,3.5-0.3,6.8-1,9.9c-0.7,3.2-1.8,5.9-3.3,8.3c-1.5,2.4-3.5,4.3-5.9,5.7c-2.4,1.4-5.4,2.1-8.9,2.1
		s-6.4-0.7-8.9-2.1c-2.5-1.4-4.5-3.3-6-5.7c-1.6-2.4-2.7-5.2-3.4-8.3c-0.7-3.2-1-6.5-1-9.9s0.3-6.8,1-9.9s1.8-5.9,3.4-8.2
		c1.6-2.3,3.6-4.2,6-5.6c2.5-1.4,5.4-2.1,8.9-2.1s6.4,0.7,8.9,2.1c2.4,1.4,4.4,3.3,5.9,5.6c1.5,2.3,2.6,5.1,3.3,8.2
		C331,81.8,331.3,85.1,331.3,88.6z M319.4,88.6c0-1.5-0.1-3.2-0.3-5.1c-0.2-1.9-0.5-3.6-1-5.2c-0.5-1.6-1.2-2.9-2.2-4
		c-1-1.1-2.2-1.6-3.7-1.6s-2.8,0.5-3.8,1.6c-1,1.1-1.7,2.4-2.3,4c-0.5,1.6-0.9,3.3-1.1,5.2c-0.2,1.9-0.3,3.5-0.3,5.1
		c0,1.6,0.1,3.3,0.3,5.2c0.2,1.9,0.5,3.6,1.1,5.2c0.5,1.6,1.3,2.9,2.3,4c1,1.1,2.2,1.6,3.8,1.6s2.8-0.5,3.7-1.6
		c0.9-1.1,1.7-2.4,2.2-4c0.5-1.6,0.9-3.3,1-5.2C319.3,91.9,319.4,90.2,319.4,88.6z"/>
	<path class="st1" d="M376.2,88.6c0,3.5-0.3,6.8-1,9.9c-0.7,3.2-1.8,5.9-3.3,8.3c-1.5,2.4-3.5,4.3-5.9,5.7c-2.4,1.4-5.4,2.1-8.9,2.1
		s-6.4-0.7-8.9-2.1c-2.5-1.4-4.5-3.3-6-5.7c-1.6-2.4-2.7-5.2-3.4-8.3c-0.7-3.2-1-6.5-1-9.9s0.3-6.8,1-9.9s1.8-5.9,3.4-8.2
		c1.6-2.3,3.6-4.2,6-5.6c2.5-1.4,5.4-2.1,8.9-2.1s6.4,0.7,8.9,2.1c2.4,1.4,4.4,3.3,5.9,5.6c1.5,2.3,2.6,5.1,3.3,8.2
		C375.9,81.8,376.2,85.1,376.2,88.6z M364.3,88.6c0-1.5-0.1-3.2-0.3-5.1c-0.2-1.9-0.5-3.6-1-5.2c-0.5-1.6-1.2-2.9-2.2-4
		c-1-1.1-2.2-1.6-3.7-1.6s-2.8,0.5-3.8,1.6c-1,1.1-1.7,2.4-2.3,4c-0.5,1.6-0.9,3.3-1.1,5.2c-0.2,1.9-0.3,3.5-0.3,5.1
		c0,1.6,0.1,3.3,0.3,5.2c0.2,1.9,0.5,3.6,1.1,5.2c0.5,1.6,1.3,2.9,2.3,4c1,1.1,2.2,1.6,3.8,1.6s2.8-0.5,3.7-1.6
		c0.9-1.1,1.7-2.4,2.2-4c0.5-1.6,0.9-3.3,1-5.2C364.2,91.9,364.3,90.2,364.3,88.6z"/>
	<path class="st1" d="M410.1,113.4v-4.5H410c-1.1,1.8-2.7,3.1-4.8,4.1c-2.1,0.9-4.3,1.4-6.6,1.4c-2.6,0-4.9-0.5-7-1.5
		c-2-1-3.8-2.4-5.2-4.1c-1.4-1.7-2.5-3.6-3.2-5.9c-0.7-2.2-1.1-4.5-1.1-7c0-2.4,0.4-4.7,1.1-6.9c0.8-2.2,1.9-4.1,3.3-5.8
		c1.4-1.7,3.1-3,5.1-4c2-1,4.3-1.5,6.8-1.5c2.5,0,4.7,0.5,6.5,1.5c1.8,1,3.1,2,4.1,3.2h0.1v-8.7h-10.4v-6.2h10.4v-6.7h11.4v6.7h3.2
		v6.2h-3.2v39.6H410.1z M409.7,96c0-1.1-0.2-2.2-0.6-3.3c-0.4-1.1-1-2-1.7-2.9c-0.7-0.8-1.6-1.5-2.6-2c-1-0.5-2.2-0.8-3.5-0.8
		c-1.3,0-2.5,0.3-3.5,0.8c-1,0.5-1.9,1.2-2.6,2c-0.7,0.8-1.2,1.8-1.6,2.8c-0.3,1.1-0.5,2.2-0.5,3.3s0.2,2.2,0.5,3.3
		c0.3,1.1,0.9,2.1,1.6,2.9c0.7,0.8,1.6,1.5,2.6,2c1,0.5,2.2,0.8,3.5,0.8c1.3,0,2.5-0.3,3.5-0.8c1-0.5,1.9-1.2,2.6-2
		c0.7-0.8,1.3-1.8,1.7-2.9C409.5,98.2,409.7,97.1,409.7,96z"/>
</g>
</svg>
