<?xml version="1.0" encoding="utf-8"?>
<!-- Generator: Adobe Illustrator 22.1.0, SVG Export Plug-In . SVG Version: 6.00 Build 0)  -->
<svg version="1.1" id="Layer_1" xmlns="http://www.w3.org/2000/svg" xmlns:xlink="http://www.w3.org/1999/xlink" x="0px" y="0px"
	 viewBox="0 0 1188 479" style="enable-background:new 0 0 1188 479;" xml:space="preserve">
<style type="text/css">
	.st0{fill:#C90202;}
	.st1{fill:#FFFFFF;}
</style>
<title>Image convert makeup convert</title>
<path d="M70.9,197.5c0-12.4,9.5-21.3,22.4-21.3c7.1,0,13.1,2.6,16.9,7.3l-6.1,5.6c-2.5-3.1-6.3-4.9-10.3-4.8
	c-7.7,0-13.2,5.4-13.2,13.2c0,7.8,5.5,13.2,13.2,13.2c4,0,7.8-1.8,10.3-4.9l6.1,5.6c-3.9,4.8-9.8,7.4-17,7.4
	C80.4,218.8,70.9,210,70.9,197.5z"/>
<path d="M113.2,197.5c0-12.2,9.5-21.3,22.5-21.3s22.5,9,22.5,21.3c0,12.3-9.6,21.3-22.5,21.3S113.2,209.8,113.2,197.5z M148.6,197.5
	c0-7.8-5.6-13.2-12.9-13.2c-7.3,0-12.9,5.4-12.9,13.2c0,7.8,5.6,13.2,12.9,13.2S148.6,205.4,148.6,197.5L148.6,197.5z M131.6,226.6
	c0-2.3,1.8-4.1,4.1-4.1c2.3,0,4.1,1.8,4.1,4.1c0,2.2-1.8,4.1-4.1,4.1S131.6,228.8,131.6,226.6L131.6,226.6z"/>
<path d="M221.7,176.9l-17.8,41.2h-9.4l-17.8-41.2h10.3l12.5,29.4l12.7-29.4H221.7z"/>
<path d="M257,210.5v7.7h-31.9v-41.2h31.1v7.7h-21.7v8.9h19.1v7.4h-19.1v9.5L257,210.5z M234,173.4h-4.6c0.1-5.2,2.8-8.6,6.9-8.6
	s6.1,3.8,8.2,3.8c1.6,0,2.7-1.2,2.8-3.2h4.6c-0.1,5.1-2.8,8.4-6.9,8.4c-4.1,0-6.1-3.7-8.2-3.7C235.3,170.1,234.1,171.2,234,173.4z"
	/>
<path d="M278.6,197.5c0-12.4,9.5-21.3,22.4-21.3c7.2,0,13.1,2.6,17,7.3l-6.1,5.6c-2.5-3.1-6.3-4.9-10.3-4.8
	c-7.7,0-13.2,5.4-13.2,13.2c0,7.8,5.5,13.2,13.2,13.2c4,0,7.8-1.8,10.3-4.9l6.1,5.6c-3.9,4.8-9.8,7.4-17,7.4
	C288.2,218.8,278.6,210,278.6,197.5z"/>
<path d="M362.1,176.9v41.2h-9.5v-16.9h-18.7v16.9h-9.5v-41.2h9.5v16.2h18.7v-16.2H362.1z"/>
<path d="M399,209.3h-19.1l-3.7,8.8h-9.8l18.4-41.2h9.4l18.4,41.2h-10L399,209.3z M384.4,173.6h-6.7l7.8-8.5h8.1l7.8,8.5h-6.7
	l-5.1-4.5L384.4,173.6z M396,202.1l-6.5-15.8l-6.5,15.8H396z"/>
<path d="M454.8,176.9v41.2h-7.8l-20.5-25v25H417v-41.2h7.9l20.5,25v-25H454.8z"/>
<path d="M518.7,218.1l-0.1-24.7l-12.1,20.4h-4.3L490.1,194v24.2h-8.9v-41.2h7.9l15.4,25.6l15.2-25.6h7.8l0.1,41.2H518.7z"/>
<path d="M564.5,209.3h-19.2l-3.7,8.8H532l18.4-41.2h9.4l18.4,41.2h-10L564.5,209.3z M553.2,173.6l-10.6-8.5h9.9l8,8.5H553.2z
	 M561.5,202.1l-6.5-15.8l-6.5,15.8H561.5z"/>
<path d="M599.7,203.5v14.6h-9.5v-14.7l-15.9-26.5h10.1l11,18.3l11-18.3h9.4L599.7,203.5z"/>
<path d="M672.1,191.9c0,9.2-6.9,14.9-17.9,14.9h-8.3v11.4h-9.5v-41.2h17.8C665.2,176.9,672.1,182.7,672.1,191.9z M662.4,191.9
	c0-4.5-2.9-7.2-8.7-7.2h-7.8v14.3h7.8C659.5,199,662.4,196.4,662.4,191.9z"/>
<path d="M716.6,176.9v41.2h-9.5v-16.9h-18.7v16.9h-9.5v-41.2h9.5v16.2h18.7v-16.2H716.6z"/>
<path d="M753.5,209.3h-19.1l-3.7,8.8H721l18.4-41.2h9.4l18.5,41.2h-10L753.5,209.3z M739,173.6h-6.8l7.8-6.7h8l7.8,6.7h-6.8
	l-5.1-3.4L739,173.6z M750.5,202.1l-6.5-15.8l-6.5,15.8H750.5z M749.9,163.4l-1.5-2.8c1.5-0.9,3.2-1.3,4.9-1.3
	c3.3,0,5.4,1.8,5.4,4.6c0,2.4-1.8,4.2-4.1,5.1l-2.2-2.2c1.6-0.8,2.2-1.7,2.2-2.5c0-1.1-0.8-1.7-2-1.7
	C751.5,162.7,750.7,163,749.9,163.4z"/>
<path d="M788.7,203.5v14.6h-9.5v-14.7l-15.9-26.5h10.1l11,18.3l11-18.3h9.4L788.7,203.5z"/>
<path d="M822.1,214.1l3.2-7.2c4,2.8,8.7,4.3,13.6,4.3c5.7,0,8-1.9,8-4.4c0-7.7-24-2.4-24-17.7c0-7,5.7-12.8,17.4-12.8
	c5.2,0,10.5,1.2,14.3,3.7l-2.9,7.2c-3.5-2-7.4-3.2-11.4-3.2c-5.6,0-7.8,2.1-7.8,4.7c0,7.6,24,2.4,24,17.5c0,6.9-5.7,12.8-17.5,12.8
	C832.4,218.8,825.8,216.9,822.1,214.1z"/>
<path d="M905.4,197.5c0,12.3-9.6,21.3-22.5,21.3c-12.9,0-22.5-9.1-22.5-21.3c0-12.2,9.6-21.3,23-21.3c4.4,0,7.8,0.8,10.8,0.8
	c2.9,0,4.8-1.4,4.8-3.9c0-1.3-0.4-2.5-1.2-3.5l5.4-2c1.2,1.7,1.9,3.8,1.9,5.9c0,4.4-2.4,7.3-6.5,8.5
	C903,185.9,905.5,191.6,905.4,197.5z M895.7,197.5c0-7.8-5.6-13.2-12.9-13.2c-7.3,0-12.9,5.4-12.9,13.2c0,7.8,5.6,13.2,12.9,13.2
	C890.2,210.7,895.7,205.3,895.7,197.5z M886.9,226.6c-0.1,2.2-2,4-4.2,3.9c-2.1-0.1-3.8-1.8-3.9-3.9c-0.1-2.2,1.6-4.1,3.9-4.2
	c2.2-0.1,4.1,1.6,4.2,3.9C886.9,226.4,886.9,226.5,886.9,226.6z"/>
<path d="M912.6,176.9h9.5v41.2h-9.5V176.9z"/>
<path d="M82.9,254.7l-3.7-5.3h-4v5.3h-4.4v-18.9H79c5.1,0,8.2,2.6,8.2,6.9c0.1,2.6-1.5,5-3.9,6l4.2,6.1L82.9,254.7z M78.8,239.4
	h-3.6v6.6h3.6c2.7,0,4-1.2,4-3.3S81.5,239.4,78.8,239.4z"/>
<path d="M105.4,251.2v3.5H90.7v-18.9H105v3.5h-10v4.1h8.7v3.4h-8.7v4.4H105.4z"/>
<path d="M121.3,250.7h-8.8l-1.7,4.1h-4.5l8.4-18.9h4.3l8.5,18.9H123L121.3,250.7z M119.9,247.3l-3-7.2l-3,7.2L119.9,247.3z"/>
<path d="M129.6,235.8h4.4v15.4h9.5v3.6h-13.9V235.8z"/>
<path d="M170.9,249.6c0,3.3-2.6,5.2-7.6,5.2h-9.8v-18.9h9.3c4.8,0,7.2,2,7.2,4.9c0,1.8-1,3.4-2.5,4.2
	C169.5,245.4,171,247.4,170.9,249.6z M157.9,239.1v4.5h4.3c2.1,0,3.3-0.8,3.3-2.2c0-1.4-1.2-2.2-3.3-2.2H157.9z M166.5,249.1
	c0-1.6-1.2-2.4-3.5-2.4h-5.1v4.7h5.1C165.3,251.4,166.5,250.7,166.5,249.1z"/>
<path d="M186.3,254.7l-3.7-5.3h-4v5.3h-4.4v-18.9h8.2c5,0,8.2,2.6,8.2,6.9c0.1,2.6-1.5,5-3.9,6l4.2,6.1L186.3,254.7z M182.2,239.4
	h-3.6v6.6h3.6c2.7,0,4-1.2,4-3.3S184.9,239.4,182.2,239.4z"/>
<path d="M192.9,245.3c0-5.6,4.4-9.8,10.3-9.8s10.3,4.1,10.3,9.8s-4.4,9.8-10.3,9.8S192.9,250.9,192.9,245.3z M209.2,245.3
	c-0.1-3.3-2.8-5.9-6.1-5.8s-5.9,2.8-5.8,6.1c0.1,3.2,2.7,5.8,5.9,5.8c3.2,0.1,5.8-2.4,5.9-5.6C209.2,245.6,209.2,245.4,209.2,245.3z
	"/>
<path d="M244.9,235.8l-6.2,18.9H234l-4.2-12.8l-4.3,12.8h-4.7l-6.2-18.9h4.5l4.3,13.3l4.5-13.3h4.1l4.3,13.4l4.4-13.4H244.9z"/>
<path d="M271.5,250.7h-3.1v4h-4.3v-4H254v-2.9l8.9-12h4.6l-8.3,11.4h5.1v-3.5h4.1v3.5h3.1L271.5,250.7z"/>
<path d="M274,235.8h8.6c6.2,0,10.4,3.7,10.4,9.5s-4.2,9.5-10.4,9.5H274V235.8z M282.4,251.1c3.8,0,6.2-2.2,6.2-5.9
	c0-3.6-2.5-5.9-6.2-5.9h-4v11.7H282.4z"/>
<path d="M307.9,239.4h-6.1v-3.6h16.5v3.6h-6v15.4H308L307.9,239.4z"/>
<path d="M320.7,235.8h4.4v18.9h-4.4V235.8z"/>
<path d="M346.9,235.8v18.9h-3.6l-9.4-11.5v11.5h-4.3v-18.9h3.6l9.4,11.5v-11.5H346.9z"/>
<path d="M355.4,239.4h-6.1v-3.6h16.5v3.6h-6.1v15.4h-4.4V239.4z"/>
<path d="M70,324.3h6.7v1.6H70V324.3z"/>
<path d="M87.8,314.2h7.3c5.7,0,9.5,3.7,9.5,8.9c0,5.2-3.8,8.9-9.5,8.9h-7.3V314.2z M95,330.4c4.7,0,7.8-3,7.8-7.3s-3.1-7.3-7.8-7.3
	h-5.3v14.6H95z"/>
<path d="M118.6,323.7v8.3h-1.7v-2.1c-0.8,1.4-2.4,2.2-4.6,2.2c-3,0-4.9-1.6-4.9-3.9c0-2.1,1.3-3.8,5.2-3.8h4.2v-0.8
	c0-2.3-1.3-3.5-3.8-3.5c-1.6,0-3.2,0.5-4.5,1.6l-0.8-1.4c1.6-1.2,3.5-1.9,5.4-1.8C116.6,318.5,118.6,320.2,118.6,323.7z M116.7,328
	v-2.2h-4.2c-2.6,0-3.4,1-3.4,2.4c0,1.6,1.2,2.5,3.4,2.5C114.3,330.8,116,329.7,116.7,328z M114.3,335.7c0,0.6-0.5,1.1-1.1,1.1
	c-0.6,0-1.1-0.5-1.1-1.1c0-0.6,0.5-1.1,1.1-1.1c0,0,0,0,0,0C113.8,334.6,114.3,335.1,114.3,335.7
	C114.3,335.7,114.3,335.7,114.3,335.7z"/>
<path d="M135.8,324.2v7.8H134v-7.6c0-2.8-1.5-4.3-4-4.3c-2.9,0-4.7,1.8-4.7,4.8v7h-1.8v-13.4h1.7v2.5c1.1-1.7,3.1-2.7,5.1-2.6
	C133.5,318.5,135.8,320.4,135.8,324.2z"/>
<path d="M153.1,318.6v11.8c0,4.6-2.3,6.7-6.7,6.7c-2.4,0-4.8-0.7-6.2-2.1l0.9-1.4c1.5,1.2,3.3,1.9,5.3,1.8c3.4,0,4.9-1.6,4.9-4.9
	v-1.7c-1.2,1.7-3.1,2.7-5.2,2.6c-3.8,0-6.7-2.7-6.7-6.5c0-3.8,2.9-6.5,6.7-6.5c2.1-0.1,4.1,0.9,5.3,2.7v-2.6H153.1z M151.4,325
	c0-2.9-2.1-4.9-5.1-4.9c-2.7,0.1-4.8,2.4-4.7,5.1c0.1,2.7,2.4,4.8,5.1,4.7C149.3,329.8,151.4,327.6,151.4,325z"/>
<path d="M187,324.2v7.8h-1.8v-7.6c0-2.8-1.4-4.3-3.8-4.3c-2.7,0-4.5,1.8-4.5,4.8v7H175v-7.6c0-2.8-1.4-4.3-3.9-4.3
	c-2.7,0-4.5,1.8-4.5,4.8v7h-1.8v-13.4h1.7v2.4c1-1.7,2.9-2.7,4.9-2.5c2.2,0,4,0.9,4.8,2.8c1.1-1.8,3.1-2.9,5.3-2.8
	C184.8,318.5,187,320.4,187,324.2z"/>
<path d="M203.9,319.9V332h-1.7v-2.4c-1,1.7-2.8,2.6-4.8,2.6c-3.4,0-5.7-1.9-5.7-5.7v-7.8h1.8v7.6c0,2.9,1.5,4.3,4,4.3
	c2.8,0,4.6-1.8,4.6-4.9v-7h0.9c0.9,0.1,1.6-0.6,1.7-1.5c0-0.1,0-0.1,0-0.2c0-0.6-0.2-1.1-0.5-1.6l1.2-0.5c0.4,0.6,0.7,1.4,0.7,2.1
	C206.2,318.4,205.3,319.6,203.9,319.9z M198.9,335.7c0.1,0.6-0.4,1.1-1,1.2c-0.6,0.1-1.1-0.4-1.2-1c0-0.1,0-0.1,0-0.2
	c0.1-0.6,0.6-1.1,1.2-1C198.5,334.8,198.9,335.2,198.9,335.7z"/>
<path d="M207.3,325.3c-0.1-3.6,2.7-6.7,6.4-6.8c0.2,0,0.4,0,0.5,0c2.1-0.1,4.1,0.9,5.2,2.6l-1.4,0.9c-0.9-1.3-2.3-2-3.9-2
	c-2.9,0-5.2,2.3-5.2,5.2c0,2.9,2.3,5.2,5.2,5.2c1.5,0.1,3-0.7,3.9-2l1.4,0.9c-1.2,1.7-3.1,2.8-5.2,2.6c-3.6,0.2-6.7-2.7-6.9-6.3
	C207.3,325.6,207.3,325.5,207.3,325.3z"/>
<path d="M236.7,331.2c-0.8,0.6-1.8,1-2.8,0.9c-2.5,0-3.9-1.4-3.9-3.9v-8.1h-2.4v-1.5h2.4v-2.9h1.8v2.9h4.1v1.5h-4.1v8
	c0,1.6,0.8,2.4,2.3,2.4c0.7,0,1.4-0.2,2-0.7L236.7,331.2z"/>
<path d="M239.6,314.4c0-0.7,0.6-1.3,1.3-1.3c0.7,0,1.3,0.5,1.3,1.2c0,0,0,0,0,0c-0.1,0.7-0.7,1.3-1.4,1.2
	C240.1,315.5,239.6,315,239.6,314.4L239.6,314.4z M240,318.6h1.8V332H240L240,318.6z"/>
<path d="M259.1,324.2v7.8h-1.8v-7.6c0-2.8-1.5-4.3-4-4.3c-2.9,0-4.7,1.8-4.7,4.8v7h-1.8v-13.4h1.7v2.5c1.1-1.7,3.1-2.7,5.1-2.6
	C256.9,318.5,259.1,320.4,259.1,324.2z"/>
<path d="M271.1,331.2c-0.8,0.6-1.8,1-2.8,0.9c-2.5,0-3.9-1.4-3.9-3.9v-8.1H262v-1.5h2.4v-2.9h1.8v2.9h4v1.5h-4.1v8
	c0,1.6,0.8,2.4,2.3,2.4c0.7,0,1.4-0.2,2-0.7L271.1,331.2z"/>
<path d="M293.3,324.2v7.8h-1.8v-7.6c0-2.8-1.5-4.3-4-4.3c-2.9,0-4.7,1.8-4.7,4.8v7h-1.8v-13.4h1.7v2.5c1.1-1.7,3.1-2.7,5.1-2.6
	C291.1,318.5,293.3,320.4,293.3,324.2z"/>
<path d="M310.6,324.2v7.8h-1.8v-7.6c0-2.8-1.5-4.3-4-4.3c-2.9,0-4.7,1.8-4.7,4.8v7h-1.8v-18.9h1.8v7.8c1.1-1.6,3-2.6,5-2.4
	C308.4,318.5,310.6,320.4,310.6,324.2z"/>
<path d="M325.6,323.7v8.3h-1.7v-2.1c-0.8,1.4-2.4,2.2-4.6,2.2c-3,0-4.9-1.6-4.9-3.9c0-2.1,1.3-3.8,5.2-3.8h4.3v-0.8
	c0-2.3-1.3-3.5-3.8-3.5c-1.6,0-3.2,0.5-4.5,1.6l-0.8-1.4c1.5-1.2,3.5-1.9,5.4-1.8C323.6,318.5,325.6,320.2,325.6,323.7z M323.8,328
	v-2.2h-4.2c-2.6,0-3.4,1-3.4,2.4c0,1.6,1.2,2.5,3.4,2.5C321.4,330.8,323.1,329.7,323.8,328z"/>
<path d="M342.8,324.2v7.8H341v-7.6c0-2.8-1.5-4.3-4-4.3c-2.9,0-4.7,1.8-4.7,4.8v7h-1.8v-13.4h1.7v2.5c1.1-1.7,3.1-2.7,5.1-2.6
	C340.6,318.5,342.8,320.4,342.8,324.2z"/>
<path d="M360.1,324.2v7.8h-1.8v-7.6c0-2.8-1.5-4.3-4-4.3c-2.9,0-4.7,1.8-4.7,4.8v7h-1.9v-18.9h1.8v7.8c1.1-1.6,3-2.6,5-2.4
	C357.8,318.5,360.1,320.4,360.1,324.2z"/>
<path d="M376.6,325.3l-3.2,2.9v3.8h-1.8v-18.9h1.8v12.8l8-7.3h2.2l-5.7,5.5l6.3,7.9H382L376.6,325.3z"/>
<path d="M399.2,324.2v7.8h-1.8v-7.6c0-2.8-1.5-4.3-4-4.3c-2.9,0-4.7,1.8-4.7,4.8v7h-1.8v-18.9h1.8v7.8c1.1-1.6,3-2.6,5-2.4
	C397,318.5,399.2,320.4,399.2,324.2z"/>
<path d="M416.5,325.3c0,3.8-3,6.8-6.8,6.8c-3.8,0-6.8-3-6.8-6.8c0-3.8,3-6.8,6.8-6.8c0,0,0,0,0,0c3.6-0.1,6.7,2.7,6.8,6.4
	C416.5,325,416.5,325.1,416.5,325.3z M414.6,325.3c0-3.1-2.1-5.2-5-5.2s-5,2.1-5,5.2c0,3.1,2.1,5.2,5,5.2S414.6,328.4,414.6,325.3z
	 M407.1,316.5h-1.7l3.3-3.2h1.8l3.3,3.2h-1.7l-2.5-2.1L407.1,316.5z"/>
<path d="M421.3,330.7c0,0.5-0.1,1-0.4,1.5l-1.1,3.5h-1.2l0.9-3.7c-0.6-0.2-0.9-0.7-0.9-1.3c-0.1-0.7,0.5-1.4,1.2-1.5
	c0.7-0.1,1.4,0.5,1.5,1.2C421.3,330.6,421.3,330.6,421.3,330.7L421.3,330.7z"/>
<path d="M436.8,325.3l-3.2,2.9v3.8h-1.8v-18.9h1.8v12.8l8-7.3h2.2l-5.7,5.5l6.3,7.9h-2.2L436.8,325.3z"/>
<path d="M459.5,324.2v7.8h-1.8v-7.6c0-2.8-1.5-4.3-4-4.3c-2.9,0-4.7,1.8-4.7,4.8v7h-1.8v-18.9h1.8v7.8c1.1-1.6,3-2.6,5-2.4
	C457.2,318.5,459.5,320.4,459.5,324.2z"/>
<path d="M476.7,325.3c0,3.8-3,6.8-6.8,6.8c-3.8,0-6.8-3-6.8-6.8c0-3.8,3-6.8,6.8-6.8c0,0,0,0,0,0c3.6-0.1,6.7,2.7,6.8,6.4
	C476.7,325,476.7,325.1,476.7,325.3z M474.8,325.3c0-3.1-2.1-5.2-5-5.2s-5,2.1-5,5.2c0,3.1,2.1,5.2,5,5.2
	C472.7,330.5,474.8,328.4,474.8,325.3z M467.3,316.5h-1.7l3.3-3.2h1.8l3.3,3.2h-1.7l-2.5-2.1L467.3,316.5z"/>
<path d="M492.7,324.2v7.8h-1.8v-7.6c0-2.8-1.5-4.3-4-4.3c-2.9,0-4.7,1.8-4.7,4.8v7h-1.8v-13.4h1.7v2.5c1.1-1.7,3.1-2.7,5.1-2.6
	C490.5,318.5,492.7,320.4,492.7,324.2z"/>
<path d="M510,318.6v11.8c0,4.6-2.3,6.7-6.7,6.7c-2.4,0-4.8-0.7-6.2-2.1l0.9-1.4c1.5,1.2,3.3,1.9,5.3,1.8c3.4,0,4.9-1.6,4.9-4.9v-1.7
	c-1.2,1.7-3.1,2.7-5.2,2.6c-3.8,0-6.7-2.7-6.7-6.5c0-3.8,2.9-6.5,6.7-6.5c2.1-0.1,4.1,0.9,5.3,2.7v-2.6H510z M508.3,325
	c0-2.9-2.1-4.9-5.1-4.9c-2.7,0.1-4.8,2.4-4.7,5.1c0.1,2.7,2.4,4.8,5.1,4.7C506.2,329.8,508.3,327.6,508.3,325z"/>
<path d="M521.8,313.1h1.8V332h-1.8V313.1z"/>
<path d="M540.3,325.9h-11.2c0.2,2.8,2.3,4.7,5.3,4.7c1.6,0.1,3.1-0.6,4.1-1.7l1,1.2c-1.3,1.5-3.2,2.3-5.2,2.2c-4.2,0-7-2.8-7-6.8
	s2.8-6.8,6.5-6.8s6.5,2.8,6.5,6.8C540.3,325.4,540.3,325.6,540.3,325.9z M529.1,324.5h9.5c-0.3-2.6-2.6-4.5-5.3-4.2
	C531.1,320.5,529.3,322.3,529.1,324.5z"/>
<path d="M566.1,324.2v7.8h-1.8v-7.6c0-2.8-1.4-4.3-3.8-4.3c-2.8,0-4.5,1.8-4.5,4.8v7h-1.8v-7.6c0-2.8-1.4-4.3-3.9-4.3
	c-2.7,0-4.5,1.8-4.5,4.8v7H544v-13.4h1.7v2.4c1-1.7,2.9-2.7,4.9-2.5c2.2,0,4,0.9,4.8,2.8c1.1-1.8,3.1-2.9,5.3-2.8
	C563.9,318.5,566.1,320.4,566.1,324.2z"/>
<path d="M582.6,325.3l-3.2,2.9v3.8h-1.8v-18.9h1.8v12.8l8-7.3h2.2l-5.7,5.5l6.3,7.9h-2.2L582.6,325.3z"/>
<path d="M605.2,324.2v7.8h-1.8v-7.6c0-2.8-1.5-4.3-4-4.3c-2.9,0-4.7,1.8-4.7,4.8v7H593v-18.9h1.8v7.8c1.1-1.6,3-2.6,5-2.4
	C603,318.5,605.2,320.4,605.2,324.2z"/>
<path d="M622.5,325.3c0,3.8-3,6.8-6.8,6.8s-6.8-3-6.8-6.8s3-6.8,6.8-6.8c0,0,0,0,0,0c3.6-0.1,6.7,2.7,6.8,6.4
	C622.5,325,622.5,325.1,622.5,325.3z M620.6,325.3c0-3.1-2.1-5.2-5-5.2c-2.9,0-5,2.1-5,5.2c0,3.1,2.1,5.2,5,5.2
	S620.6,328.4,620.6,325.3z M613.1,316.5h-1.7l3.3-3.2h1.8l3.3,3.2h-1.7l-2.5-2.1L613.1,316.5z"/>
<path d="M638.5,324.2v7.8h-1.8v-7.6c0-2.8-1.5-4.3-4-4.3c-2.9,0-4.7,1.8-4.7,4.8v7h-1.8v-13.4h1.7v2.5c1.1-1.7,3.1-2.7,5.1-2.6
	C636.2,318.5,638.5,320.4,638.5,324.2z"/>
<path d="M655.9,318.6v11.8c0,4.6-2.3,6.7-6.7,6.7c-2.4,0-4.8-0.7-6.2-2.1l0.9-1.4c1.5,1.2,3.3,1.9,5.3,1.8c3.4,0,4.9-1.6,4.9-4.9
	v-1.7c-1.2,1.7-3.1,2.7-5.2,2.6c-3.8,0-6.7-2.7-6.7-6.5c0-3.8,2.9-6.5,6.7-6.5c2.1-0.1,4.1,0.9,5.3,2.7v-2.6H655.9z M654.1,325
	c0-2.9-2.1-4.9-5.1-4.9c-2.7,0.1-4.8,2.4-4.7,5.1c0.1,2.7,2.4,4.8,5.1,4.7C652,329.8,654.1,327.6,654.1,325z"/>
<path d="M674.6,331.2c-0.8,0.6-1.8,1-2.8,0.9c-2.5,0-3.9-1.4-3.9-3.9v-8.1h-2.4v-1.5h2.4v-2.9h1.8v2.9h4.1v1.5h-4.1v8
	c0,1.6,0.8,2.4,2.3,2.4c0.7,0,1.4-0.2,2-0.7L674.6,331.2z"/>
<path d="M684.6,318.5v1.8c-0.2,0-0.3,0-0.4,0c-2.8,0-4.5,1.8-4.5,4.9v6.8h-1.8v-13.4h1.7v2.6C680.5,319.4,682.2,318.5,684.6,318.5z"
	/>
<path d="M700,325.3c0,3.8-3,6.8-6.8,6.8c-3.8,0-6.8-3-6.8-6.8c0-3.8,3-6.8,6.8-6.8c0,0,0,0,0,0c3.6-0.1,6.7,2.7,6.8,6.4
	C700,325,700,325.1,700,325.3z M698.2,325.3c0-3.1-2.1-5.2-5-5.2s-5,2.1-5,5.2c0,3.1,2.1,5.2,5,5.2S698.2,328.4,698.2,325.3
	L698.2,325.3z M690.7,316.5H689l3.3-3.2h1.8l3.3,3.2h-1.7l-2.5-2.1L690.7,316.5z"/>
<path d="M703.3,314.4c0-0.7,0.6-1.3,1.3-1.3c0.7,0,1.3,0.5,1.3,1.2c0,0,0,0,0,0c0,0.7-0.5,1.3-1.3,1.3c0,0,0,0-0.1,0
	C703.9,315.7,703.3,315.1,703.3,314.4C703.3,314.4,703.3,314.4,703.3,314.4z M703.7,318.6h1.8V332h-1.8V318.6z"/>
<path d="M709.4,330.7c0-0.7,0.6-1.4,1.3-1.4c0,0,0,0,0,0c0.8,0,1.4,0.6,1.4,1.4c0,0,0,0,0,0c0,0.8-0.6,1.4-1.4,1.4
	C710,332.1,709.4,331.5,709.4,330.7C709.4,330.7,709.4,330.7,709.4,330.7z"/>
<path d="M70,360.9h6.7v1.6H70V360.9z"/>
<path d="M102.7,363.8c0,3-2.2,4.8-6.7,4.8h-8.2v-17.8h7.7c4,0,6.3,1.7,6.3,4.6c0.1,1.8-1,3.4-2.7,4
	C101.2,359.7,102.8,361.6,102.7,363.8z M89.7,352.3v6.5h5.7c2.8,0,4.5-1.1,4.5-3.2s-1.7-3.2-4.5-3.2H89.7z M100.8,363.6
	c0-2.3-1.7-3.3-4.8-3.3h-6.3v6.7H96C99.1,367,100.8,366,100.8,363.6L100.8,363.6z"/>
<path d="M118.3,362.4h-11.2c0.2,2.8,2.3,4.7,5.3,4.7c1.6,0.1,3.1-0.6,4.1-1.7l1,1.2c-1.3,1.5-3.2,2.3-5.2,2.2c-4.2,0-7-2.8-7-6.8
	s2.8-6.8,6.5-6.8c3.8,0,6.5,2.8,6.5,6.8C118.3,362,118.3,362.2,118.3,362.4z M107.1,361.1h9.5c-0.3-2.6-2.6-4.5-5.2-4.3
	C109.1,357,107.3,358.8,107.1,361.1z M109.4,353.1h-1.7l3.3-2.4h1.8l3.3,2.4h-1.7l-2.5-1.5L109.4,353.1z M115.7,351l-3.7-2.8h2.2
	l3.1,2.8L115.7,351z"/>
<path d="M134.3,360.8v7.8h-1.8V361c0-2.8-1.5-4.3-4-4.3c-2.9,0-4.7,1.8-4.7,4.8v7H122v-13.4h1.7v2.5c1.1-1.7,3.1-2.7,5.1-2.6
	C132.1,355.1,134.3,357,134.3,360.8z"/>
<path d="M168,360.8v7.8h-1.8V361c0-2.8-1.4-4.3-3.8-4.3c-2.8,0-4.5,1.8-4.5,4.8v7H156V361c0-2.8-1.4-4.3-3.9-4.3
	c-2.7,0-4.5,1.8-4.5,4.8v7h-1.8v-13.4h1.7v2.4c1-1.7,2.9-2.7,4.9-2.5c2.2,0,4,0.9,4.8,2.8c1.1-1.8,3.1-2.9,5.3-2.8
	C165.8,355.1,168,357,168,360.8z"/>
<path d="M183,360.3v8.3h-1.7v-2.1c-0.8,1.4-2.4,2.2-4.6,2.2c-3,0-4.9-1.6-4.9-3.9c0-2.1,1.3-3.8,5.2-3.8h4.2v-0.8
	c0-2.3-1.3-3.5-3.8-3.5c-1.6,0-3.2,0.5-4.5,1.6l-0.8-1.4c1.6-1.2,3.5-1.9,5.4-1.8C181,355.1,183,356.8,183,360.3z M177.5,353.1
	l-4.1-3.2h2.4l3.5,3.2H177.5z M181.2,364.5v-2.2H177c-2.6,0-3.4,1-3.4,2.4c0,1.6,1.2,2.5,3.4,2.5
	C178.8,367.4,180.5,366.3,181.2,364.5L181.2,364.5z"/>
<path d="M200,355.2v13.4h-1.7v-2.4c-1,1.7-2.8,2.6-4.8,2.6c-3.4,0-5.7-1.9-5.7-5.7v-7.8h1.8v7.6c0,2.9,1.5,4.3,4,4.3
	c2.8,0,4.6-1.8,4.6-4.9v-7H200z"/>
<path d="M209.8,367l0.8-1.4c1.4,1,3.1,1.5,4.8,1.5c2.5,0,3.6-0.9,3.6-2.2c0-3.5-8.7-0.7-8.7-6c0-2.2,1.9-3.8,5.3-3.8
	c1.7,0,3.3,0.4,4.7,1.2l-0.8,1.4c-1.2-0.8-2.6-1.2-4-1.1c-2.4,0-3.5,0.9-3.5,2.2c0,3.6,8.7,0.9,8.7,6c0,2.3-2,3.8-5.5,3.8
	C213.3,368.7,211.4,368.2,209.8,367z"/>
<path d="M236.2,355.2v13.4h-1.7v-2.4c-1,1.7-2.9,2.7-4.8,2.6c-3.4,0-5.6-1.9-5.6-5.7v-7.8h1.8v7.6c0,2.9,1.5,4.3,4,4.3
	c2.8,0,4.5-1.8,4.5-4.9v-7H236.2z"/>
<path d="M253.5,361.9c0,3.8-3,6.8-6.8,6.8c-3.8,0-6.8-3-6.8-6.8c0-3.8,3-6.8,6.8-6.8c0,0,0,0,0,0c3.6-0.1,6.7,2.7,6.8,6.4
	C253.5,361.6,253.5,361.7,253.5,361.9z M251.7,361.9c0-3.1-2.1-5.2-5-5.2c-2.9,0-5,2.1-5,5.2s2.1,5.2,5,5.2
	C249.5,367.1,251.7,365,251.7,361.9L251.7,361.9z M244.2,353.1h-1.7l3.3-2.4h1.8l3.3,2.4h-1.7l-2.5-1.5L244.2,353.1z M250.6,351H249
	l3.1-2.8h2.2L250.6,351z"/>
<path d="M264.3,367.8c-0.8,0.6-1.8,1-2.8,0.9c-2.5,0-3.9-1.4-3.9-3.9v-8.1h-2.4v-1.5h2.4v-2.9h1.8v2.9h4.1v1.5h-4.1v8
	c0,1.6,0.8,2.4,2.3,2.4c0.7,0,1.4-0.2,2-0.7L264.3,367.8z"/>
<path d="M272.9,361.9c-0.1-3.6,2.7-6.7,6.4-6.8c0.2,0,0.3,0,0.5,0c2.1-0.1,4.1,0.9,5.2,2.6l-1.3,0.9c-0.9-1.3-2.3-2-3.9-2
	c-2.9,0.1-5.1,2.5-5,5.4c0.1,2.7,2.3,4.9,5,5c1.5,0.1,3-0.7,3.9-2l1.3,0.9c-1.2,1.8-3.1,2.8-5.2,2.6c-3.6,0.2-6.7-2.7-6.9-6.3
	C272.9,362.2,272.9,362,272.9,361.9z"/>
<path d="M298.6,360.3v8.3h-1.7v-2.1c-0.8,1.4-2.4,2.2-4.6,2.2c-3,0-4.9-1.6-4.9-3.9c0-2.1,1.3-3.8,5.2-3.8h4.2v-0.8
	c0-2.3-1.3-3.5-3.8-3.5c-1.6,0-3.2,0.5-4.5,1.6l-0.8-1.4c1.6-1.2,3.5-1.9,5.4-1.8C296.7,355.1,298.6,356.8,298.6,360.3z
	 M296.8,364.5v-2.2h-4.2c-2.6,0-3.4,1-3.4,2.4c0,1.6,1.2,2.5,3.4,2.5C294.4,367.4,296.2,366.3,296.8,364.5z M291.5,349.9l-0.4-0.9
	c0.6-0.4,1.4-0.7,2.1-0.7c1.2-0.1,2.3,0.8,2.4,2c0,0.1,0,0.1,0,0.2c0,1.2-0.7,2.1-2,2.7l-0.6-0.8c1-0.5,1.5-1,1.5-1.8
	c0-0.7-0.6-1.3-1.3-1.3c0,0-0.1,0-0.1,0C292.5,349.5,292,349.6,291.5,349.9z"/>
<path d="M322.5,360.8v7.8h-1.8V361c0-2.8-1.5-4.3-4-4.3c-2.9,0-4.7,1.8-4.7,4.8v7h-1.8v-13.4h1.7v2.5c1.1-1.7,3.1-2.7,5.1-2.6
	C320.3,355.1,322.5,357,322.5,360.8z"/>
<path d="M339.9,355.2v11.8c0,4.6-2.3,6.7-6.7,6.7c-2.4,0-4.8-0.7-6.2-2.1l0.9-1.4c1.5,1.2,3.3,1.9,5.3,1.8c3.4,0,4.9-1.6,4.9-4.9
	v-1.7c-1.2,1.7-3.1,2.7-5.2,2.6c-3.8,0-6.7-2.7-6.7-6.5s2.9-6.5,6.7-6.5c2.1-0.1,4.1,0.9,5.3,2.7v-2.6H339.9z M338.1,361.5
	c0-2.9-2.1-4.9-5.1-4.9c-3,0-5.1,2-5.1,4.9c0.1,2.8,2.5,5,5.3,4.9C335.9,366.3,338,364.2,338.1,361.5z"/>
<path d="M355.1,360.3v8.3h-1.7v-2.1c-0.8,1.4-2.4,2.2-4.6,2.2c-3,0-4.9-1.6-4.9-3.9c0-2.1,1.3-3.8,5.2-3.8h4.2v-0.8
	c0-2.3-1.3-3.5-3.8-3.5c-1.6,0-3.2,0.5-4.5,1.6l-0.8-1.4c1.6-1.2,3.5-1.9,5.4-1.8C353.1,355.1,355.1,356.8,355.1,360.3z
	 M349.6,353.1l-4.1-3.2h2.4l3.5,3.2H349.6z M353.2,364.5v-2.2H349c-2.6,0-3.4,1-3.4,2.4c0,1.6,1.2,2.5,3.4,2.5
	C350.9,367.4,352.6,366.3,353.2,364.5L353.2,364.5z"/>
<path d="M371,355.2l-6.7,15c-1.1,2.6-2.5,3.5-4.5,3.5c-1.2,0-2.4-0.4-3.3-1.2l0.8-1.3c0.6,0.7,1.5,1,2.4,1c1.2,0,2-0.6,2.8-2.2
	l0.6-1.3l-6-13.4h1.9l5,11.4l5-11.4H371z"/>
<path d="M371.5,367.3c0-0.7,0.6-1.4,1.3-1.4c0,0,0,0,0,0c0.8,0,1.4,0.6,1.4,1.4c0,0,0,0,0,0c0,0.8-0.6,1.4-1.4,1.4
	C372.1,368.7,371.5,368.1,371.5,367.3C371.5,367.3,371.5,367.3,371.5,367.3z"/>
<path d="M70,397.5h6.7v1.6H70V397.5z"/>
<path d="M104.7,396.2c0,5.2-3.8,8.9-9.5,8.9h-7.3v-8.3h-2.7v-1.5h2.7v-8h7.3C100.9,387.3,104.7,391,104.7,396.2z M102.9,396.2
	c0-4.3-3.1-7.3-7.8-7.3h-5.3v6.4h5.3v1.5h-5.3v6.7h5.3C99.8,403.5,102.9,400.5,102.9,396.2z"/>
<path d="M118.7,396.8v8.3H117v-2.1c-0.8,1.4-2.4,2.2-4.6,2.2c-3,0-4.9-1.6-4.9-3.9c0-2.1,1.3-3.8,5.2-3.8h4.2v-0.8
	c0-2.3-1.3-3.5-3.8-3.5c-1.6,0-3.2,0.5-4.5,1.6l-0.8-1.4c1.6-1.2,3.5-1.9,5.4-1.8C116.7,391.7,118.7,393.4,118.7,396.8z
	 M110.8,389.7h-1.7l3.3-2.4h1.8l3.3,2.4h-1.7l-2.5-1.5L110.8,389.7z M116.9,401.1v-2.2h-4.2c-2.6,0-3.4,1-3.4,2.4
	c0,1.6,1.2,2.5,3.4,2.5C114.5,403.9,116.2,402.8,116.9,401.1L116.9,401.1z M117.2,387.6l-3.7-2.8h2.2l3.1,2.8H117.2z"/>
<path d="M135.7,391.8v13.4h-1.7v-2.4c-1,1.7-2.8,2.6-4.8,2.6c-3.4,0-5.6-1.9-5.6-5.7v-7.8h1.8v7.6c0,2.9,1.5,4.3,4,4.3
	c2.8,0,4.5-1.8,4.5-4.9v-7H135.7z"/>
<path d="M160.9,398.5c0.2,3.6-2.6,6.6-6.2,6.8c-0.2,0-0.3,0-0.5,0c-2.1,0.1-4.1-1-5.2-2.8v2.6h-1.7v-18.9h1.8v8
	c1.1-1.7,3-2.7,5.1-2.6c3.6-0.1,6.6,2.7,6.7,6.3C161,398.1,161,398.3,160.9,398.5z M159.1,398.5c0.2-2.7-1.9-5-4.6-5.2
	c-0.1,0-0.3,0-0.4,0c-2.8,0-5,2.1-5,5.2s2.1,5.2,5,5.2c2.7,0,4.9-2.1,5-4.8C159.1,398.7,159.1,398.6,159.1,398.5L159.1,398.5z"/>
<path d="M176.7,391.8v13.4H175v-2.4c-1,1.7-2.8,2.6-4.8,2.6c-3.4,0-5.7-1.9-5.7-5.7v-7.8h1.8v7.6c0,2.9,1.5,4.3,4,4.3
	c2.8,0,4.6-1.8,4.6-4.9v-7H176.7z M170.7,389.7H169l3.5-3.2h2.4L170.7,389.7z"/>
<path d="M188.8,404.3c-0.8,0.6-1.8,1-2.8,0.9c-2.5,0-3.9-1.4-3.9-3.9v-8.1h-2.4v-1.5h2.4v-2.9h1.8v2.9h4.1v1.5h-4.1v8
	c0,1.6,0.8,2.4,2.3,2.4c0.7,0,1.4-0.2,2-0.7L188.8,404.3z"/>
<path d="M213.5,389.7H211v15.4h-1.7v-2.6c-1.1,1.8-3.1,2.9-5.2,2.8c-3.8,0-6.8-3.1-6.8-6.8c0-3.8,3-6.8,6.8-6.8c2-0.1,4,0.9,5.1,2.6
	v-4.6h-5.6v-1.3h5.6v-2.1h1.8v2.1h2.5V389.7z M209.2,398.4c0-3.1-2.1-5.2-5-5.2s-5,2.1-5,5.2c0,3.1,2.1,5.2,5,5.2
	S209.2,401.6,209.2,398.4L209.2,398.4z"/>
<path d="M228.3,398.5c0,3.8-3,6.8-6.8,6.8c-3.8,0-6.8-3-6.8-6.8c0-3.8,3-6.8,6.8-6.8c0,0,0,0,0,0c3.6-0.1,6.7,2.7,6.8,6.4
	C228.3,398.2,228.3,398.3,228.3,398.5z M226.4,398.5c0-3.1-2.1-5.2-5-5.2c-2.8,0-5,2.1-5,5.2s2.1,5.2,5,5.2
	C224.3,403.7,226.5,401.6,226.4,398.5L226.4,398.5z M218.9,389.7h-1.7l3.3-3.2h1.8l3.3,3.2H224l-2.5-2.1L218.9,389.7z M222.6,408.9
	c0,0.6-0.5,1.1-1.1,1.1s-1.1-0.5-1.1-1.1c0-0.6,0.5-1.1,1.1-1.1c0,0,0,0,0,0C222,407.8,222.5,408.3,222.6,408.9
	C222.6,408.9,222.6,408.9,222.6,408.9L222.6,408.9z"/>
<path d="M230.6,398.5c-0.1-3.6,2.7-6.7,6.4-6.8c0.2,0,0.3,0,0.5,0c2.1-0.1,4.1,0.9,5.2,2.6l-1.3,0.9c-0.9-1.3-2.3-2-3.9-2
	c-2.9,0.1-5.1,2.5-5,5.4c0.1,2.7,2.3,4.9,5,5c1.5,0.1,3-0.7,3.9-2l1.3,0.9c-1.2,1.8-3.1,2.8-5.2,2.6c-3.6,0.2-6.7-2.7-6.9-6.3
	C230.6,398.8,230.6,398.6,230.6,398.5z"/>
<path d="M267.7,389.7h-2.5v15.4h-1.7v-2.6c-1.1,1.8-3.1,2.9-5.2,2.8c-3.8,0-6.8-3.1-6.8-6.8c0-3.8,3-6.8,6.8-6.8
	c2-0.1,4,0.9,5.1,2.6v-4.6h-5.6v-1.3h5.6v-2.1h1.8v2.1h2.5L267.7,389.7z M263.4,398.4c0-3.1-2.1-5.2-5-5.2s-5,2.1-5,5.2
	c0,3.1,2.1,5.2,5,5.2C261.3,403.7,263.4,401.6,263.4,398.4L263.4,398.4z"/>
<path d="M280.3,396.8v8.3h-1.7v-2.1c-0.8,1.4-2.4,2.2-4.6,2.2c-3,0-4.9-1.6-4.9-3.9c0-2.1,1.3-3.8,5.2-3.8h4.2v-0.8
	c0-2.3-1.3-3.5-3.8-3.5c-1.6,0-3.2,0.5-4.5,1.6l-0.8-1.4c1.6-1.2,3.5-1.9,5.4-1.8C278.4,391.7,280.3,393.4,280.3,396.8z
	 M278.5,401.1v-2.2h-4.2c-2.6,0-3.4,1-3.4,2.4c0,1.6,1.2,2.5,3.4,2.5C276.1,404,277.8,402.9,278.5,401.1L278.5,401.1z M275.1,389.7
	h-1.8l3.5-3.2h2.4L275.1,389.7z"/>
<path d="M283.9,398.5c0-3.8,3.1-6.8,6.8-6.8s6.8,3.1,6.8,6.8c0,3.8-3,6.8-6.8,6.8c-3.6,0.1-6.7-2.7-6.8-6.3
	C283.9,398.8,283.9,398.6,283.9,398.5z M295.7,398.5c0-3.1-2.1-5.2-5-5.2s-5,2.1-5,5.2s2.1,5.2,5,5.2S295.7,401.6,295.7,398.5z"/>
<path d="M319.1,391.8l-5.9,13.4h-1.9l-5.9-13.4h1.9l5,11.4l5.1-11.4L319.1,391.8z"/>
<path d="M333.6,398.5c0,3.8-3,6.8-6.8,6.8c-3.8,0-6.8-3-6.8-6.8c0-3.8,3-6.8,6.8-6.8c0,0,0,0,0,0c1.4,0,1.9,0.2,3.2,0.2
	c1.4,0,2.1-0.8,2.1-1.8c0-0.6-0.2-1.1-0.5-1.6l1.2-0.5c0.4,0.6,0.7,1.4,0.7,2.1c0,1.4-1,2.7-2.4,2.9
	C332.7,394.3,333.6,396.3,333.6,398.5z M331.7,398.5c0-3.1-2.1-5.2-5-5.2s-5,2.1-5,5.2c-0.2,2.7,1.9,5,4.6,5.2c0.1,0,0.3,0,0.4,0
	C329.6,403.7,331.7,401.6,331.7,398.5z M326.9,389.7h-1.8l3.5-3.2h2.4L326.9,389.7z"/>
<path d="M336.9,387.5c0-0.7,0.5-1.3,1.3-1.4c0.7,0,1.3,0.5,1.4,1.3c0,0.7-0.5,1.3-1.3,1.4c0,0,0,0-0.1,0
	C337.5,388.8,336.9,388.3,336.9,387.5C336.9,387.5,336.9,387.5,336.9,387.5z M337.3,391.8h1.8v13.4h-1.8V391.8z"/>
<path d="M357.8,404.3c-0.8,0.6-1.8,1-2.8,0.9c-2.5,0-3.9-1.4-3.9-3.9v-8.1h-2.4v-1.5h2.4v-2.9h1.8v2.9h4.1v1.5h-4.1v8
	c0,1.6,0.8,2.4,2.3,2.4c0.7,0,1.4-0.2,2-0.7L357.8,404.3z"/>
<path d="M373.4,397.4v7.8h-1.8v-7.6c0-2.8-1.5-4.3-4-4.3c-2.9,0-4.7,1.8-4.7,4.8v7h-1.8v-18.9h1.8v7.8c1.1-1.6,3-2.6,5-2.4
	C371.2,391.7,373.4,393.5,373.4,397.4z"/>
<path d="M377.9,387.5c0-0.7,0.6-1.3,1.3-1.3c0.7,0,1.3,0.5,1.3,1.2c0,0,0,0,0,0c0,0.7-0.6,1.3-1.3,1.3c0,0,0,0,0,0
	C378.5,388.8,377.9,388.3,377.9,387.5C377.9,387.5,377.9,387.5,377.9,387.5z M378.3,391.8h1.8v13.4h-1.8V391.8z"/>
<path d="M396.9,398.5c0,0.2,0,0.3,0,0.6h-11.2c0.2,2.8,2.3,4.7,5.3,4.7c1.6,0.1,3.1-0.6,4.1-1.7l1,1.2c-1.3,1.5-3.2,2.3-5.2,2.2
	c-4.2,0-7-2.8-7-6.8s2.8-6.8,6.5-6.8S396.9,394.4,396.9,398.5z M385.6,397.7h9.5c-0.3-2.6-2.6-4.5-5.2-4.3
	C387.7,393.6,385.9,395.4,385.6,397.7z M387.9,389.7h-1.7l3.3-2.4h1.8l3.3,2.4h-1.7l-2.5-1.5L387.9,389.7z M394.3,387.6h-1.6
	l3.1-2.8h2.2L394.3,387.6z"/>
<path d="M407.6,404.3c-0.8,0.6-1.8,1-2.8,0.9c-2.5,0-3.9-1.4-3.9-3.9v-8.1h-2.4v-1.5h2.4v-2.9h1.8v2.9h4.1v1.5h-4.1v8
	c0,1.6,0.8,2.4,2.3,2.4c0.7,0,1.4-0.2,2-0.7L407.6,404.3z"/>
<path d="M422.5,398.4l-3.2,2.9v3.8h-1.8v-18.9h1.8v12.8l8-7.3h2.2l-5.7,5.5l6.3,7.9h-2.2L422.5,398.4z"/>
<path d="M444,398.5c0,0.2,0,0.3,0,0.6h-11.2c0.2,2.8,2.3,4.7,5.3,4.7c1.6,0,3.1-0.6,4.1-1.7l1,1.2c-1.3,1.5-3.2,2.3-5.2,2.2
	c-4.2,0-7-2.8-7-6.8s2.8-6.8,6.5-6.8C441.3,391.7,444,394.4,444,398.5z M432.8,397.7h9.5c-0.3-2.6-2.6-4.5-5.2-4.3
	C434.8,393.6,433,395.4,432.8,397.7z M435,389.7h-1.7l3.3-2.4h1.8l3.3,2.4H440l-2.5-1.5L435,389.7z M441.4,387.6h-1.6l3.1-2.8h2.2
	L441.4,387.6z"/>
<path d="M468.3,400.5h-3.6v4.7h-1.8v-4.7h-10.1v-1.3l9.4-11.8h2l-9.1,11.5h7.7v-4.1h1.8v4.1h3.6L468.3,400.5z"/>
<path d="M490.2,397.4v7.8h-1.8v-7.6c0-2.8-1.5-4.3-4-4.3c-2.9,0-4.7,1.8-4.7,4.8v7h-1.8v-13.4h1.7v2.5c1.1-1.7,3.1-2.7,5.1-2.6
	C487.9,391.7,490.2,393.5,490.2,397.4z"/>
<path d="M507.5,391.8v11.8c0,4.6-2.3,6.7-6.7,6.7c-2.4,0-4.8-0.7-6.2-2.1l0.9-1.4c1.5,1.2,3.4,1.9,5.3,1.8c3.4,0,4.9-1.6,4.9-4.9
	V402c-1.2,1.7-3.1,2.7-5.2,2.6c-3.8,0-6.7-2.7-6.7-6.5s2.9-6.5,6.7-6.5c2.1-0.1,4.1,0.9,5.3,2.7v-2.6H507.5z M505.8,398.1
	c0-2.9-2.1-4.9-5.1-4.9c-3,0-5.1,2-5.1,4.9c0.1,2.8,2.5,5,5.3,4.9C503.5,402.9,505.6,400.8,505.8,398.1z"/>
<path d="M511.2,398.5c0-3.8,3.1-6.8,6.8-6.8s6.8,3.1,6.8,6.8c0,3.8-3,6.8-6.8,6.8c-3.6,0.1-6.7-2.7-6.8-6.3
	C511.2,398.8,511.2,398.6,511.2,398.5z M523,398.5c0-3.1-2.1-5.2-5-5.2c-2.9,0-5,2.1-5,5.2s2.1,5.2,5,5.2S523,401.6,523,398.5z
	 M513.8,386.5h2.4l3.5,3.2h-1.8L513.8,386.5z"/>
<path d="M528.1,387.5c0-0.7,0.6-1.3,1.3-1.3c0,0,0,0,0,0c0.7,0,1.3,0.5,1.3,1.2c0,0,0,0,0,0c0,0.7-0.6,1.3-1.3,1.3
	C528.7,388.8,528.1,388.2,528.1,387.5L528.1,387.5z M528.5,391.8h1.8v13.4h-1.8V391.8z"/>
<path d="M536.9,403.9c0,0.5-0.1,1-0.4,1.5l-1.1,3.5h-1.2l0.9-3.7c-0.6-0.2-0.9-0.7-0.9-1.3c-0.1-0.7,0.5-1.4,1.2-1.5
	c0.7-0.1,1.4,0.5,1.5,1.2C536.9,403.7,536.9,403.8,536.9,403.9L536.9,403.9z"/>
<path d="M561,398.5c0.2,3.6-2.6,6.6-6.2,6.8c-0.2,0-0.3,0-0.5,0c-2,0.1-4-0.9-5.1-2.6v7.5h-1.8v-18.3h1.7v2.6
	c1.1-1.8,3.1-2.8,5.2-2.8c3.6-0.1,6.6,2.7,6.7,6.3C561,398.1,561,398.3,561,398.5z M559.2,398.5c0.1-2.8-2-5.1-4.8-5.2
	c-2.8-0.1-5.1,2-5.2,4.8c0,0.1,0,0.3,0,0.4c0,3.1,2.1,5.2,5,5.2c2.7,0,5-2.1,5-4.8C559.2,398.7,559.2,398.6,559.2,398.5z"/>
<path d="M577,397.4v7.8h-1.8v-7.6c0-2.8-1.5-4.3-4-4.3c-2.9,0-4.7,1.8-4.7,4.8v7h-1.8v-18.9h1.8v7.8c1.1-1.6,3-2.6,5-2.4
	C574.8,391.7,577,393.5,577,397.4z"/>
<path d="M592,396.8v8.3h-1.7v-2.1c-0.8,1.4-2.4,2.2-4.6,2.2c-3,0-4.9-1.6-4.9-3.9c0-2.1,1.3-3.8,5.2-3.8h4.2v-0.8
	c0-2.3-1.3-3.5-3.8-3.5c-1.6,0-3.2,0.5-4.5,1.6l-0.8-1.4c1.6-1.2,3.5-1.9,5.4-1.8C590.1,391.7,592,393.4,592,396.8z M584.2,389.7
	h-1.7l3.3-2.4h1.8l3.3,2.4h-1.7l-2.5-1.5L584.2,389.7z M590.2,401.1v-2.2H586c-2.6,0-3.4,1-3.4,2.4c0,1.6,1.2,2.5,3.4,2.5
	C587.8,403.9,589.5,402.8,590.2,401.1L590.2,401.1z M588.4,385.5l-0.4-0.7c0.5-0.3,1-0.5,1.6-0.5c0.9-0.1,1.7,0.5,1.8,1.4
	c0,0.1,0,0.1,0,0.2c0,0.9-0.6,1.7-1.5,2l-0.5-0.6c0.7-0.3,1.1-0.8,1.1-1.3s-0.4-0.8-1-0.8C589.1,385.3,588.7,385.4,588.4,385.5
	L588.4,385.5z"/>
<path d="M607.9,391.8l-6.7,15c-1.1,2.6-2.5,3.5-4.5,3.5c-1.2,0-2.4-0.4-3.3-1.2l0.8-1.3c0.6,0.7,1.5,1,2.4,1c1.2,0,2-0.6,2.8-2.2
	l0.6-1.3l-6-13.4h1.9l5,11.4l5-11.4H607.9z"/>
<path d="M615.3,403.6l0.8-1.4c1.4,1,3.1,1.5,4.8,1.5c2.5,0,3.6-0.9,3.6-2.2c0-3.5-8.7-0.7-8.7-6c0-2.2,1.9-3.8,5.3-3.8
	c1.7,0,3.3,0.4,4.7,1.2l-0.8,1.4c-1.2-0.8-2.6-1.2-4-1.1c-2.4,0-3.5,0.9-3.5,2.2c0,3.6,8.7,0.9,8.7,6c0,2.3-2,3.8-5.6,3.8
	C618.7,405.3,616.8,404.7,615.3,403.6z"/>
<path d="M641.8,398.5c0,3.8-3,6.8-6.8,6.8c-3.8,0-6.8-3-6.8-6.8c0-3.8,3-6.8,6.8-6.8c0,0,0,0,0,0c1.4,0,1.9,0.2,3.2,0.2
	c1.4,0,2.1-0.8,2.1-1.8c0-0.6-0.2-1.1-0.5-1.6l1.2-0.5c0.4,0.6,0.7,1.4,0.7,2.1c0,1.4-1,2.7-2.5,2.8
	C640.9,394.2,641.9,396.3,641.8,398.5z M640,398.5c0-3.1-2.1-5.2-5-5.2s-5,2.1-5,5.2s2.1,5.2,5,5.2S640,401.6,640,398.5z
	 M636.1,408.9c0,0.6-0.5,1.1-1.1,1.1c-0.6,0-1.1-0.5-1.1-1.1c0-0.6,0.5-1.1,1.1-1.1c0,0,0,0,0,0
	C635.6,407.8,636.1,408.2,636.1,408.9C636.1,408.8,636.1,408.9,636.1,408.9L636.1,408.9z"/>
<path d="M645.1,387.5c0-0.7,0.6-1.3,1.3-1.3c0.7,0,1.3,0.5,1.3,1.2c0,0,0,0,0,0c-0.1,0.7-0.7,1.3-1.4,1.2
	C645.7,388.7,645.2,388.2,645.1,387.5L645.1,387.5z M645.5,391.8h1.8v13.4h-1.8L645.5,391.8z"/>
<path d="M657.7,398.5c-0.1-3.6,2.7-6.7,6.4-6.8c0.2,0,0.3,0,0.5,0c2.1-0.1,4.1,0.9,5.2,2.6l-1.4,0.9c-0.9-1.3-2.3-2-3.9-2
	c-2.9,0.1-5.1,2.5-5,5.4c0.1,2.7,2.3,4.9,5,5c1.5,0.1,3-0.7,3.9-2l1.4,0.9c-1.2,1.8-3.1,2.8-5.2,2.6c-3.6,0.2-6.7-2.7-6.9-6.3
	C657.7,398.8,657.7,398.6,657.7,398.5z"/>
<path d="M685.5,397.4v7.8h-1.8v-7.6c0-2.8-1.5-4.3-4-4.3c-2.9,0-4.7,1.8-4.7,4.8v7h-1.8v-18.9h1.8v7.8c1.1-1.6,3-2.6,5-2.4
	C683.2,391.7,685.5,393.5,685.5,397.4z"/>
<path d="M700.5,396.8v8.3h-1.7v-2.1c-0.8,1.4-2.4,2.2-4.6,2.2c-3,0-4.9-1.6-4.9-3.9c0-2.1,1.3-3.8,5.2-3.8h4.3v-0.8
	c0-2.3-1.3-3.5-3.8-3.5c-1.6,0-3.2,0.5-4.5,1.6l-0.8-1.4c1.5-1.2,3.5-1.9,5.4-1.8C698.5,391.7,700.5,393.4,700.5,396.8z
	 M692.6,389.7h-1.7l3.3-3.2h1.8l3.3,3.2h-1.7l-2.5-2.1L692.6,389.7z M698.7,401.1v-2.2h-4.2c-2.6,0-3.4,1-3.4,2.4
	c0,1.6,1.2,2.5,3.4,2.5C696.3,403.9,698,402.8,698.7,401.1L698.7,401.1z"/>
<path d="M717.7,397.4v7.8h-1.8v-7.6c0-2.8-1.5-4.3-4-4.3c-2.9,0-4.7,1.8-4.7,4.8v7h-1.8v-13.4h1.7v2.5c1.1-1.7,3.1-2.7,5.1-2.6
	C715.5,391.7,717.7,393.5,717.7,397.4z"/>
<path d="M751.4,397.4v7.8h-1.8v-7.6c0-2.8-1.4-4.3-3.8-4.3c-2.7,0-4.5,1.8-4.5,4.8v7h-1.8v-7.6c0-2.8-1.4-4.3-3.9-4.3
	c-2.7,0-4.5,1.8-4.5,4.8v7h-1.8v-13.4h1.7v2.4c1-1.7,2.9-2.7,4.9-2.5c2.2,0,4,0.9,4.8,2.8c1.1-1.8,3.1-2.9,5.3-2.8
	C749.3,391.7,751.4,393.5,751.4,397.4z"/>
<path d="M766.4,396.8v8.3h-1.7v-2.1c-0.8,1.4-2.4,2.2-4.6,2.2c-3,0-4.9-1.6-4.9-3.9c0-2.1,1.3-3.8,5.2-3.8h4.3v-0.8
	c0-2.3-1.3-3.5-3.8-3.5c-1.6,0-3.2,0.5-4.5,1.6l-0.8-1.4c1.5-1.2,3.5-1.9,5.4-1.8C764.4,391.7,766.4,393.4,766.4,396.8z
	 M760.9,389.7l-4.1-3.2h2.4l3.5,3.2H760.9z M764.6,401.1v-2.2h-4.2c-2.6,0-3.4,1-3.4,2.4c0,1.6,1.2,2.5,3.4,2.5
	C762.2,403.9,763.9,402.8,764.6,401.1L764.6,401.1z"/>
<path d="M782.3,391.8l-6.7,15c-1.1,2.6-2.5,3.5-4.5,3.5c-1.2,0-2.4-0.4-3.3-1.2l0.8-1.3c0.6,0.7,1.5,1.1,2.5,1.1
	c1.2,0,2-0.6,2.8-2.2l0.6-1.3l-6-13.4h1.9l5,11.4l5-11.4L782.3,391.8z"/>
<path d="M78.1,440.9c-0.8,0.6-1.8,1-2.8,0.9c-2.5,0-3.9-1.4-3.9-3.9v-8.1H69v-1.5h2.4v-2.9h1.8v2.9h4.1v1.5h-4.1v8
	c0,1.6,0.8,2.4,2.3,2.4c0.7,0,1.4-0.2,2-0.7L78.1,440.9z"/>
<path d="M93.4,429.6v12.1h-1.7v-2.4c-1,1.7-2.8,2.6-4.8,2.6c-3.4,0-5.6-1.9-5.6-5.7v-7.8h1.8v7.6c0,2.9,1.5,4.3,4,4.3
	c2.8,0,4.6-1.8,4.6-4.9v-7h0.9c0.9,0.1,1.6-0.6,1.7-1.5c0-0.1,0-0.1,0-0.2c0-0.6-0.2-1.2-0.5-1.6l1.2-0.5c0.4,0.6,0.7,1.4,0.7,2.1
	C95.8,428.1,94.8,429.4,93.4,429.6z M88.5,445.5c0,0.6-0.5,1.1-1.1,1.1c-0.6,0-1.1-0.5-1.1-1.1c0-0.6,0.5-1.1,1.1-1.1c0,0,0,0,0,0
	C87.9,444.4,88.4,444.8,88.5,445.5C88.5,445.4,88.5,445.4,88.5,445.5L88.5,445.5z"/>
<path d="M117.6,434v7.8h-1.8v-7.6c0-2.8-1.5-4.3-4-4.3c-2.9,0-4.7,1.8-4.7,4.8v7h-1.8v-13.4h1.7v2.5c1.1-1.7,3.1-2.7,5.1-2.6
	C115.4,428.2,117.6,430.1,117.6,434z"/>
<path d="M134.9,434v7.8h-1.8v-7.6c0-2.8-1.5-4.3-4-4.3c-2.9,0-4.7,1.8-4.7,4.8v7h-1.8v-18.9h1.8v7.8c1.1-1.6,3-2.6,5-2.4
	C132.6,428.2,134.9,430.1,134.9,434z"/>
<path d="M139.4,424.1c0-0.7,0.6-1.3,1.3-1.4c0.7,0,1.3,0.6,1.4,1.3c0,0.7-0.6,1.3-1.3,1.4c0,0,0,0,0,0
	C140,425.4,139.4,424.9,139.4,424.1C139.4,424.1,139.4,424.1,139.4,424.1z M139.8,428.3h1.8v13.4h-1.8V428.3z"/>
<path d="M158.3,435.6h-11.2c0.2,2.8,2.3,4.7,5.3,4.7c1.6,0,3.1-0.6,4.1-1.7l1,1.2c-1.3,1.5-3.2,2.3-5.2,2.2c-4.2,0-7-2.8-7-6.8
	s2.8-6.8,6.5-6.8c3.8,0,6.5,2.8,6.5,6.8C158.3,435.2,158.3,435.4,158.3,435.6z M147.1,434.2h9.5c-0.3-2.6-2.6-4.5-5.2-4.3
	C149.1,430.2,147.3,432,147.1,434.2z M149.3,426.3h-1.7l3.3-3.2h1.8l3.3,3.2h-1.7l-2.5-2.1L149.3,426.3z"/>
<path d="M174.3,434v7.8h-1.8v-7.6c0-2.8-1.5-4.3-4-4.3c-2.9,0-4.7,1.8-4.7,4.8v7H162v-13.4h1.7v2.5c1.1-1.7,3.1-2.7,5.1-2.6
	C172.1,428.2,174.3,430.1,174.3,434z"/>
<path d="M184,440.2l0.8-1.4c1.4,1,3.1,1.5,4.8,1.5c2.5,0,3.6-0.9,3.6-2.2c0-3.5-8.7-0.7-8.7-6c0-2.2,1.9-3.8,5.3-3.8
	c1.7,0,3.3,0.4,4.8,1.2l-0.8,1.4c-1.2-0.8-2.6-1.2-4-1.1c-2.4,0-3.5,0.9-3.5,2.2c0,3.6,8.7,0.9,8.7,6c0,2.3-2,3.8-5.5,3.8
	C187.5,441.9,185.6,441.3,184,440.2z"/>
<path d="M208.4,433.4v8.3h-1.7v-2.1c-0.8,1.4-2.4,2.2-4.6,2.2c-3,0-4.9-1.6-4.9-3.9c0-2.1,1.3-3.8,5.2-3.8h4.2v-0.8
	c0-2.3-1.3-3.5-3.8-3.5c-1.6,0-3.2,0.5-4.5,1.6l-0.8-1.4c1.6-1.2,3.5-1.9,5.4-1.8C206.5,428.2,208.4,430,208.4,433.4z M206.6,437.7
	v-2.2h-4.2c-2.6,0-3.4,1-3.4,2.4c0,1.6,1.2,2.5,3.4,2.5C204.2,440.5,205.9,439.4,206.6,437.7z M199.2,423.9h1.2
	c0.2,0.9,1.2,1.4,2.6,1.4s2.5-0.5,2.6-1.4h1.2c-0.2,1.6-1.8,2.5-3.9,2.5S199.4,425.5,199.2,423.9z M203.1,423.4h-1.6l3.1-2.8h2.2
	L203.1,423.4z"/>
<path d="M212,435c-0.1-3.6,2.7-6.7,6.4-6.8c0.2,0,0.3,0,0.5,0c2.1-0.1,4.1,0.9,5.2,2.6l-1.3,0.9c-0.9-1.3-2.3-2-3.9-2
	c-2.9,0.1-5.1,2.5-5,5.4c0.1,2.7,2.3,4.9,5,5c1.5,0.1,3-0.7,3.9-2l1.3,0.9c-1.2,1.8-3.1,2.8-5.2,2.6c-3.6,0.2-6.7-2.7-6.9-6.3
	C212,435.4,212,435.2,212,435z"/>
<path d="M246.7,434v7.8h-1.8v-7.6c0-2.8-1.5-4.3-4-4.3c-2.9,0-4.7,1.8-4.7,4.8v7h-1.8v-13.4h1.7v2.5c1.1-1.7,3.1-2.7,5.1-2.6
	C244.5,428.2,246.7,430.1,246.7,434z"/>
<path d="M263.3,435.6h-11.2c0.2,2.8,2.3,4.7,5.3,4.7c1.6,0.1,3.1-0.6,4.1-1.7l1,1.2c-1.3,1.5-3.2,2.3-5.2,2.2c-4.2,0-7-2.8-7-6.8
	s2.8-6.8,6.5-6.8s6.5,2.8,6.5,6.8C263.3,435.2,263.3,435.4,263.3,435.6z M252.1,434.2h9.5c-0.3-2.6-2.6-4.5-5.3-4.2
	C254.1,430.3,252.4,432,252.1,434.2z M257,426.3h-1.8l3.5-3.2h2.4L257,426.3z"/>
<path d="M274.1,440.9c-0.8,0.6-1.8,1-2.8,0.9c-2.5,0-3.9-1.4-3.9-3.9v-8.1H265v-1.5h2.4v-2.9h1.8v2.9h4.1v1.5h-4.1v8
	c0,1.6,0.8,2.4,2.3,2.4c0.7,0,1.4-0.2,2-0.7L274.1,440.9z"/>
<path d="M276.5,440.5c0-0.7,0.6-1.4,1.3-1.4c0,0,0,0,0,0c0.8,0,1.4,0.6,1.4,1.4c0,0,0,0,0,0c0,0.8-0.6,1.4-1.4,1.4
	C277,441.8,276.4,441.2,276.5,440.5C276.5,440.5,276.5,440.5,276.5,440.5z"/>
<g id="XMLID_26_">
	<rect x="72.5" y="24.2" class="st0" width="390.5" height="115.3"/>
</g>
<g>
	<path class="st1" d="M129.7,102.1V68.8l-8.4,6.5l-5.6-7.6l14.9-10.9h9.8v45.3H129.7z"/>
	<path class="st1" d="M190.6,89.1c0,2.4-0.5,4.5-1.4,6.2c-0.9,1.8-2.2,3.2-3.7,4.4c-1.6,1.2-3.4,2-5.4,2.6c-2.1,0.6-4.2,0.9-6.4,0.9
		c-2.3,0-4.4-0.3-6.5-0.9c-2-0.6-3.8-1.4-5.4-2.6c-1.6-1.2-2.8-2.6-3.7-4.4c-0.9-1.8-1.4-3.8-1.4-6.2c0-1.4,0.2-2.6,0.6-3.8
		c0.4-1.2,1-2.2,1.8-3.1c0.7-0.9,1.6-1.7,2.6-2.4c1-0.7,2-1.2,3.1-1.5v-0.1c-2-0.7-3.6-1.9-4.9-3.6c-1.3-1.6-2-3.7-2-6.2
		c0-2.1,0.4-3.9,1.3-5.6c0.9-1.6,2-3,3.5-4.1c1.4-1.1,3.1-1.9,5.1-2.5c1.9-0.6,3.9-0.8,6-0.8c2.1,0,4.1,0.3,6,0.8
		c1.9,0.5,3.6,1.3,5,2.4c1.4,1.1,2.6,2.4,3.5,4c0.9,1.6,1.3,3.4,1.3,5.5c0,2.5-0.6,4.6-1.9,6.3c-1.3,1.7-2.9,2.9-5,3.6v0.2
		c1.1,0.3,2.2,0.8,3.2,1.5c1,0.7,1.8,1.5,2.5,2.4c0.7,0.9,1.3,2,1.7,3.1C190.4,86.6,190.6,87.8,190.6,89.1z M179.9,88.8
		c0-1.7-0.6-3.2-1.8-4.4c-1.2-1.2-2.7-1.8-4.5-1.8c-1.9,0-3.4,0.6-4.6,1.7c-1.2,1.2-1.8,2.6-1.8,4.4c0,1.8,0.6,3.3,1.8,4.4
		c1.2,1.1,2.7,1.6,4.6,1.6c1.9,0,3.4-0.5,4.5-1.6C179.3,92.1,179.9,90.6,179.9,88.8z M179.1,69.1c0-1.5-0.5-2.7-1.6-3.7
		c-1.1-1-2.3-1.5-3.8-1.5c-1.6,0-2.9,0.5-3.9,1.5c-1,1-1.5,2.2-1.5,3.7c0,1.5,0.5,2.7,1.4,3.8c1,1.1,2.3,1.6,3.9,1.6
		c1.6,0,2.9-0.5,3.9-1.6C178.6,71.8,179.1,70.5,179.1,69.1z"/>
	<path class="st1" d="M232.8,71.7c0,2.7-0.5,5.1-1.4,7.3c-0.9,2.2-2.2,4.4-3.6,6.7l-10.9,16.3h-13l11.3-15.6l0.1-0.2
		c-0.5,0.2-1,0.3-1.6,0.4c-0.6,0.1-1.1,0.1-1.6,0.1c-2,0-3.9-0.4-5.7-1.1c-1.8-0.7-3.4-1.7-4.7-3c-1.4-1.3-2.4-2.9-3.3-4.7
		c-0.8-1.8-1.2-3.8-1.2-6c0-2.6,0.5-4.9,1.4-6.9c0.9-2,2.2-3.8,3.8-5.2c1.6-1.4,3.5-2.5,5.7-3.2c2.2-0.7,4.5-1.1,6.9-1.1
		c2.5,0,4.8,0.4,7,1.1c2.2,0.7,4.1,1.8,5.7,3.2c1.6,1.4,2.9,3.1,3.8,5.1C232.3,67,232.8,69.3,232.8,71.7z M222.1,71.6
		c0-2-0.6-3.7-1.9-5.1c-1.3-1.4-3-2.1-5.2-2.1c-2.2,0-3.9,0.7-5.2,2c-1.3,1.3-2,3.1-2,5.3c0,2,0.6,3.7,1.9,5.1c1.3,1.3,3,2,5.1,2
		c2.1,0,3.9-0.7,5.2-2C221.4,75.5,222.1,73.7,222.1,71.6z"/>
	<path class="st1" d="M245.6,110h-8.6l4.8-18.2h10L245.6,110z"/>
	<path class="st1" d="M293.2,79.3c0,3.2-0.3,6.3-1,9.2c-0.6,2.9-1.7,5.5-3.1,7.6c-1.4,2.2-3.2,3.9-5.5,5.2c-2.2,1.3-5,2-8.2,2
		c-3.2,0-5.9-0.7-8.2-2c-2.3-1.3-4.1-3-5.5-5.2c-1.4-2.2-2.5-4.7-3.1-7.6c-0.6-2.9-1-6-1-9.2c0-3.2,0.3-6.2,1-9.1
		c0.6-2.9,1.7-5.4,3.1-7.6c1.4-2.2,3.3-3.9,5.5-5.2c2.3-1.3,5-1.9,8.2-1.9c3.2,0,5.9,0.6,8.2,1.9c2.2,1.3,4.1,3,5.5,5.2
		c1.4,2.2,2.4,4.7,3.1,7.6C292.9,73.1,293.2,76.1,293.2,79.3z M282.2,79.3c0-1.4-0.1-3-0.3-4.7c-0.2-1.7-0.5-3.3-1-4.8
		c-0.5-1.5-1.1-2.7-2-3.7c-0.9-1-2-1.5-3.4-1.5s-2.6,0.5-3.5,1.5c-0.9,1-1.6,2.2-2.1,3.7c-0.5,1.5-0.8,3.1-1,4.8
		c-0.2,1.7-0.3,3.3-0.3,4.7c0,1.5,0.1,3,0.3,4.8c0.2,1.7,0.5,3.3,1,4.8c0.5,1.5,1.2,2.7,2.1,3.7c0.9,1,2,1.5,3.5,1.5
		s2.5-0.5,3.4-1.5c0.9-1,1.5-2.2,2-3.7c0.5-1.5,0.8-3.1,1-4.8C282.1,82.3,282.2,80.7,282.2,79.3z"/>
	<path class="st1" d="M334.6,79.3c0,3.2-0.3,6.3-1,9.2c-0.6,2.9-1.7,5.5-3.1,7.6c-1.4,2.2-3.2,3.9-5.5,5.2c-2.2,1.3-5,2-8.2,2
		c-3.2,0-5.9-0.7-8.2-2c-2.3-1.3-4.1-3-5.5-5.2c-1.4-2.2-2.5-4.7-3.1-7.6c-0.6-2.9-1-6-1-9.2c0-3.2,0.3-6.2,1-9.1
		c0.6-2.9,1.7-5.4,3.1-7.6c1.4-2.2,3.3-3.9,5.5-5.2c2.3-1.3,5-1.9,8.2-1.9c3.2,0,5.9,0.6,8.2,1.9c2.2,1.3,4.1,3,5.5,5.2
		c1.4,2.2,2.4,4.7,3.1,7.6C334.2,73.1,334.6,76.1,334.6,79.3z M323.6,79.3c0-1.4-0.1-3-0.3-4.7c-0.2-1.7-0.5-3.3-1-4.8
		c-0.5-1.5-1.1-2.7-2-3.7c-0.9-1-2-1.5-3.4-1.5s-2.6,0.5-3.5,1.5c-0.9,1-1.6,2.2-2.1,3.7c-0.5,1.5-0.8,3.1-1,4.8
		c-0.2,1.7-0.3,3.3-0.3,4.7c0,1.5,0.1,3,0.3,4.8c0.2,1.7,0.5,3.3,1,4.8c0.5,1.5,1.2,2.7,2.1,3.7c0.9,1,2,1.5,3.5,1.5
		s2.5-0.5,3.4-1.5c0.9-1,1.5-2.2,2-3.7c0.5-1.5,0.8-3.1,1-4.8C323.5,82.3,323.6,80.7,323.6,79.3z"/>
	<path class="st1" d="M375.9,79.3c0,3.2-0.3,6.3-1,9.2c-0.6,2.9-1.7,5.5-3.1,7.6c-1.4,2.2-3.2,3.9-5.5,5.2c-2.2,1.3-5,2-8.2,2
		c-3.2,0-5.9-0.7-8.2-2c-2.3-1.3-4.1-3-5.5-5.2c-1.4-2.2-2.5-4.7-3.1-7.6c-0.6-2.9-1-6-1-9.2c0-3.2,0.3-6.2,1-9.1
		c0.6-2.9,1.7-5.4,3.1-7.6c1.4-2.2,3.3-3.9,5.5-5.2c2.3-1.3,5-1.9,8.2-1.9c3.2,0,5.9,0.6,8.2,1.9c2.2,1.3,4.1,3,5.5,5.2
		c1.4,2.2,2.4,4.7,3.1,7.6C375.6,73.1,375.9,76.1,375.9,79.3z M364.9,79.3c0-1.4-0.1-3-0.3-4.7c-0.2-1.7-0.5-3.3-1-4.8
		c-0.5-1.5-1.1-2.7-2-3.7c-0.9-1-2-1.5-3.4-1.5s-2.6,0.5-3.5,1.5c-0.9,1-1.6,2.2-2.1,3.7c-0.5,1.5-0.8,3.1-1,4.8
		c-0.2,1.7-0.3,3.3-0.3,4.7c0,1.5,0.1,3,0.3,4.8c0.2,1.7,0.5,3.3,1,4.8c0.5,1.5,1.2,2.7,2.1,3.7c0.9,1,2,1.5,3.5,1.5
		s2.5-0.5,3.4-1.5c0.9-1,1.5-2.2,2-3.7c0.5-1.5,0.8-3.1,1-4.8C364.8,82.3,364.9,80.7,364.9,79.3z"/>
	<path class="st1" d="M407.1,102.1v-4.2h-0.1c-1,1.6-2.5,2.9-4.4,3.7c-1.9,0.9-3.9,1.3-6,1.3c-2.4,0-4.5-0.5-6.4-1.4
		c-1.9-0.9-3.5-2.2-4.8-3.7c-1.3-1.6-2.3-3.4-3-5.4c-0.7-2-1-4.2-1-6.4c0-2.2,0.4-4.3,1.1-6.4c0.7-2,1.7-3.8,3-5.3
		c1.3-1.5,2.9-2.8,4.7-3.6c1.9-0.9,3.9-1.3,6.2-1.3c2.3,0,4.3,0.4,6,1.3c1.6,0.9,2.9,1.9,3.8,2.9h0.1v-8h-9.5v-5.7h9.5v-6.2h10.5
		v6.2h2.9v5.7h-2.9v36.5H407.1z M406.7,86.1c0-1-0.2-2-0.5-3c-0.4-1-0.9-1.9-1.5-2.6c-0.7-0.8-1.5-1.4-2.4-1.9
		c-0.9-0.5-2-0.7-3.2-0.7c-1.2,0-2.3,0.2-3.3,0.7c-0.9,0.5-1.7,1.1-2.4,1.8c-0.6,0.7-1.1,1.6-1.4,2.6c-0.3,1-0.5,2-0.5,3
		s0.2,2,0.5,3c0.3,1,0.8,1.9,1.4,2.7c0.6,0.8,1.4,1.4,2.4,1.9c0.9,0.5,2,0.7,3.3,0.7c1.2,0,2.3-0.2,3.2-0.7c0.9-0.5,1.7-1.1,2.4-1.9
		c0.7-0.8,1.2-1.6,1.5-2.6C406.5,88.1,406.7,87.1,406.7,86.1z"/>
</g>
</svg>
