<svg id="Layer_1" data-name="Layer 1" xmlns="http://www.w3.org/2000/svg" viewBox="0 0 2006 967.99"><defs><style>.cls-1{fill:#c90202;}.cls-2{fill:#fff;}</style></defs><title>Image convert 1 fix text</title><path d="M171,533.1c0,19.53-14.64,31.68-38.06,31.68H115.24v24.16H95V501.3h37.93C156.31,501.3,171,513.45,171,533.1Zm-20.53,0c0-9.64-6.26-15.27-18.65-15.27H115.24v30.42h16.53C144.16,548.25,150.42,542.62,150.42,533.1Z"/><path d="M265.73,501.3v87.64H245.45V553H205.63v35.93H185.35V501.3h20.28v34.56h39.82V501.3Z"/><path d="M344.22,570.16H303.54l-7.77,18.78H275l39.06-87.64h20l39.19,87.64H352Zm-30.92-76H298.9l16.65-14.27h17l16.65,14.27h-14.4L324.07,487Zm24.54,60.6-13.9-33.55L310,554.76Zm15.4-72.61H339.09L353,467h19.9Z"/><path d="M462.78,501.3v87.64H446.13l-43.69-53.21v53.21h-20V501.3h16.77l43.57,53.21V501.3Z"/><path d="M598.75,588.94l-.13-52.58-25.79,43.32h-9.14L538,537.48v51.46H519V501.3h16.78l32.8,54.46,32.3-54.46h16.65l.26,87.64Z"/><path d="M696.27,570.16H655.58l-7.76,18.78H627L666.1,501.3h20l39.19,87.64H704Zm-6.39-15.4L676,521.21l-13.9,33.55ZM680,494.16H664.72l16.9-18h21Z"/><path d="M850.26,501.3v87.64H830V553H790.16v35.93H769.88V501.3h20.28v34.56H830V501.3Z"/><path d="M961.43,545.12c0,26.17-20.4,45.32-47.95,45.32s-48-19.28-48-45.32,20.28-45.32,48-45.32S961.43,519,961.43,545.12Zm-20.53,0c0-16.65-11.77-28-27.42-28s-27.42,11.39-27.42,28,11.77,28,27.42,28S940.9,561.77,940.9,545.12Zm-38.19-51H888.32L905,479.89h17l16.65,14.27h-14.4L913.48,487Zm33.31-12L916.36,467h19.91L950,482.15Z"/><path d="M1057.08,501.3v87.64h-16.65l-43.69-53.21v53.21h-20V501.3h16.78l43.57,53.21V501.3Z"/><path d="M1137.08,543.74h18.53V579.3c-9.64,7.26-22.91,11.14-35.43,11.14-27.55,0-47.83-18.9-47.83-45.32s20.28-45.32,48.2-45.32c15.4,0,28.17,5.26,36.69,15.15l-13,12a29.66,29.66,0,0,0-22.66-9.89c-17,0-28.68,11.39-28.68,28,0,16.4,11.65,28,28.43,28a32.23,32.23,0,0,0,15.77-3.75Z"/><path d="M86.81,646.63c0-12.14,9.32-20.82,21.86-20.82,7,0,12.77,2.53,16.57,7.13l-6,5.52a13,13,0,0,0-10.13-4.72c-7.54,0-12.88,5.3-12.88,12.89s5.34,12.89,12.88,12.89a12.83,12.83,0,0,0,10.13-4.78l6,5.52c-3.8,4.66-9.61,7.19-16.63,7.19C96.13,667.45,86.81,658.77,86.81,646.63Z"/><path d="M157.22,658.14h-18.7L135,666.76h-9.55l18-40.26h9.2l18,40.26h-9.78Zm-2.93-7.08-6.39-15.42-6.38,15.42Z"/><path d="M181.09,634.09H168.21V626.5h35.08v7.59H190.41v32.67h-9.32Z"/><path d="M245.23,626.5v40.26h-9.32V650.25H217.62v16.51H208.3V626.5h9.32v15.87h18.29V626.5Z"/><path d="M274.1,652.5v14.26h-9.31V652.38L249.2,626.5h9.89l10.76,17.89L280.6,626.5h9.15Z"/><path d="M309.94,626.5h18.29c13.18,0,22.21,7.94,22.21,20.13s-9,20.13-22.21,20.13H309.94Zm17.83,32.61c8,0,13.23-4.77,13.23-12.48s-5.23-12.48-13.23-12.48h-8.51v25Z"/><path d="M354.92,646.63c0-12,9.32-20.82,22-20.82s22,8.8,22,20.82-9.37,20.82-22,20.82S354.92,658.6,354.92,646.63Zm34.63,0c0-7.65-5.41-12.89-12.6-12.89s-12.6,5.24-12.6,12.89,5.41,12.89,12.6,12.89S389.55,654.28,389.55,646.63Z"/><path d="M406,626.5h9.32v32.67h20.19v7.59H406Z"/><path d="M440.74,626.5h9.32v32.67h20.19v7.59H440.74Z"/><path d="M528.41,666.76l-.06-24.16L516.5,662.51h-4.2l-11.79-19.39v23.64h-8.75V626.5h7.71l15.07,25,14.85-25H537l.11,40.26Z"/><path d="M573.22,658.14h-18.7L551,666.76H541.4l18-40.26h9.21l18,40.26h-9.78Zm-2.94-7.08-6.38-15.42-6.39,15.42Z"/><path d="M590.76,626.5h9.32v32.67h20.19v7.59H590.76Z"/><path d="M625.5,626.5h9.32v40.26H625.5Z"/><path d="M681.3,655.78c0,7-5.52,11-16.11,11H644.37V626.5H664c10.07,0,15.25,4.2,15.25,10.47a9.71,9.71,0,0,1-5.35,8.86A9.93,9.93,0,0,1,681.3,655.78Zm-27.67-22.27V643h9.26c4.55,0,7-1.61,7-4.78s-2.47-4.72-7-4.72Zm18.29,21.29c0-3.39-2.59-5-7.42-5H653.63v10H664.5C669.33,659.75,671.92,658.25,671.92,654.8Z"/><path d="M688,649.05V626.5h9.32v22.2c0,7.65,3.33,10.82,9,10.82s9-3.17,9-10.82V626.5h9.21v22.55c0,11.85-6.79,18.4-18.24,18.4S688,660.9,688,649.05Z"/><path d="M746.81,662.79l3.17-7a23.69,23.69,0,0,0,13.29,4.2c5.52,0,7.76-1.84,7.76-4.32,0-7.53-23.41-2.36-23.41-17.31,0-6.85,5.52-12.54,17-12.54,5.06,0,10.24,1.2,14,3.56l-2.88,7.08a22.71,22.71,0,0,0-11.16-3.16c-5.52,0-7.65,2.07-7.65,4.6,0,7.42,23.41,2.3,23.41,17.08,0,6.73-5.58,12.48-17.08,12.48C756.82,667.45,750.38,665.56,746.81,662.79Z"/><path d="M786.33,649.05V626.5h9.32v22.2c0,7.65,3.34,10.82,9,10.82s9-3.17,9-10.82V626.5h9.2v22.55c0,11.85-6.79,18.4-18.23,18.4S786.33,660.9,786.33,649.05Z"/><path d="M868.94,626.5v40.26h-7.66l-20.07-24.44v24.44H832V626.5h7.71l20,24.45V626.5Z"/><path d="M875.32,662.79l3.16-7a23.74,23.74,0,0,0,13.29,4.2c5.52,0,7.77-1.84,7.77-4.32,0-7.53-23.42-2.36-23.42-17.31,0-6.85,5.52-12.54,17-12.54,5.06,0,10.24,1.2,14,3.56l-2.87,7.08A22.74,22.74,0,0,0,893,633.29c-5.53,0-7.66,2.07-7.66,4.6,0,7.42,23.42,2.3,23.42,17.08,0,6.73-5.58,12.48-17.09,12.48C885.33,667.45,878.88,665.56,875.32,662.79Z"/><path d="M946.36,659.29v7.47H915.18V626.5h30.43V634H924.44v8.75h18.7V650h-18.7v9.32Z"/><path d="M962.12,634.09H949.23V626.5h35.09v7.59H971.44v32.67h-9.32Z"/><path d="M1042.54,655.78c0,7-5.53,11-16.11,11H1005.6V626.5h19.68c10.06,0,15.24,4.2,15.24,10.47a9.69,9.69,0,0,1-5.35,8.86A9.93,9.93,0,0,1,1042.54,655.78Zm-27.67-22.27V643h9.26c4.54,0,7-1.61,7-4.78s-2.47-4.72-7-4.72Zm18.29,21.29c0-3.39-2.59-5-7.42-5h-10.87v10h10.87C1030.57,659.75,1033.16,658.25,1033.16,654.8Z"/><path d="M1049.61,626.5h9.32v32.67h20.19v7.59h-29.51Z"/><path d="M1083.49,649.05V626.5h9.32v22.2c0,7.65,3.33,10.82,9,10.82s9-3.17,9-10.82V626.5h9.2v22.55c0,11.85-6.79,18.4-18.24,18.4S1083.49,660.9,1083.49,649.05Z"/><path d="M1126,662.79l3.16-7a23.71,23.71,0,0,0,13.29,4.2c5.52,0,7.76-1.84,7.76-4.32,0-7.53-23.41-2.36-23.41-17.31,0-6.85,5.52-12.54,17-12.54,5.06,0,10.24,1.2,14,3.56l-2.87,7.08a22.75,22.75,0,0,0-11.17-3.16c-5.52,0-7.65,2.07-7.65,4.6,0,7.42,23.42,2.3,23.42,17.08,0,6.73-5.58,12.48-17.09,12.48C1136,667.45,1129.56,665.56,1126,662.79Z"/><path d="M1202.79,626.5v40.26h-9.32V650.25h-18.29v16.51h-9.32V626.5h9.32v15.87h18.29V626.5Z"/><path d="M1243.52,659.29v7.47h-31.18V626.5h30.43V634H1221.6v8.75h18.69V650H1221.6v9.32Z"/><path d="M1276.59,666.76l-7.77-11.21h-8.57v11.21h-9.32V626.5h17.44c10.75,0,17.48,5.58,17.48,14.61a13.09,13.09,0,0,1-8.28,12.71l9,12.94Zm-8.74-32.67h-7.6v14h7.6c5.69,0,8.57-2.65,8.57-7S1273.54,634.09,1267.85,634.09Z"/><path d="M115.4,806.94h7.48v6.27h-8.23l-1.15,9.2H107l1.15-9.2H99.7l-1.15,9.2H92.1l1.15-9.2H85.72v-6.27H94l1.21-9.32H87.67v-6.27H96l1.15-9.2h6.44l-1.15,9.2h8.46l1.15-9.2h6.44l-1.15,9.2h7.48l.06,6.27h-8.29Zm-6.5,0,1.21-9.32h-8.46l-1.21,9.32Z"/><path d="M128.23,802.28c0-13.29,7.36-20.83,17.25-20.83s17.26,7.54,17.26,20.83-7.3,20.82-17.26,20.82S128.23,815.57,128.23,802.28Zm25.14,0c0-9.15-3.23-12.94-7.89-12.94s-7.82,3.79-7.82,12.94,3.22,12.94,7.82,12.94S153.37,811.43,153.37,802.28Z"/><path d="M182.47,782.15v40.26h-9.32V789.62H165.1v-7.47Z"/><path d="M205.13,818.44l3.17-7a23.68,23.68,0,0,0,13.28,4.19c5.53,0,7.77-1.84,7.77-4.31,0-7.54-23.41-2.36-23.41-17.32,0-6.84,5.52-12.54,17-12.54,5.06,0,10.24,1.21,14,3.57L234,792.1a22.73,22.73,0,0,0-11.16-3.17c-5.52,0-7.65,2.07-7.65,4.61,0,7.42,23.41,2.3,23.41,17.08,0,6.73-5.58,12.48-17.08,12.48C215.14,823.1,208.7,821.2,205.13,818.44Z"/><path d="M279.91,796.76c0,9-6.73,14.55-17.49,14.55h-8.11v11.1H245V782.15h17.43C273.18,782.15,279.91,787.73,279.91,796.76Zm-9.43,0c0-4.43-2.88-7-8.57-7h-7.6v14h7.6C267.6,803.72,270.48,801.13,270.48,796.76Z"/><path d="M312.18,822.41l-7.76-11.21h-8.58v11.21h-9.31V782.15H304c10.75,0,17.48,5.58,17.48,14.61a13.09,13.09,0,0,1-8.28,12.71l9,12.94Zm-8.74-32.67h-7.6v14h7.6c5.69,0,8.57-2.64,8.57-7S309.13,789.74,303.44,789.74Z"/><path d="M328.8,782.15h9.32v40.26H328.8Z"/><path d="M384.6,782.15v40.26H377L356.87,798v24.45h-9.2V782.15h7.71l20,24.44V782.15Z"/><path d="M421.36,801.65h8.51V818a27.77,27.77,0,0,1-16.28,5.12c-12.65,0-22-8.68-22-20.82s9.32-20.83,22.14-20.83c7.08,0,12.95,2.42,16.86,7l-6,5.53a13.64,13.64,0,0,0-10.42-4.55c-7.82,0-13.17,5.24-13.17,12.89s5.35,12.88,13.06,12.88a14.86,14.86,0,0,0,7.25-1.72Z"/><path d="M483.77,782.15v6l-15,34.22H458.69l14.44-32.67H459.78v6.56H451.5V782.15Z"/><path d="M516.67,801.65h8.52V818a27.77,27.77,0,0,1-16.28,5.12c-12.66,0-22-8.68-22-20.82s9.32-20.83,22.15-20.83c7.07,0,12.94,2.42,16.85,7l-6,5.53a13.62,13.62,0,0,0-10.41-4.55c-7.83,0-13.17,5.24-13.17,12.89s5.34,12.88,13.05,12.88a14.86,14.86,0,0,0,7.25-1.72Z"/><g id="_Rectangle_" data-name="&lt;Rectangle&gt;"><rect class="cls-1" x="77" y="78.49" width="921" height="272"/></g><path class="cls-2" d="M215.42,242.27V163.78l-19.92,15.4-13.13-18,35.15-25.81h23.11V242.27Z"/><path class="cls-2" d="M359,211.78a30.22,30.22,0,0,1-12.13,25.13A38,38,0,0,1,334,243.1a57.73,57.73,0,0,1-30.35,0A38.78,38.78,0,0,1,290.94,237a30.18,30.18,0,0,1-8.81-10.34,31,31,0,0,1-3.32-14.71,26.24,26.24,0,0,1,1.51-9,25.49,25.49,0,0,1,4.15-7.4A28.25,28.25,0,0,1,298,186.42v-.3a26.38,26.38,0,0,1-11.62-8.38q-4.68-5.81-4.68-14.71a27.79,27.79,0,0,1,3-13.13,28.38,28.38,0,0,1,8.15-9.59,36.69,36.69,0,0,1,11.92-5.81,51.19,51.19,0,0,1,14.19-2,51.86,51.86,0,0,1,14.11,1.89,36.35,36.35,0,0,1,11.85,5.66,28.5,28.5,0,0,1,8.22,9.43,26.71,26.71,0,0,1,3.1,13.06q0,8.89-4.53,14.94A23.79,23.79,0,0,1,339.94,186v.45a27.07,27.07,0,0,1,7.48,3.55,26.08,26.08,0,0,1,10,13A25.79,25.79,0,0,1,359,211.78Zm-25.21-.91a14,14,0,0,0-4.15-10.34A14.45,14.45,0,0,0,319,196.38a14.72,14.72,0,0,0-10.79,4.08A14,14,0,0,0,304,210.87q0,6.49,4.15,10.34A15.2,15.2,0,0,0,319,225.06q6.65,0,10.72-3.85T333.75,210.87Zm-2-46.48a11.43,11.43,0,0,0-3.77-8.76,13,13,0,0,0-9.06-3.47,12.47,12.47,0,0,0-9.21,3.47,11.91,11.91,0,0,0-3.47,8.76,12.83,12.83,0,0,0,3.4,8.9,11.84,11.84,0,0,0,9.28,3.77,12.21,12.21,0,0,0,9.21-3.77A12.43,12.43,0,0,0,331.79,164.39Z"/><path class="cls-2" d="M458.42,170.73A43.64,43.64,0,0,1,455.1,188a99.85,99.85,0,0,1-8.6,15.77l-25.79,38.49H390.1l26.58-36.83L417,205a19.09,19.09,0,0,1-3.7.9,26.25,26.25,0,0,1-3.84.3A36.3,36.3,0,0,1,396,203.7a34,34,0,0,1-11.15-7.09,34.3,34.3,0,0,1-10.54-25.28,38.73,38.73,0,0,1,3.31-16.3,35.7,35.7,0,0,1,9-12.23,40,40,0,0,1,13.41-7.62,51.92,51.92,0,0,1,32.69,0,39.23,39.23,0,0,1,13.34,7.62,36.55,36.55,0,0,1,9,12.08A37,37,0,0,1,458.42,170.73Zm-25.21-.31a17.51,17.51,0,0,0-4.47-12q-4.47-5.06-12.21-5.06t-12.35,4.75q-4.64,4.75-4.63,12.45a16.67,16.67,0,0,0,4.55,12q4.54,4.76,12.13,4.76t12.28-4.68Q433.21,178,433.21,170.42Z"/><path class="cls-2" d="M488.6,261H468.23l11.31-42.86h23.7Z"/><path class="cls-2" d="M601,188.54a99.92,99.92,0,0,1-2.26,21.58,55.13,55.13,0,0,1-7.25,18,37.45,37.45,0,0,1-12.9,12.38q-7.93,4.6-19.25,4.6t-19.31-4.6A37.84,37.84,0,0,1,527,228.15a54.15,54.15,0,0,1-7.32-18,99.92,99.92,0,0,1-2.26-21.58A98.87,98.87,0,0,1,519.69,167,52.52,52.52,0,0,1,527,149.22a37.75,37.75,0,0,1,13.06-12.15q8-4.53,19.31-4.53t19.25,4.53a37.35,37.35,0,0,1,12.9,12.15A53.47,53.47,0,0,1,598.78,167,98.87,98.87,0,0,1,601,188.54Zm-26,0q0-5-.6-11a55.2,55.2,0,0,0-2.27-11.25,24.43,24.43,0,0,0-4.75-8.75,10.23,10.23,0,0,0-8.08-3.55,10.46,10.46,0,0,0-8.15,3.55,24.52,24.52,0,0,0-4.9,8.75A51.42,51.42,0,0,0,544,177.52q-.6,6-.6,11c0,3.42.2,7.16.6,11.24a51.57,51.57,0,0,0,2.34,11.32,24.52,24.52,0,0,0,4.9,8.75,10.43,10.43,0,0,0,8.15,3.55,10.2,10.2,0,0,0,8.08-3.55,24.43,24.43,0,0,0,4.75-8.75,55.35,55.35,0,0,0,2.27-11.32C574.88,195.7,575.08,192,575.08,188.54Z"/><path class="cls-2" d="M698.54,188.54a100.55,100.55,0,0,1-2.26,21.58,55.13,55.13,0,0,1-7.25,18,37.45,37.45,0,0,1-12.9,12.38q-7.93,4.6-19.25,4.6t-19.32-4.6a37.9,37.9,0,0,1-13-12.38,54.15,54.15,0,0,1-7.32-18,99.92,99.92,0,0,1-2.27-21.58A98.86,98.86,0,0,1,617.19,167a52.52,52.52,0,0,1,7.32-17.81,37.81,37.81,0,0,1,13-12.15q8-4.53,19.32-4.53t19.25,4.53A37.35,37.35,0,0,1,689,149.22,53.47,53.47,0,0,1,696.28,167,99.49,99.49,0,0,1,698.54,188.54Zm-26,0q0-5-.6-11a55.2,55.2,0,0,0-2.27-11.25,24.43,24.43,0,0,0-4.75-8.75,10.24,10.24,0,0,0-8.08-3.55,10.46,10.46,0,0,0-8.15,3.55,24.52,24.52,0,0,0-4.9,8.75,51.42,51.42,0,0,0-2.34,11.25,109.19,109.19,0,0,0-.61,11c0,3.42.2,7.16.61,11.24a51.57,51.57,0,0,0,2.34,11.32,24.52,24.52,0,0,0,4.9,8.75,10.43,10.43,0,0,0,8.15,3.55,10.21,10.21,0,0,0,8.08-3.55,24.43,24.43,0,0,0,4.75-8.75A55.35,55.35,0,0,0,672,199.78C672.38,195.7,672.58,192,672.58,188.54Z"/><path class="cls-2" d="M796,188.54a99.92,99.92,0,0,1-2.27,21.58,55.12,55.12,0,0,1-7.24,18,37.4,37.4,0,0,1-12.91,12.38q-7.92,4.6-19.24,4.6t-19.32-4.6a37.9,37.9,0,0,1-13-12.38,54.15,54.15,0,0,1-7.32-18,99.92,99.92,0,0,1-2.27-21.58A98.86,98.86,0,0,1,714.69,167,52.52,52.52,0,0,1,722,149.22a37.81,37.81,0,0,1,13-12.15q8-4.53,19.32-4.53t19.24,4.53a37.29,37.29,0,0,1,12.91,12.15A53.46,53.46,0,0,1,793.77,167,98.86,98.86,0,0,1,796,188.54Zm-26,0a109.19,109.19,0,0,0-.61-11,54.54,54.54,0,0,0-2.26-11.25,24.43,24.43,0,0,0-4.75-8.75,10.24,10.24,0,0,0-8.08-3.55,10.45,10.45,0,0,0-8.15,3.55,24.52,24.52,0,0,0-4.9,8.75A51.42,51.42,0,0,0,739,177.52a109.19,109.19,0,0,0-.61,11c0,3.42.2,7.16.61,11.24a51.57,51.57,0,0,0,2.34,11.32,24.52,24.52,0,0,0,4.9,8.75,10.41,10.41,0,0,0,8.15,3.55,10.21,10.21,0,0,0,8.08-3.55,24.43,24.43,0,0,0,4.75-8.75,54.69,54.69,0,0,0,2.26-11.32C769.88,195.7,770.08,192,770.08,188.54Z"/><path class="cls-2" d="M869.54,242.27v-9.82h-.3a23.51,23.51,0,0,1-10.34,8.83,35.18,35.18,0,0,1-29.36-.22,34.62,34.62,0,0,1-11.24-8.83,38.74,38.74,0,0,1-7-12.75,47.42,47.42,0,0,1-2.41-15.1,45.41,45.41,0,0,1,2.49-15,39.24,39.24,0,0,1,7.09-12.61A33.1,33.1,0,0,1,844.33,165a28.71,28.71,0,0,1,14,3.17,31.15,31.15,0,0,1,8.9,6.94h.31V156.24H845.09V142.8h22.49V128.16h24.75V142.8h6.94v13.44h-6.94v86Zm-.91-37.74a20.46,20.46,0,0,0-1.28-7.09,20.17,20.17,0,0,0-3.62-6.19,18.12,18.12,0,0,0-5.66-4.38,16.76,16.76,0,0,0-7.55-1.66,17.11,17.11,0,0,0-7.7,1.66,17.44,17.44,0,0,0-9,10.42,22.86,22.86,0,0,0-1.13,7.09,23.55,23.55,0,0,0,1.13,7.17,18.57,18.57,0,0,0,3.4,6.27,16.69,16.69,0,0,0,13.28,6,16.63,16.63,0,0,0,7.55-1.66,18,18,0,0,0,5.66-4.37,20.61,20.61,0,0,0,4.9-13.29Z"/></svg>