<svg id="Layer_1" data-name="Layer 1" xmlns="http://www.w3.org/2000/svg" viewBox="0 0 2006 912.99"><defs><style>.cls-1{fill:#c90202;}.cls-2{fill:#fff;}</style></defs><title>Image convert 1 body care fix text</title><path d="M79.37,475.28l5.5-12.2a41.17,41.17,0,0,0,23.1,7.3c9.6,0,13.5-3.2,13.5-7.5,0-13.1-40.7-4.1-40.7-30.1,0-11.9,9.6-21.8,29.5-21.8,8.8,0,17.8,2.1,24.3,6.2l-5,12.3a39.54,39.54,0,0,0-19.4-5.5c-9.6,0-13.3,3.6-13.3,8,0,12.9,40.7,4,40.7,29.7,0,11.7-9.7,21.7-29.7,21.7C96.77,483.38,85.57,480.08,79.37,475.28Z"/><path d="M211.47,421.78v29.6c0,20.6-11.8,32-31.7,32s-31.7-11.4-31.7-32v-39.2h16.2v38.6c0,13.3,5.8,18.8,15.6,18.8s15.6-5.5,15.6-18.8v-38.6h10.4c3.6,0,6-2.6,6-6.3a9.61,9.61,0,0,0-2-6l9.2-3.4a16.16,16.16,0,0,1,3.2,10C222.27,414.38,218.37,419.88,211.47,421.78Zm-42.9-15.7h-7.9c.2-8.9,4.7-14.6,11.7-14.6s10.4,6.4,14,6.4c2.7,0,4.6-2.1,4.8-5.4h7.9c-.2,8.6-4.7,14.3-11.7,14.3s-10.4-6.3-14-6.3C170.67,400.48,168.77,402.48,168.57,406.08Z"/><path d="M273.37,467.18h-32.5l-6.2,15h-16.6l31.2-70h16l31.3,70h-17Zm-5.1-12.3-11.1-26.8-11.1,26.8Z"/><path d="M346.66,425.38h-22.4v-13.2h61v13.2h-22.4v56.8H346.66Z"/><path d="M436.57,467.18h-32.5l-6.2,15H381.26l31.21-70h16l31.3,70h-17Zm-34.5-72.1h9.4c.4,2.8,4,4.7,9,4.7s8.6-1.9,9-4.7h9.4c-.7,7.5-8.1,12.2-18.4,12.2S402.77,402.58,402.07,395.08Zm29.4,59.8-11.1-26.8-11.1,26.8Zm-8.3-62.8h-11.3L423,380h15.9Z"/><path d="M530.77,482.18l-.1-42-20.6,34.6h-7.3l-20.5-33.7v41.1H467.06v-70h13.4l26.21,43.5,25.8-43.5h13.3l.2,70Z"/><path d="M655.07,412.18v70H641.76l-34.9-42.5v42.5h-16v-70h13.4l34.8,42.5v-42.5Z"/><path d="M719,446.08h14.81v28.4c-7.71,5.8-18.31,8.9-28.31,8.9-22,0-38.2-15.1-38.2-36.2s16.2-36.2,38.5-36.2c12.3,0,22.5,4.2,29.31,12.1l-10.41,9.6a23.69,23.69,0,0,0-18.1-7.9c-13.6,0-22.9,9.1-22.9,22.4,0,13.1,9.3,22.4,22.7,22.4a25.72,25.72,0,0,0,12.6-3Z"/><path d="M744.36,447.18c0-20.8,16.2-36.2,38.3-36.2S821,426.28,821,447.18s-16.31,36.2-38.31,36.2S744.36,468,744.36,447.18Zm60.2,0c0-13.3-9.4-22.4-21.9-22.4s-21.9,9.1-21.9,22.4,9.4,22.4,21.9,22.4S804.56,460.48,804.56,447.18Zm-28.8,49.3a6.9,6.9,0,1,1,13.8,0c0,4.1-3,6.7-6.9,6.7S775.76,500.58,775.76,496.48Z"/><path d="M828.76,447.18c0-21.1,16.2-36.2,38-36.2,12.1,0,22.2,4.4,28.8,12.4l-10.4,9.6a22.52,22.52,0,0,0-17.6-8.2c-13.1,0-22.4,9.2-22.4,22.4s9.3,22.4,22.4,22.4a22.31,22.31,0,0,0,17.6-8.3l10.4,9.6c-6.6,8.1-16.7,12.5-28.9,12.5C845,483.38,828.76,468.28,828.76,447.18Z"/><path d="M949.26,425.38h-22.4v-13.2h61v13.2h-22.4v56.8h-16.2Z"/><path d="M1041.16,482.18l-13.5-19.5h-14.9v19.5h-16.2v-70h30.3c18.7,0,30.4,9.7,30.4,25.4,0,10.5-5.3,18.2-14.4,22.1l15.7,22.5Zm-15.2-56.8h-13.2v24.4H1026c9.9,0,14.9-4.6,14.9-12.2S1035.86,425.38,1026,425.38Z"/><path d="M1116.16,467.18h-32.5l-6.2,15h-16.6l31.2-70h16l31.3,70h-17Zm-5.1-12.3-11.1-26.8-11.1,26.8Z"/><path d="M1146.65,412.18h16.21v70h-16.21Z"/><path d="M1275.06,412.18l-30.3,70h-16l-30.2-70h17.5l21.3,50,21.61-50Z"/><path d="M1324.66,467.18h-32.51l-6.2,15h-16.6l31.2-70h16l31.31,70h-17Zm-19.21-60.7-18.1-14.4h16.8l13.5,14.4Zm14.11,48.4-11.11-26.8-11.1,26.8Z"/><path d="M1447.65,412.18v70h-16.2v-28.7h-31.8v28.7h-16.2v-70h16.2v27.6h31.8v-27.6Z"/><path d="M1459.85,447.18c0-20.8,16.2-36.2,38.3-36.2s38.3,15.3,38.3,36.2-16.3,36.2-38.3,36.2S1459.85,468,1459.85,447.18Zm60.2,0c0-13.3-9.4-22.4-21.9-22.4s-21.9,9.1-21.9,22.4,9.4,22.4,21.9,22.4S1520.05,460.48,1520.05,447.18Z"/><path d="M1593.75,467.18h-32.5l-6.2,15h-16.6l31.2-70h16l31.3,70h-17Zm-5.1-12.3-11.1-26.8-11.1,26.8Z"/><path d="M1716.75,412.18v70h-16.2v-28.7h-31.8v28.7h-16.2v-70h16.2v27.6h31.8v-27.6Z"/><path d="M1805.55,447.18c0,20.9-16.3,36.2-38.3,36.2S1729,468,1729,447.18s16.2-36.2,38.3-36.2S1805.55,426.28,1805.55,447.18Zm-16.4,0c0-13.3-9.4-22.4-21.9-22.4s-21.9,9.1-21.9,22.4,9.4,22.4,21.9,22.4S1789.15,460.48,1789.15,447.18Zm-30.5-40.7h-11.5l13.3-11.4h13.6l13.3,11.4h-11.5l-8.6-5.7Zm26.6-9.6-15.7-12.1h15.9l11,12.1Z"/><path d="M1882,412.18v70h-13.3l-34.9-42.5v42.5h-16v-70h13.4l34.8,42.5v-42.5Z"/><path d="M1945.85,446.08h14.8v28.4c-7.7,5.8-18.3,8.9-28.3,8.9-22,0-38.2-15.1-38.2-36.2s16.2-36.2,38.5-36.2c12.3,0,22.5,4.2,29.3,12.1l-10.4,9.6a23.69,23.69,0,0,0-18.1-7.9c-13.6,0-22.9,9.1-22.9,22.4,0,13.1,9.3,22.4,22.7,22.4a25.72,25.72,0,0,0,12.6-3Z"/><path d="M78.91,539c0-12.66,9.72-21.72,22.8-21.72,7.26,0,13.32,2.64,17.28,7.44l-6.24,5.76a13.51,13.51,0,0,0-10.56-4.92c-7.86,0-13.44,5.52-13.44,13.44s5.58,13.44,13.44,13.44a13.38,13.38,0,0,0,10.56-5l6.24,5.76c-4,4.86-10,7.5-17.34,7.5C88.63,560.73,78.91,551.67,78.91,539Z"/><path d="M152.35,551h-19.5l-3.72,9h-10l18.72-42h9.6l18.78,42h-10.2Zm-3.06-7.38-6.66-16.08L136,543.63Z"/><path d="M177.25,525.93H163.81V518h36.6v7.92H187V560h-9.72Z"/><path d="M244.15,518v42h-9.72V542.79H215.35V560h-9.72V518h9.72v16.56h19.08V518Z"/><path d="M274.27,545.13V560h-9.72V545l-16.26-27h10.32l11.22,18.66L281.05,518h9.54Z"/><path d="M311.65,518h19.08c13.73,0,23.15,8.28,23.15,21s-9.42,21-23.15,21H311.65Zm18.6,34c8.33,0,13.79-5,13.79-13s-5.46-13-13.79-13h-8.88v26Z"/><path d="M358.56,539c0-12.48,9.72-21.72,23-21.72s23,9.18,23,21.72-9.78,21.72-23,21.72S358.56,551.49,358.56,539Zm36.12,0c0-8-5.64-13.44-13.14-13.44S368.4,531,368.4,539s5.64,13.44,13.14,13.44S394.68,547,394.68,539Z"/><path d="M411.84,518h9.72v34.08h21.06V560H411.84Z"/><path d="M448.08,518h9.72v34.08h21.06V560H448.08Z"/><path d="M528.06,560l-8.1-11.7H511V560H501.3V518h18.18c11.22,0,18.24,5.82,18.24,15.24a13.65,13.65,0,0,1-8.64,13.26L538.5,560Zm-9.12-34.08H511v14.64h7.92c5.94,0,8.94-2.76,8.94-7.32S524.88,525.93,518.94,525.93Z"/><path d="M577.92,552.21V560H545.4V518h31.74v7.8H555.06v9.12h19.5v7.56h-19.5v9.72Z"/><path d="M613.32,551h-19.5l-3.72,9h-10l18.72-42h9.6l18.78,42H617Zm-3.06-7.38-6.66-16.08-6.66,16.08Z"/><path d="M631.62,518H650.7c13.74,0,23.16,8.28,23.16,21s-9.42,21-23.16,21H631.62Zm18.6,34c8.34,0,13.8-5,13.8-13s-5.46-13-13.8-13h-8.88v26Z"/><path d="M699.54,545.13V560h-9.72V545l-16.26-27h10.32l11.22,18.66L706.32,518h9.54Z"/><path d="M765.66,552.09V560H733.92v-6.3l16.2-15.3c3.72-3.54,4.38-5.7,4.38-7.74,0-3.3-2.28-5.22-6.72-5.22a10.27,10.27,0,0,0-8.7,4.2L732,525.09c3.24-4.74,9.12-7.8,16.68-7.8,9.36,0,15.6,4.8,15.6,12.42,0,4.08-1.14,7.8-7,13.26l-9.66,9.12Z"/><path d="M852.78,518,839,560H828.6l-9.24-28.44L809.82,560H799.44l-13.8-42h10.08l9.48,29.52L815.1,518h9l9.6,29.76L843.48,518Z"/><path d="M896.7,518v42H887V542.79H867.9V560h-9.72V518h9.72v16.56H887V518Z"/><path d="M906.66,518h9.72v42h-9.72Z"/><path d="M935,525.93H921.6V518h36.6v7.92H944.76V560H935Z"/><path d="M995.94,552.21V560H963.42V518h31.74v7.8H973.08v9.12h19.5v7.56h-19.5v9.72Z"/><path d="M1057.07,533.25c0,9.36-7,15.18-18.24,15.18h-8.45V560h-9.72V518h18.17C1050.05,518,1057.07,523.83,1057.07,533.25Zm-9.84,0c0-4.62-3-7.32-8.94-7.32h-7.91v14.58h7.91C1044.23,540.51,1047.23,537.81,1047.23,533.25Z"/><path d="M1096.49,552.21V560H1064V518h31.73v7.8h-22.07v9.12h19.49v7.56h-19.49v9.72Z"/><path d="M1131.89,551H1112.4l-3.73,9h-10l18.71-42h9.6l18.78,42h-10.2Zm-3.06-7.38-6.66-16.08-6.66,16.08Z"/><path d="M1177,560l-8.1-11.7h-8.94V560h-9.72V518h18.18c11.22,0,18.24,5.82,18.24,15.24a13.65,13.65,0,0,1-8.64,13.26l9.42,13.5Zm-9.12-34.08h-7.92v14.64h7.92c5.94,0,8.94-2.76,8.94-7.32S1173.77,525.93,1167.83,525.93Z"/><path d="M1194.29,518H1204v34.08h21.06V560h-30.78Z"/><path d="M1279.79,560.73l-5-4.68a22.47,22.47,0,0,1-14,4.68c-9.24,0-16-4.8-16-11.52,0-5.28,2.82-8.94,9.24-12.54-3.06-3.18-4.32-5.88-4.32-8.88,0-6.12,5.16-10.32,13.08-10.32,7.26,0,12.06,3.72,12.06,9.66,0,4.32-2.52,7.5-8.22,10.62l7.68,7.14a27,27,0,0,0,2.1-6.54l7.5,2.34a27.7,27.7,0,0,1-3.84,9.54l4.92,4.56ZM1269.23,551l-10.14-9.48c-3.84,2.22-5.22,4.14-5.22,6.72,0,3.06,2.88,5.22,7.5,5.22A13.43,13.43,0,0,0,1269.23,551Zm-11.1-23.28c0,1.62.66,2.82,3.24,5.34,4.14-2.22,5.46-3.78,5.46-5.7s-1.44-3.48-4.14-3.48C1259.81,523.83,1258.13,525.45,1258.13,527.67Z"/><path d="M108.31,637.83l-8.1-11.7H91.27v11.7H81.55v-42H99.73c11.22,0,18.24,5.82,18.24,15.24a13.65,13.65,0,0,1-8.64,13.26l9.42,13.5Zm-9.12-34.08H91.27v14.64h7.92c5.94,0,8.94-2.76,8.94-7.32S105.13,603.75,99.19,603.75Z"/><path d="M123,616.83c0-12.48,9.72-21.72,23-21.72s23,9.18,23,21.72-9.77,21.72-23,21.72S123,629.31,123,616.83Zm36.11,0c0-8-5.63-13.44-13.13-13.44s-13.14,5.46-13.14,13.44,5.64,13.44,13.14,13.44S159.12,624.81,159.12,616.83Z"/><path d="M173,633.69l3.3-7.32a24.7,24.7,0,0,0,13.86,4.38c5.76,0,8.1-1.92,8.1-4.5,0-7.86-24.42-2.46-24.42-18.06,0-7.14,5.76-13.08,17.7-13.08,5.28,0,10.68,1.26,14.57,3.72l-3,7.38a23.66,23.66,0,0,0-11.63-3.3c-5.76,0-8,2.16-8,4.8,0,7.74,24.41,2.4,24.41,17.82,0,7-5.82,13-17.81,13C183.43,638.55,176.71,636.57,173,633.69Z"/><path d="M247.08,630v7.8H214.57v-42H246.3v7.8H224.22v9.12h19.5v7.56h-19.5V630Z"/><path d="M268.5,633.69l3.3-7.32a24.7,24.7,0,0,0,13.86,4.38c5.76,0,8.1-1.92,8.1-4.5,0-7.86-24.42-2.46-24.42-18.06,0-7.14,5.76-13.08,17.7-13.08,5.28,0,10.68,1.26,14.58,3.72l-3,7.38a23.72,23.72,0,0,0-11.64-3.3c-5.76,0-8,2.16-8,4.8,0,7.74,24.42,2.4,24.42,17.82,0,7-5.82,13-17.82,13C278.94,638.55,272.22,636.57,268.5,633.69Z"/><path d="M342.6,630v7.8H310.08v-42h31.74v7.8H319.74v9.12h19.5v7.56h-19.5V630Z"/><path d="M377.1,637.83l-8.1-11.7h-8.94v11.7h-9.72v-42h18.18c11.22,0,18.24,5.82,18.24,15.24a13.65,13.65,0,0,1-8.64,13.26l9.42,13.5ZM368,603.75h-7.92v14.64H368c5.94,0,8.94-2.76,8.94-7.32S373.92,603.75,368,603.75Z"/><path d="M394.08,619.35V595.83h9.72V619c0,8,3.48,11.28,9.36,11.28s9.36-3.3,9.36-11.28V595.83h9.6v23.52c0,12.36-7.08,19.2-19,19.2S394.08,631.71,394.08,619.35Z"/><path d="M479.94,637.83l-.06-25.2-12.36,20.76h-4.38l-12.3-20.22v24.66h-9.12v-42h8l15.72,26.1L481,595.83h8l.12,42Z"/><path d="M554.52,626.37c0,7.26-5.76,11.46-16.8,11.46H516v-42h20.52c10.5,0,15.9,4.38,15.9,10.92a10.1,10.1,0,0,1-5.58,9.24A10.37,10.37,0,0,1,554.52,626.37Zm-28.86-23.22v9.9h9.66c4.74,0,7.32-1.68,7.32-5s-2.58-4.92-7.32-4.92Zm19.08,22.2c0-3.54-2.7-5.22-7.74-5.22H525.66v10.38H537C542,630.51,544.74,629,544.74,625.35Z"/><path d="M559.26,616.83c0-12.48,9.72-21.72,23-21.72s23,9.18,23,21.72-9.78,21.72-23,21.72S559.26,629.31,559.26,616.83Zm36.12,0c0-8-5.64-13.44-13.14-13.44s-13.14,5.46-13.14,13.44,5.64,13.44,13.14,13.44S595.38,624.81,595.38,616.83Z"/><path d="M612.54,595.83h19.08c13.74,0,23.16,8.28,23.16,21s-9.42,21-23.16,21H612.54Zm18.6,34c8.34,0,13.8-5,13.8-13s-5.46-13-13.8-13h-8.88v26Z"/><path d="M680.46,623v14.88h-9.72v-15l-16.26-27H664.8L676,614.49l11.22-18.66h9.54Z"/><path d="M756.36,626.37c0,7.26-5.76,11.46-16.8,11.46H717.84v-42h20.52c10.5,0,15.9,4.38,15.9,10.92a10.1,10.1,0,0,1-5.58,9.24A10.37,10.37,0,0,1,756.36,626.37ZM727.5,603.15v9.9h9.66c4.74,0,7.32-1.68,7.32-5s-2.58-4.92-7.32-4.92Zm19.08,22.2c0-3.54-2.7-5.22-7.74-5.22H727.5v10.38h11.34C743.88,630.51,746.58,629,746.58,625.35Z"/><path d="M791.4,628.83H771.9l-3.72,9h-10l18.72-42h9.6l18.78,42h-10.2Zm-3.06-7.38-6.66-16.08L775,621.45Z"/><path d="M816.3,603.75H802.86v-7.92h36.6v7.92H826v34.08H816.3Z"/><path d="M883.2,595.83v42h-9.72V620.61H854.4v17.22h-9.72v-42h9.72v16.56h19.08V595.83Z"/><path d="M907.5,616.83c0-12.66,9.72-21.72,22.8-21.72,7.26,0,13.32,2.64,17.28,7.44l-6.24,5.76a13.51,13.51,0,0,0-10.56-4.92c-7.86,0-13.44,5.52-13.44,13.44s5.58,13.44,13.44,13.44a13.38,13.38,0,0,0,10.56-5l6.24,5.76c-4,4.86-10,7.5-17.34,7.5C917.22,638.55,907.5,629.49,907.5,616.83Z"/><path d="M980.88,637.83l-8.1-11.7h-8.94v11.7h-9.72v-42H972.3c11.21,0,18.23,5.82,18.23,15.24a13.66,13.66,0,0,1-8.63,13.26l9.41,13.5Zm-9.12-34.08h-7.92v14.64h7.92c5.94,0,8.93-2.76,8.93-7.32S977.7,603.75,971.76,603.75Z"/><path d="M1030.73,630v7.8H998.22v-42H1030v7.8h-22.07v9.12h19.49v7.56h-19.49V630Z"/><path d="M1066.13,628.83h-19.5l-3.72,9h-10l18.71-42h9.6l18.78,42h-10.2Zm-3.06-7.38-6.66-16.08-6.66,16.08Z"/><path d="M1122.65,637.83l-.06-25.2-12.36,20.76h-4.38l-12.3-20.22v24.66h-9.12v-42h8l15.72,26.1,15.48-26.1h8l.12,42Z"/><path d="M110.65,780.28c0,7.44-5.46,13.92-17.46,13.92-5.82,0-11.94-1.62-16-4.5L81,782.26A20.21,20.21,0,0,0,93,786c4.86,0,7.86-2,7.86-5.46s-2.16-5.46-9.78-5.46H80.29l2.16-23.64h25.62v7.8H90.55l-.66,8h3.42C105.73,767.26,110.65,772.84,110.65,780.28Z"/><path d="M114.61,772.48c0-13.86,7.68-21.72,18-21.72s18,7.86,18,21.72-7.61,21.72-18,21.72S114.61,786.34,114.61,772.48Zm26.22,0c0-9.54-3.36-13.5-8.22-13.5s-8.16,4-8.16,13.5,3.36,13.5,8.16,13.5S140.83,782,140.83,772.48Z"/><path d="M155.35,772.48c0-13.86,7.68-21.72,18-21.72s18,7.86,18,21.72-7.62,21.72-18,21.72S155.35,786.34,155.35,772.48Zm26.21,0c0-9.54-3.35-13.5-8.21-13.5s-8.16,4-8.16,13.5,3.36,13.5,8.16,13.5S181.56,782,181.56,772.48Z"/><path d="M236.94,793.48l-.06-25.2L224.52,789h-4.38l-12.3-20.22v24.66h-9.12v-42h8l15.72,26.1L238,751.48h8l.12,42Z"/><path d="M256,751.48h9.72v34.08H286.8v7.92H256Z"/><g id="_Rectangle_" data-name="&lt;Rectangle&gt;"><rect class="cls-1" x="77" y="60.49" width="921" height="272"/></g><path class="cls-2" d="M212.1,244.19V165.71L192.18,181.1l-13.13-18,35.15-25.81h23.11V244.19Z"/><path class="cls-2" d="M354.73,208.87a38.66,38.66,0,0,1-3.47,17A34.06,34.06,0,0,1,342,237.7a40.23,40.23,0,0,1-13.21,7,50.22,50.22,0,0,1-15.24,2.34,49.64,49.64,0,0,1-13.81-1.89,44.13,44.13,0,0,1-11.93-5.36,35.94,35.94,0,0,1-9.2-8.53,33.8,33.8,0,0,1-5.66-11.39L296,212.8a17.89,17.89,0,0,0,6.26,9.2,18.22,18.22,0,0,0,22.19-.3q4.75-3.93,4.75-11.62a14.63,14.63,0,0,0-2-7.85,15.3,15.3,0,0,0-5.06-5.06,21.25,21.25,0,0,0-7-2.64,41.82,41.82,0,0,0-7.85-.75,77,77,0,0,0-13.06,1.28,75.79,75.79,0,0,0-13,3.4l2.56-61.13H349.3v21.74h-43l-.9,16.9a32.32,32.32,0,0,1,5.35-.83c2-.15,3.75-.23,5.36-.23A52.56,52.56,0,0,1,331.18,177a34.5,34.5,0,0,1,12.3,6.41,30.61,30.61,0,0,1,8.23,10.64A34.11,34.11,0,0,1,354.73,208.87Z"/><path class="cls-2" d="M455.09,172.65a43.6,43.6,0,0,1-3.31,17.28,100.66,100.66,0,0,1-8.6,15.77l-25.79,38.49H386.78l26.58-36.83.31-.45a19.09,19.09,0,0,1-3.7.9,25,25,0,0,1-3.84.31,36.3,36.3,0,0,1-13.41-2.49,34.06,34.06,0,0,1-11.15-7.1A34.26,34.26,0,0,1,371,173.25a38.76,38.76,0,0,1,3.31-16.3,35.66,35.66,0,0,1,9-12.22,40,40,0,0,1,13.41-7.62,51.73,51.73,0,0,1,32.69,0,39.23,39.23,0,0,1,13.34,7.62,36.51,36.51,0,0,1,9,12.07A37,37,0,0,1,455.09,172.65Zm-25.2-.3a17.52,17.52,0,0,0-4.47-12q-4.47-5.06-12.21-5.06t-12.35,4.76q-4.64,4.75-4.63,12.45a16.67,16.67,0,0,0,4.55,12q4.55,4.75,12.13,4.75t12.28-4.68Q429.89,179.89,429.89,172.35Z"/><path class="cls-2" d="M485.28,262.9H464.9L476.22,220h23.7Z"/><path class="cls-2" d="M597.72,190.46A100.55,100.55,0,0,1,595.46,212a55.19,55.19,0,0,1-7.25,18,37.52,37.52,0,0,1-12.9,12.37q-7.93,4.61-19.25,4.61t-19.32-4.61a38,38,0,0,1-13-12.37,54.2,54.2,0,0,1-7.32-18,99.92,99.92,0,0,1-2.26-21.58A98.87,98.87,0,0,1,516.37,169a52.52,52.52,0,0,1,7.32-17.81,37.81,37.81,0,0,1,13-12.15q8-4.53,19.32-4.53T575.31,139a37.35,37.35,0,0,1,12.9,12.15A53.47,53.47,0,0,1,595.46,169,99.49,99.49,0,0,1,597.72,190.46Zm-26,0q0-5-.6-11a55.24,55.24,0,0,0-2.27-11.24,24.48,24.48,0,0,0-4.75-8.76,10.24,10.24,0,0,0-8.08-3.54,10.45,10.45,0,0,0-8.15,3.54,24.57,24.57,0,0,0-4.9,8.76,51.45,51.45,0,0,0-2.34,11.24c-.4,4-.61,7.7-.61,11s.21,7.17.61,11.24A51.45,51.45,0,0,0,543,213a24.65,24.65,0,0,0,4.9,8.76,10.45,10.45,0,0,0,8.15,3.54,10.24,10.24,0,0,0,8.08-3.54,24.57,24.57,0,0,0,4.75-8.76,55.21,55.21,0,0,0,2.27-11.32Q571.76,195.6,571.76,190.46Z"/><path class="cls-2" d="M695.22,190.46A99.92,99.92,0,0,1,693,212a55.18,55.18,0,0,1-7.24,18,37.52,37.52,0,0,1-12.9,12.37q-7.93,4.61-19.25,4.61t-19.32-4.61a38,38,0,0,1-13-12.37,54.2,54.2,0,0,1-7.32-18,99.92,99.92,0,0,1-2.27-21.58A98.86,98.86,0,0,1,613.87,169a52.52,52.52,0,0,1,7.32-17.81,37.81,37.81,0,0,1,13-12.15q8-4.53,19.32-4.53T672.81,139a37.35,37.35,0,0,1,12.9,12.15A53.46,53.46,0,0,1,693,169,98.86,98.86,0,0,1,695.22,190.46Zm-26,0a109.5,109.5,0,0,0-.61-11,54.58,54.58,0,0,0-2.26-11.24,24.48,24.48,0,0,0-4.75-8.76,10.24,10.24,0,0,0-8.08-3.54,10.44,10.44,0,0,0-8.15,3.54,24.57,24.57,0,0,0-4.9,8.76,51.45,51.45,0,0,0-2.34,11.24,109.5,109.5,0,0,0-.61,11q0,5.13.61,11.24A51.45,51.45,0,0,0,640.51,213a24.65,24.65,0,0,0,4.9,8.76,10.44,10.44,0,0,0,8.15,3.54,10.24,10.24,0,0,0,8.08-3.54,24.57,24.57,0,0,0,4.75-8.76,54.56,54.56,0,0,0,2.26-11.32Q669.26,195.6,669.26,190.46Z"/><path class="cls-2" d="M792.72,190.46A99.92,99.92,0,0,1,790.45,212a55.18,55.18,0,0,1-7.24,18,37.46,37.46,0,0,1-12.91,12.37q-7.92,4.61-19.24,4.61t-19.32-4.61a38,38,0,0,1-13-12.37,54,54,0,0,1-7.32-18,99.92,99.92,0,0,1-2.27-21.58A98.86,98.86,0,0,1,711.37,169a52.32,52.32,0,0,1,7.32-17.81,37.81,37.81,0,0,1,13-12.15q8-4.53,19.32-4.53T770.3,139a37.29,37.29,0,0,1,12.91,12.15A53.46,53.46,0,0,1,790.45,169,98.86,98.86,0,0,1,792.72,190.46Zm-26,0c0-3.32-.21-7-.61-11a54.58,54.58,0,0,0-2.26-11.24,24.48,24.48,0,0,0-4.75-8.76,10.24,10.24,0,0,0-8.08-3.54,10.44,10.44,0,0,0-8.15,3.54,24.57,24.57,0,0,0-4.9,8.76,51.45,51.45,0,0,0-2.34,11.24,109.5,109.5,0,0,0-.61,11q0,5.13.61,11.24A51.45,51.45,0,0,0,738,213a24.65,24.65,0,0,0,4.9,8.76,10.44,10.44,0,0,0,8.15,3.54,10.24,10.24,0,0,0,8.08-3.54,24.57,24.57,0,0,0,4.75-8.76,54.56,54.56,0,0,0,2.26-11.32C766.55,197.63,766.76,193.88,766.76,190.46Z"/><path class="cls-2" d="M866.22,244.19v-9.81h-.3a23.57,23.57,0,0,1-10.34,8.83,33.73,33.73,0,0,1-14.27,3.09A33.35,33.35,0,0,1,826.22,243,34.49,34.49,0,0,1,815,234.15a38.74,38.74,0,0,1-7-12.75,47.4,47.4,0,0,1-2.41-15.09,45.47,45.47,0,0,1,2.49-15,39.09,39.09,0,0,1,7.09-12.6A33.07,33.07,0,0,1,841,166.91a28.71,28.71,0,0,1,14,3.17A31.17,31.17,0,0,1,864,177h.31V158.16H841.77V144.73h22.49V130.09H889v14.64H896v13.43H889v86Zm-.91-37.73a20.61,20.61,0,0,0-4.9-13.29,18.09,18.09,0,0,0-5.66-4.37,16.63,16.63,0,0,0-7.55-1.66,17,17,0,0,0-7.7,1.66,17.39,17.39,0,0,0-9,10.41,22.92,22.92,0,0,0-1.13,7.1,23.53,23.53,0,0,0,1.13,7.16,18.48,18.48,0,0,0,3.4,6.27,16.66,16.66,0,0,0,13.28,6,16.76,16.76,0,0,0,7.55-1.66,18.12,18.12,0,0,0,5.66-4.38,20.05,20.05,0,0,0,3.62-6.19A20.41,20.41,0,0,0,865.31,206.46Z"/></svg>