<?xml version="1.0" encoding="utf-8"?>
<!-- Generator: Adobe Illustrator 22.1.0, SVG Export Plug-In . SVG Version: 6.00 Build 0)  -->
<svg version="1.1" id="Layer_1" xmlns="http://www.w3.org/2000/svg" xmlns:xlink="http://www.w3.org/1999/xlink" x="0px" y="0px"
	 viewBox="0 0 987 498" style="enable-background:new 0 0 987 498;" xml:space="preserve">
<style type="text/css">
	.st0{fill:#C90202;}
	.st1{fill:#FFFFFF;}
</style>
<title>Image convert 3</title>
<path d="M54.2,242.3l2.5-5.6c3.7,2.7,8.1,4.2,12.7,4.2c6,0,8.5-2.1,8.5-5c0-8.3-22.9-2.9-22.9-17.1c0-6.2,5-11.5,15.5-11.5
	c4.5-0.1,8.9,1.1,12.8,3.4l-2.3,5.6c-3.2-1.9-6.9-2.9-10.6-3c-5.9,0-8.4,2.3-8.4,5.2c0,8.2,22.8,2.9,22.8,17c0,6.2-5,11.4-15.6,11.4
	C63.4,246.9,57.4,245.1,54.2,242.3z"/>
<path d="M125.5,212.5v17.1c0,11.2-6.3,17.3-16.8,17.3s-16.9-6.1-16.9-17.3v-21.7h7.2v21.4c0,7.9,3.6,11.3,9.8,11.3s9.7-3.4,9.7-11.3
	v-21.4h4.6c1.8,0.1,3.3-1.2,3.4-3c0-0.2,0-0.3,0-0.5c0-1.2-0.4-2.4-1.1-3.4l4.2-1.5c1.1,1.5,1.7,3.3,1.6,5.2
	C131.2,208.8,129.1,211.6,125.5,212.5z M102.5,204.4h-3.7c0.1-4.5,2.4-7.4,5.9-7.4s5.5,3.6,7.5,3.6c1.5,0,2.6-1.2,2.7-3.1h3.7
	c-0.1,4.3-2.4,7.2-5.9,7.2s-5.5-3.6-7.5-3.6C103.6,201.1,102.6,202.3,102.5,204.4L102.5,204.4z"/>
<path d="M160.2,237.5h-19.2l-3.8,8.9h-7.4l17.3-38.5h7l17.4,38.5H164L160.2,237.5z M157.8,231.9l-7.3-16.9l-7.2,16.8L157.8,231.9z"
	/>
<path d="M216.8,246.4l-7.9-11.3c-0.5,0-1,0.1-1.5,0.1h-8.7v11.2h-7.1v-38.5h15.8c10.1,0,16.4,5.2,16.4,13.7
	c0.2,5.4-3.1,10.3-8.2,12.2l8.9,12.6H216.8z M207.1,213.9h-8.4v15.3h8.4c6.3,0,9.5-2.9,9.5-7.7C216.6,216.8,213.4,213.9,207.1,213.9
	z"/>
<path d="M265.2,212.5v17.1c0,11.2-6.3,17.3-16.8,17.3s-16.9-6.1-16.9-17.3v-21.7h7.1v21.4c0,7.9,3.6,11.3,9.8,11.3s9.7-3.4,9.7-11.3
	v-21.4h4.6c1.8,0.1,3.3-1.2,3.4-3c0-0.2,0-0.3,0-0.5c0-1.2-0.4-2.4-1.1-3.4l4.2-1.5c1.1,1.5,1.7,3.3,1.6,5.2
	C270.9,208.8,268.9,211.6,265.2,212.5z M244.4,197.9l-1.5-3c1.6-1.2,3.5-1.8,5.5-1.7c3.5,0,6.1,2.2,6.1,5.5c0,3-1.5,5.2-4.7,6.7
	l-2.3-2.5c2.1-1,3-2.1,3-3.5c0-1.4-1.2-2.5-2.6-2.4c-0.1,0-0.1,0-0.2,0C246.6,196.8,245.4,197.2,244.4,197.9z"/>
<path d="M299.9,237.5h-19.2l-3.8,8.9h-7.4l17.3-38.5h7l17.4,38.5h-7.5L299.9,237.5z M297.5,231.9l-7.3-16.9l-7.2,16.8L297.5,231.9z"
	/>
<path d="M366.6,246.4l0-25.5L353.9,242h-3.2l-12.6-20.8v25.2h-6.8v-38.5h5.9l15.3,25.5l15-25.5h5.9l0.1,38.5H366.6z"/>
<path d="M412.6,246.4l-3.9-8.9h-19.2l-3.8,8.9h-7.4l17.3-38.5h7l17.4,38.5H412.6z M389.7,197.2h4.5c0.1,2.5,2.2,4.1,5,4.1
	s4.9-1.6,5-4.1h4.5c-0.2,4.9-4.2,7.9-9.5,7.9S389.9,202.1,389.7,197.2z M406.4,231.9l-7.3-16.9l-7.2,16.8L406.4,231.9z M402.5,254.3
	c0,1.8-1.5,3.3-3.3,3.3c-1.8,0-3.3-1.5-3.3-3.3l0,0c0-1.8,1.5-3.3,3.3-3.3C401,251,402.5,252.5,402.5,254.3z"/>
<path d="M430.9,213.9h-12.8v-6h32.7v6H438v32.5h-7.1L430.9,213.9z"/>
<path d="M479.2,213.9h-12.8v-6h32.7v6h-12.8v32.5h-7.1V213.9z"/>
<path d="M531.4,246.4l-3.8-8.9h-19.3l-3.8,8.9h-7.4l17.3-38.5h7l17.4,38.5H531.4z M525.2,231.9l-7.3-16.9l-7.2,16.8L525.2,231.9z
	 M521.2,254.3c0,1.8-1.5,3.3-3.3,3.3c-1.8,0-3.3-1.5-3.3-3.3c0-1.8,1.5-3.3,3.3-3.3C519.8,251,521.2,252.5,521.2,254.3
	C521.2,254.3,521.2,254.3,521.2,254.3z"/>
<path d="M540.5,227.1c0-11.4,8.8-19.8,20.7-19.8s20.7,8.4,20.7,19.8s-8.8,19.8-20.7,19.8S540.5,238.5,540.5,227.1z M574.7,227.1
	c0-7.5-6.1-13.5-13.5-13.5c-7.5,0-13.5,6.1-13.5,13.5c0,7.5,6.1,13.5,13.5,13.5C568.7,240.7,574.7,234.6,574.7,227.1z"/>
<path d="M638.9,235.9c0,6.6-5.2,10.5-15.1,10.5h-19.1v-38.5h18c9.2,0,14.2,3.9,14.2,10c0.1,3.5-1.8,6.8-4.9,8.5
	C636.2,227.6,639.1,231.5,638.9,235.9z M611.8,213.5v10.6H622c5,0,7.8-1.8,7.8-5.3s-2.8-5.3-7.8-5.3L611.8,213.5z M631.7,235.2
	c0-3.8-2.9-5.5-8.3-5.5h-11.5v11.1h11.5C628.8,240.8,631.7,239.1,631.7,235.2z"/>
<path d="M643.8,227.1c0-11.4,8.8-19.8,20.7-19.8s20.7,8.4,20.7,19.8s-8.8,19.8-20.7,19.8S643.8,238.5,643.8,227.1z M678,227.1
	c0-7.5-6.1-13.5-13.5-13.5c-7.5,0-13.5,6.1-13.5,13.5c0,7.5,6.1,13.5,13.5,13.5C672,240.7,678,234.6,678,227.1z M661.2,254.3
	c0-1.8,1.5-3.3,3.3-3.3c1.8,0,3.3,1.5,3.3,3.3c0,0,0,0,0,0c0,1.8-1.5,3.3-3.3,3.3C662.7,257.6,661.2,256.1,661.2,254.3z"/>
<path d="M700.1,213.9h-12.8v-6H720v6h-12.7v32.5h-7.2V213.9z"/>
<path d="M748.4,213.9h-12.8v-6h32.7v6h-12.8v32.5h-7.1V213.9z"/>
<path d="M798.9,246.4l-7.9-11.3c-0.5,0-1,0.1-1.5,0.1h-8.7v11.2h-7.1v-38.5h15.8c10.1,0,16.4,5.2,16.4,13.7
	c0.2,5.4-3.1,10.3-8.2,12.2l8.8,12.6H798.9z M789.2,213.9h-8.4v15.3h8.4c6.3,0,9.5-2.9,9.5-7.7C798.7,216.8,795.5,213.9,789.2,213.9
	z"/>
<path d="M838.9,237.5h-19.2l-3.8,8.9h-7.4l17.3-38.5h7l17.4,38.5h-7.5L838.9,237.5z M819.8,198.9h4.4c0.2,1.7,2.3,2.7,5.1,2.7
	s4.9-1,5.1-2.7h4.4c-0.4,3.9-4.2,6.3-9.5,6.3S820.2,202.8,819.8,198.9z M836.5,231.9l-7.3-16.9l-7.2,16.9H836.5z M830.3,197.4h-5.3
	l6.3-6.4h7.4L830.3,197.4z"/>
<path d="M889.3,207.9v38.5h-5.9l-21.2-26.1v26.1h-7.1v-38.5h5.9l21.2,26.1v-26.1H889.3z"/>
<path d="M925.9,226.7h6.8V242c-4.3,3.3-9.6,5-15.1,4.9c-11.9,0-20.7-8.3-20.7-19.8s8.8-19.8,20.8-19.8c6.4,0,11.8,2.2,15.5,6.3
	l-4.5,4.4c-2.8-2.9-6.6-4.5-10.6-4.4c-8.2,0-14,5.6-14,13.5c0,7.8,5.8,13.5,13.9,13.5c2.8,0.1,5.5-0.6,7.9-2L925.9,226.7z"/>
<path d="M57.5,273.9h16.8c12.5,0,21,7.7,21,19.2s-8.5,19.2-21,19.2H57.5V273.9z M74,306.3c8.6,0,14.1-5.2,14.1-13.2
	s-5.6-13.2-14.1-13.2h-9.4v26.4H74z"/>
<path d="M127.3,303.5h-19.2l-3.8,8.9h-7.4l17.3-38.5h7l17.4,38.5h-7.5L127.3,303.5z M125,297.9l-7.3-16.9l-7.2,16.8L125,297.9z"/>
<path d="M156,293.1c0-11.5,8.8-19.8,20.6-19.8c6.3,0,11.7,2.3,15.2,6.4l-4.6,4.3c-2.6-2.9-6.3-4.6-10.2-4.5c-8,0-13.8,5.6-13.8,13.5
	s5.8,13.5,13.8,13.5c3.9,0.1,7.7-1.6,10.3-4.6l4.6,4.4c-3.6,4.2-9,6.4-15.3,6.4C164.8,312.9,156,304.6,156,293.1z"/>
<path d="M222.9,303.5h-19.2l-3.8,8.9h-7.4l17.3-38.5h7l17.4,38.5h-7.5L222.9,303.5z M220.5,297.9l-7.3-16.9l-7.2,16.8L220.5,297.9z"
	/>
<path d="M245,279.9h-12.8v-6h32.7v6h-12.7v32.5H245V279.9z"/>
<path d="M304.5,273.9v38.5h-7.1v-16.5h-19.9v16.5h-7.1v-38.5h7.1v15.9h19.9v-15.9H304.5z"/>
<path d="M331.5,298.8v13.6h-7.2v-13.5l-15.1-25h7.6l11.3,18.8l11.4-18.8h7L331.5,298.8z"/>
<path d="M366.4,273.9h16.8c12.5,0,21,7.7,21,19.2s-8.5,19.2-21,19.2h-16.8V273.9z M382.9,306.3c8.6,0,14.1-5.2,14.1-13.2
	s-5.5-13.2-14.1-13.2h-9.4v26.4H382.9z"/>
<path d="M409,293.1c0-11.4,8.8-19.8,20.7-19.8s20.7,8.4,20.7,19.8s-8.8,19.8-20.7,19.8S409,304.5,409,293.1z M443.3,293.1
	c0-7.5-6.1-13.5-13.5-13.5s-13.5,6.1-13.5,13.5s6.1,13.5,13.5,13.5l0,0c7.2,0.2,13.3-5.5,13.5-12.7
	C443.3,293.7,443.3,293.4,443.3,293.1z"/>
<path d="M458.1,273.9h7.1v32.5h20.1v6h-27.3V273.9z"/>
<path d="M491.1,273.9h7.1v32.5h20.1v6h-27.3V273.9z"/>
<path d="M564.4,312.4l-7.9-11.3c-0.5,0-1,0.1-1.5,0.1h-8.7v11.2h-7.2v-38.5H555c10.1,0,16.4,5.2,16.4,13.7
	c0.2,5.4-3.1,10.3-8.2,12.1l8.8,12.7H564.4z M554.7,279.9h-8.4v15.3h8.4c6.3,0,9.5-2.9,9.5-7.7C564.2,282.8,561,279.9,554.7,279.9
	L554.7,279.9z"/>
<path d="M608.2,306.4v6h-28.9v-38.5h28.1v6h-21v10h18.6v5.9h-18.5v10.6L608.2,306.4z"/>
<path d="M641.2,303.5H622l-3.8,8.9h-7.4l17.3-38.5h7l17.4,38.5h-7.5L641.2,303.5z M638.8,297.9l-7.3-16.9l-7.2,16.8L638.8,297.9z"/>
<path d="M657.4,273.9h16.8c12.5,0,21,7.7,21,19.2s-8.5,19.2-21,19.2h-16.8V273.9z M673.9,306.3c8.6,0,14.1-5.2,14.1-13.2
	s-5.6-13.2-14.1-13.2h-9.3v26.4H673.9z"/>
<path d="M717.8,298.8v13.6h-7.2v-13.5l-15.1-25h7.7l11.3,18.8l11.4-18.8h7L717.8,298.8z"/>
<path d="M777.9,306.3v6h-28.4v-4.8l15.3-14.5c3.7-3.6,4.4-5.8,4.4-8c0-3.5-2.4-5.6-7.1-5.6c-3.7,0-6.9,1.3-9,4l-5-3.9
	c3-4,8.3-6.4,14.6-6.4c8.4,0,13.8,4.2,13.8,11.1c0,3.7-1,7.1-6.4,12.2l-10.3,9.8L777.9,306.3z"/>
<path d="M113.8,339.9L101,378.4h-7.6l-9.5-28.5l-9.7,28.5h-7.6l-12.8-38.5h7.4l9.6,29.3l10-29.3h6.6l9.7,29.4l9.8-29.4H113.8z"/>
<path d="M153.8,339.9v38.5h-7.1v-16.5h-19.9v16.5h-7.2v-38.5h7.2v15.9h19.9v-15.9H153.8z"/>
<path d="M164.1,339.9h7.1v38.5h-7.1V339.9z"/>
<path d="M189.5,345.9h-12.8v-6h32.7v6h-12.8v32.5h-7.1V345.9z"/>
<path d="M243.7,372.4v6h-28.9v-38.5h28.1v6h-20.9v10h18.6v5.9h-18.6v10.6H243.7z"/>
<path d="M292,372.3v6h-28.4v-4.8l15.3-14.5c3.7-3.6,4.4-5.8,4.4-8c0-3.5-2.4-5.6-7.1-5.6c-3.7,0-6.9,1.3-9,4l-5-3.9
	c3-4,8.3-6.4,14.6-6.4c8.4,0,13.8,4.2,13.8,11.1c0,3.7-1,7.1-6.4,12.1l-10.3,9.8L292,372.3z"/>
<path d="M298.8,339.9h7.2v38.5h-7.1L298.8,339.9z"/>
<path d="M350.6,339.9v38.5h-5.9l-21.2-26.1v26.1h-7.1v-38.5h5.9l21.2,26.1v-26.1H350.6z"/>
<path d="M371.5,339.9v38.5h-7.1v-32.5h-8.1v-6H371.5z"/>
<path d="M431.3,367.9c0,6.6-5.2,10.5-15.1,10.5h-19.1v-38.5h18c9.2,0,14.2,3.9,14.2,10c0.1,3.5-1.8,6.8-5,8.5
	C428.6,359.5,431.5,363.5,431.3,367.9z M404.2,345.5v10.6h10.1c5,0,7.8-1.8,7.8-5.3s-2.8-5.3-7.8-5.3H404.2z M424.1,367.2
	c0-3.9-2.9-5.6-8.3-5.6h-11.6v11.1h11.5C421.1,372.8,424.1,371.1,424.1,367.2L424.1,367.2z"/>
<path d="M438.6,361.6v-21.7h7.1v21.5c0,7.9,3.6,11.3,9.8,11.3s9.7-3.4,9.7-11.3v-21.5h7v21.7c0,11.2-6.3,17.3-16.8,17.3
	S438.6,372.8,438.6,361.6z"/>
<path d="M516.5,367.9c0,6.6-5.2,10.5-15.1,10.5h-19.1v-38.5h18c9.2,0,14.2,3.9,14.2,10c0.1,3.5-1.8,6.8-5,8.5
	C513.8,359.5,516.7,363.5,516.5,367.9z M489.5,345.5v10.6h10.1c5,0,7.8-1.8,7.8-5.3s-2.8-5.3-7.8-5.3H489.5z M509.3,367.2
	c0-3.9-2.9-5.6-8.3-5.6h-11.5v11.1H501C506.4,372.8,509.3,371.1,509.3,367.2L509.3,367.2z"/>
<path d="M558.4,367.9c0,6.6-5.2,10.5-15.1,10.5h-19.1v-38.5h18c9.2,0,14.2,3.9,14.2,10c0.1,3.5-1.8,6.8-5,8.5
	C555.7,359.5,558.6,363.5,558.4,367.9z M531.3,345.5v10.6h10.1c5,0,7.8-1.8,7.8-5.3s-2.8-5.3-7.8-5.3H531.3z M551.2,367.2
	c0-3.9-2.9-5.6-8.3-5.6h-11.5v11.1h11.5C548.2,372.8,551.2,371.1,551.2,367.2L551.2,367.2z"/>
<path d="M566,339.9h7.1v32.5h20.1v6H566V339.9z"/>
<path d="M627.8,372.4v6H599v-38.5h28.1v6h-21v10h18.6v5.9h-18.6v10.6H627.8z"/>
<path d="M686.3,378.4l-0.1-25.5L673.7,374h-3.2l-12.7-20.8v25.2H651v-38.5h5.9l15.3,25.5l15-25.5h5.9l0,38.5L686.3,378.4z"/>
<path d="M700.8,359.1c0-11.4,8.8-19.8,20.7-19.8s20.7,8.4,20.7,19.8s-8.8,19.8-20.7,19.8S700.8,370.5,700.8,359.1z M735,359.1
	c0-7.5-6.1-13.5-13.5-13.5s-13.5,6.1-13.5,13.5s6.1,13.5,13.5,13.5c0,0,0,0,0,0c7.2,0.2,13.3-5.5,13.5-12.7
	C735,359.7,735,359.4,735,359.1L735,359.1z"/>
<path d="M749.5,361.6v-21.7h7.2v21.5c0,7.9,3.6,11.3,9.8,11.3s9.7-3.4,9.7-11.3v-21.5h7v21.7c0,11.2-6.3,17.3-16.8,17.3
	S749.5,372.8,749.5,361.6z"/>
<path d="M790,374.3l2.5-5.6c3.7,2.7,8.1,4.2,12.7,4.2c6,0,8.5-2.1,8.5-5c0-8.3-22.9-2.9-22.9-17.1c0-6.2,5-11.5,15.5-11.5
	c4.5-0.1,8.9,1.1,12.8,3.4l-2.3,5.6c-3.2-1.9-6.9-2.9-10.6-3c-5.9,0-8.4,2.3-8.4,5.2c0,8.2,22.8,2.9,22.8,17c0,6.2-5,11.4-15.6,11.4
	C799.2,378.9,793.2,377.1,790,374.3z"/>
<path d="M824.6,374.3l2.5-5.6c3.7,2.7,8.1,4.2,12.7,4.2c6,0,8.5-2.1,8.5-5c0-8.3-22.9-2.9-22.9-17.1c0-6.2,5-11.5,15.5-11.5
	c4.5-0.1,8.9,1.1,12.8,3.4l-2.2,5.6c-3.2-1.9-6.9-2.9-10.6-3c-5.9,0-8.4,2.3-8.4,5.2c0,8.2,22.8,2.9,22.8,17c0,6.2-5,11.4-15.6,11.4
	C833.8,378.9,827.8,377.1,824.6,374.3z"/>
<path d="M891.3,372.4v6h-28.9v-38.5h28.1v6h-21v10h18.6v5.9h-18.5v10.6H891.3z"/>
<path d="M54.8,425.1c0-11.5,8.8-19.8,20.6-19.8c6.3,0,11.7,2.3,15.2,6.4l-4.6,4.3c-2.6-2.9-6.4-4.6-10.3-4.5
	c-8,0-13.8,5.6-13.8,13.5s5.8,13.5,13.8,13.5c3.9,0.1,7.7-1.6,10.3-4.6l4.6,4.4c-3.6,4.2-9,6.4-15.3,6.4
	C63.5,444.9,54.8,436.6,54.8,425.1z"/>
<path d="M97.5,405.9h7.2v32.5h20.1v6H97.5V405.9z"/>
<path d="M159.3,438.4v6h-28.9v-38.5h28.1v6h-21v10h18.6v5.9h-18.5v10.6H159.3z"/>
<path d="M192.2,435.5H173l-3.8,8.9h-7.4l17.3-38.5h7l17.4,38.5h-7.5L192.2,435.5z M189.9,429.9l-7.3-16.9l-7.2,16.8L189.9,429.9z"/>
<path d="M242.7,405.9v38.5h-5.9l-21.2-26.1v26.1h-7.1v-38.5h5.9l21.2,26.1v-26.1H242.7z"/>
<path d="M249.8,440.3l2.5-5.6c3.7,2.8,8.2,4.2,12.8,4.2c6,0,8.5-2.1,8.5-5c0-8.3-22.9-2.9-22.9-17.1c0-6.2,5-11.5,15.5-11.5
	c4.5-0.1,8.9,1.1,12.8,3.4l-2.2,5.6c-3.2-1.9-6.9-2.9-10.6-3c-5.9,0-8.4,2.3-8.4,5.2c0,8.2,22.8,2.9,22.8,17c0,6.2-5,11.4-15.6,11.4
	C259,444.9,253,443.1,249.8,440.3z"/>
<path d="M316.5,438.4v6h-28.9v-38.5h28.1v6h-20.9v10h18.6v5.9h-18.6v10.6H316.5z"/>
<path d="M349.6,444.4l-7.9-11.3c-0.5,0-1,0.1-1.5,0.1h-8.7v11.2h-7.1v-38.5h15.8c10.1,0,16.4,5.2,16.4,13.7
	c0.2,5.4-3.1,10.3-8.2,12.1l8.9,12.6H349.6z M340,411.9h-8.4v15.3h8.4c6.3,0,9.5-2.9,9.5-7.7S346.2,411.9,340,411.9z"/>
<path d="M390.4,405.9v38.5h-7.1v-32.5h-8.1v-6H390.4z"/>
<path d="M425.9,438.3v6h-28.4v-4.8l15.3-14.5c3.7-3.6,4.4-5.8,4.4-8c0-3.5-2.4-5.5-7.1-5.5c-3.7,0-6.9,1.3-9,4l-5-3.9
	c3-4,8.3-6.4,14.6-6.4c8.4,0,13.8,4.2,13.8,11.1c0,3.7-1,7.1-6.4,12.1l-10.3,9.8L425.9,438.3z"/>
<path d="M429.9,425.1c0-12.6,6.9-19.8,16-19.8s16.1,7.1,16.1,19.8s-6.9,19.8-16.1,19.8S429.9,437.8,429.9,425.1z M454.9,425.1
	c0-9.3-3.6-13.6-8.9-13.6s-8.9,4.3-8.9,13.6s3.6,13.6,8.9,13.6S454.9,434.4,454.9,425.1L454.9,425.1z"/>
<path d="M505,444.4v-25.5L492.3,440h-3.2l-12.6-20.8v25.2h-6.8v-38.5h5.9l15.3,25.5l15-25.5h5.9v38.5L505,444.4z"/>
<path d="M522.2,405.9h7.2v32.5h20.1v6h-27.3V405.9z"/>
<path d="M569.8,429.3c0-10.1,2.4-19.2,6.7-25.7h6.5c-8.7,16.1-8.7,35.4,0,51.5h-6.5C572.2,448.4,569.8,439.4,569.8,429.3z"/>
<path d="M606,430.8v13.6h-7.2v-13.5l-15.1-25h7.6l11.3,18.8l11.3-18.8h7L606,430.8z"/>
<path d="M650.3,438.3v6H622v-4.8l15.3-14.5c3.7-3.6,4.4-5.8,4.4-8c0-3.5-2.4-5.5-7.2-5.5c-3.7,0-6.9,1.3-9,4l-5-3.9
	c3-4,8.3-6.4,14.6-6.4c8.4,0,13.7,4.2,13.7,11.1c0,3.7-1,7.1-6.4,12.1l-10.3,9.8L650.3,438.3z"/>
<path d="M654.3,425.1c0-12.6,6.9-19.8,16.1-19.8s16.1,7.1,16.1,19.8s-6.9,19.8-16.1,19.8S654.3,437.8,654.3,425.1z M679.3,425.1
	c0-9.3-3.6-13.6-8.9-13.6s-8.8,4.3-8.8,13.6s3.6,13.6,8.8,13.6S679.3,434.4,679.3,425.1L679.3,425.1z"/>
<path d="M704.3,405.9v38.5h-7.2v-32.5H689v-6H704.3z"/>
<path d="M743.2,433.3c0,7.1-6.2,11.6-15.8,11.6s-15.7-4.5-15.7-11.6c0-4.2,2.2-7.4,6.2-9.2c-3-1.5-4.9-4.7-4.8-8.1
	c0-6.6,5.8-10.7,14.3-10.7s14.4,4.1,14.4,10.7c0.1,3.4-1.8,6.6-4.9,8.1C741,426,743.2,429.1,743.2,433.3z M736,433.1
	c0-3.8-3.3-6.2-8.6-6.2s-8.4,2.4-8.4,6.2s3.2,6.2,8.5,6.2S736,437,736,433.1L736,433.1z M720.2,416.4c0,3.3,2.8,5.4,7.3,5.4
	s7.4-2.1,7.4-5.4c0-3.5-3-5.5-7.4-5.5S720.2,412.9,720.2,416.4L720.2,416.4z"/>
<path d="M746.6,455c8.7-16.1,8.7-35.4,0-51.5h6.5c4.3,6.5,6.7,15.6,6.7,25.7s-2.4,19.1-6.7,25.7H746.6z"/>
<g id="_Rectangle_">
	<rect x="58.3" y="36.5" class="st0" width="383" height="113.1"/>
</g>
<g>
	<path class="st1" d="M99.9,115.1V78.9L90.7,86l-6-8.3l16.2-11.9h10.6v49.2H99.9z"/>
	<path class="st1" d="M166.9,82.1c0,2.9-0.5,5.6-1.5,8c-1,2.4-2.3,4.8-4,7.3l-11.9,17.7h-14.1l12.2-17l0.1-0.2
		c-0.5,0.2-1.1,0.3-1.7,0.4c-0.6,0.1-1.2,0.1-1.8,0.1c-2.2,0-4.2-0.4-6.2-1.1s-3.7-1.9-5.1-3.3c-1.5-1.4-2.7-3.1-3.5-5.1
		c-0.9-2-1.3-4.2-1.3-6.6c0-2.8,0.5-5.3,1.5-7.5c1-2.2,2.4-4.1,4.2-5.6c1.8-1.5,3.8-2.7,6.2-3.5c2.4-0.8,4.9-1.2,7.5-1.2
		c2.7,0,5.2,0.4,7.6,1.2c2.4,0.8,4.4,2,6.1,3.5c1.7,1.5,3.1,3.4,4.1,5.6C166.4,77,166.9,79.4,166.9,82.1z M155.3,82
		c0-2.1-0.7-4-2.1-5.5c-1.4-1.6-3.2-2.3-5.6-2.3s-4.3,0.7-5.7,2.2c-1.4,1.5-2.1,3.4-2.1,5.7c0,2.2,0.7,4.1,2.1,5.5s3.3,2.2,5.6,2.2
		c2.3,0,4.2-0.7,5.7-2.2C154.6,86.2,155.3,84.3,155.3,82z"/>
	<path class="st1" d="M211.8,82.1c0,2.9-0.5,5.6-1.5,8c-1,2.4-2.3,4.8-4,7.3l-11.9,17.7h-14.1l12.2-17l0.1-0.2
		c-0.5,0.2-1.1,0.3-1.7,0.4c-0.6,0.1-1.2,0.1-1.8,0.1c-2.2,0-4.2-0.4-6.2-1.1s-3.7-1.9-5.1-3.3c-1.5-1.4-2.7-3.1-3.5-5.1
		c-0.9-2-1.3-4.2-1.3-6.6c0-2.8,0.5-5.3,1.5-7.5c1-2.2,2.4-4.1,4.2-5.6c1.8-1.5,3.8-2.7,6.2-3.5c2.4-0.8,4.9-1.2,7.5-1.2
		c2.7,0,5.2,0.4,7.6,1.2c2.4,0.8,4.4,2,6.1,3.5c1.7,1.5,3.1,3.4,4.1,5.6C211.3,77,211.8,79.4,211.8,82.1z M200.2,82
		c0-2.1-0.7-4-2.1-5.5c-1.4-1.6-3.2-2.3-5.6-2.3s-4.3,0.7-5.7,2.2c-1.4,1.5-2.1,3.4-2.1,5.7c0,2.2,0.7,4.1,2.1,5.5s3.3,2.2,5.6,2.2
		c2.3,0,4.2-0.7,5.7-2.2C199.5,86.2,200.2,84.3,200.2,82z"/>
	<path class="st1" d="M225.7,123.7h-9.4l5.2-19.7h10.9L225.7,123.7z"/>
	<path class="st1" d="M277.5,90.3c0,3.5-0.3,6.8-1,9.9c-0.7,3.2-1.8,5.9-3.3,8.3c-1.5,2.4-3.5,4.3-5.9,5.7c-2.4,1.4-5.4,2.1-8.9,2.1
		c-3.5,0-6.4-0.7-8.9-2.1c-2.5-1.4-4.5-3.3-6-5.7c-1.6-2.4-2.7-5.2-3.4-8.3c-0.7-3.2-1-6.5-1-9.9s0.3-6.8,1-9.9s1.8-5.9,3.4-8.2
		c1.6-2.3,3.6-4.2,6-5.6c2.5-1.4,5.4-2.1,8.9-2.1c3.5,0,6.4,0.7,8.9,2.1c2.4,1.4,4.4,3.3,5.9,5.6c1.5,2.3,2.6,5.1,3.3,8.2
		C277.2,83.5,277.5,86.8,277.5,90.3z M265.6,90.3c0-1.5-0.1-3.2-0.3-5.1c-0.2-1.9-0.5-3.6-1-5.2c-0.5-1.6-1.2-2.9-2.2-4
		c-1-1.1-2.2-1.6-3.7-1.6s-2.8,0.5-3.8,1.6c-1,1.1-1.7,2.4-2.3,4c-0.5,1.6-0.9,3.3-1.1,5.2c-0.2,1.9-0.3,3.5-0.3,5.1
		c0,1.6,0.1,3.3,0.3,5.2c0.2,1.9,0.5,3.6,1.1,5.2c0.5,1.6,1.3,2.9,2.3,4c1,1.1,2.2,1.6,3.8,1.6s2.8-0.5,3.7-1.6
		c0.9-1.1,1.7-2.4,2.2-4c0.5-1.6,0.9-3.3,1-5.2C265.5,93.6,265.6,91.9,265.6,90.3z"/>
	<path class="st1" d="M322.4,90.3c0,3.5-0.3,6.8-1,9.9c-0.7,3.2-1.8,5.9-3.3,8.3c-1.5,2.4-3.5,4.3-5.9,5.7c-2.4,1.4-5.4,2.1-8.9,2.1
		s-6.4-0.7-8.9-2.1c-2.5-1.4-4.5-3.3-6-5.7c-1.6-2.4-2.7-5.2-3.4-8.3c-0.7-3.2-1-6.5-1-9.9s0.3-6.8,1-9.9s1.8-5.9,3.4-8.2
		c1.6-2.3,3.6-4.2,6-5.6c2.5-1.4,5.4-2.1,8.9-2.1s6.4,0.7,8.9,2.1c2.4,1.4,4.4,3.3,5.9,5.6c1.5,2.3,2.6,5.1,3.3,8.2
		C322.1,83.5,322.4,86.8,322.4,90.3z M310.5,90.3c0-1.5-0.1-3.2-0.3-5.1c-0.2-1.9-0.5-3.6-1-5.2c-0.5-1.6-1.2-2.9-2.2-4
		c-1-1.1-2.2-1.6-3.7-1.6s-2.8,0.5-3.8,1.6c-1,1.1-1.7,2.4-2.3,4c-0.5,1.6-0.9,3.3-1.1,5.2c-0.2,1.9-0.3,3.5-0.3,5.1
		c0,1.6,0.1,3.3,0.3,5.2c0.2,1.9,0.5,3.6,1.1,5.2c0.5,1.6,1.3,2.9,2.3,4c1,1.1,2.2,1.6,3.8,1.6s2.8-0.5,3.7-1.6
		c0.9-1.1,1.7-2.4,2.2-4c0.5-1.6,0.9-3.3,1-5.2C310.4,93.6,310.5,91.9,310.5,90.3z"/>
	<path class="st1" d="M367.3,90.3c0,3.5-0.3,6.8-1,9.9c-0.7,3.2-1.8,5.9-3.3,8.3c-1.5,2.4-3.5,4.3-5.9,5.7c-2.4,1.4-5.4,2.1-8.9,2.1
		s-6.4-0.7-8.9-2.1c-2.5-1.4-4.5-3.3-6-5.7c-1.6-2.4-2.7-5.2-3.4-8.3c-0.7-3.2-1-6.5-1-9.9s0.3-6.8,1-9.9s1.8-5.9,3.4-8.2
		c1.6-2.3,3.6-4.2,6-5.6c2.5-1.4,5.4-2.1,8.9-2.1s6.4,0.7,8.9,2.1c2.4,1.4,4.4,3.3,5.9,5.6c1.5,2.3,2.6,5.1,3.3,8.2
		C367,83.5,367.3,86.8,367.3,90.3z M355.4,90.3c0-1.5-0.1-3.2-0.3-5.1c-0.2-1.9-0.5-3.6-1-5.2c-0.5-1.6-1.2-2.9-2.2-4
		c-1-1.1-2.2-1.6-3.7-1.6s-2.8,0.5-3.8,1.6c-1,1.1-1.7,2.4-2.3,4c-0.5,1.6-0.9,3.3-1.1,5.2c-0.2,1.9-0.3,3.5-0.3,5.1
		c0,1.6,0.1,3.3,0.3,5.2c0.2,1.9,0.5,3.6,1.1,5.2c0.5,1.6,1.3,2.9,2.3,4c1,1.1,2.2,1.6,3.8,1.6s2.8-0.5,3.7-1.6
		c0.9-1.1,1.7-2.4,2.2-4c0.5-1.6,0.9-3.3,1-5.2C355.3,93.6,355.4,91.9,355.4,90.3z"/>
	<path class="st1" d="M401.2,115.1v-4.5H401c-1.1,1.8-2.7,3.1-4.8,4.1c-2.1,0.9-4.3,1.4-6.6,1.4c-2.6,0-4.9-0.5-7-1.5
		c-2-1-3.8-2.4-5.2-4.1c-1.4-1.7-2.5-3.6-3.2-5.9c-0.7-2.2-1.1-4.5-1.1-7c0-2.4,0.4-4.7,1.1-6.9c0.8-2.2,1.9-4.1,3.3-5.8
		c1.4-1.7,3.1-3,5.1-4c2-1,4.3-1.5,6.8-1.5c2.5,0,4.7,0.5,6.5,1.5c1.8,1,3.1,2,4.1,3.2h0.1v-8.7h-10.4v-6.2h10.4v-6.7h11.4v6.7h3.2
		v6.2h-3.2v39.6H401.2z M400.8,97.7c0-1.1-0.2-2.2-0.6-3.3c-0.4-1.1-1-2-1.7-2.9c-0.7-0.8-1.6-1.5-2.6-2c-1-0.5-2.2-0.8-3.5-0.8
		c-1.3,0-2.5,0.3-3.5,0.8c-1,0.5-1.9,1.2-2.6,2c-0.7,0.8-1.2,1.8-1.6,2.8c-0.3,1.1-0.5,2.2-0.5,3.3s0.2,2.2,0.5,3.3
		c0.3,1.1,0.9,2.1,1.6,2.9c0.7,0.8,1.6,1.5,2.6,2c1,0.5,2.2,0.8,3.5,0.8c1.3,0,2.5-0.3,3.5-0.8c1-0.5,1.9-1.2,2.6-2
		c0.7-0.8,1.3-1.8,1.7-2.9C400.6,99.9,400.8,98.8,400.8,97.7z"/>
</g>
</svg>
