<svg id="Layer_1" data-name="Layer 1" xmlns="http://www.w3.org/2000/svg" viewBox="0 0 2006 887.99"><defs><style>.cls-1{fill:#c90202;}.cls-2{fill:#fff;}</style></defs><title>Image convert 1 fix text</title><path d="M79.37,538.28l5.5-12.2a41.17,41.17,0,0,0,23.1,7.3c9.6,0,13.5-3.2,13.5-7.5,0-13.1-40.7-4.1-40.7-30.1,0-11.9,9.6-21.8,29.5-21.8,8.8,0,17.8,2.1,24.3,6.2l-5,12.3a39.54,39.54,0,0,0-19.4-5.5c-9.6,0-13.3,3.6-13.3,8,0,12.9,40.7,4,40.7,29.7,0,11.7-9.7,21.7-29.7,21.7C96.77,546.38,85.57,543.08,79.37,538.28Z"/><path d="M211.47,484.78v29.6c0,20.6-11.8,32-31.7,32s-31.7-11.4-31.7-32v-39.2h16.2v38.6c0,13.3,5.8,18.8,15.6,18.8s15.6-5.5,15.6-18.8v-38.6h10.4c3.6,0,6-2.6,6-6.3a9.61,9.61,0,0,0-2-6l9.2-3.4a16.16,16.16,0,0,1,3.2,10C222.27,477.38,218.37,482.88,211.47,484.78Zm-42.9-15.7h-7.9c.2-8.9,4.7-14.6,11.7-14.6s10.4,6.4,14,6.4c2.7,0,4.6-2.1,4.8-5.4h7.9c-.2,8.6-4.7,14.3-11.7,14.3s-10.4-6.3-14-6.3C170.67,463.48,168.77,465.48,168.57,469.08Z"/><path d="M273.37,530.18h-32.5l-6.2,15h-16.6l31.2-70h16l31.3,70h-17Zm-5.1-12.3-11.1-26.8-11.1,26.8Z"/><path d="M346.66,488.38h-22.4v-13.2h61v13.2h-22.4v56.8H346.66Z"/><path d="M436.57,530.18h-32.5l-6.2,15H381.26l31.21-70h16l31.3,70h-17Zm-34.5-72.1h9.4c.4,2.8,4,4.7,9,4.7s8.6-1.9,9-4.7h9.4c-.7,7.5-8.1,12.2-18.4,12.2S402.77,465.58,402.07,458.08Zm29.4,59.8-11.1-26.8-11.1,26.8Zm-8.3-62.8h-11.3L423,443h15.9Z"/><path d="M530.77,545.18l-.1-42-20.6,34.6h-7.3l-20.5-33.7v41.1H467.06v-70h13.4l26.21,43.5,25.8-43.5h13.3l.2,70Z"/><path d="M655.07,475.18v70H641.76l-34.9-42.5v42.5h-16v-70h13.4l34.8,42.5v-42.5Z"/><path d="M719,509.08h14.81v28.4c-7.71,5.8-18.31,8.9-28.31,8.9-22,0-38.2-15.1-38.2-36.2s16.2-36.2,38.5-36.2c12.3,0,22.5,4.2,29.31,12.1l-10.41,9.6a23.69,23.69,0,0,0-18.1-7.9c-13.6,0-22.9,9.1-22.9,22.4,0,13.1,9.3,22.4,22.7,22.4a25.72,25.72,0,0,0,12.6-3Z"/><path d="M744.36,510.18c0-20.8,16.2-36.2,38.3-36.2S821,489.28,821,510.18s-16.31,36.2-38.31,36.2S744.36,531,744.36,510.18Zm60.2,0c0-13.3-9.4-22.4-21.9-22.4s-21.9,9.1-21.9,22.4,9.4,22.4,21.9,22.4S804.56,523.48,804.56,510.18Zm-28.8,49.3a6.9,6.9,0,1,1,13.8,0c0,4.1-3,6.7-6.9,6.7S775.76,563.58,775.76,559.48Z"/><path d="M828.76,510.18c0-21.1,16.2-36.2,38-36.2,12.1,0,22.2,4.4,28.8,12.4l-10.4,9.6a22.52,22.52,0,0,0-17.6-8.2c-13.1,0-22.4,9.2-22.4,22.4s9.3,22.4,22.4,22.4a22.31,22.31,0,0,0,17.6-8.3l10.4,9.6c-6.6,8.1-16.7,12.5-28.9,12.5C845,546.38,828.76,531.28,828.76,510.18Z"/><path d="M949.26,488.38h-22.4v-13.2h61v13.2h-22.4v56.8h-16.2Z"/><path d="M1041.16,545.18l-13.5-19.5h-14.9v19.5h-16.2v-70h30.3c18.7,0,30.4,9.7,30.4,25.4,0,10.5-5.3,18.2-14.4,22.1l15.7,22.5Zm-15.2-56.8h-13.2v24.4H1026c9.9,0,14.9-4.6,14.9-12.2S1035.86,488.38,1026,488.38Z"/><path d="M1116.16,530.18h-32.5l-6.2,15h-16.6l31.2-70h16l31.3,70h-17Zm-5.1-12.3-11.1-26.8-11.1,26.8Z"/><path d="M1146.65,475.18h16.21v70h-16.21Z"/><path d="M1275.06,475.18l-30.3,70h-16l-30.2-70h17.5l21.3,50,21.61-50Z"/><path d="M1324.66,530.18h-32.51l-6.2,15h-16.6l31.2-70h16l31.31,70h-17Zm-19.21-60.7-18.1-14.4h16.8l13.5,14.4Zm14.11,48.4-11.11-26.8-11.1,26.8Z"/><path d="M1447.65,475.18v70h-16.2v-28.7h-31.8v28.7h-16.2v-70h16.2v27.6h31.8v-27.6Z"/><path d="M1459.85,510.18c0-20.8,16.2-36.2,38.3-36.2s38.3,15.3,38.3,36.2-16.3,36.2-38.3,36.2S1459.85,531,1459.85,510.18Zm60.2,0c0-13.3-9.4-22.4-21.9-22.4s-21.9,9.1-21.9,22.4,9.4,22.4,21.9,22.4S1520.05,523.48,1520.05,510.18Z"/><path d="M1593.75,530.18h-32.5l-6.2,15h-16.6l31.2-70h16l31.3,70h-17Zm-5.1-12.3-11.1-26.8-11.1,26.8Z"/><path d="M1716.75,475.18v70h-16.2v-28.7h-31.8v28.7h-16.2v-70h16.2v27.6h31.8v-27.6Z"/><path d="M1805.55,510.18c0,20.9-16.3,36.2-38.3,36.2S1729,531,1729,510.18s16.2-36.2,38.3-36.2S1805.55,489.28,1805.55,510.18Zm-16.4,0c0-13.3-9.4-22.4-21.9-22.4s-21.9,9.1-21.9,22.4,9.4,22.4,21.9,22.4S1789.15,523.48,1789.15,510.18Zm-30.5-40.7h-11.5l13.3-11.4h13.6l13.3,11.4h-11.5l-8.6-5.7Zm26.6-9.6-15.7-12.1h15.9l11,12.1Z"/><path d="M1882,475.18v70h-13.3l-34.9-42.5v42.5h-16v-70h13.4l34.8,42.5v-42.5Z"/><path d="M1945.85,509.08h14.8v28.4c-7.7,5.8-18.3,8.9-28.3,8.9-22,0-38.2-15.1-38.2-36.2s16.2-36.2,38.5-36.2c12.3,0,22.5,4.2,29.3,12.1l-10.4,9.6a23.69,23.69,0,0,0-18.1-7.9c-13.6,0-22.9,9.1-22.9,22.4,0,13.1,9.3,22.4,22.7,22.4a25.72,25.72,0,0,0,12.6-3Z"/><path d="M78.52,605.51c0-10.55,8.1-18.11,19-18.11,6,0,11.1,2.2,14.4,6.21l-5.2,4.8a11.26,11.26,0,0,0-8.8-4.1,11.2,11.2,0,1,0,0,22.4,11.15,11.15,0,0,0,8.8-4.15l5.2,4.8c-3.3,4-8.35,6.25-14.45,6.25C86.62,623.61,78.52,616.06,78.52,605.51Z"/><path d="M139.72,615.51H123.47l-3.1,7.5h-8.3l15.6-35h8l15.65,35h-8.5Zm-2.55-6.15L131.62,596l-5.55,13.4Z"/><path d="M160.47,594.61h-11.2V588h30.5v6.6h-11.2V623h-8.1Z"/><path d="M216.22,588v35h-8.1V608.66h-15.9V623h-8.1V588h8.1v13.8h15.9V588Z"/><path d="M241.32,610.61V623h-8.1v-12.5L219.67,588h8.6l9.35,15.55L247,588h7.95Z"/><path d="M272.47,588h15.9c11.45,0,19.3,6.9,19.3,17.5s-7.85,17.5-19.3,17.5h-15.9ZM288,616.36c6.95,0,11.5-4.15,11.5-10.85s-4.55-10.85-11.5-10.85h-7.4v21.7Z"/><path d="M311.57,605.51c0-10.4,8.1-18.11,19.15-18.11s19.15,7.66,19.15,18.11-8.15,18.1-19.15,18.1S311.57,615.91,311.57,605.51Zm30.1,0c0-6.65-4.7-11.2-10.95-11.2s-11,4.55-11,11.2,4.7,11.2,11,11.2S341.67,612.16,341.67,605.51Z"/><path d="M356,588h8.1v28.4h17.55V623H356Z"/><path d="M386.17,588h8.1v28.4h17.55V623H386.17Z"/><path d="M452.82,623l-6.76-9.75h-7.45V623h-8.1V588h15.16c9.35,0,15.2,4.85,15.2,12.7a11.38,11.38,0,0,1-7.2,11L461.52,623Zm-7.61-28.4h-6.6v12.2h6.6c5,0,7.46-2.3,7.46-6.1S450.17,594.61,445.21,594.61Z"/><path d="M494.36,616.51V623h-27.1V588h26.45v6.5h-18.4v7.6h16.25v6.3H475.31v8.1Z"/><path d="M523.86,615.51H507.61l-3.1,7.5h-8.3l15.6-35h8l15.65,35H527Zm-2.55-6.15L515.76,596l-5.55,13.4Z"/><path d="M539.11,588H555c11.45,0,19.3,6.9,19.3,17.5S566.46,623,555,623h-15.9Zm15.5,28.35c6.95,0,11.5-4.15,11.5-10.85s-4.55-10.85-11.5-10.85h-7.4v21.7Z"/><path d="M595.71,610.61V623h-8.1v-12.5L574.06,588h8.6L592,603.56,601.36,588h7.95Z"/><path d="M650.81,616.41V623H624.36v-5.25L637.86,605c3.1-3,3.65-4.75,3.65-6.45,0-2.75-1.9-4.35-5.6-4.35a8.56,8.56,0,0,0-7.25,3.5l-5.9-3.8c2.7-3.95,7.6-6.51,13.9-6.51,7.8,0,13,4,13,10.36,0,3.4-.95,6.5-5.85,11l-8,7.6Z"/><path d="M723.41,588,712,623h-8.7l-7.7-23.7L687.61,623H679l-11.5-35h8.4l7.9,24.6L692,588h7.5l8,24.8,8.15-24.8Z"/><path d="M760,588v35h-8.1V608.66H736V623h-8.1V588H736v13.8h15.9V588Z"/><path d="M768.31,588h8.1v35h-8.1Z"/><path d="M792,594.61h-11.2V588h30.5v6.6h-11.2V623H792Z"/><path d="M842.71,616.51V623h-27.1V588h26.45v6.5h-18.4v7.6h16.25v6.3H823.66v8.1Z"/><path d="M893.66,600.71c0,7.8-5.85,12.65-15.2,12.65h-7.05V623h-8.1V588h15.15C887.81,588,893.66,592.86,893.66,600.71Zm-8.2,0c0-3.85-2.5-6.1-7.45-6.1h-6.6v12.15H878C883,606.76,885.46,604.51,885.46,600.71Z"/><path d="M926.51,616.51V623h-27.1V588h26.45v6.5h-18.4v7.6h16.25v6.3H907.46v8.1Z"/><path d="M956,615.51H939.76l-3.1,7.5h-8.3L944,588h8l15.65,35h-8.5Zm-2.55-6.15L947.91,596l-5.55,13.4Z"/><path d="M993.56,623l-6.75-9.75h-7.45V623h-8.1V588h15.15c9.35,0,15.2,4.85,15.2,12.7a11.38,11.38,0,0,1-7.2,11l7.85,11.25Zm-7.6-28.4h-6.6v12.2H986c4.95,0,7.45-2.3,7.45-6.1S990.91,594.61,986,594.61Z"/><path d="M1008,588h8.1v28.4h17.55V623H1008Z"/><path d="M1079.26,623.61l-4.2-3.9a18.73,18.73,0,0,1-11.7,3.9c-7.7,0-13.35-4-13.35-9.6,0-4.4,2.35-7.45,7.7-10.45-2.55-2.65-3.6-4.9-3.6-7.4,0-5.1,4.3-8.6,10.9-8.6,6,0,10,3.1,10,8.05,0,3.6-2.1,6.25-6.85,8.85l6.4,5.95a22.51,22.51,0,0,0,1.75-5.45l6.25,1.95a23.09,23.09,0,0,1-3.2,8l4.1,3.8Zm-8.8-8.15-8.45-7.9c-3.2,1.85-4.35,3.45-4.35,5.6,0,2.55,2.4,4.35,6.25,4.35A11.19,11.19,0,0,0,1070.46,615.46Zm-9.25-19.4c0,1.35.55,2.35,2.7,4.45,3.45-1.85,4.55-3.15,4.55-4.75s-1.2-2.9-3.45-2.9C1062.61,592.86,1061.21,594.21,1061.21,596.06Z"/><path d="M1125.21,623l-6.75-9.75H1111V623h-8.11V588h15.16c9.35,0,15.2,4.85,15.2,12.7a11.38,11.38,0,0,1-7.2,11l7.85,11.25Zm-7.6-28.4H1111v12.2h6.6c5,0,7.45-2.3,7.45-6.1S1122.56,594.61,1117.61,594.61Z"/><path d="M1137.45,605.51c0-10.4,8.1-18.11,19.15-18.11s19.16,7.66,19.16,18.11-8.15,18.1-19.16,18.1S1137.45,615.91,1137.45,605.51Zm30.11,0c0-6.65-4.7-11.2-11-11.2s-10.95,4.55-10.95,11.2,4.7,11.2,10.95,11.2S1167.56,612.16,1167.56,605.51Z"/><path d="M1179.1,619.56l2.75-6.1a20.59,20.59,0,0,0,11.55,3.65c4.8,0,6.75-1.6,6.75-3.75,0-6.55-20.35-2.05-20.35-15.05,0-6,4.8-10.91,14.75-10.91a23.55,23.55,0,0,1,12.16,3.11l-2.51,6.15a19.77,19.77,0,0,0-9.7-2.75c-4.8,0-6.65,1.8-6.65,4,0,6.45,20.36,2,20.36,14.85,0,5.85-4.86,10.85-14.86,10.85C1187.8,623.61,1182.2,622,1179.1,619.56Z"/><path d="M1240.85,616.51V623h-27.1V588h26.45v6.5h-18.4v7.6h16.25v6.3H1221.8v8.1Z"/><path d="M1258.7,619.56l2.75-6.1a20.59,20.59,0,0,0,11.55,3.65c4.8,0,6.75-1.6,6.75-3.75,0-6.55-20.35-2.05-20.35-15.05,0-6,4.8-10.91,14.75-10.91a23.48,23.48,0,0,1,12.15,3.11l-2.5,6.15a19.77,19.77,0,0,0-9.7-2.75c-4.8,0-6.65,1.8-6.65,4,0,6.45,20.35,2,20.35,14.85,0,5.85-4.85,10.85-14.85,10.85C1267.4,623.61,1261.8,622,1258.7,619.56Z"/><path d="M1320.45,616.51V623h-27.1V588h26.45v6.5h-18.4v7.6h16.25v6.3H1301.4v8.1Z"/><path d="M1349.2,623l-6.75-9.75H1335V623h-8.1V588h15.15c9.35,0,15.2,4.85,15.2,12.7a11.38,11.38,0,0,1-7.2,11L1357.9,623Zm-7.6-28.4H1335v12.2h6.6c5,0,7.45-2.3,7.45-6.1S1346.55,594.61,1341.6,594.61Z"/><path d="M1363.35,607.61V588h8.1v19.3c0,6.65,2.9,9.4,7.8,9.4s7.8-2.75,7.8-9.4V588h8v19.6c0,10.3-5.9,16-15.85,16S1363.35,617.91,1363.35,607.61Z"/><path d="M1434.9,623l-.05-21-10.3,17.3h-3.65l-10.25-16.85V623h-7.6V588h6.7l13.1,21.75,12.9-21.75h6.65l.1,35Z"/><path d="M1497.05,613.46c0,6-4.8,9.55-14,9.55H1465V588h17.1c8.75,0,13.25,3.65,13.25,9.1a8.41,8.41,0,0,1-4.65,7.7A8.64,8.64,0,0,1,1497.05,613.46Zm-24-19.35v8.25h8c4,0,6.1-1.4,6.1-4.15s-2.15-4.1-6.1-4.1Zm15.9,18.5c0-3-2.25-4.35-6.45-4.35H1473v8.65h9.45C1486.65,616.91,1488.9,615.61,1488.9,612.61Z"/><path d="M1501,605.51c0-10.4,8.1-18.11,19.15-18.11s19.15,7.66,19.15,18.11-8.15,18.1-19.15,18.1S1501,615.91,1501,605.51Zm30.1,0c0-6.65-4.7-11.2-10.95-11.2s-11,4.55-11,11.2,4.7,11.2,11,11.2S1531.1,612.16,1531.1,605.51Z"/><path d="M1545.4,588h15.9c11.45,0,19.3,6.9,19.3,17.5s-7.85,17.5-19.3,17.5h-15.9Zm15.5,28.35c6.95,0,11.5-4.15,11.5-10.85s-4.55-10.85-11.5-10.85h-7.4v21.7Z"/><path d="M1602,610.61V623h-8.1v-12.5L1580.35,588h8.6l9.35,15.55,9.35-15.55h7.95Z"/><path d="M1665.25,613.46c0,6-4.8,9.55-14,9.55h-18.1V588h17.1c8.75,0,13.25,3.65,13.25,9.1a8.41,8.41,0,0,1-4.65,7.7A8.64,8.64,0,0,1,1665.25,613.46Zm-24-19.35v8.25h8c4,0,6.1-1.4,6.1-4.15s-2.15-4.1-6.1-4.1Zm15.9,18.5c0-3-2.25-4.35-6.45-4.35h-9.45v8.65h9.45C1654.85,616.91,1657.1,615.61,1657.1,612.61Z"/><path d="M1694.45,615.51H1678.2l-3.1,7.5h-8.3l15.6-35h8l15.65,35h-8.5Zm-2.55-6.15-5.55-13.4-5.55,13.4Z"/><path d="M1715.2,594.61H1704V588h30.5v6.6h-11.2V623h-8.1Z"/><path d="M1771,588v35h-8.1V608.66H1747V623h-8.1V588h8.1v13.8h15.9V588Z"/><path d="M1791.2,605.51c0-10.55,8.1-18.11,19-18.11,6,0,11.1,2.2,14.4,6.21l-5.2,4.8a11.26,11.26,0,0,0-8.8-4.1,11.2,11.2,0,1,0,0,22.4,11.15,11.15,0,0,0,8.8-4.15l5.2,4.8c-3.3,4-8.35,6.25-14.45,6.25C1799.3,623.61,1791.2,616.06,1791.2,605.51Z"/><path d="M1852.35,623l-6.75-9.75h-7.45V623h-8.1V588h15.15c9.35,0,15.2,4.85,15.2,12.7a11.38,11.38,0,0,1-7.2,11l7.85,11.25Zm-7.6-28.4h-6.6v12.2h6.6c5,0,7.45-2.3,7.45-6.1S1849.7,594.61,1844.75,594.61Z"/><path d="M1893.9,616.51V623h-27.11V588h26.46v6.5h-18.41v7.6h16.26v6.3h-16.26v8.1Z"/><path d="M1923.4,615.51h-16.26L1904,623h-8.3l15.6-35h8L1935,623h-8.5Zm-2.56-6.15-5.55-13.4-5.55,13.4Z"/><path d="M1970.5,623l0-21-10.31,17.3h-3.65l-10.25-16.85V623h-7.6V588h6.7l13.1,21.75L1971.35,588H1978l.1,35Z"/><path d="M105,767.65c0,6.2-4.55,11.61-14.55,11.61-4.85,0-10-1.35-13.35-3.75l3.2-6.2a16.84,16.84,0,0,0,10,3.15c4,0,6.55-1.7,6.55-4.56s-1.8-4.55-8.15-4.55h-9l1.8-19.7h21.35v6.5H88.22l-.55,6.65h2.85C100.87,756.8,105,761.45,105,767.65Z"/><path d="M108.27,761.15c0-11.55,6.4-18.1,15-18.1s15,6.55,15,18.1-6.35,18.11-15,18.11S108.27,772.71,108.27,761.15Zm21.85,0c0-7.95-2.8-11.25-6.85-11.25s-6.8,3.3-6.8,11.25,2.8,11.26,6.8,11.26S130.12,769.1,130.12,761.15Z"/><path d="M142.22,761.15c0-11.55,6.4-18.1,15-18.1s15,6.55,15,18.1-6.35,18.11-15,18.11S142.22,772.71,142.22,761.15Zm21.85,0c0-7.95-2.8-11.25-6.85-11.25s-6.8,3.3-6.8,11.25,2.8,11.26,6.8,11.26S164.07,769.1,164.07,761.15Z"/><path d="M210.22,778.66l-.05-21L199.87,775h-3.65L186,758.1v20.56h-7.6v-35h6.7l13.1,21.75,12.9-21.75h6.65l.1,35Z"/><path d="M226.11,743.65h8.11v28.41h17.55v6.6H226.11Z"/><g id="_Rectangle_" data-name="&lt;Rectangle&gt;"><rect class="cls-1" x="77" y="60.49" width="921" height="272"/></g><path class="cls-2" d="M212.1,244.19V165.71L192.18,181.1l-13.13-18,35.15-25.81h23.11V244.19Z"/><path class="cls-2" d="M354.73,208.87a38.66,38.66,0,0,1-3.47,17A34.06,34.06,0,0,1,342,237.7a40.23,40.23,0,0,1-13.21,7,50.22,50.22,0,0,1-15.24,2.34,49.64,49.64,0,0,1-13.81-1.89,44.13,44.13,0,0,1-11.93-5.36,35.94,35.94,0,0,1-9.2-8.53,33.8,33.8,0,0,1-5.66-11.39L296,212.8a17.89,17.89,0,0,0,6.26,9.2,18.22,18.22,0,0,0,22.19-.3q4.75-3.93,4.75-11.62a14.63,14.63,0,0,0-2-7.85,15.3,15.3,0,0,0-5.06-5.06,21.25,21.25,0,0,0-7-2.64,41.82,41.82,0,0,0-7.85-.75,77,77,0,0,0-13.06,1.28,75.79,75.79,0,0,0-13,3.4l2.56-61.13H349.3v21.74h-43l-.9,16.9a32.32,32.32,0,0,1,5.35-.83c2-.15,3.75-.23,5.36-.23A52.56,52.56,0,0,1,331.18,177a34.5,34.5,0,0,1,12.3,6.41,30.61,30.61,0,0,1,8.23,10.64A34.11,34.11,0,0,1,354.73,208.87Z"/><path class="cls-2" d="M455.09,172.65a43.6,43.6,0,0,1-3.31,17.28,100.66,100.66,0,0,1-8.6,15.77l-25.79,38.49H386.78l26.58-36.83.31-.45a19.09,19.09,0,0,1-3.7.9,25,25,0,0,1-3.84.31,36.3,36.3,0,0,1-13.41-2.49,34.06,34.06,0,0,1-11.15-7.1A34.26,34.26,0,0,1,371,173.25a38.76,38.76,0,0,1,3.31-16.3,35.66,35.66,0,0,1,9-12.22,40,40,0,0,1,13.41-7.62,51.73,51.73,0,0,1,32.69,0,39.23,39.23,0,0,1,13.34,7.62,36.51,36.51,0,0,1,9,12.07A37,37,0,0,1,455.09,172.65Zm-25.2-.3a17.52,17.52,0,0,0-4.47-12q-4.47-5.06-12.21-5.06t-12.35,4.76q-4.64,4.75-4.63,12.45a16.67,16.67,0,0,0,4.55,12q4.55,4.75,12.13,4.75t12.28-4.68Q429.89,179.89,429.89,172.35Z"/><path class="cls-2" d="M485.28,262.9H464.9L476.22,220h23.7Z"/><path class="cls-2" d="M597.72,190.46A100.55,100.55,0,0,1,595.46,212a55.19,55.19,0,0,1-7.25,18,37.52,37.52,0,0,1-12.9,12.37q-7.93,4.61-19.25,4.61t-19.32-4.61a38,38,0,0,1-13-12.37,54.2,54.2,0,0,1-7.32-18,99.92,99.92,0,0,1-2.26-21.58A98.87,98.87,0,0,1,516.37,169a52.52,52.52,0,0,1,7.32-17.81,37.81,37.81,0,0,1,13-12.15q8-4.53,19.32-4.53T575.31,139a37.35,37.35,0,0,1,12.9,12.15A53.47,53.47,0,0,1,595.46,169,99.49,99.49,0,0,1,597.72,190.46Zm-26,0q0-5-.6-11a55.24,55.24,0,0,0-2.27-11.24,24.48,24.48,0,0,0-4.75-8.76,10.24,10.24,0,0,0-8.08-3.54,10.45,10.45,0,0,0-8.15,3.54,24.57,24.57,0,0,0-4.9,8.76,51.45,51.45,0,0,0-2.34,11.24c-.4,4-.61,7.7-.61,11s.21,7.17.61,11.24A51.45,51.45,0,0,0,543,213a24.65,24.65,0,0,0,4.9,8.76,10.45,10.45,0,0,0,8.15,3.54,10.24,10.24,0,0,0,8.08-3.54,24.57,24.57,0,0,0,4.75-8.76,55.21,55.21,0,0,0,2.27-11.32Q571.76,195.6,571.76,190.46Z"/><path class="cls-2" d="M695.22,190.46A99.92,99.92,0,0,1,693,212a55.18,55.18,0,0,1-7.24,18,37.52,37.52,0,0,1-12.9,12.37q-7.93,4.61-19.25,4.61t-19.32-4.61a38,38,0,0,1-13-12.37,54.2,54.2,0,0,1-7.32-18,99.92,99.92,0,0,1-2.27-21.58A98.86,98.86,0,0,1,613.87,169a52.52,52.52,0,0,1,7.32-17.81,37.81,37.81,0,0,1,13-12.15q8-4.53,19.32-4.53T672.81,139a37.35,37.35,0,0,1,12.9,12.15A53.46,53.46,0,0,1,693,169,98.86,98.86,0,0,1,695.22,190.46Zm-26,0a109.5,109.5,0,0,0-.61-11,54.58,54.58,0,0,0-2.26-11.24,24.48,24.48,0,0,0-4.75-8.76,10.24,10.24,0,0,0-8.08-3.54,10.44,10.44,0,0,0-8.15,3.54,24.57,24.57,0,0,0-4.9,8.76,51.45,51.45,0,0,0-2.34,11.24,109.5,109.5,0,0,0-.61,11q0,5.13.61,11.24A51.45,51.45,0,0,0,640.51,213a24.65,24.65,0,0,0,4.9,8.76,10.44,10.44,0,0,0,8.15,3.54,10.24,10.24,0,0,0,8.08-3.54,24.57,24.57,0,0,0,4.75-8.76,54.56,54.56,0,0,0,2.26-11.32Q669.26,195.6,669.26,190.46Z"/><path class="cls-2" d="M792.72,190.46A99.92,99.92,0,0,1,790.45,212a55.18,55.18,0,0,1-7.24,18,37.46,37.46,0,0,1-12.91,12.37q-7.92,4.61-19.24,4.61t-19.32-4.61a38,38,0,0,1-13-12.37,54,54,0,0,1-7.32-18,99.92,99.92,0,0,1-2.27-21.58A98.86,98.86,0,0,1,711.37,169a52.32,52.32,0,0,1,7.32-17.81,37.81,37.81,0,0,1,13-12.15q8-4.53,19.32-4.53T770.3,139a37.29,37.29,0,0,1,12.91,12.15A53.46,53.46,0,0,1,790.45,169,98.86,98.86,0,0,1,792.72,190.46Zm-26,0c0-3.32-.21-7-.61-11a54.58,54.58,0,0,0-2.26-11.24,24.48,24.48,0,0,0-4.75-8.76,10.24,10.24,0,0,0-8.08-3.54,10.44,10.44,0,0,0-8.15,3.54,24.57,24.57,0,0,0-4.9,8.76,51.45,51.45,0,0,0-2.34,11.24,109.5,109.5,0,0,0-.61,11q0,5.13.61,11.24A51.45,51.45,0,0,0,738,213a24.65,24.65,0,0,0,4.9,8.76,10.44,10.44,0,0,0,8.15,3.54,10.24,10.24,0,0,0,8.08-3.54,24.57,24.57,0,0,0,4.75-8.76,54.56,54.56,0,0,0,2.26-11.32C766.55,197.63,766.76,193.88,766.76,190.46Z"/><path class="cls-2" d="M866.22,244.19v-9.81h-.3a23.57,23.57,0,0,1-10.34,8.83,33.73,33.73,0,0,1-14.27,3.09A33.35,33.35,0,0,1,826.22,243,34.49,34.49,0,0,1,815,234.15a38.74,38.74,0,0,1-7-12.75,47.4,47.4,0,0,1-2.41-15.09,45.47,45.47,0,0,1,2.49-15,39.09,39.09,0,0,1,7.09-12.6A33.07,33.07,0,0,1,841,166.91a28.71,28.71,0,0,1,14,3.17A31.17,31.17,0,0,1,864,177h.31V158.16H841.77V144.73h22.49V130.09H889v14.64H896v13.43H889v86Zm-.91-37.73a20.61,20.61,0,0,0-4.9-13.29,18.09,18.09,0,0,0-5.66-4.37,16.63,16.63,0,0,0-7.55-1.66,17,17,0,0,0-7.7,1.66,17.39,17.39,0,0,0-9,10.41,22.92,22.92,0,0,0-1.13,7.1,23.53,23.53,0,0,0,1.13,7.16,18.48,18.48,0,0,0,3.4,6.27,16.66,16.66,0,0,0,13.28,6,16.76,16.76,0,0,0,7.55-1.66,18.12,18.12,0,0,0,5.66-4.38,20.05,20.05,0,0,0,3.62-6.19A20.41,20.41,0,0,0,865.31,206.46Z"/></svg>