<svg id="Layer_1" data-name="Layer 1" xmlns="http://www.w3.org/2000/svg" viewBox="0 0 996 398"><defs><style>.cls-1{fill:#c90202;}.cls-2{fill:#fff;}</style></defs><title>Image convert 4 (chăm sóc da mặt và tẩy trang) text fix</title><path d="M33.28,162.57H40.8l14.8,23.85h.09V162.57h5.67v31.86h-7.2L39,169.82H39v24.61H33.28Z"/><path d="M93.76,182.73a13.14,13.14,0,0,1-1,5.2,11.61,11.61,0,0,1-2.7,3.94,11.78,11.78,0,0,1-4,2.49,15.13,15.13,0,0,1-10.17,0,12,12,0,0,1-4.07-2.49,11.08,11.08,0,0,1-2.7-3.94,13.31,13.31,0,0,1-1-5.2V162.57h5.67v19.94a10.78,10.78,0,0,0,.36,2.76,6.87,6.87,0,0,0,1.19,2.46,6.16,6.16,0,0,0,2.21,1.75,8.82,8.82,0,0,0,6.79,0,6.16,6.16,0,0,0,2.21-1.75,6.87,6.87,0,0,0,1.19-2.46,10.78,10.78,0,0,0,.36-2.76V162.57h3.2a3.58,3.58,0,0,0,2.81-.92,3.89,3.89,0,0,0,.79-2.59,5.31,5.31,0,0,0-.21-1.46,4.17,4.17,0,0,0-.56-1.28l4.64-1.17a7,7,0,0,1,.63,1.82,10.92,10.92,0,0,1,.18,2.09A6.47,6.47,0,0,1,98,163.79a6,6,0,0,1-4.25,1.66Z"/><path d="M135.52,160.68a6.52,6.52,0,0,1-1.55,4.68,6.09,6.09,0,0,1-4.39,1.71,15.92,15.92,0,0,1,3,5,18.9,18.9,0,0,1-.21,13.16,15.73,15.73,0,0,1-3.57,5.31,16.26,16.26,0,0,1-5.45,3.46,18.54,18.54,0,0,1-6.88,1.24,18.26,18.26,0,0,1-6.82-1.24,15.71,15.71,0,0,1-9-8.77,17.7,17.7,0,0,1-1.28-6.82,18,18,0,0,1,1.28-6.91,15.21,15.21,0,0,1,3.56-5.24,15.65,15.65,0,0,1,5.4-3.33,19.3,19.3,0,0,1,6.82-1.17,19,19,0,0,1,4,.36,21.47,21.47,0,0,1,2.86.81l2.16.81a5.28,5.28,0,0,0,1.89.36,3.37,3.37,0,0,0,2.68-.88,3.85,3.85,0,0,0,.74-2.54,5.7,5.7,0,0,0-.2-1.46,4.42,4.42,0,0,0-.56-1.28l4.63-1.17a7.16,7.16,0,0,1,.63,1.82A10.92,10.92,0,0,1,135.52,160.68ZM105.6,178.41a13.59,13.59,0,0,0,.78,4.7,11.1,11.1,0,0,0,2.25,3.72,10.42,10.42,0,0,0,3.47,2.45,11,11,0,0,0,4.43.88,11.2,11.2,0,0,0,4.46-.88,10.26,10.26,0,0,0,3.48-2.45,10.78,10.78,0,0,0,2.25-3.72,13.36,13.36,0,0,0,.79-4.7,12.94,12.94,0,0,0-.79-4.59,11.09,11.09,0,0,0-2.22-3.69,10.31,10.31,0,0,0-3.47-2.47,11,11,0,0,0-4.5-.9,10.83,10.83,0,0,0-4.48.9,10.39,10.39,0,0,0-3.44,2.47,11.28,11.28,0,0,0-2.23,3.69A13.17,13.17,0,0,0,105.6,178.41Zm12.46-24.84h6.12l-6.34,6.48h-4.23Z"/><path d="M162.16,170a7.29,7.29,0,0,0-3.28-2.5,11.08,11.08,0,0,0-8.46.12,10.49,10.49,0,0,0-3.49,2.47,10.84,10.84,0,0,0-2.25,3.69,12.94,12.94,0,0,0-.79,4.59,14.2,14.2,0,0,0,.77,4.77,10.62,10.62,0,0,0,2.18,3.71,9.71,9.71,0,0,0,3.4,2.41,11.11,11.11,0,0,0,4.45.86,9.81,9.81,0,0,0,4.55-1,8.8,8.8,0,0,0,3.19-2.67l4.55,3.19a14.64,14.64,0,0,1-5.18,4.12,16.47,16.47,0,0,1-7.15,1.46,18.45,18.45,0,0,1-6.87-1.24,15.5,15.5,0,0,1-8.88-8.77,17.89,17.89,0,0,1-1.26-6.82A17.41,17.41,0,0,1,139,171.5a15.43,15.43,0,0,1,3.65-5.24,16.15,16.15,0,0,1,5.47-3.33,19.49,19.49,0,0,1,6.84-1.17,18.91,18.91,0,0,1,3.19.29,17,17,0,0,1,3.2.9,15.78,15.78,0,0,1,2.88,1.51,9.25,9.25,0,0,1,2.29,2.16Z"/><path d="M187.09,167.52h-9.76v-5h25.2v5h-9.77v26.91h-5.67Z"/><path d="M216.21,162.57h4.9l13.73,31.86h-6.48l-3-7.29H211.57l-2.88,7.29h-6.34Zm5.53-2.07-3.1-4.05-3.11,4.05h-5l5.18-6.48h6.07l5.13,6.48Zm1.67,21.78-4.91-13-5,13Zm1.93-26.23a4,4,0,0,1,.34-1.69A3.42,3.42,0,0,1,227.1,153a2.68,2.68,0,0,0,.72-.52,1,1,0,0,0,.22-.69.91.91,0,0,0-.29-.66,1.15,1.15,0,0,0-.83-.29q-1.26,0-1.53,1.53l-3.06-.36a3.77,3.77,0,0,1,1.48-2.59,5.22,5.22,0,0,1,3.11-.87,4.75,4.75,0,0,1,3.08.9,2.72,2.72,0,0,1,1.1,2.2,3,3,0,0,1-.47,1.8,3.7,3.7,0,0,1-1.55,1.17,2.25,2.25,0,0,0-.86.65,1.34,1.34,0,0,0-.22.75Z"/><path d="M245.68,180.62l-12-18.05h6.93l8,13.41,8.1-13.41h6.57l-12,18.05v13.81h-5.67Z"/><path d="M281.5,167.52h-9.76v-5h25.2v5h-9.77v26.91H281.5Z"/><path d="M300.63,162.57H311.7a20.22,20.22,0,0,1,4.36.47,11.31,11.31,0,0,1,3.76,1.56,8,8,0,0,1,2.63,2.83,8.6,8.6,0,0,1,1,4.28,8.13,8.13,0,0,1-1.95,5.64,9.87,9.87,0,0,1-5.34,3l8.51,14.13h-6.84l-7.38-13.5H306.3v13.5h-5.67Zm10.3,13.73a16.56,16.56,0,0,0,2.43-.18,7.11,7.11,0,0,0,2.19-.68,4.24,4.24,0,0,0,1.59-1.42,4.08,4.08,0,0,0,.63-2.36,3.65,3.65,0,0,0-.58-2.14,4.4,4.4,0,0,0-1.49-1.32,6.21,6.21,0,0,0-2-.68,14.45,14.45,0,0,0-2.23-.18H306.3v9Z"/><path d="M338.92,162.57h4.91l13.72,31.86h-6.48l-3-7.29H334.29l-2.88,7.29h-6.35Zm7.2,19.71-4.9-13-5,13Z"/><path d="M360.7,162.57h7.52L383,186.42h.09V162.57h5.67v31.86h-7.2l-15.12-24.61h-.09v24.61H360.7Z"/><path d="M423.7,192.77a24.39,24.39,0,0,1-5.33,1.82,30.93,30.93,0,0,1-6.68.65,19.33,19.33,0,0,1-7.07-1.24,16.14,16.14,0,0,1-5.49-3.46,15.73,15.73,0,0,1-3.57-5.31,17.52,17.52,0,0,1-1.29-6.82,17.24,17.24,0,0,1,1.33-6.91,15.3,15.3,0,0,1,3.65-5.24,16.1,16.1,0,0,1,5.46-3.33,19.49,19.49,0,0,1,6.84-1.17,21.32,21.32,0,0,1,7,1.1,14.32,14.32,0,0,1,5.11,2.91L419.74,170a9.66,9.66,0,0,0-3.39-2.3,11.85,11.85,0,0,0-4.75-.94,11.26,11.26,0,0,0-4.57.9,10.29,10.29,0,0,0-3.49,2.47,11.09,11.09,0,0,0-2.22,3.69,12.94,12.94,0,0,0-.79,4.59,13.36,13.36,0,0,0,.79,4.7,10.78,10.78,0,0,0,2.25,3.72,10.16,10.16,0,0,0,3.55,2.45,12.3,12.3,0,0,0,4.75.88,16.39,16.39,0,0,0,6.34-1.13v-8.1h-6.7v-4.68H423.7Z"/><path d="M441.84,162.57h10.39a22.65,22.65,0,0,1,4.95.5,10.31,10.31,0,0,1,3.78,1.62,7.54,7.54,0,0,1,2.43,2.88,9.58,9.58,0,0,1,.86,4.23,9.12,9.12,0,0,1-1,4.45,8,8,0,0,1-2.68,2.9,11.7,11.7,0,0,1-3.94,1.6,22.15,22.15,0,0,1-4.77.5h-4.36v13.18h-5.67Zm9.63,13.91a16.08,16.08,0,0,0,2.65-.21,7.08,7.08,0,0,0,2.25-.72,4.07,4.07,0,0,0,1.58-1.41,4.23,4.23,0,0,0,.58-2.34,4.06,4.06,0,0,0-.58-2.28,4.11,4.11,0,0,0-1.55-1.37,6.56,6.56,0,0,0-2.21-.65,19.25,19.25,0,0,0-2.54-.16h-4.14v9.14Z"/><path d="M469.29,162.57H475v12.87h14.89V162.57h5.67v31.86h-5.67V180.3H475v14.13h-5.67Z"/><path d="M512.53,162.57h4.91l13.72,31.86h-6.48l-3-7.29H507.9L505,194.43h-6.35Zm7.2,19.71-4.9-13-5,13Z"/><path d="M544.75,162.57h11.3a25,25,0,0,1,6.25.81,16.11,16.11,0,0,1,5.67,2.68,14,14,0,0,1,4.1,4.9,16.28,16.28,0,0,1,1.57,7.54,15.36,15.36,0,0,1-1.57,7.2,14.75,14.75,0,0,1-4.1,5,17,17,0,0,1-5.67,2.86,22.31,22.31,0,0,1-6.25.92h-11.3Zm10.4,26.91a19,19,0,0,0,4.41-.52,11.33,11.33,0,0,0,4-1.75,9.41,9.41,0,0,0,2.9-3.35,11.35,11.35,0,0,0,1.13-5.36,12.06,12.06,0,0,0-1.13-5.58,9.07,9.07,0,0,0-2.9-3.37,10.84,10.84,0,0,0-4-1.67,22,22,0,0,0-4.41-.45h-4.73v22Z"/><path d="M589.12,162.57H594l13.72,31.86h-6.48l-3-7.29H584.49l-2.88,7.29h-6.35Zm-2.74-7.33h-3.87L577.2,149h5.94Zm8.28,5.26-3.11-4.05-3.1,4.05h-5l5.17-6.48h6.08l5.13,6.48Zm1.66,21.78-4.9-13-5,13Z"/><path d="M636.28,182.73a13.14,13.14,0,0,1-1,5.2,11.61,11.61,0,0,1-2.7,3.94,11.78,11.78,0,0,1-4.05,2.49,15.13,15.13,0,0,1-10.17,0,12,12,0,0,1-4.07-2.49,11.08,11.08,0,0,1-2.7-3.94,13.31,13.31,0,0,1-1-5.2V162.57h5.67v19.94a10.78,10.78,0,0,0,.36,2.76,6.87,6.87,0,0,0,1.19,2.46,6.16,6.16,0,0,0,2.21,1.75,8.82,8.82,0,0,0,6.79,0,6.16,6.16,0,0,0,2.21-1.75,6.87,6.87,0,0,0,1.19-2.46,10.78,10.78,0,0,0,.36-2.76V162.57h5.67Z"/><path d="M33.06,211.65h2.52V222.4H49.09V211.65h2.52v24.78H49.09V224.71H35.58v11.72H33.06Z"/><path d="M66.7,236.43H64.18V225.76L54.9,211.65h3.15l7.46,12,7.52-12H76L66.7,225.76Z"/><path d="M77,236.43H74.22l10.71-24.78h2.45L98,236.43h-2.8l-2.73-6.51H79.68Zm3.64-8.82H91.55l-5.46-13.16Z"/><path d="M104.18,234.19h11.55v2.24H101.66V211.65h2.52Z"/><path d="M127.81,237.06a9.65,9.65,0,0,1-4.59-1,8.14,8.14,0,0,1-2.83-2.43,9,9,0,0,1-1.46-3.21,14.88,14.88,0,0,1-.4-3.27V211.65h2.52v15.26a12.22,12.22,0,0,0,.35,2.92,7.07,7.07,0,0,0,1.14,2.52,5.86,5.86,0,0,0,2.08,1.79,6.87,6.87,0,0,0,3.19.68,6.8,6.8,0,0,0,3.18-.68,5.86,5.86,0,0,0,2.08-1.79,7.07,7.07,0,0,0,1.14-2.52,11.73,11.73,0,0,0,.35-2.92V211.65h2.52v15.54a14.31,14.31,0,0,1-.4,3.27,9,9,0,0,1-1.45,3.21,8.07,8.07,0,0,1-2.86,2.43A9.63,9.63,0,0,1,127.81,237.06Z"/><path d="M146,236.43h-2.52V211.65h7.28a15.66,15.66,0,0,1,3.38.35,7.54,7.54,0,0,1,2.69,1.14,5.33,5.33,0,0,1,1.77,2.05,6.82,6.82,0,0,1,.63,3.08,6.05,6.05,0,0,1-1.82,4.42,6.4,6.4,0,0,1-2,1.32,9.13,9.13,0,0,1-2.52.63l7.24,11.79H157.1l-6.86-11.58H146Zm0-13.75h4.38a8.36,8.36,0,0,0,4.69-1.11,3.71,3.71,0,0,0,1.64-3.3,4.34,4.34,0,0,0-.45-2.07,3.82,3.82,0,0,0-1.26-1.36,5.7,5.7,0,0,0-2-.77,12,12,0,0,0-2.56-.25H146Z"/><path d="M189,224a13.67,13.67,0,0,1-1,5.22,12.35,12.35,0,0,1-6.81,6.82,13.92,13.92,0,0,1-10.26,0,12.29,12.29,0,0,1-6.8-6.82,14.37,14.37,0,0,1,0-10.43,12.36,12.36,0,0,1,2.71-4.12,12.65,12.65,0,0,1,4.09-2.71,13.92,13.92,0,0,1,10.26,0,12.32,12.32,0,0,1,6.81,6.83A13.58,13.58,0,0,1,189,224Zm-2.66,0a12.29,12.29,0,0,0-.7-4.12,10.45,10.45,0,0,0-2-3.45,9.72,9.72,0,0,0-3.24-2.35,10.9,10.9,0,0,0-8.58,0,9.58,9.58,0,0,0-3.23,2.35,10.12,10.12,0,0,0-2,3.45,12.47,12.47,0,0,0,0,8.24,9.94,9.94,0,0,0,2,3.43,9.7,9.7,0,0,0,3.23,2.34,11,11,0,0,0,8.58,0,9.84,9.84,0,0,0,3.24-2.34,10.26,10.26,0,0,0,2-3.43A12.29,12.29,0,0,0,186.33,224.06Z"/><path d="M211.81,232.76h.07V211.65h2.52v24.78h-3.15l-14.42-21.31h-.07v21.31h-2.52V211.65h3.15Z"/><path d="M250.59,232.41a10.11,10.11,0,0,1-1.53,1.78,10,10,0,0,1-2.06,1.49,11.93,11.93,0,0,1-2.59,1,12.14,12.14,0,0,1-3.1.37,13.54,13.54,0,0,1-5.18-1,12.18,12.18,0,0,1-4.09-2.71,12.34,12.34,0,0,1-2.68-4.11,13.85,13.85,0,0,1-1-5.22,13.39,13.39,0,0,1,1-5.21,12.36,12.36,0,0,1,2.71-4.12,12.65,12.65,0,0,1,4.09-2.71,13.35,13.35,0,0,1,5.13-1,12.64,12.64,0,0,1,2.68.29,12.31,12.31,0,0,1,2.47.8,10.34,10.34,0,0,1,2.1,1.23,7.36,7.36,0,0,1,1.57,1.64l-2.1,1.54a6.12,6.12,0,0,0-1-1.19,6.82,6.82,0,0,0-1.52-1.05,9.47,9.47,0,0,0-1.91-.74,8.76,8.76,0,0,0-2.22-.28,10.33,10.33,0,0,0-4.33.87,9.75,9.75,0,0,0-3.23,2.36,10.08,10.08,0,0,0-2,3.44,12,12,0,0,0-.7,4.11,11.82,11.82,0,0,0,.71,4.12,10.41,10.41,0,0,0,2,3.43,9.75,9.75,0,0,0,3.24,2.36,10.21,10.21,0,0,0,4.29.87,9.78,9.78,0,0,0,4.06-.87,7.83,7.83,0,0,0,3.22-2.8Z"/><path d="M257.45,234.19H269v2.24H254.93V211.65h2.52Z"/><path d="M275.3,234.19h13.26v2.24H272.78V211.65h15.36v2.24H275.3v8.51h12v2.24h-12Z"/><path d="M293.32,236.43h-2.76l10.71-24.78h2.45l10.64,24.78h-2.8l-2.73-6.51H296Zm3.64-8.82h10.92l-5.46-13.16Z"/><path d="M330,215.64a6.08,6.08,0,0,0-2.06-1.8,6.28,6.28,0,0,0-3.05-.68,6.34,6.34,0,0,0-1.85.28,5.32,5.32,0,0,0-1.72.85,4.39,4.39,0,0,0-1.24,1.46,4.21,4.21,0,0,0-.47,2.06,3.82,3.82,0,0,0,.45,2,4.16,4.16,0,0,0,1.2,1.31,6.94,6.94,0,0,0,1.71.9l2,.7c.86.28,1.73.58,2.6.91a9.37,9.37,0,0,1,2.36,1.27,5.88,5.88,0,0,1,2.37,5.06,6.63,6.63,0,0,1-2.54,5.43,7.77,7.77,0,0,1-2.59,1.29,10.47,10.47,0,0,1-2.92.42,10.65,10.65,0,0,1-2.24-.23,9.46,9.46,0,0,1-2.13-.68A8.68,8.68,0,0,1,318,235a8.38,8.38,0,0,1-1.54-1.61l2.16-1.61a6.77,6.77,0,0,0,2.26,2.22,6.75,6.75,0,0,0,5.34.59,5.32,5.32,0,0,0,1.77-.91,5.06,5.06,0,0,0,1.29-1.5,4.14,4.14,0,0,0,.51-2.08,4.19,4.19,0,0,0-.51-2.16,4.46,4.46,0,0,0-1.34-1.43,7.91,7.91,0,0,0-1.93-1c-.72-.26-1.48-.52-2.27-.77s-1.63-.55-2.42-.88a7.89,7.89,0,0,1-2.13-1.28,6,6,0,0,1-1.53-1.94,6.34,6.34,0,0,1-.58-2.83,6.23,6.23,0,0,1,.72-3.08,6.48,6.48,0,0,1,1.88-2.14,7.7,7.7,0,0,1,2.55-1.22A10.23,10.23,0,0,1,325,211a9.58,9.58,0,0,1,4.3.89A7.57,7.57,0,0,1,332,214Z"/><path d="M340.25,236.43h-2.51V211.65h2.51Z"/><path d="M364.41,232.76h.06V211.65H367v24.78h-3.16l-14.42-21.31h-.07v21.31h-2.52V211.65H350Z"/><path d="M392.37,216.13a9.12,9.12,0,0,0-3.08-2.12,10.52,10.52,0,0,0-4.1-.75,10,10,0,0,0-4.28.88,9.72,9.72,0,0,0-3.24,2.35,10.5,10.5,0,0,0-2.05,3.45,12.15,12.15,0,0,0,0,8.24,10.31,10.31,0,0,0,2.05,3.43,9.84,9.84,0,0,0,3.24,2.34,10.2,10.2,0,0,0,4.28.87,15.41,15.41,0,0,0,3.85-.45,9.84,9.84,0,0,0,2.84-1.16v-7.52H386.1v-2.24h8.3v11.19a16,16,0,0,1-4.38,1.83,20,20,0,0,1-4.86.59,13.54,13.54,0,0,1-5.18-1,12.33,12.33,0,0,1-4.1-2.71,12.47,12.47,0,0,1-2.67-4.11,13.86,13.86,0,0,1-1-5.22,13.58,13.58,0,0,1,1-5.21A12.32,12.32,0,0,1,380,212a13.35,13.35,0,0,1,5.13-1,13.87,13.87,0,0,1,5.18.89,11.17,11.17,0,0,1,3.78,2.47Z"/><path d="M434.09,224a13.67,13.67,0,0,1-1,5.22,12.26,12.26,0,0,1-6.81,6.82,13.89,13.89,0,0,1-10.25,0,12.26,12.26,0,0,1-6.81-6.82,14.37,14.37,0,0,1,0-10.43,12.51,12.51,0,0,1,2.71-4.12,12.69,12.69,0,0,1,4.1-2.71,13.89,13.89,0,0,1,10.25,0,12.69,12.69,0,0,1,4.1,2.71,12.51,12.51,0,0,1,2.71,4.12A13.58,13.58,0,0,1,434.09,224Zm-2.66,0a12,12,0,0,0-.7-4.12,10.28,10.28,0,0,0-2-3.45,9.72,9.72,0,0,0-3.24-2.35,10.87,10.87,0,0,0-8.57,0,9.62,9.62,0,0,0-3.24,2.35,10.28,10.28,0,0,0-2,3.45,12.47,12.47,0,0,0,0,8.24,10.1,10.1,0,0,0,2,3.43,9.74,9.74,0,0,0,3.24,2.34,11,11,0,0,0,8.57,0,9.84,9.84,0,0,0,3.24-2.34,10.1,10.1,0,0,0,2-3.43A12,12,0,0,0,431.43,224.06Z"/><path d="M441.86,236.43h-2.52V211.65h2.52Z"/><path d="M451,234.19h11.55v2.24H448.44V211.65H451Z"/><path d="M476.72,236.43H474.2V211.65h2.52Z"/><path d="M500.87,232.76h.07V211.65h2.52v24.78h-3.15l-14.42-21.31h-.07v21.31H483.3V211.65h3.15Z"/><path d="M524.35,233h.07l6.2-21.32h3L539.82,233h.07L546,211.65h2.66l-7.32,24.78h-2.94l-6.23-21.28h-.07l-6.23,21.28h-2.94l-7.31-24.78h2.66Z"/><path d="M551.79,236.43H549l10.71-24.78h2.45l10.64,24.78H570l-2.73-6.51H554.49Zm3.64-8.82h10.92l-5.46-13.16Z"/><path d="M582.31,236.43h-2.52V213.89H571.5v-2.24h19.11v2.24h-8.3Z"/><path d="M596.84,234.19H610.1v2.24H594.32V211.65h15.36v2.24H596.84v8.51h12v2.24h-12Z"/><path d="M617.56,236.43H615V211.65h7.28a15.66,15.66,0,0,1,3.38.35,7.7,7.7,0,0,1,2.69,1.14,5.33,5.33,0,0,1,1.77,2.05,6.82,6.82,0,0,1,.63,3.08,6.2,6.2,0,0,1-.49,2.48,6,6,0,0,1-1.33,1.94,6.45,6.45,0,0,1-2,1.32,9.13,9.13,0,0,1-2.52.63l7.25,11.79h-3.08l-6.86-11.58h-4.2Zm0-13.75h4.37a8.34,8.34,0,0,0,4.69-1.11,3.69,3.69,0,0,0,1.65-3.3,4.22,4.22,0,0,0-.46-2.07,3.65,3.65,0,0,0-1.26-1.36,5.62,5.62,0,0,0-2-.77,11.86,11.86,0,0,0-2.55-.25h-4.48Z"/><path d="M37.19,305.84h1.12a11.83,11.83,0,0,0,1.88-.16,5.54,5.54,0,0,0,1.69-.58A3.32,3.32,0,0,0,43.12,304a3.28,3.28,0,0,0,.48-1.87,3.44,3.44,0,0,0-.32-1.5,3.09,3.09,0,0,0-.86-1.12,3.74,3.74,0,0,0-1.25-.7,4.44,4.44,0,0,0-1.49-.25,3.76,3.76,0,0,0-2.56.88,4.54,4.54,0,0,0-1.4,2.31l-3.95-1a6.57,6.57,0,0,1,1.06-2.29,8,8,0,0,1,1.83-1.79,8.72,8.72,0,0,1,2.39-1.17,9.26,9.26,0,0,1,2.8-.42,10.53,10.53,0,0,1,3.06.44,7.52,7.52,0,0,1,2.54,1.29,6.1,6.1,0,0,1,1.72,2.12,6.5,6.5,0,0,1,.63,2.94,5.7,5.7,0,0,1-4.45,5.6v.07a6.51,6.51,0,0,1,3.69,2,5.63,5.63,0,0,1,1.42,3.9,7.24,7.24,0,0,1-.74,3.36,7.08,7.08,0,0,1-2,2.38A8.87,8.87,0,0,1,43,320.59a10.78,10.78,0,0,1-3.12.47,12.87,12.87,0,0,1-3-.33,9.29,9.29,0,0,1-2.58-1,7.74,7.74,0,0,1-2.06-1.82,8.28,8.28,0,0,1-1.38-2.66L34.78,314a5.15,5.15,0,0,0,1.69,2.49,5,5,0,0,0,3.24,1,5.78,5.78,0,0,0,1.63-.23,4.37,4.37,0,0,0,1.47-.71,3.81,3.81,0,0,0,1-1.26,4.06,4.06,0,0,0,.4-1.89,3.46,3.46,0,0,0-.57-2,4.21,4.21,0,0,0-1.46-1.29,6.65,6.65,0,0,0-1.94-.68,10.57,10.57,0,0,0-2-.21H37.19Z"/><path d="M70.55,308a23.67,23.67,0,0,1-.58,5.43,13.07,13.07,0,0,1-1.68,4.09,7.83,7.83,0,0,1-2.73,2.59,8.12,8.12,0,0,1-7.47,0,7.86,7.86,0,0,1-2.77-2.59,12.85,12.85,0,0,1-1.7-4.09,26.1,26.1,0,0,1,0-10.85,12.91,12.91,0,0,1,1.7-4.1,8,8,0,0,1,2.77-2.59,8.12,8.12,0,0,1,7.47,0,7.93,7.93,0,0,1,2.73,2.59,13.13,13.13,0,0,1,1.68,4.1A23.64,23.64,0,0,1,70.55,308Zm-4.31,0c0-.86,0-1.84-.16-2.94a14.18,14.18,0,0,0-.63-3.11,6.81,6.81,0,0,0-1.34-2.47,2.88,2.88,0,0,0-2.28-1,2.91,2.91,0,0,0-2.31,1A7,7,0,0,0,58.17,302a15.45,15.45,0,0,0-.64,3.11,27.43,27.43,0,0,0-.18,2.94,27.13,27.13,0,0,0,.18,2.94,14.61,14.61,0,0,0,.64,3.08,7,7,0,0,0,1.35,2.43,2.91,2.91,0,0,0,2.31,1,2.88,2.88,0,0,0,2.28-1,6.79,6.79,0,0,0,1.34-2.43,13.45,13.45,0,0,0,.63-3.08A29.44,29.44,0,0,0,66.24,308Z"/><path d="M75.2,295.65h6.9l6.44,17.61h.1L95,295.65h6.93v24.78H97.57V300.52H97.5L90,320.43H86.89l-7.42-19.91H79.4v19.91H75.2Z"/><path d="M107.4,295.65h4.41v20.86h10.54v3.92H107.4Z"/><path d="M47.45,341.43H37.33l-.24,5.36a7.17,7.17,0,0,1,1.41-.25c.55,0,1-.07,1.49-.07a10.5,10.5,0,0,1,3.38.53,7.9,7.9,0,0,1,2.71,1.52,6.82,6.82,0,0,1,1.8,2.45,8,8,0,0,1,.65,3.34,9,9,0,0,1-.72,3.69,7.83,7.83,0,0,1-1.94,2.75A8.39,8.39,0,0,1,43,362.47a10.33,10.33,0,0,1-3.5.59,9.13,9.13,0,0,1-5.25-1.45,8.31,8.31,0,0,1-3.11-4l3.81-1.4a4.94,4.94,0,0,0,1.75,2.36,4.85,4.85,0,0,0,2.91.89,5,5,0,0,0,1.78-.31,4.44,4.44,0,0,0,1.47-.91,4.25,4.25,0,0,0,1-1.49,5.37,5.37,0,0,0,.37-2,5.22,5.22,0,0,0-.49-2.38,4.48,4.48,0,0,0-1.28-1.53,4.76,4.76,0,0,0-1.77-.8,8.87,8.87,0,0,0-2-.23,11.26,11.26,0,0,0-1.49.11,15.5,15.5,0,0,0-1.54.29c-.5.13-1,.28-1.47.44a11.26,11.26,0,0,0-1.28.53l.42-13.55H47.45Z"/><path d="M70.55,350a23.67,23.67,0,0,1-.58,5.43,13.07,13.07,0,0,1-1.68,4.09,7.83,7.83,0,0,1-2.73,2.59,8.12,8.12,0,0,1-7.47,0,7.86,7.86,0,0,1-2.77-2.59,12.85,12.85,0,0,1-1.7-4.09,26.1,26.1,0,0,1,0-10.85,12.91,12.91,0,0,1,1.7-4.1,8,8,0,0,1,2.77-2.59,8.12,8.12,0,0,1,7.47,0,7.93,7.93,0,0,1,2.73,2.59,13.13,13.13,0,0,1,1.68,4.1A23.64,23.64,0,0,1,70.55,350Zm-4.31,0c0-.86,0-1.84-.16-2.94a14.18,14.18,0,0,0-.63-3.11,6.81,6.81,0,0,0-1.34-2.47,2.88,2.88,0,0,0-2.28-1,2.91,2.91,0,0,0-2.31,1A7,7,0,0,0,58.17,344a15.45,15.45,0,0,0-.64,3.11,27.43,27.43,0,0,0-.18,2.94,27.13,27.13,0,0,0,.18,2.94,14.61,14.61,0,0,0,.64,3.08,7,7,0,0,0,1.35,2.43,2.91,2.91,0,0,0,2.31,1,2.88,2.88,0,0,0,2.28-1,6.79,6.79,0,0,0,1.34-2.43,13.45,13.45,0,0,0,.63-3.08A29.44,29.44,0,0,0,66.24,350Z"/><path d="M91.9,350a23.67,23.67,0,0,1-.58,5.43,13.07,13.07,0,0,1-1.68,4.09,7.83,7.83,0,0,1-2.73,2.59,8.12,8.12,0,0,1-7.47,0,7.86,7.86,0,0,1-2.77-2.59,12.63,12.63,0,0,1-1.7-4.09,26.1,26.1,0,0,1,0-10.85,12.69,12.69,0,0,1,1.7-4.1,8,8,0,0,1,2.77-2.59,8.12,8.12,0,0,1,7.47,0,7.93,7.93,0,0,1,2.73,2.59,13.13,13.13,0,0,1,1.68,4.1A23.64,23.64,0,0,1,91.9,350Zm-4.31,0c0-.86,0-1.84-.16-2.94A14.18,14.18,0,0,0,86.8,344a6.81,6.81,0,0,0-1.34-2.47,3.13,3.13,0,0,0-4.59,0A7,7,0,0,0,79.52,344a15.45,15.45,0,0,0-.64,3.11A27.43,27.43,0,0,0,78.7,350a27.13,27.13,0,0,0,.18,2.94,14.61,14.61,0,0,0,.64,3.08,7,7,0,0,0,1.35,2.43,3.13,3.13,0,0,0,4.59,0,6.79,6.79,0,0,0,1.34-2.43,13.45,13.45,0,0,0,.63-3.08A29.44,29.44,0,0,0,87.59,350Z"/><path d="M96.55,337.65h6.9l6.44,17.61h.1l6.37-17.61h6.93v24.78h-4.37V342.52h-.07l-7.53,19.91h-3.08l-7.42-19.91h-.07v19.91h-4.2Z"/><path d="M128.75,337.65h4.41v20.86H143.7v3.92H128.75Z"/><g id="_Rectangle_" data-name="&lt;Rectangle&gt;"><rect class="cls-1" x="30" y="15.25" width="383" height="113.11"/></g><path class="cls-2" d="M73,91.64V82.87L90.36,67.2A16.71,16.71,0,0,0,93,64a6.81,6.81,0,0,0,1-3.64,5.17,5.17,0,0,0-1.51-3.85,6.06,6.06,0,0,0-8.32.38,8.41,8.41,0,0,0-2,4.86L72.09,60.38A15.63,15.63,0,0,1,82.86,47,19.33,19.33,0,0,1,89,46a21.55,21.55,0,0,1,6,.82,15.45,15.45,0,0,1,5.15,2.51,12.64,12.64,0,0,1,3.61,4.26,12.83,12.83,0,0,1,1.35,6,13.73,13.73,0,0,1-.63,4.3,14.19,14.19,0,0,1-1.73,3.54,20.25,20.25,0,0,1-2.51,3c-.94.94-1.91,1.87-2.92,2.79L87,82.48h18.14v9.16Z"/><path class="cls-2" d="M147,61.89a18.14,18.14,0,0,1-1.38,7.19,41.69,41.69,0,0,1-3.57,6.55l-10.73,16H118.62l11.06-15.32.12-.18a8.16,8.16,0,0,1-1.53.37,10.22,10.22,0,0,1-1.6.13,15.15,15.15,0,0,1-5.58-1,14,14,0,0,1-4.63-2.95,14.23,14.23,0,0,1-4.39-10.51,16.11,16.11,0,0,1,1.38-6.78,14.75,14.75,0,0,1,3.76-5.08,16.65,16.65,0,0,1,5.58-3.17,20.69,20.69,0,0,1,6.76-1.1,20.94,20.94,0,0,1,6.83,1.1,16.32,16.32,0,0,1,5.55,3.17,15.2,15.2,0,0,1,3.72,5A15.36,15.36,0,0,1,147,61.89Zm-10.48-.13a7.31,7.31,0,0,0-1.86-5,6.43,6.43,0,0,0-5.08-2.1,6.82,6.82,0,0,0-5.13,2,7.08,7.08,0,0,0-1.93,5.18,7,7,0,0,0,1.89,5,6.71,6.71,0,0,0,5.05,2,7,7,0,0,0,5.11-1.94A6.87,6.87,0,0,0,136.55,61.76Z"/><path class="cls-2" d="M187.58,61.89a18.14,18.14,0,0,1-1.38,7.19,41,41,0,0,1-3.58,6.55l-10.72,16H159.17l11.05-15.32.13-.18a8.09,8.09,0,0,1-1.54.37,10,10,0,0,1-1.59.13,15.08,15.08,0,0,1-5.58-1A14.07,14.07,0,0,1,157,72.65a14.27,14.27,0,0,1-4.38-10.51A16.11,16.11,0,0,1,154,55.36a14.72,14.72,0,0,1,3.75-5.08,16.65,16.65,0,0,1,5.58-3.17,21.57,21.57,0,0,1,13.6,0,16.28,16.28,0,0,1,5.54,3.17,15.09,15.09,0,0,1,3.73,5A15.36,15.36,0,0,1,187.58,61.89Zm-10.48-.13a7.35,7.35,0,0,0-1.86-5,6.45,6.45,0,0,0-5.08-2.1,6.84,6.84,0,0,0-5.14,2,7.12,7.12,0,0,0-1.92,5.18,7,7,0,0,0,1.89,5,6.67,6.67,0,0,0,5,2,6.69,6.69,0,0,0,7.07-7Z"/><path class="cls-2" d="M200.13,99.42h-8.47l4.7-17.82h9.86Z"/><path class="cls-2" d="M246.89,69.3a42,42,0,0,1-.94,9,22.92,22.92,0,0,1-3,7.5,14.92,14.92,0,0,1-13.37,7.06,15.93,15.93,0,0,1-8-1.91,15.75,15.75,0,0,1-5.43-5.15,22.51,22.51,0,0,1-3-7.5,43.17,43.17,0,0,1,0-17.92,22,22,0,0,1,3-7.41,15.74,15.74,0,0,1,5.43-5,18,18,0,0,1,16,0,15.62,15.62,0,0,1,5.36,5,22.42,22.42,0,0,1,3,7.41A41.7,41.7,0,0,1,246.89,69.3Zm-10.8,0a45.66,45.66,0,0,0-.25-4.59A23,23,0,0,0,234.9,60a10,10,0,0,0-2-3.64,4.22,4.22,0,0,0-3.36-1.48,4.29,4.29,0,0,0-3.38,1.48,10.12,10.12,0,0,0-2,3.64,21.11,21.11,0,0,0-1,4.67,45.66,45.66,0,0,0-.25,4.59c0,1.42.08,3,.25,4.67a21.23,21.23,0,0,0,1,4.71,10.21,10.21,0,0,0,2,3.64,4.31,4.31,0,0,0,3.38,1.47,4.25,4.25,0,0,0,3.36-1.47,10.11,10.11,0,0,0,2-3.64,23.11,23.11,0,0,0,.94-4.71C236,72.28,236.09,70.72,236.09,69.3Z"/><path class="cls-2" d="M287.43,69.3a41.39,41.39,0,0,1-.94,9,22.91,22.91,0,0,1-3,7.5,15,15,0,0,1-13.37,7.06,15.15,15.15,0,0,1-13.46-7.06,22.32,22.32,0,0,1-3-7.5,43.17,43.17,0,0,1,0-17.92,21.83,21.83,0,0,1,3-7.41,15.74,15.74,0,0,1,5.43-5,16.08,16.08,0,0,1,8-1.88,15.91,15.91,0,0,1,8,1.88,15.56,15.56,0,0,1,5.37,5,22.4,22.4,0,0,1,3,7.41A41.08,41.08,0,0,1,287.43,69.3Zm-10.79,0c0-1.39-.09-2.91-.25-4.59a23,23,0,0,0-.94-4.67,10.34,10.34,0,0,0-2-3.64,4.24,4.24,0,0,0-3.36-1.48,4.33,4.33,0,0,0-3.39,1.48,10.12,10.12,0,0,0-2,3.64,21.11,21.11,0,0,0-1,4.67,45.66,45.66,0,0,0-.25,4.59c0,1.42.08,3,.25,4.67a21.24,21.24,0,0,0,1,4.71,10.21,10.21,0,0,0,2,3.64,4.35,4.35,0,0,0,3.39,1.47,4.26,4.26,0,0,0,3.36-1.47,10.43,10.43,0,0,0,2-3.64,23.11,23.11,0,0,0,.94-4.71C276.55,72.28,276.64,70.72,276.64,69.3Z"/><path class="cls-2" d="M328,69.3a42,42,0,0,1-.94,9,22.92,22.92,0,0,1-3,7.5,14.92,14.92,0,0,1-13.36,7.06,15.94,15.94,0,0,1-8-1.91,15.75,15.75,0,0,1-5.43-5.15,22.51,22.51,0,0,1-3-7.5,43.17,43.17,0,0,1,0-17.92,22,22,0,0,1,3-7.41,15.74,15.74,0,0,1,5.43-5,16.15,16.15,0,0,1,8-1.88,16,16,0,0,1,8,1.88,15.62,15.62,0,0,1,5.36,5,22.42,22.42,0,0,1,3,7.41A41.7,41.7,0,0,1,328,69.3Zm-10.8,0a45.66,45.66,0,0,0-.25-4.59A23,23,0,0,0,316,60a10,10,0,0,0-2-3.64,4.22,4.22,0,0,0-3.35-1.48,4.3,4.3,0,0,0-3.39,1.48,10.12,10.12,0,0,0-2,3.64,21.11,21.11,0,0,0-1,4.67c-.16,1.68-.25,3.2-.25,4.59s.09,3,.25,4.67a21.23,21.23,0,0,0,1,4.71,10.21,10.21,0,0,0,2,3.64,4.32,4.32,0,0,0,3.39,1.47A4.24,4.24,0,0,0,314,82.32a10.11,10.11,0,0,0,2-3.64,23.11,23.11,0,0,0,.94-4.71C317.1,72.28,317.18,70.72,317.18,69.3Z"/><path class="cls-2" d="M358.54,91.64V87.56h-.12a9.83,9.83,0,0,1-4.3,3.67,14.63,14.63,0,0,1-12.21-.09,14.32,14.32,0,0,1-4.67-3.68,16,16,0,0,1-2.92-5.3,19.7,19.7,0,0,1-1-6.27,18.93,18.93,0,0,1,1-6.25,16.22,16.22,0,0,1,2.95-5.24,13.74,13.74,0,0,1,10.76-4.9,11.92,11.92,0,0,1,5.84,1.32,12.91,12.91,0,0,1,3.7,2.89h.13V55.86h-9.35V50.28h9.35V44.19H368v6.09h2.89v5.58H368V91.64ZM358.17,76a8.7,8.7,0,0,0-2-5.53,7.73,7.73,0,0,0-2.36-1.82,6.89,6.89,0,0,0-3.13-.69,7.09,7.09,0,0,0-3.21.69,7.54,7.54,0,0,0-2.32,1.79,7.3,7.3,0,0,0-1.41,2.55,9.53,9.53,0,0,0-.47,3,9.91,9.91,0,0,0,.47,3,7.53,7.53,0,0,0,1.41,2.6,7.19,7.19,0,0,0,2.32,1.82,7.09,7.09,0,0,0,3.21.69,6.89,6.89,0,0,0,3.13-.69,7.58,7.58,0,0,0,2.36-1.82,8.16,8.16,0,0,0,1.5-2.57A8.36,8.36,0,0,0,358.17,76Z"/></svg>