<svg id="Layer_1" data-name="Layer 1" xmlns="http://www.w3.org/2000/svg" viewBox="0 0 2006 912.99"><defs><style>.cls-1{fill:#c90202;}.cls-2{fill:#fff;}</style></defs><title>Image convert 1 body care fix text</title><path d="M76,473.5l5.83-12.93a43.61,43.61,0,0,0,24.48,7.74c10.18,0,14.31-3.4,14.31-7.95,0-13.89-43.14-4.35-43.14-31.91,0-12.61,10.18-23.11,31.27-23.11,9.33,0,18.87,2.23,25.76,6.57l-5.3,13a41.93,41.93,0,0,0-20.57-5.83c-10.17,0-14.09,3.82-14.09,8.48,0,13.68,43.14,4.24,43.14,31.48,0,12.41-10.28,23-31.48,23C94.48,482.09,82.61,478.59,76,473.5Z"/><path d="M216.06,416.79v31.38c0,21.83-12.51,33.92-33.6,33.92s-33.6-12.09-33.6-33.92V406.61H166v40.92c0,14.1,6.15,19.93,16.53,19.93s16.54-5.83,16.54-19.93V406.61h11c3.81,0,6.36-2.75,6.36-6.68a10.21,10.21,0,0,0-2.12-6.36l9.75-3.6a17.13,17.13,0,0,1,3.39,10.6C227.51,408.94,223.38,414.77,216.06,416.79Zm-45.47-16.64h-8.38c.21-9.44,5-15.48,12.4-15.48s11,6.78,14.85,6.78c2.86,0,4.87-2.22,5.08-5.72h8.38c-.21,9.12-5,15.16-12.4,15.16s-11-6.68-14.85-6.68C172.81,394.21,170.8,396.33,170.59,400.15Z"/><path d="M281.67,464.91H247.22l-6.57,15.9H223.06l33.07-74.2h17l33.18,74.2h-18Zm-5.4-13L264.5,423.47l-11.76,28.41Z"/><path d="M359.37,420.6H335.62v-14h64.67v14H376.54v60.21H359.37Z"/><path d="M454.67,464.91H420.21l-6.57,15.9H396.05l33.07-74.2h17l33.18,74.2h-18Zm-36.58-76.42h10c.42,3,4.24,5,9.54,5s9.12-2,9.54-5h10c-.74,7.95-8.58,12.93-19.5,12.93S418.84,396.44,418.09,388.49Zm31.17,63.39-11.77-28.41-11.76,28.41Zm-8.8-66.57h-12l11.77-12.83H457.1Z"/><path d="M554.52,480.81l-.11-44.52L532.57,473h-7.73l-21.73-35.72v43.56H487v-74.2H501.2L529,452.72l27.35-46.11h14.1l.21,74.2Z"/><path d="M613.56,443.71c0-22.36,17.17-38.37,40.28-38.37,12.82,0,23.53,4.67,30.52,13.14l-11,10.18A23.89,23.89,0,0,0,654.68,420c-13.88,0-23.74,9.75-23.74,23.74s9.86,23.75,23.74,23.75a23.65,23.65,0,0,0,18.66-8.8l11,10.18c-7,8.58-17.7,13.25-30.63,13.25C630.73,482.09,613.56,466.08,613.56,443.71Z"/><path d="M743.3,464.91H708.85l-6.57,15.9h-17.6l33.07-74.2h17l33.18,74.2h-18Zm-5.41-13-11.76-28.41-11.77,28.41Z"/><path d="M787.29,420.6H763.54v-14h64.67v14H804.46v60.21H787.29Z"/><path d="M905.48,406.61v74.2H888.31V450.39H854.6v30.42H837.43v-74.2H854.6v29.26h33.71V406.61Z"/><path d="M958.69,454.53v26.28H941.52v-26.5l-28.73-47.7H931l19.83,33,19.82-33h16.85Z"/><path d="M1024.73,406.61h33.71c24.27,0,40.91,14.63,40.91,37.1s-16.64,37.1-40.91,37.1h-33.71Zm32.86,60.11c14.73,0,24.38-8.8,24.38-23s-9.65-23-24.38-23H1041.9v46Z"/><path d="M1107.62,443.71c0-22,17.17-38.37,40.6-38.37s40.59,16.22,40.59,38.37-17.27,38.38-40.59,38.38S1107.62,465.76,1107.62,443.71Zm63.81,0c0-14.09-10-23.74-23.21-23.74S1125,429.62,1125,443.71s10,23.75,23.22,23.75S1171.43,457.81,1171.43,443.71Z"/><path d="M1201.74,406.61h17.18v60.21h37.2v14h-54.38Z"/><path d="M1265.77,406.61h17.17v60.21h37.21v14h-54.38Z"/><path d="M107.45,558.64,98.68,546H89v12.68H78.46v-45.5h19.7c12.15,0,19.76,6.3,19.76,16.51,0,6.82-3.45,11.83-9.36,14.36l10.2,14.63Zm-9.88-36.92H89v15.86h8.58c6.44,0,9.69-3,9.69-7.93S104,521.72,97.57,521.72Z"/><path d="M161.47,550.19v8.45H126.24v-45.5h34.38v8.45H136.7v9.88h21.13v8.19H136.7v10.53Z"/><path d="M199.82,548.89H178.69l-4,9.75H163.87l20.28-45.5h10.4l20.35,45.5H203.85Zm-3.32-8-7.21-17.42-7.22,17.42Z"/><path d="M219.64,513.14h20.67c14.89,0,25.09,9,25.09,22.75s-10.2,22.75-25.09,22.75H219.64ZM239.79,550c9,0,15-5.39,15-14.1s-5.91-14.11-15-14.11h-9.62V550Z"/><path d="M293.22,542.52v16.12H282.69V542.39l-17.62-29.25h11.18l12.16,20.21,12.16-20.21H310.9Z"/><path d="M364.85,550.06v8.58H330.46v-6.83L348,535.24c4-3.84,4.75-6.18,4.75-8.39,0-3.57-2.47-5.65-7.28-5.65a11.12,11.12,0,0,0-9.43,4.55l-7.67-4.94c3.51-5.14,9.88-8.45,18.07-8.45,10.14,0,16.9,5.2,16.9,13.45,0,4.42-1.23,8.45-7.6,14.37l-10.47,9.88Z"/><path d="M459.23,513.14l-14.89,45.5H433l-10-30.81-10.33,30.81H401.44l-14.95-45.5h10.92l10.27,32,10.73-32h9.75l10.4,32.24,10.59-32.24Z"/><path d="M506.81,513.14v45.5H496.28V540H475.61v18.66H465.08v-45.5h10.53v17.94h20.67V513.14Z"/><path d="M517.6,513.14h10.53v45.5H517.6Z"/><path d="M548.34,521.72H533.78v-8.58h39.65v8.58H558.87v36.92H548.34Z"/><path d="M614.32,550.19v8.45H579.09v-45.5h34.38v8.45H589.55v9.88h21.13v8.19H589.55v10.53Z"/><path d="M638.23,535.89c0-13.52,10.54-23.53,24.9-23.53S688,522.3,688,535.89s-10.6,23.53-24.9,23.53S638.23,549.41,638.23,535.89Zm39.14,0c0-8.65-6.11-14.56-14.24-14.56s-14.23,5.91-14.23,14.56,6.11,14.56,14.23,14.56S677.37,544.53,677.37,535.89Z"/><path d="M737.69,513.14v45.5H729L706.35,531v27.63H696v-45.5h8.72l22.62,27.62V513.14Z"/><path d="M783.71,550.19v8.45H748.47v-45.5h34.39v8.45H758.94v9.88h21.13v8.19H758.94v10.53Z"/><path d="M810.48,513.14h20.67c14.89,0,25.09,9,25.09,22.75s-10.2,22.75-25.09,22.75H810.48ZM830.63,550c9,0,15-5.39,15-14.1s-5.91-14.11-15-14.11H821V550Z"/><path d="M893.49,548.89H872.36l-4,9.75H857.54l20.28-45.5h10.4l20.35,45.5H897.52Zm-3.32-8L883,523.47l-7.22,17.42Z"/><path d="M932.36,542.52v16.12H921.83V542.39l-17.62-29.25h11.18l12.16,20.21,12.15-20.21H950Z"/><path d="M1041.62,513.14l-14.88,45.5h-11.31l-10-30.81-10.34,30.81H983.84l-15-45.5h10.92l10.27,32,10.72-32h9.75l10.4,32.24,10.6-32.24Z"/><path d="M1089.2,513.14v45.5h-10.53V540H1058v18.66h-10.53v-45.5H1058v17.94h20.67V513.14Z"/><path d="M1100,513.14h10.53v45.5H1100Z"/><path d="M1130.74,521.72h-14.57v-8.58h39.66v8.58h-14.56v36.92h-10.53Z"/><path d="M1196.71,550.19v8.45h-35.23v-45.5h34.39v8.45H1172v9.88h21.12v8.19H1172v10.53Z"/><path d="M1246.83,513.14v45.5h-8.65L1215.49,531v27.63h-10.4v-45.5h8.71l22.63,27.62V513.14Z"/><path d="M1292.85,550.19v8.45h-35.24v-45.5H1292v8.45h-23.92v9.88h21.13v8.19h-21.13v10.53Z"/><path d="M1330.22,558.64,1321.44,546h-9.68v12.68h-10.53v-45.5h19.69c12.16,0,19.76,6.3,19.76,16.51,0,6.82-3.44,11.83-9.36,14.36l10.21,14.63Zm-9.88-36.92h-8.58v15.86h8.58c6.43,0,9.68-3,9.68-7.93S1326.77,521.72,1320.34,521.72Z"/><path d="M1409.13,546.22c0,7.87-6.24,12.42-18.2,12.42H1367.4v-45.5h22.23c11.37,0,17.22,4.74,17.22,11.83a10.94,10.94,0,0,1-6,10C1405.88,536.6,1409.13,540.5,1409.13,546.22Zm-31.27-25.15v10.72h10.47c5.13,0,7.93-1.82,7.93-5.39s-2.8-5.33-7.93-5.33Zm20.67,24c0-3.84-2.92-5.66-8.38-5.66h-12.29v11.25h12.29C1395.61,550.71,1398.53,549,1398.53,545.12Z"/><path d="M1414.26,535.89c0-13.52,10.53-23.53,24.9-23.53s24.89,9.94,24.89,23.53-10.59,23.53-24.89,23.53S1414.26,549.41,1414.26,535.89Zm39.13,0c0-8.65-6.11-14.56-14.23-14.56s-14.24,5.91-14.24,14.56,6.11,14.56,14.24,14.56S1453.39,544.53,1453.39,535.89Z"/><path d="M1472,513.14h20.67c14.89,0,25.09,9,25.09,22.75s-10.2,22.75-25.09,22.75H1472ZM1492.13,550c9,0,14.95-5.39,14.95-14.1s-5.91-14.11-14.95-14.11h-9.62V550Z"/><path d="M1545.56,542.52v16.12H1535V542.39l-17.61-29.25h11.18l12.15,20.21,12.16-20.21h10.33Z"/><path d="M1583.19,535.89c0-13.72,10.54-23.53,24.71-23.53,7.86,0,14.43,2.86,18.72,8.06l-6.76,6.24a14.65,14.65,0,0,0-11.44-5.33c-8.52,0-14.57,6-14.57,14.56s6.05,14.56,14.57,14.56a14.5,14.5,0,0,0,11.44-5.4l6.76,6.24c-4.29,5.27-10.86,8.13-18.79,8.13C1593.73,559.42,1583.19,549.6,1583.19,535.89Z"/><path d="M1633.7,513.14h10.53v36.92H1667v8.58H1633.7Z"/><path d="M1708.19,550.19v8.45H1673v-45.5h34.38v8.45h-23.92v9.88h21.13v8.19h-21.13v10.53Z"/><path d="M1746.54,548.89h-21.13l-4,9.75h-10.79l20.28-45.5h10.4l20.35,45.5h-11Zm-3.32-8L1736,523.47l-7.22,17.42Z"/><path d="M1808.09,513.14v45.5h-8.64L1776.76,531v27.63h-10.4v-45.5h8.71l22.62,27.62V513.14Z"/><path d="M1815.31,554.15l3.57-7.93a26.76,26.76,0,0,0,15,4.75c6.24,0,8.77-2.08,8.77-4.88,0-8.51-26.45-2.66-26.45-19.56,0-7.74,6.24-14.17,19.17-14.17,5.72,0,11.57,1.36,15.8,4l-3.25,8a25.76,25.76,0,0,0-12.61-3.57c-6.24,0-8.65,2.34-8.65,5.2,0,8.38,26.46,2.6,26.46,19.3,0,7.61-6.31,14.11-19.31,14.11C1826.62,559.42,1819.34,557.27,1815.31,554.15Z"/><path d="M1895.58,550.19v8.45h-35.23v-45.5h34.39v8.45h-23.92v9.88h21.12v8.19h-21.12v10.53Z"/><path d="M1933,558.64,1924.18,546h-9.68v12.68H1904v-45.5h19.69c12.16,0,19.76,6.3,19.76,16.51,0,6.82-3.44,11.83-9.36,14.36l10.21,14.63Zm-9.88-36.92h-8.58v15.86h8.58c6.43,0,9.68-3,9.68-7.93S1929.51,521.72,1923.08,521.72Z"/><path d="M113.87,705.47H107v8.82H97.55v-8.82H74.93v-6.54l19.8-26.64h10.2L86.57,697.55H97.85v-7.86H107v7.86h6.84Z"/><path d="M148.37,701.09c0,7.44-5.46,13.92-17.46,13.92-5.82,0-11.94-1.62-16-4.5l3.84-7.44a20.21,20.21,0,0,0,11.94,3.78c4.86,0,7.86-2,7.86-5.46s-2.16-5.46-9.78-5.46H118l2.16-23.64h25.62v7.8H128.27l-.66,8H131C143.45,688.07,148.37,693.65,148.37,701.09Z"/><path d="M152.33,693.29c0-13.86,7.68-21.72,18-21.72s18,7.86,18,21.72-7.61,21.72-18,21.72S152.33,707.15,152.33,693.29Zm26.21,0c0-9.54-3.35-13.5-8.21-13.5s-8.16,4-8.16,13.5,3.36,13.5,8.16,13.5S178.54,702.83,178.54,693.29Z"/><path d="M233.92,714.29l-.06-25.2L221.5,709.85h-4.38l-12.29-20.22v24.66h-9.12v-42h8l15.71,26.1,15.48-26.1h8l.12,42Z"/><path d="M253,672.29h9.72v34.08h21.06v7.92H253Z"/><g id="_Rectangle_" data-name="&lt;Rectangle&gt;"><rect class="cls-1" x="74" y="60.49" width="921" height="272"/></g><path class="cls-2" d="M226.36,133.57V242.06H201.25V153.72h-21.7V133.57Z"/><path class="cls-2" d="M325.41,208.89c0,18.29-14.11,35-45,35-15.19,0-30.85-4.18-41.39-11.62l9.77-19.22c8.21,6.2,19.68,9.77,31,9.77,12.55,0,20.3-5.12,20.3-14,0-8.21-6-13.32-20.3-13.32H268.37V179l22.32-25.26H244.5V133.57h75.95v16.27L296,177.74C315.49,180.84,325.41,192.93,325.41,208.89Z"/><path class="cls-2" d="M423.68,185.49c0,37.51-22.48,58.43-55.34,58.43-11.47,0-22.47-2.63-30.07-7.44l9.3-18.44c5.89,4,12.87,5.43,20.31,5.43,18,0,29.76-10.7,30.53-31.62-6.35,6.35-15.65,9.76-27,9.76-20.92,0-37.35-13.33-37.35-33.79,0-22.16,18.13-36.11,41.07-36.11C405.23,131.71,423.68,150.46,423.68,185.49Zm-28.06-18.91c0-9.3-7-16.12-18.91-16.12-10.69,0-18.13,6.2-18.13,16.12s7.28,16.28,18.44,16.28S395.62,176,395.62,166.58Z"/><path class="cls-2" d="M463.05,228.12c0,4-.62,7-4.19,15.49L450,265.93H434.68l6.82-24.64c-5.11-2-8.37-6.82-8.37-13.17,0-9,6.51-14.88,15-14.88S463.05,219.28,463.05,228.12Z"/><path class="cls-2" d="M472.35,187.82c0-35.81,19.84-56.11,46.5-56.11s46.5,20.3,46.5,56.11-19.69,56.1-46.5,56.1S472.35,223.62,472.35,187.82Zm67.73,0c0-24.65-8.68-34.88-21.23-34.88s-21.08,10.23-21.08,34.88,8.68,34.87,21.08,34.87S540.08,212.46,540.08,187.82Z"/><path class="cls-2" d="M577.59,187.82c0-35.81,19.84-56.11,46.5-56.11,26.82,0,46.5,20.3,46.5,56.11s-19.68,56.1-46.5,56.1C597.43,243.92,577.59,223.62,577.59,187.82Zm67.74,0c0-24.65-8.68-34.88-21.24-34.88-12.4,0-21.08,10.23-21.08,34.88s8.68,34.87,21.08,34.87C636.65,222.69,645.33,212.46,645.33,187.82Z"/><path class="cls-2" d="M682.84,187.82c0-35.81,19.84-56.11,46.49-56.11,26.82,0,46.5,20.3,46.5,56.11s-19.68,56.1-46.5,56.1C702.68,243.92,682.84,223.62,682.84,187.82Zm67.73,0c0-24.65-8.68-34.88-21.24-34.88-12.4,0-21.07,10.23-21.07,34.88s8.67,34.87,21.07,34.87C741.89,222.69,750.57,212.46,750.57,187.82Z"/><path class="cls-2" d="M889.45,150.15H878.13v91.91H855v-9.61c-6,7.29-14.88,10.86-26,10.86-23.56,0-41.7-16.75-41.7-42.94s18.14-42.93,41.7-42.93c10.23,0,18.91,3.25,25,10.07V150.15H825.59v-14H854v-9.14h24.18v9.14h11.32Zm-35,50.22c0-14.41-9.3-23.09-21.24-23.09s-21.39,8.68-21.39,23.09,9.3,23.1,21.39,23.1S854.42,214.79,854.42,200.37Z"/></svg>