<?xml version="1.0" encoding="utf-8"?>
<!-- Generator: Adobe Illustrator 22.1.0, SVG Export Plug-In . SVG Version: 6.00 Build 0)  -->
<svg version="1.1" id="Layer_1" xmlns="http://www.w3.org/2000/svg" xmlns:xlink="http://www.w3.org/1999/xlink" x="0px" y="0px"
	 viewBox="0 0 987 504" style="enable-background:new 0 0 987 504;" xml:space="preserve">
<style type="text/css">
	.st0{fill:#C90202;}
	.st1{fill:#FFFFFF;}
</style>
<title>Image convert 3</title>
<path d="M72.4,253.4l2.5-5.6c3.7,2.7,8.1,4.2,12.7,4.2c6,0,8.5-2.2,8.5-5c0-8.3-22.9-2.9-22.9-17.2c0-6.2,5-11.5,15.5-11.5
	c4.5-0.1,8.9,1.1,12.8,3.4l-2.3,5.6c-3.2-1.9-6.9-2.9-10.6-3c-5.9,0-8.4,2.3-8.4,5.2c0,8.2,22.8,2.9,22.8,17c0,6.2-5,11.4-15.6,11.4
	C81.6,258,75.6,256.1,72.4,253.4z"/>
<path d="M143.6,223.6v17.1c0,11.2-6.3,17.3-16.8,17.3s-16.9-6.1-16.9-17.3v-21.7h7.2v21.4c0,7.9,3.6,11.3,9.8,11.3
	c6.2,0,9.7-3.4,9.7-11.3v-21.4h4.6c1.8,0.1,3.3-1.2,3.4-3c0-0.2,0-0.3,0-0.5c0-1.2-0.4-2.4-1.1-3.4l4.2-1.5c1.1,1.5,1.7,3.3,1.6,5.2
	C149.4,219.8,147.3,222.7,143.6,223.6z M120.6,215.5H117c0.1-4.5,2.4-7.4,5.9-7.4s5.5,3.6,7.5,3.6c1.5,0,2.6-1.2,2.7-3.1h3.7
	c-0.1,4.3-2.4,7.2-5.9,7.2s-5.5-3.6-7.5-3.6C121.8,212.2,120.7,213.4,120.6,215.5L120.6,215.5z"/>
<path d="M178.3,248.5h-19.2l-3.8,8.9h-7.4l17.3-38.5h7l17.4,38.5h-7.5L178.3,248.5z M176,242.9l-7.3-16.8l-7.2,16.8H176z"/>
<path d="M217.5,225h-12.8v-6h32.7v6h-12.8v32.5h-7.1L217.5,225z"/>
<path d="M265.9,248.5h-19.3l-3.8,8.9h-7.4l17.3-38.5h7l17.4,38.5h-7.5L265.9,248.5z M246.8,209.9h4.4c0.2,1.7,2.3,2.7,5.1,2.7
	c2.8,0,4.9-1,5.1-2.7h4.4c-0.4,3.9-4.2,6.3-9.5,6.3S247.2,213.8,246.8,209.9z M263.5,242.9l-7.3-16.8l-7.2,16.8H263.5z M257.4,208.4
	h-5.3l6.3-6.4h7.4L257.4,208.4z"/>
<path d="M317.5,257.4l0-25.5L304.8,253h-3.2l-12.6-20.8v25.2h-6.8v-38.5h5.9l15.3,25.5l15-25.5h5.9l0.1,38.5H317.5z"/>
<path d="M384,218.9v38.5h-5.9l-21.2-26.1v26.1h-7.1v-38.5h5.9l21.2,26.1v-26.1H384z"/>
<path d="M420.6,237.8h6.8v15.3c-4.3,3.3-9.6,5-15.1,4.9c-11.9,0-20.7-8.3-20.7-19.8s8.8-19.8,20.8-19.8c6.4,0,11.8,2.2,15.5,6.3
	l-4.5,4.4c-2.8-2.9-6.6-4.5-10.6-4.4c-8.2,0-14,5.5-14,13.5c0,7.8,5.8,13.5,13.9,13.5c2.8,0.1,5.5-0.6,7.9-2L420.6,237.8z"/>
<path d="M434.1,238.2c0-11.4,8.8-19.8,20.7-19.8s20.7,8.4,20.7,19.8s-8.8,19.8-20.7,19.8S434.1,249.6,434.1,238.2z M468.3,238.2
	c0-7.5-6.1-13.5-13.5-13.5s-13.5,6.1-13.5,13.5s6.1,13.5,13.5,13.5l0,0c7.2,0.2,13.3-5.5,13.5-12.7
	C468.3,238.7,468.3,238.5,468.3,238.2z M451.5,265.4c0-1.8,1.5-3.3,3.3-3.3c1.8,0,3.3,1.5,3.3,3.3c0,1.8-1.5,3.3-3.3,3.3
	C453,268.7,451.5,267.2,451.5,265.4z"/>
<path d="M480.4,238.2c0-11.5,8.8-19.8,20.6-19.8c6.3,0,11.7,2.3,15.2,6.4l-4.6,4.3c-2.6-2.9-6.4-4.6-10.3-4.5
	c-8,0-13.8,5.6-13.8,13.5c0,7.9,5.8,13.5,13.8,13.5c3.9,0.1,7.7-1.6,10.3-4.6l4.6,4.4c-3.6,4.2-9,6.4-15.3,6.4
	C489.2,258,480.4,249.7,480.4,238.2z"/>
<path d="M546.1,225h-12.8v-6H566v6h-12.7v32.5h-7.2V225z"/>
<path d="M596.6,257.4l-7.9-11.3c-0.5,0-1,0.1-1.5,0.1h-8.7v11.2h-7.2v-38.5h15.8c10.1,0,16.4,5.2,16.4,13.7
	c0.2,5.4-3.1,10.3-8.2,12.2l8.8,12.6H596.6z M586.9,225h-8.4v15.3h8.4c6.3,0,9.5-2.9,9.5-7.7S593.2,225,586.9,225z"/>
<path d="M636.6,248.5h-19.2l-3.8,8.9h-7.4l17.3-38.5h7l17.4,38.5h-7.5L636.6,248.5z M634.2,242.9l-7.2-16.8l-7.2,16.8H634.2z"/>
<path d="M652.8,218.9h7.2v38.5h-7.2L652.8,218.9z"/>
<path d="M720.7,218.9L704,257.4h-7l-16.8-38.5h7.8l12.8,29.7l12.9-29.7H720.7z"/>
<path d="M748.6,248.5h-19.2l-3.8,8.9h-7.4l17.3-38.5h7l17.4,38.5h-7.5L748.6,248.5z M737.7,215.8l-9.6-7.5h8.1l7.4,7.5H737.7z
	 M746.2,242.9l-7.3-16.8l-7.2,16.8H746.2z"/>
<path d="M814.2,218.9v38.5H807v-16.5h-19.9v16.5H780v-38.5h7.1v15.9H807v-15.9H814.2z"/>
<path d="M821.8,238.2c0-11.4,8.8-19.8,20.7-19.8s20.7,8.4,20.7,19.8s-8.8,19.8-20.7,19.8S821.8,249.6,821.8,238.2z M856,238.2
	c0-7.5-6.1-13.5-13.5-13.5c-7.5,0-13.5,6.1-13.5,13.5c0,7.5,6.1,13.5,13.5,13.5c7.2,0.2,13.3-5.5,13.5-12.7
	C856,238.7,856,238.5,856,238.2L856,238.2z"/>
<path d="M895.2,248.5H876l-3.8,8.9h-7.4l17.3-38.5h7l17.4,38.5h-7.5L895.2,248.5z M892.9,242.9l-7.3-16.8l-7.2,16.8H892.9z"/>
<path d="M109.8,284.9v38.5h-7.2v-16.5H82.8v16.5h-7.1v-38.5h7.1v15.9h19.9v-15.9H109.8z"/>
<path d="M158.9,304.2c0,11.4-8.8,19.8-20.7,19.8s-20.7-8.4-20.7-19.8s8.8-19.8,20.7-19.8S158.9,292.8,158.9,304.2z M151.7,304.2
	c0-7.5-6.1-13.5-13.5-13.5s-13.5,6.1-13.5,13.5s6.1,13.5,13.5,13.5l0,0c7.2,0.2,13.3-5.5,13.5-12.7
	C151.7,304.7,151.7,304.5,151.7,304.2z M133.4,281.8h-5.7l7.4-5.9h6.2l7.4,5.9H143l-4.8-3L133.4,281.8z M147.4,276.8l-8.4-6.4h7.4
	l6.3,6.4H147.4z"/>
<path d="M200.7,284.9v38.5h-5.9l-21.2-26.1v26.1h-7.1v-38.5h5.9l21.2,26.1v-26.1H200.7z"/>
<path d="M237.3,303.8h6.8v15.3c-4.3,3.3-9.7,5-15.1,4.9c-11.9,0-20.7-8.3-20.7-19.8c0-11.5,8.8-19.8,20.9-19.8
	c6.4,0,11.8,2.1,15.4,6.3l-4.5,4.4c-2.8-2.9-6.6-4.5-10.6-4.4c-8.2,0-14,5.6-14,13.5c0,7.8,5.8,13.5,13.9,13.5
	c2.8,0.1,5.5-0.6,7.9-2L237.3,303.8z"/>
<path d="M265.9,304.2c0-11.5,8.8-19.8,20.6-19.8c6.3,0,11.6,2.3,15.2,6.4l-4.6,4.3c-2.6-2.9-6.4-4.6-10.3-4.5
	c-8,0-13.8,5.6-13.8,13.5s5.8,13.5,13.8,13.5c3.9,0.1,7.7-1.6,10.3-4.6l4.6,4.4c-3.6,4.2-9,6.4-15.3,6.4
	C274.7,324,265.9,315.7,265.9,304.2z"/>
<path d="M332.8,314.5h-19.2l-3.8,8.9h-7.4l17.3-38.5h7l17.4,38.5h-7.5L332.8,314.5z M330.5,308.9l-7.2-16.8l-7.2,16.8H330.5z"/>
<path d="M354.9,291h-12.8v-6h32.7v6h-12.8v32.5h-7.1V291z"/>
<path d="M414.4,284.9v38.5h-7.1v-16.5h-19.9v16.5h-7.1v-38.5h7.1v15.9h19.9v-15.9H414.4z"/>
<path d="M441.4,309.9v13.6h-7.1V310l-15.1-25h7.6l11.2,18.7l11.4-18.8h7L441.4,309.9z"/>
<path d="M476.3,284.9h16.8c12.5,0,21,7.7,21,19.2s-8.5,19.2-21,19.2h-16.8V284.9z M492.8,317.4c8.6,0,14.1-5.2,14.1-13.2
	s-5.6-13.2-14.1-13.2h-9.3v26.4L492.8,317.4z"/>
<path d="M519,304.2c0-11.4,8.8-19.8,20.7-19.8s20.7,8.4,20.7,19.8s-8.8,19.8-20.7,19.8S519,315.6,519,304.2z M553.3,304.2
	c0-7.5-6.1-13.5-13.5-13.5c-7.5,0-13.5,6.1-13.5,13.5s6.1,13.5,13.5,13.5c7.2,0.2,13.3-5.5,13.5-12.7
	C553.3,304.7,553.3,304.5,553.3,304.2z"/>
<path d="M568,284.9h7.2v32.5h20.1v6H568V284.9z"/>
<path d="M601,284.9h7.2v32.5h20.1v6H601V284.9z"/>
<path d="M674.3,323.4l-7.9-11.3c-0.5,0-1,0.1-1.5,0.1h-8.7v11.2h-7.2v-38.5H665c10.1,0,16.4,5.2,16.4,13.7
	c0.2,5.4-3.1,10.3-8.2,12.2l8.8,12.6H674.3z M664.6,291h-8.4v15.3h8.4c6.3,0,9.5-2.9,9.5-7.7C674.2,293.8,670.9,291,664.6,291z"/>
<path d="M718.2,317.4v6h-28.9v-38.5h28.1v6h-21v10h18.6v5.9h-18.6v10.6H718.2z"/>
<path d="M751.1,314.5h-19.2l-3.8,8.9h-7.4l17.3-38.5h7l17.4,38.5H755L751.1,314.5z M748.8,308.9l-7.3-16.8l-7.2,16.8H748.8z"/>
<path d="M767.4,284.9h16.8c12.5,0,21,7.7,21,19.2s-8.5,19.2-21,19.2h-16.8V284.9z M783.9,317.4c8.6,0,14.1-5.2,14.1-13.2
	s-5.5-13.2-14.1-13.2h-9.3v26.4L783.9,317.4z"/>
<path d="M827.8,309.9v13.6h-7.2V310l-15.1-25h7.6l11.3,18.8l11.4-18.8h7L827.8,309.9z"/>
<path d="M887.8,317.4v6h-28.4v-4.8l15.3-14.5c3.7-3.6,4.4-5.8,4.4-8c0-3.5-2.4-5.5-7.2-5.5c-3.7,0-6.9,1.3-9,4l-5-3.9
	c3-4,8.3-6.4,14.6-6.4c8.4,0,13.8,4.2,13.8,11.1c0,3.7-1,7.1-6.4,12.2l-10.3,9.8L887.8,317.4z"/>
<path d="M131.9,350.9l-12.8,38.5h-7.6L102,361l-9.7,28.5h-7.6L72,350.9h7.4l9.6,29.3l10-29.3h6.6l9.7,29.4l9.8-29.4H131.9z"/>
<path d="M172,350.9v38.5h-7.2v-16.5h-19.9v16.5h-7.1v-38.5h7.1v15.9h19.9v-15.9H172z"/>
<path d="M182.3,350.9h7.1v38.5h-7.1V350.9z"/>
<path d="M207.6,357h-12.8v-6h32.7v6h-12.8v32.5h-7.1V357z"/>
<path d="M261.8,383.4v6h-28.9v-38.5H261v6h-21v10h18.6v5.9h-18.5v10.6H261.8z"/>
<path d="M317.2,364.6c0,8.5-6.3,13.7-16.4,13.7h-8.7v11.1H285v-38.5h15.8C310.9,350.9,317.2,356.1,317.2,364.6z M310,364.6
	c0-4.8-3.2-7.6-9.5-7.6h-8.4v15.3h8.4C306.8,372.3,310,369.5,310,364.6L310,364.6z"/>
<path d="M353.2,383.4v6h-28.9v-38.5h28.1v6h-21v10h18.6v5.9h-18.6v10.6H353.2z"/>
<path d="M386.2,380.5h-19.2l-3.8,8.9h-7.4l17.3-38.5h7l17.4,38.5H390L386.2,380.5z M383.8,374.9l-7.2-16.8l-7.2,16.8H383.8z"/>
<path d="M427.6,389.4l-7.9-11.3c-0.5,0-1,0.1-1.5,0.1h-8.7v11.2h-7.1v-38.5h15.8c10.1,0,16.4,5.2,16.4,13.7
	c0.2,5.4-3.1,10.3-8.2,12.2l8.9,12.6H427.6z M417.9,357h-8.4v15.3h8.4c6.3,0,9.5-2.9,9.5-7.7C427.4,359.8,424.2,357,417.9,357z"/>
<path d="M442.6,350.9h7.1v32.5h20.1v6h-27.3V350.9z"/>
<path d="M519.6,390l-4.8-4.7c-3.6,3.1-8.2,4.7-12.9,4.7c-8.1,0-14-4.2-14-10.3c0-4.8,2.6-8.1,8.9-11.7c-3.1-3.1-4.3-5.7-4.3-8.5
	c0-5.4,4.4-9.1,11.2-9.1c6.2,0,10.3,3.2,10.3,8.5c0,4-2.3,6.8-7.9,10l8.3,7.9c1-2.1,1.7-4.2,2.1-6.5l5.6,1.8
	c-0.6,3.1-1.8,6.1-3.5,8.8l4.8,4.6L519.6,390z M510.7,381.4l-10.2-9.7c-4.5,2.5-6,4.5-6,7.3c0,3.2,3.1,5.4,7.8,5.4
	C505.4,384.4,508.3,383.4,510.7,381.4L510.7,381.4z M498.7,359.4c0,1.7,0.7,3,3.5,5.7c4.5-2.4,5.9-4,5.9-6.1s-1.6-3.7-4.5-3.7
	C500.5,355.4,498.7,357.1,498.7,359.4L498.7,359.4z"/>
<path d="M569.9,389.4l-7.9-11.3c-0.5,0-1,0.1-1.5,0.1h-8.7v11.2h-7.2v-38.5h15.8c10.1,0,16.4,5.2,16.4,13.7
	c0.2,5.4-3.1,10.3-8.2,12.2l8.8,12.6H569.9z M560.2,357h-8.4v15.3h8.4c6.3,0,9.5-2.9,9.5-7.7C569.8,359.8,566.5,357,560.2,357z"/>
<path d="M582.2,370.2c0-11.4,8.8-19.8,20.7-19.8s20.7,8.4,20.7,19.8s-8.8,19.8-20.7,19.8S582.2,381.6,582.2,370.2z M616.5,370.2
	c0-7.5-6.1-13.5-13.5-13.5c-7.5,0-13.5,6.1-13.5,13.5s6.1,13.5,13.5,13.5c7.2,0.2,13.3-5.5,13.5-12.7
	C616.5,370.7,616.5,370.5,616.5,370.2z"/>
<path d="M628,385.4l2.5-5.6c3.7,2.7,8.1,4.2,12.7,4.2c6,0,8.5-2.1,8.5-5c0-8.3-22.9-2.9-22.9-17.1c0-6.2,5-11.5,15.5-11.5
	c4.5-0.1,8.9,1.1,12.8,3.4l-2.3,5.6c-3.2-1.9-6.9-2.9-10.6-3c-5.9,0-8.4,2.3-8.4,5.2c0,8.2,22.8,2.9,22.8,17c0,6.2-5,11.4-15.6,11.4
	C637.2,390,631.2,388.1,628,385.4z"/>
<path d="M694.7,383.4v6h-28.9v-38.5h28.1v6H673v10h18.6v5.9H673v10.6H694.7z"/>
<path d="M714.6,385.4l2.5-5.6c3.7,2.7,8.1,4.2,12.7,4.2c6,0,8.5-2.1,8.5-5c0-8.3-22.9-2.9-22.9-17.1c0-6.2,5-11.5,15.5-11.5
	c4.5-0.1,8.9,1.1,12.8,3.4l-2.2,5.6c-3.2-1.9-6.9-2.9-10.6-3c-5.9,0-8.4,2.3-8.4,5.2c0,8.2,22.8,2.9,22.8,17c0,6.2-5,11.4-15.6,11.4
	C723.8,390,717.8,388.1,714.6,385.4z"/>
<path d="M781.3,383.4v6h-28.9v-38.5h28.1v6h-21v10h18.6v5.9h-18.6v10.6H781.3z"/>
<path d="M814.5,389.4l-7.9-11.3c-0.5,0-1,0.1-1.5,0.1h-8.7v11.2h-7.2v-38.5h15.8c10.1,0,16.4,5.2,16.4,13.7
	c0.2,5.4-3.1,10.3-8.2,12.2l8.8,12.6H814.5z M804.8,357h-8.3v15.3h8.3c6.3,0,9.5-2.9,9.5-7.7C814.3,359.8,811.1,357,804.8,357z"/>
<path d="M829.2,372.7v-21.7h7.2v21.5c0,7.9,3.6,11.3,9.8,11.3s9.7-3.4,9.7-11.3v-21.5h7v21.7c0,11.2-6.3,17.3-16.8,17.3
	S829.2,383.9,829.2,372.7z"/>
<path d="M908.3,389.4l-0.1-25.5L895.6,385h-3.2l-12.7-20.8v25.2h-6.8v-38.5h5.9l15.3,25.5l15-25.5h5.9l0.1,38.5L908.3,389.4z"/>
<path d="M109.8,445c0,6.6-5.2,10.5-15.1,10.5H75.7V417h18c9.2,0,14.2,3.9,14.2,10c0.1,3.5-1.8,6.8-5,8.5
	C107.1,436.6,110.1,440.6,109.8,445z M82.8,422.5v10.6h10.1c5,0,7.8-1.8,7.8-5.3s-2.8-5.3-7.8-5.3H82.8z M102.7,444.3
	c0-3.9-2.9-5.5-8.3-5.5H82.8v11.1h11.5C99.7,449.8,102.7,448.1,102.7,444.3z"/>
<path d="M114.8,436.2c0-11.4,8.8-19.8,20.7-19.8s20.7,8.4,20.7,19.8s-8.8,19.8-20.7,19.8S114.8,447.6,114.8,436.2z M149,436.2
	c0-7.5-6.1-13.5-13.5-13.5s-13.5,6.1-13.5,13.5s6.1,13.5,13.5,13.5l0,0c7.2,0.2,13.3-5.5,13.5-12.7C149,436.7,149,436.5,149,436.2
	L149,436.2z"/>
<path d="M163.8,416.9h16.8c12.5,0,21,7.7,21,19.2s-8.5,19.2-21,19.2h-16.8V416.9z M180.3,449.4c8.6,0,14.1-5.2,14.1-13.2
	s-5.6-13.2-14.1-13.2H171v26.4L180.3,449.4z"/>
<path d="M224.2,441.9v13.6h-7.1V442l-15.1-25h7.6l11.3,18.8l11.4-18.8h7L224.2,441.9z"/>
<path d="M293.3,445c0,6.6-5.2,10.5-15.1,10.5h-19.1V417h18c9.2,0,14.2,3.9,14.2,10c0.1,3.5-1.8,6.8-5,8.5
	C290.6,436.6,293.5,440.6,293.3,445z M266.3,422.6v10.6h10.1c5,0,7.8-1.8,7.8-5.3s-2.8-5.3-7.8-5.3H266.3z M286.1,444.3
	c0-3.9-2.9-5.5-8.3-5.5h-11.6v11.1h11.5C283.2,449.8,286.1,448.1,286.1,444.3L286.1,444.3z"/>
<path d="M325.9,446.5h-19.2l-3.8,8.9h-7.4l17.3-38.5h7l17.4,38.5h-7.5L325.9,446.5z M323.6,440.9l-7.3-16.8l-7.2,16.8H323.6z"/>
<path d="M348.1,423h-12.8v-6H368v6h-12.8v32.5h-7.1V423z"/>
<path d="M407.6,416.9v38.5h-7.1v-16.5h-19.9v16.5h-7.1v-38.5h7.1v15.9h19.9v-15.9H407.6z"/>
<path d="M430.3,436.2c0-11.5,8.8-19.8,20.6-19.8c6.3,0,11.7,2.3,15.2,6.4l-4.6,4.3c-2.6-2.9-6.4-4.6-10.3-4.5
	c-8,0-13.8,5.6-13.8,13.5s5.8,13.5,13.8,13.5c3.9,0.1,7.7-1.6,10.3-4.6l4.6,4.4c-3.6,4.2-9,6.4-15.3,6.4
	C439.1,456,430.3,447.7,430.3,436.2z"/>
<path d="M498.3,455.4l-7.9-11.3c-0.5,0-1,0.1-1.5,0.1h-8.7v11.2h-7.1v-38.5h15.8c10.1,0,16.4,5.2,16.4,13.7
	c0.2,5.4-3.1,10.4-8.2,12.2l8.9,12.6H498.3z M488.6,423h-8.4v15.3h8.4c6.3,0,9.5-2.9,9.5-7.7S494.9,423,488.6,423z"/>
<path d="M542.2,449.4v6h-28.9v-38.5h28.1v6h-21v10H539v5.9h-18.6v10.6H542.2z"/>
<path d="M575.1,446.5h-19.2l-3.8,8.9h-7.4l17.3-38.5h7l17.4,38.5h-7.5L575.1,446.5z M572.7,440.9l-7.3-16.8l-7.2,16.8H572.7z"/>
<path d="M626.7,455.4l-0.1-25.5L614,451h-3.2l-12.7-20.8v25.2h-6.8v-38.5h5.9l15.3,25.5l15-25.5h5.9l0,38.5L626.7,455.4z"/>
<path d="M684.3,443.6c0,6.8-4.9,12.4-15.2,12.4c-5.4,0-10.9-1.6-14.5-4.5l3-5.5c3.2,2.5,7.2,3.8,11.3,3.8c5.1,0,8.1-2.2,8.1-5.9
	s-2.4-6-10.3-6h-9.3l2-21H682v6h-16.5l-0.8,8.9h3.7C679.7,431.8,684.3,436.8,684.3,443.6z"/>
<path d="M688.4,436.2c0-12.6,6.9-19.8,16.1-19.8s16.1,7.1,16.1,19.8s-6.9,19.8-16.1,19.8S688.4,448.8,688.4,436.2z M713.4,436.2
	c0-9.3-3.6-13.6-8.9-13.6s-8.8,4.3-8.8,13.6s3.6,13.6,8.8,13.6S713.4,445.5,713.4,436.2L713.4,436.2z"/>
<path d="M725.4,436.2c0-12.6,6.9-19.8,16.1-19.8s16.1,7.1,16.1,19.8s-6.9,19.8-16.1,19.8S725.4,448.8,725.4,436.2z M750.4,436.2
	c0-9.3-3.6-13.6-8.9-13.6s-8.9,4.3-8.9,13.6s3.6,13.6,8.9,13.6S750.4,445.5,750.4,436.2L750.4,436.2z"/>
<path d="M800.5,455.4v-25.5L787.8,451h-3.2L772,430.2v25.2h-6.8v-38.5h5.9l15.3,25.5l15-25.5h5.9l0.1,38.5H800.5z"/>
<path d="M817.7,416.9h7.1v32.5H845v6h-27.3V416.9z"/>
<g id="_Rectangle_">
	<rect x="70.4" y="49.3" class="st0" width="383" height="113.1"/>
</g>
<g>
	<path class="st1" d="M112,127.8V91.7l-9.2,7.1l-6-8.3L113,78.6h10.6v49.2H112z"/>
	<path class="st1" d="M177.7,111.6c0,3-0.5,5.6-1.6,7.8c-1.1,2.2-2.5,4-4.3,5.5c-1.8,1.4-3.8,2.5-6.1,3.2c-2.3,0.7-4.6,1.1-7,1.1
		c-2.2,0-4.3-0.3-6.4-0.9c-2-0.6-3.8-1.4-5.5-2.5c-1.6-1.1-3.1-2.4-4.2-3.9c-1.2-1.6-2.1-3.3-2.6-5.2l10.6-3.3
		c0.5,1.7,1.5,3.1,2.9,4.2c1.4,1.1,3.1,1.7,5,1.7c2,0,3.7-0.6,5.2-1.8c1.5-1.2,2.2-3,2.2-5.4c0-1.4-0.3-2.6-0.9-3.6
		c-0.6-1-1.4-1.7-2.3-2.3c-1-0.6-2-1-3.2-1.2c-1.2-0.2-2.4-0.3-3.6-0.3c-1.8,0-3.8,0.2-6,0.6c-2.2,0.4-4.3,0.9-6,1.6l1.2-28.2h30.2
		v10h-19.8l-0.4,7.8c0.7-0.2,1.6-0.3,2.5-0.4c0.9-0.1,1.7-0.1,2.5-0.1c2.5,0,4.8,0.3,7,1c2.2,0.6,4.1,1.6,5.7,3
		c1.6,1.3,2.9,3,3.8,4.9C177.2,106.7,177.7,109,177.7,111.6z"/>
	<path class="st1" d="M223.9,94.9c0,2.9-0.5,5.6-1.5,8c-1,2.4-2.3,4.8-4,7.3l-11.9,17.7h-14.1l12.2-17l0.1-0.2
		c-0.5,0.2-1.1,0.3-1.7,0.4c-0.6,0.1-1.2,0.1-1.8,0.1c-2.2,0-4.2-0.4-6.2-1.1s-3.7-1.9-5.1-3.3c-1.5-1.4-2.7-3.1-3.5-5.1
		c-0.9-2-1.3-4.2-1.3-6.6c0-2.8,0.5-5.3,1.5-7.5c1-2.2,2.4-4.1,4.2-5.6c1.8-1.5,3.8-2.7,6.2-3.5c2.4-0.8,4.9-1.2,7.5-1.2
		c2.7,0,5.2,0.4,7.6,1.2c2.4,0.8,4.4,2,6.1,3.5c1.7,1.5,3.1,3.4,4.1,5.6C223.4,89.8,223.9,92.2,223.9,94.9z M212.3,94.7
		c0-2.1-0.7-4-2.1-5.5c-1.4-1.6-3.2-2.3-5.6-2.3s-4.3,0.7-5.7,2.2c-1.4,1.5-2.1,3.4-2.1,5.7c0,2.2,0.7,4.1,2.1,5.5s3.3,2.2,5.6,2.2
		c2.3,0,4.2-0.7,5.7-2.2C211.6,98.9,212.3,97.1,212.3,94.7z"/>
	<path class="st1" d="M237.8,136.5h-9.4l5.2-19.7h10.9L237.8,136.5z"/>
	<path class="st1" d="M289.6,103.1c0,3.5-0.3,6.8-1,9.9c-0.7,3.2-1.8,5.9-3.3,8.3c-1.5,2.4-3.5,4.3-5.9,5.7
		c-2.4,1.4-5.4,2.1-8.9,2.1s-6.4-0.7-8.9-2.1c-2.5-1.4-4.5-3.3-6-5.7c-1.6-2.4-2.7-5.2-3.4-8.3c-0.7-3.2-1-6.5-1-9.9s0.3-6.8,1-9.9
		s1.8-5.9,3.4-8.2c1.6-2.3,3.6-4.2,6-5.6c2.5-1.4,5.4-2.1,8.9-2.1s6.4,0.7,8.9,2.1c2.4,1.4,4.4,3.3,5.9,5.6c1.5,2.3,2.6,5.1,3.3,8.2
		C289.3,96.3,289.6,99.6,289.6,103.1z M277.6,103.1c0-1.5-0.1-3.2-0.3-5.1c-0.2-1.9-0.5-3.6-1-5.2c-0.5-1.6-1.2-2.9-2.2-4
		c-1-1.1-2.2-1.6-3.7-1.6s-2.8,0.5-3.8,1.6c-1,1.1-1.7,2.4-2.3,4c-0.5,1.6-0.9,3.3-1.1,5.2c-0.2,1.9-0.3,3.5-0.3,5.1
		c0,1.6,0.1,3.3,0.3,5.2c0.2,1.9,0.5,3.6,1.1,5.2c0.5,1.6,1.3,2.9,2.3,4c1,1.1,2.2,1.6,3.8,1.6s2.8-0.5,3.7-1.6
		c0.9-1.1,1.7-2.4,2.2-4c0.5-1.6,0.9-3.3,1-5.2C277.6,106.4,277.6,104.7,277.6,103.1z"/>
	<path class="st1" d="M334.5,103.1c0,3.5-0.3,6.8-1,9.9c-0.7,3.2-1.8,5.9-3.3,8.3c-1.5,2.4-3.5,4.3-5.9,5.7
		c-2.4,1.4-5.4,2.1-8.9,2.1s-6.4-0.7-8.9-2.1c-2.5-1.4-4.5-3.3-6-5.7c-1.6-2.4-2.7-5.2-3.4-8.3c-0.7-3.2-1-6.5-1-9.9s0.3-6.8,1-9.9
		s1.8-5.9,3.4-8.2c1.6-2.3,3.6-4.2,6-5.6c2.5-1.4,5.4-2.1,8.9-2.1s6.4,0.7,8.9,2.1c2.4,1.4,4.4,3.3,5.9,5.6c1.5,2.3,2.6,5.1,3.3,8.2
		C334.2,96.3,334.5,99.6,334.5,103.1z M322.6,103.1c0-1.5-0.1-3.2-0.3-5.1c-0.2-1.9-0.5-3.6-1-5.2c-0.5-1.6-1.2-2.9-2.2-4
		c-1-1.1-2.2-1.6-3.7-1.6s-2.8,0.5-3.8,1.6c-1,1.1-1.7,2.4-2.3,4c-0.5,1.6-0.9,3.3-1.1,5.2c-0.2,1.9-0.3,3.5-0.3,5.1
		c0,1.6,0.1,3.3,0.3,5.2c0.2,1.9,0.5,3.6,1.1,5.2c0.5,1.6,1.3,2.9,2.3,4c1,1.1,2.2,1.6,3.8,1.6s2.8-0.5,3.7-1.6
		c0.9-1.1,1.7-2.4,2.2-4c0.5-1.6,0.9-3.3,1-5.2C322.5,106.4,322.6,104.7,322.6,103.1z"/>
	<path class="st1" d="M379.4,103.1c0,3.5-0.3,6.8-1,9.9c-0.7,3.2-1.8,5.9-3.3,8.3c-1.5,2.4-3.5,4.3-5.9,5.7
		c-2.4,1.4-5.4,2.1-8.9,2.1s-6.4-0.7-8.9-2.1c-2.5-1.4-4.5-3.3-6-5.7c-1.6-2.4-2.7-5.2-3.4-8.3c-0.7-3.2-1-6.5-1-9.9s0.3-6.8,1-9.9
		s1.8-5.9,3.4-8.2c1.6-2.3,3.6-4.2,6-5.6c2.5-1.4,5.4-2.1,8.9-2.1s6.4,0.7,8.9,2.1c2.4,1.4,4.4,3.3,5.9,5.6c1.5,2.3,2.6,5.1,3.3,8.2
		C379.1,96.3,379.4,99.6,379.4,103.1z M367.5,103.1c0-1.5-0.1-3.2-0.3-5.1c-0.2-1.9-0.5-3.6-1-5.2c-0.5-1.6-1.2-2.9-2.2-4
		c-1-1.1-2.2-1.6-3.7-1.6s-2.8,0.5-3.8,1.6c-1,1.1-1.7,2.4-2.3,4c-0.5,1.6-0.9,3.3-1.1,5.2c-0.2,1.9-0.3,3.5-0.3,5.1
		c0,1.6,0.1,3.3,0.3,5.2c0.2,1.9,0.5,3.6,1.1,5.2c0.5,1.6,1.3,2.9,2.3,4c1,1.1,2.2,1.6,3.8,1.6s2.8-0.5,3.7-1.6
		c0.9-1.1,1.7-2.4,2.2-4c0.5-1.6,0.9-3.3,1-5.2C367.4,106.4,367.5,104.7,367.5,103.1z"/>
	<path class="st1" d="M413.3,127.8v-4.5h-0.1c-1.1,1.8-2.7,3.1-4.8,4.1c-2.1,0.9-4.3,1.4-6.6,1.4c-2.6,0-4.9-0.5-7-1.5
		c-2-1-3.8-2.4-5.2-4.1c-1.4-1.7-2.5-3.6-3.2-5.9c-0.7-2.2-1.1-4.5-1.1-7c0-2.4,0.4-4.7,1.1-6.9c0.8-2.2,1.9-4.1,3.3-5.8
		c1.4-1.7,3.1-3,5.1-4c2-1,4.3-1.5,6.8-1.5c2.5,0,4.7,0.5,6.5,1.5c1.8,1,3.1,2,4.1,3.2h0.1v-8.7H402V82h10.4v-6.7h11.4V82h3.2v6.2
		h-3.2v39.6H413.3z M412.9,110.5c0-1.1-0.2-2.2-0.6-3.3c-0.4-1.1-1-2-1.7-2.9c-0.7-0.8-1.6-1.5-2.6-2c-1-0.5-2.2-0.8-3.5-0.8
		c-1.3,0-2.5,0.3-3.5,0.8c-1,0.5-1.9,1.2-2.6,2c-0.7,0.8-1.2,1.8-1.6,2.8c-0.3,1.1-0.5,2.2-0.5,3.3s0.2,2.2,0.5,3.3
		c0.3,1.1,0.9,2.1,1.6,2.9c0.7,0.8,1.6,1.5,2.6,2c1,0.5,2.2,0.8,3.5,0.8c1.3,0,2.5-0.3,3.5-0.8c1-0.5,1.9-1.2,2.6-2
		c0.7-0.8,1.3-1.8,1.7-2.9C412.7,112.7,412.9,111.6,412.9,110.5z"/>
</g>
</svg>
