<?xml version="1.0" encoding="utf-8"?>
<!-- Generator: Adobe Illustrator 22.1.0, SVG Export Plug-In . SVG Version: 6.00 Build 0)  -->
<svg version="1.1" id="Layer_1" xmlns="http://www.w3.org/2000/svg" xmlns:xlink="http://www.w3.org/1999/xlink" x="0px" y="0px"
	 viewBox="0 0 1227 622" style="enable-background:new 0 0 1227 622;" xml:space="preserve">
<style type="text/css">
	.st0{fill:#C90202;}
	.st1{fill:#FFFFFF;}
</style>
<title>Image convert makeup convert</title>
<path d="M54.4,268.5c0-15.6,12-26.8,28.1-26.8c8.9,0,16.4,3.3,21.3,9.2l-7.7,7.1c-3.2-3.9-8-6.1-13-6.1c-9.7,0-16.6,6.8-16.6,16.6
	c0,9.8,6.9,16.6,16.6,16.6c5,0,9.8-2.2,13-6.1l7.7,7.1c-4.9,6-12.4,9.2-21.4,9.2C66.4,295.3,54.4,284.1,54.4,268.5z"/>
<path d="M159.4,242.6v51.8h-12v-21.2h-23.5v21.2h-12v-51.8h12V263h23.5v-20.4H159.4z"/>
<path d="M162,227.7h12.4l10,10.7h-9L162,227.7z M171.7,242.6h12v51.8h-12V242.6z"/>
<path d="M235.8,274l-7,7.2v13.1h-11.9v-51.8h11.9v24.2l22.9-24.2h13.3l-21.5,23.1l22.7,28.7h-14L235.8,274z"/>
<path d="M311.8,284.8v9.6h-40.1v-51.8h39.1v9.6h-27.2v11.2h24v9.3h-24v12L311.8,284.8z M285.8,229l-2.4-4.7c2.3-1.7,5.1-2.6,8-2.5
	c5.2,0,8.9,3.2,8.9,7.9c0,4.2-2.3,7.2-6.8,9.3l-3.6-3.8c2.9-1.3,3.8-2.8,3.8-4.5c0-1.7-1.4-3.1-3.5-3.1
	C288.6,227.6,287.1,228.1,285.8,229z"/>
<path d="M389.4,294.4l-0.1-31.1l-15.2,25.6h-5.4L353.5,264v30.4h-11.2v-51.8h9.9l19.4,32.2l19.1-32.2h9.8l0.1,51.8H389.4z"/>
<path d="M447,283.3h-24l-4.6,11.1h-12.3l23.1-51.8H441l23.2,51.8h-12.6L447,283.3z M432.8,238.4l-13.4-10.7h12.4l10,10.7H432.8z
	 M443.2,274.2l-8.2-19.8l-8.2,19.8H443.2z"/>
<path d="M491.3,276v18.4h-12v-18.5l-20.1-33.3H472l13.8,23l13.8-23h11.8L491.3,276z"/>
<path d="M533.3,289.3l4.1-9c5,3.5,11,5.4,17.1,5.4c7.1,0,10-2.4,10-5.5c0-9.7-30.1-3-30.1-22.3c0-8.8,7.1-16.1,21.8-16.1
	c6.5,0,13.2,1.6,18,4.6l-3.7,9.1c-4.4-2.6-9.3-4-14.4-4.1c-7.1,0-9.8,2.7-9.8,5.9c0,9.6,30.1,3,30.1,22c0,8.7-7.2,16.1-22,16.1
	C546.2,295.3,537.9,292.8,533.3,289.3z"/>
<path d="M584.6,242.6h12v51.8h-12V242.6z"/>
<path d="M649,284.8v9.6h-40.1v-51.8H648v9.6h-27.2v11.2h24v9.3h-24v12L649,284.8z M622,238.4h-8.4l9.8-10.7h10.2l9.8,10.7h-8.4
	l-6.4-5.6L622,238.4z"/>
<path d="M658.1,271.6v-29h12v28.6c0,9.8,4.3,13.9,11.5,13.9s11.5-4,11.5-13.9v-28.6H705v29c0,15.2-8.7,23.7-23.5,23.7
	S658.1,286.8,658.1,271.6z"/>
<path d="M784.9,294.4l-0.1-31.1l-15.2,25.6h-5.4L749,264v30.4h-11.2v-51.8h9.9l19.4,32.2l19.1-32.2h9.8l0.1,51.8H784.9z"/>
<path d="M842.5,283.3h-24l-4.6,11.1h-12.3l23.1-51.8h11.8l23.2,51.8h-12.6L842.5,283.3z M838.8,274.2l-8.2-19.8l-8.2,19.8H838.8z
	 M825.2,229l-2.4-4.7c2.3-1.7,5.1-2.6,8-2.5c5.3,0,8.9,3.2,8.9,7.9c0,4.2-2.3,7.2-6.8,9.3l-3.6-3.8c2.9-1.3,3.8-2.8,3.8-4.5
	c0-1.7-1.4-3.1-3.5-3.1C828,227.6,826.4,228.1,825.2,229z"/>
<path d="M912.6,242.6v51.8h-9.8L877,262.9v31.5h-11.9v-51.8h9.9l25.8,31.4v-31.4H912.6z"/>
<path d="M972.4,242.6v51.8h-12v-21.2h-23.5v21.2h-12v-51.8h12V263h23.5v-20.4H972.4z"/>
<path d="M52.5,338l1.9-4.1c2.3,1.6,5,2.5,7.8,2.5c3.3,0,4.6-1.1,4.6-2.6c0-4.4-13.8-1.4-13.8-10.2c0-4,3.3-7.4,10-7.4
	c2.9-0.1,5.7,0.7,8.3,2.1l-1.7,4.2c-2-1.2-4.3-1.8-6.6-1.9c-3.3,0-4.5,1.2-4.5,2.7c0,4.4,13.8,1.4,13.8,10.1c0,4-3.3,7.4-10.1,7.4
	C58.4,340.8,54.6,339.7,52.5,338z"/>
<path d="M84.7,331l-3.2,3.3v6H76v-23.8h5.5v11.1L92,316.6h6.1l-9.9,10.6l10.4,13.2h-6.4L84.7,331z"/>
<path d="M101.2,316.6h5.5v23.8h-5.5V316.6z"/>
<path d="M134.1,316.6v23.8h-4.5l-11.9-14.4v14.4h-5.4v-23.8h4.6l11.8,14.4v-14.4H134.1z"/>
<path d="M161.6,316.6v23.8h-4.5l-11.9-14.4v14.4h-5.4v-23.8h4.6l11.8,14.4v-14.4H161.6z"/>
<path d="M178.7,331.9v8.4h-5.5v-8.5l-9.2-15.3h5.9l6.4,10.6l6.4-10.6h5.4L178.7,331.9z"/>
<path d="M221.7,333.9c0,4.1-3.3,6.5-9.5,6.5h-12.3v-23.8h11.6c5.9,0,9,2.5,9,6.2c0,2.2-1.2,4.3-3.2,5.2
	C220,328.7,221.8,331.1,221.7,333.9z M205.3,320.7v5.6h5.5c2.7,0,4.1-1,4.1-2.8s-1.5-2.8-4.1-2.8H205.3z M216.2,333.3
	c0-2-1.5-3-4.4-3h-6.4v5.9h6.4C214.6,336.2,216.2,335.3,216.2,333.3L216.2,333.3z"/>
<path d="M241.1,340.4l-4.6-6.6h-5.1v6.6h-5.5v-23.8h10.3c6.4,0,10.3,3.3,10.3,8.6c0.1,3.3-1.8,6.3-4.9,7.5l5.3,7.7H241.1z
	 M235.9,321.1h-4.5v8.3h4.5c3.4,0,5.1-1.6,5.1-4.1C240.9,322.6,239.2,321.1,235.9,321.1z"/>
<path d="M249.4,328.5c0-7.1,5.5-12.3,13-12.3s13,5.2,13,12.3s-5.5,12.3-13,12.3S249.4,335.5,249.4,328.5z M269.8,328.5
	c-0.1-4.1-3.5-7.4-7.6-7.3c-4.1,0.1-7.4,3.5-7.3,7.6c0.1,4.1,3.4,7.3,7.5,7.3c4,0.1,7.3-3,7.4-7
	C269.9,328.9,269.8,328.7,269.8,328.5z"/>
<path d="M314.8,316.6l-7.8,23.8h-5.9l-5.2-16.1l-5.4,16.1h-5.9l-7.8-23.8h5.7l5.4,16.7l5.6-16.7h5.1l5.4,16.9l5.5-16.9H314.8z"/>
<path d="M348.6,325.2c0,5.3-4,8.6-10.3,8.6h-4.8v6.6H328v-23.8h10.3C344.6,316.6,348.6,319.9,348.6,325.2z M343,325.2
	c0-2.6-1.7-4.2-5.1-4.2h-4.5v8.3h4.5C341.3,329.3,343,327.8,343,325.2L343,325.2z"/>
<path d="M370.9,336v4.4h-18.4v-23.8h18v4.4H358v5.2h11v4.3h-11v5.5H370.9z"/>
<path d="M397.1,316.6v23.8h-4.5l-11.9-14.4v14.4h-5.4v-23.8h4.6l11.8,14.4v-14.4H397.1z"/>
<path d="M401.3,328.5c0-7.2,5.5-12.3,12.9-12.3c3.7-0.2,7.3,1.4,9.8,4.2l-3.5,3.3c-1.5-1.8-3.7-2.8-6-2.8c-4.2-0.2-7.7,3.1-7.9,7.3
	c-0.2,4.2,3.1,7.7,7.3,7.9c0.2,0,0.4,0,0.6,0c2.3,0,4.5-1,6-2.8l3.5,3.3c-2.5,2.8-6.1,4.4-9.8,4.2
	C406.8,340.8,401.3,335.6,401.3,328.5z"/>
<path d="M427.7,316.6h5.5v23.8h-5.5V316.6z"/>
<path d="M438.5,315.1h5.3v25.2h-5.3V315.1z"/>
<path d="M53.3,427.9h8.4v2h-8.4V427.9z"/>
<path d="M96.9,426.3c0,6.6-4.8,11.2-12,11.2h-9.1v-10.5h-3.4v-1.9h3.4v-10h9.1C92.1,415.1,96.9,419.7,96.9,426.3z M94.6,426.3
	c0-5.4-3.8-9.2-9.8-9.2h-6.6v8h6.7v1.9h-6.7v8.4h6.6C90.8,435.5,94.6,431.7,94.6,426.3z"/>
<path d="M114.5,427.1v10.4h-2.2v-2.6c-1,1.7-3,2.8-5.8,2.8c-3.8,0-6.1-2-6.1-4.9c0-2.6,1.7-4.8,6.5-4.8h5.3v-1
	c0-2.9-1.6-4.5-4.8-4.5c-2,0-4,0.7-5.6,2l-1-1.7c2-1.5,4.4-2.3,6.8-2.3C112,420.6,114.5,422.8,114.5,427.1z M104.6,418.1h-2.2l4.2-3
	h2.2l4.2,3h-2.2l-3.1-1.9L104.6,418.1z M112.2,432.5v-2.8h-5.3c-3.3,0-4.3,1.3-4.3,3c0,2,1.6,3.2,4.3,3.2
	C109.2,436,111.3,434.6,112.2,432.5L112.2,432.5z M112.6,415.4l-4.6-3.5h2.8l3.8,3.5H112.6z"/>
<path d="M135.8,420.7v16.8h-2.2v-3.1c-1.3,2.1-3.6,3.3-6,3.2c-4.3,0-7.1-2.4-7.1-7.2v-9.8h2.3v9.5c0,3.6,1.9,5.4,5.1,5.4
	c3.5,0,5.7-2.3,5.7-6.1v-8.8H135.8z"/>
<path d="M148.9,429.1c-0.1-4.6,3.4-8.4,8-8.5c0.2,0,0.4,0,0.7,0c2.6-0.2,5.2,1.1,6.6,3.3l-1.7,1.1c-1.1-1.6-2.9-2.6-4.9-2.5
	c-3.6,0-6.6,2.9-6.6,6.6c0,3.6,2.9,6.6,6.6,6.6c1.9,0.1,3.8-0.9,4.9-2.5l1.7,1.1c-1.5,2.2-4,3.5-6.6,3.3c-4.6,0.2-8.5-3.4-8.7-7.9
	C148.9,429.5,148.9,429.3,148.9,429.1z"/>
<path d="M183.8,427.8v9.8h-2.3V428c0-3.5-1.9-5.4-5-5.4c-3.6,0-5.9,2.2-5.9,6.1v8.8h-2.3v-23.8h2.3v9.9c1.4-2.1,3.8-3.2,6.3-3.1
	C181,420.6,183.8,422.9,183.8,427.8z"/>
<path d="M185.8,414.1h3l4.4,4H191L185.8,414.1z M190,420.7h2.3v16.8H190V420.7z"/>
<path d="M204.6,435.6l1-1.8c1.8,1.2,3.9,1.9,6,1.9c3.2,0,4.5-1.1,4.5-2.8c0-4.4-10.9-0.9-10.9-7.6c0-2.8,2.4-4.8,6.6-4.8
	c2.1,0,4.2,0.5,6,1.6l-1,1.8c-1.5-1-3.2-1.5-5-1.4c-3,0-4.4,1.2-4.4,2.8c0,4.5,10.9,1.1,10.9,7.6c0,2.9-2.6,4.8-6.9,4.8
	C209,437.8,206.6,437,204.6,435.6z"/>
<path d="M222.1,415.4c0-0.9,0.8-1.6,1.7-1.6c0.9,0,1.6,0.7,1.7,1.5c0,0,0,0,0,0c-0.1,0.9-0.9,1.6-1.8,1.5
	C222.8,416.8,222.2,416.2,222.1,415.4L222.1,415.4z M222.6,420.7h2.3v16.8h-2.3V420.7z"/>
<path d="M245.9,429.8h-14.1c0.3,3.5,2.9,5.9,6.6,5.9c2,0.1,3.8-0.7,5.1-2.2l1.3,1.5c-1.6,1.8-4,2.8-6.5,2.8c-5.2,0-8.8-3.6-8.8-8.6
	s3.5-8.5,8.2-8.5s8.2,3.5,8.2,8.5C245.9,429.3,245.9,429.6,245.9,429.8z M231.8,428.1h11.9c-0.3-3.3-3.3-5.7-6.6-5.4
	C234.3,423,232.1,425.3,231.8,428.1z M234.6,418.1h-2.1l4.1-4h2.3l4.1,4h-2.1l-3.2-2.7L234.6,418.1z"/>
<path d="M265.7,420.7v16.8h-2.2v-3.1c-1.3,2.1-3.6,3.3-6,3.2c-4.3,0-7.1-2.4-7.1-7.2v-9.8h2.3v9.5c0,3.6,1.9,5.4,5.1,5.4
	c3.5,0,5.7-2.3,5.7-6.1v-8.8H265.7z"/>
<path d="M296,427.8v9.8h-2.3V428c0-3.5-1.9-5.4-5-5.4c-3.6,0-5.9,2.2-5.9,6.1v8.8h-2.3v-16.8h2.2v3.1c1.4-2.2,3.8-3.4,6.4-3.2
	C293.2,420.6,296,422.9,296,427.8z"/>
<path d="M317.6,427.8v9.8h-2.3V428c0-3.5-1.9-5.4-5-5.4c-3.6,0-5.9,2.2-5.9,6.1v8.8h-2.3v-23.8h2.3v9.9c1.4-2.1,3.8-3.2,6.3-3.1
	C314.8,420.6,317.6,422.9,317.6,427.8z"/>
<path d="M322.2,429.1c0-4.7,3.9-8.6,8.6-8.5c4.7,0,8.6,3.9,8.5,8.6c0,4.7-3.8,8.5-8.5,8.5c-4.6,0.2-8.4-3.4-8.6-8
	C322.2,429.5,322.2,429.3,322.2,429.1z M337,429.1c0-3.9-2.7-6.6-6.2-6.6s-6.3,2.6-6.3,6.6s2.7,6.6,6.3,6.6S337,433,337,429.1z
	 M330.3,417.3c1.3-0.6,1.9-1.3,1.9-2.3c0-0.9-0.8-1.6-1.7-1.6c0,0-0.1,0-0.1,0c-0.7,0-1.4,0.2-1.9,0.6L328,413
	c0.8-0.6,1.7-0.8,2.7-0.8c1.5-0.1,2.8,1,3,2.5c0,0.1,0,0.2,0,0.3c0,1.5-0.8,2.6-2.6,3.4L330.3,417.3z"/>
<path d="M345.4,435.9c0,0.6-0.2,1.3-0.4,1.9l-1.4,4.4h-1.5l1.1-4.6c-0.7-0.2-1.2-0.9-1.1-1.6c-0.1-0.9,0.6-1.8,1.6-1.8
	c0.9-0.1,1.8,0.6,1.8,1.6C345.4,435.8,345.4,435.8,345.4,435.9L345.4,435.9z"/>
<path d="M377.2,418.1H374v19.4h-2.2v-3.3c-1.4,2.3-3.9,3.6-6.5,3.5c-4.7,0-8.6-3.8-8.6-8.6c0-4.7,3.8-8.5,8.6-8.6
	c2.6-0.1,5,1.2,6.4,3.3v-5.8h-7v-1.7h7v-2.6h2.3v2.6h3.2L377.2,418.1z M371.8,429.1c0-3.9-2.7-6.6-6.2-6.6s-6.3,2.6-6.3,6.6
	s2.7,6.6,6.3,6.6S371.8,433,371.8,429.1z"/>
<path d="M393,427.1v10.4h-2.2v-2.6c-1,1.7-3,2.8-5.8,2.8c-3.8,0-6.1-2-6.1-4.9c0-2.6,1.7-4.8,6.5-4.8h5.4v-1c0-2.9-1.6-4.5-4.8-4.5
	c-2,0-4,0.7-5.6,2l-1-1.7c2-1.5,4.4-2.3,6.9-2.3C390.6,420.6,393,422.8,393,427.1z M390.7,432.5v-2.8h-5.3c-3.3,0-4.3,1.3-4.3,3
	c0,2,1.6,3.2,4.2,3.2C387.7,436,389.9,434.7,390.7,432.5L390.7,432.5z M381.4,414.1h1.6c0.1,1.7,1.5,2.7,3.3,2.7s3.2-1,3.3-2.7h1.6
	c-0.1,2.6-2.2,4.1-4.9,4.1S381.5,416.7,381.4,414.1L381.4,414.1z M387.7,442.2c0,0.8-0.6,1.4-1.4,1.4c-0.8,0-1.4-0.6-1.4-1.4
	c0-0.8,0.6-1.4,1.4-1.4c0,0,0,0,0,0C387.1,440.8,387.7,441.4,387.7,442.2C387.7,442.2,387.7,442.2,387.7,442.2L387.7,442.2z"/>
<path d="M397.6,429.1c-0.1-4.6,3.4-8.4,8-8.5c0.2,0,0.4,0,0.7,0c2.6-0.2,5.2,1.1,6.6,3.3l-1.7,1.1c-1.1-1.6-2.9-2.6-4.9-2.5
	c-3.6,0-6.6,2.9-6.6,6.6c0,3.6,2.9,6.6,6.6,6.6c1.9,0.1,3.8-0.9,4.9-2.5l1.7,1.1c-1.5,2.2-4,3.5-6.6,3.3c-4.6,0.2-8.5-3.4-8.7-7.9
	C397.6,429.5,397.6,429.3,397.6,429.1z"/>
<path d="M442.7,429.1c0.2,4.5-3.2,8.3-7.7,8.6c-0.2,0-0.4,0-0.6,0c-2.6,0.1-5.1-1.2-6.5-3.5v3.3h-2.2v-23.7h2.3v10.1
	c1.4-2.2,3.8-3.4,6.4-3.3c4.5-0.1,8.2,3.4,8.4,7.9C442.7,428.7,442.7,428.9,442.7,429.1z M440.5,429.1c0.2-3.4-2.4-6.3-5.8-6.5
	c-0.2,0-0.3,0-0.5,0c-3.6,0-6.3,2.6-6.3,6.6s2.7,6.6,6.3,6.6c3.4,0.1,6.2-2.7,6.3-6.1C440.5,429.4,440.5,429.3,440.5,429.1z"/>
<path d="M446.9,415.4c0-0.9,0.8-1.6,1.7-1.6c0.9,0,1.6,0.7,1.7,1.6c0,0,0,0,0,0c0,0.9-0.7,1.6-1.6,1.7c0,0,0,0-0.1,0
	C447.6,417,446.9,416.3,446.9,415.4C446.9,415.4,446.9,415.4,446.9,415.4z M447.4,420.7h2.3v16.8h-2.3V420.7z"/>
<path d="M470.6,429.8h-14.1c0.2,3.5,2.9,5.9,6.6,5.9c2,0.1,3.8-0.7,5.1-2.2l1.3,1.5c-1.6,1.8-4,2.8-6.5,2.8c-5.2,0-8.8-3.6-8.8-8.6
	s3.5-8.5,8.2-8.5s8.2,3.5,8.2,8.5C470.7,429.3,470.6,429.6,470.6,429.8z M456.6,428.1h11.9c-0.4-3.3-3.3-5.7-6.6-5.3
	C459.1,423.1,456.9,425.3,456.6,428.1z M459.3,418.1h-2.1l4.1-4h2.3l4.1,4h-2.1l-3.2-2.7L459.3,418.1z M463.9,442.2
	c0,0.8-0.6,1.4-1.4,1.4c-0.8,0-1.4-0.6-1.4-1.4c0-0.8,0.6-1.4,1.4-1.4c0,0,0,0,0,0C463.2,440.9,463.9,441.4,463.9,442.2
	C463.9,442.2,463.9,442.2,463.9,442.2L463.9,442.2z"/>
<path d="M484.2,436.5c-1,0.8-2.3,1.2-3.5,1.2c-3.2,0-4.9-1.8-4.9-4.9v-10.2h-3v-1.9h3V417h2.3v3.7h5.1v1.9H478v10c0,2,1,3.1,2.9,3.1
	c0.9,0,1.8-0.3,2.5-0.9L484.2,436.5z"/>
<path d="M495,429.1c-0.1-4.6,3.4-8.4,8-8.5c0.2,0,0.4,0,0.7,0c2.6-0.2,5.2,1.1,6.6,3.3l-1.7,1.1c-1.1-1.6-2.9-2.6-4.9-2.5
	c-3.6,0-6.6,2.9-6.6,6.6c0,3.6,2.9,6.6,6.6,6.6c1.9,0.1,3.8-0.9,4.9-2.5l1.7,1.1c-1.4,2.2-4,3.5-6.6,3.3c-4.6,0.2-8.5-3.4-8.7-7.9
	C495,429.5,495,429.3,495,429.1z"/>
<path d="M529.9,427.8v9.8h-2.3V428c0-3.5-1.9-5.4-5.1-5.4c-3.6,0-5.9,2.2-5.9,6.1v8.8h-2.3v-23.8h2.3v9.9c1.4-2.1,3.8-3.2,6.3-3.1
	C527.1,420.6,529.9,422.9,529.9,427.8z"/>
<path d="M536.9,417.3c1.3-0.6,1.9-1.3,1.9-2.3c0-0.9-0.8-1.6-1.7-1.6c0,0-0.1,0-0.1,0c-0.7,0-1.4,0.2-1.9,0.6l-0.5-1.1
	c0.8-0.6,1.7-0.8,2.7-0.8c1.5-0.1,2.8,1,3,2.5c0,0.1,0,0.2,0,0.3c0,1.5-0.8,2.6-2.6,3.4L536.9,417.3z M536.1,420.7h2.3v16.8h-2.3
	V420.7z"/>
<path d="M557.8,415.1v22.4h-2.3v-20.4h-5.3v-2H557.8z"/>
<path d="M563.2,435.9c0-0.9,0.7-1.7,1.7-1.7c0,0,0,0,0,0c0.9,0,1.7,0.8,1.7,1.7c0,0,0,0,0,0c0,1-0.8,1.7-1.7,1.8
	C563.9,437.7,563.2,436.9,563.2,435.9C563.2,435.9,563.2,435.9,563.2,435.9z"/>
<path d="M585.1,430.9c0,3.8-2.7,6.8-8.1,6.8c-2.9,0.1-5.8-0.9-8-2.9l1.1-1.8c1.9,1.7,4.3,2.7,6.9,2.6c3.8,0,5.8-1.9,5.8-4.6
	c0-2.9-1.8-4.7-7.5-4.7h-4.8l1.2-11.2H584v2h-10.3l-0.8,7.1h2.9C582.6,424.3,585.1,427,585.1,430.9z"/>
<path d="M617.3,427.8v9.8H615V428c0-3.5-1.8-5.4-4.8-5.4c-3.5,0-5.6,2.2-5.6,6.1v8.8h-2.2V428c0-3.5-1.8-5.4-4.9-5.4
	c-3.4,0-5.6,2.2-5.6,6.1v8.8h-2.3v-16.8h2.2v3.1c1.3-2.1,3.7-3.3,6.2-3.2c2.8,0,5,1.2,6,3.5c1.4-2.3,4-3.7,6.7-3.5
	C614.6,420.6,617.3,422.9,617.3,427.8z"/>
<path d="M651.3,427.8v9.8H649V428c0-3.5-1.8-5.4-4.8-5.4c-3.5,0-5.6,2.2-5.6,6.1v8.8h-2.3V428c0-3.5-1.8-5.4-4.9-5.4
	c-3.4,0-5.6,2.2-5.6,6.1v8.8h-2.3v-16.8h2.2v3.1c1.3-2.1,3.7-3.3,6.2-3.2c2.8,0,5,1.2,6,3.5c1.4-2.3,4-3.7,6.7-3.5
	C648.6,420.6,651.3,422.9,651.3,427.8z"/>
<path d="M62,473l-4.6,4.6v5.9H55v-22.4h2.4v13.5l13.2-13.5h2.7l-9.7,10.1L74,483.5h-2.9L62,473z"/>
<path d="M91.2,475.8H77.1c0.3,3.5,2.9,5.9,6.6,5.9c2,0.1,3.8-0.7,5.2-2.2l1.3,1.5c-1.6,1.8-4,2.8-6.5,2.8c-5.2,0-8.8-3.6-8.8-8.6
	s3.5-8.5,8.2-8.5s8.2,3.5,8.2,8.5C91.2,475.3,91.2,475.6,91.2,475.8z M77.1,474.1h11.9c-0.3-3.3-3.3-5.7-6.6-5.4
	C79.7,469,77.4,471.3,77.1,474.1z M80.9,460.1l-0.5-1.1c0.8-0.6,1.7-0.8,2.7-0.8c1.5-0.1,2.8,1,3,2.5c0,0.1,0,0.2,0,0.3
	c0,1.5-0.8,2.6-2.6,3.4l-0.8-1c1.3-0.6,1.9-1.3,1.9-2.3c0-0.9-0.8-1.6-1.7-1.6c0,0-0.1,0-0.1,0C82.1,459.5,81.5,459.7,80.9,460.1
	L80.9,460.1z"/>
<path d="M132,473.8v9.8h-2.3V474c0-3.5-1.8-5.4-4.8-5.4c-3.5,0-5.6,2.2-5.6,6.1v8.8H117V474c0-3.5-1.8-5.4-4.9-5.4
	c-3.4,0-5.6,2.2-5.6,6.1v8.8h-2.3v-16.8h2.2v3.1c1.3-2.1,3.7-3.3,6.2-3.2c2.8,0,5,1.2,6,3.5c1.4-2.3,4-3.7,6.7-3.5
	C129.4,466.6,132,468.9,132,473.8z"/>
<path d="M150.9,473.1v10.4h-2.2v-2.6c-1,1.7-3,2.8-5.8,2.8c-3.8,0-6.1-2-6.1-4.9c0-2.6,1.7-4.8,6.5-4.8h5.4v-1
	c0-2.9-1.6-4.4-4.8-4.4c-2,0-4,0.7-5.6,2l-1-1.7c1.9-1.5,4.4-2.3,6.8-2.3C148.5,466.6,150.9,468.8,150.9,473.1z M144,464.1l-5.2-4h3
	l4.4,4H144z M148.6,478.5v-2.8h-5.3c-3.3,0-4.3,1.3-4.3,3c0,2,1.6,3.2,4.2,3.2C145.6,482,147.8,480.6,148.6,478.5L148.6,478.5z"/>
<path d="M170.9,466.7l-8.4,18.9c-1.4,3.3-3.2,4.4-5.6,4.4c-1.5,0-3-0.5-4.1-1.5l1.1-1.7c0.8,0.8,1.9,1.3,3.1,1.3
	c1.5,0,2.5-0.7,3.5-2.8l0.7-1.6l-7.5-16.8h2.4l6.3,14.3l6.3-14.3H170.9z"/>
<path d="M201,464.1h-3.2v19.4h-2.2v-3.3c-1.4,2.3-3.9,3.6-6.5,3.5c-4.7,0-8.6-3.8-8.6-8.6c0-4.7,3.8-8.5,8.6-8.6
	c2.6-0.1,5,1.2,6.4,3.3v-5.8h-7v-1.7h7v-2.6h2.3v2.6h3.2V464.1z M195.6,475.1c0-3.9-2.7-6.6-6.2-6.6s-6.3,2.6-6.3,6.6
	s2.7,6.5,6.3,6.5S195.6,479,195.6,475.1L195.6,475.1z"/>
<path d="M218.9,475.8h-14.1c0.2,3.5,2.9,5.9,6.6,5.9c2,0.1,3.8-0.7,5.1-2.2l1.3,1.5c-1.6,1.8-4,2.8-6.5,2.8c-5.2,0-8.8-3.6-8.8-8.6
	s3.5-8.5,8.2-8.5s8.2,3.5,8.2,8.5C218.9,475.3,218.9,475.6,218.9,475.8z M204.8,474.1h11.9c-0.4-3.3-3.3-5.7-6.6-5.3
	C207.3,469.1,205.1,471.3,204.8,474.1z M212.1,488.2c0,0.8-0.6,1.4-1.4,1.4c-0.8,0-1.4-0.6-1.4-1.4c0-0.8,0.6-1.4,1.4-1.4
	c0,0,0,0,0,0C211.5,486.8,212.1,487.4,212.1,488.2C212.1,488.2,212.1,488.2,212.1,488.2L212.1,488.2z"/>
<path d="M240.6,475.1c0.2,4.5-3.2,8.3-7.7,8.6c-0.2,0-0.4,0-0.7,0c-2.6,0.1-5-1.2-6.4-3.3v9.4h-2.3v-23h2.2v3.3
	c1.4-2.2,3.9-3.6,6.5-3.5c4.5-0.1,8.2,3.4,8.4,7.9C240.6,474.7,240.6,474.9,240.6,475.1z M238.3,475.1c0.2-3.5-2.5-6.4-5.9-6.6
	c-3.5-0.2-6.4,2.5-6.6,5.9c0,0.2,0,0.5,0,0.7c0,3.9,2.7,6.5,6.3,6.5c3.4,0.1,6.2-2.7,6.3-6.1C238.3,475.4,238.3,475.3,238.3,475.1z"
	/>
<path d="M262.5,482.5c-1,0.8-2.3,1.2-3.5,1.2c-3.2,0-4.9-1.8-4.9-4.9v-10.2h-3v-1.9h3V463h2.3v3.7h5.1v1.9h-5.1v10
	c0,2,1,3.1,2.9,3.1c0.9,0,1.8-0.3,2.5-0.9L262.5,482.5z"/>
<path d="M281.8,468.3v15.2h-2.2v-3.1c-1.3,2.1-3.6,3.3-6,3.2c-4.3,0-7.1-2.4-7.1-7.2v-9.8h2.3v9.5c0,3.6,1.9,5.4,5.1,5.4
	c3.5,0,5.7-2.3,5.7-6.1v-8.8h1.2c1.1,0.1,2-0.8,2.1-1.9c0-0.1,0-0.2,0-0.3c0-0.7-0.2-1.4-0.6-2l1.5-0.6c0.6,0.8,0.8,1.7,0.8,2.7
	C284.7,466.4,283.5,468,281.8,468.3z M275.5,488.2c0,0.8-0.6,1.4-1.4,1.4c-0.8,0-1.4-0.6-1.4-1.4c0-0.8,0.6-1.4,1.4-1.4c0,0,0,0,0,0
	C274.9,486.8,275.5,487.4,275.5,488.2C275.5,488.2,275.5,488.2,275.5,488.2L275.5,488.2z"/>
<path d="M312.2,473.8v9.8h-2.3V474c0-3.5-1.9-5.4-5.1-5.4c-3.6,0-5.9,2.2-5.9,6.1v8.8h-2.3v-16.8h2.2v3.1c1.4-2.2,3.8-3.4,6.4-3.2
	C309.4,466.6,312.2,468.9,312.2,473.8z"/>
<path d="M333.9,473.8v9.8h-2.3V474c0-3.5-1.9-5.4-5.1-5.4c-3.6,0-5.9,2.2-5.9,6.1v8.8h-2.3v-23.7h2.3v9.9c1.4-2.1,3.8-3.2,6.3-3.1
	C331,466.6,333.9,468.9,333.9,473.8z"/>
<path d="M339.5,461.4c0-0.9,0.8-1.6,1.7-1.6c0,0,0,0,0,0c0.9,0,1.6,0.7,1.7,1.6c0,0,0,0,0,0c0,0.9-0.7,1.7-1.7,1.7
	S339.5,462.3,339.5,461.4L339.5,461.4L339.5,461.4z M340,466.7h2.3v16.8H340L340,466.7z"/>
<path d="M363.3,475.8h-14.1c0.3,3.5,3,5.9,6.6,5.9c2,0.1,3.8-0.7,5.1-2.2l1.3,1.5c-1.6,1.8-4,2.8-6.5,2.8c-5.2,0-8.8-3.6-8.8-8.6
	s3.5-8.5,8.2-8.5s8.2,3.5,8.2,8.5C363.3,475.3,363.3,475.6,363.3,475.8z M349.2,474.1h11.9c-0.3-3.3-3.3-5.7-6.6-5.4
	C351.8,469,349.5,471.3,349.2,474.1z M352,464.1h-2.1l4.1-4h2.3l4.1,4h-2.1l-3.2-2.7L352,464.1z"/>
<path d="M383.5,473.8v9.8h-2.3V474c0-3.5-1.9-5.4-5.1-5.4c-3.6,0-5.9,2.2-5.9,6.1v8.8H368v-16.8h2.2v3.1c1.4-2.2,3.8-3.4,6.4-3.2
	C380.6,466.6,383.5,468.9,383.5,473.8z"/>
<path d="M388.2,481.9c0-0.9,0.7-1.7,1.6-1.7c0,0,0,0,0,0c0.9,0,1.7,0.8,1.7,1.7c0,0,0,0,0,0c0,1-0.8,1.7-1.7,1.8
	C388.9,483.7,388.2,482.9,388.2,481.9C388.2,481.9,388.2,481.9,388.2,481.9z"/>
<path d="M53.3,519.9h8.4v2h-8.4V519.9z"/>
<path d="M94.4,523.5c0,3.8-2.8,6-8.4,6H75.7v-22.4h9.7c5,0,7.9,2.1,7.9,5.8c0.1,2.3-1.3,4.3-3.4,5.1
	C92.5,518.4,94.5,520.8,94.4,523.5z M78,509.1v8.1h7.1c3.6,0,5.7-1.4,5.7-4.1c0-2.7-2.1-4.1-5.7-4.1H78z M92,523.3
	c0-2.9-2.2-4.2-6.1-4.2H78v8.4h7.9C89.9,527.6,92,526.3,92,523.3L92,523.3z"/>
<path d="M114,521.8H99.9c0.3,3.5,2.9,5.9,6.6,5.9c2,0.1,3.8-0.7,5.2-2.2l1.3,1.5c-1.6,1.8-4,2.8-6.5,2.8c-5.2,0-8.8-3.6-8.8-8.6
	s3.5-8.5,8.2-8.5s8.2,3.5,8.2,8.5C114,521.3,114,521.6,114,521.8z M99.9,520.1h11.9c-0.3-3.3-3.3-5.7-6.6-5.4
	C102.5,515,100.2,517.3,99.9,520.1z M102.8,510.1h-2.2l4.2-3h2.2l4.2,3H109l-3.1-1.9L102.8,510.1z M110.7,507.4l-4.7-3.5h2.8
	l3.8,3.5L110.7,507.4z"/>
<path d="M134.1,519.8v9.8h-2.3V520c0-3.5-1.9-5.4-5.1-5.4c-3.6,0-5.9,2.2-5.9,6.1v8.8h-2.3v-16.8h2.2v3.1c1.4-2.2,3.8-3.4,6.4-3.2
	C131.3,512.6,134.1,514.9,134.1,519.8z"/>
<path d="M176.4,519.8v9.8h-2.3V520c0-3.5-1.8-5.4-4.8-5.4c-3.5,0-5.6,2.2-5.6,6.1v8.8h-2.3V520c0-3.5-1.8-5.4-4.9-5.4
	c-3.4,0-5.6,2.2-5.6,6.1v8.8h-2.3v-16.8h2.2v3.1c1.3-2.1,3.7-3.3,6.2-3.2c2.8,0,5,1.2,6,3.5c1.4-2.3,4-3.7,6.7-3.5
	C173.8,512.6,176.4,514.9,176.4,519.8z"/>
<path d="M195.3,519.1v10.4h-2.2v-2.6c-1,1.7-3,2.8-5.8,2.8c-3.8,0-6.1-2-6.1-4.9c0-2.6,1.7-4.8,6.5-4.8h5.3v-1
	c0-2.9-1.6-4.4-4.8-4.4c-2,0-4,0.7-5.6,2l-1-1.7c2-1.5,4.4-2.3,6.9-2.3C192.9,512.6,195.3,514.8,195.3,519.1z M188.4,510.1l-5.2-4h3
	l4.4,4H188.4z M193.1,524.5v-2.8h-5.3c-3.3,0-4.3,1.3-4.3,3c0,2,1.6,3.2,4.3,3.2C190.1,528,192.2,526.6,193.1,524.5L193.1,524.5z"/>
<path d="M216.7,512.7v16.8h-2.2v-3.1c-1.3,2.1-3.6,3.3-6,3.2c-4.3,0-7.1-2.4-7.1-7.2v-9.8h2.3v9.5c0,3.6,1.9,5.4,5.1,5.4
	c3.5,0,5.7-2.3,5.7-6.1v-8.8H216.7z"/>
<path d="M229.7,521.1c-0.2-4.6,3.4-8.4,8-8.6c0.2,0,0.4,0,0.7,0c2.6-0.2,5.1,1.1,6.6,3.3l-1.7,1.1c-1.1-1.6-2.9-2.5-4.9-2.5
	c-3.6,0.1-6.4,3.2-6.3,6.8c0.1,3.4,2.9,6.2,6.3,6.3c1.9,0.1,3.8-0.9,4.9-2.5l1.7,1.2c-1.5,2.2-4,3.5-6.6,3.3
	c-4.6,0.2-8.5-3.3-8.7-7.9C229.7,521.6,229.7,521.3,229.7,521.1z"/>
<path d="M262.1,519.1v10.4H260v-2.6c-1,1.7-3,2.8-5.8,2.8c-3.8,0-6.1-2-6.1-4.9c0-2.6,1.7-4.8,6.5-4.8h5.3v-1c0-2.9-1.6-4.4-4.8-4.4
	c-2,0-4,0.7-5.6,2l-1-1.7c1.9-1.5,4.4-2.3,6.8-2.3C259.7,512.6,262.1,514.8,262.1,519.1z M259.9,524.5v-2.8h-5.3
	c-3.3,0-4.3,1.3-4.3,3c0,2,1.6,3.2,4.2,3.2C256.9,528,259,526.6,259.9,524.5z M253.2,506.1l-0.5-1.1c0.8-0.6,1.7-0.8,2.6-0.8
	c1.5-0.1,2.8,0.9,3,2.4c0,0.1,0,0.2,0,0.3c0,1.5-0.8,2.6-2.6,3.4l-0.8-1c1.3-0.6,1.9-1.3,1.9-2.3c0-0.9-0.8-1.6-1.7-1.6
	c0,0-0.1,0-0.1,0C254.4,505.5,253.8,505.7,253.2,506.1z"/>
<path d="M292.2,519.8v9.8h-2.3V520c0-3.5-1.9-5.4-5.1-5.4c-3.6,0-5.9,2.2-5.9,6.1v8.8h-2.3v-16.8h2.2v3.1c1.4-2.2,3.8-3.4,6.4-3.2
	C289.4,512.6,292.2,514.9,292.2,519.8z"/>
<path d="M314,512.7v14.8c0,5.8-2.9,8.4-8.4,8.4c-3.1,0-6.1-0.9-7.8-2.6l1.1-1.7c1.9,1.5,4.2,2.4,6.6,2.3c4.3,0,6.2-2,6.2-6.1v-2.1
	c-1.5,2.1-4,3.4-6.6,3.3c-4.8,0-8.5-3.4-8.5-8.2s3.6-8.1,8.5-8.1c2.7-0.1,5.2,1.2,6.6,3.4v-3.2H314z M311.8,520.7
	c0-3.6-2.7-6.1-6.4-6.1c-3.4,0.1-6,3-5.9,6.4c0.1,3.4,3,6,6.4,5.9C309.2,526.7,311.8,524,311.8,520.7z"/>
<path d="M333.1,519.1v10.4h-2.2v-2.6c-1,1.7-3,2.8-5.8,2.8c-3.8,0-6.1-2-6.1-4.9c0-2.6,1.7-4.8,6.5-4.8h5.3v-1
	c0-2.9-1.6-4.4-4.8-4.4c-2,0-4,0.7-5.6,2l-1-1.7c2-1.5,4.4-2.3,6.9-2.3C330.6,512.6,333.1,514.8,333.1,519.1z M326.2,510.1l-5.2-4h3
	l4.4,4H326.2z M330.8,524.5v-2.8h-5.3c-3.3,0-4.3,1.3-4.3,3c0,2,1.6,3.2,4.3,3.2C327.8,528,330,526.6,330.8,524.5L330.8,524.5z"/>
<path d="M353.1,512.7l-8.4,18.9c-1.4,3.3-3.2,4.3-5.6,4.3c-1.5,0-3-0.5-4.1-1.5l1.1-1.7c0.8,0.8,1.9,1.3,3.1,1.3
	c1.5,0,2.5-0.7,3.5-2.8l0.7-1.6l-7.5-16.8h2.4l6.3,14.3l6.3-14.3H353.1z"/>
<path d="M357.2,527.9c0,0.6-0.2,1.3-0.5,1.9l-1.3,4.4h-1.5l1.1-4.6c-0.7-0.2-1.2-0.9-1.1-1.6c-0.1-0.9,0.6-1.8,1.6-1.8
	s1.8,0.6,1.8,1.6C357.2,527.8,357.2,527.8,357.2,527.9L357.2,527.9z"/>
<path d="M376.6,521.1l-4,3.7v4.8h-2.3v-23.7h2.3v16.1l10-9.2h2.8l-7.2,6.9l7.9,10h-2.7L376.6,521.1z"/>
<path d="M405.1,519.8v9.8h-2.3V520c0-3.5-1.9-5.4-5.1-5.4c-3.6,0-5.9,2.2-5.9,6.1v8.8h-2.3v-23.7h2.3v9.9c1.4-2.1,3.8-3.2,6.3-3.1
	C402.3,512.6,405.1,514.9,405.1,519.8z"/>
<path d="M426.8,521.1c0,4.7-3.8,8.6-8.5,8.6s-8.6-3.8-8.6-8.5s3.8-8.6,8.5-8.6c0,0,0,0,0,0c4.6-0.2,8.4,3.4,8.5,8
	C426.8,520.8,426.8,520.9,426.8,521.1z M424.5,521.1c0-3.9-2.6-6.6-6.2-6.6s-6.3,2.6-6.3,6.6s2.7,6.5,6.3,6.5S424.5,525,424.5,521.1
	z M415,510.1h-2.1l4.1-4h2.3l4.1,4h-2.1l-3.2-2.7L415,510.1z"/>
<path d="M446.9,519.8v9.8h-2.3V520c0-3.5-1.9-5.4-5-5.4c-3.6,0-5.9,2.2-5.9,6.1v8.8h-2.3v-16.8h2.2v3.1c1.4-2.2,3.8-3.4,6.4-3.2
	C444.1,512.6,446.9,514.9,446.9,519.8z"/>
<path d="M468.7,512.7v14.8c0,5.8-2.9,8.4-8.4,8.4c-3.1,0-6.1-0.9-7.8-2.6l1.1-1.7c1.9,1.5,4.2,2.4,6.6,2.3c4.2,0,6.2-2,6.2-6.1v-2.1
	c-1.5,2.1-4,3.4-6.5,3.3c-4.8,0-8.5-3.4-8.5-8.2s3.6-8.1,8.5-8.1c2.7-0.1,5.2,1.2,6.6,3.4v-3.2H468.7z M466.5,520.7
	c0-3.6-2.7-6.1-6.4-6.1s-6.4,2.5-6.4,6.1c0.1,3.5,3.1,6.3,6.6,6.1C463.7,526.7,466.4,524,466.5,520.7z"/>
<path d="M483.5,505.8h2.3v23.7h-2.3V505.8z"/>
<path d="M506.7,521.8h-14.1c0.3,3.5,3,5.9,6.6,5.9c2,0.1,3.8-0.7,5.1-2.2l1.3,1.5c-1.6,1.8-4,2.8-6.5,2.8c-5.2,0-8.8-3.6-8.8-8.6
	s3.5-8.5,8.2-8.5s8.2,3.5,8.2,8.5C506.8,521.3,506.7,521.6,506.7,521.8z M492.6,520.1h11.9c-0.3-3.3-3.3-5.7-6.6-5.4
	C495.2,515,492.9,517.3,492.6,520.1z"/>
<path d="M539.2,519.8v9.8h-2.3V520c0-3.5-1.8-5.4-4.8-5.4c-3.5,0-5.6,2.2-5.6,6.1v8.8h-2.3V520c0-3.5-1.8-5.4-4.9-5.4
	c-3.4,0-5.6,2.2-5.6,6.1v8.8h-2.3v-16.8h2.2v3.1c1.3-2.1,3.7-3.3,6.2-3.2c2.8,0,5,1.2,6,3.5c1.4-2.3,4-3.7,6.7-3.5
	C536.5,512.6,539.2,514.9,539.2,519.8z"/>
<path d="M560,521.1l-4,3.7v4.8h-2.3v-23.7h2.3v16.1l10-9.2h2.8l-7.2,6.9l7.9,10h-2.8L560,521.1z"/>
<path d="M588.5,519.8v9.8h-2.3V520c0-3.5-1.9-5.4-5.1-5.4c-3.6,0-5.9,2.2-5.9,6.1v8.8H573v-23.7h2.3v9.9c1.4-2.1,3.8-3.2,6.3-3.1
	C585.6,512.6,588.5,514.9,588.5,519.8z"/>
<path d="M610.1,521.1c0,4.7-3.8,8.6-8.5,8.6c-4.7,0-8.6-3.8-8.6-8.5c0-4.7,3.8-8.6,8.5-8.6c0,0,0,0,0,0c4.6-0.2,8.4,3.4,8.5,8
	C610.1,520.7,610.1,520.9,610.1,521.1z M607.8,521.1c0-3.9-2.7-6.6-6.2-6.6s-6.3,2.6-6.3,6.6s2.7,6.5,6.3,6.5S607.8,525,607.8,521.1
	z M598.4,510.1h-2.1l4.1-4h2.3l4.1,4h-2.1l-3.2-2.7L598.4,510.1z"/>
<path d="M630.2,519.8v9.8H628V520c0-3.5-1.9-5.4-5.1-5.4c-3.6,0-5.9,2.2-5.9,6.1v8.8h-2.3v-16.8h2.2v3.1c1.4-2.2,3.8-3.4,6.4-3.2
	C627.4,512.6,630.2,514.9,630.2,519.8z"/>
<path d="M652.1,512.7v14.8c0,5.8-2.8,8.4-8.4,8.4c-3.1,0-6.1-0.9-7.8-2.6l1.2-1.7c1.9,1.5,4.2,2.4,6.6,2.3c4.3,0,6.2-2,6.2-6.1v-2.1
	c-1.5,2.1-4,3.4-6.6,3.3c-4.8,0-8.4-3.4-8.4-8.2s3.6-8.1,8.4-8.1c2.7-0.1,5.2,1.2,6.7,3.4v-3.2H652.1z M649.9,520.7
	c0-3.6-2.7-6.1-6.4-6.1s-6.4,2.5-6.4,6.1c0.1,3.5,3.1,6.3,6.6,6.1C647.1,526.7,649.7,524,649.9,520.7z"/>
<path d="M683.9,521.1c0.2,4.5-3.2,8.3-7.7,8.6c-0.2,0-0.4,0-0.7,0c-2.6,0.1-5-1.2-6.4-3.3v9.4h-2.3v-23h2.2v3.3
	c1.4-2.2,3.9-3.6,6.5-3.5c4.5-0.1,8.2,3.4,8.4,7.9C683.9,520.7,683.9,520.9,683.9,521.1z M681.6,521.1c0.2-3.4-2.4-6.3-5.8-6.5
	c-0.2,0-0.3,0-0.5,0c-3.6,0-6.3,2.6-6.3,6.6s2.7,6.5,6.3,6.5c3.4,0.1,6.2-2.7,6.3-6.1C681.6,521.4,681.6,521.3,681.6,521.1z"/>
<path d="M704,519.8v9.8h-2.3V520c0-3.5-1.9-5.4-5.1-5.4c-3.6,0-5.9,2.2-5.9,6.1v8.8h-2.3v-23.7h2.3v9.9c1.4-2.1,3.8-3.2,6.3-3.1
	C701.2,512.6,704,514.9,704,519.8z"/>
<path d="M722.9,519.1v10.4h-2.2v-2.6c-1,1.7-3,2.8-5.8,2.8c-3.8,0-6.1-2-6.1-4.9c0-2.6,1.7-4.8,6.5-4.8h5.3v-1
	c0-2.9-1.6-4.4-4.8-4.4c-2,0-4,0.7-5.6,2l-1-1.7c1.9-1.5,4.4-2.3,6.8-2.3C720.4,512.6,722.9,514.8,722.9,519.1z M720.6,524.5v-2.8
	h-5.3c-3.3,0-4.3,1.3-4.3,3c0,2,1.6,3.2,4.2,3.2C717.6,528,719.8,526.6,720.6,524.5z"/>
<path d="M728.5,507.4c0-0.9,0.8-1.6,1.7-1.6c0.9,0,1.6,0.7,1.7,1.6c0,0,0,0,0,0c0,0.9-0.7,1.6-1.6,1.7c0,0,0,0-0.1,0
	C729.3,509,728.6,508.3,728.5,507.4C728.5,507.4,728.5,507.4,728.5,507.4z M729.1,512.7h2.3v16.8h-2.3V512.7z"/>
<path d="M736.2,527.9c0-0.9,0.7-1.7,1.7-1.7c0,0,0,0,0,0c0.9,0,1.7,0.8,1.7,1.7c0,0,0,0,0,0c0,1-0.8,1.7-1.7,1.8
	C736.9,529.7,736.2,528.9,736.2,527.9C736.2,527.9,736.2,527.9,736.2,527.9z"/>
<path d="M53.3,565.9h8.4v2h-8.4V565.9z"/>
<path d="M80,555.2h-7.9v-2h18.1v2h-7.9v20.4H80V555.2z"/>
<path d="M96.6,552.1h3l-5.2,4h-2.2L96.6,552.1z M93.1,558.7h2.3v16.8h-2.3V558.7z"/>
<path d="M100,567.1c-0.1-4.6,3.4-8.4,8-8.6c0.2,0,0.4,0,0.7,0c2.6-0.2,5.2,1.1,6.6,3.3l-1.7,1.1c-1.1-1.6-3-2.5-4.9-2.5
	c-3.6,0.1-6.4,3.2-6.3,6.8c0.1,3.4,2.9,6.2,6.3,6.3c1.9,0.1,3.8-0.9,4.9-2.5l1.7,1.2c-1.4,2.2-4,3.5-6.6,3.3
	c-4.6,0.2-8.5-3.4-8.7-7.9C100,567.5,100,567.3,100,567.1z"/>
<path d="M135,565.8v9.8h-2.3V566c0-3.5-1.9-5.4-5.1-5.4c-3.6,0-5.9,2.2-5.9,6.1v8.8h-2.3v-23.7h2.3v9.8c1.4-2.1,3.8-3.2,6.3-3.1
	C132.1,558.6,135,560.9,135,565.8z"/>
<path d="M165,565.8v9.8h-2.3V566c0-3.5-1.9-5.4-5.1-5.4c-3.6,0-5.9,2.2-5.9,6.1v8.8h-2.3v-23.7h2.3v9.8c1.4-2.1,3.8-3.2,6.3-3.1
	C162.2,558.6,165,560.9,165,565.8z"/>
<path d="M186.7,567.1c0,4.7-3.8,8.6-8.6,8.6c-4.7,0-8.6-3.8-8.6-8.5c0-4.7,3.8-8.6,8.6-8.6c0,0,0,0,0,0c1.7,0,2.4,0.2,4,0.2
	c1.8,0,2.6-1,2.6-2.2c0-0.7-0.2-1.4-0.6-2l1.5-0.6c0.5,0.8,0.8,1.7,0.9,2.7c0,1.8-1.3,3.4-3.1,3.6
	C185.5,561.9,186.7,564.4,186.7,567.1z M184.4,567.1c0-3.9-2.7-6.6-6.2-6.6s-6.3,2.6-6.3,6.6s2.7,6.5,6.3,6.5S184.4,571,184.4,567.1
	z M179.5,580.2c0,0.8-0.6,1.4-1.4,1.4c-0.8,0-1.4-0.6-1.4-1.4c0-0.8,0.6-1.4,1.4-1.4c0,0,0,0,0,0
	C178.9,578.8,179.5,579.4,179.5,580.2C179.5,580.2,179.5,580.2,179.5,580.2L179.5,580.2z"/>
<path d="M208.4,567.1c0.2,4.5-3.2,8.3-7.7,8.6c-0.2,0-0.4,0-0.7,0c-2.6,0.1-5-1.2-6.4-3.3v9.4h-2.3v-23h2.2v3.3
	c1.4-2.2,3.9-3.6,6.5-3.5c4.5-0.1,8.3,3.4,8.4,7.9C208.4,566.7,208.4,566.9,208.4,567.1z M206.1,567.1c0.1-3.5-2.6-6.4-6-6.5
	c-3.5-0.1-6.4,2.6-6.5,6c0,0.2,0,0.3,0,0.5c0,3.9,2.7,6.5,6.3,6.5c3.4,0.1,6.2-2.7,6.3-6.1C206.1,567.4,206.1,567.3,206.1,567.1z"/>
<path d="M239.9,556.1h-3.2v19.4h-2.2v-3.3c-1.4,2.3-3.9,3.6-6.5,3.5c-4.7,0-8.6-3.8-8.6-8.6c0-4.7,3.8-8.5,8.6-8.6
	c2.6-0.1,5,1.2,6.4,3.3v-5.8h-7v-1.7h7v-2.6h2.3v2.6h3.2V556.1z M234.5,567.1c0-3.9-2.7-6.6-6.2-6.6s-6.3,2.6-6.3,6.6
	s2.7,6.5,6.3,6.5S234.5,571,234.5,567.1L234.5,567.1z"/>
<path d="M255.8,565.1v10.4h-2.2v-2.6c-1,1.7-3,2.8-5.8,2.8c-3.8,0-6.1-2-6.1-4.9c0-2.6,1.7-4.8,6.5-4.8h5.3v-1
	c0-2.9-1.6-4.4-4.8-4.4c-2,0-4,0.7-5.6,2l-1-1.7c2-1.5,4.4-2.3,6.9-2.3C253.3,558.6,255.8,560.8,255.8,565.1z M245.9,556.1h-2.2
	l4.2-3h2.2l4.2,3h-2.2l-3.1-1.9L245.9,556.1z M253.5,570.5v-2.8h-5.3c-3.3,0-4.3,1.3-4.3,3c0,2,1.6,3.2,4.3,3.2
	C250.5,574,252.7,572.6,253.5,570.5L253.5,570.5z M253.9,553.4l-4.6-3.5h2.8l3.8,3.5H253.9z"/>
<path d="M277.1,558.7v16.8H275v-3.1c-1.3,2.1-3.6,3.3-6,3.2c-4.3,0-7.1-2.4-7.1-7.2v-9.8h2.3v9.5c0,3.6,1.9,5.4,5.1,5.4
	c3.5,0,5.7-2.3,5.7-6.1v-8.8H277.1z"/>
<path d="M290.2,567.1c-0.1-4.6,3.4-8.4,8-8.6c0.2,0,0.4,0,0.7,0c2.6-0.2,5.2,1.1,6.6,3.3l-1.7,1.1c-1.1-1.6-2.9-2.5-4.9-2.5
	c-3.6,0.1-6.4,3.2-6.3,6.8c0.1,3.4,2.9,6.2,6.3,6.3c1.9,0.1,3.8-0.9,4.9-2.5l1.7,1.2c-1.5,2.2-4,3.5-6.6,3.3
	c-4.6,0.2-8.5-3.4-8.7-7.9C290.2,567.5,290.2,567.3,290.2,567.1z"/>
<path d="M307.9,567.1c0-4.7,3.8-8.6,8.6-8.5c4.7,0,8.6,3.8,8.5,8.6c0,4.7-3.8,8.5-8.5,8.5c-4.6,0.2-8.4-3.4-8.6-8
	C307.9,567.5,307.9,567.3,307.9,567.1z M322.7,567.1c0-3.9-2.7-6.6-6.2-6.6s-6.3,2.6-6.3,6.6c-0.2,3.4,2.4,6.3,5.8,6.5
	c0.2,0,0.3,0,0.5,0C320.1,573.7,322.7,571,322.7,567.1z M315.1,580.2c0-0.8,0.6-1.4,1.4-1.4c0.8,0,1.4,0.6,1.4,1.4
	c0,0.8-0.6,1.4-1.4,1.4c0,0,0,0,0,0C315.7,581.6,315.1,581,315.1,580.2C315.1,580.3,315.1,580.3,315.1,580.2L315.1,580.2z"/>
<path d="M346.9,574.5c-1,0.8-2.3,1.2-3.5,1.2c-3.2,0-4.9-1.8-4.9-4.9v-10.2h-3v-1.9h3V555h2.3v3.7h5.1v1.9h-5.1v10.1
	c0,2,1,3.1,2.9,3.1c0.9,0,1.8-0.3,2.5-0.9L346.9,574.5z"/>
<path d="M363.8,565.1v10.4h-2.2v-2.6c-1,1.7-3,2.8-5.8,2.8c-3.8,0-6.1-2-6.1-4.9c0-2.6,1.7-4.8,6.5-4.8h5.4v-1
	c0-2.9-1.6-4.4-4.8-4.4c-2,0-4,0.7-5.6,2l-1-1.7c1.9-1.5,4.4-2.3,6.8-2.3C361.3,558.6,363.8,560.8,363.8,565.1z M361.5,570.5v-2.8
	h-5.3c-3.3,0-4.3,1.3-4.3,3c0,2,1.6,3.2,4.2,3.2C358.5,574,360.6,572.6,361.5,570.5z M357.2,556.1h-2.2l4.4-4h3L357.2,556.1z"/>
<path d="M385.4,565.8v9.8h-2.3V566c0-3.5-1.9-5.4-5.1-5.4c-3.6,0-5.9,2.2-5.9,6.1v8.8h-2.3v-16.8h2.2v3.1c1.4-2.2,3.8-3.4,6.4-3.2
	C382.6,558.6,385.4,560.9,385.4,565.8z"/>
<path d="M427.8,565.8v9.8h-2.3V566c0-3.5-1.8-5.4-4.8-5.4c-3.5,0-5.6,2.2-5.6,6.1v8.8h-2.3V566c0-3.5-1.8-5.4-4.9-5.4
	c-3.4,0-5.6,2.2-5.6,6.1v8.8H400v-16.8h2.2v3.1c1.3-2.1,3.7-3.3,6.2-3.2c2.8,0,5,1.2,6,3.5c1.4-2.3,3.9-3.7,6.6-3.5
	C425.1,558.6,427.8,560.9,427.8,565.8z"/>
<path d="M446.6,565.1v10.4h-2.2v-2.6c-1,1.7-3,2.8-5.8,2.8c-3.8,0-6.1-2-6.1-4.9c0-2.6,1.7-4.8,6.5-4.8h5.4v-1
	c0-2.9-1.6-4.4-4.8-4.4c-2,0-4,0.7-5.6,2l-1-1.7c2-1.5,4.4-2.3,6.9-2.3C444.2,558.6,446.6,560.8,446.6,565.1z M439.7,556.1l-5.2-4h3
	l4.4,4H439.7z M444.4,570.5v-2.8h-5.3c-3.3,0-4.3,1.3-4.3,3c0,2,1.6,3.2,4.2,3.2C441.3,574,443.5,572.6,444.4,570.5L444.4,570.5z"/>
<path d="M466.6,558.7l-8.4,18.9c-1.4,3.3-3.2,4.3-5.6,4.3c-1.5,0-3-0.5-4.1-1.5l1-1.7c0.8,0.8,1.9,1.3,3.1,1.3
	c1.5,0,2.5-0.7,3.5-2.8l0.7-1.6l-7.5-16.8h2.4L458,573l6.3-14.3H466.6z"/>
<path d="M475.9,573.6l1-1.8c1.8,1.2,3.9,1.9,6,1.9c3.2,0,4.5-1.1,4.5-2.8c0-4.4-10.9-0.9-10.9-7.6c0-2.8,2.4-4.8,6.7-4.8
	c2.1,0,4.1,0.5,6,1.6l-1,1.8c-1.5-1-3.2-1.5-5-1.4c-3,0-4.4,1.2-4.4,2.8c0,4.5,10.9,1.1,10.9,7.6c0,2.9-2.6,4.8-7,4.8
	C480.2,575.7,477.9,575,475.9,573.6z"/>
<path d="M493.4,553.4c0-0.9,0.7-1.7,1.6-1.7c0.9,0,1.7,0.7,1.7,1.6s-0.7,1.7-1.6,1.7c0,0-0.1,0-0.1,0
	C494.1,555,493.4,554.3,493.4,553.4C493.4,553.4,493.4,553.4,493.4,553.4z M493.9,558.7h2.3v16.8h-2.3V558.7z"/>
<path d="M517.1,567.8H503c0.3,3.5,3,5.9,6.6,5.9c2,0.1,3.8-0.7,5.2-2.2l1.3,1.5c-1.6,1.8-4,2.8-6.5,2.8c-5.2,0-8.8-3.6-8.8-8.6
	s3.5-8.5,8.2-8.5c4.7,0,8.2,3.5,8.2,8.5C517.2,567.3,517.1,567.6,517.1,567.8z M503,566.1h12c-0.3-3.3-3.3-5.7-6.6-5.4
	C505.6,561,503.3,563.3,503,566.1L503,566.1z M505.8,556.1h-2.1l4.1-4h2.3l4.1,4h-2.1l-3.1-2.7L505.8,556.1z"/>
<path d="M537,558.7v16.8h-2.2v-3.1c-1.3,2.1-3.6,3.3-6,3.2c-4.3,0-7.1-2.4-7.1-7.2v-9.8h2.3v9.5c0,3.6,1.8,5.4,5,5.4
	c3.5,0,5.7-2.3,5.7-6.1v-8.8H537z"/>
<path d="M560.6,574.5c-1,0.8-2.3,1.2-3.5,1.2c-3.2,0-4.9-1.8-4.9-4.9v-10.2h-3v-1.9h3V555h2.3v3.7h5.1v1.9h-5.1v10.1
	c0,2,1,3.1,2.9,3.1c0.9,0,1.8-0.3,2.5-0.9L560.6,574.5z"/>
<path d="M564.2,553.4c0-0.9,0.8-1.6,1.7-1.6c0.9,0,1.6,0.7,1.7,1.6c0,0,0,0,0,0c0,0.9-0.7,1.6-1.6,1.7c0,0,0,0-0.1,0
	C564.9,555,564.2,554.3,564.2,553.4C564.2,553.4,564.2,553.4,564.2,553.4z M564.7,558.7h2.3v16.8h-2.3L564.7,558.7z"/>
<path d="M588,567.8h-14.1c0.3,3.5,2.9,5.9,6.6,5.9c2,0.1,3.8-0.7,5.2-2.2l1.3,1.5c-1.6,1.8-4,2.8-6.5,2.8c-5.2,0-8.8-3.6-8.8-8.6
	s3.5-8.5,8.2-8.5s8.2,3.5,8.2,8.5C588,567.3,588,567.6,588,567.8z M573.9,566.1h11.9c-0.3-3.3-3.3-5.7-6.6-5.4
	C576.5,561,574.2,563.3,573.9,566.1z M576.7,556.1h-2.1l4.1-4h2.3l4.1,4H583l-3.2-2.7L576.7,556.1z M581.2,580.2
	c0.1,0.8-0.5,1.4-1.3,1.5s-1.4-0.5-1.5-1.3c0-0.1,0-0.2,0-0.2c0.1-0.8,0.7-1.3,1.5-1.3C580.7,579,581.2,579.6,581.2,580.2z"/>
<path d="M608.1,565.8v9.8h-2.3V566c0-3.5-1.9-5.4-5.1-5.4c-3.6,0-5.9,2.2-5.9,6.1v8.8h-2.3v-16.8h2.2v3.1c1.4-2.2,3.8-3.4,6.4-3.2
	C605.3,558.6,608.1,560.9,608.1,565.8z"/>
<path d="M622.7,551.8h2.3v23.7h-2.3L622.7,551.8z"/>
<path d="M646.7,567.1c0,4.7-3.8,8.6-8.5,8.6c-4.7,0-8.6-3.8-8.6-8.5c0-4.7,3.8-8.6,8.5-8.6c0,0,0,0,0,0c1.7,0,2.4,0.2,4,0.2
	c1.8,0,2.6-1,2.6-2.2c0-0.7-0.2-1.4-0.6-2l1.5-0.6c0.5,0.8,0.8,1.7,0.9,2.7c0,1.8-1.3,3.4-3.1,3.6
	C645.6,561.9,646.8,564.4,646.7,567.1z M644.4,567.1c0-3.9-2.7-6.6-6.2-6.6s-6.3,2.6-6.3,6.6s2.7,6.5,6.3,6.5S644.4,571,644.4,567.1
	z M639.5,580.2c0,0.8-0.6,1.4-1.4,1.4c-0.8,0-1.4-0.6-1.4-1.4c0-0.8,0.6-1.4,1.4-1.4c0,0,0,0,0,0
	C638.9,578.8,639.5,579.4,639.5,580.2C639.6,580.2,639.6,580.2,639.5,580.2L639.5,580.2z"/>
<path d="M650.8,553.4c0-0.9,0.8-1.6,1.7-1.6c0.9,0,1.6,0.7,1.7,1.6c0,0,0,0,0,0c-0.1,0.9-0.9,1.6-1.8,1.5
	C651.6,554.8,650.9,554.2,650.8,553.4L650.8,553.4z M651.4,558.7h2.3v16.8h-2.3V558.7z"/>
<g id="XMLID_26_">
	<rect x="54.1" y="36.2" class="st0" width="518.5" height="153.1"/>
</g>
<g>
	<path class="st1" d="M130.2,139.6V95.4L119,104l-7.4-10.1l19.8-14.5h13v60.2H130.2z"/>
	<path class="st1" d="M212,119.3c0,3.4-0.6,6.5-1.9,9.2c-1.2,2.7-2.9,5-5.1,6.9c-2.1,1.9-4.7,3.3-7.5,4.3c-2.9,1-5.9,1.5-9.2,1.5
		c-3.3,0-6.3-0.5-9.2-1.5c-2.9-1-5.4-2.4-7.5-4.3c-2.1-1.9-3.8-4.1-5.1-6.8c-1.2-2.7-1.9-5.6-1.9-8.9c0-3.6,0.6-6.8,1.9-9.7
		c1.2-2.9,2.9-5.9,4.8-8.9l14.5-21.7h17.2L188.4,100l-0.3,0.4c0.6-0.2,1.2-0.4,2-0.5c0.8-0.1,1.5-0.2,2.2-0.2c2.6,0,5.1,0.5,7.5,1.4
		c2.4,0.9,4.5,2.3,6.3,4c1.8,1.7,3.2,3.8,4.3,6.2C211.5,113.7,212,116.4,212,119.3z M197.8,119.7c0-2.7-0.9-5-2.6-6.8
		c-1.7-1.8-4-2.7-6.8-2.7s-5.1,0.9-6.9,2.6c-1.8,1.8-2.6,4.1-2.6,6.9c0,2.6,0.9,4.8,2.6,6.7c1.7,1.9,4,2.8,6.9,2.8
		c2.8,0,5.1-0.9,6.9-2.6C197,124.9,197.8,122.6,197.8,119.7z"/>
	<path class="st1" d="M267,99.3c0,3.6-0.6,6.8-1.9,9.7c-1.2,2.9-2.9,5.9-4.8,8.9l-14.5,21.7h-17.2l15-20.7l0.2-0.3
		c-0.6,0.2-1.3,0.4-2.1,0.5c-0.8,0.1-1.5,0.2-2.2,0.2c-2.7,0-5.2-0.5-7.6-1.4c-2.4-0.9-4.5-2.3-6.3-4c-1.8-1.7-3.3-3.8-4.3-6.2
		c-1.1-2.4-1.6-5.1-1.6-8c0-3.4,0.6-6.5,1.9-9.2c1.2-2.7,2.9-5,5.1-6.9c2.1-1.9,4.7-3.3,7.5-4.3c2.9-1,5.9-1.5,9.2-1.5
		c3.3,0,6.4,0.5,9.2,1.5c2.9,1,5.4,2.4,7.5,4.3c2.1,1.9,3.8,4.1,5,6.8C266.4,93,267,96,267,99.3z M252.8,99.1c0-2.6-0.8-4.9-2.5-6.8
		c-1.7-1.9-4-2.8-6.9-2.8s-5.2,0.9-7,2.7c-1.7,1.8-2.6,4.1-2.6,7c0,2.7,0.9,5,2.6,6.8c1.7,1.8,4,2.7,6.8,2.7c2.8,0,5.1-0.9,6.9-2.6
		C251.9,104.2,252.8,102,252.8,99.1z"/>
	<path class="st1" d="M284,150.1h-11.5l6.4-24.1h13.3L284,150.1z"/>
	<path class="st1" d="M347.3,109.3c0,4.2-0.4,8.3-1.3,12.1c-0.8,3.9-2.2,7.2-4.1,10.2c-1.9,2.9-4.3,5.2-7.3,7
		c-3,1.7-6.6,2.6-10.8,2.6c-4.2,0-7.9-0.9-10.9-2.6c-3-1.7-5.5-4-7.3-7c-1.9-2.9-3.3-6.3-4.1-10.2c-0.8-3.9-1.3-7.9-1.3-12.1
		c0-4.2,0.4-8.3,1.3-12.1c0.8-3.8,2.2-7.2,4.1-10c1.9-2.9,4.3-5.1,7.3-6.8c3-1.7,6.6-2.5,10.9-2.5c4.2,0,7.9,0.8,10.8,2.5
		c3,1.7,5.4,4,7.3,6.8c1.9,2.9,3.2,6.2,4.1,10C346.8,101,347.3,105.1,347.3,109.3z M332.7,109.3c0-1.9-0.1-3.9-0.3-6.2
		c-0.2-2.3-0.7-4.4-1.3-6.3c-0.6-2-1.5-3.6-2.7-4.9c-1.2-1.3-2.7-2-4.5-2c-1.9,0-3.4,0.7-4.6,2c-1.2,1.3-2.1,3-2.8,4.9
		c-0.7,2-1.1,4.1-1.3,6.3c-0.2,2.3-0.3,4.3-0.3,6.2c0,1.9,0.1,4,0.3,6.3c0.2,2.3,0.7,4.4,1.3,6.4c0.7,2,1.6,3.6,2.8,4.9
		c1.2,1.3,2.7,2,4.6,2c1.9,0,3.4-0.7,4.5-2c1.2-1.3,2.1-3,2.7-4.9c0.6-2,1-4.1,1.3-6.4C332.5,113.4,332.7,111.2,332.7,109.3z"/>
	<path class="st1" d="M402.2,109.3c0,4.2-0.4,8.3-1.3,12.1c-0.8,3.9-2.2,7.2-4.1,10.2c-1.9,2.9-4.3,5.2-7.3,7
		c-3,1.7-6.6,2.6-10.8,2.6c-4.2,0-7.9-0.9-10.9-2.6c-3-1.7-5.5-4-7.3-7c-1.9-2.9-3.3-6.3-4.1-10.2c-0.8-3.9-1.3-7.9-1.3-12.1
		c0-4.2,0.4-8.3,1.3-12.1c0.8-3.8,2.2-7.2,4.1-10c1.9-2.9,4.3-5.1,7.3-6.8c3-1.7,6.6-2.5,10.9-2.5c4.2,0,7.9,0.8,10.8,2.5
		c3,1.7,5.4,4,7.3,6.8c1.9,2.9,3.2,6.2,4.1,10C401.7,101,402.2,105.1,402.2,109.3z M387.5,109.3c0-1.9-0.1-3.9-0.3-6.2
		c-0.2-2.3-0.7-4.4-1.3-6.3c-0.6-2-1.5-3.6-2.7-4.9c-1.2-1.3-2.7-2-4.5-2c-1.9,0-3.4,0.7-4.6,2c-1.2,1.3-2.1,3-2.8,4.9
		c-0.7,2-1.1,4.1-1.3,6.3c-0.2,2.3-0.3,4.3-0.3,6.2c0,1.9,0.1,4,0.3,6.3c0.2,2.3,0.7,4.4,1.3,6.4c0.7,2,1.6,3.6,2.8,4.9
		c1.2,1.3,2.7,2,4.6,2c1.9,0,3.4-0.7,4.5-2c1.2-1.3,2.1-3,2.7-4.9c0.6-2,1-4.1,1.3-6.4C387.4,113.4,387.5,111.2,387.5,109.3z"/>
	<path class="st1" d="M457,109.3c0,4.2-0.4,8.3-1.3,12.1c-0.8,3.9-2.2,7.2-4.1,10.2c-1.9,2.9-4.3,5.2-7.3,7c-3,1.7-6.6,2.6-10.8,2.6
		c-4.2,0-7.9-0.9-10.9-2.6c-3-1.7-5.5-4-7.3-7c-1.9-2.9-3.3-6.3-4.1-10.2c-0.8-3.9-1.3-7.9-1.3-12.1c0-4.2,0.4-8.3,1.3-12.1
		c0.8-3.8,2.2-7.2,4.1-10c1.9-2.9,4.3-5.1,7.3-6.8c3-1.7,6.6-2.5,10.9-2.5c4.2,0,7.9,0.8,10.8,2.5c3,1.7,5.4,4,7.3,6.8
		c1.9,2.9,3.2,6.2,4.1,10C456.6,101,457,105.1,457,109.3z M442.4,109.3c0-1.9-0.1-3.9-0.3-6.2c-0.2-2.3-0.7-4.4-1.3-6.3
		c-0.6-2-1.5-3.6-2.7-4.9c-1.2-1.3-2.7-2-4.5-2s-3.4,0.7-4.6,2c-1.2,1.3-2.1,3-2.8,4.9c-0.7,2-1.1,4.1-1.3,6.3
		c-0.2,2.3-0.3,4.3-0.3,6.2c0,1.9,0.1,4,0.3,6.3c0.2,2.3,0.7,4.4,1.3,6.4c0.7,2,1.6,3.6,2.8,4.9c1.2,1.3,2.7,2,4.6,2s3.4-0.7,4.5-2
		c1.2-1.3,2.1-3,2.7-4.9c0.6-2,1-4.1,1.3-6.4C442.3,113.4,442.4,111.2,442.4,109.3z"/>
	<path class="st1" d="M498.4,139.6V134h-0.2c-1.4,2.2-3.3,3.8-5.8,5c-2.5,1.2-5.2,1.7-8,1.7c-3.2,0-6-0.6-8.5-1.9
		c-2.5-1.2-4.6-2.9-6.3-5c-1.7-2.1-3-4.5-4-7.2c-0.9-2.7-1.4-5.6-1.4-8.5c0-2.9,0.5-5.8,1.4-8.5c0.9-2.7,2.3-5.1,4-7.1
		c1.7-2,3.8-3.7,6.3-4.8c2.5-1.2,5.2-1.8,8.3-1.8c3.1,0,5.7,0.6,7.9,1.8c2.2,1.2,3.8,2.5,5,3.9h0.2V91.1h-12.7v-7.6h12.7v-8.2h13.9
		v8.2h3.9v7.6h-3.9v48.4H498.4z M497.9,118.3c0-1.4-0.2-2.7-0.7-4c-0.5-1.3-1.2-2.5-2-3.5c-0.9-1-1.9-1.8-3.2-2.5
		c-1.2-0.6-2.7-0.9-4.2-0.9c-1.6,0-3.1,0.3-4.3,0.9c-1.2,0.6-2.3,1.4-3.1,2.4c-0.8,1-1.5,2.1-1.9,3.4c-0.4,1.3-0.6,2.6-0.6,4
		c0,1.4,0.2,2.7,0.6,4c0.4,1.3,1.1,2.5,1.9,3.5c0.8,1,1.9,1.8,3.1,2.5c1.2,0.6,2.7,0.9,4.3,0.9c1.6,0,3-0.3,4.2-0.9
		c1.2-0.6,2.3-1.4,3.2-2.5c0.9-1,1.6-2.2,2-3.5C497.7,121,497.9,119.7,497.9,118.3z"/>
</g>
</svg>
