<svg id="Layer_1" data-name="Layer 1" xmlns="http://www.w3.org/2000/svg" viewBox="0 0 2006 912.99"><defs><style>.cls-1{fill:#c90202;}.cls-2{fill:#fff;}</style></defs><title>Image convert 1 body care fix text</title><path d="M118.82,448.16l-11.75,12.25v22.13H86.94V395h20.13v40.87L145.82,395h22.5l-36.25,39,38.37,48.5H146.82Z"/><path d="M247.19,466.29v16.25H179.44V395h66.13v16.25h-46v19h40.62V446H199.57v20.25Z"/><path d="M342.94,482.54l-.13-52.5-25.75,43.25h-9.12l-25.63-42.13v51.38h-19V395h16.75l32.75,54.37L345.06,395h16.63l.25,87.5Z"/><path d="M436.19,411.54h-28V395h76.25v16.5h-28v71H436.19Z"/><path d="M548.56,463.79H507.94l-7.75,18.75H479.44l39-87.5h20l39.12,87.5H556.31Zm-43.12-90.13h11.75c.5,3.5,5,5.88,11.25,5.88s10.75-2.38,11.25-5.88h11.75c-.88,9.38-10.13,15.25-23,15.25S506.31,383,505.44,373.66Zm36.75,74.75-13.88-33.5-13.87,33.5Zm-10.38-78.5H517.69l13.87-15.12h19.88Z"/><path d="M666.31,482.54l-.12-52.5-25.75,43.25h-9.13l-25.62-42.13v51.38h-19V395h16.75l32.75,54.37L668.44,395h16.62l.25,87.5Z"/><path d="M735.93,438.79c0-26.38,20.25-45.25,47.5-45.25,15.13,0,27.75,5.5,36,15.5l-13,12c-5.87-6.75-13.25-10.25-22-10.25-16.37,0-28,11.5-28,28s11.63,28,28,28c8.75,0,16.13-3.5,22-10.38l13,12C811.18,478.54,798.56,484,783.31,484,756.18,484,735.93,465.16,735.93,438.79Z"/><path d="M888.93,463.79H848.31l-7.75,18.75H819.81l39-87.5h20l39.12,87.5H896.68Zm-6.37-15.38-13.88-33.5-13.87,33.5Z"/><path d="M940.81,411.54h-28V395h76.25v16.5h-28v71H940.81Z"/><path d="M1080.18,395v87.5h-20.25V446.66h-39.75v35.88H999.93V395h20.25v34.5h39.75V395Z"/><path d="M1142.93,451.54v31h-20.25V451.29L1088.81,395h21.5l23.37,38.87L1157.06,395h19.87Z"/><path d="M1220.81,395h39.75c28.62,0,48.25,17.25,48.25,43.75s-19.63,43.75-48.25,43.75h-39.75Zm38.75,70.87c17.37,0,28.75-10.37,28.75-27.12s-11.38-27.13-28.75-27.13h-18.5v54.25Z"/><path d="M1318.55,438.79c0-26,20.25-45.25,47.88-45.25s47.87,19.12,47.87,45.25S1393.93,484,1366.43,484,1318.55,464.79,1318.55,438.79Zm75.25,0c0-16.63-11.75-28-27.37-28s-27.38,11.37-27.38,28,11.75,28,27.38,28S1393.8,455.41,1393.8,438.79Z"/><path d="M1429.55,395h20.25v71h43.88v16.5h-64.13Z"/><path d="M1505.05,395h20.25v71h43.88v16.5h-64.13Z"/><path d="M150.74,514.86l-14.89,45.5H124.54l-10-30.81-10.34,30.81H93l-15-45.5H88.92l10.27,32,10.72-32h9.75l10.4,32.24,10.6-32.24Z"/><path d="M198.31,514.86v45.5H187.78V541.7H167.11v18.66H156.58v-45.5h10.53V532.8h20.67V514.86Z"/><path d="M209.1,514.86h10.53v45.5H209.1Z"/><path d="M239.85,523.44H225.29v-8.58h39.65v8.58H250.38v36.92H239.85Z"/><path d="M305.82,551.91v8.45H270.59v-45.5H305v8.45H281.06v9.88h21.12v8.19H281.06v10.53Z"/><path d="M374,560.36l-.07-27.3-13.39,22.49h-4.74l-13.33-21.91v26.72H332.6v-45.5h8.71l17,28.27,16.77-28.27h8.65l.13,45.5Z"/><path d="M394.67,514.86H405.2v45.5H394.67Z"/><path d="M416,514.86h10.53v36.92h22.82v8.58H416Z"/><path d="M471.83,542.48l-6.11,6.37v11.51H455.25v-45.5h10.47v21.25l20.15-21.25h11.7l-18.85,20.28,19.95,25.22H486.39Z"/><path d="M518.17,555.87l3.58-7.93a26.7,26.7,0,0,0,15,4.75c6.24,0,8.78-2.08,8.78-4.88,0-8.51-26.46-2.66-26.46-19.56,0-7.74,6.24-14.17,19.18-14.17,5.72,0,11.57,1.36,15.79,4l-3.25,8a25.73,25.73,0,0,0-12.61-3.57c-6.24,0-8.64,2.34-8.64,5.2,0,8.38,26.45,2.6,26.45,19.3,0,7.61-6.3,14.11-19.3,14.11C529.48,561.14,522.2,559,518.17,555.87Z"/><path d="M605,514.86v45.5H594.42V541.7H573.75v18.66H563.21v-45.5h10.54V532.8h20.67V514.86Z"/><path d="M615.73,514.86h10.54v45.5H615.73Z"/><path d="M678.79,514.86v45.5h-8.65l-22.69-27.63v27.63h-10.4v-45.5h8.71l22.63,27.62V514.86Z"/><path d="M724.81,551.91v8.45H689.57v-45.5H724v8.45H700v9.88h21.13v8.19H700v10.53Z"/><path d="M793.31,547.94c0,7.87-6.24,12.42-18.2,12.42H751.58v-45.5h22.23c11.38,0,17.23,4.74,17.23,11.83a10.93,10.93,0,0,1-6,10C790.06,538.32,793.31,542.22,793.31,547.94Zm-31.26-25.15v10.72h10.46c5.14,0,7.93-1.82,7.93-5.39s-2.79-5.33-7.93-5.33Zm20.67,24.05c0-3.84-2.93-5.66-8.39-5.66H762.05v11.25h12.28C779.79,552.43,782.72,550.74,782.72,546.84Z"/><path d="M798.45,537.61c0-13.52,10.53-23.53,24.89-23.53s24.9,9.94,24.9,23.53-10.6,23.53-24.9,23.53S798.45,551.13,798.45,537.61Zm39.13,0c0-8.65-6.11-14.56-14.24-14.56s-14.23,5.91-14.23,14.56,6.11,14.56,14.23,14.56S837.58,546.25,837.58,537.61Z"/><path d="M856.17,514.86h20.67c14.88,0,25.09,9,25.09,22.75s-10.21,22.75-25.09,22.75H856.17Zm20.15,36.85c9,0,14.95-5.39,14.95-14.1s-5.92-14.11-14.95-14.11H866.7v28.21Z"/><path d="M929.75,544.24v16.12H919.22V544.11L901.6,514.86h11.18l12.16,20.21,12.15-20.21h10.34Z"/><path d="M1012,547.94c0,7.87-6.24,12.42-18.2,12.42H970.24v-45.5h22.23c11.38,0,17.23,4.74,17.23,11.83a10.93,10.93,0,0,1-6.05,10C1008.72,538.32,1012,542.22,1012,547.94Zm-31.26-25.15v10.72h10.46c5.14,0,7.93-1.82,7.93-5.39s-2.79-5.33-7.93-5.33Zm20.67,24.05c0-3.84-2.93-5.66-8.39-5.66H980.71v11.25H993C998.45,552.43,1001.38,550.74,1001.38,546.84Z"/><path d="M1049.93,550.61h-21.12l-4,9.75H1014l20.28-45.5h10.4l20.34,45.5h-11Zm-3.31-8-7.22-17.42-7.21,17.42Z"/><path d="M1076.91,523.44h-14.56v-8.58H1102v8.58h-14.56v36.92h-10.53Z"/><path d="M1149.38,514.86v45.5h-10.53V541.7h-20.67v18.66h-10.53v-45.5h10.53V532.8h20.67V514.86Z"/><path d="M1175.7,537.61c0-13.72,10.53-23.53,24.71-23.53,7.86,0,14.43,2.86,18.72,8.06l-6.76,6.24a14.65,14.65,0,0,0-11.44-5.33c-8.52,0-14.57,6-14.57,14.56s6.05,14.56,14.57,14.56a14.5,14.5,0,0,0,11.44-5.4l6.76,6.24c-4.29,5.27-10.86,8.13-18.79,8.13C1186.23,561.14,1175.7,551.32,1175.7,537.61Z"/><path d="M1255.2,560.36l-8.78-12.68h-9.68v12.68h-10.53v-45.5h19.69c12.16,0,19.77,6.3,19.77,16.51,0,6.82-3.45,11.83-9.37,14.36l10.21,14.63Zm-9.88-36.92h-8.58V539.3h8.58c6.43,0,9.68-3,9.68-7.93S1251.75,523.44,1245.32,523.44Z"/><path d="M1309.21,551.91v8.45H1274v-45.5h34.39v8.45h-23.92v9.88h21.12v8.19h-21.12v10.53Z"/><path d="M1347.56,550.61h-21.12l-4,9.75h-10.79l20.28-45.5h10.4l20.34,45.5h-11.05Zm-3.31-8L1337,525.19l-7.21,17.42Z"/><path d="M1408.79,560.36l-.06-27.3-13.39,22.49h-4.75l-13.32-21.91v26.72h-9.88v-45.5h8.71l17,28.27,16.77-28.27h8.64l.13,45.5Z"/><path d="M115.68,707.55h-6.55V716H100v-8.46H78.35v-6.27l19-25.54h9.78L89.51,700h10.82v-7.54h8.8V700h6.55Z"/><path d="M148.76,703.35c0,7.14-5.24,13.35-16.74,13.35-5.58,0-11.45-1.56-15.36-4.32l3.68-7.13a19.4,19.4,0,0,0,11.45,3.63c4.66,0,7.54-2,7.54-5.24s-2.08-5.23-9.38-5.23h-10.3l2.07-22.67h24.57v7.48h-16.8l-.63,7.65h3.27C144,690.87,148.76,696.22,148.76,703.35Z"/><path d="M152.55,695.87c0-13.28,7.37-20.82,17.26-20.82s17.26,7.54,17.26,20.82-7.31,20.83-17.26,20.83S152.55,709.16,152.55,695.87Zm25.14,0c0-9.14-3.22-12.94-7.88-12.94s-7.82,3.8-7.82,12.94,3.22,13,7.82,13S177.69,705,177.69,695.87Z"/><path d="M230.79,716l-.06-24.16-11.85,19.9h-4.2l-11.79-19.38V716h-8.75V675.74h7.71l15.07,25,14.84-25h7.65l.12,40.27Z"/><path d="M249.07,675.74h9.32v32.67h20.19V716H249.07Z"/><g id="_Rectangle_" data-name="&lt;Rectangle&gt;"><rect class="cls-1" x="77" y="60.49" width="921" height="272"/></g><path class="cls-2" d="M222.16,133.57V242.06H197.05V153.72h-21.7V133.57Z"/><path class="cls-2" d="M340.42,219.28H322.75v22.78H298.26V219.28H239.83V202.39L291,133.57h26.35l-47.43,65.25H299v-20.3h23.72v20.3h17.67Z"/><path class="cls-2" d="M433.88,185.49c0,37.51-22.47,58.43-55.33,58.43-11.47,0-22.48-2.63-30.07-7.44l9.3-18.44c5.89,4,12.86,5.43,20.3,5.43,18,0,29.76-10.7,30.54-31.62-6.36,6.35-15.66,9.76-27,9.76-20.93,0-37.35-13.33-37.35-33.79,0-22.16,18.13-36.11,41.07-36.11C415.44,131.71,433.88,150.46,433.88,185.49Zm-28.05-18.91c0-9.3-7-16.12-18.91-16.12-10.7,0-18.14,6.2-18.14,16.12s7.29,16.28,18.45,16.28C398.23,182.86,405.83,176,405.83,166.58Z"/><path class="cls-2" d="M473.26,228.12c0,4-.62,7-4.19,15.49l-8.83,22.32H444.89l6.82-24.64c-5.11-2-8.37-6.82-8.37-13.17,0-9,6.51-14.88,15-14.88C467.06,213.24,473.26,219.28,473.26,228.12Z"/><path class="cls-2" d="M482.56,187.82c0-35.81,19.84-56.11,46.5-56.11,26.81,0,46.5,20.3,46.5,56.11s-19.69,56.1-46.5,56.1C502.4,243.92,482.56,223.62,482.56,187.82Zm67.73,0c0-24.65-8.68-34.88-21.23-34.88-12.4,0-21.08,10.23-21.08,34.88s8.68,34.87,21.08,34.87C541.61,222.69,550.29,212.46,550.29,187.82Z"/><path class="cls-2" d="M587.8,187.82c0-35.81,19.84-56.11,46.5-56.11,26.81,0,46.5,20.3,46.5,56.11s-19.69,56.1-46.5,56.1C607.64,243.92,587.8,223.62,587.8,187.82Zm67.73,0c0-24.65-8.68-34.88-21.23-34.88-12.4,0-21.08,10.23-21.08,34.88s8.68,34.87,21.08,34.87C646.85,222.69,655.53,212.46,655.53,187.82Z"/><path class="cls-2" d="M693,187.82c0-35.81,19.84-56.11,46.5-56.11,26.82,0,46.5,20.3,46.5,56.11s-19.68,56.1-46.5,56.1C712.88,243.92,693,223.62,693,187.82Zm67.74,0c0-24.65-8.68-34.88-21.24-34.88-12.4,0-21.08,10.23-21.08,34.88s8.68,34.87,21.08,34.87C752.1,222.69,760.78,212.46,760.78,187.82Z"/><path class="cls-2" d="M899.65,150.15H888.34v91.91h-23.1v-9.61c-6,7.29-14.88,10.86-26,10.86-23.56,0-41.7-16.75-41.7-42.94s18.14-42.93,41.7-42.93c10.22,0,18.9,3.25,24.95,10.07V150.15H835.8v-14h28.36v-9.14h24.18v9.14h11.31Zm-35,50.22c0-14.41-9.3-23.09-21.23-23.09C831.3,177.28,822,186,822,200.37s9.3,23.1,21.39,23.1C855.32,223.47,864.62,214.79,864.62,200.37Z"/></svg>