<?xml version="1.0" encoding="utf-8"?>
<!-- Generator: Adobe Illustrator 22.1.0, SVG Export Plug-In . SVG Version: 6.00 Build 0)  -->
<svg version="1.1" id="Layer_1" xmlns="http://www.w3.org/2000/svg" xmlns:xlink="http://www.w3.org/1999/xlink" x="0px" y="0px"
	 viewBox="0 0 2006 888" style="enable-background:new 0 0 2006 888;" xml:space="preserve">
<style type="text/css">
	.st0{fill:#C90202;}
	.st1{fill:#FFFFFF;}
	.st2{fill:none;}
	.st3{enable-background:new    ;}
</style>
<title>Image convert 1 fix text</title>
<g id="_Rectangle_">
	<rect x="74" y="60.5" class="st0" width="921" height="272"/>
</g>
<path class="st1" d="M256.8,213.1c0.1,5.3-1.1,10.5-3.6,15.1c-2.3,4.2-5.4,7.8-9.2,10.6c-3.9,2.8-8.3,4.9-12.9,6.2
	c-4.7,1.3-9.6,2-14.6,2c-4.8,0-9.5-0.6-14.1-1.7c-4.4-1-8.6-2.7-12.5-5.1c-8.1-4.8-13.9-12.6-16.2-21.7l23.6-6.2
	c1.1,3.6,3.2,6.9,6.2,9.3c3.4,2.7,7.6,4.2,11.9,4c1.9,0,3.7-0.3,5.5-0.8s3.5-1.3,5-2.3c3.3-2.4,5.2-6.4,5.1-10.5
	c0.1-2.4-0.6-4.7-1.9-6.7c-1.3-1.8-3-3.3-5-4.3c-2.2-1.1-4.6-1.9-7-2.3c-2.6-0.4-5.2-0.7-7.9-0.7h-6.8v-18.4h7.4
	c2.3,0,4.6-0.2,6.9-0.5c2.1-0.3,4.1-1,6-2c3.8-2,6-6,5.7-10.2c0-3.9-1.4-6.8-4.1-8.8c-2.7-2-6-3.1-9.4-3c-3.4-0.1-6.8,1.1-9.4,3.2
	c-2.7,2.2-4.5,5.3-5.2,8.7l-23.6-5.4c1.2-4.3,3.2-8.3,5.9-11.9c2.6-3.3,5.7-6.2,9.3-8.4c3.6-2.3,7.6-4,11.7-5.1
	c4.2-1.2,8.6-1.7,13-1.7c4.7,0,9.3,0.6,13.8,1.8c4.3,1.1,8.4,3,12,5.6c3.5,2.5,6.4,5.7,8.5,9.4c2.2,4.1,3.4,8.7,3.2,13.4
	c0.2,5.5-1.6,10.8-5.1,15.1c-3.3,4-7.8,6.9-12.9,8.2v0.5c2.9,0.7,5.7,1.8,8.3,3.4c2.4,1.5,4.6,3.4,6.5,5.6c1.8,2.2,3.2,4.6,4.2,7.2
	C256.3,207.4,256.8,210.3,256.8,213.1z"/>
<path class="st1" d="M312.5,244.2h-29.4l43.3-85.1h-50.6v-21.7h77.6v20.2L312.5,244.2z"/>
<path class="st1" d="M454.5,172.7c0.1,5.9-1.1,11.8-3.3,17.3c-2.4,5.5-5.3,10.8-8.6,15.8l-25.8,38.5h-30.6l26.6-36.8l0.3-0.4
	c-1.2,0.4-2.4,0.7-3.7,0.9c-1.3,0.2-2.6,0.3-3.8,0.3c-4.6,0-9.1-0.8-13.4-2.5c-8.4-3.3-15.2-9.8-18.8-18.1c-2-4.5-2.9-9.4-2.9-14.3
	c-0.1-5.6,1-11.2,3.3-16.3c2.1-4.7,5.2-8.8,9-12.2c3.9-3.4,8.5-6,13.4-7.6c10.6-3.5,22.1-3.5,32.7,0c4.9,1.6,9.4,4.2,13.3,7.6
	c3.8,3.4,6.9,7.5,9,12.1C453.5,161.8,454.6,167.2,454.5,172.7z M429.3,172.4c0.1-4.4-1.5-8.7-4.5-12c-3-3.4-7-5.1-12.2-5.1
	s-9.3,1.6-12.4,4.8s-4.6,7.3-4.6,12.4c-0.1,4.4,1.5,8.8,4.5,12s7.1,4.8,12.1,4.8s9.1-1.6,12.3-4.7
	C427.7,181.5,429.3,177.4,429.3,172.4L429.3,172.4z"/>
<path class="st1" d="M484.7,262.9h-20.4l11.3-42.9h23.7L484.7,262.9z"/>
<path class="st1" d="M597.1,190.5c0,7.2-0.7,14.5-2.3,21.5c-1.3,6.4-3.8,12.5-7.2,18c-3.2,5.1-7.7,9.3-12.9,12.4
	c-5.3,3.1-11.7,4.6-19.2,4.6s-14-1.5-19.3-4.6c-5.3-3-9.8-7.3-13.1-12.4c-3.5-5.5-6-11.6-7.3-18c-1.5-7.1-2.3-14.3-2.3-21.6
	c0-7.2,0.7-14.4,2.3-21.4c1.3-6.3,3.8-12.4,7.3-17.8c3.3-5,7.8-9.2,13.1-12.2s11.8-4.5,19.3-4.5s14,1.5,19.2,4.5s9.6,7.1,12.9,12.1
	c3.5,5.5,5.9,11.5,7.2,17.9C596.4,176,597.2,183.2,597.1,190.5z M571.1,190.5c0-3.3-0.2-7-0.6-11c-0.4-3.8-1.1-7.6-2.3-11.2
	c-1-3.2-2.6-6.2-4.8-8.8c-2-2.3-5-3.6-8.1-3.5c-3.1-0.1-6.1,1.2-8.2,3.5c-2.2,2.6-3.9,5.5-4.9,8.8c-1.2,3.6-2,7.4-2.3,11.2
	c-0.4,4-0.6,7.7-0.6,11c0,3.4,0.2,7.2,0.6,11.2c0.4,3.8,1.2,7.6,2.4,11.3c1,3.2,2.7,6.2,4.9,8.8c2.1,2.3,5,3.6,8.2,3.5
	c3.1,0.1,6.1-1.2,8.1-3.5c2.2-2.6,3.8-5.5,4.8-8.8c1.1-3.7,1.9-7.5,2.3-11.3C571,197.6,571.2,193.9,571.1,190.5L571.1,190.5z"/>
<path class="st1" d="M694.6,190.5c0,7.2-0.7,14.5-2.3,21.5c-1.3,6.4-3.8,12.5-7.2,18c-3.2,5.1-7.7,9.3-12.9,12.4
	c-5.3,3.1-11.7,4.6-19.2,4.6s-14-1.5-19.3-4.6c-5.3-3-9.8-7.3-13.1-12.4c-3.5-5.5-6-11.6-7.3-18c-1.5-7.1-2.3-14.3-2.3-21.5
	s0.7-14.4,2.3-21.5c1.3-6.3,3.8-12.4,7.3-17.8c3.3-5,7.8-9.2,13.1-12.2s11.8-4.5,19.3-4.5s14,1.5,19.2,4.5s9.6,7.1,12.9,12.1
	c3.5,5.5,5.9,11.5,7.2,17.9C693.9,176,694.7,183.2,694.6,190.5z M668.6,190.5c0-3.3-0.2-7-0.6-11c-0.4-3.8-1.1-7.6-2.3-11.2
	c-1-3.2-2.6-6.2-4.8-8.8c-2-2.3-4.9-3.6-8-3.6c-3.1-0.1-6.1,1.2-8.2,3.5c-2.2,2.6-3.9,5.5-4.9,8.8c-1.2,3.6-2,7.4-2.3,11.2
	c-0.4,4-0.6,7.7-0.6,11c0,3.4,0.2,7.2,0.6,11.2c0.3,3.8,1.1,7.6,2.3,11.3c1,3.2,2.7,6.2,4.9,8.8c2.1,2.3,5,3.6,8.2,3.5
	c3.1,0.1,6.1-1.2,8.1-3.5c2.2-2.6,3.8-5.5,4.8-8.8c1.1-3.7,1.9-7.5,2.3-11.3C668.5,197.6,668.7,193.9,668.6,190.5L668.6,190.5z"/>
<path class="st1" d="M792.1,190.5c0,7.2-0.7,14.5-2.3,21.5c-1.3,6.4-3.8,12.5-7.2,18c-3.2,5.1-7.7,9.3-12.9,12.4
	c-5.3,3.1-11.7,4.6-19.2,4.6s-14-1.5-19.3-4.6c-5.3-3-9.8-7.3-13.1-12.4c-3.5-5.5-6-11.6-7.3-18c-1.5-7.1-2.3-14.3-2.3-21.6
	c0-7.2,0.7-14.4,2.3-21.4c1.3-6.3,3.8-12.4,7.3-17.8c3.3-5,7.8-9.2,13.1-12.2s11.8-4.5,19.3-4.5s14,1.5,19.2,4.5s9.6,7.1,12.9,12.1
	c3.5,5.5,5.9,11.5,7.2,17.9C791.4,176,792.2,183.2,792.1,190.5z M766.1,190.5c0-3.3-0.2-7-0.6-11c-0.4-3.8-1.1-7.6-2.3-11.2
	c-1-3.2-2.6-6.2-4.8-8.8c-2-2.3-5-3.6-8.1-3.5c-3.1-0.1-6.1,1.2-8.2,3.5c-2.2,2.6-3.9,5.5-4.9,8.8c-1.2,3.6-2,7.4-2.3,11.2
	c-0.4,4-0.6,7.7-0.6,11c0,3.4,0.2,7.2,0.6,11.2c0.4,3.8,1.2,7.6,2.4,11.3c1,3.2,2.7,6.2,4.9,8.8c2.1,2.3,5,3.6,8.2,3.5
	c3.1,0.1,6.1-1.2,8.1-3.5c2.2-2.6,3.8-5.5,4.8-8.8c1.2-3.7,1.9-7.5,2.3-11.3C766,197.6,766.2,193.9,766.1,190.5L766.1,190.5z"/>
<path class="st1" d="M865.6,244.2v-9.8h-0.3c-2.5,3.9-6.1,7-10.3,8.8c-4.5,2.1-9.3,3.1-14.3,3.1c-5.2,0.1-10.4-1-15.1-3.3
	c-4.3-2.1-8.2-5.1-11.2-8.8c-3.1-3.8-5.5-8.1-7-12.8c-1.6-4.9-2.4-10-2.4-15.1s0.8-10.2,2.5-15c1.6-4.6,4-8.9,7.1-12.6
	c6.4-7.6,15.9-12,25.9-11.8c4.9-0.1,9.7,0.9,14,3.2c3.4,1.8,6.4,4.1,8.9,6.9h0.3v-18.9h-22.5v-13.4h22.5v-14.6h24.8v14.6h7v13.4h-7
	v86L865.6,244.2z M864.7,206.5c0-4.9-1.8-9.6-4.9-13.3c-1.6-1.8-3.5-3.3-5.7-4.4c-2.3-1.1-4.9-1.7-7.5-1.7c-2.7-0.1-5.3,0.5-7.7,1.7
	c-4.3,2.1-7.6,5.8-9,10.4c-0.8,2.3-1.1,4.7-1.1,7.1c0,2.4,0.4,4.8,1.1,7.2c0.7,2.3,1.9,4.4,3.4,6.3c3.3,3.9,8.2,6.1,13.3,6
	c2.6,0,5.2-0.5,7.5-1.7c2.2-1.1,4.1-2.6,5.7-4.4c1.6-1.8,2.8-3.9,3.6-6.2C864.3,211.3,864.7,208.9,864.7,206.5z"/>
<rect x="71" y="456.3" class="st2" width="1868" height="316"/>
<g class="st3">
	<path d="M72.8,500.7l3.6-8.1c3.9,2.8,9.7,4.8,15.2,4.8c6.3,0,8.9-2.1,8.9-5c0-8.6-26.9-2.7-26.9-19.9c0-7.9,6.3-14.4,19.5-14.4
		c5.8,0,11.7,1.4,16,4.1l-3.3,8.1c-4.3-2.4-8.7-3.6-12.8-3.6c-6.3,0-8.8,2.4-8.8,5.3c0,8.5,26.9,2.6,26.9,19.6
		c0,7.7-6.4,14.3-19.6,14.3C84.3,506,76.9,503.9,72.8,500.7z"/>
	<path d="M160,465.4v19.5c0,13.6-7.8,21.1-20.9,21.1c-13.1,0-20.9-7.5-20.9-21.1v-25.9h10.7v25.5c0,8.8,3.8,12.4,10.3,12.4
		c6.5,0,10.3-3.6,10.3-12.4v-25.5h6.9c2.4,0,4-1.7,4-4.2c0-1.6-0.5-3-1.3-4l6.1-2.2c1.3,1.7,2.1,4,2.1,6.6
		C167.2,460.5,164.6,464.1,160,465.4z M131.7,455h-5.2c0.1-5.9,3.1-9.6,7.7-9.6c4.6,0,6.9,4.2,9.2,4.2c1.8,0,3-1.4,3.2-3.6h5.2
		c-0.1,5.7-3.1,9.4-7.7,9.4c-4.6,0-6.9-4.2-9.2-4.2C133.1,451.3,131.8,452.6,131.7,455z"/>
	<path d="M200.9,495.3h-21.4l-4.1,9.9h-11l20.6-46.2h10.6l20.7,46.2H205L200.9,495.3z M197.5,487.2l-7.3-17.7l-7.3,17.7H197.5z"/>
	<path d="M269.1,505.2l-8.9-12.9h-0.5h-9.3v12.9h-10.7v-46.2h20c12.3,0,20.1,6.4,20.1,16.8c0,6.9-3.5,12-9.5,14.6l10.4,14.8H269.1z
		 M259.1,467.8h-8.7v16.1h8.7c6.5,0,9.8-3,9.8-8.1C268.9,470.7,265.6,467.8,259.1,467.8z"/>
	<path d="M329.6,465.4v19.5c0,13.6-7.8,21.1-20.9,21.1c-13.1,0-20.9-7.5-20.9-21.1v-25.9h10.7v25.5c0,8.8,3.8,12.4,10.3,12.4
		c6.5,0,10.3-3.6,10.3-12.4v-25.5h6.9c2.4,0,4-1.7,4-4.2c0-1.6-0.5-3-1.3-4l6.1-2.2c1.3,1.7,2.1,4,2.1,6.6
		C336.8,460.5,334.2,464.1,329.6,465.4z M303.9,447l-2.1-4.2c1.9-1.5,4.5-2.2,7.1-2.2c4.7,0,7.9,2.8,7.9,7.1c0,3.8-2,6.5-6.1,8.3
		l-3.2-3.4c2.6-1.2,3.4-2.5,3.4-4c0-1.7-1.3-2.8-3.1-2.8C306.5,445.7,305.2,446.1,303.9,447z"/>
	<path d="M370.5,495.3h-21.4l-4.1,9.9h-11l20.6-46.2h10.6l20.7,46.2h-11.2L370.5,495.3z M367.1,487.2l-7.3-17.7l-7.3,17.7H367.1z"/>
	<path d="M451.3,505.2l-0.1-27.7l-13.6,22.8h-4.8l-13.5-22.2v27.1h-10v-46.2h8.8l17.3,28.7l17-28.7h8.8l0.1,46.2H451.3z"/>
	<path d="M506.9,505.2l-4.1-9.9h-21.4l-4.1,9.9h-11l20.6-46.2h10.6l20.7,46.2H506.9z M480,445.8h6.5c0.1,2.8,2.6,4.7,5.7,4.7
		c3.1,0,5.5-1.8,5.7-4.7h6.5c-0.3,6.2-5.3,10-12.1,10C485.3,455.8,480.3,452,480,445.8z M499.4,487.2l-7.3-17.7l-7.3,17.7H499.4z
		 M496.7,514.7c0,2.7-2,4.4-4.6,4.4c-2.6,0-4.6-1.7-4.6-4.4c0-2.7,2-4.6,4.6-4.6C494.7,510.1,496.7,512,496.7,514.7z"/>
	<path d="M530.2,467.8h-14.8v-8.7h40.3v8.7h-14.8v37.5h-10.7V467.8z"/>
	<path d="M589.6,467.8h-14.8v-8.7h40.3v8.7h-14.8v37.5h-10.7V467.8z"/>
	<path d="M653,505.2l-4.1-9.9h-21.4l-4.1,9.9h-11l20.6-46.2h10.6l20.7,46.2H653z M645.6,487.2l-7.3-17.7l-7.3,17.7H645.6z
		 M642.9,514.7c0,2.7-2,4.4-4.6,4.4c-2.6,0-4.6-1.7-4.6-4.4c0-2.7,2-4.6,4.6-4.6C640.9,510.1,642.9,512,642.9,514.7z"/>
	<path d="M665.5,482.1c0-13.7,10.7-23.9,25.3-23.9c14.5,0,25.3,10.1,25.3,23.9c0,13.8-10.8,23.9-25.3,23.9
		C676.2,506,665.5,495.9,665.5,482.1z M705.2,482.1c0-8.8-6.2-14.8-14.5-14.8s-14.5,6-14.5,14.8s6.2,14.8,14.5,14.8
		S705.2,490.9,705.2,482.1z"/>
	<path d="M785.2,492.6c0,8-6.3,12.6-18.5,12.6h-23.9v-46.2h22.6c11.5,0,17.5,4.8,17.5,12c0,4.6-2.4,8.2-6.1,10.2
		C781.9,482.9,785.2,486.8,785.2,492.6z M753.4,467.1V478h10.6c5.2,0,8.1-1.8,8.1-5.5s-2.8-5.4-8.1-5.4H753.4z M774.4,491.5
		c0-3.9-3-5.7-8.5-5.7h-12.5v11.4h12.5C771.4,497.2,774.4,495.5,774.4,491.5z"/>
	<path d="M790.4,482.1c0-13.7,10.7-23.9,25.3-23.9c14.5,0,25.3,10.1,25.3,23.9c0,13.8-10.8,23.9-25.3,23.9
		C801.1,506,790.4,495.9,790.4,482.1z M830.1,482.1c0-8.8-6.2-14.8-14.5-14.8s-14.5,6-14.5,14.8s6.2,14.8,14.5,14.8
		S830.1,490.9,830.1,482.1z M811.1,514.7c0-2.7,2-4.6,4.6-4.6s4.6,1.9,4.6,4.6c0,2.7-2,4.4-4.6,4.4S811.1,517.4,811.1,514.7z"/>
	<path d="M857.9,467.8h-14.8v-8.7h40.3v8.7h-14.8v37.5h-10.7V467.8z"/>
	<path d="M917.4,467.8h-14.8v-8.7h40.3v8.7h-14.8v37.5h-10.7V467.8z"/>
	<path d="M978,505.2l-8.9-12.9h-0.5h-9.3v12.9h-10.7v-46.2h20c12.3,0,20.1,6.4,20.1,16.8c0,6.9-3.5,12-9.5,14.6l10.4,14.8H978z
		 M968,467.8h-8.7v16.1h8.7c6.5,0,9.8-3,9.8-8.1C977.8,470.7,974.5,467.8,968,467.8z"/>
	<path d="M1027.5,495.3h-21.4l-4.1,9.9h-11l20.6-46.2h10.6l20.7,46.2h-11.2L1027.5,495.3z M1004.8,447.8h6.2
		c0.3,1.8,2.6,3.1,5.9,3.1c3.3,0,5.7-1.3,5.9-3.1h6.2c-0.5,5-5.3,8.1-12.1,8.1C1010.1,455.8,1005.2,452.7,1004.8,447.8z
		 M1024.2,487.2l-7.3-17.7l-7.3,17.7H1024.2z M1018.7,445.8h-7.5l7.3-8h10.5L1018.7,445.8z"/>
	<path d="M1090,459.1v46.2h-8.8l-23-28v28h-10.6v-46.2h8.8l23,28v-28H1090z"/>
	<path d="M1132.2,481.4h9.8v18.7c-5.1,3.8-12.1,5.9-18.7,5.9c-14.5,0-25.2-10-25.2-23.9s10.7-23.9,25.4-23.9c8.1,0,14.8,2.8,19.3,8
		l-6.9,6.3c-3.4-3.6-7.3-5.2-11.9-5.2c-9,0-15.1,6-15.1,14.8c0,8.6,6.1,14.8,15,14.8c2.9,0,5.6-0.5,8.3-2V481.4z"/>
	<path d="M1170.5,459.1h21c15.1,0,25.5,9.1,25.5,23.1c0,14-10.4,23.1-25.5,23.1h-21V459.1z M1191,496.5c9.2,0,15.2-5.5,15.2-14.3
		c0-8.8-6-14.3-15.2-14.3h-9.8v28.6H1191z"/>
	<path d="M1254.8,495.3h-21.4l-4.1,9.9h-11l20.6-46.2h10.6l20.7,46.2h-11.2L1254.8,495.3z M1251.5,487.2l-7.3-17.7l-7.3,17.7H1251.5
		z"/>
	<path d="M1290.7,482.1c0-13.9,10.7-23.9,25.1-23.9c8,0,14.7,2.9,19,8.2l-6.9,6.3c-3.1-3.6-7-5.4-11.6-5.4
		c-8.6,0-14.8,6.1-14.8,14.8c0,8.7,6.1,14.8,14.8,14.8c4.6,0,8.5-1.8,11.6-5.5l6.9,6.3c-4.4,5.3-11,8.2-19.1,8.2
		C1301.4,506,1290.7,496.1,1290.7,482.1z"/>
	<path d="M1371.5,495.3h-21.4l-4.1,9.9h-11l20.6-46.2h10.6l20.7,46.2h-11.2L1371.5,495.3z M1368.1,487.2l-7.3-17.7l-7.3,17.7H1368.1
		z"/>
	<path d="M1398.9,467.8h-14.8v-8.7h40.3v8.7h-14.8v37.5h-10.7V467.8z"/>
	<path d="M1472.5,459.1v46.2h-10.7v-18.9h-21v18.9h-10.7v-46.2h10.7v18.2h21v-18.2H1472.5z"/>
	<path d="M1505.6,488.9v16.4h-10.7v-16.5l-17.9-29.7h11.4l12.3,20.5l12.3-20.5h10.5L1505.6,488.9z"/>
	<path d="M1546.7,459.1h21c15.1,0,25.5,9.1,25.5,23.1c0,14-10.4,23.1-25.5,23.1h-21V459.1z M1567.2,496.5c9.2,0,15.2-5.5,15.2-14.3
		c0-8.8-6-14.3-15.2-14.3h-9.8v28.6H1567.2z"/>
	<path d="M1598.4,482.1c0-13.7,10.7-23.9,25.3-23.9c14.5,0,25.3,10.1,25.3,23.9c0,13.8-10.8,23.9-25.3,23.9
		C1609,506,1598.4,495.9,1598.4,482.1z M1638.1,482.1c0-8.8-6.2-14.8-14.5-14.8s-14.5,6-14.5,14.8s6.2,14.8,14.5,14.8
		S1638.1,490.9,1638.1,482.1z"/>
	<path d="M1657,459.1h10.7v37.5h23.2v8.7H1657V459.1z"/>
	<path d="M1696.8,459.1h10.7v37.5h23.2v8.7h-33.9V459.1z"/>
</g>
<g class="st3">
	<path d="M110.1,584.4l-10.6-14.8c-1.2,0.1-2.4,0.2-3.7,0.2H83.4v14.7h-4.9v-46.2h17.3c11.7,0,18.9,5.9,18.9,15.8
		c0,7.3-3.8,12.3-10.6,14.5l11.3,15.8H110.1z M109.8,554.1c0-7.4-4.9-11.6-14.1-11.6H83.4v23.2h12.3
		C104.9,565.6,109.8,561.3,109.8,554.1z"/>
	<path d="M158.9,580.2v4.2h-32.7v-46.2h31.7v4.2h-26.8v16.4H155v4.2h-23.9v17.2H158.9z"/>
	<path d="M199.4,572.1h-25.7l-5.5,12.3H163l21.1-46.2h4.8l21.1,46.2h-5.1L199.4,572.1z M197.6,568.1l-11.1-24.8l-11.1,24.8H197.6z"
		/>
	<path d="M217.7,538.3h18.8c14.8,0,24.7,9.5,24.7,23.1s-10,23.1-24.7,23.1h-18.8V538.3z M236.3,580.2c12.3,0,20.2-7.8,20.2-18.9
		s-7.9-18.9-20.2-18.9h-13.7v37.7H236.3z"/>
	<path d="M286.1,568.5v16h-4.8v-16l-18.5-30.2h5.2l15.8,25.9l15.8-25.9h4.9L286.1,568.5z"/>
	<path d="M356.9,580.2v4.2h-32.4v-3.4l19.2-18.8c5.2-5.1,6.2-8.2,6.2-11.4c0-5.3-3.8-8.6-10.8-8.6c-5.4,0-9.6,1.6-12.6,5.1l-3.4-2.9
		c3.6-4.2,9.3-6.6,16.4-6.6c9.4,0,15.3,4.8,15.3,12.5c0,4.4-1.4,8.4-7.6,14.5l-15.7,15.4H356.9z"/>
	<path d="M447.7,538.3l-15.6,46.2h-5.1L413.4,545l-13.6,39.4h-5.1l-15.6-46.2h5l13.3,39.7l13.8-39.7h4.6l13.6,39.9l13.5-39.9H447.7z
		"/>
	<path d="M495.2,538.3v46.2h-4.8v-21.3h-28.9v21.3h-4.9v-46.2h4.9v20.6h28.9v-20.6H495.2z"/>
	<path d="M510.2,538.3h4.9v46.2h-4.9V538.3z"/>
	<path d="M539.1,542.5h-16.2v-4.2h37.4v4.2H544v42h-4.9V542.5z"/>
	<path d="M600.7,580.2v4.2H568v-46.2h31.7v4.2h-26.8v16.4h23.9v4.2h-23.9v17.2H600.7z"/>
	<path d="M656.9,580.2v4.2h-32.4v-3.4l19.2-18.8c5.2-5.1,6.2-8.2,6.2-11.4c0-5.3-3.8-8.6-10.8-8.6c-5.4,0-9.6,1.6-12.6,5.1l-3.4-2.9
		c3.6-4.2,9.3-6.6,16.4-6.6c9.4,0,15.3,4.8,15.3,12.5c0,4.4-1.4,8.4-7.6,14.5l-15.7,15.4H656.9z"/>
	<path d="M667,538.3h4.9v46.2H667V538.3z"/>
	<path d="M725.5,538.3v46.2h-4L691.8,547v37.5h-4.9v-46.2h4l29.8,37.5v-37.5H725.5z"/>
	<path d="M749.3,538.3v46.2h-4.8v-42h-10.9v-4.2H749.3z"/>
	<path d="M820.3,572.1c0,7.9-5.8,12.3-17.4,12.3h-21.2v-46.2h19.9c10.3,0,16.2,4.4,16.2,11.9c0,5.3-2.8,8.8-7.1,10.5
		C816.7,561.9,820.3,565.8,820.3,572.1z M786.6,542.3V559h14.7c7.4,0,11.7-2.8,11.7-8.4s-4.3-8.4-11.7-8.4H786.6z M815.4,571.7
		c0-6-4.4-8.6-12.5-8.6h-16.3v17.4h16.3C811,580.4,815.4,577.8,815.4,571.7z"/>
	<path d="M831,564.7v-26.5h4.9v26.3c0,11,5.1,16,14.1,16c9,0,14.2-5,14.2-16v-26.3h4.8v26.5c0,13.3-7.1,20.1-18.9,20.1
		C838.2,584.8,831,578,831,564.7z"/>
	<path d="M922.3,572.1c0,7.9-5.8,12.3-17.4,12.3h-21.2v-46.2h19.9c10.3,0,16.2,4.4,16.2,11.9c0,5.3-2.8,8.8-7.1,10.5
		C918.8,561.9,922.3,565.8,922.3,572.1z M888.6,542.3V559h14.7c7.4,0,11.7-2.8,11.7-8.4s-4.3-8.4-11.7-8.4H888.6z M917.4,571.7
		c0-6-4.4-8.6-12.5-8.6h-16.3v17.4h16.3C913,580.4,917.4,577.8,917.4,571.7z"/>
	<path d="M972.1,572.1c0,7.9-5.8,12.3-17.4,12.3h-21.2v-46.2h19.9c10.3,0,16.2,4.4,16.2,11.9c0,5.3-2.8,8.8-7.1,10.5
		C968.5,561.9,972.1,565.8,972.1,572.1z M938.4,542.3V559h14.7c7.4,0,11.7-2.8,11.7-8.4s-4.3-8.4-11.7-8.4H938.4z M967.2,571.7
		c0-6-4.4-8.6-12.5-8.6h-16.3v17.4h16.3C962.8,580.4,967.2,577.8,967.2,571.7z"/>
	<path d="M983.2,538.3h4.9v42h25.9v4.2h-30.8V538.3z"/>
	<path d="M1054.8,580.2v4.2h-32.7v-46.2h31.7v4.2H1027v16.4h23.9v4.2H1027v17.2H1054.8z"/>
	<path d="M1131.5,538.3v46.2h-4.7v-37l-18.1,31.1h-2.3l-18.1-30.9v36.8h-4.7v-46.2h4l20.1,34.3l19.9-34.3H1131.5z"/>
	<path d="M1142.5,561.3c0-13.5,10.3-23.5,24.3-23.5c13.9,0,24.2,10,24.2,23.5c0,13.5-10.4,23.5-24.2,23.5
		C1152.8,584.8,1142.5,574.8,1142.5,561.3z M1186.1,561.3c0-11-8.2-19.1-19.3-19.1c-11.2,0-19.5,8.1-19.5,19.1
		c0,11,8.3,19.1,19.5,19.1C1177.9,580.5,1186.1,572.4,1186.1,561.3z"/>
	<path d="M1201.6,564.7v-26.5h4.9v26.3c0,11,5.1,16,14.1,16c9,0,14.2-5,14.2-16v-26.3h4.8v26.5c0,13.3-7.1,20.1-18.9,20.1
		C1208.8,584.8,1201.6,578,1201.6,564.7z"/>
	<path d="M1249.8,578.8l1.9-3.8c3.3,3.2,9.2,5.6,15.2,5.6c8.6,0,12.4-3.6,12.4-8.2c0-12.7-28.4-4.9-28.4-22c0-6.8,5.3-12.7,17-12.7
		c5.2,0,10.6,1.5,14.3,4.1l-1.7,3.9c-4-2.6-8.6-3.8-12.7-3.8c-8.4,0-12.2,3.8-12.2,8.4c0,12.7,28.4,5,28.4,21.8
		c0,6.8-5.4,12.6-17.2,12.6C1260,584.8,1253.2,582.4,1249.8,578.8z"/>
	<path d="M1290.4,578.8l1.9-3.8c3.3,3.2,9.2,5.6,15.2,5.6c8.6,0,12.4-3.6,12.4-8.2c0-12.7-28.4-4.9-28.4-22c0-6.8,5.3-12.7,17-12.7
		c5.2,0,10.6,1.5,14.3,4.1l-1.7,3.9c-4-2.6-8.6-3.8-12.7-3.8c-8.4,0-12.2,3.8-12.2,8.4c0,12.7,28.4,5,28.4,21.8
		c0,6.8-5.4,12.6-17.2,12.6C1300.6,584.8,1293.8,582.4,1290.4,578.8z"/>
	<path d="M1368.1,580.2v4.2h-32.7v-46.2h31.7v4.2h-26.8v16.4h23.9v4.2h-23.9v17.2H1368.1z"/>
	<path d="M1392.8,561.3c0-13.5,10.3-23.5,24.2-23.5c6.7,0,12.8,2.2,16.9,6.7l-3.1,3.1c-3.8-3.8-8.4-5.5-13.7-5.5
		c-11.2,0-19.5,8.2-19.5,19.1s8.4,19.1,19.5,19.1c5.3,0,9.9-1.6,13.7-5.5l3.1,3.1c-4.1,4.5-10.2,6.8-17,6.8
		C1403.1,584.8,1392.8,574.9,1392.8,561.3z"/>
	<path d="M1444.3,538.3h4.9v42h25.9v4.2h-30.8V538.3z"/>
	<path d="M1515.8,580.2v4.2h-32.7v-46.2h31.7v4.2h-26.8v16.4h23.9v4.2h-23.9v17.2H1515.8z"/>
	<path d="M1556.3,572.1h-25.7l-5.5,12.3h-5.1l21.1-46.2h4.8l21.1,46.2h-5.1L1556.3,572.1z M1554.5,568.1l-11.1-24.8l-11.1,24.8
		H1554.5z"/>
	<path d="M1613.3,538.3v46.2h-4l-29.7-37.5v37.5h-4.9v-46.2h4l29.8,37.5v-37.5H1613.3z"/>
	<path d="M1623.9,578.8l1.9-3.8c3.3,3.2,9.2,5.6,15.2,5.6c8.6,0,12.4-3.6,12.4-8.2c0-12.7-28.4-4.9-28.4-22c0-6.8,5.3-12.7,17-12.7
		c5.2,0,10.6,1.5,14.3,4.1l-1.7,3.9c-4-2.6-8.6-3.8-12.7-3.8c-8.4,0-12.2,3.8-12.2,8.4c0,12.7,28.4,5,28.4,21.8
		c0,6.8-5.4,12.6-17.2,12.6C1634.1,584.8,1627.3,582.4,1623.9,578.8z"/>
	<path d="M1701.6,580.2v4.2h-32.7v-46.2h31.7v4.2h-26.8v16.4h23.9v4.2h-23.9v17.2H1701.6z"/>
	<path d="M1744.6,584.4l-10.6-14.8c-1.2,0.1-2.4,0.2-3.7,0.2h-12.4v14.7h-4.9v-46.2h17.3c11.7,0,18.9,5.9,18.9,15.8
		c0,7.3-3.8,12.3-10.6,14.5l11.3,15.8H1744.6z M1744.3,554.1c0-7.4-4.9-11.6-14.1-11.6h-12.3v23.2h12.3
		C1739.5,565.6,1744.3,561.3,1744.3,554.1z"/>
</g>
<g class="st3">
	<path d="M91.4,696.7v46.2H80.7v-37.6h-9.2v-8.6H91.4z"/>
	<path d="M134,734.1v8.7H99v-6.9l17.8-16.8c4.1-3.9,4.8-6.3,4.8-8.5c0-3.6-2.5-5.7-7.4-5.7c-4,0-7.3,1.5-9.6,4.6l-7.8-5
		c3.6-5.2,10-8.6,18.3-8.6c10.3,0,17.2,5.3,17.2,13.7c0,4.5-1.3,8.6-7.7,14.6l-10.6,10H134z"/>
	<path d="M138.3,719.7c0-15.2,8.4-23.9,19.8-23.9c11.4,0,19.8,8.6,19.8,23.9c0,15.2-8.4,23.9-19.8,23.9
		C146.7,743.6,138.3,735,138.3,719.7z M167.1,719.7c0-10.5-3.7-14.8-9-14.8c-5.3,0-9,4.4-9,14.8s3.7,14.8,9,14.8
		C163.4,734.6,167.1,730.2,167.1,719.7z"/>
	<path d="M228,742.8l-0.1-27.7L214.3,738h-4.8L196,715.7v27.1h-10v-46.2h8.8l17.3,28.7l17-28.7h8.8l0.1,46.2H228z"/>
	<path d="M249,696.7h10.7v37.5h23.2v8.7H249V696.7z"/>
	<path d="M306.9,724.8c0-12.1,3-23,8.2-30.9h9.8c-5.6,9.9-8,19.8-8,30.9c0,11.1,2.4,21,8,30.9h-9.8
		C309.8,747.7,306.9,736.9,306.9,724.8z"/>
	<path d="M353.3,726.5v16.4h-10.7v-16.5l-17.9-29.7h11.4l12.3,20.5l12.3-20.5h10.5L353.3,726.5z"/>
	<path d="M406.7,734.1v8.7h-34.9v-6.9l17.8-16.8c4.1-3.9,4.8-6.3,4.8-8.5c0-3.6-2.5-5.7-7.4-5.7c-4,0-7.3,1.5-9.6,4.6l-7.8-5
		c3.6-5.2,10-8.6,18.3-8.6c10.3,0,17.2,5.3,17.2,13.7c0,4.5-1.3,8.6-7.7,14.6l-10.6,10H406.7z"/>
	<path d="M411,719.7c0-15.2,8.4-23.9,19.8-23.9c11.4,0,19.8,8.6,19.8,23.9c0,15.2-8.4,23.9-19.8,23.9C419.4,743.6,411,735,411,719.7
		z M439.8,719.7c0-10.5-3.7-14.8-9-14.8c-5.3,0-9,4.4-9,14.8s3.7,14.8,9,14.8C436.1,734.6,439.8,730.2,439.8,719.7z"/>
	<path d="M473.2,696.7v46.2h-10.7v-37.6h-9.2v-8.6H473.2z"/>
	<path d="M519.9,729.5c0,8.7-7.8,14.2-19.5,14.2c-11.7,0-19.4-5.5-19.4-14.2c0-5,2.6-8.6,7-10.9c-3.4-2.1-5.3-5.3-5.3-9.5
		c0-8.1,7.3-13.2,17.8-13.2c10.6,0,17.9,5.1,17.9,13.2c0,4.2-2,7.4-5.4,9.5C517.3,720.8,519.9,724.5,519.9,729.5z M509.1,729.1
		c0-4.1-3.4-6.6-8.7-6.6c-5.3,0-8.6,2.5-8.6,6.6s3.3,6.7,8.6,6.7C505.7,735.8,509.1,733.2,509.1,729.1z M493.3,709.5
		c0,3.5,2.8,5.7,7.1,5.7c4.4,0,7.3-2.2,7.3-5.7c0-3.6-2.9-5.8-7.3-5.8C496.1,703.7,493.3,705.9,493.3,709.5z"/>
	<path d="M522.9,755.6c5.7-9.9,8.1-19.8,8.1-30.9c0-11.1-2.4-21-8.1-30.9h9.8c5.4,7.9,8.3,18.7,8.3,30.9c0,12.1-2.9,22.9-8.3,30.9
		H522.9z"/>
</g>
</svg>
