<?xml version="1.0" encoding="utf-8"?>
<!-- Generator: Adobe Illustrator 22.1.0, SVG Export Plug-In . SVG Version: 6.00 Build 0)  -->
<svg version="1.1" id="Layer_1" xmlns="http://www.w3.org/2000/svg" xmlns:xlink="http://www.w3.org/1999/xlink" x="0px" y="0px"
	 viewBox="0 0 845 480" style="enable-background:new 0 0 845 480;" xml:space="preserve">
<style type="text/css">
	.st0{fill:#C90202;}
	.st1{fill:#FFFFFF;}
</style>
<title>Image convert 3</title>
<path d="M62.1,227.4h16.8c12.5,0,21,7.7,21,19.2c0,11.5-8.5,19.2-21,19.2H62.1V227.4z M78.6,259.9c8.6,0,14.1-5.2,14.1-13.2
	s-5.6-13.2-14.1-13.2h-9.4v26.4H78.6z"/>
<path d="M140.9,232.1v17.1c0,11.2-6.3,17.3-16.8,17.3s-16.9-6.1-16.9-17.3v-21.7h7.1v21.4c0,7.9,3.6,11.3,9.8,11.3s9.7-3.4,9.7-11.3
	v-21.4h4.6c1.8,0.1,3.3-1.3,3.4-3.1c0-0.2,0-0.3,0-0.5c0-1.2-0.4-2.4-1.1-3.4l4.2-1.5c1.1,1.5,1.7,3.3,1.6,5.2
	C146.7,228.3,144.6,231.2,140.9,232.1z"/>
<path d="M190.2,246.7c0,11.4-8.8,19.8-20.7,19.8s-20.7-8.4-20.7-19.8c0-11.4,8.9-19.8,21-19.8c4.3,0,7.4,0.8,10.3,0.8
	c3.1,0,4.9-1.3,4.9-3.8c0-1.2-0.4-2.4-1.1-3.4l4.2-1.5c1.1,1.5,1.7,3.3,1.6,5.2c0,4-2.3,6.7-6.4,7.5
	C187.7,235.3,190.3,240.9,190.2,246.7z M183,246.7c0-7.5-6.1-13.5-13.5-13.5s-13.5,6.1-13.5,13.5s6.1,13.5,13.5,13.5l0,0
	c7.3,0.2,13.3-5.5,13.5-12.7C183,247.2,183,247,183,246.7L183,246.7z M163.2,224h-3.7c0.1-4.5,2.4-7.4,5.9-7.4s5.5,3.6,7.5,3.6
	c1.5,0,2.6-1.2,2.7-3.1h3.7c-0.1,4.3-2.4,7.2-5.9,7.2s-5.5-3.6-7.5-3.6C164.4,220.7,163.3,221.9,163.2,224z"/>
<path d="M232,227.4v38.5h-5.9l-21.2-26.1v26.1h-7.1v-38.5h5.9l21.2,26.1v-26.1H232z"/>
<path d="M268.6,246.2h6.8v15.4c-4.3,3.3-9.6,5-15.1,4.9c-11.9,0-20.7-8.3-20.7-19.8s8.8-19.8,20.8-19.8c6.4,0,11.8,2.1,15.5,6.3
	l-4.5,4.4c-2.8-2.9-6.6-4.5-10.6-4.4c-8.2,0-14,5.6-14,13.5c0,7.8,5.8,13.5,13.9,13.5c2.8,0.1,5.5-0.6,7.9-2L268.6,246.2z"/>
<path d="M307.8,233.5H295v-6h32.7v6h-12.7v32.4h-7.1L307.8,233.5z"/>
<path d="M367.3,227.4v38.5h-7.1v-16.5h-19.9v16.5h-7.1v-38.5h7.1v15.9h19.9v-15.9H367.3z"/>
<path d="M406.5,260v6h-28.9v-38.6h28.1v6h-21v10h18.6v5.9h-18.5V260H406.5z M387,224.3h-5.7l7.4-5.9h6.2l7.4,5.9h-5.7l-4.8-3
	L387,224.3z M396.6,215l-1.2-2.3c1.3-0.8,2.7-1.2,4.2-1.1c2.9,0,4.6,1.6,4.6,4.1c-0.1,2.2-1.6,4-3.6,4.7l-1.8-1.9
	c1.5-0.7,2.1-1.6,2.1-2.4c0-1-0.8-1.7-1.8-1.7c-0.1,0-0.1,0-0.2,0C398.2,214.3,397.3,214.6,396.6,215z"/>
<path d="M426.9,246.7c0-11.5,8.8-19.8,20.6-19.8c6.3,0,11.7,2.2,15.2,6.4l-4.6,4.3c-2.6-2.9-6.4-4.6-10.3-4.5
	c-8,0-13.8,5.6-13.8,13.5s5.8,13.5,13.8,13.5c3.9,0.1,7.7-1.6,10.3-4.6l4.6,4.4c-3.6,4.2-9,6.4-15.3,6.4
	C435.7,266.5,426.9,258.2,426.9,246.7z"/>
<path d="M493.8,257h-19.2l-3.8,8.9h-7.4l17.3-38.5h7l17.4,38.5h-7.5L493.8,257z M491.4,251.4l-7.2-16.8l-7.2,16.8L491.4,251.4z"/>
<path d="M515.9,233.5h-12.8v-6h32.7v6H523v32.4h-7.2L515.9,233.5z"/>
<path d="M575.4,227.4v38.5h-7.2v-16.5h-19.9v16.5h-7.2v-38.5h7.2v15.9h19.9v-15.9H575.4z"/>
<path d="M602.3,252.4v13.6h-7.1v-13.5l-15.1-25h7.6l11.3,18.7l11.4-18.8h7L602.3,252.4z"/>
<path d="M637.3,227.4h16.8c12.5,0,21,7.7,21,19.2c0,11.5-8.5,19.2-21,19.2h-16.8V227.4z M653.8,259.9c8.6,0,14.1-5.2,14.1-13.2
	s-5.6-13.2-14.1-13.2h-9.3v26.4H653.8z"/>
<path d="M680,246.7c0-11.4,8.8-19.8,20.7-19.8s20.7,8.4,20.7,19.8s-8.8,19.8-20.7,19.8S680,258.1,680,246.7z M714.3,246.7
	c0-7.5-6.1-13.5-13.5-13.5c-7.5,0-13.5,6.1-13.5,13.5c0,7.5,6.1,13.5,13.5,13.5c7.2,0.2,13.3-5.5,13.5-12.7
	C714.2,247.2,714.2,247,714.3,246.7L714.3,246.7z"/>
<path d="M729,227.4h7.2v32.4h20.1v6H729V227.4z"/>
<path d="M761.3,225.1h6.9v40.8h-6.9V225.1z"/>
<path d="M118.4,293.5l-12.8,38.5H98l-9.5-28.5l-9.7,28.5h-7.6l-12.8-38.5h7.4l9.6,29.2l9.9-29.2H92l9.7,29.4l9.8-29.4H118.4z"/>
<path d="M158.4,293.5v38.5h-7.1v-16.5h-19.9v16.5h-7.1v-38.5h7.1v15.9h19.9v-15.9H158.4z"/>
<path d="M168.7,293.5h7.1v38.5h-7.1V293.5z"/>
<path d="M194.1,299.5h-12.8v-6H214v6h-12.8v32.4h-7.1V299.5z"/>
<path d="M248.3,326v6h-28.9v-38.5h28.1v6h-21v10h18.6v5.9h-18.6V326H248.3z"/>
<path d="M306.8,331.9l-0.1-25.5l-12.6,21.1h-3.2l-12.6-20.8v25.2h-6.8v-38.5h5.9l15.3,25.5l15-25.5h5.9l0,38.5L306.8,331.9z"/>
<path d="M323.9,293.5h7.1v38.5h-7.1V293.5z"/>
<path d="M341.5,293.5h7.1v32.4h20.1v6h-27.3V293.5z"/>
<path d="M387.7,315.8l-6.1,6.3v9.8h-7.1v-38.5h7.1v19.7l19-19.7h8l-16.2,17.2l17.2,21.3h-8.4L387.7,315.8z"/>
<path d="M426.5,327.9l2.5-5.5c3.7,2.7,8.1,4.2,12.7,4.2c6,0,8.5-2.1,8.5-5c0-8.3-22.9-2.9-22.9-17.2c0-6.2,5-11.5,15.5-11.5
	c4.5-0.1,8.9,1.1,12.8,3.4l-2.3,5.5c-3.2-1.9-6.9-2.9-10.6-3c-5.9,0-8.4,2.3-8.4,5.2c0,8.2,22.8,2.9,22.8,17c0,6.2-5,11.4-15.6,11.4
	C435.6,332.5,429.6,330.6,426.5,327.9z"/>
<path d="M498.5,293.5v38.5h-7.2v-16.5h-19.9v16.5h-7.2v-38.5h7.2v15.9h19.9v-15.9H498.5z"/>
<path d="M508.8,293.5h7.2v38.5h-7.2V293.5z"/>
<path d="M560.6,293.5v38.5h-5.9l-21.2-26.1v26.1h-7.1v-38.5h5.9l21.2,26.1v-26.1H560.6z"/>
<path d="M599.8,326v6h-28.9v-38.5H599v6h-21v10h18.6v5.9h-18.5V326H599.8z"/>
<path d="M657.2,321.5c0,6.6-5.2,10.5-15.1,10.5H623v-38.5h18c9.2,0,14.2,3.9,14.2,10c0.1,3.5-1.8,6.8-5,8.5
	C654.5,313.1,657.4,317.1,657.2,321.5z M630.1,299.1v10.6h10.1c5,0,7.8-1.8,7.8-5.3c0-3.5-2.8-5.3-7.8-5.3H630.1z M650,320.8
	c0-3.9-2.9-5.6-8.3-5.6h-11.6v11.1h11.5C647.1,326.3,650,324.6,650,320.8z"/>
<path d="M662.1,312.7c0-11.4,8.8-19.8,20.7-19.8s20.7,8.4,20.7,19.8s-8.8,19.8-20.7,19.8S662.1,324.1,662.1,312.7z M696.3,312.7
	c0-7.5-6.1-13.5-13.5-13.5c-7.5,0-13.5,6.1-13.5,13.5s6.1,13.5,13.5,13.5c7.2,0.2,13.3-5.5,13.5-12.7
	C696.3,313.2,696.3,313,696.3,312.7z"/>
<path d="M711.1,293.5H728c12.5,0,21,7.7,21,19.2s-8.5,19.2-21,19.2h-16.9V293.5z M727.6,325.9c8.6,0,14.1-5.2,14.1-13.2
	s-5.6-13.2-14.1-13.2h-9.3v26.4H727.6z"/>
<path d="M771.5,318.4v13.6h-7.1v-13.5l-15.1-25h7.7l11.3,18.8l11.4-18.8h7L771.5,318.4z"/>
<path d="M62.1,359.5h7.1v32.4h20.1v6H62.1V359.5z"/>
<path d="M91.6,378.7c0-11.4,8.8-19.8,20.7-19.8s20.7,8.4,20.7,19.8s-8.8,19.8-20.7,19.8S91.6,390.1,91.6,378.7z M125.8,378.7
	c0-7.5-6.1-13.5-13.5-13.5s-13.5,6.1-13.5,13.5s6.1,13.5,13.5,13.5c0,0,0,0,0,0c7.2,0.2,13.3-5.4,13.5-12.7
	C125.8,379.3,125.8,379,125.8,378.7z"/>
<path d="M147.9,365.5h-12.8v-6h32.7v6H155v32.4h-7.1L147.9,365.5z"/>
<path d="M173.2,359.5h7.1v38.5h-7.1V359.5z"/>
<path d="M188,378.7c0-11.4,8.8-19.8,20.7-19.8s20.7,8.4,20.7,19.8s-8.8,19.8-20.7,19.8S188,390.1,188,378.7z M222.3,378.7
	c0-7.5-6.1-13.5-13.5-13.5s-13.5,6.1-13.5,13.5s6.1,13.5,13.5,13.5l0,0c7.2,0.2,13.3-5.5,13.5-12.7
	C222.3,379.2,222.3,379,222.3,378.7L222.3,378.7z"/>
<path d="M271.2,359.5v38.5h-5.9l-21.2-26.1v26.1H237v-38.5h5.9l21.2,26.1v-26.1H271.2z"/>
<path d="M328.3,389.2h-6.8v8.7h-6.9v-8.7h-21.1v-5l19-24.8h7.6l-17.9,23.7h12.6v-7.8h6.7v7.8h6.8L328.3,389.2z"/>
<path d="M359.2,386.1c0,6.8-4.9,12.4-15.2,12.4c-5.4,0-10.9-1.6-14.5-4.5l3-5.6c3.2,2.5,7.2,3.8,11.3,3.8c5.1,0,8.1-2.3,8.1-5.9
	s-2.4-6-10.3-6h-9.3l2-21h22.6v6h-16.6l-0.8,8.9h3.7C354.6,374.4,359.2,379.3,359.2,386.1z"/>
<path d="M363.3,378.7c0-12.6,6.9-19.8,16-19.8s16.1,7.1,16.1,19.8s-6.9,19.8-16.1,19.8S363.3,391.3,363.3,378.7z M388.3,378.7
	c0-9.3-3.6-13.6-8.9-13.6s-8.9,4.3-8.9,13.6s3.6,13.6,8.9,13.6S388.3,388,388.3,378.7L388.3,378.7z"/>
<path d="M438.5,397.9l-0.1-25.5l-12.6,21.1h-3.2l-12.6-20.8v25.2h-6.8v-38.5h5.9l15.3,25.5l15-25.5h5.9l0,38.5L438.5,397.9z"/>
<path d="M455.6,359.5h7.2v32.4h20.1v6h-27.3V359.5z"/>
<g id="_Rectangle_">
	<rect x="62.7" y="47.9" class="st0" width="383" height="113.1"/>
</g>
<g>
	<path class="st1" d="M104.3,126.4V90.3l-9.2,7.1l-6-8.3l16.2-11.9h10.6v49.2H104.3z"/>
	<path class="st1" d="M165.4,116.8v9.6h-10.9v-9.6h-23.2V107l20-29.8h14v30.2h6.8v9.5H165.4z M154.5,89.2h-0.2l-11.7,18.2h11.9V89.2
		z"/>
	<path class="st1" d="M216.3,93.5c0,2.9-0.5,5.6-1.5,8c-1,2.4-2.3,4.8-4,7.3l-11.9,17.7h-14.1l12.2-17l0.1-0.2
		c-0.5,0.2-1.1,0.3-1.7,0.4c-0.6,0.1-1.2,0.1-1.8,0.1c-2.2,0-4.2-0.4-6.2-1.1s-3.7-1.9-5.1-3.3c-1.5-1.4-2.7-3.1-3.5-5.1
		c-0.9-2-1.3-4.2-1.3-6.6c0-2.8,0.5-5.3,1.5-7.5c1-2.2,2.4-4.1,4.2-5.6c1.8-1.5,3.8-2.7,6.2-3.5c2.4-0.8,4.9-1.2,7.5-1.2
		c2.7,0,5.2,0.4,7.6,1.2c2.4,0.8,4.4,2,6.1,3.5c1.7,1.5,3.1,3.4,4.1,5.6C215.7,88.3,216.3,90.8,216.3,93.5z M204.6,93.3
		c0-2.1-0.7-4-2.1-5.5c-1.4-1.6-3.2-2.3-5.6-2.3s-4.3,0.7-5.7,2.2c-1.4,1.5-2.1,3.4-2.1,5.7c0,2.2,0.7,4.1,2.1,5.5s3.3,2.2,5.6,2.2
		c2.3,0,4.2-0.7,5.7-2.2C203.9,97.5,204.6,95.6,204.6,93.3z"/>
	<path class="st1" d="M230.2,135h-9.4l5.2-19.7h10.9L230.2,135z"/>
	<path class="st1" d="M281.9,101.7c0,3.5-0.3,6.8-1,9.9c-0.7,3.2-1.8,5.9-3.3,8.3c-1.5,2.4-3.5,4.3-5.9,5.7
		c-2.4,1.4-5.4,2.1-8.9,2.1s-6.4-0.7-8.9-2.1c-2.5-1.4-4.5-3.3-6-5.7c-1.6-2.4-2.7-5.2-3.4-8.3c-0.7-3.2-1-6.5-1-9.9s0.3-6.8,1-9.9
		s1.8-5.9,3.4-8.2c1.6-2.3,3.6-4.2,6-5.6c2.5-1.4,5.4-2.1,8.9-2.1s6.4,0.7,8.9,2.1c2.4,1.4,4.4,3.3,5.9,5.6c1.5,2.3,2.6,5.1,3.3,8.2
		C281.6,94.9,281.9,98.2,281.9,101.7z M270,101.7c0-1.5-0.1-3.2-0.3-5.1c-0.2-1.9-0.5-3.6-1-5.2c-0.5-1.6-1.2-2.9-2.2-4
		c-1-1.1-2.2-1.6-3.7-1.6s-2.8,0.5-3.8,1.6c-1,1.1-1.7,2.4-2.3,4c-0.5,1.6-0.9,3.3-1.1,5.2c-0.2,1.9-0.3,3.5-0.3,5.1
		c0,1.6,0.1,3.3,0.3,5.2c0.2,1.9,0.5,3.6,1.1,5.2c0.5,1.6,1.3,2.9,2.3,4c1,1.1,2.2,1.6,3.8,1.6s2.8-0.5,3.7-1.6
		c0.9-1.1,1.7-2.4,2.2-4c0.5-1.6,0.9-3.3,1-5.2C269.9,105,270,103.2,270,101.7z"/>
	<path class="st1" d="M326.9,101.7c0,3.5-0.3,6.8-1,9.9c-0.7,3.2-1.8,5.9-3.3,8.3c-1.5,2.4-3.5,4.3-5.9,5.7
		c-2.4,1.4-5.4,2.1-8.9,2.1s-6.4-0.7-8.9-2.1c-2.5-1.4-4.5-3.3-6-5.7c-1.6-2.4-2.7-5.2-3.4-8.3c-0.7-3.2-1-6.5-1-9.9s0.3-6.8,1-9.9
		s1.8-5.9,3.4-8.2c1.6-2.3,3.6-4.2,6-5.6c2.5-1.4,5.4-2.1,8.9-2.1s6.4,0.7,8.9,2.1c2.4,1.4,4.4,3.3,5.9,5.6c1.5,2.3,2.6,5.1,3.3,8.2
		C326.5,94.9,326.9,98.2,326.9,101.7z M314.9,101.7c0-1.5-0.1-3.2-0.3-5.1c-0.2-1.9-0.5-3.6-1-5.2c-0.5-1.6-1.2-2.9-2.2-4
		c-1-1.1-2.2-1.6-3.7-1.6s-2.8,0.5-3.8,1.6c-1,1.1-1.7,2.4-2.3,4c-0.5,1.6-0.9,3.3-1.1,5.2c-0.2,1.9-0.3,3.5-0.3,5.1
		c0,1.6,0.1,3.3,0.3,5.2c0.2,1.9,0.5,3.6,1.1,5.2c0.5,1.6,1.3,2.9,2.3,4c1,1.1,2.2,1.6,3.8,1.6s2.8-0.5,3.7-1.6
		c0.9-1.1,1.7-2.4,2.2-4c0.5-1.6,0.9-3.3,1-5.2C314.8,105,314.9,103.2,314.9,101.7z"/>
	<path class="st1" d="M371.8,101.7c0,3.5-0.3,6.8-1,9.9c-0.7,3.2-1.8,5.9-3.3,8.3c-1.5,2.4-3.5,4.3-5.9,5.7
		c-2.4,1.4-5.4,2.1-8.9,2.1s-6.4-0.7-8.9-2.1c-2.5-1.4-4.5-3.3-6-5.7c-1.6-2.4-2.7-5.2-3.4-8.3c-0.7-3.2-1-6.5-1-9.9s0.3-6.8,1-9.9
		s1.8-5.9,3.4-8.2c1.6-2.3,3.6-4.2,6-5.6c2.5-1.4,5.4-2.1,8.9-2.1s6.4,0.7,8.9,2.1c2.4,1.4,4.4,3.3,5.9,5.6c1.5,2.3,2.6,5.1,3.3,8.2
		C371.4,94.9,371.8,98.2,371.8,101.7z M359.8,101.7c0-1.5-0.1-3.2-0.3-5.1c-0.2-1.9-0.5-3.6-1-5.2c-0.5-1.6-1.2-2.9-2.2-4
		c-1-1.1-2.2-1.6-3.7-1.6s-2.8,0.5-3.8,1.6c-1,1.1-1.7,2.4-2.3,4c-0.5,1.6-0.9,3.3-1.1,5.2c-0.2,1.9-0.3,3.5-0.3,5.1
		c0,1.6,0.1,3.3,0.3,5.2c0.2,1.9,0.5,3.6,1.1,5.2c0.5,1.6,1.3,2.9,2.3,4c1,1.1,2.2,1.6,3.8,1.6s2.8-0.5,3.7-1.6
		c0.9-1.1,1.7-2.4,2.2-4c0.5-1.6,0.9-3.3,1-5.2C359.7,105,359.8,103.2,359.8,101.7z"/>
	<path class="st1" d="M405.6,126.4v-4.5h-0.1c-1.1,1.8-2.7,3.1-4.8,4.1c-2.1,0.9-4.3,1.4-6.6,1.4c-2.6,0-4.9-0.5-7-1.5
		c-2-1-3.8-2.4-5.2-4.1c-1.4-1.7-2.5-3.6-3.2-5.9c-0.7-2.2-1.1-4.5-1.1-7c0-2.4,0.4-4.7,1.1-6.9c0.8-2.2,1.9-4.1,3.3-5.8
		c1.4-1.7,3.1-3,5.1-4c2-1,4.3-1.5,6.8-1.5c2.5,0,4.7,0.5,6.5,1.5c1.8,1,3.1,2,4.1,3.2h0.1v-8.7h-10.4v-6.2h10.4v-6.7h11.4v6.7h3.2
		v6.2h-3.2v39.6H405.6z M405.2,109c0-1.1-0.2-2.2-0.6-3.3c-0.4-1.1-1-2-1.7-2.9c-0.7-0.8-1.6-1.5-2.6-2c-1-0.5-2.2-0.8-3.5-0.8
		c-1.3,0-2.5,0.3-3.5,0.8c-1,0.5-1.9,1.2-2.6,2c-0.7,0.8-1.2,1.8-1.6,2.8c-0.3,1.1-0.5,2.2-0.5,3.3s0.2,2.2,0.5,3.3
		c0.3,1.1,0.9,2.1,1.6,2.9c0.7,0.8,1.6,1.5,2.6,2c1,0.5,2.2,0.8,3.5,0.8c1.3,0,2.5-0.3,3.5-0.8c1-0.5,1.9-1.2,2.6-2
		c0.7-0.8,1.3-1.8,1.7-2.9C405,111.2,405.2,110.2,405.2,109z"/>
</g>
</svg>
