<svg id="Layer_1" data-name="Layer 1" xmlns="http://www.w3.org/2000/svg" viewBox="0 0 2006 887.99"><defs><style>.cls-1{fill:#c90202;}.cls-2{fill:#fff;}</style></defs><title>Image convert 1 fix text</title><path d="M118.88,522.11l-11.76,12.27v22.16H87V468.9h20.16v40.94l38.81-40.94h22.53L132.16,508l38.43,48.58H146.93Z"/><path d="M247.46,540.26v16.28H179.6V468.9h66.23v16.27H199.76v19h40.69V520H199.76v20.28Z"/><path d="M343.36,556.54,343.23,504l-25.79,43.32H308.3l-25.66-42.19v51.46h-19V468.9h16.77l32.81,54.46,32.3-54.46h16.65l.25,87.64Z"/><path d="M418.6,468.9h39.81c28.67,0,48.33,17.27,48.33,43.82s-19.66,43.82-48.33,43.82H418.6Zm38.81,71c17.4,0,28.79-10.39,28.79-27.16s-11.39-27.17-28.79-27.17H438.88v54.33Z"/><path d="M600.63,480.92V518c0,25.8-14.77,40.07-39.69,40.07S521.26,543.77,521.26,518V468.9h20.28v48.32c0,16.65,7.26,23.54,19.53,23.54s19.53-6.89,19.53-23.54V468.9h13c4.51,0,7.51-3.26,7.51-7.89a12,12,0,0,0-2.5-7.51l11.52-4.26a20.26,20.26,0,0,1,4,12.52C614.15,471.65,609.27,478.54,600.63,480.92Z"/><path d="M712.68,512.72c0,26.16-20.41,45.32-47.95,45.32s-48-19.28-48-45.32,20.41-45.33,48.83-45.33c9.39,0,16.65,1.76,22.91,1.76s10.26-2.88,10.26-8.27a13.46,13.46,0,0,0-2.5-7.51l11.52-4.25a21.6,21.6,0,0,1,4,12.52c0,9.38-5.13,15.52-13.89,18C706.92,487.3,712.68,499.07,712.68,512.72Zm-20.53,0c0-16.53-11.77-28.05-27.42-28.05s-27.42,11.39-27.42,28.05,11.9,28,27.42,28S692.15,529.24,692.15,512.72Zm-41.57-51.46h-9.89c.25-11.14,5.89-18.28,14.65-18.28s13,8,17.53,8c3.38,0,5.76-2.63,6-6.76h9.89c-.25,10.77-5.89,17.91-14.65,17.91s-13-7.89-17.53-7.89C653.21,454.25,650.83,456.75,650.58,461.26Z"/><path d="M808.33,468.9v87.64H791.68L748,503.33v53.21H728V468.9h16.78l43.57,53.21V468.9Z"/><path d="M888.33,511.34h18.53v35.55C897.22,554.16,884,558,871.43,558c-27.55,0-47.83-18.91-47.83-45.32s20.28-45.33,48.2-45.33c15.4,0,28.17,5.26,36.69,15.15l-13,12a29.68,29.68,0,0,0-22.67-9.89c-17,0-28.67,11.39-28.67,28.05,0,16.4,11.65,28,28.42,28A32.15,32.15,0,0,0,888.33,537Z"/><path d="M961.06,468.9h39.82c28.67,0,48.32,17.27,48.32,43.82s-19.65,43.82-48.32,43.82H961.06Zm38.82,71c17.4,0,28.79-10.39,28.79-27.16s-11.39-27.17-28.79-27.17H981.35v54.33Z"/><path d="M1120.94,537.76h-40.69l-7.76,18.78H1051.7l39.07-87.64h20L1150,556.54H1128.7Zm-6.39-15.4-13.89-33.56-13.9,33.56Z"/><path d="M1274.3,556.54l-.12-52.59-25.79,43.32h-9.14l-25.67-42.19v51.46h-19V468.9h16.78l32.8,54.46,32.3-54.46h16.65l.25,87.64Z"/><path d="M1379.59,556.54l-7.76-18.78h-40.69l-7.76,18.78h-20.79l39.06-87.64h20l39.18,87.64Zm-51-112.81h12.27c.25,5.39,4.89,8.89,10.77,8.89s10.52-3.5,10.77-8.89h12.27c-.5,11.77-10,19-23,19S1329.13,455.5,1328.63,443.73Zm36.81,78.63-13.89-33.56-13.9,33.56Zm-5.13,52.08c0,5.13-3.76,8.39-8.64,8.39s-8.64-3.26-8.64-8.39a8.64,8.64,0,1,1,17.28,0Z"/><path d="M1423.78,485.42h-28V468.9h76.37v16.52h-28v71.12h-20.29Z"/><path d="M78.81,614.23c0-12.14,9.32-20.83,21.86-20.83,7,0,12.77,2.53,16.57,7.13l-6,5.53a13,13,0,0,0-10.13-4.72c-7.54,0-12.88,5.29-12.88,12.89s5.34,12.88,12.88,12.88a12.86,12.86,0,0,0,10.13-4.77l6,5.52c-3.8,4.66-9.61,7.19-16.63,7.19C88.13,635.05,78.81,626.36,78.81,614.23Z"/><path d="M149.22,625.73h-18.7L127,634.36h-9.55l18-40.27h9.2l18,40.27h-9.78Zm-2.93-7.07-6.39-15.42-6.38,15.42Z"/><path d="M173.09,601.68H160.2v-7.59h35.1v7.59H182.41v32.68h-9.32Z"/><path d="M237.23,594.09v40.27h-9.32V617.85H209.62v16.51H200.3V594.09h9.32V610h18.29V594.09Z"/><path d="M266.1,620.09v14.27h-9.31V620L241.2,594.09h9.89L261.85,612l10.75-17.89h9.15Z"/><path d="M301.94,594.09h18.29c13.18,0,22.21,7.94,22.21,20.14s-9,20.13-22.21,20.13H301.94Zm17.83,32.62c8,0,13.23-4.78,13.23-12.48s-5.23-12.49-13.23-12.49h-8.51v25Z"/><path d="M346.92,614.23c0-12,9.32-20.83,22-20.83s22,8.8,22,20.83-9.37,20.82-22,20.82S346.92,626.19,346.92,614.23Zm34.63,0c0-7.66-5.41-12.89-12.6-12.89s-12.6,5.23-12.6,12.89,5.41,12.88,12.6,12.88S381.55,621.88,381.55,614.23Z"/><path d="M398,594.09h9.32v32.68h20.19v7.59H398Z"/><path d="M432.74,594.09h9.32v32.68h20.19v7.59H432.74Z"/><path d="M480.6,630.39l3.16-7a23.66,23.66,0,0,0,13.29,4.2c5.52,0,7.77-1.84,7.77-4.31,0-7.54-23.41-2.36-23.41-17.32,0-6.84,5.52-12.54,17-12.54a27,27,0,0,1,14,3.57L509.48,604a22.85,22.85,0,0,0-11.16-3.16c-5.52,0-7.65,2.07-7.65,4.6,0,7.42,23.41,2.3,23.41,17.09,0,6.73-5.58,12.48-17.09,12.48C490.61,635.05,484.17,633.15,480.6,630.39Z"/><path d="M557.39,594.09v40.27h-7.65l-20.07-24.45v24.45h-9.21V594.09h7.71l20,24.45V594.09Z"/><path d="M593.46,625.73h-18.7l-3.56,8.63h-9.55l18-40.27h9.2l18,40.27H597Zm-2.93-7.07-6.39-15.42-6.39,15.42Z"/><path d="M611,594.09h9.32v40.27H611Z"/><path d="M629.87,594.09h9.32v32.68h20.19v7.59H629.87Z"/><path d="M708.1,613.59h8.51v16.34a27.75,27.75,0,0,1-16.28,5.12c-12.65,0-22-8.69-22-20.82s9.32-20.83,22.15-20.83c7.07,0,12.94,2.42,16.85,7l-6,5.52A13.66,13.66,0,0,0,701,601.34c-7.83,0-13.18,5.23-13.18,12.89s5.35,12.88,13.06,12.88a14.86,14.86,0,0,0,7.25-1.72Z"/><path d="M722.71,614.23c0-12,9.32-20.83,22-20.83s22,8.8,22,20.83-9.37,20.82-22,20.82S722.71,626.19,722.71,614.23Zm34.63,0c0-7.66-5.41-12.89-12.6-12.89s-12.6,5.23-12.6,12.89,5.41,12.88,12.6,12.88S757.34,621.88,757.34,614.23Z"/><path d="M773.79,594.09h9.32v32.68H803.3v7.59H773.79Z"/><path d="M808.53,594.09h18.29C840,594.09,849,602,849,614.23s-9,20.13-22.21,20.13H808.53Zm17.83,32.62c8,0,13.23-4.78,13.23-12.48s-5.23-12.49-13.23-12.49h-8.51v25Z"/><path d="M869.16,630.39l3.16-7a23.64,23.64,0,0,0,13.29,4.2c5.52,0,7.77-1.84,7.77-4.31,0-7.54-23.42-2.36-23.42-17.32,0-6.84,5.52-12.54,17-12.54,5.06,0,10.24,1.21,14,3.57L898,604a22.85,22.85,0,0,0-11.16-3.16c-5.53,0-7.66,2.07-7.66,4.6,0,7.42,23.42,2.3,23.42,17.09,0,6.73-5.58,12.48-17.09,12.48C879.17,635.05,872.72,633.15,869.16,630.39Z"/><path d="M946,594.09v40.27H938.3l-20.08-24.45v24.45H909V594.09h7.71l20,24.45V594.09Z"/><path d="M982,625.73h-18.7l-3.57,8.63h-9.54l17.94-40.27h9.21l18,40.27h-9.78Zm-2.94-7.07-6.38-15.42-6.39,15.42Z"/><path d="M999.56,594.09h9.32v40.27h-9.32Z"/><path d="M1018.43,594.09h9.31v32.68h20.2v7.59h-29.51Z"/><path d="M1078.77,601.57v10.64h18.63v7.48h-18.63v14.67h-9.32V594.09h30.43v7.48Z"/><path d="M1106.2,594.09h9.32v40.27h-9.32Z"/><path d="M1150.73,634.36,1143,623.14h-8.57v11.22h-9.32V594.09h17.43c10.76,0,17.49,5.58,17.49,14.61a13.1,13.1,0,0,1-8.29,12.72l9,12.94ZM1142,601.68h-7.59v14H1142c5.7,0,8.57-2.64,8.57-7S1147.68,601.68,1142,601.68Z"/><path d="M1204,634.36l-.06-24.16-11.85,19.9h-4.2l-11.79-19.38v23.64h-8.74V594.09h7.71l15.07,25,14.84-25h7.65l.12,40.27Z"/><path d="M1222.28,594.09h9.32v40.27h-9.32Z"/><path d="M1278.08,594.09v40.27h-7.65l-20.08-24.45v24.45h-9.2V594.09h7.7l20,24.45V594.09Z"/><path d="M1314.83,613.59h8.52v16.34a27.77,27.77,0,0,1-16.28,5.12c-12.66,0-22-8.69-22-20.82s9.32-20.83,22.15-20.83c7.08,0,12.94,2.42,16.86,7l-6,5.52a13.63,13.63,0,0,0-10.41-4.54c-7.82,0-13.17,5.23-13.17,12.89s5.35,12.88,13.06,12.88a14.8,14.8,0,0,0,7.24-1.72Z"/><path d="M1345.72,614.23c0-12.14,9.32-20.83,21.86-20.83,7,0,12.77,2.53,16.57,7.13l-6,5.53a13,13,0,0,0-10.13-4.72c-7.53,0-12.88,5.29-12.88,12.89s5.35,12.88,12.88,12.88a12.86,12.86,0,0,0,10.13-4.77l6,5.52c-3.8,4.66-9.61,7.19-16.63,7.19C1355,635.05,1345.72,626.36,1345.72,614.23Z"/><path d="M1416.07,634.36l-7.76-11.22h-8.58v11.22h-9.31V594.09h17.43c10.75,0,17.48,5.58,17.48,14.61a13.1,13.1,0,0,1-8.28,12.72l9,12.94Zm-8.74-32.68h-7.6v14h7.6c5.69,0,8.57-2.64,8.57-7S1413,601.68,1407.33,601.68Z"/><path d="M1463.87,626.88v7.48h-31.18V594.09h30.43v7.48H1442v8.74h18.69v7.25H1442v9.32Z"/><path d="M1497.81,625.73h-18.7l-3.56,8.63H1466l18-40.27h9.2l18,40.27h-9.78Zm-2.93-7.07-6.39-15.42-6.38,15.42Z"/><path d="M1552,634.36l-.06-24.16-11.85,19.9h-4.2l-11.79-19.38v23.64h-8.75V594.09h7.71l15.07,25,14.84-25h7.65l.12,40.27Z"/><path d="M1595.88,601.57v10.64h18.64v7.48h-18.64v14.67h-9.32V594.09H1617v7.48Z"/><path d="M1620.39,614.23c0-12,9.32-20.83,22-20.83s22,8.8,22,20.83-9.38,20.82-22,20.82S1620.39,626.19,1620.39,614.23Zm34.63,0c0-7.66-5.41-12.89-12.6-12.89s-12.6,5.23-12.6,12.89,5.41,12.88,12.6,12.88S1655,621.88,1655,614.23Z"/><path d="M1697.12,634.36l-7.76-11.22h-8.57v11.22h-9.32V594.09h17.43c10.75,0,17.48,5.58,17.48,14.61a13.1,13.1,0,0,1-8.28,12.72l9,12.94Zm-8.74-32.68h-7.59v14h7.59c5.69,0,8.57-2.64,8.57-7S1694.07,601.68,1688.38,601.68Z"/><path d="M142.2,671.92,129,712.18H119l-8.86-27.26L101,712.18h-10L77.83,671.92H87.5l9.09,28.3,9.49-28.3h8.63l9.2,28.53,9.38-28.53Z"/><path d="M173,712.18,165.27,701H156.7v11.21h-9.32V671.92h17.43c10.75,0,17.49,5.58,17.49,14.61A13.08,13.08,0,0,1,174,699.24l9,12.94Zm-8.74-32.67H156.7v14h7.59c5.69,0,8.57-2.65,8.57-7S170,679.51,164.29,679.51Z"/><path d="M189.66,671.92H199v40.26h-9.31Z"/><path d="M245.45,671.92v40.26H237.8l-20.07-24.44v24.44h-9.21V671.92h7.71l20,24.44V671.92Z"/><path d="M269.67,696.36,264.26,702v10.18H255V671.92h9.26v18.81l17.83-18.81h10.36l-16.68,17.94,17.66,22.32H282.55Z"/><path d="M297.57,671.92h9.31v32.67h20.2v7.59H297.57Z"/><path d="M363.49,704.71v7.47H332.31V671.92h30.43v7.47H341.57v8.75h18.7v7.25h-18.7v9.32Z"/><path d="M384,708.21l3.16-7a23.74,23.74,0,0,0,13.29,4.2c5.52,0,7.77-1.84,7.77-4.32,0-7.53-23.41-2.36-23.41-17.31,0-6.85,5.52-12.54,17-12.54,5.06,0,10.23,1.2,14,3.56l-2.87,7.08a22.76,22.76,0,0,0-11.16-3.17c-5.52,0-7.65,2.07-7.65,4.61,0,7.42,23.41,2.3,23.41,17.08,0,6.73-5.58,12.48-17.09,12.48C394,712.87,387.59,711,384,708.21Z"/><path d="M438.55,696.36,433.14,702v10.18h-9.26V671.92h9.26v18.81L451,671.92h10.35l-16.68,17.94,17.66,22.32H451.44Z"/><path d="M466.45,671.92h9.32v40.26h-9.32Z"/><path d="M522.25,671.92v40.26H514.6l-20.08-24.44v24.44h-9.21V671.92H493l20,24.44V671.92Z"/><path d="M109.24,855.18c0,7.13-5.23,13.34-16.74,13.34-5.58,0-11.45-1.55-15.36-4.31l3.68-7.13a19.39,19.39,0,0,0,11.45,3.62c4.66,0,7.54-2,7.54-5.24s-2.07-5.23-9.38-5.23H80.13l2.08-22.67h24.56V835H90l-.63,7.65h3.28C104.52,842.69,109.24,848,109.24,855.18Z"/><path d="M113,847.7c0-13.29,7.36-20.83,17.25-20.83s17.26,7.54,17.26,20.83-7.3,20.82-17.26,20.82S113,861,113,847.7Zm25.13,0c0-9.15-3.22-12.94-7.88-12.94s-7.82,3.79-7.82,12.94,3.22,12.94,7.82,12.94S138.17,856.85,138.17,847.7Z"/><path d="M181.83,847.07h8.52V863.4a27.77,27.77,0,0,1-16.28,5.12c-12.66,0-22-8.68-22-20.82s9.32-20.83,22.15-20.83c7.08,0,12.94,2.42,16.86,7l-6,5.53a13.62,13.62,0,0,0-10.41-4.55c-7.82,0-13.17,5.24-13.17,12.89s5.35,12.88,13.05,12.88a14.84,14.84,0,0,0,7.25-1.72Z"/><g id="_Rectangle_" data-name="&lt;Rectangle&gt;"><rect class="cls-1" x="77" y="60.49" width="921" height="272"/></g><path class="cls-2" d="M259.8,213.14a30.85,30.85,0,0,1-3.55,15.15A31.93,31.93,0,0,1,247,238.84,40.91,40.91,0,0,1,234.06,245a52.94,52.94,0,0,1-14.56,2,60.13,60.13,0,0,1-14.11-1.66,44.68,44.68,0,0,1-12.53-5.06,35.6,35.6,0,0,1-16.23-21.66l23.55-6.19a18.94,18.94,0,0,0,6.19,9.29,17.71,17.71,0,0,0,11.92,4,20.78,20.78,0,0,0,5.51-.76,15,15,0,0,0,5-2.34,12.28,12.28,0,0,0,5.06-10.49A11.6,11.6,0,0,0,232,205.4a13.43,13.43,0,0,0-5-4.3,24.52,24.52,0,0,0-7-2.27,46.23,46.23,0,0,0-7.85-.67h-6.79V179.74h7.4a43.3,43.3,0,0,0,6.94-.53,18.35,18.35,0,0,0,6-2A10.64,10.64,0,0,0,231.42,167q0-5.78-4.07-8.81a15.29,15.29,0,0,0-9.36-3,14.47,14.47,0,0,0-9.43,3.25,14.92,14.92,0,0,0-5.21,8.67l-23.55-5.43a34.94,34.94,0,0,1,5.89-11.85,36.41,36.41,0,0,1,9.28-8.45,43,43,0,0,1,11.7-5.13,48.82,48.82,0,0,1,13-1.74,52.71,52.71,0,0,1,13.81,1.82,37.16,37.16,0,0,1,12,5.59,29.46,29.46,0,0,1,8.52,9.45,26.4,26.4,0,0,1,3.25,13.37,22.86,22.86,0,0,1-5.06,15.05,24.67,24.67,0,0,1-12.9,8.23v.46a27.38,27.38,0,0,1,8.3,3.39,26.71,26.71,0,0,1,6.49,5.57,25,25,0,0,1,4.23,7.24A24,24,0,0,1,259.8,213.14Z"/><path class="cls-2" d="M357.14,208.87a38.52,38.52,0,0,1-3.47,17,34,34,0,0,1-9.28,11.85,40.13,40.13,0,0,1-13.21,7,50.22,50.22,0,0,1-15.24,2.34,49.7,49.7,0,0,1-13.81-1.89,44.06,44.06,0,0,1-11.92-5.36,36,36,0,0,1-9.21-8.53,34,34,0,0,1-5.66-11.39l23.09-7.09a18,18,0,0,0,6.27,9.2,18.2,18.2,0,0,0,22.18-.3q4.75-3.93,4.76-11.62a14.63,14.63,0,0,0-2-7.85,15.18,15.18,0,0,0-5.05-5.06,21.23,21.23,0,0,0-7-2.64,41.74,41.74,0,0,0-7.85-.75,77,77,0,0,0-13.05,1.28,75.92,75.92,0,0,0-13.06,3.4l2.57-61.13h65.5v21.74h-43l-.91,16.9a32.62,32.62,0,0,1,5.36-.83c2-.15,3.75-.23,5.36-.23A52.56,52.56,0,0,1,333.6,177a34.5,34.5,0,0,1,12.3,6.41,30.7,30.7,0,0,1,8.22,10.64A34,34,0,0,1,357.14,208.87Z"/><path class="cls-2" d="M457.51,172.65a43.61,43.61,0,0,1-3.32,17.28,100.57,100.57,0,0,1-8.59,15.77l-25.79,38.49H389.2l26.58-36.83.3-.45a19.17,19.17,0,0,1-3.69.9,25.19,25.19,0,0,1-3.84.31,36.3,36.3,0,0,1-13.41-2.49,34,34,0,0,1-18.83-18.11,34.61,34.61,0,0,1-2.87-14.27,38.76,38.76,0,0,1,3.32-16.3,35.54,35.54,0,0,1,9-12.22,39.9,39.9,0,0,1,13.4-7.62,51.76,51.76,0,0,1,32.7,0,39.19,39.19,0,0,1,13.33,7.62,36.38,36.38,0,0,1,9,12.07A37,37,0,0,1,457.51,172.65Zm-25.21-.3a17.52,17.52,0,0,0-4.47-12q-4.47-5.06-12.2-5.06t-12.36,4.76q-4.62,4.75-4.62,12.45a16.67,16.67,0,0,0,4.54,12q4.56,4.75,12.14,4.75t12.27-4.68Q432.31,179.89,432.3,172.35Z"/><path class="cls-2" d="M487.69,262.9H467.32L478.64,220h23.69Z"/><path class="cls-2" d="M600.13,190.46A99.92,99.92,0,0,1,597.87,212a55.18,55.18,0,0,1-7.24,18,37.55,37.55,0,0,1-12.91,12.37q-7.92,4.61-19.24,4.61t-19.32-4.61a38,38,0,0,1-13.06-12.37,54.2,54.2,0,0,1-7.32-18,99.92,99.92,0,0,1-2.26-21.58A98.87,98.87,0,0,1,518.78,169a52.52,52.52,0,0,1,7.32-17.81A37.84,37.84,0,0,1,539.16,139q8-4.53,19.32-4.53T577.72,139a37.38,37.38,0,0,1,12.91,12.15A53.46,53.46,0,0,1,597.87,169,98.87,98.87,0,0,1,600.13,190.46Zm-26,0q0-5-.6-11a55.25,55.25,0,0,0-2.26-11.24,24.5,24.5,0,0,0-4.76-8.76,10.2,10.2,0,0,0-8.07-3.54,10.44,10.44,0,0,0-8.15,3.54,24.58,24.58,0,0,0-4.91,8.76,51.45,51.45,0,0,0-2.34,11.24q-.6,6-.6,11,0,5.13.6,11.24A51.45,51.45,0,0,0,545.42,213a24.67,24.67,0,0,0,4.91,8.76,10.44,10.44,0,0,0,8.15,3.54,10.2,10.2,0,0,0,8.07-3.54,24.58,24.58,0,0,0,4.76-8.76,55.22,55.22,0,0,0,2.26-11.32Q574.17,195.6,574.17,190.46Z"/><path class="cls-2" d="M697.63,190.46A99.92,99.92,0,0,1,695.37,212a55.19,55.19,0,0,1-7.25,18,37.52,37.52,0,0,1-12.9,12.37q-7.92,4.61-19.24,4.61t-19.32-4.61a37.91,37.91,0,0,1-13.06-12.37,54.2,54.2,0,0,1-7.32-18A99.92,99.92,0,0,1,614,190.46,98.87,98.87,0,0,1,616.28,169a52.52,52.52,0,0,1,7.32-17.81A37.75,37.75,0,0,1,636.66,139q8-4.53,19.32-4.53T675.22,139a37.35,37.35,0,0,1,12.9,12.15A53.47,53.47,0,0,1,695.37,169,98.87,98.87,0,0,1,697.63,190.46Zm-26,0q0-5-.6-11a55.25,55.25,0,0,0-2.26-11.24,24.5,24.5,0,0,0-4.76-8.76A10.2,10.2,0,0,0,656,155.9a10.44,10.44,0,0,0-8.15,3.54,24.58,24.58,0,0,0-4.91,8.76,51.45,51.45,0,0,0-2.34,11.24q-.6,6-.6,11,0,5.13.6,11.24A51.45,51.45,0,0,0,642.92,213a24.67,24.67,0,0,0,4.91,8.76,10.44,10.44,0,0,0,8.15,3.54,10.2,10.2,0,0,0,8.07-3.54,24.58,24.58,0,0,0,4.76-8.76,55.22,55.22,0,0,0,2.26-11.32Q671.67,195.6,671.67,190.46Z"/><path class="cls-2" d="M795.13,190.46A99.92,99.92,0,0,1,792.87,212a55.19,55.19,0,0,1-7.25,18,37.52,37.52,0,0,1-12.9,12.37q-7.92,4.61-19.24,4.61t-19.32-4.61a37.91,37.91,0,0,1-13.06-12.37,54.2,54.2,0,0,1-7.32-18,99.92,99.92,0,0,1-2.26-21.58A98.87,98.87,0,0,1,713.78,169a52.52,52.52,0,0,1,7.32-17.81A37.75,37.75,0,0,1,734.16,139q8-4.53,19.32-4.53T772.72,139a37.35,37.35,0,0,1,12.9,12.15A53.47,53.47,0,0,1,792.87,169,98.87,98.87,0,0,1,795.13,190.46Zm-26,0q0-5-.6-11a54.57,54.57,0,0,0-2.27-11.24,24.33,24.33,0,0,0-4.75-8.76,10.2,10.2,0,0,0-8.07-3.54,10.44,10.44,0,0,0-8.15,3.54,24.58,24.58,0,0,0-4.91,8.76,51.45,51.45,0,0,0-2.34,11.24q-.6,6-.6,11,0,5.13.6,11.24A51.45,51.45,0,0,0,740.42,213a24.67,24.67,0,0,0,4.91,8.76,10.44,10.44,0,0,0,8.15,3.54,10.2,10.2,0,0,0,8.07-3.54A24.41,24.41,0,0,0,766.3,213a54.55,54.55,0,0,0,2.27-11.32Q769.17,195.6,769.17,190.46Z"/><path class="cls-2" d="M868.63,244.19v-9.81h-.3A23.46,23.46,0,0,1,858,243.21a33.72,33.72,0,0,1-14.26,3.09A33.29,33.29,0,0,1,828.64,243a34.53,34.53,0,0,1-11.25-8.83,38.74,38.74,0,0,1-7-12.75A47.4,47.4,0,0,1,808,206.31a45.47,45.47,0,0,1,2.49-15,39.09,39.09,0,0,1,7.09-12.6,33.07,33.07,0,0,1,25.89-11.78,28.67,28.67,0,0,1,14,3.17,31.09,31.09,0,0,1,8.91,6.95h.3V158.16H844.18V144.73h22.49V130.09h24.75v14.64h7v13.43h-7v86Zm-.9-37.73a20.69,20.69,0,0,0-4.91-13.29,18.09,18.09,0,0,0-5.66-4.37,16.59,16.59,0,0,0-7.54-1.66,17,17,0,0,0-7.7,1.66,17.3,17.3,0,0,0-9,10.41,22.63,22.63,0,0,0-1.13,7.1,23.23,23.23,0,0,0,1.13,7.16,18.46,18.46,0,0,0,3.39,6.27,16.7,16.7,0,0,0,13.29,6,16.72,16.72,0,0,0,7.54-1.66,18.12,18.12,0,0,0,5.66-4.38,19.86,19.86,0,0,0,3.62-6.19A20.2,20.2,0,0,0,867.73,206.46Z"/></svg>