<svg id="Layer_1" data-name="Layer 1" xmlns="http://www.w3.org/2000/svg" viewBox="0 0 996 419"><defs><style>.cls-1{fill:#c90202;}.cls-2{fill:#fff;}</style></defs><title>Image convert 4 (chăm sóc da mặt và tẩy trang) text fix</title><path d="M65.53,205.53a6.87,6.87,0,0,0-2.54-2,7.55,7.55,0,0,0-3.31-.79,7.9,7.9,0,0,0-2,.25,6,6,0,0,0-1.8.76,4.39,4.39,0,0,0-1.33,1.35,3.8,3.8,0,0,0-.52,2A3.56,3.56,0,0,0,54.5,209a4.17,4.17,0,0,0,1.24,1.31,8.29,8.29,0,0,0,1.91.94c.75.27,1.58.54,2.48.81s2.08.71,3.17,1.13a12.3,12.3,0,0,1,3,1.66,8.38,8.38,0,0,1,2.25,2.61,8,8,0,0,1,.87,3.92,10,10,0,0,1-.94,4.47A9.22,9.22,0,0,1,66,229a10.75,10.75,0,0,1-3.69,1.89,15.56,15.56,0,0,1-4.46.63,16.81,16.81,0,0,1-6.07-1.15A11.78,11.78,0,0,1,46.9,227L51,223.21a8.12,8.12,0,0,0,3.13,2.57,8.75,8.75,0,0,0,3.84.94,8.48,8.48,0,0,0,2-.25,5.35,5.35,0,0,0,1.87-.83,4.83,4.83,0,0,0,1.35-1.46,4.29,4.29,0,0,0,.51-2.18,3.59,3.59,0,0,0-.58-2.1,5.38,5.38,0,0,0-1.58-1.44,11.58,11.58,0,0,0-2.34-1.05l-2.83-.95a28.09,28.09,0,0,1-2.88-1.08,9.63,9.63,0,0,1-2.59-1.66A8.11,8.11,0,0,1,49,211.17a8.65,8.65,0,0,1-.72-3.75,8.21,8.21,0,0,1,1-4.19,8.77,8.77,0,0,1,2.65-2.9,11.63,11.63,0,0,1,3.74-1.71,16.05,16.05,0,0,1,4.25-.56,15.18,15.18,0,0,1,4.93.85,12.08,12.08,0,0,1,4.34,2.57Z"/><path d="M100.49,219a13.05,13.05,0,0,1-1,5.19,11.61,11.61,0,0,1-2.7,3.94,12,12,0,0,1-4,2.5,15.13,15.13,0,0,1-10.17,0,12.15,12.15,0,0,1-4.07-2.5,11.08,11.08,0,0,1-2.7-3.94,13.23,13.23,0,0,1-1-5.19V198.87h5.67V218.8a10.91,10.91,0,0,0,.36,2.77A6.9,6.9,0,0,0,82.06,224a6.19,6.19,0,0,0,2.21,1.76,8.94,8.94,0,0,0,6.79,0A6.19,6.19,0,0,0,93.27,224a6.9,6.9,0,0,0,1.19-2.45,10.91,10.91,0,0,0,.36-2.77V198.87H98a3.54,3.54,0,0,0,2.81-.93,3.86,3.86,0,0,0,.79-2.58,5.84,5.84,0,0,0-.2-1.47,4.56,4.56,0,0,0-.57-1.28l4.64-1.17a7.16,7.16,0,0,1,.63,1.82,11.11,11.11,0,0,1,.18,2.1,6.48,6.48,0,0,1-1.55,4.72,6,6,0,0,1-4.26,1.67Zm-21.1-22.86a14,14,0,0,1,.52-2.12,6.11,6.11,0,0,1,.92-1.82A4.61,4.61,0,0,1,82.29,191a4.31,4.31,0,0,1,2.14-.5,7.69,7.69,0,0,1,1.82.23,10.33,10.33,0,0,1,1.73.58c.6.24,1.15.44,1.64.61a4.4,4.4,0,0,0,1.29.25,1.67,1.67,0,0,0,1.37-.57,3.63,3.63,0,0,0,.7-1.32h3a13.83,13.83,0,0,1-.52,2.11,6.11,6.11,0,0,1-.92,1.82A4.57,4.57,0,0,1,93,195.45a4.25,4.25,0,0,1-2.13.49,6.85,6.85,0,0,1-1.89-.27,15.87,15.87,0,0,1-1.8-.63,14.18,14.18,0,0,0-1.53-.58,4.33,4.33,0,0,0-1.26-.23,1.69,1.69,0,0,0-1.38.59,3.92,3.92,0,0,0-.69,1.35Z"/><path d="M117.68,198.87h4.91l13.72,31.86h-6.48l-3-7.29H113.05l-2.88,7.29h-6.35Zm7.2,19.71-4.9-13-5,13Z"/><path d="M149.9,198.87H161a19.7,19.7,0,0,1,4.37.47,11,11,0,0,1,3.75,1.55,8.09,8.09,0,0,1,2.64,2.84,8.56,8.56,0,0,1,1,4.27,8.13,8.13,0,0,1-2,5.65,9.87,9.87,0,0,1-5.33,2.95l8.5,14.13h-6.84l-7.38-13.5h-4.14v13.5H149.9Zm10.31,13.72a16.56,16.56,0,0,0,2.43-.18,7,7,0,0,0,2.18-.67,4.36,4.36,0,0,0,1.6-1.42,4.11,4.11,0,0,0,.63-2.36,3.63,3.63,0,0,0-.59-2.14,4.3,4.3,0,0,0-1.48-1.33,6.18,6.18,0,0,0-2-.67,14.35,14.35,0,0,0-2.23-.18h-5.13v9Z"/><path d="M203.59,219a13.05,13.05,0,0,1-1,5.19,11.61,11.61,0,0,1-2.7,3.94,12,12,0,0,1-4.05,2.5,15.13,15.13,0,0,1-10.17,0,12.29,12.29,0,0,1-4.08-2.5,11.18,11.18,0,0,1-2.69-3.94,13.23,13.23,0,0,1-1-5.19V198.87h5.67V218.8a10.91,10.91,0,0,0,.36,2.77,6.74,6.74,0,0,0,1.19,2.45,6.15,6.15,0,0,0,2.2,1.76,9,9,0,0,0,6.8,0,6.15,6.15,0,0,0,2.2-1.76,6.76,6.76,0,0,0,1.2-2.45,10.91,10.91,0,0,0,.36-2.77V198.87h3.19a3.57,3.57,0,0,0,2.82-.93,3.86,3.86,0,0,0,.78-2.58,5.42,5.42,0,0,0-.2-1.47,4.28,4.28,0,0,0-.56-1.28l4.63-1.17a7.16,7.16,0,0,1,.63,1.82,11.11,11.11,0,0,1,.18,2.1,6.44,6.44,0,0,1-1.55,4.72,6,6,0,0,1-4.25,1.67Zm-14.54-22.19a3.62,3.62,0,0,1,.45-1.91,4.58,4.58,0,0,1,1.76-1.46,2,2,0,0,0,1.26-1.67c0-.93-.53-1.39-1.58-1.39a1.84,1.84,0,0,0-1.37.47,2.91,2.91,0,0,0-.65,1.6l-3.56-.45a4.78,4.78,0,0,1,1.85-3.24,6.33,6.33,0,0,1,3.82-1.08,5.69,5.69,0,0,1,3.78,1.14,3.52,3.52,0,0,1,1.35,2.77,3.72,3.72,0,0,1-.56,2.07,4.26,4.26,0,0,1-1.82,1.44,2.68,2.68,0,0,0-1.06.77,1.52,1.52,0,0,0-.29.94Z"/><path d="M220.78,198.87h4.9l13.73,31.86h-6.48l-3-7.29H216.14l-2.88,7.29h-6.34Zm7.2,19.71-4.91-13-5,13Z"/><path d="M253,198.87h8.86l8.28,22.63h.14l8.19-22.63h8.91v31.86h-5.63V205.12h-.09L272,230.73h-4l-9.54-25.61h-.09v25.61H253Z"/><path d="M304.39,198.87h4.9L323,230.73h-6.48l-3-7.29H299.75l-2.88,7.29h-6.34Zm-2.16-9a3,3,0,0,0,1.62,2.34,6.83,6.83,0,0,0,3,.63,7.17,7.17,0,0,0,3.06-.54,3.46,3.46,0,0,0,1.62-2.43h3a6.78,6.78,0,0,1-2.4,4.9,8.45,8.45,0,0,1-5.29,1.58,8.58,8.58,0,0,1-5.31-1.56,6.3,6.3,0,0,1-2.3-4.92Zm9.36,28.71-4.91-13-5,13Zm-8.15,18.76a3.08,3.08,0,0,1,1-2.27,3.29,3.29,0,0,1,2.45-1,3.59,3.59,0,0,1,2.5.92,3.17,3.17,0,0,1,0,4.64,3.59,3.59,0,0,1-2.5.92,3.29,3.29,0,0,1-2.45-1A3.08,3.08,0,0,1,303.44,237.34Z"/><path d="M332.6,203.82h-9.76v-4.95H348v4.95h-9.77v26.91H332.6Z"/><path d="M367.25,203.82h-9.76v-4.95h25.2v4.95h-9.77v26.91h-5.67Z"/><path d="M396.37,198.87h4.9L415,230.73h-6.48l-3-7.29H391.73l-2.88,7.29h-6.34Zm7.2,19.71-4.91-13-5,13Zm-8.15,18.76a3.08,3.08,0,0,1,1-2.27,3.31,3.31,0,0,1,2.45-1,3.59,3.59,0,0,1,2.5.92,3.17,3.17,0,0,1,0,4.64,3.59,3.59,0,0,1-2.5.92,3.31,3.31,0,0,1-2.45-1A3.08,3.08,0,0,1,395.42,237.34Z"/><path d="M416.62,214.71a17.91,17.91,0,0,1,1.28-6.91,15.12,15.12,0,0,1,3.56-5.24,15.65,15.65,0,0,1,5.4-3.33,19.25,19.25,0,0,1,6.81-1.17,19.66,19.66,0,0,1,6.89,1.17,15.92,15.92,0,0,1,5.44,3.33,14.9,14.9,0,0,1,3.58,5.24,17.73,17.73,0,0,1,1.28,6.91,17.43,17.43,0,0,1-1.28,6.81,15.56,15.56,0,0,1-3.58,5.31,16.24,16.24,0,0,1-5.44,3.47,18.8,18.8,0,0,1-6.89,1.24,18.41,18.41,0,0,1-6.81-1.24,16,16,0,0,1-5.4-3.47,15.8,15.8,0,0,1-3.56-5.31A17.62,17.62,0,0,1,416.62,214.71Zm6.16,0a13.4,13.4,0,0,0,.79,4.7,10.83,10.83,0,0,0,2.25,3.71,10.18,10.18,0,0,0,3.47,2.45,10.82,10.82,0,0,0,4.43.88,11,11,0,0,0,4.45-.88,10.16,10.16,0,0,0,3.49-2.45,11,11,0,0,0,2.25-3.71,13.63,13.63,0,0,0,.79-4.7,13.17,13.17,0,0,0-.79-4.59,11.11,11.11,0,0,0-2.23-3.69,10.3,10.3,0,0,0-3.46-2.48,11,11,0,0,0-4.5-.9,10.8,10.8,0,0,0-4.48.9,10.42,10.42,0,0,0-3.44,2.48,11.11,11.11,0,0,0-2.23,3.69A12.94,12.94,0,0,0,422.78,214.71Z"/><path d="M467.6,198.87H480a15.26,15.26,0,0,1,3.56.42,9,9,0,0,1,3.12,1.4,7.37,7.37,0,0,1,2.23,2.5,7.46,7.46,0,0,1,.86,3.69,6.52,6.52,0,0,1-1.53,4.45,8.52,8.52,0,0,1-4,2.52v.09a8.35,8.35,0,0,1,4.95,2.34,7,7,0,0,1,1.94,5.18,8.55,8.55,0,0,1-1,4.38,8.29,8.29,0,0,1-2.72,2.86,11.68,11.68,0,0,1-3.87,1.55,20.59,20.59,0,0,1-4.43.48H467.6Zm5.67,13h5a7.06,7.06,0,0,0,4.32-1.13,3.77,3.77,0,0,0,1.49-3.19,3.26,3.26,0,0,0-1.53-3.06,9.73,9.73,0,0,0-4.77-.9h-4.55Zm0,14.13h5.09a20,20,0,0,0,2.34-.16,7.73,7.73,0,0,0,2.31-.65,4.56,4.56,0,0,0,1.76-1.44,4.18,4.18,0,0,0,.7-2.52,3.71,3.71,0,0,0-1.71-3.51,10.62,10.62,0,0,0-5.18-1h-5.31Z"/><path d="M495.19,214.71a17.73,17.73,0,0,1,1.28-6.91,15.1,15.1,0,0,1,3.55-5.24,15.84,15.84,0,0,1,5.4-3.33,19.34,19.34,0,0,1,6.82-1.17,19.66,19.66,0,0,1,6.89,1.17,15.92,15.92,0,0,1,5.44,3.33,15,15,0,0,1,3.58,5.24,17.91,17.91,0,0,1,1.28,6.91,17.62,17.62,0,0,1-1.28,6.81,15.7,15.7,0,0,1-3.58,5.31,16.24,16.24,0,0,1-5.44,3.47,18.8,18.8,0,0,1-6.89,1.24,18.5,18.5,0,0,1-6.82-1.24,16.16,16.16,0,0,1-5.4-3.47,15.77,15.77,0,0,1-3.55-5.31A17.43,17.43,0,0,1,495.19,214.71Zm6.16,0a13.4,13.4,0,0,0,.79,4.7,10.83,10.83,0,0,0,2.25,3.71,10.24,10.24,0,0,0,3.46,2.45,11.67,11.67,0,0,0,8.89,0,10.26,10.26,0,0,0,3.49-2.45,11.15,11.15,0,0,0,2.25-3.71,13.63,13.63,0,0,0,.79-4.7,13.17,13.17,0,0,0-.79-4.59,11.28,11.28,0,0,0-2.23-3.69,10.3,10.3,0,0,0-3.46-2.48,11,11,0,0,0-4.5-.9,10.8,10.8,0,0,0-4.48.9,10.32,10.32,0,0,0-3.44,2.48,11.11,11.11,0,0,0-2.23,3.69A12.94,12.94,0,0,0,501.35,214.71Zm7.74,22.63a3.08,3.08,0,0,1,1-2.27,3.29,3.29,0,0,1,2.45-1,3.61,3.61,0,0,1,2.5.92,3.17,3.17,0,0,1,0,4.64,3.61,3.61,0,0,1-2.5.92,3.29,3.29,0,0,1-2.45-1A3.08,3.08,0,0,1,509.09,237.34Z"/><path d="M541.36,203.82h-9.77v-4.95h25.2v4.95H547v26.91h-5.67Z"/><path d="M570.65,198.87H582a25,25,0,0,1,6.25.81,16.27,16.27,0,0,1,5.67,2.67,14,14,0,0,1,4.1,4.91,16.25,16.25,0,0,1,1.57,7.54A15.36,15.36,0,0,1,598,222a14.75,14.75,0,0,1-4.1,4.95,17,17,0,0,1-5.67,2.85,22,22,0,0,1-6.25.93h-11.3Zm10.4,26.91a19.53,19.53,0,0,0,4.41-.52,11.53,11.53,0,0,0,4-1.76,9.33,9.33,0,0,0,2.9-3.35,11.31,11.31,0,0,0,1.13-5.35,12.06,12.06,0,0,0-1.13-5.58,9.1,9.1,0,0,0-2.9-3.38,10.82,10.82,0,0,0-4-1.66,22,22,0,0,0-4.41-.45h-4.73v22.05Z"/><path d="M630.41,219a13.05,13.05,0,0,1-1,5.19,11.61,11.61,0,0,1-2.7,3.94,12,12,0,0,1-4.05,2.5,15.13,15.13,0,0,1-10.17,0,12.15,12.15,0,0,1-4.07-2.5,11.08,11.08,0,0,1-2.7-3.94,13.23,13.23,0,0,1-1-5.19V198.87h5.67V218.8a10.91,10.91,0,0,0,.36,2.77A6.9,6.9,0,0,0,612,224a6.19,6.19,0,0,0,2.21,1.76,8.94,8.94,0,0,0,6.79,0,6.19,6.19,0,0,0,2.21-1.76,6.9,6.9,0,0,0,1.19-2.45,10.91,10.91,0,0,0,.36-2.77V198.87h3.2a3.54,3.54,0,0,0,2.81-.93,3.86,3.86,0,0,0,.79-2.58,5.44,5.44,0,0,0-.21-1.47,4.28,4.28,0,0,0-.56-1.28l4.64-1.17a7.16,7.16,0,0,1,.63,1.82,11.11,11.11,0,0,1,.18,2.1,6.44,6.44,0,0,1-1.56,4.72,6,6,0,0,1-4.25,1.67Z"/><path d="M672.17,197a6.52,6.52,0,0,1-1.55,4.68,6.09,6.09,0,0,1-4.39,1.71,15.87,15.87,0,0,1,3,5,17.73,17.73,0,0,1,1.08,6.35,17.44,17.44,0,0,1-1.29,6.81,15.53,15.53,0,0,1-3.57,5.31A16.28,16.28,0,0,1,660,230.3a18.75,18.75,0,0,1-6.88,1.24,18.46,18.46,0,0,1-6.82-1.24,16,16,0,0,1-5.4-3.47,15.8,15.8,0,0,1-3.56-5.31,17.62,17.62,0,0,1-1.28-6.81,17.91,17.91,0,0,1,1.28-6.91,15.12,15.12,0,0,1,3.56-5.24,15.65,15.65,0,0,1,5.4-3.33,19.3,19.3,0,0,1,6.82-1.17,19,19,0,0,1,4,.36,21.47,21.47,0,0,1,2.86.81l2.16.81a5.28,5.28,0,0,0,1.89.36,3.41,3.41,0,0,0,2.68-.88,3.87,3.87,0,0,0,.74-2.54,5.84,5.84,0,0,0-.2-1.47,4.55,4.55,0,0,0-.56-1.28l4.63-1.17a7.16,7.16,0,0,1,.63,1.82A11.11,11.11,0,0,1,672.17,197Zm-29.92,17.73a13.63,13.63,0,0,0,.78,4.7,11.15,11.15,0,0,0,2.25,3.71,10.28,10.28,0,0,0,3.47,2.45,10.82,10.82,0,0,0,4.43.88,11,11,0,0,0,4.46-.88,10.12,10.12,0,0,0,3.48-2.45,10.83,10.83,0,0,0,2.25-3.71,13.4,13.4,0,0,0,.79-4.7,12.94,12.94,0,0,0-.79-4.59,11.09,11.09,0,0,0-2.22-3.69,10.34,10.34,0,0,0-3.47-2.48,11,11,0,0,0-4.5-.9,10.83,10.83,0,0,0-4.48.9,10.42,10.42,0,0,0-3.44,2.48,11.28,11.28,0,0,0-2.23,3.69A13.17,13.17,0,0,0,642.25,214.71Zm2.88-18.54a15.22,15.22,0,0,1,.51-2.12,6.37,6.37,0,0,1,.93-1.82A4.51,4.51,0,0,1,648,191a4.29,4.29,0,0,1,2.14-.5,7.69,7.69,0,0,1,1.82.23,10.33,10.33,0,0,1,1.73.58c.6.24,1.15.44,1.64.61a4.4,4.4,0,0,0,1.29.25,1.68,1.68,0,0,0,1.37-.57,3.63,3.63,0,0,0,.7-1.32h3a15.12,15.12,0,0,1-.52,2.11,6.35,6.35,0,0,1-.92,1.82,4.57,4.57,0,0,1-1.47,1.29,4.25,4.25,0,0,1-2.13.49,6.85,6.85,0,0,1-1.89-.27A15.87,15.87,0,0,1,653,195a14.18,14.18,0,0,0-1.53-.58,4.33,4.33,0,0,0-1.26-.23,1.69,1.69,0,0,0-1.38.59,3.92,3.92,0,0,0-.69,1.35Z"/><path d="M675.82,198.87h7.51l14.81,23.85h.09V198.87h5.67v31.86h-7.2l-15.12-24.62h-.09v24.62h-5.67Z"/><path d="M738.82,229.06a24.48,24.48,0,0,1-5.34,1.82,30.27,30.27,0,0,1-6.68.66,19.49,19.49,0,0,1-7.06-1.24,16.17,16.17,0,0,1-5.49-3.47,15.56,15.56,0,0,1-3.58-5.31,18.75,18.75,0,0,1,0-13.72,15.34,15.34,0,0,1,3.65-5.24,16.15,16.15,0,0,1,5.47-3.33,19.49,19.49,0,0,1,6.84-1.17,21,21,0,0,1,7,1.1,14.16,14.16,0,0,1,5.11,2.9l-3.91,4.23a9.7,9.7,0,0,0-3.4-2.29,11.85,11.85,0,0,0-4.75-.95,11.26,11.26,0,0,0-4.57.9,10.28,10.28,0,0,0-3.48,2.48,11.11,11.11,0,0,0-2.23,3.69,12.94,12.94,0,0,0-.79,4.59,13.4,13.4,0,0,0,.79,4.7,10.83,10.83,0,0,0,2.25,3.71,10,10,0,0,0,3.55,2.45,12.12,12.12,0,0,0,4.75.88,16.45,16.45,0,0,0,6.35-1.12v-8.1h-6.71v-4.68h12.2Z"/><path d="M766.94,198.87h4.91l13.72,31.86h-6.48l-3-7.29H762.31l-2.88,7.29h-6.35Zm5.54-2.07-3.11-4.05-3.1,4.05h-5l5.17-6.48h6.08l5.13,6.48Zm1.66,21.78-4.9-13-5,13Zm1.94-26.24a4,4,0,0,1,.33-1.69,3.47,3.47,0,0,1,1.42-1.32,2.91,2.91,0,0,0,.72-.52,1,1,0,0,0,.23-.7.88.88,0,0,0-.3-.65,1.09,1.09,0,0,0-.83-.29q-1.26,0-1.53,1.53l-3.06-.36a3.75,3.75,0,0,1,1.49-2.59,5.12,5.12,0,0,1,3.1-.88,4.73,4.73,0,0,1,3.08.9,2.75,2.75,0,0,1,1.11,2.21,3,3,0,0,1-.48,1.8,3.7,3.7,0,0,1-1.55,1.17,2.11,2.11,0,0,0-.85.65,1.3,1.3,0,0,0-.23.74Z"/><path d="M788.72,198.87h8.87l8.28,22.63H806l8.19-22.63h8.91v31.86h-5.62V205.12h-.09l-9.68,25.61h-4l-9.54-25.61h-.09v25.61h-5.4Z"/><path d="M841.37,198.87h11.3a25,25,0,0,1,6.25.81,16.27,16.27,0,0,1,5.67,2.67,14,14,0,0,1,4.1,4.91,16.25,16.25,0,0,1,1.57,7.54,15.36,15.36,0,0,1-1.57,7.2,14.75,14.75,0,0,1-4.1,4.95,17,17,0,0,1-5.67,2.85,22,22,0,0,1-6.25.93h-11.3Zm10.4,26.91a19.53,19.53,0,0,0,4.41-.52,11.53,11.53,0,0,0,4-1.76,9.33,9.33,0,0,0,2.9-3.35,11.31,11.31,0,0,0,1.13-5.35,12.06,12.06,0,0,0-1.13-5.58,9.1,9.1,0,0,0-2.9-3.38,10.82,10.82,0,0,0-4-1.66,22,22,0,0,0-4.41-.45H847v22.05Z"/><path d="M884.66,198.87h4.91l13.72,31.86h-6.48l-3-7.29H880l-2.88,7.29H870.8Zm7.2,19.71-4.9-13-5,13Z"/><path d="M49.06,248h2.52v10.74H65.09V248h2.52v24.78H65.09V261H51.58v11.73H49.06Z"/><path d="M82.7,272.73H80.18V262.05L70.9,248h3.15l7.46,12L89,248H92l-9.27,14.1Z"/><path d="M93,272.73H90.22L100.93,248h2.45L114,272.73h-2.8l-2.73-6.51H95.68Zm3.64-8.82h10.92l-5.46-13.16Z"/><path d="M146.64,268.7a10.1,10.1,0,0,1-1.52,1.79,9.94,9.94,0,0,1-2.06,1.48,11.63,11.63,0,0,1-2.59,1,12.13,12.13,0,0,1-3.1.38,13.5,13.5,0,0,1-5.18-1,12.09,12.09,0,0,1-6.77-6.83,14.43,14.43,0,0,1,0-10.43,12.35,12.35,0,0,1,6.81-6.82,13.13,13.13,0,0,1,5.13-1,12.64,12.64,0,0,1,2.68.28,12.88,12.88,0,0,1,2.46.8,10.37,10.37,0,0,1,2.1,1.24,7.16,7.16,0,0,1,1.58,1.63l-2.1,1.54a6.43,6.43,0,0,0-1-1.19,6.89,6.89,0,0,0-1.53-1.05,9.36,9.36,0,0,0-1.9-.73,8.36,8.36,0,0,0-2.23-.28,10.29,10.29,0,0,0-4.32.87,9.72,9.72,0,0,0-3.24,2.35,10.51,10.51,0,0,0-2,3.44,12.25,12.25,0,0,0-.7,4.12,11.77,11.77,0,0,0,.72,4.11,10.45,10.45,0,0,0,2,3.44,9.53,9.53,0,0,0,3.24,2.35,10,10,0,0,0,4.28.88,9.72,9.72,0,0,0,4.06-.88,7.64,7.64,0,0,0,3.22-2.8Z"/><path d="M160.12,273.36a9.53,9.53,0,0,1-4.59-1A8.14,8.14,0,0,1,152.7,270a9,9,0,0,1-1.46-3.2,15,15,0,0,1-.4-3.27V248h2.52v15.26a12.35,12.35,0,0,0,.35,2.92,7.42,7.42,0,0,0,1.14,2.52,5.84,5.84,0,0,0,2.08,1.78,6.75,6.75,0,0,0,3.19.69,6.68,6.68,0,0,0,3.18-.69,5.75,5.75,0,0,0,2.08-1.78,7.23,7.23,0,0,0,1.14-2.52,11.85,11.85,0,0,0,.35-2.92V248h2.52v15.54a14.44,14.44,0,0,1-.4,3.27,9,9,0,0,1-1.45,3.2,8.07,8.07,0,0,1-2.86,2.43A9.51,9.51,0,0,1,160.12,273.36Z"/><path d="M187.84,251.94a6.14,6.14,0,0,0-2.07-1.81,6.81,6.81,0,0,0-4.9-.4,5.29,5.29,0,0,0-1.71.86,4.38,4.38,0,0,0-1.25,1.45,4.33,4.33,0,0,0-.47,2.07,3.77,3.77,0,0,0,.46,2,4.27,4.27,0,0,0,1.2,1.31,6.91,6.91,0,0,0,1.71.89c.64.23,1.31.47,2,.7.86.28,1.72.58,2.6.91a9.34,9.34,0,0,1,2.35,1.28,6.11,6.11,0,0,1,1.71,2,6.26,6.26,0,0,1,.67,3.07,6.84,6.84,0,0,1-.71,3.2,6.68,6.68,0,0,1-1.84,2.22,7.65,7.65,0,0,1-2.58,1.3,10.47,10.47,0,0,1-2.92.42,11.28,11.28,0,0,1-2.24-.23,10.27,10.27,0,0,1-2.14-.68,8.72,8.72,0,0,1-1.89-1.16,8.4,8.4,0,0,1-1.54-1.61l2.17-1.61a6.58,6.58,0,0,0,2.26,2.22,6.33,6.33,0,0,0,3.41.9,6.62,6.62,0,0,0,1.93-.3,5.36,5.36,0,0,0,1.76-.91,5,5,0,0,0,1.3-1.51,4.64,4.64,0,0,0,0-4.23,4.63,4.63,0,0,0-1.35-1.44,8.61,8.61,0,0,0-1.92-1c-.73-.26-1.49-.51-2.28-.77s-1.62-.55-2.41-.87a8.33,8.33,0,0,1-2.14-1.28A5.94,5.94,0,0,1,175.5,257a7.09,7.09,0,0,1,.14-5.92,6.52,6.52,0,0,1,1.87-2.13,7.88,7.88,0,0,1,2.56-1.23,10.2,10.2,0,0,1,2.76-.38,9.5,9.5,0,0,1,4.31.89,7.31,7.31,0,0,1,2.69,2.12Z"/><path d="M195.57,248h2.52v10.74H211.6V248h2.52v24.78H211.6V261H198.09v11.73h-2.52Z"/><path d="M223.22,272.73H220.7V248h2.52Z"/><path d="M254.3,260.34a13.62,13.62,0,0,1-1,5.21,12.37,12.37,0,0,1-2.71,4.11,12.56,12.56,0,0,1-4.1,2.72,13.89,13.89,0,0,1-10.25,0,12.56,12.56,0,0,1-4.1-2.72,12.37,12.37,0,0,1-2.71-4.11,14.37,14.37,0,0,1,0-10.43,12.26,12.26,0,0,1,6.81-6.82,13.89,13.89,0,0,1,10.25,0,12.26,12.26,0,0,1,6.81,6.82A13.67,13.67,0,0,1,254.3,260.34Zm-2.66,0a12.09,12.09,0,0,0-.7-4.12,10.34,10.34,0,0,0-2-3.44,9.65,9.65,0,0,0-3.24-2.36,11,11,0,0,0-8.57,0,9.75,9.75,0,0,0-3.24,2.36,10.34,10.34,0,0,0-2,3.44,12.5,12.5,0,0,0,0,8.25,10.15,10.15,0,0,0,2,3.42,9.84,9.84,0,0,0,3.24,2.34,10.87,10.87,0,0,0,8.57,0,9.74,9.74,0,0,0,3.24-2.34,10.15,10.15,0,0,0,2-3.42A12.11,12.11,0,0,0,251.64,260.35Z"/><path d="M277.12,269.05h.07V248h2.52v24.78h-3.15l-14.42-21.32h-.07v21.32h-2.52V248h3.15Z"/><path d="M297.56,272.73H295V248H310v2.24H297.56v8.57h11.55V261H297.56Z"/><path d="M312.65,272.73h-2.77L320.59,248H323l10.64,24.78h-2.8l-2.73-6.51H315.34Zm3.64-8.82h10.92l-5.46-13.16Z"/><path d="M357.55,268.7a10.54,10.54,0,0,1-1.52,1.79A10,10,0,0,1,354,272a11.26,11.26,0,0,1-2.59,1,12,12,0,0,1-3.09.38,13.5,13.5,0,0,1-5.18-1,12.25,12.25,0,0,1-4.1-2.72,12.45,12.45,0,0,1-2.68-4.11,14.5,14.5,0,0,1,0-10.43,12.26,12.26,0,0,1,6.81-6.82,13.1,13.1,0,0,1,5.13-1,12.47,12.47,0,0,1,2.67.28,12.75,12.75,0,0,1,2.47.8,10.37,10.37,0,0,1,2.1,1.24,7.16,7.16,0,0,1,1.58,1.63l-2.1,1.54a6.15,6.15,0,0,0-1-1.19,6.82,6.82,0,0,0-1.52-1.05,9.23,9.23,0,0,0-1.91-.73,8.28,8.28,0,0,0-2.22-.28,10.29,10.29,0,0,0-4.32.87,9.72,9.72,0,0,0-3.24,2.35,10.34,10.34,0,0,0-2,3.44,12,12,0,0,0-.7,4.12,11.77,11.77,0,0,0,.72,4.11,10.45,10.45,0,0,0,2.05,3.44,9.58,9.58,0,0,0,3.23,2.35,10.1,10.1,0,0,0,4.29.88,9.76,9.76,0,0,0,4.06-.88,7.7,7.7,0,0,0,3.22-2.8Z"/><path d="M364.41,272.73h-2.52V248h2.52Z"/><path d="M370.82,272.73h-2.77L378.76,248h2.45l10.64,24.78h-2.8l-2.73-6.51H373.51Zm3.64-8.82h10.92l-5.46-13.16Z"/><path d="M398,270.49h11.55v2.24H395.49V248H398Z"/><path d="M423.77,272.73h-2.52V248H436.2v2.24H423.77v8.57h11.55V261H423.77Z"/><path d="M465.42,260.34a13.62,13.62,0,0,1-1,5.21,12.37,12.37,0,0,1-2.71,4.11,12.56,12.56,0,0,1-4.1,2.72,13.89,13.89,0,0,1-10.25,0,12.56,12.56,0,0,1-4.1-2.72,12.37,12.37,0,0,1-2.71-4.11,14.37,14.37,0,0,1,0-10.43,12.26,12.26,0,0,1,6.81-6.82,13.89,13.89,0,0,1,10.25,0,12.26,12.26,0,0,1,6.81,6.82A13.67,13.67,0,0,1,465.42,260.34Zm-2.66,0a12.09,12.09,0,0,0-.7-4.12,10.34,10.34,0,0,0-2-3.44,9.75,9.75,0,0,0-3.24-2.36,11,11,0,0,0-8.57,0,9.75,9.75,0,0,0-3.24,2.36,10.34,10.34,0,0,0-2,3.44,12.5,12.5,0,0,0,0,8.25,10.15,10.15,0,0,0,2,3.42,9.84,9.84,0,0,0,3.24,2.34,10.87,10.87,0,0,0,8.57,0A9.84,9.84,0,0,0,460,267.9a10.15,10.15,0,0,0,2-3.42A12.11,12.11,0,0,0,462.76,260.35Z"/><path d="M469.87,272.73H467.1L477.81,248h2.45l10.64,24.78h-2.8l-2.73-6.51H472.56Zm3.64-8.82h10.92L479,250.75Z"/><path d="M506.79,268.46h0L515.12,248H519v24.78h-2.52V251.2h-.07l-9,21.53h-1.33l-9-21.53h-.07v21.53h-2.52V248h3.85Z"/><path d="M555.16,268.7a10.54,10.54,0,0,1-1.52,1.79,10.29,10.29,0,0,1-2.07,1.48,11.26,11.26,0,0,1-2.59,1,12,12,0,0,1-3.09.38,13.5,13.5,0,0,1-5.18-1,12.15,12.15,0,0,1-6.78-6.83,14.5,14.5,0,0,1,0-10.43,12.26,12.26,0,0,1,6.81-6.82,13.1,13.1,0,0,1,5.13-1,12.47,12.47,0,0,1,2.67.28,12.75,12.75,0,0,1,2.47.8,10.37,10.37,0,0,1,2.1,1.24,7.16,7.16,0,0,1,1.58,1.63l-2.1,1.54a6.51,6.51,0,0,0-1-1.19,6.82,6.82,0,0,0-1.52-1.05,9.23,9.23,0,0,0-1.91-.73,8.33,8.33,0,0,0-2.22-.28,10.29,10.29,0,0,0-4.32.87,9.72,9.72,0,0,0-3.24,2.35,10.34,10.34,0,0,0-2,3.44,12,12,0,0,0-.7,4.12,11.77,11.77,0,0,0,.72,4.11,10.45,10.45,0,0,0,2,3.44,9.58,9.58,0,0,0,3.23,2.35,10.06,10.06,0,0,0,4.29.88,9.76,9.76,0,0,0,4.06-.88,7.7,7.7,0,0,0,3.22-2.8Z"/><path d="M562,270.49h11.55v2.24H559.5V248H562Z"/><path d="M579.87,270.49h13.26v2.24H577.35V248h15.36v2.24H579.87v8.5h12v2.24h-12Z"/><path d="M597.89,272.73h-2.76L605.84,248h2.45l10.64,24.78h-2.8l-2.73-6.51H600.59Zm3.64-8.82h10.92L607,250.75Z"/><path d="M640.14,269.05h.07V248h2.52v24.78h-3.15l-14.42-21.32h-.07v21.32h-2.52V248h3.15Z"/><path d="M661.31,251.94a6,6,0,0,0-2.06-1.81,6.81,6.81,0,0,0-4.9-.4,5.45,5.45,0,0,0-1.72.86,4.47,4.47,0,0,0-1.24,1.45,4.33,4.33,0,0,0-.47,2.07,3.87,3.87,0,0,0,.45,2,4.31,4.31,0,0,0,1.21,1.31,6.91,6.91,0,0,0,1.71.89c.64.23,1.31.47,2,.7.87.28,1.73.58,2.6.91a9.23,9.23,0,0,1,2.36,1.28,6.11,6.11,0,0,1,1.71,2,6.37,6.37,0,0,1,.66,3.07,6.52,6.52,0,0,1-2.54,5.42,7.74,7.74,0,0,1-2.58,1.3,10.53,10.53,0,0,1-2.93.42,11.43,11.43,0,0,1-2.24-.23,10.37,10.37,0,0,1-2.13-.68,8.72,8.72,0,0,1-1.89-1.16,8.4,8.4,0,0,1-1.54-1.61l2.17-1.61a6.58,6.58,0,0,0,2.26,2.22,6.31,6.31,0,0,0,3.41.9,6.51,6.51,0,0,0,1.92-.3,5.31,5.31,0,0,0,1.77-.91,5,5,0,0,0,1.3-1.51,4.72,4.72,0,0,0,0-4.23,4.63,4.63,0,0,0-1.35-1.44,8.48,8.48,0,0,0-1.93-1c-.72-.26-1.48-.51-2.27-.77s-1.62-.55-2.42-.87a8.44,8.44,0,0,1-2.13-1.28A5.94,5.94,0,0,1,649,257a7.09,7.09,0,0,1,.14-5.92,6.4,6.4,0,0,1,1.87-2.13,7.93,7.93,0,0,1,2.55-1.23,10.32,10.32,0,0,1,2.77-.38,9.45,9.45,0,0,1,4.3.89,7.35,7.35,0,0,1,2.7,2.12Z"/><path d="M671.57,270.49h13.26v2.24H669.05V248h15.36v2.24H671.57v8.5h12v2.24h-12Z"/><path d="M692.29,272.73h-2.52V248h7.28a15.05,15.05,0,0,1,3.38.35,7.69,7.69,0,0,1,2.69,1.13,5.4,5.4,0,0,1,1.77,2,6.85,6.85,0,0,1,.63,3.08A6.05,6.05,0,0,1,703.7,259a6.42,6.42,0,0,1-2,1.31,8.48,8.48,0,0,1-2.52.63l7.25,11.8h-3.08l-6.86-11.59h-4.2Zm0-13.76h4.37a8.42,8.42,0,0,0,4.69-1.1,3.72,3.72,0,0,0,1.65-3.31,4.18,4.18,0,0,0-.46-2.06,3.68,3.68,0,0,0-1.26-1.37,5.62,5.62,0,0,0-2-.77,12.56,12.56,0,0,0-2.55-.24h-4.48Z"/><path d="M55.54,337.06l-4.9,4-2.45-2.9L55.92,332h3.82v24.78h-4.2Z"/><path d="M69.54,352.88l9.55-9.38a11.49,11.49,0,0,0,1.84-2.26,5,5,0,0,0,.68-2.61,3.56,3.56,0,0,0-1.14-2.78,4,4,0,0,0-2.81-1,3.68,3.68,0,0,0-2.87,1.2,5.47,5.47,0,0,0-1.33,3l-4.1-.63a7.68,7.68,0,0,1,.88-2.83A7.8,7.8,0,0,1,72,333.35a8.22,8.22,0,0,1,2.54-1.49,9,9,0,0,1,3.17-.54,10.6,10.6,0,0,1,3.09.45,7.88,7.88,0,0,1,2.65,1.38A6.73,6.73,0,0,1,86,338.56a7.54,7.54,0,0,1-.32,2.22,8.51,8.51,0,0,1-.86,2,12.1,12.1,0,0,1-1.26,1.73A17.81,17.81,0,0,1,82,346.05l-7.14,6.83H86v3.85H69.54Z"/><path d="M107.9,344.34a23.64,23.64,0,0,1-.58,5.42,13.13,13.13,0,0,1-1.68,4.1,7.93,7.93,0,0,1-2.73,2.59,8.12,8.12,0,0,1-7.47,0,8,8,0,0,1-2.77-2.59,12.69,12.69,0,0,1-1.7-4.1,26.1,26.1,0,0,1,0-10.85,12.63,12.63,0,0,1,1.7-4.09,7.86,7.86,0,0,1,2.77-2.59,8.12,8.12,0,0,1,7.47,0,7.83,7.83,0,0,1,2.73,2.59,13.07,13.07,0,0,1,1.68,4.09A23.67,23.67,0,0,1,107.9,344.34Zm-4.31,0a29.44,29.44,0,0,0-.16-2.94,14.15,14.15,0,0,0-.63-3.12,6.9,6.9,0,0,0-1.34-2.47,3.16,3.16,0,0,0-4.59,0,7.07,7.07,0,0,0-1.35,2.47,15.4,15.4,0,0,0-.64,3.12,27.13,27.13,0,0,0-.18,2.94,27.43,27.43,0,0,0,.18,2.94,14.88,14.88,0,0,0,.64,3.08,7.15,7.15,0,0,0,1.35,2.43,3.13,3.13,0,0,0,4.59,0,7,7,0,0,0,1.34-2.43,13.68,13.68,0,0,0,.63-3.08C103.54,346.18,103.59,345.2,103.59,344.34Z"/><path d="M112.55,332h6.9l6.44,17.6h.1l6.37-17.6h6.93v24.78h-4.37V336.81h-.07l-7.53,19.92h-3.08l-7.42-19.92h-.07v19.92h-4.2Z"/><path d="M144.75,332h4.41v20.86H159.7v3.92H144.75Z"/><g id="_Rectangle_" data-name="&lt;Rectangle&gt;"><rect class="cls-1" x="46" y="27.72" width="383" height="113.11"/></g><path class="cls-2" d="M102.18,104.11V71.47l-8.28,6.4L88.44,70.4l14.62-10.73h9.6v44.44Z"/><path class="cls-2" d="M129.23,104.11V95.34l17.33-15.67a16.71,16.71,0,0,0,2.63-3.19,6.81,6.81,0,0,0,1-3.64A5.17,5.17,0,0,0,148.69,69a6.06,6.06,0,0,0-8.32.38,8.39,8.39,0,0,0-2,4.86l-10.11-1.38a15.63,15.63,0,0,1,10.77-13.39,19.33,19.33,0,0,1,6.18-1,21.93,21.93,0,0,1,6,.81,15.66,15.66,0,0,1,5.15,2.52A12.64,12.64,0,0,1,160,66.07a12.83,12.83,0,0,1,1.35,6,13.73,13.73,0,0,1-.63,4.3A14.36,14.36,0,0,1,159,79.94a20.25,20.25,0,0,1-2.51,3c-.94.94-1.91,1.87-2.92,2.79l-10.29,9.16h18.14v9.17Z"/><path class="cls-2" d="M202,89.42a16.05,16.05,0,0,1-1.44,7.06,14.23,14.23,0,0,1-3.86,4.93,16.81,16.81,0,0,1-5.5,2.92,21.35,21.35,0,0,1-12.08.19,18.78,18.78,0,0,1-5-2.23,15,15,0,0,1-3.82-3.55A14.06,14.06,0,0,1,168,94l9.6-3a7.44,7.44,0,0,0,2.61,3.83,7.57,7.57,0,0,0,9.23-.12,5.93,5.93,0,0,0,2-4.84,6.13,6.13,0,0,0-.81-3.26,6.32,6.32,0,0,0-2.11-2.1,8.54,8.54,0,0,0-2.91-1.1,17.24,17.24,0,0,0-3.27-.31,31.37,31.37,0,0,0-5.43.53,30.59,30.59,0,0,0-5.43,1.41l1.07-25.42h27.24v9H181.89l-.37,7a13.78,13.78,0,0,1,2.22-.35c.82-.06,1.56-.09,2.23-.09a21.76,21.76,0,0,1,6.28.88,14.16,14.16,0,0,1,5.11,2.67,12.56,12.56,0,0,1,3.42,4.42A14.13,14.13,0,0,1,202,89.42Z"/><path class="cls-2" d="M215.78,111.89h-8.47L212,94.07h9.85Z"/><path class="cls-2" d="M262.54,81.76a41.49,41.49,0,0,1-.94,9,22.91,22.91,0,0,1-3,7.5,15,15,0,0,1-13.37,7.06,15.15,15.15,0,0,1-13.46-7.06,22.32,22.32,0,0,1-3-7.5,42.12,42.12,0,0,1-.94-9,41.61,41.61,0,0,1,.94-8.94,21.83,21.83,0,0,1,3-7.41,15.74,15.74,0,0,1,5.43-5,16.08,16.08,0,0,1,8-1.88,15.91,15.91,0,0,1,8,1.88,15.56,15.56,0,0,1,5.37,5,22.4,22.4,0,0,1,3,7.41A41,41,0,0,1,262.54,81.76Zm-10.79,0c0-1.38-.09-2.9-.25-4.58a23,23,0,0,0-.95-4.67,10.17,10.17,0,0,0-2-3.64,4.24,4.24,0,0,0-3.36-1.48,4.33,4.33,0,0,0-3.39,1.48,10.12,10.12,0,0,0-2,3.64,21.11,21.11,0,0,0-1,4.67,45.63,45.63,0,0,0-.25,4.58c0,1.43.08,3,.25,4.68a21.36,21.36,0,0,0,1,4.71,10.3,10.3,0,0,0,2,3.64,4.35,4.35,0,0,0,3.39,1.47,4.26,4.26,0,0,0,3.36-1.47,10.34,10.34,0,0,0,2-3.64,23.24,23.24,0,0,0,.95-4.71C251.66,84.75,251.75,83.19,251.75,81.76Z"/><path class="cls-2" d="M303.09,81.76a42.12,42.12,0,0,1-.94,9,22.92,22.92,0,0,1-3,7.5,14.92,14.92,0,0,1-13.37,7.06,15.93,15.93,0,0,1-8-1.91,15.75,15.75,0,0,1-5.43-5.15,22.51,22.51,0,0,1-3-7.5,41.49,41.49,0,0,1-.94-9,41,41,0,0,1,.94-8.94,22,22,0,0,1,3-7.41,15.74,15.74,0,0,1,5.43-5,18,18,0,0,1,16,0,15.62,15.62,0,0,1,5.36,5,22.42,22.42,0,0,1,3,7.41A41.61,41.61,0,0,1,303.09,81.76Zm-10.8,0a45.63,45.63,0,0,0-.25-4.58,23,23,0,0,0-.94-4.67,10,10,0,0,0-2-3.64,4.22,4.22,0,0,0-3.36-1.48,4.29,4.29,0,0,0-3.38,1.48,10.12,10.12,0,0,0-2,3.64,21.11,21.11,0,0,0-1,4.67,45.63,45.63,0,0,0-.25,4.58c0,1.43.08,3,.25,4.68a21.35,21.35,0,0,0,1,4.71,10.3,10.3,0,0,0,2,3.64,4.31,4.31,0,0,0,3.38,1.47,4.25,4.25,0,0,0,3.36-1.47,10.2,10.2,0,0,0,2-3.64,23.25,23.25,0,0,0,.94-4.71C292.21,84.75,292.29,83.19,292.29,81.76Z"/><path class="cls-2" d="M343.63,81.76a41.49,41.49,0,0,1-.94,9,22.91,22.91,0,0,1-3,7.5,15,15,0,0,1-13.37,7.06,15.15,15.15,0,0,1-13.46-7.06,22.32,22.32,0,0,1-3.05-7.5,42.12,42.12,0,0,1-.94-9,41.61,41.61,0,0,1,.94-8.94,21.83,21.83,0,0,1,3.05-7.41,15.74,15.74,0,0,1,5.43-5,16.08,16.08,0,0,1,8-1.88,15.91,15.91,0,0,1,8,1.88,15.56,15.56,0,0,1,5.37,5,22.4,22.4,0,0,1,3,7.41A41,41,0,0,1,343.63,81.76Zm-10.79,0c0-1.38-.09-2.9-.25-4.58a23,23,0,0,0-.95-4.67,10.17,10.17,0,0,0-2-3.64,4.24,4.24,0,0,0-3.36-1.48,4.33,4.33,0,0,0-3.39,1.48,10.12,10.12,0,0,0-2,3.64,21.11,21.11,0,0,0-1,4.67,45.63,45.63,0,0,0-.25,4.58c0,1.43.08,3,.25,4.68a21.36,21.36,0,0,0,1,4.71,10.3,10.3,0,0,0,2,3.64,4.35,4.35,0,0,0,3.39,1.47,4.26,4.26,0,0,0,3.36-1.47,10.34,10.34,0,0,0,2-3.64,23.24,23.24,0,0,0,.95-4.71C332.75,84.75,332.84,83.19,332.84,81.76Z"/><path class="cls-2" d="M374.2,104.11V100h-.13a9.77,9.77,0,0,1-4.3,3.67,14,14,0,0,1-5.93,1.29,13.83,13.83,0,0,1-6.27-1.38,14.36,14.36,0,0,1-4.68-3.68,16,16,0,0,1-2.92-5.3,19.71,19.71,0,0,1-1-6.28,18.91,18.91,0,0,1,1-6.24A16.4,16.4,0,0,1,353,76.87,13.78,13.78,0,0,1,363.72,72a11.88,11.88,0,0,1,5.83,1.32,13,13,0,0,1,3.71,2.89h.12V68.33H364V62.75h9.35V56.66h10.3v6.09h2.88v5.58h-2.88v35.78Zm-.38-15.69a8.54,8.54,0,0,0-.53-3,8.43,8.43,0,0,0-1.51-2.58,7.54,7.54,0,0,0-2.35-1.82,6.94,6.94,0,0,0-3.14-.69,7.08,7.08,0,0,0-3.2.69,7.28,7.28,0,0,0-2.32,1.79,7.44,7.44,0,0,0-1.42,2.54,9.63,9.63,0,0,0-.47,2.95,9.93,9.93,0,0,0,.47,3,7.72,7.72,0,0,0,1.42,2.6,6.93,6.93,0,0,0,5.52,2.51,6.94,6.94,0,0,0,3.14-.69,7.54,7.54,0,0,0,2.35-1.82,8.38,8.38,0,0,0,1.51-2.57A8.63,8.63,0,0,0,373.82,88.42Z"/></svg>