<svg id="Layer_1" data-name="Layer 1" xmlns="http://www.w3.org/2000/svg" viewBox="0 0 2006 912.99"><defs><style>.cls-1{fill:#c90202;}.cls-2{fill:#fff;}</style></defs><title>Image convert 1 body care fix text</title><path d="M79,525.94l4.79-10.62a35.81,35.81,0,0,0,20.11,6.36c8.36,0,11.75-2.79,11.75-6.53,0-11.4-35.43-3.57-35.43-26.2,0-10.36,8.36-19,25.68-19,7.66,0,15.5,1.83,21.16,5.4l-4.35,10.7a34.44,34.44,0,0,0-16.89-4.78c-8.36,0-11.58,3.13-11.58,7,0,11.23,35.43,3.48,35.43,25.85,0,10.19-8.45,18.89-25.86,18.89C94.15,533,84.4,530.12,79,525.94Z"/><path d="M194,479.37v25.77c0,17.93-10.27,27.85-27.6,27.85s-27.59-9.92-27.59-27.85V471h14.1v33.61c0,11.57,5.05,16.36,13.58,16.36s13.58-4.79,13.58-16.36V471h9.05c3.14,0,5.23-2.26,5.23-5.48a8.37,8.37,0,0,0-1.74-5.22l8-3a14.05,14.05,0,0,1,2.78,8.7C203.4,472.93,200,477.72,194,479.37ZM156.65,465.7h-6.87C150,458,153.87,453,160,453s9.06,5.58,12.19,5.58c2.35,0,4-1.83,4.18-4.7h6.88c-.18,7.48-4.1,12.44-10.19,12.44s-9.05-5.48-12.19-5.48C158.48,460.83,156.83,462.57,156.65,465.7Z"/><path d="M247.88,518.89H219.59L214.2,532H199.75L226.91,471h13.92L268.08,532h-14.8Zm-4.44-10.71-9.66-23.32-9.66,23.32Z"/><path d="M311.69,482.5h-19.5V471h53.1V482.5h-19.5V532h-14.1Z"/><path d="M390,518.89H361.66L356.26,532H341.81L369,471H382.9L410.15,532h-14.8Zm-30-62.76h8.18c.35,2.44,3.48,4.09,7.84,4.09s7.48-1.65,7.83-4.09H392c-.61,6.53-7.06,10.62-16,10.62S360.53,462.66,359.92,456.13Zm25.59,52.05-9.66-23.32-9.66,23.32Zm-7.22-54.66h-9.84L378.11,443H392Z"/><path d="M472,532l-.08-36.56-17.94,30.12h-6.35l-17.85-29.34V532H416.5V471h11.67L451,508.88,473.43,471H485l.18,60.94Z"/><path d="M520.44,501.48c0-18.37,14.1-31.51,33.08-31.51,10.53,0,19.33,3.83,25.07,10.79l-9.05,8.36A19.61,19.61,0,0,0,554.22,482c-11.41,0-19.5,8-19.5,19.5s8.09,19.5,19.5,19.5a19.44,19.44,0,0,0,15.32-7.22l9.05,8.35c-5.74,7-14.54,10.88-25.16,10.88C534.54,533,520.44,519.85,520.44,501.48Z"/><path d="M627,518.89H598.7L593.3,532H578.85L606,471h13.93L647.19,532h-14.8Zm-4.44-10.71-9.66-23.32-9.66,23.32Z"/><path d="M663.12,482.5h-19.5V471h53.1V482.5h-19.5V532h-14.1Z"/><path d="M760.18,471V532h-14.1V507H718.4v25H704.29V471H718.4v24h27.68V471Z"/><path d="M803.88,510.36V532h-14.1V510.19L766.19,471h15l16.28,27.08L813.72,471h13.84Z"/><path d="M858.12,471H885.8c19.93,0,33.6,12,33.6,30.47S905.73,532,885.8,532H858.12Zm27,49.36c12.1,0,20-7.22,20-18.89s-7.92-18.89-20-18.89H872.22v37.78Z"/><path d="M926.19,501.48c0-18.1,14.1-31.51,33.34-31.51s33.34,13.32,33.34,31.51S978.68,533,959.53,533,926.19,519.59,926.19,501.48Zm52.4,0c0-11.58-8.18-19.5-19.06-19.5s-19.06,7.92-19.06,19.5,8.18,19.5,19.06,19.5S978.59,513.06,978.59,501.48Z"/><path d="M1003.49,471h14.1v49.45h30.56V532h-44.66Z"/><path d="M1056.07,471h14.1v49.45h30.56V532h-44.66Z"/><path d="M175.89,575.48,156,636.41H140.81l-13.4-41.26-13.85,41.26H98.5l-20-60.93H93.11l13.75,42.83,14.36-42.83h13.06l13.93,43.17,14.19-43.17Z"/><path d="M239.62,575.48v60.93H225.51v-25H197.83v25h-14.1V575.48h14.1v24h27.68v-24Z"/><path d="M254.07,575.48h14.1v60.93h-14.1Z"/><path d="M295.24,587h-19.5V575.48h53.1V587h-19.5v49.44h-14.1Z"/><path d="M383.6,625.1v11.31H336.42V575.48h46.05v11.31h-32V600h28.29v11H350.43V625.1Z"/><path d="M432.08,587H412.59V575.48h53.1V587h-19.5v49.44H432.08Z"/><path d="M468.56,606c0-18.11,14.1-31.52,33.34-31.52s33.34,13.32,33.34,31.52-14.19,31.51-33.34,31.51S468.56,624.05,468.56,606Zm52.4,0c0-11.58-8.18-19.5-19.06-19.5s-19.06,7.92-19.06,19.5,8.18,19.49,19.06,19.49S521,617.52,521,606Z"/><path d="M560,586.79V602.9h28.21v11.31H560v22.2h-14.1V575.48h46v11.31Z"/><path d="M601,609.6V575.48h14.11v33.6c0,11.58,5,16.36,13.58,16.36s13.58-4.78,13.58-16.36v-33.6h13.93V609.6c0,17.93-10.28,27.86-27.6,27.86S601,627.53,601,609.6Z"/><path d="M750.61,619.79c0,10.53-8.36,16.62-24.38,16.62H694.72V575.48h29.77c15.23,0,23.07,6.35,23.07,15.84a14.66,14.66,0,0,1-8.1,13.41C746.25,606.9,750.61,612.13,750.61,619.79ZM708.73,586.1v14.36h14c6.88,0,10.62-2.44,10.62-7.22s-3.74-7.14-10.62-7.14Zm27.69,32.21c0-5.14-3.92-7.58-11.23-7.58H708.73v15.06h16.46C732.5,625.79,736.42,623.53,736.42,618.31Z"/><path d="M757.48,606c0-18.11,14.11-31.52,33.34-31.52s33.35,13.32,33.35,31.52S810,637.46,790.82,637.46,757.48,624.05,757.48,606Zm52.41,0c0-11.58-8.18-19.5-19.07-19.5s-19.06,7.92-19.06,19.5,8.18,19.49,19.06,19.49S809.89,617.52,809.89,606Z"/><path d="M834.79,575.48h27.68c19.93,0,33.6,12,33.6,30.47s-13.67,30.46-33.6,30.46H834.79Zm27,49.36c12.1,0,20-7.23,20-18.89s-7.92-18.89-20-18.89H848.89v37.78Z"/><path d="M933.33,614.82v21.59H919.22V614.65l-23.59-39.17h15l16.28,27.07,16.27-27.07H957Z"/><path d="M1043.45,619.79c0,10.53-8.36,16.62-24.38,16.62H987.56V575.48h29.77c15.24,0,23.07,6.35,23.07,15.84a14.66,14.66,0,0,1-8.1,13.41C1039.09,606.9,1043.45,612.13,1043.45,619.79Zm-41.87-33.69v14.36h14c6.88,0,10.62-2.44,10.62-7.22s-3.74-7.14-10.62-7.14Zm27.68,32.21c0-5.14-3.92-7.58-11.23-7.58h-16.45v15.06H1018C1025.34,625.79,1029.26,623.53,1029.26,618.31Z"/><path d="M1094.29,623.36H1066l-5.39,13h-14.45l27.16-60.93h13.92l27.25,60.93h-14.8Zm-4.44-10.71-9.67-23.33-9.66,23.33Z"/><path d="M1130.41,587h-19.5V575.48H1164V587h-19.49v49.44h-14.11Z"/><path d="M1227.48,575.48v60.93h-14.11v-25h-27.68v25h-14.1V575.48h14.1v24h27.68v-24Z"/><path d="M1262.73,606c0-18.37,14.1-31.52,33.08-31.52,10.53,0,19.33,3.83,25.07,10.8l-9.05,8.35a19.6,19.6,0,0,0-15.32-7.13c-11.41,0-19.5,8-19.5,19.5s8.09,19.49,19.5,19.49a19.41,19.41,0,0,0,15.32-7.22l9.05,8.36c-5.74,7-14.54,10.88-25.16,10.88C1276.83,637.46,1262.73,624.31,1262.73,606Z"/><path d="M1330.37,575.48h14.1v49.44H1375v11.49h-44.66Z"/><path d="M1430.13,625.1v11.31H1383V575.48h46v11.31h-32V600h28.29v11H1397V625.1Z"/><path d="M1481.49,623.36H1453.2l-5.4,13h-14.45l27.16-60.93h13.93l27.25,60.93h-14.8Zm-4.44-10.71-9.66-23.33-9.67,23.33Z"/><path d="M1563.93,575.48v60.93h-11.58l-30.38-37v37H1508V575.48h11.67l30.29,37v-37Z"/><path d="M1573.59,630.41l4.79-10.62a35.83,35.83,0,0,0,20.11,6.35c8.35,0,11.75-2.78,11.75-6.53,0-11.4-35.43-3.57-35.43-26.2,0-10.36,8.36-19,25.68-19,7.66,0,15.49,1.83,21.15,5.4l-4.35,10.71a34.43,34.43,0,0,0-16.89-4.79c-8.35,0-11.57,3.13-11.57,7,0,11.23,35.42,3.49,35.42,25.86,0,10.18-8.44,18.89-25.85,18.89C1588.74,637.46,1579,634.58,1573.59,630.41Z"/><path d="M1681.1,625.1v11.31h-47.18V575.48h46v11.31h-32V600h28.29v11h-28.29V625.1Z"/><path d="M1731.15,636.41l-11.75-17h-13v17h-14.1V575.48h26.37c16.28,0,26.47,8.44,26.47,22.11,0,9.14-4.62,15.84-12.54,19.24l13.67,19.58ZM1717.92,587h-11.49v21.24h11.49c8.62,0,13-4,13-10.62S1726.54,587,1717.92,587Z"/><path d="M127.67,784.4v9.14L105,845.34H89.71l21.85-49.45H91.37v9.93H78.83V784.4Z"/><path d="M178.5,826.19c0,10.79-7.92,20.19-25.33,20.19-8.44,0-17.32-2.35-23.24-6.53l5.57-10.79a29.35,29.35,0,0,0,17.32,5.48c7.06,0,11.41-3,11.41-7.92,0-4.79-3.14-7.92-14.19-7.92H134.46l3.13-34.3h37.17v11.32H149.34l-1,11.58h5C171.37,807.3,178.5,815.39,178.5,826.19Z"/><path d="M184.25,814.87c0-20.11,11.14-31.51,26.12-31.51s26.11,11.4,26.11,31.51-11.06,31.51-26.11,31.51S184.25,835,184.25,814.87Zm38,0c0-13.84-4.87-19.59-11.92-19.59s-11.84,5.75-11.84,19.59,4.87,19.59,11.84,19.59S222.29,828.71,222.29,814.87Z"/><path d="M302.64,845.34l-.09-36.56L284.62,838.9h-6.36l-17.84-29.34v35.78H247.19V784.4h11.66l22.81,37.87,22.46-37.87H315.7l.17,60.94Z"/><path d="M330.32,784.4h14.1v49.45H375v11.49H330.32Z"/><g id="_Rectangle_" data-name="&lt;Rectangle&gt;"><rect class="cls-1" x="77" y="60.49" width="921" height="272"/></g><path class="cls-2" d="M212.1,244.19V165.71L192.18,181.1l-13.13-18,35.15-25.81h23.11V244.19Z"/><path class="cls-2" d="M355.63,213.7a30.14,30.14,0,0,1-12.12,25.13A38,38,0,0,1,330.7,245a57.46,57.46,0,0,1-30.35,0,39,39,0,0,1-12.73-6.11,30.39,30.39,0,0,1-8.82-10.34,31,31,0,0,1-3.31-14.72,26,26,0,0,1,1.51-9,25.21,25.21,0,0,1,4.15-7.39,28,28,0,0,1,6.11-5.59,27.67,27.67,0,0,1,7.4-3.54V188A26.38,26.38,0,0,1,283,179.67q-4.68-5.82-4.68-14.72a27.7,27.7,0,0,1,3-13.13,28.25,28.25,0,0,1,8.15-9.58,36.29,36.29,0,0,1,11.92-5.81,50.83,50.83,0,0,1,14.19-2,51.86,51.86,0,0,1,14.11,1.89A36.55,36.55,0,0,1,341.6,142a28.6,28.6,0,0,1,8.22,9.43,26.85,26.85,0,0,1,3.1,13.06q0,8.91-4.53,14.94a23.73,23.73,0,0,1-11.77,8.45v.46a26.76,26.76,0,0,1,7.48,3.54,26.19,26.19,0,0,1,10,13A26,26,0,0,1,355.63,213.7Zm-25.2-.9a14.06,14.06,0,0,0-4.15-10.34,14.41,14.41,0,0,0-10.64-4.15,14.71,14.71,0,0,0-10.79,4.07,14,14,0,0,0-4.15,10.42,13.39,13.39,0,0,0,4.15,10.33A15.2,15.2,0,0,0,315.64,227c4.42,0,8-1.28,10.71-3.85S330.43,217.12,330.43,212.8Zm-2-46.49a11.36,11.36,0,0,0-3.78-8.75,12.87,12.87,0,0,0-9.05-3.48,12.42,12.42,0,0,0-9.21,3.48,11.87,11.87,0,0,0-3.47,8.75,12.83,12.83,0,0,0,3.4,8.9,11.83,11.83,0,0,0,9.28,3.78,12.18,12.18,0,0,0,9.2-3.78A12.4,12.4,0,0,0,328.47,166.31Z"/><path class="cls-2" d="M455.09,172.65a43.6,43.6,0,0,1-3.31,17.28,100.66,100.66,0,0,1-8.6,15.77l-25.79,38.49H386.78l26.58-36.83.3-.45a18.81,18.81,0,0,1-3.69.9,25,25,0,0,1-3.84.31,36.3,36.3,0,0,1-13.41-2.49,34.06,34.06,0,0,1-11.15-7.1A34.26,34.26,0,0,1,371,173.25a38.76,38.76,0,0,1,3.31-16.3,35.54,35.54,0,0,1,9-12.22,40,40,0,0,1,13.41-7.62,51.73,51.73,0,0,1,32.69,0,39.09,39.09,0,0,1,13.33,7.62,36.4,36.4,0,0,1,9,12.07A37,37,0,0,1,455.09,172.65Zm-25.2-.3a17.52,17.52,0,0,0-4.47-12q-4.47-5.06-12.21-5.06t-12.35,4.76q-4.64,4.75-4.63,12.45a16.67,16.67,0,0,0,4.55,12q4.55,4.75,12.13,4.75t12.28-4.68Q429.89,179.89,429.89,172.35Z"/><path class="cls-2" d="M485.28,262.9H464.9L476.22,220h23.7Z"/><path class="cls-2" d="M597.72,190.46A99.92,99.92,0,0,1,595.45,212a55,55,0,0,1-7.24,18,37.52,37.52,0,0,1-12.9,12.37q-7.93,4.61-19.25,4.61t-19.32-4.61a38,38,0,0,1-13-12.37,54.2,54.2,0,0,1-7.32-18,99.92,99.92,0,0,1-2.27-21.58A98.86,98.86,0,0,1,516.37,169a52.52,52.52,0,0,1,7.32-17.81,37.81,37.81,0,0,1,13-12.15q8-4.53,19.32-4.53T575.31,139a37.35,37.35,0,0,1,12.9,12.15A53.25,53.25,0,0,1,595.45,169,98.86,98.86,0,0,1,597.72,190.46Zm-26,0q0-5-.6-11a55.24,55.24,0,0,0-2.27-11.24,24.48,24.48,0,0,0-4.75-8.76,10.24,10.24,0,0,0-8.08-3.54,10.45,10.45,0,0,0-8.15,3.54,24.57,24.57,0,0,0-4.9,8.76,51.45,51.45,0,0,0-2.34,11.24c-.4,4-.61,7.7-.61,11s.21,7.17.61,11.24A51.45,51.45,0,0,0,543,213a24.65,24.65,0,0,0,4.9,8.76,10.45,10.45,0,0,0,8.15,3.54,10.24,10.24,0,0,0,8.08-3.54,24.57,24.57,0,0,0,4.75-8.76,55.21,55.21,0,0,0,2.27-11.32Q571.76,195.6,571.76,190.46Z"/><path class="cls-2" d="M695.22,190.46A99.92,99.92,0,0,1,693,212a55.18,55.18,0,0,1-7.24,18,37.52,37.52,0,0,1-12.9,12.37q-7.93,4.61-19.25,4.61t-19.32-4.61a38,38,0,0,1-13-12.37,54,54,0,0,1-7.32-18,99.92,99.92,0,0,1-2.27-21.58A98.86,98.86,0,0,1,613.87,169a52.32,52.32,0,0,1,7.32-17.81,37.81,37.81,0,0,1,13-12.15q8-4.53,19.32-4.53T672.81,139a37.35,37.35,0,0,1,12.9,12.15A53.46,53.46,0,0,1,693,169,98.86,98.86,0,0,1,695.22,190.46Zm-26,0a109.5,109.5,0,0,0-.61-11,54.58,54.58,0,0,0-2.26-11.24,24.48,24.48,0,0,0-4.75-8.76,10.24,10.24,0,0,0-8.08-3.54,10.44,10.44,0,0,0-8.15,3.54,24.57,24.57,0,0,0-4.9,8.76,51.45,51.45,0,0,0-2.34,11.24,109.5,109.5,0,0,0-.61,11q0,5.13.61,11.24A51.45,51.45,0,0,0,640.51,213a24.65,24.65,0,0,0,4.9,8.76,10.44,10.44,0,0,0,8.15,3.54,10.24,10.24,0,0,0,8.08-3.54,24.57,24.57,0,0,0,4.75-8.76,54.56,54.56,0,0,0,2.26-11.32Q669.26,195.6,669.26,190.46Z"/><path class="cls-2" d="M792.72,190.46A99.92,99.92,0,0,1,790.45,212a55.18,55.18,0,0,1-7.24,18,37.46,37.46,0,0,1-12.91,12.37q-7.92,4.61-19.24,4.61t-19.32-4.61a38,38,0,0,1-13-12.37,54,54,0,0,1-7.32-18,99.92,99.92,0,0,1-2.27-21.58A98.86,98.86,0,0,1,711.37,169a52.32,52.32,0,0,1,7.32-17.81,37.81,37.81,0,0,1,13-12.15q8-4.53,19.32-4.53T770.3,139a37.29,37.29,0,0,1,12.91,12.15A53.46,53.46,0,0,1,790.45,169,98.86,98.86,0,0,1,792.72,190.46Zm-26,0c0-3.32-.21-7-.61-11a55.25,55.25,0,0,0-2.26-11.24,24.48,24.48,0,0,0-4.75-8.76,10.24,10.24,0,0,0-8.08-3.54,10.44,10.44,0,0,0-8.15,3.54A24.73,24.73,0,0,0,738,168.2a52,52,0,0,0-2.33,11.24,109.5,109.5,0,0,0-.61,11q0,5.13.61,11.24A52,52,0,0,0,738,213a24.82,24.82,0,0,0,4.91,8.76,10.44,10.44,0,0,0,8.15,3.54,10.24,10.24,0,0,0,8.08-3.54,24.57,24.57,0,0,0,4.75-8.76,55.22,55.22,0,0,0,2.26-11.32C766.55,197.63,766.76,193.88,766.76,190.46Z"/><path class="cls-2" d="M866.22,244.19v-9.81h-.3a23.57,23.57,0,0,1-10.34,8.83,33.76,33.76,0,0,1-14.27,3.09A33.35,33.35,0,0,1,826.22,243,34.49,34.49,0,0,1,815,234.15a38.74,38.74,0,0,1-7-12.75,47.4,47.4,0,0,1-2.41-15.09,45.47,45.47,0,0,1,2.49-15,39.09,39.09,0,0,1,7.09-12.6A33.07,33.07,0,0,1,841,166.91a28.71,28.71,0,0,1,14,3.17A31.17,31.17,0,0,1,864,177h.31V158.16H841.77V144.73h22.49V130.09H889v14.64H896v13.43H889v86Zm-.91-37.73a20.61,20.61,0,0,0-4.9-13.29,18.09,18.09,0,0,0-5.66-4.37,16.63,16.63,0,0,0-7.55-1.66,17,17,0,0,0-7.7,1.66,17.39,17.39,0,0,0-9,10.41,22.92,22.92,0,0,0-1.13,7.1,23.53,23.53,0,0,0,1.13,7.16,18.48,18.48,0,0,0,3.4,6.27,16.66,16.66,0,0,0,13.28,6,16.76,16.76,0,0,0,7.55-1.66,18.12,18.12,0,0,0,5.66-4.38,20.05,20.05,0,0,0,3.62-6.19A20.41,20.41,0,0,0,865.31,206.46Z"/></svg>