<?xml version="1.0" encoding="utf-8"?>
<!-- Generator: Adobe Illustrator 22.1.0, SVG Export Plug-In . SVG Version: 6.00 Build 0)  -->
<svg version="1.1" id="Layer_1" xmlns="http://www.w3.org/2000/svg" xmlns:xlink="http://www.w3.org/1999/xlink" x="0px" y="0px"
	 viewBox="0 0 987 408" style="enable-background:new 0 0 987 408;" xml:space="preserve">
<style type="text/css">
	.st0{fill:#C90202;}
	.st1{fill:#FFFFFF;}
</style>
<title>Image convert 3</title>
<path d="M45.5,238.4l2.5-5.6c3.7,2.7,8.1,4.2,12.7,4.2c6,0,8.5-2.2,8.5-5c0-8.3-22.9-2.9-22.9-17.2c0-6.2,5-11.5,15.5-11.5
	c4.5-0.1,8.9,1.1,12.8,3.4l-2.3,5.6c-3.2-1.9-6.9-2.9-10.6-3c-5.9,0-8.4,2.3-8.4,5.2c0,8.2,22.8,2.9,22.8,17c0,6.2-5,11.4-15.6,11.4
	C54.6,243,48.6,241.1,45.5,238.4z"/>
<path d="M116.7,208.6v17.1c0,11.2-6.3,17.3-16.8,17.3S83,236.9,83,225.7v-21.7h7.2v21.4c0,7.9,3.6,11.3,9.8,11.3s9.7-3.4,9.7-11.3
	v-21.4h4.6c1.8,0.1,3.3-1.2,3.4-3c0-0.2,0-0.3,0-0.5c0-1.2-0.4-2.4-1.1-3.4l4.2-1.5c1.1,1.5,1.7,3.3,1.7,5.2
	C122.4,204.8,120.3,207.7,116.7,208.6z M93.7,200.5H90c0.1-4.5,2.4-7.4,5.9-7.4s5.5,3.6,7.5,3.6c1.5,0,2.6-1.2,2.7-3.1h3.7
	c-0.1,4.3-2.4,7.2-5.9,7.2s-5.5-3.6-7.5-3.6C94.8,197.2,93.8,198.4,93.7,200.5L93.7,200.5z"/>
<path d="M151.4,233.5h-19.2l-3.8,8.9H121l17.3-38.5h7l17.4,38.5h-7.5L151.4,233.5z M149,227.9l-7.3-16.8l-7.2,16.8H149z"/>
<path d="M190.6,210h-12.8v-6.1h32.7v6.1h-12.8v32.4h-7.1L190.6,210z"/>
<path d="M238.9,233.5h-19.2l-3.8,8.9h-7.4l17.3-38.5h7l17.4,38.5h-7.5L238.9,233.5z M219.9,194.9h4.4c0.2,1.7,2.3,2.7,5.1,2.7
	s4.9-1,5.1-2.7h4.4c-0.4,3.9-4.2,6.3-9.5,6.3S220.2,198.8,219.9,194.9z M236.6,227.9l-7.3-16.8l-7.2,16.8H236.6z M230.4,193.4h-5.3
	l6.3-6.4h7.4L230.4,193.4z"/>
<path d="M290.5,242.4v-25.5L277.8,238h-3.2L262,217.2v25.2h-6.8v-38.5h5.9l15.3,25.5l15-25.5h5.9l0.1,38.5H290.5z"/>
<path d="M320.1,223.2c0-11.5,8.8-19.8,20.6-19.8c6.3,0,11.7,2.3,15.2,6.4l-4.6,4.3c-2.6-2.9-6.4-4.6-10.3-4.5
	c-8,0-13.8,5.6-13.8,13.5s5.8,13.5,13.8,13.5c3.9,0.1,7.7-1.6,10.3-4.6l4.6,4.4c-3.6,4.2-9,6.4-15.3,6.4
	C328.9,243,320.1,234.7,320.1,223.2z"/>
<path d="M387,233.5h-19.3l-3.7,8.9h-7.4l17.3-38.5h7l17.4,38.5h-7.5L387,233.5z M384.6,227.9l-7.3-16.8l-7.2,16.8H384.6z"/>
<path d="M409.1,210h-12.8v-6.1H429v6.1h-12.8v32.4h-7.1V210z"/>
<path d="M468.6,203.9v38.5h-7.1v-16.5h-19.9v16.5h-7.1v-38.5h7.1v15.9h19.9v-15.9H468.6z"/>
<path d="M495.6,228.9v13.6h-7.1V229l-15.1-25h7.6l11.3,18.8l11.4-18.8h7L495.6,228.9z"/>
<path d="M530.5,203.9h16.8c12.5,0,21,7.7,21,19.2s-8.5,19.2-21,19.2h-16.8V203.9z M547,236.4c8.6,0,14.1-5.2,14.1-13.2
	S555.6,210,547,210h-9.3v26.4L547,236.4z"/>
<path d="M573.2,223.2c0-11.4,8.8-19.8,20.7-19.8s20.7,8.4,20.7,19.8s-8.8,19.8-20.7,19.8S573.2,234.6,573.2,223.2z M607.4,223.2
	c0-7.5-6.1-13.5-13.5-13.5s-13.5,6.1-13.5,13.5c0,0,0,0,0,0c0,7.5,6.1,13.5,13.5,13.5S607.4,230.7,607.4,223.2
	C607.4,223.2,607.4,223.2,607.4,223.2z"/>
<path d="M622.2,203.9h7.2v32.4h20.1v6h-27.3V203.9z"/>
<path d="M655.2,203.9h7.2v32.4h20.1v6h-27.3V203.9z"/>
<path d="M728.5,242.4l-7.9-11.3c-0.5,0-1,0.1-1.5,0.1h-8.7v11.2h-7.2v-38.5h15.8c10.1,0,16.4,5.2,16.4,13.7
	c0.2,5.4-3.1,10.3-8.2,12.2l8.8,12.7H728.5z M718.8,210h-8.3v15.3h8.3c6.3,0,9.5-2.9,9.5-7.7S725.1,210,718.8,210z"/>
<path d="M772.4,236.4v6h-28.9v-38.5h28.1v6h-21v10h18.6v5.9h-18.5v10.6H772.4z"/>
<path d="M805.3,233.5h-19.2l-3.8,8.9h-7.4l17.3-38.5h7l17.4,38.5h-7.5L805.3,233.5z M803,227.9l-7.3-16.8l-7.2,16.8H803z"/>
<path d="M821.5,203.9h16.8c12.5,0,21,7.7,21,19.2s-8.5,19.2-21,19.2h-16.8V203.9z M838,236.4c8.6,0,14.1-5.2,14.1-13.2
	S846.6,210,838,210h-9.3v26.4L838,236.4z"/>
<path d="M881.9,228.9v13.6h-7.2V229l-15.1-25h7.6l11.3,18.8l11.4-18.8h7L881.9,228.9z"/>
<path d="M942,236.4v6h-28.4v-4.7l15.3-14.5c3.7-3.6,4.4-5.8,4.4-8c0-3.5-2.4-5.6-7.2-5.6c-3.7,0-6.9,1.3-9,4l-5-3.9
	c3-4,8.3-6.4,14.6-6.4c8.4,0,13.8,4.2,13.8,11.1c0,3.7-1,7.1-6.4,12.1l-10.3,9.8L942,236.4z"/>
<path d="M105,269.9l-12.8,38.5h-7.6L75.1,280l-9.7,28.5h-7.6L45,269.9h7.4l9.6,29.3l10-29.3h6.6l9.7,29.4l9.8-29.4H105z"/>
<path d="M145,269.9v38.5h-7.1v-16.5H118v16.5h-7.2v-38.5h7.2v15.9h19.9v-15.9H145z"/>
<path d="M155.3,269.9h7.1v38.5h-7.1V269.9z"/>
<path d="M180.7,276h-12.8v-6h32.7v6h-12.8v32.5h-7.1V276z"/>
<path d="M234.9,302.4v6H206v-38.5h28.1v6h-21v10h18.6v5.9h-18.6v10.6H234.9z"/>
<path d="M255.3,289.2c0-11.4,8.8-19.8,20.7-19.8s20.7,8.4,20.7,19.8S287.9,309,276,309S255.3,300.6,255.3,289.2z M289.5,289.2
	c0-7.5-6.1-13.5-13.5-13.5s-13.5,6.1-13.5,13.5s6.1,13.5,13.5,13.5l0,0c7.2,0.2,13.3-5.5,13.5-12.7
	C289.5,289.7,289.5,289.5,289.5,289.2z"/>
<path d="M338.5,269.9v38.5h-5.9l-21.2-26.1v26.1h-7.1v-38.5h5.9l21.2,26.1v-26.1H338.5z"/>
<path d="M377.8,302.4v6h-28.9v-38.5H377v6h-21v10h18.6v5.9H356v10.6H377.8z"/>
<path d="M400.9,269.9h16.8c12.5,0,21,7.7,21,19.2s-8.5,19.2-21,19.2h-16.8V269.9z M417.4,302.4c8.6,0,14.1-5.2,14.1-13.2
	S426,276,417.4,276h-9.4v26.4L417.4,302.4z"/>
<path d="M470.8,299.5h-19.2l-3.8,8.9h-7.4l17.3-38.5h7l17.4,38.5h-7.5L470.8,299.5z M468.4,293.9l-7.3-16.8l-7.2,16.8H468.4z"/>
<path d="M501.3,294.9v13.6h-7.1V295L479,270h7.6l11.3,18.8l11.4-18.8h7L501.3,294.9z"/>
<path d="M592.5,269.9l-12.8,38.5h-7.6l-9.5-28.4l-9.7,28.5h-7.7L532.5,270h7.5l9.6,29.3l10-29.3h6.6l9.7,29.4l9.8-29.4L592.5,269.9z
	"/>
<path d="M632.5,269.9v38.5h-7.2v-16.5h-19.9v16.5h-7.2v-38.5h7.2v15.9h19.9v-15.9H632.5z"/>
<path d="M642.8,269.9h7.2v38.5h-7.2V269.9z"/>
<path d="M668.2,276h-12.8v-6h32.7v6h-12.8v32.5h-7.2L668.2,276z"/>
<path d="M722.4,302.4v6h-28.9v-38.5h28.1v6h-21v10h18.6v5.9h-18.5v10.6H722.4z"/>
<path d="M764.6,269.9v38.5h-5.9l-21.2-26.1v26.1h-7.1v-38.5h5.9l21.2,26.1v-26.1H764.6z"/>
<path d="M803.8,302.4v6h-28.9v-38.5H803v6h-21v10h18.6v5.9h-18.5v10.6H803.8z"/>
<path d="M836.9,308.4l-7.9-11.3c-0.5,0-1,0.1-1.5,0.1h-8.7v11.2h-7.2v-38.5h15.8c10.1,0,16.4,5.2,16.4,13.7
	c0.2,5.4-3.1,10.3-8.2,12.2l8.8,12.6H836.9z M827.3,276h-8.3v15.3h8.3c6.3,0,9.5-2.9,9.5-7.7C836.8,278.8,833.5,276,827.3,276z"/>
<path d="M82.9,364c0,6.6-5.2,10.5-15.1,10.5H48.7V336h18c9.2,0,14.2,3.9,14.2,10c0.1,3.5-1.8,6.8-5,8.5
	C80.2,355.6,83.1,359.6,82.9,364z M55.8,341.5v10.6H66c5,0,7.8-1.8,7.8-5.3s-2.8-5.3-7.8-5.3H55.8z M75.7,363.3
	c0-3.9-2.9-5.6-8.3-5.6H55.8v11.1h11.5C72.8,368.8,75.7,367.1,75.7,363.3z"/>
<path d="M87.8,355.2c0-11.4,8.8-19.8,20.7-19.8s20.7,8.4,20.7,19.8s-8.8,19.8-20.7,19.8S87.8,366.6,87.8,355.2z M122.1,355.2
	c0-7.5-6.1-13.5-13.5-13.5S95,347.7,95,355.2s6.1,13.5,13.5,13.5l0,0c7.2,0.2,13.3-5.5,13.5-12.7
	C122.1,355.7,122.1,355.5,122.1,355.2z"/>
<path d="M136.9,335.9h16.8c12.5,0,21,7.7,21,19.2s-8.5,19.2-21,19.2h-16.8V335.9z M153.4,368.4c8.6,0,14.1-5.2,14.1-13.2
	s-5.6-13.2-14.1-13.2H144v26.4L153.4,368.4z"/>
<path d="M197.2,360.9v13.6h-7.1V361L175,336h7.6l11.3,18.8l11.4-18.8h7L197.2,360.9z"/>
<path d="M229.4,355.2c0-11.5,8.8-19.8,20.6-19.8c6.3,0,11.7,2.3,15.2,6.4l-4.6,4.3c-2.6-2.9-6.4-4.6-10.3-4.5
	c-8,0-13.7,5.6-13.7,13.5s5.8,13.5,13.7,13.5c3.9,0.1,7.7-1.6,10.3-4.6l4.6,4.4c-3.6,4.2-9,6.4-15.3,6.4
	C238.2,375,229.4,366.7,229.4,355.2z"/>
<path d="M272.2,335.9h7.1v32.5h20.1v6h-27.3V335.9z"/>
<path d="M334,368.4v6h-28.9v-38.5h28.1v6h-21v10h18.6v5.9h-18.6v10.6H334z"/>
<path d="M366.9,365.5h-19.2l-3.8,8.9h-7.4l17.3-38.5h7l17.4,38.5h-7.5L366.9,365.5z M364.6,359.9l-7.3-16.8l-7.2,16.8H364.6z"/>
<path d="M417.4,335.9v38.5h-5.9l-21.2-26.1v26.1h-7.1v-38.5h5.9l21.3,26.1v-26.1H417.4z"/>
<path d="M424.5,370.4l2.5-5.6c3.7,2.7,8.1,4.2,12.7,4.2c6,0,8.5-2.1,8.5-5c0-8.3-22.9-2.9-22.9-17.1c0-6.2,4.9-11.5,15.5-11.5
	c4.5-0.1,8.9,1.1,12.8,3.4l-2.3,5.6c-3.2-1.9-6.9-2.9-10.6-3c-5.9,0-8.4,2.3-8.4,5.2c0,8.2,22.8,2.9,22.8,17c0,6.2-5,11.4-15.6,11.4
	C433.6,375,427.6,373.1,424.5,370.4z"/>
<path d="M491.2,368.4v6h-28.9v-38.5h28.1v6h-21v10H488v5.9h-18.6v10.6H491.2z"/>
<path d="M524.3,374.4l-7.9-11.3c-0.5,0-1,0.1-1.5,0.1h-8.7v11.2h-7.1v-38.5H515c10.1,0,16.4,5.2,16.4,13.7
	c0.2,5.4-3.1,10.4-8.2,12.2l8.8,12.6H524.3z M514.7,342h-8.4v15.3h8.4c6.3,0,9.5-2.9,9.5-7.7C524.2,344.8,520.9,342,514.7,342z"/>
<path d="M586.1,365.7h-6.8v8.8h-6.9v-8.8h-21.1v-5l19-24.8h7.6L560,359.6h12.6v-7.8h6.7v7.8h6.8L586.1,365.7z"/>
<path d="M616.9,362.6c0,6.8-4.9,12.4-15.2,12.4c-5.4,0-10.9-1.6-14.5-4.5l3-5.6c3.2,2.5,7.2,3.8,11.3,3.8c5.1,0,8.1-2.2,8.1-5.9
	s-2.4-6-10.3-6h-9.3l2-20.9h22.6v6h-16.5l-0.8,8.9h3.7C612.4,350.8,616.9,355.8,616.9,362.6z"/>
<path d="M621.1,355.2c0-12.6,6.9-19.8,16.1-19.8s16.1,7.1,16.1,19.8s-6.9,19.8-16.1,19.8S621.1,367.8,621.1,355.2z M646.1,355.2
	c0-9.3-3.6-13.6-8.9-13.6s-8.8,4.3-8.8,13.6s3.6,13.6,8.8,13.6S646,364.5,646.1,355.2L646.1,355.2z"/>
<path d="M696.2,374.4l-0.1-25.5L683.5,370h-3.2l-12.6-20.8v25.2h-6.8v-38.5h5.9l15.3,25.6l15-25.5h5.9l0,38.5H696.2z"/>
<path d="M713.4,335.9h7.2v32.5h20.1v6h-27.3V335.9z"/>
<g id="_Rectangle_">
	<rect x="47.4" y="40.9" class="st0" width="383" height="113.1"/>
</g>
<g>
	<path class="st1" d="M89.1,119.4V83.3l-9.2,7.1l-6-8.3L90,70.2h10.6v49.2H89.1z"/>
	<path class="st1" d="M154.8,105.1c0,2.7-0.5,5-1.6,7c-1.1,2-2.5,3.6-4.3,4.9c-1.8,1.3-3.7,2.2-5.9,2.8c-2.2,0.6-4.4,0.9-6.7,0.9
		c-2.2,0-4.4-0.3-6.5-0.8c-2.1-0.5-4-1.3-5.8-2.3c-1.7-1-3.3-2.4-4.6-4c-1.3-1.6-2.3-3.6-2.9-5.9l10.8-2.9c0.5,1.6,1.4,3,2.9,4.3
		c1.4,1.2,3.3,1.8,5.5,1.8c0.8,0,1.7-0.1,2.5-0.3c0.9-0.2,1.6-0.6,2.3-1.1c0.7-0.5,1.2-1.1,1.7-1.9c0.4-0.8,0.7-1.8,0.7-2.9
		c0-1.3-0.3-2.3-0.9-3.1c-0.6-0.8-1.3-1.5-2.3-2c-1-0.5-2-0.8-3.2-1c-1.2-0.2-2.4-0.3-3.6-0.3h-3.1v-8.5h3.4c1.1,0,2.2-0.1,3.2-0.2
		c1-0.2,1.9-0.5,2.7-0.9c0.8-0.4,1.5-1,1.9-1.8c0.5-0.7,0.7-1.7,0.7-2.9c0-1.8-0.6-3.1-1.9-4.1c-1.3-0.9-2.7-1.4-4.3-1.4
		c-1.7,0-3.1,0.5-4.3,1.5c-1.2,1-2,2.3-2.4,4L118,81.4c0.6-2.1,1.5-3.9,2.7-5.5c1.2-1.6,2.6-2.9,4.3-3.9c1.6-1,3.4-1.8,5.4-2.4
		c1.9-0.5,3.9-0.8,6-0.8c2.2,0,4.3,0.3,6.4,0.8c2.1,0.6,3.9,1.4,5.5,2.6c1.6,1.2,2.9,2.6,3.9,4.4c1,1.7,1.5,3.8,1.5,6.2
		c0,2.7-0.8,5-2.3,6.9c-1.6,1.9-3.5,3.1-5.9,3.8v0.2c1.4,0.3,2.7,0.8,3.8,1.6c1.2,0.7,2.2,1.6,3,2.6c0.8,1,1.5,2.1,1.9,3.3
		C154.6,102.4,154.8,103.7,154.8,105.1z"/>
	<path class="st1" d="M201,86.5c0,2.9-0.5,5.6-1.5,8c-1,2.4-2.3,4.8-4,7.3l-11.9,17.7h-14.1l12.2-17l0.1-0.2
		c-0.5,0.2-1.1,0.3-1.7,0.4c-0.6,0.1-1.2,0.1-1.8,0.1c-2.2,0-4.2-0.4-6.2-1.1s-3.7-1.9-5.1-3.3c-1.5-1.4-2.7-3.1-3.5-5.1
		c-0.9-2-1.3-4.2-1.3-6.6c0-2.8,0.5-5.3,1.5-7.5c1-2.2,2.4-4.1,4.2-5.6c1.8-1.5,3.8-2.7,6.2-3.5c2.4-0.8,4.9-1.2,7.5-1.2
		c2.7,0,5.2,0.4,7.6,1.2c2.4,0.8,4.4,2,6.1,3.5c1.7,1.5,3.1,3.4,4.1,5.6C200.5,81.4,201,83.8,201,86.5z M189.4,86.3
		c0-2.1-0.7-4-2.1-5.5c-1.4-1.6-3.2-2.3-5.6-2.3s-4.3,0.7-5.7,2.2c-1.4,1.5-2.1,3.4-2.1,5.7c0,2.2,0.7,4.1,2.1,5.5s3.3,2.2,5.6,2.2
		c2.3,0,4.2-0.7,5.7-2.2C188.6,90.5,189.4,88.7,189.4,86.3z"/>
	<path class="st1" d="M214.9,128h-9.4l5.2-19.7h10.9L214.9,128z"/>
	<path class="st1" d="M266.7,94.7c0,3.5-0.3,6.8-1,9.9c-0.7,3.2-1.8,5.9-3.3,8.3c-1.5,2.4-3.5,4.3-5.9,5.7c-2.4,1.4-5.4,2.1-8.9,2.1
		s-6.4-0.7-8.9-2.1c-2.5-1.4-4.5-3.3-6-5.7c-1.6-2.4-2.7-5.2-3.4-8.3c-0.7-3.2-1-6.5-1-9.9s0.3-6.8,1-9.9s1.8-5.9,3.4-8.2
		c1.6-2.3,3.6-4.2,6-5.6c2.5-1.4,5.4-2.1,8.9-2.1s6.4,0.7,8.9,2.1c2.4,1.4,4.4,3.3,5.9,5.6c1.5,2.3,2.6,5.1,3.3,8.2
		C266.3,87.9,266.7,91.2,266.7,94.7z M254.7,94.7c0-1.5-0.1-3.2-0.3-5.1c-0.2-1.9-0.5-3.6-1-5.2c-0.5-1.6-1.2-2.9-2.2-4
		c-1-1.1-2.2-1.6-3.7-1.6s-2.8,0.5-3.8,1.6c-1,1.1-1.7,2.4-2.3,4c-0.5,1.6-0.9,3.3-1.1,5.2c-0.2,1.9-0.3,3.5-0.3,5.1
		c0,1.6,0.1,3.3,0.3,5.2c0.2,1.9,0.5,3.6,1.1,5.2c0.5,1.6,1.3,2.9,2.3,4c1,1.1,2.2,1.6,3.8,1.6s2.8-0.5,3.7-1.6
		c0.9-1.1,1.7-2.4,2.2-4c0.5-1.6,0.9-3.3,1-5.2C254.6,98,254.7,96.3,254.7,94.7z"/>
	<path class="st1" d="M311.6,94.7c0,3.5-0.3,6.8-1,9.9c-0.7,3.2-1.8,5.9-3.3,8.3c-1.5,2.4-3.5,4.3-5.9,5.7c-2.4,1.4-5.4,2.1-8.9,2.1
		s-6.4-0.7-8.9-2.1c-2.5-1.4-4.5-3.3-6-5.7c-1.6-2.4-2.7-5.2-3.4-8.3c-0.7-3.2-1-6.5-1-9.9s0.3-6.8,1-9.9s1.8-5.9,3.4-8.2
		c1.6-2.3,3.6-4.2,6-5.6c2.5-1.4,5.4-2.1,8.9-2.1s6.4,0.7,8.9,2.1c2.4,1.4,4.4,3.3,5.9,5.6c1.5,2.3,2.6,5.1,3.3,8.2
		C311.2,87.9,311.6,91.2,311.6,94.7z M299.6,94.7c0-1.5-0.1-3.2-0.3-5.1c-0.2-1.9-0.5-3.6-1-5.2c-0.5-1.6-1.2-2.9-2.2-4
		c-1-1.1-2.2-1.6-3.7-1.6s-2.8,0.5-3.8,1.6c-1,1.1-1.7,2.4-2.3,4c-0.5,1.6-0.9,3.3-1.1,5.2c-0.2,1.9-0.3,3.5-0.3,5.1
		c0,1.6,0.1,3.3,0.3,5.2c0.2,1.9,0.5,3.6,1.1,5.2c0.5,1.6,1.3,2.9,2.3,4c1,1.1,2.2,1.6,3.8,1.6s2.8-0.5,3.7-1.6
		c0.9-1.1,1.7-2.4,2.2-4c0.5-1.6,0.9-3.3,1-5.2C299.5,98,299.6,96.3,299.6,94.7z"/>
	<path class="st1" d="M356.5,94.7c0,3.5-0.3,6.8-1,9.9c-0.7,3.2-1.8,5.9-3.3,8.3c-1.5,2.4-3.5,4.3-5.9,5.7c-2.4,1.4-5.4,2.1-8.9,2.1
		s-6.4-0.7-8.9-2.1c-2.5-1.4-4.5-3.3-6-5.7c-1.6-2.4-2.7-5.2-3.4-8.3c-0.7-3.2-1-6.5-1-9.9s0.3-6.8,1-9.9s1.8-5.9,3.4-8.2
		c1.6-2.3,3.6-4.2,6-5.6c2.5-1.4,5.4-2.1,8.9-2.1s6.4,0.7,8.9,2.1c2.4,1.4,4.4,3.3,5.9,5.6c1.5,2.3,2.6,5.1,3.3,8.2
		C356.1,87.9,356.5,91.2,356.5,94.7z M344.5,94.7c0-1.5-0.1-3.2-0.3-5.1c-0.2-1.9-0.5-3.6-1-5.2c-0.5-1.6-1.2-2.9-2.2-4
		c-1-1.1-2.2-1.6-3.7-1.6s-2.8,0.5-3.8,1.6c-1,1.1-1.7,2.4-2.3,4c-0.5,1.6-0.9,3.3-1.1,5.2c-0.2,1.9-0.3,3.5-0.3,5.1
		c0,1.6,0.1,3.3,0.3,5.2c0.2,1.9,0.5,3.6,1.1,5.2c0.5,1.6,1.3,2.9,2.3,4c1,1.1,2.2,1.6,3.8,1.6s2.8-0.5,3.7-1.6
		c0.9-1.1,1.7-2.4,2.2-4c0.5-1.6,0.9-3.3,1-5.2C344.4,98,344.5,96.3,344.5,94.7z"/>
	<path class="st1" d="M390.4,119.4v-4.5h-0.1c-1.1,1.8-2.7,3.1-4.8,4.1c-2.1,0.9-4.3,1.4-6.6,1.4c-2.6,0-4.9-0.5-7-1.5
		c-2-1-3.8-2.4-5.2-4.1c-1.4-1.7-2.5-3.6-3.2-5.9c-0.7-2.2-1.1-4.5-1.1-7c0-2.4,0.4-4.7,1.1-6.9c0.8-2.2,1.9-4.1,3.3-5.8
		c1.4-1.7,3.1-3,5.1-4c2-1,4.3-1.5,6.8-1.5c2.5,0,4.7,0.5,6.5,1.5c1.8,1,3.1,2,4.1,3.2h0.1v-8.7h-10.4v-6.2h10.4v-6.7h11.4v6.7h3.2
		v6.2h-3.2v39.6H390.4z M389.9,102c0-1.1-0.2-2.2-0.6-3.3c-0.4-1.1-1-2-1.7-2.9c-0.7-0.8-1.6-1.5-2.6-2c-1-0.5-2.2-0.8-3.5-0.8
		c-1.3,0-2.5,0.3-3.5,0.8c-1,0.5-1.9,1.2-2.6,2c-0.7,0.8-1.2,1.8-1.6,2.8c-0.3,1.1-0.5,2.2-0.5,3.3s0.2,2.2,0.5,3.3
		c0.3,1.1,0.9,2.1,1.6,2.9c0.7,0.8,1.6,1.5,2.6,2c1,0.5,2.2,0.8,3.5,0.8c1.3,0,2.5-0.3,3.5-0.8c1-0.5,1.9-1.2,2.6-2
		c0.7-0.8,1.3-1.8,1.7-2.9C389.7,104.2,389.9,103.2,389.9,102z"/>
</g>
</svg>
