<svg id="Layer_1" data-name="Layer 1" xmlns="http://www.w3.org/2000/svg" viewBox="0 0 987 444.99"><title>Image convert makeup convert</title><path d="M53.57,97.27l4.07-9a30.5,30.5,0,0,0,17.1,5.4c7.1,0,10-2.37,10-5.55,0-9.7-30.12-3-30.12-22.28,0-8.8,7.1-16.13,21.83-16.13,6.51,0,13.17,1.55,18,4.59l-3.7,9.1A29.24,29.24,0,0,0,76.37,59.3c-7.11,0-9.85,2.66-9.85,5.92,0,9.55,30.12,3,30.12,22,0,8.66-7.18,16.06-22,16.06C66.45,103.26,58.16,100.82,53.57,97.27Z"/><path d="M101.6,76.47c0-15.39,12-26.79,28.34-26.79S158.29,61,158.29,76.47s-12.07,26.79-28.35,26.79S101.6,91.86,101.6,76.47Zm44.55,0c0-9.84-7-16.58-16.21-16.58s-16.21,6.74-16.21,16.58,7,16.58,16.21,16.58S146.15,86.31,146.15,76.47Z"/><path d="M214.82,50.57v51.8H205L179.15,70.92v31.45H167.31V50.57h9.92L203,82V50.57Z"/><path d="M258.77,60.34H242.2V50.57h45.14v9.77H270.76v42h-12Z"/><path d="M293.77,50.57h12v51.8h-12Z"/><path d="M365.56,50.57v51.8h-9.85L329.89,70.92v31.45H318V50.57H328L353.72,82V50.57Z"/><path d="M388.57,60.34H372V50.57h45.14v9.77H400.56v42h-12Z"/><path d="M491.65,102.37l-.07-31.08L476.33,96.9h-5.4L455.76,72v30.41H444.51V50.57h9.92l19.39,32.19,19.09-32.19h9.84l.15,51.8Z"/><path d="M549.29,91.27h-24l-4.58,11.1H508.37l23.09-51.8H543.3l23.16,51.8H553.88Zm-3.77-9.1-8.21-19.84-8.22,19.84Zm-5.85-35.82h-9l10-10.66h12.43Z"/><path d="M640.31,50.57v51.8h-12V81.13H604.79v21.24h-12V50.57h12V71h23.54V50.57Z"/><path d="M706,76.47c0,15.47-12.07,26.79-28.35,26.79s-28.34-11.4-28.34-26.79,12-26.79,28.34-26.79S706,61,706,76.47Zm-12.14,0c0-9.84-7-16.58-16.21-16.58s-16.2,6.74-16.2,16.58,6.95,16.58,16.2,16.58S693.89,86.31,693.89,76.47ZM671.32,46.35h-8.51l9.84-8.44h10.07l9.84,8.44h-8.51l-6.37-4.22ZM691,39.25l-11.61-9h11.76l8.14,9Z"/><path d="M762.56,50.57v51.8h-9.84L726.89,70.92v31.45H715.05V50.57H725L750.72,82V50.57Z"/><path d="M809.85,75.66H820.8v21c-5.7,4.3-13.54,6.59-20.94,6.59-16.28,0-28.27-11.18-28.27-26.79s12-26.79,28.49-26.79c9.1,0,16.65,3.11,21.68,9l-7.69,7.11a17.55,17.55,0,0,0-13.4-5.85c-10.06,0-16.95,6.74-16.95,16.58,0,9.69,6.89,16.58,16.8,16.58a19.15,19.15,0,0,0,9.33-2.22Z"/><path d="M76.15,141.88c0,4.11-3.27,6.49-9.52,6.49H54.32v-23.8H66c6,0,9,2.49,9,6.19A5.74,5.74,0,0,1,71.8,136,5.88,5.88,0,0,1,76.15,141.88ZM59.8,128.72v5.61h5.47c2.68,0,4.15-1,4.15-2.82s-1.47-2.79-4.15-2.79ZM70.61,141.3c0-2-1.53-3-4.39-3H59.8v5.88h6.42C69.08,144.22,70.61,143.34,70.61,141.3Z"/><path d="M96,143.27H85l-2.11,5.1H77.2l10.61-23.8h5.44l10.64,23.8H98.11Zm-1.73-4.18L90.5,130l-3.78,9.11Z"/><path d="M128.2,141.88c0,4.11-3.26,6.49-9.52,6.49h-12.3v-23.8H118c6,0,9,2.49,9,6.19a5.72,5.72,0,0,1-3.16,5.24A5.88,5.88,0,0,1,128.2,141.88Zm-16.35-13.16v5.61h5.47c2.69,0,4.15-1,4.15-2.82s-1.46-2.79-4.15-2.79Zm10.81,12.58c0-2-1.53-3-4.39-3h-6.42v5.88h6.42C121.13,144.22,122.66,143.34,122.66,141.3Z"/><path d="M143.3,139.94v8.43h-5.51v-8.5l-9.21-15.3h5.85l6.35,10.58,6.36-10.58h5.41Z"/><path d="M186.31,141.88c0,4.11-3.27,6.49-9.52,6.49H164.48v-23.8h11.63c5.95,0,9,2.49,9,6.19A5.74,5.74,0,0,1,182,136,5.88,5.88,0,0,1,186.31,141.88ZM170,128.72v5.61h5.48c2.68,0,4.15-1,4.15-2.82s-1.47-2.79-4.15-2.79Zm10.82,12.58c0-2-1.53-3-4.39-3H170v5.88h6.43C179.24,144.22,180.77,143.34,180.77,141.3Z"/><path d="M205.65,148.37l-4.59-6.63H196v6.63h-5.51v-23.8h10.3c6.36,0,10.34,3.3,10.34,8.64a7.74,7.74,0,0,1-4.9,7.51l5.34,7.65Zm-5.16-19.31H196v8.3h4.49c3.36,0,5.06-1.57,5.06-4.15S203.85,129.06,200.49,129.06Z"/><path d="M215.48,124.57H221v23.8h-5.51Z"/><path d="M242.71,136.1h5v9.65a16.35,16.35,0,0,1-9.62,3c-7.48,0-13-5.13-13-12.31s5.5-12.3,13.08-12.3c4.19,0,7.65,1.42,10,4.11l-3.54,3.26a8.06,8.06,0,0,0-6.15-2.68c-4.63,0-7.79,3.09-7.79,7.61a7.35,7.35,0,0,0,7.72,7.62,8.71,8.71,0,0,0,4.28-1Z"/><path d="M274.67,124.57v23.8h-5.51v-9.75H258.35v9.75h-5.5v-23.8h5.5V134h10.81v-9.39Z"/><path d="M285.25,129.06h-7.62v-4.49h20.74v4.49h-7.62v19.31h-5.5Z"/><path d="M311,124.57h5.51v19.31h11.93v4.49H311Z"/><path d="M331.49,124.57H337v23.8h-5.5Z"/><path d="M363.27,133.21c0,5.3-4,8.6-10.33,8.6h-4.79v6.56h-5.51v-23.8h10.3C359.3,124.57,363.27,127.87,363.27,133.21Zm-5.57,0c0-2.62-1.7-4.15-5.07-4.15h-4.48v8.26h4.48C356,137.32,357.7,135.79,357.7,133.21Z"/><path d="M395.44,148.78l-2.86-2.65a12.7,12.7,0,0,1-7.95,2.65c-5.24,0-9.08-2.72-9.08-6.53,0-3,1.6-5.06,5.24-7.1-1.74-1.8-2.45-3.33-2.45-5,0-3.47,2.92-5.85,7.41-5.85,4.11,0,6.83,2.11,6.83,5.47,0,2.45-1.43,4.25-4.65,6l4.35,4a15.61,15.61,0,0,0,1.19-3.7l4.25,1.32a15.88,15.88,0,0,1-2.18,5.41l2.79,2.58Zm-6-5.54-5.74-5.37c-2.18,1.25-3,2.34-3,3.8,0,1.74,1.63,3,4.25,3A7.58,7.58,0,0,0,389.45,143.24Zm-6.28-13.19c0,.92.37,1.6,1.83,3,2.35-1.25,3.09-2.14,3.09-3.23s-.81-2-2.34-2S383.17,128.79,383.17,130.05Z"/><path d="M410,136.47c0-7.17,5.5-12.3,12.91-12.3a12.3,12.3,0,0,1,9.8,4.21l-3.54,3.27a7.64,7.64,0,0,0-6-2.79,7.62,7.62,0,1,0,0,15.23,7.58,7.58,0,0,0,6-2.82l3.54,3.26a12.25,12.25,0,0,1-9.83,4.25C415.53,148.78,410,143.65,410,136.47Z"/><path d="M458.27,124.57v23.8h-5.51v-9.75H442v9.75h-5.51v-23.8H442V134h10.81v-9.39Z"/><path d="M482.34,144v4.42H463.92v-23.8h18V129H469.39v5.17h11.05v4.29H469.39V144Z"/><path d="M505.16,144v4.42H486.73v-23.8h18V129H492.2v5.17h11.05v4.29H492.2V144Z"/><path d="M518.21,139,515,142.35v6h-5.48v-23.8H515v11.12l10.54-11.12h6.11l-9.85,10.61,10.43,13.19h-6.42Z"/><path d="M566,148.37l0-14.28-7,11.77h-2.48l-7-11.46v14h-5.17v-23.8h4.56l8.91,14.79,8.77-14.79h4.52l.07,23.8Z"/><path d="M592.47,143.27H581.42l-2.11,5.1h-5.64l10.6-23.8h5.44l10.64,23.8h-5.78Zm-1.74-4.18L587,130l-3.78,9.11Z"/><path d="M606.58,129.06H599v-4.49H619.7v4.49h-7.62v19.31h-5.5Z"/><path d="M627.93,129.06h-7.62v-4.49h20.74v4.49h-7.61v19.31h-5.51Z"/><path d="M662.44,144v4.42H644v-23.8h18V129H649.48v5.17h11v4.29h-11V144Z"/><path d="M681.38,129.06h-7.62v-4.49H694.5v4.49h-7.62v19.31h-5.5Z"/><path d="M697.46,124.57H703v23.8h-5.51Z"/><path d="M730.44,124.57v23.8h-4.53l-11.86-14.45v14.45h-5.44v-23.8h4.56L725,139V124.57Z"/><path d="M741,129.06H733.4v-4.49h20.73v4.49h-7.61v19.31H741Z"/><path d="M53.32,235.87h8.39v2H53.32Z"/><path d="M73.51,242.81l.93-1.82a11,11,0,0,0,7.39,2.71c4.19,0,6-1.75,6-4,0-6.15-13.79-2.37-13.79-10.66,0-3.29,2.56-6.14,8.25-6.14a12.66,12.66,0,0,1,7,2l-.8,1.89A11.52,11.52,0,0,0,82.31,225c-4.09,0-5.92,1.83-5.92,4.07,0,6.14,13.79,2.43,13.79,10.59,0,3.3-2.62,6.11-8.35,6.11C78.47,245.72,75.18,244.54,73.51,242.81Z"/><path d="M93.16,237.11a8.56,8.56,0,1,1,8.58,8.58A8.28,8.28,0,0,1,93.16,237.11Zm14.82,0c0-3.93-2.66-6.56-6.24-6.56s-6.28,2.63-6.28,6.56,2.69,6.56,6.28,6.56S108,241.05,108,237.11Z"/><path d="M130.41,235.77v9.76h-2.27V236c0-3.55-1.86-5.37-5.06-5.37-3.62,0-5.89,2.24-5.89,6.08v8.83h-2.27V228.7h2.18v3.1a7.05,7.05,0,0,1,6.4-3.23C127.59,228.57,130.41,230.94,130.41,235.77Z"/><path d="M153.83,244.5a5.35,5.35,0,0,1-3.55,1.19c-3.17,0-4.93-1.79-4.93-4.9V230.62h-3V228.7h3V225h2.27v3.68h5.12v1.92h-5.12v10c0,2,1,3.07,2.92,3.07a3.74,3.74,0,0,0,2.49-.87Z"/><path d="M157.45,223.39a1.63,1.63,0,0,1,1.66-1.6,1.61,1.61,0,0,1,1.67,1.56,1.67,1.67,0,0,1-3.33,0Zm.51,5.31h2.27v16.83H158Z"/><path d="M182.05,235.77v9.76h-2.27V236c0-3.55-1.85-5.37-5.05-5.37-3.62,0-5.89,2.24-5.89,6.08v8.83h-2.27V228.7h2.17v3.1a7.07,7.07,0,0,1,6.4-3.23C179.24,228.57,182.05,230.94,182.05,235.77Z"/><path d="M197.09,244.5a5.35,5.35,0,0,1-3.55,1.19c-3.16,0-4.92-1.79-4.92-4.9V230.62h-3V228.7h3V225h2.27v3.68H196v1.92h-5.12v10c0,2,1,3.07,2.91,3.07a3.72,3.72,0,0,0,2.49-.87Z"/><path d="M223.4,243.48v2.05H207.69V243.9l9.31-9.12c2.53-2.5,3-4,3-5.54,0-2.59-1.83-4.19-5.25-4.19a7.58,7.58,0,0,0-6.11,2.5L207,226.14c1.73-2,4.52-3.2,7.94-3.2,4.54,0,7.42,2.3,7.42,6.05,0,2.14-.67,4.06-3.68,7l-7.61,7.49Z"/><path d="M245,244.5a5.37,5.37,0,0,1-3.55,1.19c-3.17,0-4.93-1.79-4.93-4.9V230.62h-3V228.7h3V225h2.27v3.68h5.12v1.92h-5.12v10c0,2,1,3.07,2.91,3.07a3.75,3.75,0,0,0,2.5-.87Z"/><path d="M257.64,228.57v2.21c-.19,0-.39,0-.55,0-3.52,0-5.66,2.24-5.66,6.2v8.58h-2.27V228.7h2.17V232C252.39,229.75,254.53,228.57,257.64,228.57Z"/><path d="M259.88,237.11a8.56,8.56,0,1,1,8.57,8.58A8.28,8.28,0,0,1,259.88,237.11Zm14.81,0c0-3.93-2.65-6.56-6.24-6.56s-6.27,2.63-6.27,6.56,2.69,6.56,6.27,6.56S274.69,241.05,274.69,237.11Z"/><path d="M297.12,235.77v9.76h-2.27V236c0-3.55-1.85-5.37-5.05-5.37-3.62,0-5.89,2.24-5.89,6.08v8.83h-2.27V228.7h2.17v3.1a7.07,7.07,0,0,1,6.4-3.23C294.31,228.57,297.12,230.94,297.12,235.77Z"/><path d="M319,228.7v14.78c0,5.79-2.85,8.42-8.42,8.42-3.07,0-6.08-.93-7.84-2.6l1.16-1.72a10,10,0,0,0,6.62,2.3c4.25,0,6.21-1.95,6.21-6.11v-2.14a7.59,7.59,0,0,1-6.56,3.26c-4.8,0-8.45-3.36-8.45-8.19s3.65-8.13,8.45-8.13a7.59,7.59,0,0,1,6.65,3.36V228.7Zm-2.21,8c0-3.65-2.69-6.15-6.4-6.15a6.16,6.16,0,1,0,6.4,6.15Z"/><path d="M338.4,223.13v22.4h-2.3V225.18h-5.28v-2.05Z"/><path d="M351.94,237.11a8.28,8.28,0,0,1,8.67-8.54,7.34,7.34,0,0,1,6.59,3.33l-1.69,1.15a5.72,5.72,0,0,0-4.9-2.5,6.56,6.56,0,0,0,0,13.12,5.69,5.69,0,0,0,4.9-2.46l1.69,1.15a7.4,7.4,0,0,1-6.59,3.33A8.31,8.31,0,0,1,351.94,237.11Z"/><path d="M369.67,237.11a8.56,8.56,0,1,1,8.57,8.58A8.28,8.28,0,0,1,369.67,237.11Zm14.81,0c0-3.93-2.65-6.56-6.24-6.56s-6.27,2.63-6.27,6.56,2.69,6.56,6.27,6.56S384.48,241.05,384.48,237.11Zm-4-15h3l-5.19,4h-2.24Z"/><path d="M408.68,244.5a5.38,5.38,0,0,1-3.56,1.19c-3.16,0-4.92-1.79-4.92-4.9V230.62h-3V228.7h3V225h2.27v3.68h5.12v1.92h-5.12v10c0,2,1,3.07,2.91,3.07a3.75,3.75,0,0,0,2.5-.87Z"/><path d="M428.29,235.77v9.76H426V236c0-3.55-1.86-5.37-5.06-5.37-3.61,0-5.88,2.24-5.88,6.08v8.83H412.8V221.79h2.28v9.85a7.1,7.1,0,0,1,6.3-3.07C425.48,228.57,428.29,230.94,428.29,235.77Z"/><path d="M449.19,237.82H435.11c.25,3.52,2.94,5.85,6.62,5.85a6.63,6.63,0,0,0,5.15-2.2l1.28,1.47a8.28,8.28,0,0,1-6.49,2.75c-5.25,0-8.83-3.58-8.83-8.58s3.48-8.54,8.22-8.54,8.16,3.49,8.16,8.54C449.22,237.31,449.19,237.56,449.19,237.82Zm-14.08-1.7H447a6,6,0,0,0-11.93,0Zm2.85-10h-2.18l4.16-3h2.24l4.16,3h-2.18l-3.1-1.89Zm5.34-5.22-.48-.93a3.79,3.79,0,0,1,2.05-.6,2.06,2.06,0,0,1,2.3,2.07,2.76,2.76,0,0,1-1.89,2.53l-.67-.8c.86-.41,1.34-1,1.34-1.6s-.54-1.05-1.28-1.05A2.65,2.65,0,0,0,443.3,220.89Z"/><path d="M460.55,237.11a8.28,8.28,0,0,1,8.67-8.54,7.34,7.34,0,0,1,6.59,3.33l-1.7,1.15a5.71,5.71,0,0,0-4.89-2.5,6.56,6.56,0,0,0,0,13.12,5.67,5.67,0,0,0,4.89-2.46l1.7,1.15a7.4,7.4,0,0,1-6.59,3.33A8.31,8.31,0,0,1,460.55,237.11Z"/><path d="M495.43,228.7v16.83h-2.18v-3.07a6.71,6.71,0,0,1-6.05,3.23c-4.29,0-7.1-2.4-7.1-7.23V228.7h2.27v9.53c0,3.59,1.86,5.41,5.06,5.41,3.52,0,5.72-2.27,5.72-6.11V228.7Z"/><path d="M517.28,235.77v9.76H515V236c0-3.55-1.86-5.37-5.06-5.37-3.61,0-5.88,2.24-5.88,6.08v8.83h-2.28V228.7H504v3.1a7.07,7.07,0,0,1,6.4-3.23C514.47,228.57,517.28,230.94,517.28,235.77Z"/><path d="M539.1,228.7v14.78c0,5.79-2.84,8.42-8.41,8.42-3.07,0-6.08-.93-7.84-2.6l1.15-1.72a10,10,0,0,0,6.63,2.3c4.25,0,6.2-1.95,6.2-6.11v-2.14a7.57,7.57,0,0,1-6.56,3.26c-4.8,0-8.44-3.36-8.44-8.19s3.64-8.13,8.44-8.13a7.6,7.6,0,0,1,6.66,3.36V228.7Zm-2.2,8c0-3.65-2.69-6.15-6.4-6.15a6.16,6.16,0,1,0,6.4,6.15Z"/><path d="M552.16,237.11a8.28,8.28,0,0,1,8.67-8.54,7.34,7.34,0,0,1,6.59,3.33l-1.69,1.15a5.72,5.72,0,0,0-4.9-2.5,6.56,6.56,0,0,0,0,13.12,5.69,5.69,0,0,0,4.9-2.46l1.69,1.15a7.4,7.4,0,0,1-6.59,3.33A8.31,8.31,0,0,1,552.16,237.11Z"/><path d="M584.58,235.1v10.43H582.4v-2.62c-1,1.72-3,2.78-5.79,2.78-3.81,0-6.15-2-6.15-4.9,0-2.59,1.67-4.76,6.5-4.76h5.34v-1c0-2.88-1.63-4.45-4.76-4.45a8.54,8.54,0,0,0-5.6,2l-1-1.7a10.69,10.69,0,0,1,6.85-2.27C582.11,228.57,584.58,230.75,584.58,235.1Zm-9.86-9h-2.18l4.16-3h2.24l4.16,3h-2.17l-3.11-1.89Zm7.58,14.36v-2.75H577c-3.26,0-4.32,1.28-4.32,3,0,2,1.57,3.17,4.26,3.17A5.38,5.38,0,0,0,582.3,240.47Zm.45-17.05h-2l3.87-3.49h2.75Z"/><path d="M607.81,237.11a8.16,8.16,0,0,1-8.39,8.58,7.36,7.36,0,0,1-6.4-3.33v9.38h-2.27v-23h2.18V232a7.32,7.32,0,0,1,6.49-3.46A8.15,8.15,0,0,1,607.81,237.11Zm-2.27,0a6.28,6.28,0,1,0-12.55,0c0,3.94,2.69,6.56,6.27,6.56A6.18,6.18,0,0,0,605.54,237.11Z"/><path d="M639.36,226.11h-3.17v19.42H634V242.2a7.31,7.31,0,0,1-6.5,3.49,8.56,8.56,0,0,1,0-17.12,7.34,7.34,0,0,1,6.4,3.33v-5.79h-7v-1.67h7v-2.65h2.27v2.65h3.17Zm-5.41,11c0-3.93-2.69-6.56-6.24-6.56s-6.27,2.63-6.27,6.56,2.69,6.56,6.27,6.56S634,241.05,634,237.11Z"/><path d="M658,237.11a8.56,8.56,0,1,1-8.54-8.54A8.27,8.27,0,0,1,658,237.11Zm-2.3,0c0-3.93-2.66-6.56-6.24-6.56s-6.27,2.63-6.27,6.56,2.68,6.56,6.27,6.56S655.65,241.05,655.65,237.11Zm-9.44-11H644.1l4.12-4h2.31l4.13,4h-2.12l-3.16-2.66Zm4.54,24.12a1.38,1.38,0,1,1-1.37-1.37A1.35,1.35,0,0,1,650.75,250.23Z"/><path d="M683.68,235.1v10.43H681.5v-2.62c-1,1.72-3,2.78-5.79,2.78-3.81,0-6.14-2-6.14-4.9,0-2.59,1.66-4.76,6.49-4.76h5.35v-1c0-2.88-1.63-4.45-4.77-4.45a8.56,8.56,0,0,0-5.6,2l-1-1.7a10.66,10.66,0,0,1,6.84-2.27C681.22,228.57,683.68,230.75,683.68,235.1Zm-9.86-9h-2.17l4.16-3h2.24l4.16,3H680l-3.1-1.89Zm7.59,14.36v-2.75h-5.28c-3.27,0-4.32,1.28-4.32,3,0,2,1.57,3.17,4.25,3.17A5.4,5.4,0,0,0,681.41,240.47Zm-2.24-19.58-.48-.93a3.76,3.76,0,0,1,2-.6,2.06,2.06,0,0,1,2.3,2.07,2.78,2.78,0,0,1-1.89,2.53l-.67-.8c.86-.41,1.34-1,1.34-1.6s-.54-1.05-1.28-1.05A2.65,2.65,0,0,0,679.17,220.89Z"/><path d="M717.63,235.77v9.76h-2.27V236c0-3.55-1.79-5.37-4.83-5.37-3.46,0-5.64,2.24-5.64,6.08v8.83h-2.27V236c0-3.55-1.79-5.37-4.86-5.37-3.42,0-5.63,2.24-5.63,6.08v8.83h-2.27V228.7H692v3.07a6.81,6.81,0,0,1,6.18-3.2c2.78,0,5,1.18,6,3.55a7.35,7.35,0,0,1,6.66-3.55C714.94,228.57,717.63,230.94,717.63,235.77Z"/><path d="M750.72,226.11h-3.17v19.42h-2.18V242.2a7.28,7.28,0,0,1-6.49,3.49,8.56,8.56,0,0,1,0-17.12,7.34,7.34,0,0,1,6.4,3.33v-5.79h-7v-1.67h7v-2.65h2.27v2.65h3.17Zm-5.41,11c0-3.93-2.69-6.56-6.24-6.56s-6.27,2.63-6.27,6.56,2.69,6.56,6.27,6.56S745.31,241.05,745.31,237.11Z"/><path d="M768.54,237.82H754.46c.26,3.52,2.95,5.85,6.63,5.85a6.64,6.64,0,0,0,5.15-2.2l1.28,1.47a8.3,8.3,0,0,1-6.5,2.75c-5.25,0-8.83-3.58-8.83-8.58s3.49-8.54,8.22-8.54,8.16,3.49,8.16,8.54C768.57,237.31,768.54,237.56,768.54,237.82Zm-14.08-1.7H766.4a6,6,0,0,0-11.94,0Zm2.85-10h-2.17l4.15-3h2.24l4.16,3h-2.17l-3.11-1.89Zm5.34-5.22-.48-.93a3.81,3.81,0,0,1,2.05-.6,2.07,2.07,0,0,1,2.31,2.07,2.78,2.78,0,0,1-1.89,2.53l-.67-.8c.86-.41,1.34-1,1.34-1.6s-.54-1.05-1.28-1.05A2.69,2.69,0,0,0,762.65,220.89Z"/><path d="M797.09,235.77v9.76h-2.28V236c0-3.55-1.85-5.37-5-5.37-3.62,0-5.89,2.24-5.89,6.08v8.83H781.6V228.7h2.17v3.1a7.07,7.07,0,0,1,6.4-3.23C794.27,228.57,797.09,230.94,797.09,235.77Z"/><path d="M818.43,228.7v16.83h-2.18v-3.07a6.7,6.7,0,0,1-6,3.23c-4.29,0-7.11-2.4-7.11-7.23V228.7h2.27v9.53c0,3.59,1.86,5.41,5.06,5.41,3.52,0,5.73-2.27,5.73-6.11V228.7Z"/><path d="M840.22,237.11a8.56,8.56,0,1,1-8.54-8.54A8.28,8.28,0,0,1,840.22,237.11Zm-2.3,0c0-3.93-2.66-6.56-6.24-6.56s-6.27,2.63-6.27,6.56,2.68,6.56,6.27,6.56S837.92,241.05,837.92,237.11Zm-9.44-11h-2.11l4.12-4h2.31l4.12,4h-2.11l-3.16-2.66Z"/><path d="M844.35,223.39a1.64,1.64,0,0,1,1.66-1.6,1.61,1.61,0,0,1,1.67,1.56,1.67,1.67,0,0,1-3.33,0Zm.51,5.31h2.27v16.83h-2.27Z"/><path d="M69.93,267.79v23.74H67.75V288.2a7.28,7.28,0,0,1-6.49,3.49,8.56,8.56,0,0,1,0-17.12,7.36,7.36,0,0,1,6.4,3.33V267.79Zm-2.24,15.33c0-3.94-2.69-6.56-6.24-6.56s-6.27,2.62-6.27,6.56,2.69,6.55,6.27,6.55S67.69,287.05,67.69,283.12Z"/><path d="M91.43,276.33v15.2H89.26v-3.07a6.7,6.7,0,0,1-6.05,3.23c-4.29,0-7.1-2.4-7.1-7.23V274.7h2.27v9.53c0,3.59,1.85,5.41,5.05,5.41,3.52,0,5.73-2.27,5.73-6.11V274.7h1.18a2,2,0,0,0,2.12-2.14,3.57,3.57,0,0,0-.64-2.05l1.5-.58a4.67,4.67,0,0,1,.83,2.69A3.44,3.44,0,0,1,91.43,276.33Z"/><path d="M112.78,283.12a8.56,8.56,0,1,1-8.55-8.55c1.73,0,2.43.19,4,.19,1.79,0,2.59-1.05,2.59-2.24a3.85,3.85,0,0,0-.64-2l1.47-.58a5.09,5.09,0,0,1,.87,2.69,3.56,3.56,0,0,1-3.07,3.61A8.31,8.31,0,0,1,112.78,283.12Zm-2.31,0c0-3.94-2.65-6.56-6.24-6.56S98,279.18,98,283.12s2.69,6.55,6.27,6.55S110.47,287.05,110.47,283.12Zm-9.72-11.33H99.43c.07-2.15,1.12-3.52,2.75-3.52,1.86,0,2.79,2.17,4,2.17.93,0,1.54-.76,1.57-2H109c-.06,2.08-1.12,3.46-2.72,3.46-1.89,0-2.78-2.18-4-2.18C101.42,269.74,100.81,270.51,100.75,271.79Z"/><path d="M133,281.77v9.76h-2.27V282c0-3.55-1.86-5.37-5.06-5.37-3.61,0-5.88,2.24-5.88,6.08v8.83h-2.27V274.7h2.17v3.1a7.1,7.1,0,0,1,6.4-3.23C130.22,274.57,133,276.94,133,281.77Z"/><path d="M154.86,274.7v14.78c0,5.79-2.85,8.42-8.42,8.42-3.07,0-6.08-.93-7.84-2.59l1.15-1.73a10,10,0,0,0,6.63,2.3c4.25,0,6.2-1.95,6.2-6.11v-2.14a7.56,7.56,0,0,1-6.56,3.26c-4.8,0-8.44-3.36-8.44-8.19s3.64-8.13,8.44-8.13a7.6,7.6,0,0,1,6.66,3.36V274.7Zm-2.21,8c0-3.65-2.69-6.14-6.4-6.14s-6.37,2.49-6.37,6.14a6.39,6.39,0,0,0,12.77,0Z"/><path d="M188.13,272.11H185v19.42h-2.18V288.2a7.28,7.28,0,0,1-6.49,3.49,8.56,8.56,0,0,1,0-17.12,7.36,7.36,0,0,1,6.4,3.33v-5.79h-7v-1.67h7v-2.65H185v2.65h3.16Zm-5.4,11c0-3.94-2.69-6.56-6.24-6.56s-6.27,2.62-6.27,6.56,2.68,6.55,6.27,6.55S182.73,287.05,182.73,283.12Z"/><path d="M206.73,283.12a8.56,8.56,0,1,1-8.55-8.55A8.28,8.28,0,0,1,206.73,283.12Zm-2.31,0c0-3.94-2.65-6.56-6.24-6.56s-6.27,2.62-6.27,6.56,2.69,6.55,6.27,6.55S204.42,287.05,204.42,283.12Zm-9.44-11h-2.11l4.13-4h2.3l4.13,4h-2.11l-3.17-2.66Z"/><path d="M210.86,269.39a1.63,1.63,0,0,1,1.66-1.6,1.61,1.61,0,0,1,1.66,1.57,1.66,1.66,0,0,1-3.32,0Zm.51,5.31h2.27v16.83h-2.27Z"/><path d="M256.13,281.77v9.76h-2.27V282c0-3.55-1.79-5.37-4.83-5.37-3.46,0-5.63,2.24-5.63,6.08v8.83h-2.27V282c0-3.55-1.8-5.37-4.87-5.37-3.42,0-5.63,2.24-5.63,6.08v8.83h-2.27V274.7h2.18v3.07a6.81,6.81,0,0,1,6.17-3.2c2.78,0,5,1.19,6,3.55a7.35,7.35,0,0,1,6.66-3.55C253.45,274.57,256.13,276.94,256.13,281.77Z"/><path d="M277.8,283.12a8.56,8.56,0,1,1-8.55-8.55A8.28,8.28,0,0,1,277.8,283.12Zm-2.31,0c0-3.94-2.65-6.56-6.24-6.56s-6.27,2.62-6.27,6.56,2.69,6.55,6.27,6.55S275.49,287.05,275.49,283.12Zm-9.44-11h-2.11l4.13-4h2.3l4.13,4h-2.11l-3.17-2.66Z"/><path d="M281.93,269.39a1.67,1.67,0,1,1,1.66,1.63A1.63,1.63,0,0,1,281.93,269.39Zm.51,5.31h2.27v16.83h-2.27Z"/><path d="M318,272.11h-3.17v19.42h-2.18V288.2a7.28,7.28,0,0,1-6.49,3.49,8.56,8.56,0,0,1,0-17.12,7.34,7.34,0,0,1,6.4,3.33v-5.79h-7v-1.67h7v-2.65h2.27v2.65H318Zm-5.41,11c0-3.94-2.69-6.56-6.24-6.56s-6.27,2.62-6.27,6.56,2.69,6.55,6.27,6.55S312.55,287.05,312.55,283.12Z"/><path d="M333.83,281.1v10.43h-2.18v-2.62c-1,1.72-3,2.78-5.79,2.78-3.81,0-6.14-2-6.14-4.9,0-2.59,1.66-4.76,6.49-4.76h5.35v-1c0-2.88-1.63-4.44-4.77-4.44a8.55,8.55,0,0,0-5.6,2l-1-1.7a10.66,10.66,0,0,1,6.84-2.27C331.37,274.57,333.83,276.75,333.83,281.1Zm-9.86-9H321.8l4.16-3h2.24l4.16,3h-2.18l-3.1-1.89Zm7.59,14.36v-2.75h-5.28c-3.27,0-4.32,1.28-4.32,3,0,1.95,1.57,3.17,4.25,3.17A5.4,5.4,0,0,0,331.56,286.47Zm.35-17.05-4.64-3.49h2.78l3.84,3.49Z"/><path d="M353.83,274.7l-8.42,18.85c-1.4,3.29-3.2,4.35-5.6,4.35a5.73,5.73,0,0,1-4.09-1.54l1-1.69a4.24,4.24,0,0,0,3.08,1.28c1.5,0,2.52-.71,3.48-2.82l.74-1.63-7.52-16.8h2.37l6.33,14.3,6.34-14.3Z"/><path d="M383.94,272.11h-3.17v19.42H378.6V288.2a7.3,7.3,0,0,1-6.5,3.49,8.56,8.56,0,0,1,0-17.12,7.34,7.34,0,0,1,6.4,3.33v-5.79h-7v-1.67h7v-2.65h2.27v2.65h3.17Zm-5.41,11c0-3.94-2.68-6.56-6.24-6.56s-6.27,2.62-6.27,6.56,2.69,6.55,6.27,6.55S378.53,287.05,378.53,283.12Z"/><path d="M399.81,281.1v10.43h-2.17v-2.62c-1,1.72-3,2.78-5.79,2.78-3.81,0-6.15-2-6.15-4.9,0-2.59,1.67-4.76,6.5-4.76h5.34v-1c0-2.88-1.63-4.44-4.77-4.44a8.57,8.57,0,0,0-5.6,2l-1-1.7a10.69,10.69,0,0,1,6.85-2.27C397.35,274.57,399.81,276.75,399.81,281.1Zm-2.27,5.37v-2.75h-5.28c-3.26,0-4.32,1.28-4.32,3,0,1.95,1.57,3.17,4.26,3.17A5.38,5.38,0,0,0,397.54,286.47Zm-9.34-18.33h1.6c.06,1.7,1.47,2.72,3.26,2.72s3.2-1,3.27-2.72h1.6c-.1,2.56-2.18,4.13-4.87,4.13S388.29,270.7,388.2,268.14Zm6.3,28.09a1.38,1.38,0,1,1-1.37-1.37A1.35,1.35,0,0,1,394.5,296.23Z"/><path d="M421.48,281.77v9.76h-2.27V282c0-3.55-1.86-5.37-5.06-5.37-3.62,0-5.89,2.24-5.89,6.08v8.83H406V274.7h2.18v3.1a7.07,7.07,0,0,1,6.4-3.23C418.66,274.57,421.48,276.94,421.48,281.77Z"/><path d="M426.18,289.93a1.7,1.7,0,0,1,1.7-1.73,1.72,1.72,0,0,1,1.73,1.73,1.75,1.75,0,0,1-1.73,1.76A1.73,1.73,0,0,1,426.18,289.93Z"/><path d="M53.32,327.87h8.39v2H53.32Z"/><path d="M73.67,326.33c0-6.56,5-11.39,11.75-11.39a10.88,10.88,0,0,1,8.19,3.26l-1.51,1.51a8.85,8.85,0,0,0-6.62-2.66,9.28,9.28,0,1,0,0,18.56,8.77,8.77,0,0,0,6.62-2.69l1.51,1.51a10.93,10.93,0,0,1-8.23,3.29C78.66,337.72,73.67,332.89,73.67,326.33Z"/><path d="M113.67,327.77v9.76H111.4V328c0-3.55-1.86-5.37-5.06-5.37-3.61,0-5.88,2.24-5.88,6.08v8.83H98.18V313.79h2.28v9.85a7.1,7.1,0,0,1,6.3-3.07C110.86,320.57,113.67,322.94,113.67,327.77Z"/><path d="M132.55,327.1v10.43h-2.17v-2.62c-1,1.72-3,2.78-5.8,2.78-3.8,0-6.14-2-6.14-4.9,0-2.59,1.66-4.76,6.5-4.76h5.34v-1c0-2.88-1.63-4.44-4.77-4.44a8.57,8.57,0,0,0-5.6,2l-1-1.7a10.67,10.67,0,0,1,6.85-2.27C130.09,320.57,132.55,322.75,132.55,327.1Zm-9.85-9h-2.18l4.16-3h2.24l4.16,3H128.9l-3.1-1.89Zm7.58,14.36v-2.75H125c-3.26,0-4.32,1.28-4.32,3,0,1.95,1.57,3.17,4.26,3.17A5.39,5.39,0,0,0,130.28,332.47Zm.45-17.05h-2l3.87-3.49h2.76Z"/><path d="M147.59,336.51a5.39,5.39,0,0,1-3.55,1.18c-3.17,0-4.93-1.79-4.93-4.9V322.62h-3V320.7h3V317h2.27v3.68h5.12v1.92h-5.12v10.05c0,2,1,3.07,2.92,3.07a3.74,3.74,0,0,0,2.49-.87Z"/><path d="M157.77,335.61l1-1.79a10.24,10.24,0,0,0,6,1.89c3.2,0,4.51-1.09,4.51-2.76,0-4.38-10.91-.92-10.91-7.58,0-2.75,2.36-4.8,6.65-4.8a11.37,11.37,0,0,1,5.95,1.57L170,324a8.65,8.65,0,0,0-5-1.44c-3,0-4.38,1.19-4.38,2.79,0,4.54,10.91,1.12,10.91,7.58,0,2.91-2.56,4.8-6.94,4.8A11.25,11.25,0,0,1,157.77,335.61Z"/><path d="M174.06,329.12a8.56,8.56,0,1,1,8.57,8.57A8.27,8.27,0,0,1,174.06,329.12Zm14.81,0c0-3.94-2.65-6.56-6.24-6.56s-6.27,2.62-6.27,6.56,2.69,6.55,6.27,6.55S188.87,333.05,188.87,329.12Z"/><path d="M211.3,327.77v9.76H209V328c0-3.55-1.86-5.37-5.05-5.37-3.62,0-5.89,2.24-5.89,6.08v8.83h-2.27V320.7H198v3.1a7.1,7.1,0,0,1,6.4-3.23C208.49,320.57,211.3,322.94,211.3,327.77Z"/><path d="M241.22,313.79v23.74h-2.17V334.2a7.31,7.31,0,0,1-6.5,3.49,8.56,8.56,0,0,1,0-17.12,7.34,7.34,0,0,1,6.4,3.33V313.79ZM239,329.12c0-3.94-2.69-6.56-6.24-6.56s-6.27,2.62-6.27,6.56,2.69,6.55,6.27,6.55S239,333.05,239,329.12Z"/><path d="M260.26,327.1v10.43h-2.17v-2.62c-1,1.72-3,2.78-5.8,2.78-3.8,0-6.14-2-6.14-4.9,0-2.59,1.66-4.76,6.5-4.76H258v-1c0-2.88-1.63-4.44-4.77-4.44a8.57,8.57,0,0,0-5.6,2l-1-1.7a10.67,10.67,0,0,1,6.85-2.27C257.8,320.57,260.26,322.75,260.26,327.1ZM258,332.47v-2.75h-5.28c-3.26,0-4.32,1.28-4.32,3,0,1.95,1.57,3.17,4.26,3.17A5.39,5.39,0,0,0,258,332.47Zm-3,9.76a1.38,1.38,0,1,1-1.38-1.37A1.35,1.35,0,0,1,255,342.23Z"/><path d="M281.93,327.77v9.76h-2.28V328c0-3.55-1.85-5.37-5-5.37-3.62,0-5.89,2.24-5.89,6.08v8.83h-2.27V320.7h2.17v3.1a7.1,7.1,0,0,1,6.4-3.23C279.11,320.57,281.93,322.94,281.93,327.77Z"/><path d="M303.75,320.7v14.78c0,5.79-2.85,8.42-8.42,8.42-3.07,0-6.08-.93-7.84-2.59l1.16-1.73a10,10,0,0,0,6.62,2.3c4.26,0,6.21-1.95,6.21-6.11v-2.14a7.59,7.59,0,0,1-6.56,3.26c-4.8,0-8.45-3.36-8.45-8.19s3.65-8.13,8.45-8.13a7.58,7.58,0,0,1,6.65,3.36V320.7Zm-2.21,8c0-3.65-2.69-6.14-6.4-6.14s-6.37,2.49-6.37,6.14a6.39,6.39,0,0,0,12.77,0Z"/><path d="M318.5,313.79h2.27v23.74H318.5Z"/><path d="M322.92,314.14h3l4.38,4H328.1Zm4.19,6.56h2.27v16.83h-2.27Z"/><path d="M337.67,335.93a5.29,5.29,0,0,1-.45,1.86l-1.34,4.41h-1.54l1.09-4.64a1.62,1.62,0,0,1-1.15-1.63,1.7,1.7,0,1,1,3.39,0Z"/><path d="M349.19,329.12a8.29,8.29,0,0,1,8.67-8.55,7.34,7.34,0,0,1,6.59,3.33l-1.69,1.15a5.75,5.75,0,0,0-4.9-2.49,6.56,6.56,0,0,0,0,13.11,5.7,5.7,0,0,0,4.9-2.46l1.69,1.15a7.4,7.4,0,0,1-6.59,3.33A8.31,8.31,0,0,1,349.19,329.12Z"/><path d="M384.13,327.77v9.76h-2.27V328c0-3.55-1.86-5.37-5.06-5.37-3.61,0-5.88,2.24-5.88,6.08v8.83h-2.28V313.79h2.28v9.85a7.1,7.1,0,0,1,6.3-3.07C381.32,320.57,384.13,322.94,384.13,327.77Z"/><path d="M403,327.1v10.43h-2.17v-2.62c-1,1.72-3,2.78-5.8,2.78-3.8,0-6.14-2-6.14-4.9,0-2.59,1.66-4.76,6.5-4.76h5.34v-1c0-2.88-1.63-4.44-4.77-4.44a8.57,8.57,0,0,0-5.6,2l-1-1.7a10.67,10.67,0,0,1,6.85-2.27C400.55,320.57,403,322.75,403,327.1Zm-9.85-9H391l4.16-3h2.24l4.16,3h-2.18l-3.1-1.89Zm7.58,14.36v-2.75h-5.28c-3.26,0-4.32,1.28-4.32,3,0,1.95,1.57,3.17,4.26,3.17A5.39,5.39,0,0,0,400.74,332.47Zm.45-17.05h-2l3.87-3.49h2.76Z"/><path d="M418.05,336.51a5.39,5.39,0,0,1-3.55,1.18c-3.17,0-4.93-1.79-4.93-4.9V322.62h-3V320.7h3V317h2.27v3.68H417v1.92h-5.12v10.05c0,2,1,3.07,2.92,3.07a3.74,3.74,0,0,0,2.49-.87Z"/><path d="M436.8,329.08l-4,3.65v4.8h-2.28V313.79h2.28v16.09l10-9.18h2.82l-7.2,6.88,7.87,9.95h-2.78Z"/><path d="M463.78,329.82H449.7c.26,3.52,2.94,5.85,6.62,5.85a6.61,6.61,0,0,0,5.15-2.2l1.28,1.47a8.27,8.27,0,0,1-6.49,2.75c-5.25,0-8.83-3.58-8.83-8.57s3.49-8.55,8.22-8.55,8.16,3.49,8.16,8.55C463.81,329.31,463.78,329.56,463.78,329.82Zm-14.08-1.7h11.94a6,6,0,0,0-11.94,0Z"/><path d="M496.23,327.77v9.76H494V328c0-3.55-1.79-5.37-4.83-5.37-3.45,0-5.63,2.24-5.63,6.08v8.83h-2.27V328c0-3.55-1.79-5.37-4.87-5.37-3.42,0-5.63,2.24-5.63,6.08v8.83h-2.27V320.7h2.18v3.07a6.81,6.81,0,0,1,6.17-3.2c2.79,0,5,1.19,6,3.55a7.32,7.32,0,0,1,6.65-3.55C493.54,320.57,496.23,322.94,496.23,327.77Z"/><path d="M538.56,327.77v9.76h-2.27V328c0-3.55-1.79-5.37-4.83-5.37-3.46,0-5.63,2.24-5.63,6.08v8.83h-2.28V328c0-3.55-1.79-5.37-4.86-5.37-3.42,0-5.63,2.24-5.63,6.08v8.83h-2.27V320.7H513v3.07a6.83,6.83,0,0,1,6.18-3.2c2.78,0,5,1.19,6,3.55a7.35,7.35,0,0,1,6.66-3.55C535.87,320.57,538.56,322.94,538.56,327.77Z"/><path d="M559.46,329.82H545.38c.25,3.52,2.94,5.85,6.62,5.85a6.63,6.63,0,0,0,5.15-2.2l1.28,1.47a8.28,8.28,0,0,1-6.49,2.75c-5.25,0-8.83-3.58-8.83-8.57s3.48-8.55,8.22-8.55,8.16,3.49,8.16,8.55C559.49,329.31,559.46,329.56,559.46,329.82Zm-14.08-1.7h11.93a6,6,0,0,0-11.93,0Zm2.85-10h-2.18l4.16-3h2.24l4.16,3h-2.18l-3.1-1.89Zm7.93-2.69-4.64-3.49h2.79l3.84,3.49Z"/><path d="M591.9,327.77v9.76h-2.27V328c0-3.55-1.79-5.37-4.83-5.37-3.46,0-5.63,2.24-5.63,6.08v8.83H576.9V328c0-3.55-1.79-5.37-4.87-5.37-3.42,0-5.63,2.24-5.63,6.08v8.83h-2.27V320.7h2.18v3.07a6.81,6.81,0,0,1,6.17-3.2c2.79,0,5,1.19,6,3.55a7.32,7.32,0,0,1,6.65-3.55C589.22,320.57,591.9,322.94,591.9,327.77Z"/><path d="M621.82,313.79v23.74h-2.17V334.2a7.3,7.3,0,0,1-6.5,3.49,8.56,8.56,0,0,1,0-17.12,7.34,7.34,0,0,1,6.4,3.33V313.79Zm-2.24,15.33c0-3.94-2.68-6.56-6.23-6.56s-6.28,2.62-6.28,6.56a6.16,6.16,0,0,0,6.28,6.55C616.9,335.67,619.58,333.05,619.58,329.12Z"/><path d="M642.82,329.82H628.74c.25,3.52,2.94,5.85,6.62,5.85a6.63,6.63,0,0,0,5.15-2.2l1.28,1.47a8.28,8.28,0,0,1-6.49,2.75c-5.25,0-8.83-3.58-8.83-8.57s3.48-8.55,8.22-8.55,8.16,3.49,8.16,8.55C642.85,329.31,642.82,329.56,642.82,329.82Zm-14.08-1.7h11.93a6,6,0,0,0-11.93,0Zm2.85-10h-2.18l4.16-3h2.24l4.16,3h-2.18l-3.1-1.89Zm-.48-4.16h-1.38a2.72,2.72,0,0,1,2.85-2.95c1.88,0,2.88,1.73,4.16,1.73a1.46,1.46,0,0,0,1.56-1.57h1.35a2.7,2.7,0,0,1-2.82,2.92c-2,0-2.91-1.73-4.19-1.73A1.44,1.44,0,0,0,631.11,314Z"/><path d="M664.74,336.51a5.42,5.42,0,0,1-3.56,1.18c-3.16,0-4.92-1.79-4.92-4.9V322.62h-3V320.7h3V317h2.27v3.68h5.12v1.92h-5.12v10.05c0,2,1,3.07,2.91,3.07a3.75,3.75,0,0,0,2.5-.87Z"/><path d="M681.57,327.1v10.43h-2.18v-2.62c-1,1.72-3,2.78-5.79,2.78-3.81,0-6.14-2-6.14-4.9,0-2.59,1.66-4.76,6.49-4.76h5.35v-1c0-2.88-1.64-4.44-4.77-4.44a8.53,8.53,0,0,0-5.6,2l-1-1.7a10.71,10.71,0,0,1,6.85-2.27C679.1,320.57,681.57,322.75,681.57,327.1Zm-2.27,5.37v-2.75H674c-3.27,0-4.32,1.28-4.32,3,0,1.95,1.56,3.17,4.25,3.17A5.4,5.4,0,0,0,679.3,332.47ZM675,318.11h-2.24l4.38-4h3Z"/><path d="M703.23,327.77v9.76H701V328c0-3.55-1.86-5.37-5.06-5.37-3.61,0-5.88,2.24-5.88,6.08v8.83h-2.28V320.7h2.18v3.1a7.1,7.1,0,0,1,6.4-3.23C700.42,320.57,703.23,322.94,703.23,327.77Z"/><path d="M711.36,335.93a5.29,5.29,0,0,1-.45,1.86l-1.34,4.41H708l1.09-4.64a1.62,1.62,0,0,1-1.15-1.63,1.7,1.7,0,1,1,3.39,0Z"/><path d="M730.81,329.08l-4,3.65v4.8h-2.27V313.79h2.27v16.09l10-9.18h2.82l-7.2,6.88,7.87,9.95H737.6Z"/><path d="M759.29,327.77v9.76H757V328c0-3.55-1.85-5.37-5-5.37-3.62,0-5.89,2.24-5.89,6.08v8.83h-2.27V313.79h2.27v9.85a7.11,7.11,0,0,1,6.3-3.07C756.48,320.57,759.29,322.94,759.29,327.77Z"/><path d="M781,329.12a8.56,8.56,0,1,1-8.55-8.55A8.28,8.28,0,0,1,781,329.12Zm-2.31,0c0-3.94-2.65-6.56-6.24-6.56s-6.27,2.62-6.27,6.56,2.69,6.55,6.27,6.55S778.65,333.05,778.65,329.12Zm-9.44-11H767.1l4.13-4h2.3l4.13,4h-2.11l-3.17-2.66Z"/><path d="M801.09,327.77v9.76h-2.28V328c0-3.55-1.85-5.37-5-5.37-3.62,0-5.89,2.24-5.89,6.08v8.83H785.6V320.7h2.17v3.1a7.1,7.1,0,0,1,6.4-3.23C798.27,320.57,801.09,322.94,801.09,327.77Z"/><path d="M822.91,320.7v14.78c0,5.79-2.85,8.42-8.42,8.42-3.07,0-6.08-.93-7.84-2.59l1.16-1.73a10,10,0,0,0,6.62,2.3c4.26,0,6.21-1.95,6.21-6.11v-2.14a7.59,7.59,0,0,1-6.56,3.26c-4.8,0-8.45-3.36-8.45-8.19s3.65-8.13,8.45-8.13a7.58,7.58,0,0,1,6.65,3.36V320.7Zm-2.21,8c0-3.65-2.69-6.14-6.4-6.14s-6.37,2.49-6.37,6.14a6.39,6.39,0,0,0,12.77,0Z"/><path d="M837.66,313.79h2.27v23.74h-2.27Z"/><path d="M859,327.1v10.43H856.8v-2.62c-1,1.72-3,2.78-5.79,2.78-3.81,0-6.15-2-6.15-4.9,0-2.59,1.67-4.76,6.5-4.76h5.34v-1c0-2.88-1.63-4.44-4.77-4.44a8.57,8.57,0,0,0-5.6,2l-1-1.7a10.69,10.69,0,0,1,6.85-2.27C856.51,320.57,859,322.75,859,327.1Zm-6.91-9-5.18-4h3l4.38,4Zm4.64,14.36v-2.75h-5.28c-3.26,0-4.32,1.28-4.32,3,0,1.95,1.57,3.17,4.26,3.17A5.38,5.38,0,0,0,856.7,332.47Z"/><path d="M892.92,327.77v9.76h-2.27V328c0-3.55-1.79-5.37-4.83-5.37-3.46,0-5.63,2.24-5.63,6.08v8.83h-2.27V328c0-3.55-1.8-5.37-4.87-5.37-3.42,0-5.63,2.24-5.63,6.08v8.83h-2.27V320.7h2.18v3.07a6.81,6.81,0,0,1,6.17-3.2c2.78,0,5,1.19,6,3.55a7.35,7.35,0,0,1,6.66-3.55C890.24,320.57,892.92,322.94,892.92,327.77Z"/><path d="M60.81,375.08l-4,3.65v4.8H54.57V359.79h2.27v16.09l10-9.18H69.7l-7.19,6.88,7.87,9.95H67.59Z"/><path d="M89.29,373.77v9.76H87V374c0-3.55-1.86-5.37-5.06-5.37-3.61,0-5.89,2.24-5.89,6.08v8.83H73.8V359.79h2.27v9.85a7.13,7.13,0,0,1,6.31-3.07C86.47,366.57,89.29,368.94,89.29,373.77Z"/><path d="M111,375.12a8.56,8.56,0,1,1-8.54-8.55A8.27,8.27,0,0,1,111,375.12Zm-2.3,0c0-3.94-2.66-6.56-6.24-6.56s-6.27,2.62-6.27,6.56,2.68,6.55,6.27,6.55S108.65,379.05,108.65,375.12Zm-9.44-11H97.1l4.12-4h2.31l4.13,4h-2.12l-3.16-2.66Z"/><path d="M151.75,373.77v9.76h-2.27V374c0-3.55-1.79-5.37-4.83-5.37-3.46,0-5.63,2.24-5.63,6.08v8.83h-2.28V374c0-3.55-1.79-5.37-4.86-5.37-3.42,0-5.63,2.24-5.63,6.08v8.83H124V366.7h2.17v3.07a6.83,6.83,0,0,1,6.18-3.2c2.78,0,5,1.19,6,3.55a7.35,7.35,0,0,1,6.66-3.55C149.06,366.57,151.75,368.94,151.75,373.77Z"/><path d="M173.42,375.12a8.56,8.56,0,1,1-8.55-8.55A8.28,8.28,0,0,1,173.42,375.12Zm-2.31,0c0-3.94-2.65-6.56-6.24-6.56s-6.27,2.62-6.27,6.56,2.69,6.55,6.27,6.55S171.11,379.05,171.11,375.12Zm-9.44-11h-2.11l4.13-4H166l4.13,4H168l-3.17-2.66Z"/><path d="M177.54,361.39a1.64,1.64,0,0,1,1.67-1.6,1.61,1.61,0,0,1,1.66,1.57,1.63,1.63,0,0,1-1.66,1.66A1.65,1.65,0,0,1,177.54,361.39Zm.52,5.31h2.27v16.83h-2.27Z"/><path d="M188.62,381.93a5.29,5.29,0,0,1-.45,1.86l-1.35,4.41h-1.53l1.09-4.64a1.61,1.61,0,0,1-1.16-1.63,1.7,1.7,0,1,1,3.4,0Z"/><path d="M216,366.7l-7.48,16.83h-2.34L198.7,366.7h2.36L207.37,381l6.36-14.33Z"/><path d="M234.34,368.33v15.2h-2.17v-3.07a6.7,6.7,0,0,1-6,3.23c-4.29,0-7.1-2.4-7.1-7.23V366.7h2.27v9.53c0,3.59,1.85,5.41,5.05,5.41,3.52,0,5.73-2.27,5.73-6.11V366.7h1.18a2,2,0,0,0,2.12-2.14,3.57,3.57,0,0,0-.64-2.05l1.5-.58a4.67,4.67,0,0,1,.83,2.69A3.44,3.44,0,0,1,234.34,368.33Zm-7.8-4.22-5.19-4h3l4.38,4Z"/><path d="M253.09,373.1v10.43h-2.17v-2.62c-1,1.72-3,2.78-5.79,2.78-3.81,0-6.15-2-6.15-4.9,0-2.59,1.67-4.76,6.5-4.76h5.34v-1c0-2.88-1.63-4.44-4.77-4.44a8.52,8.52,0,0,0-5.59,2l-1-1.7a10.69,10.69,0,0,1,6.85-2.27C250.63,366.57,253.09,368.75,253.09,373.1Zm-2.27,5.37v-2.75h-5.28c-3.26,0-4.32,1.28-4.32,3,0,1.95,1.57,3.17,4.26,3.17A5.38,5.38,0,0,0,250.82,378.47Z"/><path d="M276.52,382.51a5.41,5.41,0,0,1-3.55,1.18c-3.17,0-4.93-1.79-4.93-4.9V368.62h-3V366.7h3V363h2.27v3.68h5.12v1.92h-5.12v10.05c0,2,1,3.07,2.91,3.07a3.75,3.75,0,0,0,2.5-.87Z"/><path d="M295.46,375.12a8.56,8.56,0,1,1-8.54-8.55A8.27,8.27,0,0,1,295.46,375.12Zm-2.3,0c0-3.94-2.66-6.56-6.24-6.56s-6.27,2.62-6.27,6.56,2.68,6.55,6.27,6.55S293.16,379.05,293.16,375.12Zm-9.44-11h-2.11l4.12-4H288l4.13,4h-2.12l-3.16-2.66Z"/><path d="M336.26,373.77v9.76H334V374c0-3.55-1.79-5.37-4.83-5.37-3.46,0-5.63,2.24-5.63,6.08v8.83h-2.28V374c0-3.55-1.79-5.37-4.86-5.37-3.42,0-5.63,2.24-5.63,6.08v8.83h-2.27V366.7h2.17v3.07a6.83,6.83,0,0,1,6.18-3.2c2.78,0,5,1.19,6,3.55a7.35,7.35,0,0,1,6.66-3.55C333.57,366.57,336.26,368.94,336.26,373.77Z"/><path d="M357.93,375.12a8.56,8.56,0,1,1-8.55-8.55A8.28,8.28,0,0,1,357.93,375.12Zm-2.31,0c0-3.94-2.65-6.56-6.24-6.56s-6.27,2.62-6.27,6.56,2.69,6.55,6.27,6.55S355.62,379.05,355.62,375.12Zm-9.44-11h-2.11l4.13-4h2.3l4.13,4h-2.11l-3.17-2.66Z"/><path d="M362.05,361.39a1.64,1.64,0,0,1,1.67-1.6,1.61,1.61,0,0,1,1.66,1.57,1.63,1.63,0,0,1-1.66,1.66A1.65,1.65,0,0,1,362.05,361.39Zm.52,5.31h2.27v16.83h-2.27Z"/><path d="M373.13,381.93a5.29,5.29,0,0,1-.45,1.86l-1.35,4.41H369.8l1.09-4.64a1.61,1.61,0,0,1-1.16-1.63,1.7,1.7,0,1,1,3.4,0Z"/><path d="M400.48,366.7,393,383.53h-2.34l-7.45-16.83h2.36L391.88,381l6.36-14.33Z"/><path d="M418.85,368.33v15.2h-2.17v-3.07a6.7,6.7,0,0,1-6.05,3.23c-4.29,0-7.1-2.4-7.1-7.23V366.7h2.27v9.53c0,3.59,1.85,5.41,5.05,5.41,3.52,0,5.73-2.27,5.73-6.11V366.7h1.18a2,2,0,0,0,2.12-2.14,3.57,3.57,0,0,0-.64-2.05l1.5-.58a4.67,4.67,0,0,1,.83,2.69A3.44,3.44,0,0,1,418.85,368.33ZM411,364.11l-5.18-4h3l4.38,4Z"/><path d="M437.6,373.1v10.43h-2.17v-2.62c-1,1.72-3,2.78-5.79,2.78-3.81,0-6.15-2-6.15-4.9,0-2.59,1.67-4.76,6.5-4.76h5.34v-1c0-2.88-1.63-4.44-4.77-4.44a8.52,8.52,0,0,0-5.59,2l-1-1.7a10.69,10.69,0,0,1,6.85-2.27C435.14,366.57,437.6,368.75,437.6,373.1Zm-2.27,5.37v-2.75h-5.28c-3.26,0-4.32,1.28-4.32,3,0,1.95,1.57,3.17,4.26,3.17A5.38,5.38,0,0,0,435.33,378.47Z"/><path d="M452.16,359.79h2.28v23.74h-2.28Z"/><path d="M473.48,373.1v10.43H471.3v-2.62c-1,1.72-3,2.78-5.79,2.78-3.81,0-6.15-2-6.15-4.9,0-2.59,1.67-4.76,6.5-4.76h5.34v-1c0-2.88-1.63-4.44-4.76-4.44a8.53,8.53,0,0,0-5.6,2l-1-1.7a10.69,10.69,0,0,1,6.85-2.27C471,366.57,473.48,368.75,473.48,373.1Zm-6.92-9-5.18-4h3l4.38,4Zm4.64,14.36v-2.75h-5.28c-3.26,0-4.32,1.28-4.32,3,0,1.95,1.57,3.17,4.26,3.17A5.38,5.38,0,0,0,471.2,378.47Z"/><path d="M507.43,373.77v9.76h-2.28V374c0-3.55-1.79-5.37-4.83-5.37-3.45,0-5.63,2.24-5.63,6.08v8.83h-2.27V374c0-3.55-1.79-5.37-4.86-5.37-3.43,0-5.64,2.24-5.64,6.08v8.83h-2.27V366.7h2.18v3.07a6.81,6.81,0,0,1,6.17-3.2c2.79,0,5,1.19,6,3.55a7.32,7.32,0,0,1,6.65-3.55C504.74,366.57,507.43,368.94,507.43,373.77Z"/><path d="M549.76,373.77v9.76h-2.27V374c0-3.55-1.79-5.37-4.83-5.37-3.46,0-5.63,2.24-5.63,6.08v8.83h-2.27V374c0-3.55-1.8-5.37-4.87-5.37-3.42,0-5.63,2.24-5.63,6.08v8.83H522V366.7h2.17v3.07a6.83,6.83,0,0,1,6.18-3.2c2.78,0,5,1.19,6,3.55a7.35,7.35,0,0,1,6.66-3.55C547.07,366.57,549.76,368.94,549.76,373.77Z"/><path d="M568.64,373.1v10.43h-2.17v-2.62c-1,1.72-3,2.78-5.79,2.78-3.81,0-6.15-2-6.15-4.9,0-2.59,1.67-4.76,6.5-4.76h5.34v-1c0-2.88-1.63-4.44-4.77-4.44a8.57,8.57,0,0,0-5.6,2l-1-1.7a10.69,10.69,0,0,1,6.85-2.27C566.18,366.57,568.64,368.75,568.64,373.1Zm-2.27,5.37v-2.75h-5.28c-3.26,0-4.32,1.28-4.32,3,0,1.95,1.57,3.17,4.26,3.17A5.38,5.38,0,0,0,566.37,378.47Zm-4.32-14.36h-2.24l4.39-4h3Z"/><path d="M598.69,373.77v9.76h-2.27V374c0-3.55-1.86-5.37-5.06-5.37-3.61,0-5.88,2.24-5.88,6.08v8.83H583.2V359.79h2.28v9.85a7.1,7.1,0,0,1,6.3-3.07C595.87,366.57,598.69,368.94,598.69,373.77Z"/><path d="M620.35,375.12a8.56,8.56,0,1,1-8.54-8.55A8.27,8.27,0,0,1,620.35,375.12Zm-2.3,0c0-3.94-2.66-6.56-6.24-6.56s-6.27,2.62-6.27,6.56,2.69,6.55,6.27,6.55S618.05,379.05,618.05,375.12Zm-9.38-11H606.5l4.16-3h2.24l4.16,3h-2.18l-3.1-1.89Zm7.94-2.69L612,357.93h2.78l3.84,3.49Z"/><path d="M640.48,373.77v9.76h-2.27V374c0-3.55-1.86-5.37-5.06-5.37-3.61,0-5.88,2.24-5.88,6.08v8.83H625V366.7h2.18v3.1a7.1,7.1,0,0,1,6.4-3.23C637.67,366.57,640.48,368.94,640.48,373.77Z"/><path d="M662.31,366.7v14.78c0,5.79-2.85,8.42-8.42,8.42-3.07,0-6.08-.93-7.84-2.59l1.15-1.73a10,10,0,0,0,6.63,2.3c4.25,0,6.2-1.95,6.2-6.11v-2.14a7.56,7.56,0,0,1-6.56,3.26c-4.8,0-8.44-3.36-8.44-8.19s3.64-8.13,8.44-8.13a7.6,7.6,0,0,1,6.66,3.36V366.7Zm-2.21,8c0-3.65-2.69-6.14-6.4-6.14s-6.37,2.49-6.37,6.14a6.39,6.39,0,0,0,12.77,0Z"/><path d="M687.78,383.53l-5.35-7-5.37,7H674.5l6.65-8.64-6.33-8.19h2.56l5,6.59,5.06-6.59H690l-6.33,8.19,6.72,8.64Z"/><path d="M693.63,361.39a1.64,1.64,0,0,1,1.67-1.6,1.61,1.61,0,0,1,1.66,1.57A1.63,1.63,0,0,1,695.3,363,1.65,1.65,0,0,1,693.63,361.39Zm.52,5.31h2.27v16.83h-2.27Z"/><path d="M718.24,373.77v9.76H716V374c0-3.55-1.86-5.37-5.06-5.37-3.61,0-5.88,2.24-5.88,6.08v8.83h-2.28V366.7h2.18v3.1a7.1,7.1,0,0,1,6.4-3.23C715.42,366.57,718.24,368.94,718.24,373.77Z"/><path d="M739.9,373.77v9.76h-2.27V374c0-3.55-1.85-5.37-5-5.37-3.62,0-5.89,2.24-5.89,6.08v8.83h-2.27V359.79h2.27v9.85a7.11,7.11,0,0,1,6.3-3.07C737.09,366.57,739.9,368.94,739.9,373.77Z"/><path d="M765.18,383.53l-5.34-7-5.38,7H751.9l6.66-8.64-6.34-8.19h2.56l5.06,6.59,5.06-6.59h2.49l-6.33,8.19,6.72,8.64Z"/><path d="M783.94,373.1v10.43h-2.18v-2.62c-1,1.72-3,2.78-5.79,2.78-3.81,0-6.15-2-6.15-4.9,0-2.59,1.67-4.76,6.5-4.76h5.34v-1c0-2.88-1.63-4.44-4.76-4.44a8.53,8.53,0,0,0-5.6,2l-1-1.7a10.69,10.69,0,0,1,6.85-2.27C781.47,366.57,783.94,368.75,783.94,373.1Zm-2.28,5.37v-2.75h-5.28c-3.26,0-4.32,1.28-4.32,3,0,1.95,1.57,3.17,4.26,3.17A5.38,5.38,0,0,0,781.66,378.47Zm-9.34-17.37h1.57c.19,1.15,1.5,1.82,3.29,1.82s3.11-.67,3.3-1.82h1.57c-.26,2-2.21,3.17-4.87,3.17S772.58,363.08,772.32,361.1Zm4.93-.61h-2L779.1,357h2.76Z"/><path d="M805.6,373.77v9.76h-2.27V374c0-3.55-1.86-5.37-5.06-5.37-3.61,0-5.89,2.24-5.89,6.08v8.83h-2.27V366.7h2.18v3.1a7.08,7.08,0,0,1,6.4-3.23C802.78,366.57,805.6,368.94,805.6,373.77Z"/><path d="M810.3,381.93a1.7,1.7,0,0,1,1.7-1.73,1.72,1.72,0,0,1,1.73,1.73,1.75,1.75,0,0,1-1.73,1.76A1.73,1.73,0,0,1,810.3,381.93Z"/><path d="M817.09,381.93a1.7,1.7,0,0,1,1.69-1.73,1.72,1.72,0,0,1,1.73,1.73,1.75,1.75,0,0,1-1.73,1.76A1.72,1.72,0,0,1,817.09,381.93Z"/></svg>