<svg id="Layer_1" data-name="Layer 1" xmlns="http://www.w3.org/2000/svg" viewBox="0 0 656.47 828.59"><defs><style>.cls-1{fill:#c90202;}.cls-2{fill:#fff;}</style></defs><title>Image convert 1 mua 6 tặng 1</title><g id="_Rectangle_" data-name="&lt;Rectangle&gt;"><rect class="cls-1" x="28" y="22.1" width="598" height="783"/></g><path class="cls-2" d="M173.6,150.4l-.12-52.58-25.79,43.32h-9.14L112.88,99V150.4h-19V62.76h16.78l32.8,54.46,32.3-54.46h16.65l.25,87.64Z"/><path class="cls-2" d="M212.66,111.84V62.76h20.28v48.33c0,16.65,7.27,23.54,19.53,23.54S272,127.74,272,111.09V62.76h20v49.08c0,25.79-14.78,40.06-39.69,40.06S212.66,137.63,212.66,111.84Z"/><path class="cls-2" d="M367.9,131.62H327.22l-7.77,18.78H298.67l39.06-87.64h20L397,150.4H375.67Zm-6.38-15.4-13.9-33.55-13.89,33.55Z"/><path class="cls-2" d="M508.37,122.73c0,17.91-14.65,29.17-33.18,29.17C451,151.9,436,136.76,436,108.46c0-30.3,18.28-47.2,44.69-47.2,9.27,0,18.28,2.13,24.42,6l-7.52,14.9c-4.88-3.26-10.51-4.38-16.4-4.38-14.64,0-24,8.64-24.66,25.41,5.13-5.13,12.52-7.76,21.66-7.76C495.1,95.44,508.37,106.21,508.37,122.73Zm-19.65,1c0-8-5.89-13.15-14.9-13.15s-15.15,5.51-15.15,13.15,5.63,13,15.4,13C482.71,136.76,488.72,131.75,488.72,123.74Z"/><path class="cls-2" d="M112,229.52H84V213h76.37v16.52h-28v71.12H112Z"/><path class="cls-2" d="M232.32,300.64l-7.76-18.78H183.87l-7.76,18.78H155.32L194.39,213h20l39.18,87.64ZM181.37,187.83h12.27c.25,5.39,4.88,8.89,10.76,8.89s10.52-3.5,10.77-8.89h12.27c-.5,11.77-10,19-23,19S181.87,199.6,181.37,187.83Zm36.8,78.63L204.28,232.9l-13.9,33.56ZM213,318.54c0,5.13-3.76,8.39-8.64,8.39s-8.64-3.26-8.64-8.39a8.64,8.64,0,1,1,17.28,0Z"/><path class="cls-2" d="M343.12,213v87.64H326.47l-43.7-53.21v53.21h-20V213h16.78l43.57,53.21V213Z"/><path class="cls-2" d="M423.12,255.44h18.53V291c-9.64,7.26-22.91,11.14-35.43,11.14-27.55,0-47.83-18.91-47.83-45.32s20.28-45.32,48.2-45.32c15.4,0,28.17,5.25,36.68,15.14l-13,12a29.65,29.65,0,0,0-22.66-9.89c-17,0-28.67,11.4-28.67,28,0,16.4,11.65,28,28.42,28a32.27,32.27,0,0,0,15.78-3.75Z"/><path class="cls-2" d="M524.15,213v87.64H503.87V229.27H486.34V213Z"/><path class="cls-2" d="M596,60.93V72.38c0,8.24-5,13.89-12.59,13.89s-12.6-5.65-12.6-13.89V60.93Zm-20.4,11.16c0,5,3,8.28,7.81,8.28s7.81-3.28,7.81-8.28V66.76H575.58Z"/><path class="cls-2" d="M576.19,114.1V102.4l-5.4-2.23v-6L596,105.43v5.75l-25.19,11.27v-6.12Zm4.42-1.84,9.65-4-9.65-4Z"/><path class="cls-2" d="M596,155.39H570.79V150.6L586.09,138h-15.3v-5.76H596v4.83l-15.29,12.52H596Z"/><path class="cls-2" d="M596,191.68H570.79v-5.83h10.33V174.4H570.79v-5.83H596v5.83h-9.93v11.45H596Z"/><path class="cls-2" d="M573.27,220.27l4.39,2a14.86,14.86,0,0,0-2.62,8.31c0,3.46,1.15,4.86,2.7,4.86,4.71,0,1.47-14.65,10.83-14.65,4.28,0,7.85,3.46,7.85,10.62a17,17,0,0,1-2.23,8.75l-4.43-1.8a14.28,14.28,0,0,0,2-7c0-3.45-1.3-4.78-2.88-4.78-4.65,0-1.44,14.65-10.69,14.65-4.21,0-7.81-3.5-7.81-10.7C570.36,226.53,571.54,222.5,573.27,220.27Z"/><path class="cls-2" d="M576.19,269v-11.7l-5.4-2.23v-6L596,260.33v5.76l-25.19,11.27v-6.12Zm4.42-1.84,9.65-4-9.65-4ZM598,264.33v-4.39l5.18,4.86v6Z"/><path class="cls-2" d="M583.39,285.25c7.59,0,13,5.83,13,13.67A13,13,0,0,1,592,309.29l-3.45-3.74a8.14,8.14,0,0,0,3-6.34,8.07,8.07,0,0,0-16.13,0,8.05,8.05,0,0,0,3,6.34l-3.45,3.74c-2.92-2.38-4.5-6-4.5-10.4C570.36,291.08,575.79,285.25,583.39,285.25Z"/><path class="cls-2" d="M596,343.53H570.79v-5.84h10.33V326.25H570.79v-5.83H596v5.83h-9.93v11.44H596Z"/><path class="cls-2" d="M573.27,372.11l4.39,2a14.89,14.89,0,0,0-2.62,8.32c0,3.45,1.15,4.86,2.7,4.86,4.71,0,1.47-14.65,10.83-14.65,4.28,0,7.85,3.45,7.85,10.61a17,17,0,0,1-2.23,8.75l-4.43-1.8a14.25,14.25,0,0,0,2-7c0-3.46-1.3-4.79-2.88-4.79-4.65,0-1.44,14.65-10.69,14.65-4.21,0-7.81-3.49-7.81-10.69C570.36,378.38,571.54,374.34,573.27,372.11Z"/><path class="cls-2" d="M576.19,420.85v-11.7l-5.4-2.23v-6L596,412.18v5.76L570.79,429.2v-6.11Zm4.42-1.83,9.65-4-9.65-4Zm22-6.63,2.27-1.15a6.26,6.26,0,0,1,1.22,3.89c0,2.56-1.54,4.32-3.85,4.32-2.05,0-3.53-1.12-4.53-3.31l1.87-1.77c.65,1.41,1.37,1.84,2.19,1.84a1.53,1.53,0,0,0,1.52-1.69A3.81,3.81,0,0,0,602.57,412.39Z"/><path class="cls-2" d="M596,462.14H570.79v-4.78l15.3-12.57h-15.3V439H596v4.82l-15.29,12.52H596Z"/><path class="cls-2" d="M586.84,514.56c-5.61,0-9.1-4.21-9.1-10.94v-5.08h-7v-5.83H596v10.91C596,510.35,592.49,514.56,586.84,514.56Zm0-5.9c2.77,0,4.39-1.8,4.39-5.37v-4.75h-8.74v4.75C582.49,506.86,584.11,508.66,586.84,508.66Z"/><path class="cls-2" d="M596,549H570.79v-5.83h10.33V531.73H570.79V525.9H596v5.83h-9.93v11.45H596Z"/><path class="cls-2" d="M576.19,578.78V567.09l-5.4-2.24v-6L596,570.11v5.76l-25.19,11.27V581Zm4.42-1.83,9.65-4-9.65-4ZM598,569.89v-4.14l4.1,4.79v4.9l-4.1,4.78v-4.13l2.05-3.1Zm6.22,6.66,1.73-.93a5.49,5.49,0,0,1,.79,3c0,2-1.11,3.32-2.84,3.32a3.56,3.56,0,0,1-3.13-2.52l1.33-1.37c.47,1,1,1.33,1.51,1.33a1.08,1.08,0,0,0,1.05-1.22A3.18,3.18,0,0,0,604.26,576.55Z"/><path class="cls-2" d="M570.79,619.9l15.12,0-12.46-7.42v-2.62l12.13-7.38H570.79V597H596v4.82l-15.65,9.43L596,620.51v4.78l-25.19.08Z"/></svg>