<svg id="Layer_1" data-name="Layer 1" xmlns="http://www.w3.org/2000/svg" viewBox="0 0 656.47 840.59"><defs><style>.cls-1{fill:#c90202;}.cls-2{fill:#fff;}</style></defs><title>Image convert 1 mua 6 tặng 1</title><g id="_Rectangle_" data-name="&lt;Rectangle&gt;"><rect class="cls-1" x="28" y="28.1" width="598" height="783"/></g><path class="cls-2" d="M173.6,156.4l-.12-52.58-25.79,43.32h-9.14L112.88,105V156.4h-19V68.76h16.78l32.8,54.46,32.3-54.46h16.65l.25,87.64Z"/><path class="cls-2" d="M212.66,117.84V68.76h20.28v48.33c0,16.65,7.27,23.54,19.53,23.54S272,133.74,272,117.09V68.76h20v49.08c0,25.79-14.78,40.06-39.69,40.06S212.66,143.63,212.66,117.84Z"/><path class="cls-2" d="M367.9,137.62H327.22l-7.77,18.78H298.67l39.06-87.64h20L397,156.4H375.67Zm-6.38-15.4-13.9-33.55-13.89,33.55Z"/><path class="cls-2" d="M502.24,128.86c0,15.52-11.4,29-36.44,29-12.14,0-24.91-3.38-33.42-9.39l8-15.52c6.63,5,15.77,7.89,24.91,7.89,10.14,0,16.4-4.26,16.4-11.4,0-6.88-4.5-11.39-20.4-11.39H438.89l4.5-49.33h53.46V85H460.3l-1.38,16.65h7.13C492,101.69,502.24,113.33,502.24,128.86Z"/><path class="cls-2" d="M112,235.52H84V219h76.37v16.52h-28v71.12H112Z"/><path class="cls-2" d="M232.32,306.64l-7.76-18.78H183.87l-7.76,18.78H155.32L194.39,219h20l39.18,87.64ZM181.37,193.83h12.27c.25,5.39,4.88,8.89,10.76,8.89s10.52-3.5,10.77-8.89h12.27c-.5,11.77-10,19-23,19S181.87,205.6,181.37,193.83Zm36.8,78.63L204.28,238.9l-13.9,33.56ZM213,324.54c0,5.13-3.76,8.39-8.64,8.39s-8.64-3.26-8.64-8.39a8.64,8.64,0,1,1,17.28,0Z"/><path class="cls-2" d="M343.12,219v87.64H326.47l-43.7-53.21v53.21h-20V219h16.78l43.57,53.21V219Z"/><path class="cls-2" d="M423.12,261.44h18.53V297c-9.64,7.26-22.91,11.14-35.43,11.14-27.55,0-47.83-18.91-47.83-45.32s20.28-45.32,48.2-45.32c15.4,0,28.17,5.25,36.68,15.14l-13,12a29.65,29.65,0,0,0-22.66-9.89c-17,0-28.67,11.4-28.67,28,0,16.4,11.65,28,28.42,28a32.27,32.27,0,0,0,15.78-3.75Z"/><path class="cls-2" d="M524.15,219v87.64H503.87V235.27H486.34V219Z"/><path class="cls-2" d="M596,66.93V78.38c0,8.24-5,13.89-12.59,13.89s-12.6-5.65-12.6-13.89V66.93Zm-20.4,11.16c0,5,3,8.28,7.81,8.28s7.81-3.28,7.81-8.28V72.76H575.58Z"/><path class="cls-2" d="M576.19,120.1V108.4l-5.4-2.23v-6L596,111.43v5.75l-25.19,11.27v-6.12Zm4.42-1.84,9.65-4-9.65-4Z"/><path class="cls-2" d="M596,161.39H570.79V156.6L586.09,144h-15.3v-5.76H596v4.83l-15.29,12.52H596Z"/><path class="cls-2" d="M596,197.68H570.79v-5.83h10.33V180.4H570.79v-5.83H596v5.83h-9.93v11.45H596Z"/><path class="cls-2" d="M573.27,226.27l4.39,2a14.86,14.86,0,0,0-2.62,8.31c0,3.46,1.15,4.86,2.7,4.86,4.71,0,1.47-14.65,10.83-14.65,4.28,0,7.85,3.46,7.85,10.62a17,17,0,0,1-2.23,8.75l-4.43-1.8a14.28,14.28,0,0,0,2-7c0-3.45-1.3-4.78-2.88-4.78-4.65,0-1.44,14.64-10.69,14.64-4.21,0-7.81-3.49-7.81-10.69C570.36,232.53,571.54,228.5,573.27,226.27Z"/><path class="cls-2" d="M576.19,275v-11.7l-5.4-2.23v-6L596,266.33v5.76l-25.19,11.27v-6.12Zm4.42-1.84,9.65-4-9.65-4ZM598,270.33v-4.39l5.18,4.86v6Z"/><path class="cls-2" d="M583.39,291.25c7.59,0,13,5.83,13,13.67A13,13,0,0,1,592,315.29l-3.45-3.74a8.14,8.14,0,0,0,3-6.34,8.07,8.07,0,0,0-16.13,0,8.05,8.05,0,0,0,3,6.34l-3.45,3.74c-2.92-2.38-4.5-6-4.5-10.4C570.36,297.08,575.79,291.25,583.39,291.25Z"/><path class="cls-2" d="M596,349.53H570.79v-5.84h10.33V332.25H570.79v-5.83H596v5.83h-9.93v11.44H596Z"/><path class="cls-2" d="M573.27,378.11l4.39,2a14.89,14.89,0,0,0-2.62,8.32c0,3.45,1.15,4.86,2.7,4.86,4.71,0,1.47-14.65,10.83-14.65,4.28,0,7.85,3.45,7.85,10.61a17,17,0,0,1-2.23,8.75l-4.43-1.8a14.25,14.25,0,0,0,2-7c0-3.46-1.3-4.79-2.88-4.79-4.65,0-1.44,14.65-10.69,14.65-4.21,0-7.81-3.49-7.81-10.69C570.36,384.38,571.54,380.34,573.27,378.11Z"/><path class="cls-2" d="M576.19,426.85v-11.7l-5.4-2.23v-6L596,418.18v5.76L570.79,435.2v-6.11Zm4.42-1.83,9.65-4-9.65-4Zm22-6.63,2.27-1.15a6.26,6.26,0,0,1,1.22,3.89c0,2.56-1.54,4.32-3.85,4.32-2.05,0-3.53-1.12-4.53-3.31l1.87-1.77c.65,1.41,1.37,1.84,2.19,1.84a1.53,1.53,0,0,0,1.52-1.69A3.81,3.81,0,0,0,602.57,418.39Z"/><path class="cls-2" d="M596,468.14H570.79v-4.78l15.3-12.57h-15.3V445H596v4.82l-15.29,12.52H596Z"/><path class="cls-2" d="M586.84,520.56c-5.61,0-9.1-4.21-9.1-10.94v-5.08h-7v-5.83H596v10.91C596,516.35,592.49,520.56,586.84,520.56Zm0-5.9c2.77,0,4.39-1.8,4.39-5.37v-4.75h-8.74v4.75C582.49,512.86,584.11,514.66,586.84,514.66Z"/><path class="cls-2" d="M596,555H570.79v-5.83h10.33V537.73H570.79V531.9H596v5.83h-9.93v11.45H596Z"/><path class="cls-2" d="M576.19,584.78V573.09l-5.4-2.24v-6L596,576.11v5.76l-25.19,11.27V587Zm4.42-1.83,9.65-4-9.65-4ZM598,575.89v-4.14l4.1,4.79v4.9l-4.1,4.78v-4.13l2.05-3.1Zm6.22,6.66,1.73-.93a5.49,5.49,0,0,1,.79,3c0,2-1.11,3.32-2.84,3.32a3.56,3.56,0,0,1-3.13-2.52l1.33-1.37c.47,1,1,1.33,1.51,1.33a1.08,1.08,0,0,0,1.05-1.22A3.18,3.18,0,0,0,604.26,582.55Z"/><path class="cls-2" d="M570.79,625.9l15.12,0-12.46-7.42v-2.62l12.13-7.38H570.79V603H596v4.82l-15.65,9.43L596,626.51v4.79l-25.19.07Z"/></svg>